<?xml version="1.0" standalone="no"?><!-- Generator: Gravit.io --><svg xmlns="http://www.w3.org/2000/svg" xmlns:xlink="http://www.w3.org/1999/xlink" style="isolation:isolate" viewBox="0 0 130.667 81.333" width="130.667" height="81.333"><defs><clipPath id="_clipPath_c4PVmhdudmgIRB4Z3CvVDvLPGaElKJHw"><rect width="130.667" height="81.333"/></clipPath></defs><g clip-path="url(#_clipPath_c4PVmhdudmgIRB4Z3CvVDvLPGaElKJHw)"><g id="g12"><path d=" M 0.667 0.667 L 129.667 0.667 L 129.667 80.333 L 0.667 80.333 L 0.667 0.667 Z " fill="rgb(0,166,80)"/><path d=" M 106.998 20.552 C 105.725 21.924 104.255 23.196 102.884 24.518 L 92.995 33.919 L 92.897 34.065 C 97.792 39.647 102.836 44.739 107.633 50.223 L 103.227 50.271 L 99.848 46.746 L 89.909 36.367 L 89.762 36.268 L 89.715 36.416 C 89.762 40.92 89.715 45.571 89.715 50.223 L 89.568 50.32 L 86.214 50.32 C 86.132 45.343 86.287 40.92 86.287 35.877 L 86.243 20.536 C 87.835 20.536 88.586 20.536 89.711 20.536 L 89.715 21.727 C 89.665 25.351 89.715 28.825 89.762 32.255 L 92.749 29.512 L 102.395 20.552 C 103.961 20.552 105.43 20.552 106.998 20.552" fill="rgb(255,255,255)"/><path d=" M 51.622 20.698 C 51.671 22.315 51.622 23.979 51.671 25.546 L 51.671 39.941 C 51.622 43.466 51.793 47.007 51.696 50.483 C 51.076 50.516 50.154 50.467 49.371 50.467 L 48.196 50.467 C 48.147 48.019 48.147 45.571 48.147 43.172 L 48.048 43.122 C 43.594 43.073 39.323 43.098 34.508 43.098 C 32.452 45.596 30.57 48.068 28.464 50.565 C 26.947 50.614 25.527 50.565 24.107 50.565 C 28.758 44.542 33.801 38.619 38.55 32.547 L 47.461 21.531 C 47.852 21.14 47.902 20.698 48.717 20.698 L 51.622 20.698 Z  M 48.147 26.624 L 48.048 26.525 C 44.377 31.03 40.802 35.387 37.179 39.941 L 37.13 40.185 C 40.949 40.137 44.23 40.248 48.147 40.151 L 48.147 26.624" fill="rgb(255,255,255)"/><path d=" M 83.594 29.365 C 86.139 35.387 84.671 42.437 79.921 46.844 C 75.711 51.055 68.905 52.328 63.373 50.223 C 58.282 48.362 54.119 43.318 53.434 37.982 C 52.505 31.568 55.442 25.497 60.779 22.119 C 65.528 19.034 72.626 18.986 77.375 22.119 C 80.069 23.784 82.37 26.428 83.594 29.365 L 83.594 29.365 Z  M 74.83 24.322 C 70.766 22.021 64.842 22.658 61.267 25.693 C 57.303 28.729 55.588 33.869 56.862 38.765 C 57.987 43.515 62.394 47.284 67.193 47.971 C 71.99 48.607 76.641 46.55 79.432 42.682 C 81.88 39.352 82.321 34.016 80.509 30.295 C 79.432 27.798 77.278 25.546 74.83 24.322 Z  M 68.857 25.253 C 67.632 27.114 64.745 28.778 65.87 31.372 C 66.311 32.45 67.485 33.134 68.563 33.331 C 68.758 34.898 68.612 36.563 68.612 38.08 C 67.681 37.687 66.702 37.149 65.821 36.612 C 66.213 35.584 66.36 34.016 65.381 33.134 C 63.618 30.835 60.875 32.792 58.623 32.89 C 59.555 34.752 59.358 37.444 61.561 38.422 C 62.931 38.864 64.451 38.422 65.381 37.345 C 66.507 37.786 67.534 38.325 68.612 38.913 C 68.71 40.43 68.661 41.654 68.563 43.122 C 66.066 43.172 64.334 43.098 60.948 43.098 C 61.045 43.344 61.317 43.71 61.513 43.858 C 66.066 43.906 70.178 43.809 74.439 43.858 C 76.176 43.874 76.421 43.955 76.901 43.098 C 74.404 43.001 71.746 43.172 69.444 43.122 L 69.346 39.352 L 69.444 38.913 C 70.472 38.374 71.452 37.687 72.529 37.296 C 72.871 37.64 73.214 38.031 73.655 38.276 C 74.389 38.716 75.319 38.716 76.201 38.52 C 78.795 37.737 78.257 34.752 79.285 32.841 C 77.131 32.695 74.292 31.03 72.626 33.134 C 71.746 34.065 71.844 35.534 72.088 36.66 C 71.207 37.101 70.277 37.64 69.395 38.08 C 69.297 36.563 69.346 35.044 69.346 33.478 C 69.542 33.184 69.982 33.282 70.277 33.134 C 71.501 32.792 72.185 31.519 72.333 30.393 C 72.626 28.434 70.619 27.357 69.591 26.085 C 69.346 25.791 69.15 25.399 68.857 25.253 Z  M 71.452 31.078 C 71.06 31.863 70.374 32.596 69.444 32.695 C 68.318 32.89 67.339 32.205 66.801 31.372 C 66.311 30.736 66.213 29.708 66.653 28.974 C 67.242 28.043 68.22 27.309 68.905 26.428 C 69.982 27.798 72.284 28.974 71.452 31.078 Z  M 64.745 33.429 C 65.283 34.065 65.577 34.947 65.429 35.779 C 65.283 36.513 64.745 37.101 64.205 37.492 C 63.373 37.884 62.149 37.982 61.366 37.444 C 60.142 36.464 60.191 34.848 59.652 33.478 C 61.317 33.232 63.226 32.059 64.745 33.429 L 64.745 33.429 Z  M 78.257 33.478 C 77.767 34.995 77.767 37.149 76.005 37.835 C 75.075 38.128 73.998 37.932 73.311 37.248 C 72.675 36.612 72.529 35.681 72.675 34.898 C 72.871 34.115 73.311 33.282 74.144 32.938 C 75.516 32.547 76.935 33.232 78.257 33.478" fill="rgb(255,255,255)"/><path d=" M 25.527 55.87 C 25.698 56.226 25.784 56.734 25.784 57.399 C 25.784 57.879 25.727 58.294 25.612 58.641 C 25.405 59.275 25.037 59.593 24.51 59.593 L 23.48 59.593 L 23.48 55.338 L 24.51 55.338 C 25.017 55.338 25.356 55.515 25.527 55.87 L 25.527 55.87 Z  M 22.396 54.205 L 22.396 60.725 L 24.701 60.725 C 25.508 60.725 26.106 60.319 26.492 59.508 C 26.775 58.906 26.916 58.172 26.916 57.306 C 26.916 56.964 26.882 56.604 26.817 56.227 C 26.751 55.849 26.623 55.498 26.434 55.175 C 26.204 54.772 25.902 54.497 25.527 54.346 C 25.307 54.258 25.031 54.211 24.701 54.205 L 22.396 54.205 Z " fill="rgb(255,255,255)"/><path d=" M 29.042 54.165 L 29.042 55.328 L 27.994 55.328 L 27.994 54.165 L 29.042 54.165 Z  M 27.994 60.725 L 27.994 55.903 L 29.042 55.903 L 29.042 60.725 L 27.994 60.725 Z " fill="rgb(255,255,255)"/><path d=" M 32.464 57.073 C 32.613 57.246 32.696 57.499 32.714 57.831 L 31.108 57.831 C 31.14 57.52 31.222 57.272 31.354 57.089 C 31.484 56.906 31.671 56.815 31.913 56.815 C 32.13 56.815 32.314 56.901 32.464 57.073 Z  M 30.561 56.443 C 30.216 56.888 30.042 57.528 30.042 58.363 C 30.042 59.253 30.233 59.896 30.618 60.291 C 30.999 60.686 31.444 60.883 31.948 60.883 C 32.558 60.883 33.031 60.649 33.368 60.18 C 33.586 59.885 33.708 59.595 33.735 59.309 L 32.682 59.309 C 32.626 59.451 32.561 59.561 32.487 59.641 C 32.355 59.789 32.183 59.862 31.97 59.862 C 31.769 59.862 31.597 59.802 31.453 59.681 C 31.22 59.486 31.095 59.147 31.081 58.663 L 33.788 58.663 C 33.792 58.247 33.779 57.929 33.753 57.708 C 33.708 57.331 33.608 56.998 33.452 56.714 C 33.281 56.388 33.063 56.151 32.799 56.002 C 32.535 55.851 32.24 55.775 31.913 55.775 C 31.358 55.775 30.908 55.997 30.561 56.443" fill="rgb(255,255,255)"/><path d=" M 41.228 54.667 C 40.815 54.247 40.269 54.038 39.587 54.038 C 38.806 54.038 38.176 54.356 37.698 54.993 C 37.224 55.63 36.986 56.476 36.986 57.531 C 36.986 58.575 37.223 59.397 37.694 59.999 C 38.146 60.597 38.725 60.896 39.433 60.896 C 39.863 60.896 40.225 60.786 40.521 60.565 C 40.692 60.438 40.884 60.22 41.1 59.911 L 41.215 60.725 L 41.954 60.725 L 41.954 57.226 L 39.728 57.226 L 39.728 58.314 L 40.964 58.314 C 40.907 58.742 40.759 59.087 40.521 59.351 C 40.282 59.615 39.975 59.746 39.601 59.746 C 39.217 59.746 38.877 59.581 38.576 59.247 C 38.277 58.914 38.128 58.347 38.128 57.544 C 38.128 56.748 38.266 56.152 38.543 55.755 C 38.82 55.358 39.175 55.161 39.605 55.161 C 39.829 55.161 40.032 55.208 40.216 55.306 C 40.545 55.483 40.753 55.795 40.839 56.24 L 41.935 56.24 C 41.877 55.611 41.641 55.087 41.228 54.667" fill="rgb(255,255,255)"/><path d=" M 45.357 57.073 C 45.506 57.246 45.59 57.499 45.607 57.831 L 44.002 57.831 C 44.035 57.52 44.115 57.272 44.247 57.089 C 44.379 56.906 44.564 56.815 44.807 56.815 C 45.025 56.815 45.207 56.901 45.357 57.073 L 45.357 57.073 Z  M 43.456 56.443 C 43.109 56.888 42.936 57.528 42.936 58.363 C 42.936 59.253 43.128 59.896 43.51 60.291 C 43.894 60.686 44.338 60.883 44.842 60.883 C 45.452 60.883 45.925 60.649 46.261 60.18 C 46.48 59.885 46.603 59.595 46.628 59.309 L 45.576 59.309 C 45.52 59.451 45.456 59.561 45.381 59.641 C 45.248 59.789 45.077 59.862 44.865 59.862 C 44.663 59.862 44.492 59.802 44.347 59.681 C 44.114 59.486 43.99 59.147 43.976 58.663 L 46.682 58.663 C 46.684 58.247 46.673 57.929 46.647 57.708 C 46.603 57.331 46.502 56.998 46.345 56.714 C 46.175 56.388 45.957 56.151 45.693 56.002 C 45.429 55.851 45.134 55.775 44.807 55.775 C 44.252 55.775 43.801 55.997 43.456 56.443 Z " fill="rgb(255,255,255)"/><path d=" M 47.882 60.408 C 48.18 60.728 48.639 60.888 49.261 60.888 C 49.869 60.888 50.318 60.736 50.61 60.435 C 50.902 60.133 51.047 59.743 51.047 59.265 C 51.047 58.903 50.946 58.599 50.742 58.358 C 50.536 58.119 50.228 57.941 49.818 57.823 C 49.202 57.658 48.844 57.541 48.743 57.474 C 48.641 57.409 48.589 57.305 48.589 57.159 C 48.589 57.044 48.636 56.944 48.732 56.859 C 48.829 56.773 48.988 56.731 49.211 56.731 C 49.486 56.731 49.68 56.817 49.792 56.987 C 49.853 57.082 49.892 57.21 49.906 57.372 L 50.937 57.372 C 50.893 56.782 50.716 56.368 50.404 56.127 C 50.093 55.887 49.691 55.766 49.199 55.766 C 48.68 55.766 48.277 55.927 47.99 56.246 C 47.702 56.567 47.558 56.948 47.558 57.394 C 47.558 57.771 47.652 58.06 47.836 58.261 C 48.019 58.464 48.335 58.633 48.784 58.77 C 49.402 58.949 49.76 59.076 49.858 59.15 C 49.955 59.223 50.003 59.331 50.003 59.472 C 50.003 59.62 49.944 59.731 49.825 59.805 C 49.705 59.879 49.543 59.915 49.341 59.915 C 48.996 59.915 48.758 59.831 48.629 59.663 C 48.555 59.568 48.508 59.409 48.487 59.185 L 47.439 59.185 C 47.439 59.681 47.587 60.089 47.882 60.408" fill="rgb(255,255,255)"/><path d=" M 52.092 58.809 C 52.092 59.361 52.147 59.778 52.26 60.06 C 52.464 60.575 52.857 60.831 53.441 60.831 C 53.644 60.831 53.822 60.797 53.975 60.733 C 54.125 60.668 54.282 60.547 54.444 60.37 C 54.498 60.315 54.543 60.249 54.582 60.177 C 54.62 60.102 54.643 60.058 54.653 60.044 L 54.653 60.725 L 55.657 60.725 L 55.657 55.903 L 54.608 55.903 L 54.608 58.526 C 54.608 58.836 54.575 59.085 54.506 59.273 C 54.377 59.621 54.135 59.796 53.781 59.796 C 53.507 59.796 53.323 59.673 53.228 59.429 C 53.175 59.291 53.149 59.083 53.149 58.809 L 53.149 55.903 L 52.092 55.903 L 52.092 58.809 Z " fill="rgb(255,255,255)"/><path d=" M 58.344 56.08 C 58.226 56.19 58.101 56.369 57.968 56.615 L 57.968 55.912 L 56.972 55.912 L 56.972 60.725 L 58.003 60.725 L 58.003 58.115 C 58.003 57.817 58.037 57.572 58.105 57.381 C 58.235 57.018 58.475 56.836 58.826 56.836 C 59.108 56.836 59.302 56.961 59.406 57.208 C 59.461 57.343 59.49 57.539 59.49 57.792 L 59.49 60.725 L 60.546 60.725 L 60.546 57.477 C 60.546 56.873 60.417 56.441 60.157 56.18 C 59.897 55.919 59.563 55.789 59.154 55.789 C 58.829 55.789 58.559 55.886 58.344 56.08" fill="rgb(255,255,255)"/><path d=" M 62.838 59.413 C 62.695 59.146 62.623 58.791 62.623 58.345 C 62.623 57.932 62.694 57.586 62.836 57.308 C 62.977 57.029 63.198 56.89 63.499 56.89 C 63.697 56.89 63.87 56.967 64.021 57.12 C 64.265 57.373 64.388 57.795 64.388 58.384 C 64.388 58.807 64.313 59.15 64.16 59.415 C 64.008 59.681 63.787 59.813 63.495 59.813 C 63.199 59.813 62.98 59.68 62.838 59.413 L 62.838 59.413 Z  M 62.022 56.495 C 61.713 56.968 61.557 57.615 61.557 58.438 C 61.557 59.152 61.716 59.736 62.031 60.192 C 62.346 60.647 62.734 60.875 63.194 60.875 C 63.474 60.875 63.708 60.809 63.897 60.68 C 64.086 60.55 64.254 60.343 64.401 60.057 L 64.401 60.725 L 65.41 60.725 L 65.41 54.214 L 64.361 54.214 L 64.361 56.514 C 64.243 56.287 64.092 56.109 63.906 55.981 C 63.72 55.852 63.508 55.789 63.269 55.789 C 62.748 55.789 62.331 56.025 62.022 56.495 Z " fill="rgb(255,255,255)"/><path d=" M 68.836 55.78 C 69.081 55.78 69.302 55.831 69.501 55.934 C 69.701 56.038 69.863 56.195 69.99 56.408 C 70.099 56.587 70.167 56.773 70.192 56.963 C 70.217 57.154 70.229 57.463 70.229 57.894 L 70.229 60.725 L 69.171 60.725 L 69.171 57.792 C 69.171 57.533 69.136 57.323 69.066 57.164 C 68.97 56.94 68.792 56.828 68.527 56.828 C 68.255 56.828 68.049 56.939 67.907 57.162 C 67.766 57.384 67.695 57.702 67.695 58.115 L 67.695 60.725 L 66.665 60.725 L 66.665 54.227 L 67.695 54.227 L 67.695 56.532 C 67.842 56.252 68.014 56.056 68.212 55.946 C 68.409 55.835 68.618 55.78 68.836 55.78 Z " fill="rgb(255,255,255)"/><path d=" M 73.613 57.073 C 73.762 57.246 73.845 57.499 73.863 57.831 L 72.257 57.831 C 72.29 57.52 72.371 57.272 72.503 57.089 C 72.633 56.906 72.821 56.815 73.063 56.815 C 73.281 56.815 73.464 56.901 73.613 57.073 Z  M 71.711 56.443 C 71.365 56.888 71.191 57.528 71.191 58.363 C 71.191 59.253 71.383 59.896 71.766 60.291 C 72.149 60.686 72.594 60.883 73.097 60.883 C 73.708 60.883 74.181 60.649 74.517 60.18 C 74.735 59.885 74.857 59.595 74.884 59.309 L 73.832 59.309 C 73.776 59.451 73.711 59.561 73.638 59.641 C 73.505 59.789 73.332 59.862 73.12 59.862 C 72.919 59.862 72.747 59.802 72.602 59.681 C 72.369 59.486 72.246 59.147 72.231 58.663 L 74.937 58.663 C 74.941 58.247 74.928 57.929 74.902 57.708 C 74.857 57.331 74.758 56.998 74.602 56.714 C 74.43 56.388 74.213 56.151 73.949 56.002 C 73.685 55.851 73.389 55.775 73.063 55.775 C 72.507 55.775 72.058 55.997 71.711 56.443" fill="rgb(255,255,255)"/><path d=" M 76.999 54.165 L 76.999 55.328 L 75.951 55.328 L 75.951 54.165 L 76.999 54.165 Z  M 75.951 60.725 L 75.951 55.903 L 76.999 55.903 L 76.999 60.725 L 75.951 60.725 Z " fill="rgb(255,255,255)"/><path d=" M 78.454 56.845 L 77.902 56.845 L 77.902 55.947 L 78.454 55.947 L 78.454 54.604 L 79.477 54.604 L 79.477 55.947 L 80.117 55.947 L 80.117 56.845 L 79.477 56.845 L 79.477 59.393 C 79.477 59.591 79.496 59.714 79.538 59.762 C 79.58 59.81 79.705 59.835 79.915 59.835 C 79.946 59.835 79.98 59.835 80.016 59.833 C 80.051 59.832 80.085 59.83 80.117 59.826 L 80.117 60.769 L 79.631 60.791 C 79.141 60.811 78.807 60.708 78.628 60.481 C 78.512 60.336 78.454 60.114 78.454 59.813 L 78.454 56.845" fill="rgb(255,255,255)"/><path d=" M 81.29 60.408 C 81.586 60.728 82.045 60.888 82.668 60.888 C 83.275 60.888 83.725 60.736 84.017 60.435 C 84.308 60.133 84.455 59.743 84.455 59.265 C 84.455 58.903 84.353 58.599 84.149 58.358 C 83.943 58.119 83.635 57.941 83.225 57.823 C 82.609 57.658 82.25 57.541 82.15 57.474 C 82.047 57.409 81.995 57.305 81.995 57.159 C 81.995 57.044 82.043 56.944 82.139 56.859 C 82.234 56.773 82.395 56.731 82.618 56.731 C 82.893 56.731 83.086 56.817 83.199 56.987 C 83.261 57.082 83.299 57.21 83.314 57.372 L 84.344 57.372 C 84.299 56.782 84.123 56.368 83.811 56.127 C 83.5 55.887 83.098 55.766 82.606 55.766 C 82.086 55.766 81.684 55.927 81.396 56.246 C 81.109 56.567 80.965 56.948 80.965 57.394 C 80.965 57.771 81.058 58.06 81.244 58.261 C 81.426 58.464 81.742 58.633 82.19 58.77 C 82.809 58.949 83.168 59.076 83.264 59.15 C 83.363 59.223 83.41 59.331 83.41 59.472 C 83.41 59.62 83.352 59.731 83.232 59.805 C 83.112 59.879 82.951 59.915 82.748 59.915 C 82.402 59.915 82.165 59.831 82.035 59.663 C 81.962 59.568 81.915 59.409 81.894 59.185 L 80.845 59.185 C 80.845 59.681 80.993 60.089 81.29 60.408" fill="rgb(255,255,255)"/><path d=" M 85.517 60.725 L 85.517 54.227 L 86.529 54.227 L 86.529 57.739 L 87.816 55.926 L 89.099 55.926 L 87.714 57.77 L 89.152 60.725 L 87.905 60.725 L 86.959 58.663 L 86.529 59.207 L 86.529 60.725 L 85.517 60.725 Z " fill="rgb(255,255,255)"/><path d=" M 91.849 59.72 C 91.66 59.88 91.457 59.958 91.235 59.958 C 91.094 59.958 90.975 59.911 90.877 59.816 C 90.78 59.719 90.732 59.564 90.732 59.349 C 90.732 59.107 90.811 58.929 90.97 58.813 C 91.065 58.746 91.221 58.688 91.439 58.641 L 91.669 58.589 C 91.786 58.562 91.879 58.533 91.946 58.503 C 92.012 58.471 92.077 58.43 92.142 58.38 L 92.142 58.849 C 92.133 59.271 92.035 59.561 91.849 59.72 L 91.849 59.72 Z  M 90.253 58.155 C 89.879 58.419 89.692 58.849 89.692 59.442 C 89.692 59.898 89.809 60.252 90.043 60.501 C 90.279 60.75 90.573 60.875 90.931 60.875 C 91.211 60.875 91.463 60.797 91.686 60.64 C 91.872 60.507 92.036 60.347 92.178 60.158 C 92.186 60.267 92.197 60.365 92.209 60.451 C 92.22 60.536 92.241 60.627 92.271 60.725 L 93.399 60.725 L 93.399 60.539 C 93.331 60.5 93.279 60.452 93.246 60.393 C 93.212 60.334 93.191 60.222 93.182 60.057 C 93.178 59.839 93.177 59.653 93.177 59.499 L 93.177 57.288 C 93.177 56.708 93.009 56.312 92.673 56.102 C 92.336 55.893 91.952 55.789 91.519 55.789 C 90.853 55.789 90.383 56.002 90.113 56.425 C 89.938 56.697 89.841 57.043 89.821 57.465 L 90.82 57.465 C 90.843 57.279 90.891 57.132 90.962 57.022 C 91.065 56.875 91.238 56.802 91.483 56.802 C 91.699 56.802 91.863 56.839 91.977 56.915 C 92.09 56.99 92.147 57.125 92.147 57.323 C 92.147 57.485 92.073 57.605 91.925 57.681 C 91.843 57.726 91.706 57.763 91.514 57.792 L 91.16 57.846 C 90.763 57.908 90.46 58.01 90.253 58.155" fill="rgb(255,255,255)"/><path d=" M 94.599 60.408 C 94.896 60.728 95.355 60.888 95.978 60.888 C 96.584 60.888 97.034 60.736 97.327 60.435 C 97.618 60.133 97.764 59.743 97.764 59.265 C 97.764 58.903 97.663 58.599 97.459 58.358 C 97.253 58.119 96.944 57.941 96.534 57.823 C 95.918 57.658 95.56 57.541 95.46 57.474 C 95.357 57.409 95.305 57.305 95.305 57.159 C 95.305 57.044 95.352 56.944 95.448 56.859 C 95.545 56.773 95.705 56.731 95.928 56.731 C 96.203 56.731 96.395 56.817 96.508 56.987 C 96.569 57.082 96.608 57.21 96.623 57.372 L 97.654 57.372 C 97.609 56.782 97.431 56.368 97.12 56.127 C 96.81 55.887 96.409 55.766 95.916 55.766 C 95.396 55.766 94.993 55.927 94.706 56.246 C 94.418 56.567 94.275 56.948 94.275 57.394 C 94.275 57.771 94.368 58.06 94.553 58.261 C 94.736 58.464 95.051 58.633 95.499 58.77 C 96.12 58.949 96.477 59.076 96.575 59.15 C 96.671 59.223 96.72 59.331 96.72 59.472 C 96.72 59.62 96.661 59.731 96.542 59.805 C 96.422 59.879 96.261 59.915 96.057 59.915 C 95.712 59.915 95.475 59.831 95.345 59.663 C 95.271 59.568 95.225 59.409 95.203 59.185 L 94.155 59.185 C 94.155 59.681 94.303 60.089 94.599 60.408" fill="rgb(255,255,255)"/><path d=" M 99.036 60.408 C 99.332 60.728 99.792 60.888 100.414 60.888 C 101.021 60.888 101.471 60.736 101.764 60.435 C 102.055 60.133 102.201 59.743 102.201 59.265 C 102.201 58.903 102.099 58.599 101.896 58.358 C 101.689 58.119 101.381 57.941 100.971 57.823 C 100.355 57.658 99.996 57.541 99.896 57.474 C 99.793 57.409 99.741 57.305 99.741 57.159 C 99.741 57.044 99.79 56.944 99.886 56.859 C 99.981 56.773 100.141 56.731 100.366 56.731 C 100.639 56.731 100.832 56.817 100.944 56.987 C 101.007 57.082 101.045 57.21 101.06 57.372 L 102.09 57.372 C 102.046 56.782 101.868 56.368 101.557 56.127 C 101.246 55.887 100.844 55.766 100.352 55.766 C 99.832 55.766 99.43 55.927 99.142 56.246 C 98.855 56.567 98.711 56.948 98.711 57.394 C 98.711 57.771 98.804 58.06 98.99 58.261 C 99.173 58.464 99.487 58.633 99.935 58.77 C 100.555 58.949 100.914 59.076 101.011 59.15 C 101.108 59.223 101.157 59.331 101.157 59.472 C 101.157 59.62 101.097 59.731 100.978 59.805 C 100.858 59.879 100.696 59.915 100.493 59.915 C 100.148 59.915 99.91 59.831 99.782 59.663 C 99.707 59.568 99.66 59.409 99.64 59.185 L 98.592 59.185 C 98.592 59.681 98.74 60.089 99.036 60.408" fill="rgb(255,255,255)"/><path d=" M 105.383 57.073 C 105.532 57.246 105.616 57.499 105.633 57.831 L 104.028 57.831 C 104.06 57.52 104.142 57.272 104.274 57.089 C 104.404 56.906 104.591 56.815 104.833 56.815 C 105.051 56.815 105.234 56.901 105.383 57.073 Z  M 103.482 56.443 C 103.135 56.888 102.961 57.528 102.961 58.363 C 102.961 59.253 103.154 59.896 103.537 60.291 C 103.92 60.686 104.364 60.883 104.868 60.883 C 105.478 60.883 105.952 60.649 106.288 60.18 C 106.506 59.885 106.628 59.595 106.655 59.309 L 105.602 59.309 C 105.547 59.451 105.482 59.561 105.408 59.641 C 105.275 59.789 105.102 59.862 104.89 59.862 C 104.69 59.862 104.518 59.802 104.373 59.681 C 104.14 59.486 104.016 59.147 104.001 58.663 L 106.708 58.663 C 106.711 58.247 106.699 57.929 106.672 57.708 C 106.628 57.331 106.529 56.998 106.371 56.714 C 106.201 56.388 105.983 56.151 105.72 56.002 C 105.455 55.851 105.16 55.775 104.833 55.775 C 104.278 55.775 103.829 55.997 103.482 56.443" fill="rgb(255,255,255)"/><path d=" M 107.691 60.725 L 107.691 59.406 L 108.787 59.406 L 108.787 60.725 L 107.691 60.725 Z " fill="rgb(255,255,255)"/></g></g></svg>