<?xml version="1.0" encoding="utf-8"?>
<!-- Generator: Adobe Illustrator 15.0.0, SVG Export Plug-In . SVG Version: 6.00 Build 0)  -->
<!DOCTYPE svg PUBLIC "-//W3C//DTD SVG 1.1//EN" "http://www.w3.org/Graphics/SVG/1.1/DTD/svg11.dtd">
<svg version="1.1" id="Ebene_1" xmlns="http://www.w3.org/2000/svg" xmlns:xlink="http://www.w3.org/1999/xlink" x="0px" y="0px"
	  viewBox="0 100 800 700" enable-background="new 0 0 800 800" xml:space="preserve">
<g>
	<g>
		<path fill-rule="evenodd" clip-rule="evenodd" fill="#192c3b" d="M499.97,197.083c4.497-0.822,8.003,4.93,6.237,10.395
			c0.048,1.48,1.54,1.512,1.247,3.324c-3.387,1.051-5.049,3.826-5.818,7.49c-0.951-0.58-0.158-2.895-0.419-4.157
			c-2.822,0.778-4.654,2.546-7.481,3.328c0.545-4.434-0.746-7.02-2.08-9.57c2.219,0.004,3.427-1.007,5.404-1.244
			C498.646,204.067,502.39,201.169,499.97,197.083z"/>
		<path fill-rule="evenodd" clip-rule="evenodd" fill="#192c3b" d="M544.882,216.211c1.303-0.501,2.771-0.829,4.157-1.247
			c3.475,2.633,5.906,6.297,9.151,9.147c-0.391,1.275-2.306,1.022-2.909,2.081c0,4.575,0,9.147,0,13.723
			c-3.774,1.078-7.166,2.543-11.232,3.325c-0.182-8.358,0.738-15.615,0.419-24.119c-6.107-4.567-12.974-8.374-19.132-12.89
			c-0.951,0.714-0.15,3.174-0.415,4.571c-1.46-1.168-3.396-1.871-4.571-3.324c0.785-1.982,3.742-1.8,4.986-3.324
			C532.205,207.818,538.494,212.066,544.882,216.211z"/>
		<path fill-rule="evenodd" clip-rule="evenodd" fill="#192c3b" d="M511.197,211.64c2.18,1.003,3.526,2.851,5.823,3.739
			c-1.334,1.094-1.483,3.415-0.833,5.409c-1.74,1.962-8.603,2.1-8.318-1.667c0.608-1.473,2.409-1.749,3.328-2.909
			C511.197,214.688,511.197,213.16,511.197,211.64z"/>
		<path fill-rule="evenodd" clip-rule="evenodd" fill="#192c3b" d="M498.307,239.915c-4.196,1.765-8.76,3.159-12.893,4.99
			c-1.126-0.296,0.299,1.958-0.83,1.666c-4.509,2.002-9.53,3.498-14.138,5.405c0,3.099,0,7.513,0,11.643
			c0,3.553,1.374,8.974-2.909,8.729c0-6.791,0-13.585,0-20.372c-3.66,0.265-2.5,4.765-2.5,8.314c0,3.66,0,7.864,0,10.814
			c-3.569,1.693-7.77,2.764-11.224,4.571c0.727-8.141,5.456-15.887,9.562-22.042c-4.083,1.326-7.684,3.131-11.644,4.58
			c-1.361,0.024-1.291,2.744-2.909,1.244c0.6-2.291,3.671-2.629,5.404-3.328c28.943-11.674,60.334-24.047,89.403-34.928
			c0.016,1.401-1.923,0.848-2.492,1.661c0.111,6.546-0.319,13.633,0.416,19.547c-4.588,2.203-10.032,3.553-14.557,5.82
			c1.674-9.005,6.767-18.181,12.479-24.533c-4.13,0.861-9.878,3.704-14.557,5.404c-0.936,0.178-0.012,2.211-0.829,2.496
			c-6.19,1.994-11.615,4.746-17.885,6.653c0,3.213,0,7.86,0,12.061c0,3.542,1.391,8.946-2.913,8.732c0-7.066,0-14.138,0-21.208
			c-4.012,0.304-2.91,4.789-2.91,8.737c0,3.822,0,8.133,0,11.224c-4.177,1.919-8.46,3.735-13.305,4.994
			C489.725,254.069,493.656,246.634,498.307,239.915z"/>
		<path fill-rule="evenodd" clip-rule="evenodd" fill="#192c3b" d="M487.493,221.616c0.782,0.47,2.006,0.493,1.666,2.081
			C488.445,223.164,487.525,222.836,487.493,221.616z"/>
		<path fill-rule="evenodd" clip-rule="evenodd" fill="#192c3b" d="M501.217,222.863c1.271,3.582,2.965,6.74,8.319,6.238
			c-2.721,1.3-5.094,2.95-8.319,3.748C501.217,229.52,501.217,226.192,501.217,222.863z"/>
		<path fill-rule="evenodd" clip-rule="evenodd" fill="#192c3b" d="M471.698,224.112c3.932,2.029,7.091,4.828,10.81,7.071
			c-0.269,4.035-2.926,5.673-6.656,6.237c0.651-1.5,1.267-3.261,0-4.571c-3.66-0.616-4.244,1.855-5.82,3.324
			c0.048,2.033-0.229,4.382,0.415,5.819c0.332,1.611,2.574,1.307,2.91,2.914c-2.054,0.024-2.938,1.22-4.991,1.244
			c-0.229-2.95,0.498-6.866-0.414-9.148c-1.887,2.772-4.213,5.44-6.237,8.319c-1.859,2.641-3.084,7.027-7.486,7.071
			c1.583-4.781,4.947-8.607,7.486-12.476c2.608-3.983,4.994-7.936,7.48-12.058c0.648-0.599,1.627-0.876,2.504-1.251
			C471.698,225.777,471.698,224.944,471.698,224.112z"/>
		<path fill-rule="evenodd" clip-rule="evenodd" fill="#192c3b" d="M709.14,276.095c0.351-0.079,0.391,0.161,0.413,0.414
			c0.357-0.075,0.396,0.162,0.415,0.415c5.093,10.822,10.882,25.615,16.637,38.675c1.81,4.105,5.505,9.427,4.991,13.305
			c-0.428,3.213-3.293,3.983-5.409,5.827c0,60.901,0,127.837,0,190.87c0,4.319,0.715,9.112,0,12.473
			c-0.529,2.515-3.237,5.4-4.989,8.314c-4.699,7.816-9.764,17.028-14.554,24.127c0.908,7.697-4.18,9.399-5.818,14.552
			c-0.972-75.545-0.143-152.891-0.42-229.13c-6.396,0.675-13.773,2.581-19.541,2.495c0.083-1.938,2.83-1.433,4.156-1.662
			c4.322-0.75,10.494-1.331,15.385-2.082c0-5.404,0-10.813,0-16.218c-5.546-0.138-14.177,2.447-19.541,2.495
			c0.157-2.344,3.146-1.397,4.571-1.662c4.504-0.841,10.111-1.943,14.97-2.5c0-7.202,0-14.414,0-21.62
			c-6.557,1.066-13.754,2.413-20.789,3.743c-2.017,0.375-4.252,1.626-5.823,0.415c1.141-1.287,4.102-1.682,6.238-2.081
			c6.714-1.244,13.711-2.163,20.374-3.323c0-6.933,0-13.862,0-20.794c-39.151,7.872-80.144,16.945-120.177,25.784
			c-5.661,1.249-11.318,2.749-17.047,2.91c0.248-1.875,2.613-1.377,3.738-1.661c21.047-5.413,44.099-9.626,65.706-14.557
			c20.381-4.651,40.863-9.128,61.542-13.724c1.259-0.28,3.021-0.355,4.576-0.833c0.734-0.222,3.545,0.07,2.91-2.072
			c-0.182-2.361-3.028-0.549-3.743-0.423c-9.966,1.752-20.707,4.402-31.188,6.656c-31.983,6.874-64.883,14.766-96.889,22.038
			c-1.434,0.329-3.068,0.553-4.576,0.833c-0.932,0.174-2.862,1.402-3.742,0c-0.959-2.668,2.175-2.115,3.328-2.495
			c9.451-3.111,20.982-5.073,31.604-7.481c29.843-6.786,60.325-13.874,91.483-20.799c5.895-1.31,14.275-2.024,17.469-4.571
			C707.225,281.29,707.367,278.089,709.14,276.095z"/>
		<path fill-rule="evenodd" clip-rule="evenodd" fill="#192c3b" d="M512.863,279.004c0.127,1.095-0.58,1.367-1.666,1.248
			C511.564,279.645,511.529,278.638,512.863,279.004z"/>
		<path fill-rule="evenodd" clip-rule="evenodd" fill="#192c3b" d="M514.944,279.004c-0.864,1.719-0.864,2.854,0,4.572
			C511.68,284.275,512.567,278.625,514.944,279.004z"/>
		<path fill-rule="evenodd" clip-rule="evenodd" fill="#192c3b" d="M493.735,281.5c-0.354,0.896-1.026,1.468-2.499,1.247
			C491.959,282.218,492.326,281.337,493.735,281.5z"/>
		<path fill-rule="evenodd" clip-rule="evenodd" fill="#192c3b" d="M497.474,281.5c-0.39,1.128-2.253,0.785-1.661,2.913
			C493.277,284.181,495.579,281.093,497.474,281.5z"/>
		<path fill-rule="evenodd" clip-rule="evenodd" fill="#192c3b" d="M511.197,283.576c-0.474,0.916-1.394,1.386-1.661,2.496
			c-0.371-0.32-0.94-0.443-1.667-0.415C508.588,284.571,509.366,283.549,511.197,283.576z"/>
		<path fill-rule="evenodd" clip-rule="evenodd" fill="#192c3b" d="M511.612,283.991c0.671-0.111,0.718,0.395,1.251,0.422
			c-0.687,0.695-0.332,2.439-2.08,2.072C509.859,285.574,511.514,285.108,511.612,283.991z"/>
		<path fill-rule="evenodd" clip-rule="evenodd" fill="#192c3b" d="M491.655,286.908c0.275,0,0.553,0,0.829,0
			c5.443,4.702-4.541,12.211,0.414,16.633c-1.054-0.47-2.025-1.022-2.909-1.666C489.18,295.625,494.454,292.559,491.655,286.908z"/>
		<path fill-rule="evenodd" clip-rule="evenodd" fill="#192c3b" d="M478.346,288.566c0.131-0.561,1.042-0.343,1.666-0.415
			c0.27,1.521,1.229,1.868,0,2.91C479.077,290.608,479.282,289.02,478.346,288.566z"/>
		<path fill-rule="evenodd" clip-rule="evenodd" fill="#192c3b" d="M482.508,290.233c-0.127,1.677-0.616,2.988-2.496,2.91
			C480.803,292.131,480.889,290.419,482.508,290.233z"/>
		<path fill-rule="evenodd" clip-rule="evenodd" fill="#192c3b" d="M489.989,292.312c-0.647,2.338-2.989,3.131-4.575,4.573
			c-1.524,1.393-2.587,3.733-4.987,4.161c-1.527-0.118,0.525-1.785,0.829-2.081c1.942-1.868,5.63-4.212,7.07-6.653
			C488.884,292.312,489.437,292.312,489.989,292.312z"/>
		<path fill-rule="evenodd" clip-rule="evenodd" fill="#192c3b" d="M481.671,294.386c-0.565,1.097-1.749,1.583-2.077,2.917
			C477.943,296.7,479.622,293.877,481.671,294.386z"/>
		<path fill-rule="evenodd" clip-rule="evenodd" fill="#192c3b" d="M502.883,303.123c1.303-0.198,1.098,1.118,2.077,1.247
			c-0.348,0.395-2.199,1.344-0.833,2.082C502.287,307.533,501.675,304.541,502.883,303.123z"/>
		<path fill-rule="evenodd" clip-rule="evenodd" fill="#192c3b" d="M506.622,307.279c-1.896,2.615,2.759,6.504,1.247,9.981
			c-2.428-1.128-4.915-1.101-7.485-1.244c0.703-1.385,3.411-0.758,4.991-1.251c0.567-3.344-1.299-4.24-1.248-7.071
			C504.62,307.217,505.6,307.224,506.622,307.279z"/>
		<path fill-rule="evenodd" clip-rule="evenodd" fill="#192c3b" d="M491.655,308.528c-0.071-0.901,1.477-0.186,2.08-0.411
			c0.442,1.07,1.501,1.541,1.659,2.91c1.002,0.166,0.907-0.763,2.079-0.418c0.707,2.064,3.396,2.147,4.576,3.742
			c-2.519,1.517-3.396-1.906-6.237-0.414C494.659,311.898,494.103,309.27,491.655,308.528z"/>
		<path fill-rule="evenodd" clip-rule="evenodd" fill="#192c3b" d="M497.893,315.599c0.671-0.119,0.715,0.39,1.248,0.418
			c0.481,5.93-0.063,10.325,0,16.633c-2.072-0.655-1.213-3.833-1.248-6.242c-0.055-3.323,0.257-6.794-0.419-9.561
			C497.355,316.175,497.869,316.132,497.893,315.599z"/>
		<path fill-rule="evenodd" clip-rule="evenodd" fill="#192c3b" d="M495.395,316.017c0.477,0.146,1.058,0.727,0.418,0.83
			c-1.334,4.208,0.142,11.235-2.914,13.724c-1.456-0.475,0.15-2.598,0.419-4.163c0.454-2.648,0.082-6.948,0.832-9.976
			C494.738,316.467,495.326,316.502,495.395,316.017z"/>
		<path fill-rule="evenodd" clip-rule="evenodd" fill="#192c3b" d="M495.395,332.235c-1.604,1.299-2.516,3.302-4.568,4.153
			C491.781,334.439,492.322,332.07,495.395,332.235z"/>
		<path fill-rule="evenodd" clip-rule="evenodd" fill="#192c3b" d="M499.556,333.48c-1.841,0.793-0.664,4.602-3.333,4.575
			c0.521-1.347-1.338-0.32-0.828-1.667C498.17,336.957,497.072,331.864,499.556,333.48z"/>
		<path fill-rule="evenodd" clip-rule="evenodd" fill="#192c3b" d="M505.375,345.955c0.418,0,0.832,0,1.247,0
			c-0.908,6.296-2.302,12.116-2.91,18.713c-3.201-0.881-1.44-5.393-0.829-8.314c0.691-3.325,1.852-6.787,2.492-9.152
			C505.375,346.784,505.375,346.374,505.375,345.955z"/>
		<path fill-rule="evenodd" clip-rule="evenodd" fill="#192c3b" d="M442.166,348.45c-14.693,4.271-30.549,6.952-46.156,10.391
			c-5.042,1.118-10.17,3.214-15.389,2.5c19.601-4.662,39.862-8.654,59.468-13.309C441.054,347.901,441.686,348.098,442.166,348.45z"
			/>
		<path fill-rule="evenodd" clip-rule="evenodd" fill="#192c3b" d="M473.356,351.778c0.414,0,0.828,0,1.247,0
			c1.544,5.528,3.245,10.889,4.575,16.633c-4.654-1.808-3.514-10.333-5.408-15.39C473.553,352.691,473.34,352.347,473.356,351.778z"
			/>
		<path fill-rule="evenodd" clip-rule="evenodd" fill="#192c3b" d="M538.645,355.103c0.828,0.003,0.528,1.136,1.661,0.833
			c-2.885,6.403-7.07,11.503-9.98,17.88c-4.401-1.639,0.471-5.764,2.081-8.314C534.779,361.731,536.434,358.02,538.645,355.103z"/>
		<path fill-rule="evenodd" clip-rule="evenodd" fill="#192c3b" d="M644.27,360.512c0.793,0.177,1.042,0.892,2.08,0.829
			c-0.008,2.495,0,4.99,0,7.486c-13.541,1.428-27.903,4.255-40.756,4.99c-0.903-2.867,1.885-2.125,3.33-2.495
			c10.275-2.641,24.444-2.286,35.346-4.576C644.27,364.668,644.27,362.588,644.27,360.512z"/>
		<path fill-rule="evenodd" clip-rule="evenodd" fill="#192c3b" d="M389.772,361.34c1.275-0.3,1.224,0.718,2.496,0.418
			c0,3.881,0,7.763,0,11.644c-1.666,0-3.329,0-4.991,0c0.008-1.245,1.963-0.534,2.495-1.253
			C389.772,368.545,389.772,364.945,389.772,361.34z"/>
		<path fill-rule="evenodd" clip-rule="evenodd" fill="#192c3b" d="M534.487,381.302c-6.565,3.371-11.942,6.353-16.219,11.229
			c-19.112,21.784-8.374,71.518-11.229,109.366c-14.817,2.926-29.519,5.963-44.493,8.729c0,6.1,0,12.2,0,18.3
			c-6.14,0.414-11.655,4.26-17.885,4.576c-4.837,0.24-10.561-1.88-16.219-2.91c-15.757-2.879-32.922-5.16-47.4-8.736
			c0.395-1.536,2.629-0.494,3.324-0.415c18.509,2.136,39.209,6.637,57.799,9.151c0.972-7.766,0.139-17.328,0.419-25.785
			c-0.943-2.336,2.543-0.225,2.077-2.08c0.86-24.861-1.165-48.81,0-69.86c1.279-23.123,11.235-43.396,24.532-54.89
			c6.977-6.024,17.475-10.789,29.112-11.646C515.711,365.051,525.785,372.919,534.487,381.302z"/>
		<path fill-rule="evenodd" clip-rule="evenodd" fill="#192c3b" d="M640.945,372.149c1.792,0.289,0.379,3.778,0.83,5.409
			c-7.818,1.473-16.487,2.089-24.537,3.328c0,7.762,0,15.528,0,23.286c-4.123,0.035-7.791,0.528-11.645,0.833
			c0-9.291,0-18.577,0-27.865C617.107,375.213,629.37,374.029,640.945,372.149z"/>
		<path fill-rule="evenodd" clip-rule="evenodd" fill="#192c3b" d="M391.853,374.231c1.268-0.3,1.224,0.718,2.495,0.415
			c0,3.885,0,7.761,0,11.646c-0.695,0-1.39,0-2.08,0c0,4.158,0,8.319,0,12.477c-3.068,0.398-6.044,0.884-9.566,0.833
			c0.56-2.354,5.01-0.81,7.07-1.667c0-4.024,0-8.039,0-12.057c0.691,0,1.386,0,2.081,0
			C391.853,381.996,391.853,378.115,391.853,374.231z"/>
		<path fill-rule="evenodd" clip-rule="evenodd" fill="#192c3b" d="M558.19,374.646c11.899,14.67,17.964,34.71,19.128,60.302
			c0.889,19.582,0,42.05,0,62.789c0,7.772-0.646,17.268,0.829,22.875c0,5.543,0,11.086,0,16.632
			c-0.545,1.794,1.979,0.519,1.667,2.077c0,6.239,0,12.479,0,18.714c3.652,1.078,8.177,1.347,12.89,2.08
			c1.102,0.171,3.249-0.059,3.743,1.248c-0.166,2.195-2.974,0.549-4.162,0.415c-4.721-0.533-11.062-1.484-16.218-2.081
			c0-6.515,0-13.024,0-19.543c0.667-1.639-1.792-0.146-1.658-1.247c-0.328-20.605-1.279-40.586-0.837-61.96
			c-4.103-1.165-10.201-0.332-14.553-1.248c4.339-1.287,9.306,0.395,14.138,0c0.822-14.011,0.877-28.789,0.833-43.661
			c-6.166-0.48-12.151,1.426-17.465,0.415c-0.289-1.698,2.345-1.532,3.324-1.666c3.727-0.51,9.316-0.337,13.723-0.83
			c-1.891-14.603-4.051-28.938-8.729-40.755c-6.565,3-11.77,7.363-18.715,9.978c0.344-1.883,2.775-2.539,4.162-3.325
			c4.378-2.479,9.215-5.226,13.719-7.899C562.241,383.346,559.636,379.575,558.19,374.646z"/>
		<path fill-rule="evenodd" clip-rule="evenodd" fill="#192c3b" d="M417.634,390.449c0.276,0,0.553,0,0.829,0
			c1.776,0.169,0.398,3.486,0.837,4.989c-6.297,0.111-13.569,3.121-18.717,1.666c5.148-1.369,11.302-1.732,16.632-2.91
			C417.302,392.889,416.935,391.139,417.634,390.449z"/>
		<path fill-rule="evenodd" clip-rule="evenodd" fill="#192c3b" d="M417.634,398.348c0,6.658,0,13.31,0,19.961
			c-5.298,0.388-10.154,1.216-15.804,1.248c0-6.376,0-12.752,0-19.128C407.342,399.979,411.897,398.577,417.634,398.348z"/>
		<path fill-rule="evenodd" clip-rule="evenodd" fill="#192c3b" d="M655.497,401.263c3.211-0.431,1.993,3.549,2.076,4.989
			c1.837,32.094-1.377,67.812,0,100.221c-0.67,2.195,2.243,0.801,2.082,2.492c-0.056,1.855,0.075,4.357,0,6.655
			c-0.071,2.12,0.971,5.224-1.249,5.405c-2.218-0.182-1.18-3.285-1.246-5.405c-0.072-2.298,0.056-4.8,0-6.655
			c0.244-1.77-2.74-0.312-2.495-2.077c0-35.351,0-70.697,0-106.043C655.146,400.777,655.403,400.938,655.497,401.263z"/>
		<path fill-rule="evenodd" clip-rule="evenodd" fill="#192c3b" d="M643.019,416.232c0.592-0.038,1.179-0.07,1.251,0.415
			c0.497,3.419-3.921,1.967-5.824,2.082c-6.348,0.375-14.867,0.75-21.207,1.243c0,26.479,0,52.954,0,79.43
			c-5.523,1.267-9.548,4.039-14.973,5.404c0-28.832,0-57.66,0-86.497C615.887,417.654,629.781,417.271,643.019,416.232z"/>
		<path fill-rule="evenodd" clip-rule="evenodd" fill="#192c3b" d="M423.038,417.477c0.482-0.066,0.739,0.095,0.834,0.423
			c2.771,0.316,1.661,4.682,1.661,7.48c0,18.549,0.821,39.026,0,58.219c-0.035,0.864,0.728,3.012-0.832,3.323
			c-2.84,0.198-1.663-4.583-1.663-7.065c0-19.283,0-41.565,0-61.127C423.038,418.31,423.038,417.899,423.038,417.477z"/>
		<path fill-rule="evenodd" clip-rule="evenodd" fill="#192c3b" d="M418.463,426.629c0.28,0,0.557,0,0.837,0
			c0,18.989,0,37.979,0,56.97c-6.127,0.529-12.243,1.07-18.717,1.252c0-18.995,0-37.989,0-56.974
			C406.169,427.082,412.979,427.521,418.463,426.629z"/>
		<path fill-rule="evenodd" clip-rule="evenodd" fill="#192c3b" d="M437.176,436.605c1.635,0.454,5.121-0.963,5.409,0.832
			C442.009,439.073,437.855,437.596,437.176,436.605z"/>
		<path fill-rule="evenodd" clip-rule="evenodd" fill="#192c3b" d="M329.893,478.608c1.946-0.818,1.118-4.423,3.743-4.576
			c-0.11,5.313-0.288,11.221-0.833,16.638c-0.138,1.385,0.861,3.939-1.251,4.156c-2.302-0.445-1.391-3.162-1.659-4.156
			c-2.583-9.346-10.348-17.021-22.875-15.805c-16.973,1.65-22.563,20.968-21.209,39.922c1.129,15.722,9.822,27.53,27.446,25.366
			c7.976-0.975,16.384-9.345,12.476-19.962c-0.75-2.044-2.124-2.525-4.576-3.323c-1.105-0.364-3.383,0.213-3.738-1.666
			c0.122-2.764,4.125-1.643,6.233-1.661c4.762-0.053,9.803-0.056,14.971,0c2.297,0.027,5.515-0.929,6.238,1.246
			c-0.214,2.562-4.284,1.256-5.405,2.91c-2.03,4.209-1.003,11.478-1.248,17.466c-13.301,0.087-16.566,8.204-30.775,8.314
			c-22.622,0.187-36.163-16.55-34.927-36.59c1.053-17.071,13.004-32.702,31.603-34.518
			C314.161,471.387,322.605,473.39,329.893,478.608z"/>
		<path fill-rule="evenodd" clip-rule="evenodd" fill="#192c3b" d="M93.277,505.637c11.205,1.511,21.071,5.48,22.457,16.219
			c1.709,13.296-9.479,19.522-21.208,20.379c-9.084,0.662-19.839-0.825-29.524-0.415c-1.694,0.067-3.328,0.388-4.99,0.415
			c-1.247,0.02-3.573,0.734-4.576-0.833c-0.11-2.749,1.876-1.583,3.743-2.081c1.556-0.411,3.104-0.192,4.157-1.247
			c3.431-3.428,1.666-22.46,1.666-29.523c0-5.168,0-9.938,0-15.386c0-8.887,1.26-14.951-4.99-16.636
			c-1.595-0.428-3.817,0.142-4.576-1.245c0-0.28,0-0.552,0-0.832c-0.071-0.482,0.095-0.739,0.415-0.833
			c17.461,1.765,39.895-4.017,49.07,6.238c2.795,3.122,3.695,8.021,3.328,11.642C107.438,499.473,100.091,503.583,93.277,505.637z
			 M94.11,500.65c4.75-5.634,3.667-18.876-3.328-22.457c-3.549-1.82-7.798-1.74-12.89-1.247c-0.281,0-0.557,0-0.833,0
			c-1.488,3.647-0.833,8.594-0.833,13.304c0,4.9,0,10.025,0,14.557C84.275,504.617,90.418,505.021,94.11,500.65z M78.721,537.243
			c3.328,3.076,12.716,2.547,16.633,0.83c9.997-4.37,9.668-23.819-0.411-28.69c-4.75-2.293-10.169-1.452-18.299-1.666
			C77.299,516.69,73.367,532.297,78.721,537.243z"/>
		<path fill-rule="evenodd" clip-rule="evenodd" fill="#192c3b" d="M152.323,474.865c-0.616,2.137-3.309,1.291-4.575,1.663
			c-4.864,1.44-5.086,4.408-5.401,11.646c-0.588,13.328-1.689,33.412,2.077,41.999c5.749,13.104,28.892,11.362,35.351,1.663
			c5.026-7.554,3.324-20.258,3.324-34.515c0-6.704,0.395-16.778-2.91-19.542c-1.2-1.007-2.668-0.876-4.161-1.251
			c-0.817-0.201-3.407,0.335-3.739-1.663c0.502-2.271,3.664-1.247,5.405-1.247c3.916-0.004,8.129,0.094,12.472,0
			c2.038-0.044,4.654-0.691,5.827,0.833c0.375,2.851-3.032,1.453-3.747,1.662c-5.239,1.548-5.701,6.952-5.819,14.557
			c-0.297,19.541,2.282,40.861-9.566,48.65c-4.138,2.725-10.458,4.122-17.466,4.157c-16.743,0.096-26.668-6.099-27.856-22.452
			c-0.719-9.826,0.315-21.304,0-32.852c-0.1-3.395-0.036-7.675-1.252-9.565c-1.646-2.57-5.353-1.808-8.733-3.325
			c0-0.28,0-0.552,0-0.832c-0.067-0.482,0.091-0.739,0.419-0.833c9.171,1.267,18.322-0.999,27.857,0
			C150.448,473.682,152.84,472.979,152.323,474.865z"/>
		<path fill-rule="evenodd" clip-rule="evenodd" fill="#192c3b" d="M239.239,508.55c1.066,2.796,3.656,4.981,5.819,7.485
			c4.192,4.852,8.726,9.739,13.309,14.971c2.242,2.562,4.13,5.646,6.652,7.067c1.812,1.022,4.753,0.249,5.405,2.91
			c-0.455,2.515-3.976,0.927-6.239,0.836c-3.352-0.142-7.209,0.153-10.395,0.415c-7.588-8.038-14.023-16.956-21.208-25.784
			c-2.224-2.729-4.635-6.712-9.148-6.239c-0.288,5.943-1.011,15.177-0.414,21.625c0.466,5.053,1.705,6.816,6.652,7.903
			c0.553,0.118,3.186-0.888,2.91,1.244c0.22,2.071-2.401,1.224-3.325,1.251c-4.863,0.131-11.965-0.695-18.298-0.415
			c-3.174,0.139-7.06,1.754-8.733-0.836c0.336-2.413,5.452-0.886,7.486-2.495c1.828-1.441,2.302-7.763,2.491-12.058
			c0.395-8.615,0.462-26.618,0-37.009c-0.126-3.041-0.39-9.42-1.243-10.813c-1.654-2.709-6.72-1.981-8.733-3.325
			c0-0.28,0-0.552,0-0.832c-0.067-0.482,0.091-0.739,0.415-0.833c22.29,1.74,57.495-7.316,54.478,19.546
			C256.081,502.402,248.11,507.321,239.239,508.55z M242.148,503.141c5.255-5.862,3.94-20.15-3.328-24.532
			c-3.83-2.306-8.453-1.927-14.138-2.08c-0.489,0.201-0.944,0.445-1.248,0.836c-0.967,9.152-0.142,20.092-0.414,29.938
			C231.426,507.014,238.094,507.669,242.148,503.141z"/>
		<path fill-rule="evenodd" clip-rule="evenodd" fill="#192c3b" d="M430.109,551.8c-0.553,2.33-3.743,1.205-4.99,1.248
			c-28.781,0.939-58.944,0-88.573,0c-85.598,0-173.045,0-260.321,0c-6.648,0-19.763,1.397-22.871-0.833
			c-0.067-0.048,0.051-0.352,0-0.415c-0.067-0.489,0.095-0.742,0.415-0.836c121.338,0,243.647,0,365.53,0
			c1.815,0,3.85-0.035,5.819,0C426.563,550.994,429.052,550.225,430.109,551.8z"/>
		<path fill-rule="evenodd" clip-rule="evenodd" fill="#192c3b" d="M297.875,560.947c1.796,0,3.601,0,5.405,0
			c0,8.729,0,17.463,0,26.199c4.726-3.449,9.666-10.301,14.967-14.56c1.805,0,3.608,0,5.405,0c1.307,0.382-1.204,2.432-2.077,3.327
			c-3.131,3.199-7.569,7.242-10.813,10.396c4.271,5.989,9.724,10.789,14.556,16.219c-1.536,0.964-4.848,0.146-7.071,0.415
			c-3.355-4.683-7.825-8.256-11.228-12.888c-4.817,0.728-3.715,7.372-3.739,12.888c-1.804,0-3.608,0-5.405,0
			C297.875,588.943,297.875,574.943,297.875,560.947z"/>
		<path fill-rule="evenodd" clip-rule="evenodd" fill="#192c3b" d="M216.779,564.272c0,2.218,0,4.438,0,6.655
			c-4.042-3.358-21.378-8.042-23.281,0.415c-2.2,9.744,11.705,7.371,18.705,10.396c3.802,1.639,7.411,5.823,6.243,12.058
			c-2.109,11.263-21.461,12.241-31.19,6.655c0-2.218,0-4.438,0-6.655c3.652,1.787,10.226,6.438,18.713,4.989
			c3.608-0.611,7.71-3.315,6.657-8.314c-1.422-6.695-18.745-4.098-23.29-10.396c-2.164-2.996-2.112-6.963-1.248-9.983
			C190.923,560.222,207.212,560.438,216.779,564.272z"/>
		<path fill-rule="evenodd" clip-rule="evenodd" fill="#192c3b" d="M224.683,563.857c1.804,0,3.604,0,5.405,0
			c0,2.771,0,5.543,0,8.318c2.638,0.964,7.067,0.139,10.399,0.411c-0.138,1.532,0.351,3.683-0.419,4.575c-3.186,0-6.376,0-9.565,0
			c-0.439,5.994-1.367,16.064,0.832,20.795c2.291,1.339,6.744,0.919,9.152,0c0,1.658,0,3.328,0,4.986
			c-6.226,0.788-11.276,1.492-14.143-2.492c-3.671-5.104-0.651-14.667-1.662-22.874c-0.308-0.936-2.333-0.158-3.329-0.415
			c0-1.524,0-3.048,0-4.575c1.11,0,2.219,0,3.329,0C224.683,569.677,224.683,566.767,224.683,563.857z"/>
		<path fill-rule="evenodd" clip-rule="evenodd" fill="#192c3b" d="M432.604,569.262c1.524,0.249-0.419,1.671-0.414,1.666
			c-4.039,5.216-8.563,11.012-7.9,21.625c0.541,8.692,5.081,14.4,9.144,19.541c-1.666,0-3.324,0-4.99,0
			c-4.749-5.38-8.188-12.851-8.314-21.208c-0.13-8.473,3.514-16.771,8.314-21.624C429.833,569.262,431.215,569.262,432.604,569.262z
			"/>
		<path fill-rule="evenodd" clip-rule="evenodd" fill="#192c3b" d="M517.439,569.262c1.382,0,2.771,0,4.153,0
			c0,6.934,0,13.861,0,20.794c3.937-2.028,7.411-8.116,11.643-11.227c1.39,0,2.771,0,4.161,0c1.5,0.718-1.133,1.926-1.666,2.494
			c-2.325,2.468-5.622,6.119-8.314,8.319c3.407,4.906,8.231,8.397,11.643,13.301c-8.283,1.433-10.336-6.938-14.556-10.391
			c-3.925,0.504-2.776,6.091-2.91,10.391c-1.382,0-2.771,0-4.153,0C517.439,591.715,517.439,580.487,517.439,569.262z"/>
		<path fill-rule="evenodd" clip-rule="evenodd" fill="#192c3b" d="M541.139,569.677c0.984-0.955,3.735-0.146,5.406-0.415
			c3.893,5.169,7.84,12.61,7.899,21.209c0.063,9.053-3.94,16.522-8.315,21.623c-1.661,0-3.327,0-4.99,0
			c5.046-5.744,9.456-13.367,9.152-22.451C550.019,581.812,546.205,574.02,541.139,569.677z"/>
		<path fill-rule="evenodd" clip-rule="evenodd" fill="#192c3b" d="M445.08,570.515c3.131,5.594,5.461,11.997,8.733,17.462
			c3.013-5.583,5.432-11.753,8.314-17.462c1.942,0,3.881,0,5.823,0c0,10.809,0,21.618,0,32.429c-1.386,0-2.771,0-4.157,0
			c0-9.006,0-18.016,0-27.029c-2.313,4.016-4.643,9.064-7.071,14.142c-0.884,1.853-1.22,4.035-2.909,4.158
			c-2.539,0.182-4.785-6.104-5.819-8.319c-1.88-3.994-2.748-6.64-4.161-9.98c-0.967,8.181-0.139,18.157-0.415,27.029
			c-1.39,0-2.774,0-4.161,0c0-10.811,0-21.62,0-32.429C441.195,570.515,443.138,570.515,445.08,570.515z"/>
		<path fill-rule="evenodd" clip-rule="evenodd" fill="#192c3b" d="M253.376,572.176c2.748-0.49,7.656-0.332,10.396,1.244
			c12.989,7.478,6.968,35.872-12.476,29.941C238.745,599.535,239.405,574.658,253.376,572.176z M249.215,580.075
			c-1.303,2.247-2.578,10.937,0,15.387c2.701,4.662,10.778,5.645,14.142,0.413c4.84-7.531,1.043-21.046-8.736-19.128
			C252.003,577.261,250.111,578.537,249.215,580.075z"/>
		<path fill-rule="evenodd" clip-rule="evenodd" fill="#192c3b" d="M337.789,572.176c6.755-1.203,13.044,1.962,15.385,7.071
			c3.557,7.742,1.536,17.899-3.738,22.038c-6.921,5.42-17.62,2.847-21.209-4.58C323.225,586.357,328.077,573.905,337.789,572.176z
			 M333.217,580.49c-2.661,5.267-1.109,16.356,3.743,18.295c15.2,6.076,17.253-25.479,1.663-22.038
			C336.332,577.253,334.314,578.315,333.217,580.49z"/>
		<path fill-rule="evenodd" clip-rule="evenodd" fill="#192c3b" d="M276.247,572.587c1.801,0,3.605,0,5.409,0
			c0,1.251,0,2.499,0,3.747c2.554-1.256,7.884-5.326,13.724-3.329c0,1.805,0,3.604,0,5.405c-5.46-1.469-11.042,0.253-13.724,2.913
			c0,7.205,0,14.414,0,21.62c-1.804,0-3.608,0-5.409,0C276.247,592.827,276.247,582.71,276.247,572.587z"/>
		<path fill-rule="evenodd" clip-rule="evenodd" fill="#192c3b" d="M357.754,572.587c1.796,0,3.601,0,5.404,0
			c1.789,7.639,3.723,15.128,5.405,22.875c2.854-7.265,5.14-15.103,7.485-22.875c1.524,0,3.052,0,4.572,0
			c2.408,7.571,4.907,15.062,7.485,22.46c2.267-7.023,3.344-15.239,5.405-22.46c1.666,0,3.332,0,4.994,0
			c-2.058,10.562-5.35,19.878-7.49,30.356c-1.796,0-3.601,0-5.404,0c-1.825-8.153-5.113-14.841-7.067-22.868
			c-3.135,7.123-5.287,15.224-7.9,22.868c-1.666,0-3.333,0-4.99,0C363.104,592.741,360.32,582.773,357.754,572.587z"/>
		<path fill-rule="evenodd" clip-rule="evenodd" fill="#192c3b" d="M493.735,602.943c-1.112,0-2.219,0-3.332,0
			c-1.394,0.431-0.644-1.291-0.829-2.077c-2.511,0.73-4.11,2.613-6.652,2.91c-6.353,0.745-12.12-4.493-9.565-11.224
			c1.91-5.039,9.151-5.122,16.218-5.828c-0.079-7.174-9.952-4.765-14.553-3.324c0-1.387,0-2.771,0-4.153
			c5.643-1.339,12.058-2.14,15.805,0.41C496.736,583.7,492.366,594.281,493.735,602.943z M478.346,598.785
			c3.759,2.038,8.82,0.201,11.229-1.661c0-2.216,0-4.434,0-6.653C482.87,589.938,474.859,591.825,478.346,598.785z"/>
		<path fill-rule="evenodd" clip-rule="evenodd" fill="#192c3b" d="M499.97,578.829c1.386,0,2.771,0,4.157,0
			c0,0.971,0,1.938,0,2.909c2.826-1.749,5.603-3.549,10.817-2.909c0,1.522,0,3.051,0,4.571c-4.178-1.48-8.421,0.407-10.817,2.081
			c0,5.822,0,11.643,0,17.462c-1.386,0-2.771,0-4.157,0C499.97,594.908,499.97,586.866,499.97,578.829z"/>
		<path fill-rule="evenodd" clip-rule="evenodd" fill="#192c3b" d="M523.674,214.549c2.586,0.742,0.643,6.008,1.247,8.733
			c-2.238,0.948-4.667,1.709-6.652,2.91C519.421,223.325,524.018,220.306,523.674,214.549z"/>
		<path fill-rule="evenodd" clip-rule="evenodd" fill="#192c3b" d="M489.159,228.687c0.964,2.227,0.139,6.234,0.415,9.147
			c-2.223,0.825-4.323,1.781-6.237,2.91C484.837,237.945,488.441,233.653,489.159,228.687z"/>
		<path fill-rule="evenodd" clip-rule="evenodd" fill="#192c3b" d="M471.698,285.242c-0.146,10.285,0.339,22.596,0.829,33.271
			c0.414,9.147-0.983,18.2,4.157,23.7c-5.102-0.537-6.605-7.577-7.071-12.891c-1.141-13.087,0.869-31.355,0-44.494
			c-1.888,0.469-3.415,1.294-4.158,2.91c-6.541,2.052-13.004,4.181-19.128,6.648c-0.737,4.121,1.837,11.544-2.08,12.48
			c0.344,3.396-1.231,8.717,2.08,9.15c-0.604,2.374,1.489,8.958-1.665,7.481c0.457,3.009-1.271,8.2,1.665,8.737
			c0,2.773,0,5.543,0,8.316c-1.709,0.229-2.692,1.188-4.575,1.247c0,1.525,0,3.048,0,4.576
			c-20.506,4.999-42.449,8.556-62.379,14.138c-1.369-0.585-2.511-3.096-2.077-4.158c1.26,0.123,1.485,1.284,3.325,0.829
			c19.455-4.801,39.255-9.261,59.05-13.724c1.062-0.046,0.828-1.393,0.833-2.495c1.815,0.012,2.456-1.148,4.157-1.251
			c0-2.354,0-4.705,0-7.063c-0.825-0.916-3.475,1.536-4.572,0.415c0.702-0.821,1.931-1.118,3.328-1.251
			c-0.355-2.413,0.825-6.368-0.833-7.482c-0.398-1.508,1.793-0.426,2.077-1.247c0-2.358,0-4.714,0-7.068
			c-1.295-0.861-3.896,0.518-6.234,0c0.813-0.852,2.085-1.244,3.738-1.251c-0.493-2.412,1.035-6.85-0.828-7.899
			c0.959-0.566,1.855-1.198,3.324-1.248c0-4.161,0-8.314,0-12.476c-2.891-0.79-6.956,3.801-9.562,2.08
			c0.842-1.428,2.744-1.559,4.157-2.08c41.664-15.291,84.918-29.33,127.249-44.913c2.302-0.845,6.525-1.544,6.237-5.405
			c-40.712,14.111-86,31.324-128.496,46.993c-5.559,2.049-8.907,4.206-12.479,0.83c38.896-15.687,81.499-30.618,121.848-46.157
			c5.839-2.254,12.184-3.909,17.048-6.656c2.266-1.279,4.121-2.42,4.575-6.238c18.366,18.26,37.336,36.938,55.723,55.722
			c0.904,0.929,2.653,2.185,2.495,3.743c-22.35,4.679-43.567,10.499-65.707,15.39c0-5.961,0-11.919,0-17.885
			c-4.829,0.577-10.012,3.013-14.548,2.495c1.566-1.725,4.67-1.883,7.062-2.495c2.621-0.671,5.184-1.35,7.485-2.081
			c0-3.047,0-6.095,0-9.143c-3.857,0.715-7.3,1.84-11.224,2.495c2.092-3.04,7.784-2.475,11.224-4.161c0-2.914,0-5.82,0-8.733
			c-5.879,1.193-12.251,4.103-17.458,4.576c2.002-2.326,5.686-2.389,8.729-3.328c3.037-0.933,5.82-2.267,8.729-2.914
			c0-4.848,0-9.696,0-14.553c-5.927,1.417-11.003,3.691-16.629,5.405c-1.441-0.193-0.241,2.262-1.252,2.499
			c-8.696,2.803-17.339,5.669-26.194,8.314c-0.277,26.2,0.553,53.508-0.414,79.012c-3.941-0.364-2.496-5.504-2.496-7.9
			c0-22.575,0-48.474,0-71.112c-2.271-0.051-3.415,1.023-3.743,2.914c-6.143,1.896-12.246,3.834-18.295,5.82
			c-0.907,0.9-1.18,2.428-1.666,3.743c-2.372-0.94,1.698-2.625,0.414-3.743c-1.064-0.451-2.234,2.958-4.156,0.833
			c-1.122,0.126-0.742,1.75-1.662,2.081C484.995,280.801,478.56,283.233,471.698,285.242z"/>
		<path fill-rule="evenodd" clip-rule="evenodd" fill="#192c3b" d="M449.237,374.231c3.111,2.155,6.795,7.347,9.566,11.229
			c-2.882-0.218-4.055-3.121-5.405-4.986C451.974,378.49,450.553,376.24,449.237,374.231z"/>
		<path fill-rule="evenodd" clip-rule="evenodd" fill="#192c3b" d="M446.327,409.162c-2.96-0.919-5.294-2.467-7.899-3.743
			C438.349,405.613,446.514,405.984,446.327,409.162z"/>
	</g>
</g>
</svg>
