<?xml version="1.0" encoding="UTF-8" standalone="no"?>
<svg
   xmlns:dc="http://purl.org/dc/elements/1.1/"
   xmlns:cc="http://creativecommons.org/ns#"
   xmlns:rdf="http://www.w3.org/1999/02/22-rdf-syntax-ns#"
   xmlns:svg="http://www.w3.org/2000/svg"
   xmlns="http://www.w3.org/2000/svg"
   viewBox="0 0 276.64001 102.22667"
   height="102.22667"
   width="276.64001"
   xml:space="preserve"
   id="svg2"
   version="1.1"><metadata
     id="metadata8"><rdf:RDF><cc:Work
         rdf:about=""><dc:format>image/svg+xml</dc:format><dc:type
           rdf:resource="http://purl.org/dc/dcmitype/StillImage" /></cc:Work></rdf:RDF></metadata><defs
     id="defs6"><clipPath
       id="clipPath20"
       clipPathUnits="userSpaceOnUse"><path
         id="path18"
         d="m 706.902,593.93 v -23.52 h 40.141 v -30.988 h -40.141 v -55.258 h -36.589 v 140.758 h 80.832 V 593.93 Z" /></clipPath><linearGradient
       id="linearGradient28"
       spreadMethod="pad"
       gradientTransform="matrix(911.514,480.571,480.571,-911.514,88.0787,237.93)"
       gradientUnits="userSpaceOnUse"
       y2="0"
       x2="1"
       y1="0"
       x1="0"><stop
         id="stop22"
         offset="0"
         style="stop-opacity:1;stop-color:#fcd405" /><stop
         id="stop24"
         offset="0.494238"
         style="stop-opacity:1;stop-color:#f46e23" /><stop
         id="stop26"
         offset="1"
         style="stop-opacity:1;stop-color:#eb2e20" /></linearGradient><clipPath
       id="clipPath38"
       clipPathUnits="userSpaceOnUse"><path
         id="path36"
         d="m 801.176,484.164 h -36.59 v 140.758 h 36.59 z" /></clipPath><linearGradient
       id="linearGradient46"
       spreadMethod="pad"
       gradientTransform="matrix(911.514,480.571,480.571,-911.514,108.583,199.038)"
       gradientUnits="userSpaceOnUse"
       y2="0"
       x2="1"
       y1="0"
       x1="0"><stop
         id="stop40"
         offset="0"
         style="stop-opacity:1;stop-color:#fcd405" /><stop
         id="stop42"
         offset="0.494238"
         style="stop-opacity:1;stop-color:#f46e23" /><stop
         id="stop44"
         offset="1"
         style="stop-opacity:1;stop-color:#eb2e20" /></linearGradient><clipPath
       id="clipPath56"
       clipPathUnits="userSpaceOnUse"><path
         id="path54"
         d="m 856.168,515.156 h 43.867 v -30.992 h -80.457 v 140.758 h 36.59 z" /></clipPath><linearGradient
       id="linearGradient64"
       spreadMethod="pad"
       gradientTransform="matrix(911.514,480.571,480.571,-911.514,125.315,167.303)"
       gradientUnits="userSpaceOnUse"
       y2="0"
       x2="1"
       y1="0"
       x1="0"><stop
         id="stop58"
         offset="0"
         style="stop-opacity:1;stop-color:#fcd405" /><stop
         id="stop60"
         offset="0.494238"
         style="stop-opacity:1;stop-color:#f46e23" /><stop
         id="stop62"
         offset="1"
         style="stop-opacity:1;stop-color:#eb2e20" /></linearGradient><clipPath
       id="clipPath74"
       clipPathUnits="userSpaceOnUse"><path
         id="path72"
         d="m 910.832,624.922 h 48.887 l 25.289,-75.234 23.082,75.234 h 50.53 V 484.164 h -36.59 v 81.02 0 l -30.12,-81.02 h -14.558 l -30.118,81.02 v 0 -81.02 h -36.402 z" /></clipPath><linearGradient
       id="linearGradient82"
       spreadMethod="pad"
       gradientTransform="matrix(911.514,480.571,480.571,-911.514,152.486,115.766)"
       gradientUnits="userSpaceOnUse"
       y2="0"
       x2="1"
       y1="0"
       x1="0"><stop
         id="stop76"
         offset="0"
         style="stop-opacity:1;stop-color:#fcd405" /><stop
         id="stop78"
         offset="0.494238"
         style="stop-opacity:1;stop-color:#f46e23" /><stop
         id="stop80"
         offset="1"
         style="stop-opacity:1;stop-color:#eb2e20" /></linearGradient><clipPath
       id="clipPath92"
       clipPathUnits="userSpaceOnUse"><path
         id="path90"
         d="m 545.984,385.262 c 0,-24.266 17.918,-42 39.758,-42 21.844,0 39.762,17.734 39.762,42 0,19.414 -17.918,37.148 -39.762,37.148 -21.84,0 -39.758,-17.734 -39.758,-37.148 z m 117.606,0.191 c 0,-45.551 -32.668,-77.656 -77.848,-77.656 -45.179,0 -77.844,32.105 -77.844,77.656 0,42.559 37.332,72.434 77.844,72.434 40.512,0 77.848,-29.875 77.848,-72.434 z" /></clipPath><linearGradient
       id="linearGradient100"
       spreadMethod="pad"
       gradientTransform="matrix(911.514,480.571,480.571,-911.514,136.63,145.842)"
       gradientUnits="userSpaceOnUse"
       y2="0"
       x2="1"
       y1="0"
       x1="0"><stop
         id="stop94"
         offset="0"
         style="stop-opacity:1;stop-color:#fcd405" /><stop
         id="stop96"
         offset="0.494238"
         style="stop-opacity:1;stop-color:#f46e23" /><stop
         id="stop98"
         offset="1"
         style="stop-opacity:1;stop-color:#eb2e20" /></linearGradient><clipPath
       id="clipPath110"
       clipPathUnits="userSpaceOnUse"><path
         id="path108"
         d="m 764.402,398.891 v 54.328 h 36.586 V 312.465 h -36.586 v 57.68 h -52.828 v -57.68 h -36.586 v 140.754 h 36.586 v -54.328 z" /></clipPath><linearGradient
       id="linearGradient118"
       spreadMethod="pad"
       gradientTransform="matrix(911.514,480.571,480.571,-911.514,169.656,83.201)"
       gradientUnits="userSpaceOnUse"
       y2="0"
       x2="1"
       y1="0"
       x1="0"><stop
         id="stop112"
         offset="0"
         style="stop-opacity:1;stop-color:#fcd405" /><stop
         id="stop114"
         offset="0.494238"
         style="stop-opacity:1;stop-color:#f46e23" /><stop
         id="stop116"
         offset="1"
         style="stop-opacity:1;stop-color:#eb2e20" /></linearGradient><clipPath
       id="clipPath128"
       clipPathUnits="userSpaceOnUse"><path
         id="path126"
         d="m 819.48,453.219 h 36.586 l 67.024,-86.063 h 0.371 v 86.063 h 36.59 V 312.465 h -36.59 l -67.02,86.234 h -0.375 V 312.465 H 819.48 Z" /></clipPath><linearGradient
       id="linearGradient136"
       spreadMethod="pad"
       gradientTransform="matrix(911.514,480.571,480.571,-911.514,202.668,20.585)"
       gradientUnits="userSpaceOnUse"
       y2="0"
       x2="1"
       y1="0"
       x1="0"><stop
         id="stop130"
         offset="0"
         style="stop-opacity:1;stop-color:#fcd405" /><stop
         id="stop132"
         offset="0.494238"
         style="stop-opacity:1;stop-color:#f46e23" /><stop
         id="stop134"
         offset="1"
         style="stop-opacity:1;stop-color:#eb2e20" /></linearGradient><clipPath
       id="clipPath146"
       clipPathUnits="userSpaceOnUse"><path
         id="path144"
         d="m 1015.13,422.227 v -23.528 h 41.25 v -30.98 h -41.25 v -24.274 h 43.49 v -30.98 h -80.085 v 140.754 h 80.085 v -30.992 z" /></clipPath><linearGradient
       id="linearGradient154"
       spreadMethod="pad"
       gradientTransform="matrix(911.514,480.571,480.571,-911.514,230.686,-32.558)"
       gradientUnits="userSpaceOnUse"
       y2="0"
       x2="1"
       y1="0"
       x1="0"><stop
         id="stop148"
         offset="0"
         style="stop-opacity:1;stop-color:#fcd405" /><stop
         id="stop150"
         offset="0.494238"
         style="stop-opacity:1;stop-color:#f46e23" /><stop
         id="stop152"
         offset="1"
         style="stop-opacity:1;stop-color:#eb2e20" /></linearGradient><clipPath
       id="clipPath164"
       clipPathUnits="userSpaceOnUse"><path
         id="path162"
         d="m 289.113,219.348 c -0.371,-20.535 -1.867,-38.082 -14.371,-55.633 -13.812,-19.231 -34.535,-27.637 -58.058,-27.637 -44.243,0 -75.047,30.067 -75.047,74.309 0,45.73 30.992,75.789 76.351,75.789 28.938,0 51.34,-13.067 63.473,-39.383 l -34.723,-14.57 c -5.039,13.445 -15.675,22.41 -30.429,22.41 -24.082,0 -36.586,-22.969 -36.586,-44.434 0,-21.836 13.062,-44.054 37.148,-44.054 15.863,0 28.004,8.214 29.496,24.453 H 216.5 v 28.75 z" /></clipPath><linearGradient
       id="linearGradient172"
       spreadMethod="pad"
       gradientTransform="matrix(911.514,480.571,480.571,-911.514,127.074,163.966)"
       gradientUnits="userSpaceOnUse"
       y2="0"
       x2="1"
       y1="0"
       x1="0"><stop
         id="stop166"
         offset="0"
         style="stop-opacity:1;stop-color:#fcd405" /><stop
         id="stop168"
         offset="0.494238"
         style="stop-opacity:1;stop-color:#f46e23" /><stop
         id="stop170"
         offset="1"
         style="stop-opacity:1;stop-color:#eb2e20" /></linearGradient><clipPath
       id="clipPath182"
       clipPathUnits="userSpaceOnUse"><path
         id="path180"
         d="m 340.234,218.41 h 3.551 c 11.945,0 25.387,2.238 25.387,17.551 0,15.305 -13.442,17.551 -25.387,17.551 h -3.551 z m 80.461,-77.652 h -45.55 l -34.54,54.129 h -0.371 v -54.129 h -36.589 v 140.75 h 54.703 c 27.812,0 48.906,-13.25 48.906,-43.313 0,-19.414 -10.824,-36.211 -30.801,-39.761 z" /></clipPath><linearGradient
       id="linearGradient190"
       spreadMethod="pad"
       gradientTransform="matrix(911.514,480.571,480.571,-911.514,158.751,103.884)"
       gradientUnits="userSpaceOnUse"
       y2="0"
       x2="1"
       y1="0"
       x1="0"><stop
         id="stop184"
         offset="0"
         style="stop-opacity:1;stop-color:#fcd405" /><stop
         id="stop186"
         offset="0.494238"
         style="stop-opacity:1;stop-color:#f46e23" /><stop
         id="stop188"
         offset="1"
         style="stop-opacity:1;stop-color:#eb2e20" /></linearGradient><clipPath
       id="clipPath200"
       clipPathUnits="userSpaceOnUse"><path
         id="path198"
         d="m 465.074,250.52 v -23.524 h 41.254 v -30.984 h -41.254 v -24.27 h 43.492 v -30.984 h -80.082 v 140.75 h 80.082 V 250.52 Z" /></clipPath><linearGradient
       id="linearGradient208"
       spreadMethod="pad"
       gradientTransform="matrix(911.514,480.571,480.571,-911.514,181.884,60.007)"
       gradientUnits="userSpaceOnUse"
       y2="0"
       x2="1"
       y1="0"
       x1="0"><stop
         id="stop202"
         offset="0"
         style="stop-opacity:1;stop-color:#fcd405" /><stop
         id="stop204"
         offset="0.494238"
         style="stop-opacity:1;stop-color:#f46e23" /><stop
         id="stop206"
         offset="1"
         style="stop-opacity:1;stop-color:#eb2e20" /></linearGradient><clipPath
       id="clipPath218"
       clipPathUnits="userSpaceOnUse"><path
         id="path216"
         d="m 529.188,281.508 h 36.585 l 67.016,-86.055 h 0.371 v 86.055 h 36.594 V 140.758 H 633.16 l -67.015,86.238 h -0.372 v -86.238 h -36.585 z" /></clipPath><linearGradient
       id="linearGradient226"
       spreadMethod="pad"
       gradientTransform="matrix(911.514,480.571,480.571,-911.514,210.365,5.98698)"
       gradientUnits="userSpaceOnUse"
       y2="0"
       x2="1"
       y1="0"
       x1="0"><stop
         id="stop220"
         offset="0"
         style="stop-opacity:1;stop-color:#fcd405" /><stop
         id="stop222"
         offset="0.494238"
         style="stop-opacity:1;stop-color:#f46e23" /><stop
         id="stop224"
         offset="1"
         style="stop-opacity:1;stop-color:#eb2e20" /></linearGradient><clipPath
       id="clipPath236"
       clipPathUnits="userSpaceOnUse"><path
         id="path234"
         d="M 800.156,171.742 V 140.758 H 679.563 l 66.644,109.762 h -55.258 v 30.988 h 116.485 l -66.27,-109.766 z" /></clipPath><linearGradient
       id="linearGradient244"
       spreadMethod="pad"
       gradientTransform="matrix(911.514,480.571,480.571,-911.514,242.139,-54.28)"
       gradientUnits="userSpaceOnUse"
       y2="0"
       x2="1"
       y1="0"
       x1="0"><stop
         id="stop238"
         offset="0"
         style="stop-opacity:1;stop-color:#fcd405" /><stop
         id="stop240"
         offset="0.494238"
         style="stop-opacity:1;stop-color:#f46e23" /><stop
         id="stop242"
         offset="1"
         style="stop-opacity:1;stop-color:#eb2e20" /></linearGradient><clipPath
       id="clipPath254"
       clipPathUnits="userSpaceOnUse"><path
         id="path252"
         d="m 852.641,250.52 v -23.524 h 41.254 v -30.984 h -41.254 v -24.27 h 43.488 v -30.984 h -80.082 v 140.75 h 80.082 V 250.52 Z" /></clipPath><linearGradient
       id="linearGradient262"
       spreadMethod="pad"
       gradientTransform="matrix(911.514,480.571,480.571,-911.514,266.181,-99.882)"
       gradientUnits="userSpaceOnUse"
       y2="0"
       x2="1"
       y1="0"
       x1="0"><stop
         id="stop256"
         offset="0"
         style="stop-opacity:1;stop-color:#fcd405" /><stop
         id="stop258"
         offset="0.494238"
         style="stop-opacity:1;stop-color:#f46e23" /><stop
         id="stop260"
         offset="1"
         style="stop-opacity:1;stop-color:#eb2e20" /></linearGradient><clipPath
       id="clipPath272"
       clipPathUnits="userSpaceOnUse"><path
         id="path270"
         d="m 916.746,281.508 h 36.59 l 67.014,-86.055 h 0.37 v 86.055 h 36.6 v -140.75 h -36.6 l -67.013,86.238 h -0.371 v -86.238 h -36.59 z" /></clipPath><linearGradient
       id="linearGradient280"
       spreadMethod="pad"
       gradientTransform="matrix(911.514,480.571,480.571,-911.514,294.662,-153.902)"
       gradientUnits="userSpaceOnUse"
       y2="0"
       x2="1"
       y1="0"
       x1="0"><stop
         id="stop274"
         offset="0"
         style="stop-opacity:1;stop-color:#fcd405" /><stop
         id="stop276"
         offset="0.494238"
         style="stop-opacity:1;stop-color:#f46e23" /><stop
         id="stop278"
         offset="1"
         style="stop-opacity:1;stop-color:#eb2e20" /></linearGradient></defs><g
     transform="matrix(1.3333333,0,0,-1.3333333,0,102.22667)"
     id="g10"><g
       transform="scale(0.1)"
       id="g12"><g
         id="g14"><g
           clip-path="url(#clipPath20)"
           id="g16"><path
             id="path30"
             style="fill:url(#linearGradient28);fill-opacity:1;fill-rule:nonzero;stroke:none"
             d="m 706.902,593.93 v -23.52 h 40.141 v -30.988 h -40.141 v -55.258 h -36.589 v 140.758 h 80.832 V 593.93 h -44.243" /></g></g><g
         id="g32"><g
           clip-path="url(#clipPath38)"
           id="g34"><path
             id="path48"
             style="fill:url(#linearGradient46);fill-opacity:1;fill-rule:nonzero;stroke:none"
             d="m 801.176,484.164 h -36.59 v 140.758 h 36.59 V 484.164" /></g></g><g
         id="g50"><g
           clip-path="url(#clipPath56)"
           id="g52"><path
             id="path66"
             style="fill:url(#linearGradient64);fill-opacity:1;fill-rule:nonzero;stroke:none"
             d="m 856.168,515.156 h 43.867 v -30.992 h -80.457 v 140.758 h 36.59 V 515.156" /></g></g><g
         id="g68"><g
           clip-path="url(#clipPath74)"
           id="g70"><path
             id="path84"
             style="fill:url(#linearGradient82);fill-opacity:1;fill-rule:nonzero;stroke:none"
             d="m 910.832,624.922 h 48.887 l 25.289,-75.234 23.082,75.234 h 50.53 V 484.164 h -36.59 v 81.02 0 l -30.12,-81.02 h -14.558 l -30.118,81.02 v 0 -81.02 h -36.402 v 140.758" /></g></g><g
         id="g86"><g
           clip-path="url(#clipPath92)"
           id="g88"><path
             id="path102"
             style="fill:url(#linearGradient100);fill-opacity:1;fill-rule:nonzero;stroke:none"
             d="m 545.984,385.262 c 0,-24.266 17.918,-42 39.758,-42 21.844,0 39.762,17.734 39.762,42 0,19.414 -17.918,37.148 -39.762,37.148 -21.84,0 -39.758,-17.734 -39.758,-37.148 z m 117.606,0.191 c 0,-45.551 -32.668,-77.656 -77.848,-77.656 -45.179,0 -77.844,32.105 -77.844,77.656 0,42.559 37.332,72.434 77.844,72.434 40.512,0 77.848,-29.875 77.848,-72.434" /></g></g><g
         id="g104"><g
           clip-path="url(#clipPath110)"
           id="g106"><path
             id="path120"
             style="fill:url(#linearGradient118);fill-opacity:1;fill-rule:nonzero;stroke:none"
             d="m 764.402,398.891 v 54.328 h 36.586 V 312.465 h -36.586 v 57.68 h -52.828 v -57.68 h -36.586 v 140.754 h 36.586 v -54.328 h 52.828" /></g></g><g
         id="g122"><g
           clip-path="url(#clipPath128)"
           id="g124"><path
             id="path138"
             style="fill:url(#linearGradient136);fill-opacity:1;fill-rule:nonzero;stroke:none"
             d="m 819.48,453.219 h 36.586 l 67.024,-86.063 h 0.371 v 86.063 h 36.59 V 312.465 h -36.59 l -67.02,86.234 h -0.375 V 312.465 H 819.48 v 140.754" /></g></g><g
         id="g140"><g
           clip-path="url(#clipPath146)"
           id="g142"><path
             id="path156"
             style="fill:url(#linearGradient154);fill-opacity:1;fill-rule:nonzero;stroke:none"
             d="m 1015.13,422.227 v -23.528 h 41.25 v -30.98 h -41.25 v -24.274 h 43.49 v -30.98 h -80.085 v 140.754 h 80.085 v -30.992 h -43.49" /></g></g><g
         id="g158"><g
           clip-path="url(#clipPath164)"
           id="g160"><path
             id="path174"
             style="fill:url(#linearGradient172);fill-opacity:1;fill-rule:nonzero;stroke:none"
             d="m 289.113,219.348 c -0.371,-20.535 -1.867,-38.082 -14.371,-55.633 -13.812,-19.231 -34.535,-27.637 -58.058,-27.637 -44.243,0 -75.047,30.067 -75.047,74.309 0,45.73 30.992,75.789 76.351,75.789 28.938,0 51.34,-13.067 63.473,-39.383 l -34.723,-14.57 c -5.039,13.445 -15.675,22.41 -30.429,22.41 -24.082,0 -36.586,-22.969 -36.586,-44.434 0,-21.836 13.062,-44.054 37.148,-44.054 15.863,0 28.004,8.214 29.496,24.453 H 216.5 v 28.75 h 72.613" /></g></g><g
         id="g176"><g
           clip-path="url(#clipPath182)"
           id="g178"><path
             id="path192"
             style="fill:url(#linearGradient190);fill-opacity:1;fill-rule:nonzero;stroke:none"
             d="m 340.234,218.41 h 3.551 c 11.945,0 25.387,2.238 25.387,17.551 0,15.305 -13.442,17.551 -25.387,17.551 h -3.551 z m 80.461,-77.652 h -45.55 l -34.54,54.129 h -0.371 v -54.129 h -36.589 v 140.75 h 54.703 c 27.812,0 48.906,-13.25 48.906,-43.313 0,-19.414 -10.824,-36.211 -30.801,-39.761 l 44.242,-57.676" /></g></g><g
         id="g194"><g
           clip-path="url(#clipPath200)"
           id="g196"><path
             id="path210"
             style="fill:url(#linearGradient208);fill-opacity:1;fill-rule:nonzero;stroke:none"
             d="m 465.074,250.52 v -23.524 h 41.254 v -30.984 h -41.254 v -24.27 h 43.492 v -30.984 h -80.082 v 140.75 h 80.082 V 250.52 h -43.492" /></g></g><g
         id="g212"><g
           clip-path="url(#clipPath218)"
           id="g214"><path
             id="path228"
             style="fill:url(#linearGradient226);fill-opacity:1;fill-rule:nonzero;stroke:none"
             d="m 529.188,281.508 h 36.585 l 67.016,-86.055 h 0.371 v 86.055 h 36.594 V 140.758 H 633.16 l -67.015,86.238 h -0.372 v -86.238 h -36.585 v 140.75" /></g></g><g
         id="g230"><g
           clip-path="url(#clipPath236)"
           id="g232"><path
             id="path246"
             style="fill:url(#linearGradient244);fill-opacity:1;fill-rule:nonzero;stroke:none"
             d="M 800.156,171.742 V 140.758 H 679.563 l 66.644,109.762 h -55.258 v 30.988 h 116.485 l -66.27,-109.766 h 58.992" /></g></g><g
         id="g248"><g
           clip-path="url(#clipPath254)"
           id="g250"><path
             id="path264"
             style="fill:url(#linearGradient262);fill-opacity:1;fill-rule:nonzero;stroke:none"
             d="m 852.641,250.52 v -23.524 h 41.254 v -30.984 h -41.254 v -24.27 h 43.488 v -30.984 h -80.082 v 140.75 h 80.082 V 250.52 h -43.488" /></g></g><g
         id="g266"><g
           clip-path="url(#clipPath272)"
           id="g268"><path
             id="path282"
             style="fill:url(#linearGradient280);fill-opacity:1;fill-rule:nonzero;stroke:none"
             d="m 916.746,281.508 h 36.59 l 67.014,-86.055 h 0.37 v 86.055 h 36.6 v -140.75 h -36.6 l -67.013,86.238 h -0.371 v -86.238 h -36.59 v 140.75" /></g></g><path
         id="path284"
         style="fill:#bec4c7;fill-opacity:1;fill-rule:nonzero;stroke:none"
         d="M 1154.67,608.973 V 569.43 h 48.87 v -16.047 h -48.87 v -69.024 h -17.54 V 625.02 h 68.09 v -16.047 h -50.55" /><path
         id="path286"
         style="fill:#bec4c7;fill-opacity:1;fill-rule:nonzero;stroke:none"
         d="m 1237.31,484.359 h -17.54 V 625.02 h 17.54 V 484.359" /><path
         id="path288"
         style="fill:#bec4c7;fill-opacity:1;fill-rule:nonzero;stroke:none"
         d="m 1274.07,500.402 h 42.72 v -16.043 h -60.25 V 625.02 h 17.53 V 500.402" /><path
         id="path290"
         style="fill:#bec4c7;fill-opacity:1;fill-rule:nonzero;stroke:none"
         d="m 1367.49,577.266 h -0.37 l -16.42,-92.907 h -18.09 l 28.73,146.625 48.32,-110.804 48.31,110.804 28.73,-146.625 h -18.09 l -16.42,92.907 h -0.37 l -42.16,-95.891 -42.17,95.891" /><path
         id="path292"
         style="fill:#bec4c7;fill-opacity:1;fill-rule:nonzero;stroke:none"
         d="m 1190.2,352.199 39.72,103.723 39.74,-103.723 39.37,100.739 h 19.02 l -58.39,-146.254 -39.74,103.164 -39.72,-103.164 -58.39,146.254 h 19.02 l 39.37,-100.739" /><path
         id="path294"
         style="fill:#bec4c7;fill-opacity:1;fill-rule:nonzero;stroke:none"
         d="m 1355.29,312.277 h -17.53 v 140.661 h 17.53 V 312.277" /><path
         id="path296"
         style="fill:#bec4c7;fill-opacity:1;fill-rule:nonzero;stroke:none"
         d="m 1416.63,312.277 h -17.54 v 124.618 h -33.39 v 16.043 h 84.32 v -16.043 h -33.39 V 312.277" /><path
         id="path298"
         style="fill:#bec4c7;fill-opacity:1;fill-rule:nonzero;stroke:none"
         d="m 1544.94,396.223 v 56.715 h 17.53 V 312.277 h -17.53 v 67.536 h -66.97 v -67.536 h -17.54 v 140.661 h 17.54 v -56.715 h 66.97" /><path
         id="path300"
         style="fill:#bec4c7;fill-opacity:1;fill-rule:nonzero;stroke:none"
         d="m 1704.27,382.605 c 0,30.973 -23.13,56.903 -56.14,56.903 -33.02,0 -56.16,-25.93 -56.16,-56.903 0,-32.078 25.75,-56.898 56.16,-56.898 30.4,0 56.14,24.82 56.14,56.898 z m 17.54,0 c 0,-41.781 -33.02,-73.304 -73.68,-73.304 -40.67,0 -73.68,31.523 -73.68,73.304 0,40.297 33.37,73.317 73.68,73.317 40.29,0 73.68,-33.02 73.68,-73.317" /><path
         id="path302"
         style="fill:#bec4c7;fill-opacity:1;fill-rule:nonzero;stroke:none"
         d="m 1751.31,452.938 v -83.016 c 0,-22.945 6.9,-44.215 33.95,-44.215 27.05,0 33.95,21.27 33.95,44.215 v 83.016 h 17.54 v -88.985 c 0,-30.965 -19.22,-54.652 -51.49,-54.652 -32.27,0 -51.49,23.687 -51.49,54.652 v 88.985 h 17.54" /><path
         id="path304"
         style="fill:#bec4c7;fill-opacity:1;fill-rule:nonzero;stroke:none"
         d="m 1900.65,312.277 h -17.55 v 124.618 h -33.38 v 16.043 h 84.31 v -16.043 h -33.38 V 312.277" /><path
         id="path306"
         style="fill:#bec4c7;fill-opacity:1;fill-rule:nonzero;stroke:none"
         d="m 1154.67,156.41 h 13.43 c 16.23,0 33.2,4.856 33.2,24.813 0,19.777 -20.15,23.879 -35.81,23.879 h -10.82 z m 0,62.688 h 4.47 c 16.6,0 30.23,3.347 30.23,23.504 0,19.765 -13.44,23.125 -29.86,23.125 h -4.84 z m -17.54,62.3 h 17.17 c 26.48,0 51.48,-6.902 51.48,-38.621 0,-10.254 -5.59,-22.199 -15.1,-26.672 v -0.378 c 16.59,-2.981 28.16,-19.211 28.16,-35.625 0,-28.164 -24.06,-39.368 -48.88,-39.368 h -32.83 v 140.664" /><path
         id="path308"
         style="fill:#bec4c7;fill-opacity:1;fill-rule:nonzero;stroke:none"
         d="m 1356.85,211.066 c 0,30.969 -23.14,56.899 -56.15,56.899 -33.02,0 -56.15,-25.93 -56.15,-56.899 0,-32.078 25.74,-56.89 56.15,-56.89 30.41,0 56.15,24.812 56.15,56.89 z m 17.53,0 c 0,-41.785 -33.02,-73.308 -73.68,-73.308 -40.67,0 -73.69,31.523 -73.69,73.308 0,40.293 33.39,73.313 73.69,73.313 40.3,0 73.68,-33.02 73.68,-73.313" /><path
         id="path310"
         style="fill:#bec4c7;fill-opacity:1;fill-rule:nonzero;stroke:none"
         d="m 1402.98,214.801 h 5.61 c 17.9,0 37.3,3.355 37.3,25.742 0,22.012 -20.89,25.184 -38.24,25.184 h -4.67 z m 69.96,-74.067 h -21.27 l -41.41,59.512 h -7.28 v -59.512 h -17.53 v 140.664 h 21.26 c 12.5,0 25.94,-0.195 37.13,-6.531 11.76,-6.902 18.47,-20.144 18.47,-33.574 0,-20.156 -13.43,-36.945 -33.76,-39.363 l 44.39,-61.196" /><path
         id="path312"
         style="fill:#bec4c7;fill-opacity:1;fill-rule:nonzero;stroke:none"
         d="m 1501.88,156.781 h 6.15 c 35.82,0 66.79,13.43 66.79,54.285 0,41.047 -30.97,54.289 -66.79,54.289 h -6.15 z m -17.54,124.617 h 29.1 c 43.09,0 78.91,-22.761 78.91,-69.589 0,-47.938 -35.07,-71.075 -79.48,-71.075 h -28.53 v 140.664" /><path
         id="path314"
         style="fill:#bec4c7;fill-opacity:1;fill-rule:nonzero;stroke:none"
         d="m 1603.74,281.398 h 75.56 v -16.043 h -58.02 v -39.367 h 56.34 v -16.043 h -56.34 v -53.164 h 58.02 v -16.047 h -75.56 v 140.664" /><path
         id="path316"
         style="fill:#bec4c7;fill-opacity:1;fill-rule:nonzero;stroke:none"
         d="m 1712.24,214.801 h 5.6 c 17.9,0 37.31,3.355 37.31,25.742 0,22.012 -20.89,25.184 -38.24,25.184 h -4.67 z m 69.96,-74.067 h -21.27 l -41.42,59.512 h -7.27 v -59.512 h -17.53 v 140.664 h 21.26 c 12.5,0 25.94,-0.195 37.13,-6.531 11.76,-6.902 18.46,-20.144 18.46,-33.574 0,-20.156 -13.42,-36.945 -33.76,-39.363 l 44.4,-61.196" /><path
         id="path318"
         style="fill:#bec4c7;fill-opacity:1;fill-rule:nonzero;stroke:none"
         d="m 1852.34,254.723 c -5.23,8.765 -11.95,13.242 -22.58,13.242 -11.19,0 -23.5,-7.649 -23.5,-19.961 0,-11.008 10.82,-16.789 19.58,-20.149 l 10.08,-3.917 c 19.96,-7.833 34.88,-18.836 34.88,-42.34 0,-25.559 -19.77,-43.84 -44.96,-43.84 -22.75,0 -40.48,16.789 -43.47,39.363 l 17.73,3.731 c -0.19,-15.489 12.13,-26.676 27.24,-26.676 15.1,0 25.92,12.683 25.92,27.422 0,15.105 -12.12,21.636 -24.24,26.675 l -9.7,4.106 c -16.05,6.902 -30.6,16.031 -30.6,35.625 0,22.762 20.15,36.375 41.42,36.375 15.66,0 28.53,-7.649 36.19,-21.262 l -13.99,-8.394" /></g></g></svg>