<?xml version="1.0" encoding="utf-8"?>
<!-- Generator: Adobe Illustrator 15.0.0, SVG Export Plug-In . SVG Version: 6.00 Build 0)  -->
<!DOCTYPE svg PUBLIC "-//W3C//DTD SVG 1.1//EN" "http://www.w3.org/Graphics/SVG/1.1/DTD/svg11.dtd">
<svg version="1.1" id="Ebene_1" xmlns="http://www.w3.org/2000/svg" xmlns:xlink="http://www.w3.org/1999/xlink" x="0px" y="0px"
	 viewBox="0 -50 800 1000" enable-background="new 0 0 800 800" xml:space="preserve">
<g>
	<defs>
		<rect id="SVGID_1_" x="65.088" y="149.864" width="669.824" height="500.271"/>
	</defs>
	<clipPath id="SVGID_2_">
		<use xlink:href="#SVGID_1_"  overflow="visible"/>
	</clipPath>
	<path clip-path="url(#SVGID_2_)" fill="#192c3b" d="M397.626,149.864h3.567c1.065,3.824,0.781,9.068,1.172,13.584
		c-2.476,1.091-5.44,0.364-6.798,2.067c-1.543,1.952-0.567,8.492-0.301,12.725c0.675,10.222,1.153,17.604,1.774,26.904
		c0.319,4.765,0.976,9.618,0.586,13.914c-1.774,19.423-26.301,23.656-47.046,22.476c-8.465-0.488-16.807-3.833-20.995-8.554
		c-5.626-6.38-5.103-19.087-5.883-30.161c-0.453-5.768-0.825-11.384-1.215-16.85c-0.392-5.528,0.035-11.251-2.361-15.759
		c-1.491-0.923-4.649-0.248-6.487-0.834c-0.949-3.727-1.294-9.575-0.949-13.621c12.405-1.02,26.176-2.227,38.51-2.369
		c0.577,3.869,0.967,9.46,0.87,13.035c-1.802,1.811-3.94,0.809-5.04,2.361c-1.562,2.307-0.568,10.568-0.284,14.188
		c0.443,5.723,0.638,10.107,0.905,14.207c0.479,7.648,0.249,22.29,4.738,25.75c4.542,3.47,13.08,1.917,16.558-0.31
		c5.103-3.31,3.798-11.251,3.247-19.238c-0.621-8.562-0.923-15.874-1.49-25.138c-0.231-3.887-0.737-10.071-2.377-11.216
		c-1.172-0.843-3.479-0.142-5.005-1.225c-0.213-4.215-1.1-9.308-0.594-13.292C373.881,151.124,386.313,151.034,397.626,149.864"/>
	<path clip-path="url(#SVGID_2_)" fill="#192c3b" d="M491.418,161.674c-0.781,7.107-0.905,14.881-2.369,21.295
		c-7.534-0.771-15.502-1.082-22.459-2.352c2.006-14.436-14.642-15.527-18.989-7.391c-2.52,4.792-2.963,12.849-3.814,19.806
		c-1.438,12.352-4.419,29.912,4.729,34.331c4.427,2.13,12.769,1.083,14.8-2.68c0.755-1.366,0.95-4.027,1.162-6.504
		c0.231-2.085,0.737-5.421,0-7.081c-1.028-2.423-4.143-1.97-6.778-3.266c-0.044-4.827,0.55-9.121,1.162-13.319
		c6.416,0.257,12.84,1.18,19.246,1.765c6.301,0.622,12.689,0.764,18.634,2.095c-0.425,4.561-0.46,9.592-1.454,13.602
		c-1.438,0.675-4.197-0.035-5.662,0.595c-2.555,3.062-2.199,8.182-2.626,13c-0.453,4.721-0.984,9.681-1.509,13.914
		c-10.488,3.407-23,4.419-34.02,3.238c-9.735-1.029-20.817-2.928-27.81-10.026c-7.525-7.765-7.879-25.272-6.229-40.259
		c1.687-14.641,5.608-31.225,16.593-36.975c4.49-2.378,10.685-3.194,16.559-3.266C466.893,152.082,479.864,156.404,491.418,161.674"
		/>
	<path clip-path="url(#SVGID_2_)" fill="#192c3b" d="M297.925,158.72c1.988,7.409,4.047,16.256,5.058,23.665
		c-4.082,1.384-8.661,2.209-13.354,2.946c-1.508-2.218-1.233-5.2-3.496-6.185c-4.153-1.784-10.781,2.333-15.12,2.333
		c1.233,7.17,2.706,14.073,4.427,20.719c6.3-1.499,14.713-0.869,13.053-10.328c3.417-1.979,8.509-2.37,13-3.257
		c2.68,9.708,4.614,20.223,6.815,30.445c-4.207,1.393-8.679,2.414-13.612,2.99c-1.119-2.538-0.994-5.208-3.275-6.238
		c-3.558-1.571-9.112,1.438-12.725,1.784c0.249,2.396,1.03,6.042,1.784,9.45c0.639,3.052,1.136,7.01,3.247,8.003
		c2.032,0.967,4.224-0.151,7.409,0c1.216,4.091,1.952,8.652,2.973,13.018c-3.052,1.349-6.513,1.961-9.752,2.662
		c-10.088,2.175-20.63,4.242-30.799,6.513c-1.615-3.992-2.245-9.015-3.256-13.611c1.996-0.78,6.628-1.233,7.409-4.143
		c0.47-1.82-0.381-5.174-0.887-7.721c-2.484-11.561-4.996-22.121-7.676-34.588c-1.002-4.499-1.641-11.207-4.782-12.139
		c-2.476-0.683-4.747,0.896-6.478,0.629c-0.994-4.055-2.458-9.21-2.662-13.035c0.542-1.224,2.112-1.224,3.23-1.499
		c8.323-2.015,17.898-3.7,26.638-5.617c10.08-2.227,20.231-4.268,30.197-6.504C295.902,158.879,296.666,158.578,297.925,158.72"/>
	<path clip-path="url(#SVGID_2_)" fill="#192c3b" d="M579.566,177.656c-1.908,7.081-3.567,14.401-5.591,21.295
		c-4.827-0.78-9.016-2.219-13.612-3.256c-0.336-1.766,0.214-3.079-0.282-4.455c-1.651-4.25-11.004-3.567-15.104-5.573
		c-1.58,2.458-1.898,5.537-2.68,8.537c-0.729,2.901-1.757,5.855-2.068,8.909c3.382,0.576,9.442,3.815,13.054,2.369
		c2.094-0.878,1.49-2.867,3.238-4.455c4.677,0.958,9.354,1.873,13.302,3.558c-2.29,9.255-4.304,18.75-7.099,27.508
		c-4.703-0.976-9.335-2.121-13.576-3.567c0.044-2.129,1.029-3.408,0.56-5.005c-1.11-3.824-9.735-3.23-13.054-5.022
		c-1.189,1.012-1.35,2.928-1.713,4.428c-1.197,4.721-2.546,10.019-3.575,15.077c1.979,0.595,4.915,1.605,7.977,2.377
		c6.54,1.589,11.313,2.023,12.13-4.747c4.828,0.896,9.61,1.872,13.621,3.576c-1.979,7.489-3.541,15.386-5.928,22.476
		c-10.462-2.015-21.251-5.138-31.926-8.013c-10.826-2.848-21.812-4.773-31.953-8.27c1.277-4.232,1.935-9.078,3.514-13.026
		c1.366-0.798,3.966,1.03,6.514,0.32c2.91-0.799,4.268-8.173,5.313-12.166c3.346-11.917,6.105-21.802,8.581-34.314
		c0.533-2.671,1.421-6.007,0.915-7.702c-0.816-2.741-5.564-2.777-6.522-4.126c0.426-4.49,1.961-7.897,2.653-12.112
		c0.159-0.452,0.479-0.709,0.896-0.905c17.809,4.313,36.948,9.442,55.051,13.904C574.721,175.925,577.365,176.209,579.566,177.656"
		/>
	<path clip-path="url(#SVGID_2_)" fill="#192c3b" d="M223.398,198.951c-4.206,1.624-8.395,3.247-12.716,4.721
		c-1.863-0.604-1.898-2.999-3.576-3.807c-6.442,0.258-10.479,2.928-15.395,4.721c1.863,5.848,4.055,11.314,6.255,16.841
		c5.191-2.386,14.898-2.289,12.086-10.949c3.824-1.748,9.095-3.708,12.75-4.72c1.686,1.712,2.121,4.259,2.929,6.513
		c2.413,6.54,5.208,13.319,7.427,20.107c-4.17,1.678-8.385,3.301-12.733,4.721c-2.316-1.003-1.669-4.881-4.437-5.005
		c-3.373-0.16-9.424,3.327-12.423,4.428c2.307,6.327,4.472,12.715,7.116,18.616c3.292-1.925,15.431-3.398,16.256-8.243
		c0.258-1.695-1.118-3-0.905-5.359c4.144-1.767,8.199-3.629,13.044-4.729c2.626,7.347,5.625,14.294,7.968,21.917
		c-10.053,4.286-20.329,7.986-30.756,11.811c-10.249,3.744-20.505,8.013-31.065,11.269c-1.615-4.357-3.38-8.518-4.748-13.017
		c1.544-0.967,5.981-2.014,6.531-4.774c0.354-1.96-1.198-4.685-2.059-7.089c-4.241-11.465-7.524-22.104-12.156-33.72
		c-1.438-3.54-3.745-10.684-6.779-11.225c-2.458-0.478-4.508,1.58-6.255,1.464c-1.713-4.188-3.46-8.34-4.711-13.025
		c17.871-7.533,41.953-15.085,59.468-22.441c1.749-0.763,4.49,8.626,5.023,10.027C221.1,192.199,222.359,195.056,223.398,198.951"/>
	<path clip-path="url(#SVGID_2_)" fill="#192c3b" d="M659.755,209.91c-1.162,3.531-2.919,6.921-4.444,10.337
		c-1.475,3.337-2.521,7.001-4.731,9.743c-4.693-1.277-8.509-3.451-12.697-5.306c3.789-8.873-9.371-9.192-13.611-12.414
		c-2.929,5.076-5.218,10.808-7.419,16.54c3.267,0.94,8.768,5.395,12.44,4.445c2.059-0.55,2.059-2.254,3.833-3.815
		c4.49,1.446,8.413,3.442,12.423,5.342c-0.133,2.289-1.384,4.597-2.369,6.752c-2.795,6.229-5.838,13.186-8.882,19.548
		c-4.418-1.686-8.687-3.505-12.697-5.653c0.098-2.289,1.499-3.069,1.181-4.978c-0.675-4.082-9.149-4.854-12.14-7.107
		c-1.828,2.662-3.088,5.838-4.455,8.855c-1.375,3.15-2.626,6.3-3.814,9.486c3.575,1.322,10.647,6.185,15.067,6.185
		c2.989,0.027,3.389-3.239,5.642-4.996c4.296,1.509,8.352,3.283,12.14,5.289c-2.521,7.764-6.122,14.41-9.166,21.615
		c-20.497-8.438-40.312-17.507-60.383-26.345c1.49-4.614,3.336-8.864,5.643-12.707c1.863-0.07,3.461,1.758,5.91,1.473
		c3.567-0.337,5.999-7.516,7.702-11.233c5.075-11.384,9.663-20.763,14.18-32.565c0.896-2.352,2.147-5.563,1.774-7.374
		c-0.515-2.706-4.782-3.505-5.607-5.03c1.623-4.295,3.088-8.768,5.607-12.13C620.721,192.341,640.519,200.823,659.755,209.91"/>
	<path clip-path="url(#SVGID_2_)" fill="#192c3b" d="M123.399,255.137c0.173-4.72-4.543-11.828-8.332-12.99
		c-6.211-1.891-9.512,4.48-14.136,5.918c2.214,4.88,5.662,9.192,8.275,13.275c0.874,1.508,1.309,3.531,2.919,4.49
		C116.211,262.599,123.137,261.686,123.399,255.137 M136.395,258.127c4.654-1.845,9.84-5.093,15.403-2.057
		c2.911,1.543,5.52,5.616,8.271,8.562c4.561,4.925,8.021,10.506,15.084,5.901c3.071,2.892,5.227,7.161,7.392,11.269
		c-1.358,1.899-3.594,2.884-5.607,4.117c-3.887,2.432-7.668,4.543-12.148,7.401c-1.668,1.109-4.57,3.869-5.91,3.869
		c-1.73-0.035-4.827-4.393-6.495-6.211c-4.632-5.059-7.201-8.067-11.847-13.053c-1.809-1.979-4.645-5.201-6.805-5.6
		c-5.386-1.029-8.612,4.037-13.593,6.238c1.335,2.466,3.26,5.83,5.616,9.477c1.872,2.831,4.361,7.72,7.086,7.923
		c2.089,0.196,3.407-1.846,5.044-1.739c3.19,2.929,4.915,7.321,7.386,10.958c-2.142,2.485-5.261,4.154-7.986,5.893
		c-8.296,5.297-17.228,10.523-25.723,15.981c-2.999-3.302-5.333-7.259-7.387-11.572c0.488-1.517,4.276-2.483,4.725-4.985
		c0.399-2.361-1.318-4.783-2.671-7.073c-5.99-10.363-12.25-19.681-18.63-29.92c-1.997-3.178-5.231-10.472-8.314-10.959
		c-3.176-0.497-4.623,2.564-7.068,2.36c-2.706-3.39-5.013-7.188-7.134-11.234c1.718-1.81,4.162-3.256,6.526-4.694
		c11.083-6.867,23.213-14.162,34.62-21.331c6.425-4.046,15.209-10.302,24.85-5.316c5.896,3.018,13.376,12.059,13.612,21.013
		C144.882,250.825,139.82,253.62,136.395,258.127"/>
	<path clip-path="url(#SVGID_2_)" fill="#192c3b" d="M734.912,263.735v0.63c-4.622,5.883-8.865,12.227-13.63,18.021
		c-5.723-3.931-11.421-7.879-16.549-12.413c1.118-2.476,4.411-4.588,4.437-8.626c0.018-4.561-5.944-9.627-10.656-9.45
		c-4.001,0.231-6.983,3.807-7.391,7.41c-0.452,3.984,2.021,7.463,3.247,9.778c3.282,6.124,6.354,10.72,9.476,16.54
		c2.911,5.484,6.15,11.562,4.135,18.927c-2.482,8.989-11.126,19.344-20.701,20.417c-1.747,0.23-3.664,0.204-5.634,0
		c-10.018-0.913-18.474-7.436-25.414-12.99c-7.72-6.132-13.186-12.157-18.979-19.531c4.81-7.045,9.867-13.825,15.103-20.418
		c6.033,3.666,11.171,8.182,16.851,12.14c-1.624,4.427-5.998,6.389-5.883,11.233c0.079,4.553,7.604,11.278,13.594,10.045
		c3.39-0.674,6.433-4.1,6.814-8.261c0.514-5.928-5.218-12.92-8.599-18.625c-3.452-5.918-8.021-11.979-8.571-18.616
		c-0.745-9.024,4.65-15.502,8.892-19.895c2.705-2.794,6.45-5.599,10.346-6.486c7.41-1.721,13.604,1.002,18.936,3.532
		C717.433,243.238,727.715,253.531,734.912,263.735"/>
	<path clip-path="url(#SVGID_2_)" fill="#192c3b" d="M525.155,380.891c4.224,3.824,11.037,0.524,16.539,1.216
		c2.236,0.231,4.863,1.207,6.514,2.334c1.419,0.967,1.97,2.191,2.98,3.567c0.888,1.171,2.468,1.996,2.361,3.575
		c-4.064-0.824-7.604-1.926-11.855-3.008c-2.413-0.576-10.409-3.691-10.923-0.567c-0.391,2.2,7.195,4.409,9.458,5.323
		c1.527,0.577,9.664,2.68,9.771,4.729c0.178,3.798-8.074,1.668-9.459,1.197c-2.086-0.727-4.818-2.616-8.59-4.72
		c-2.617-1.545-8.482-2.777-8.873,1.145c-0.355,3.275,4.508,4.277,6.531,4.729c7.435,1.828,19.832,4.02,25.138,7.685
		c6.442,4.524,10.453,11.038,15.68,17.178c1.357,1.615,3.406,4.562,5.323,5.591c2.965,1.66,6.984,1.455,8.901,4.18
		c2.812,4.197,0.983,9.859-5.352,9.158c-2.431-0.267-4.562-1.04-5.014-3.852c1.296-2.095,6.363-0.488,8.856-1.456
		c-1.57-3.922-6.238-1.72-10.364-2.36c-2.085-0.346-4.757-2.741-7.107-4.454c-2.29-1.722-4.562-3.318-6.505-4.729
		c-1.465-1.029-3.859-3.46-6.521-4.711c-2.894-1.421-7.259-1.305-7.969,1.473c-1.357,5.244,7.969,12.343,10.631,14.782
		c1.978,1.794,4.269,4.057,6.521,6.213c2.343,2.28,4.357,5.182,6.504,6.211c1.092,0.514,3.416,0.771,4.144,1.188
		c3.15,1.704,4.162,6.78,7.428,7.658c2.476,0.711,4.897-0.275,6.797-1.145c3.203-1.543,6.229-5.873,9.743-5.972
		c2.662,0,5.217,2.529,7.116,4.81c2.36,2.759,4.135,4.88,5.022,6.469c1.526,2.76,3.886,11.118-0.888,11.854
		c-4.72,0.71-6.034-5.448-8.873-7.703c-1.438-1.116-3.922-2.253-5.937-2.065c-5.066,0.382-4.809,5.776-6.805,10.949
		c-7.126,1.021-14.518-1.828-21.572-0.878c-1.49,6.247,4.464,9.466,7.968,13.292c1.643,1.801,3.363,3.442,5.325,5.634
		c1.818,2.006,4.143,4.668,4.17,6.771c0.009,3.86-5.138,6.433-7.685,8.608c-3.265,2.803-4.516,6.255-10.115,5.917
		c0.408-6.247,6.593-8.739,5.937-14.525c-0.223-2.263-3.053-4.161-5.307-5.9c-4.579-3.541-7.8-6.158-12.459-10.063
		c-3.496-2.937-6.211-5.421-11.801-4.418c-2.786-2.032-5.377-4.712-7.702-7.392c-2.2-2.583-5.253-5.705-6.814-8.899
		c-1.757-3.691-2.707-8.27-3.843-12.459c-1.109-4.01-1.677-8.51-4.712-11.508c-2.377-0.205-4.108,0.257-6.211,0.301
		c-2.981-2.83-3.62-6.832-5.031-10.338c-0.763-1.818-1.464-3.745-2.085-5.616c-0.631-1.907-1.153-4.135-2.076-5.645
		c-1.669-2.767-7.631-4.355-10.364-6.211c-5.288-3.531-9.424-11.553-19.788-8.589c-2.662,0.799-4.508,2.645-8.013,2.999
		c-2.005,0.151-4.241-0.594-6.202-0.346c-2.973,0.417-5.972,4.524-9.468,4.144c-4.002-0.372-5.253-5.563-4.145-10.036
		c0.72-2.937,3.567-4.686,3.514-6.521c0-2.032-2.723-3.753-4.4-5.323c-4.375-4.02-5.909-5.608-10.054-9.469
		c-0.736-0.675-3.931-3.904-5.918-3.559c-1.917,0.364-3.745,5.617-2.352,9.779c0.656,2.12,2.52,4.188,4.108,6.505
		c2.893,4.17,5.217,8.624,7.994,13.31c1.287,2.209,2.981,4.241,3.879,6.514c0.745,2.093,0.745,4.284,1.445,6.236
		c1.012,2.778,3.426,4.188,3.559,7.384c0.23,5.9-1.544,14.41-1.775,21.038c-0.089,1.714,0.32,3.186,0.303,4.685
		c-0.071,3.187-1.562,6.895-0.303,9.495c0.853,1.802,5.352,2.911,9.433,3.23c5.12,0.417,8.261,0.229,11.881,2.368
		c4.101,2.458,8.91,7.569,15.955,6.815c3.053-0.346,9.121-5.112,12.716-2.369c2.919,2.191,2.405,14.294,2.67,18.954
		c0.214,3.061,2.433,17.861-1.782,18.615c-3.425,0.596-6.788-8.952-7.969-11.517c-2.636-5.601-4.02-11.972-10.665-12.751
		c-2.548-0.284-5.529,0.212-7.969,0.336c-2.636,0.071-5.244,0.16-7.729,0.257c-4.792,0.206-9.85,1.065-15.661,0.577
		c-6.852-0.559-11.82-3.514-15.379-7.072c-4.676-4.72-7.188-12.093-13.895-15.395c-2.361-1.137-5.334-1.49-8.004-2.36
		c-5.094-1.686-9.309-4.101-15.671-4.747c-2.591-0.267-6.255-1.074-8.589,0.896c0.931,2.591,3.514,3.514,4.738,5.937
		c1.828,3.577,1.969,8.82,3.273,12.697c2.751,8.307,7.304,11.873,12.7,18.661c2.173,2.716,5.873,6.975,5.643,10.054
		c-0.418,4.499-10.826,7.09-14.81,8.572c-3.142,1.188-5.919,2.263-8.581,3.257c-2.786,1.028-5.341,2.652-8.581,2.937
		c-3.984,0.373-7.303-1.233-7.692-3.523c-1.385-8.012,14.951-7.808,15.679-15.989c0.328-3.567-1.881-7.978-3.257-10.089
		c-3.337-5.156-9.743-10.755-13.594-17.107c-1.456-2.423-2.52-4.979-4.455-5.645c-3.328-1.081-11.633,1.182-15.377,1.793
		c-2.546,0.408-5.155,0.63-7.71,1.18c-3.78,0.782-6.389,1.703-9.752,0.276c-3.727-1.571-6.397-5.148-9.166-7.668
		c-5.972-5.51-10.835-9.547-18.058-15.084c-2.698-2.077-7.268-6.479-10.036-6.531c-2.076-0.044-5.155,2.697-6.832,3.842
		c-4.455,3.177-7.862,5.547-12.422,8.9c-1.899,1.385-4.357,2.894-5.307,4.986c-1.1,2.44-0.896,5.848-1.171,9.193
		c-0.524,6.035-1.172,12.13-1.775,18.368c-0.292,2.892,0.196,6.166-1.5,8.535c-2.298,1.073-4.269-2.11-6.814-0.859
		c-2.387,6.326,6.273,13.247,0.888,18.952c-5.067,0.516-10.986-0.15-17.136-0.646c-5.998-0.427-12.448-0.284-16.592-1.749
		c-1.686-0.62-5.75-3.221-5.591-5.057c0.143-2.484,8.021-4.197,10.923-4.986c7.357-2.06,13.622-1.998,15.414-8.582
		c-0.622-2.582-2.326-3.034-2.672-5.332c-0.452-2.743,0.63-6.257,1.162-9.477c1.012-6.3,1.775-11.9,1.775-19.54
		c0-3.975,0.249-8.35,0.905-10.293c1.083-3.274,4.401-5.909,6.798-8.936c5.164-6.318,7.684-11.048,13.043-18.35
		c1.82-2.467,6.593-6.593,5.883-9.425c-0.373-1.597-4.286-3.051-5.032-3.842c-3.336-3.717-4.986-12.839-10.328-11.242
		c-5.431,1.571-1.065,13.115-2.662,18.031c-1.012,2.964-6.034,4.845-9.478,7.4c-2.83,2.006-6.123,6.415-10.355,6.512
		c-3.557,0.045-7.692-3.832-8.296-7.709c-0.656-4.137,1.579-9.318,4.437-10.037c1.367-0.354,2.485,0.701,4.756,0.275
		c6.779-1.251,4.498-11.936,3.247-19.193c-0.923-5.377-2.448-10.656-2.094-17.224c0.355-6.265,2.139-11.721,1.775-17.392
		c-0.266-4.152-2.698-8.554-5.315-8.589c-3.088-0.098-2.388,3.549-4.729,4.1c-1.314,0.347-3.301-0.993-4.153-1.446
		c-1.1-0.666-2.307-1.163-2.938-2.653c-2.848,0.763-4.534-2.83-7.391-3.274c-1.775-0.311-3.159,0.692-5.031,0.319
		c-1.899-4.995,0.772-8.944-1.189-12.139c-1.748-2.849-6.113-1.58-7.392-3.585c-2.049-3.07,0.648-12.032,1.474-14.48
		c1.819-5.396,3.105-8.342,5.918-10.95c7.258-6.656,24.207-5.475,29.858,2.68c1.687,2.413,3.248,6.655,5.032,9.468
		c1.535,2.316,4.135,7.09,6.54,7.941c4.872,1.863,12.547-0.852,17.143,0.346c2.361,0.56,4.375,3.133,6.815,4.145
		c2.29,0.958,5.235,1.42,7.968,2.05c5.289,1.251,10.559,2.662,16.274,3.851c3.975,0.781,7.897,1.004,10.648,2.68
		c3.159,1.873,5.386,5.244,7.702,7.995c6.211,7.188,10.977,14.295,15.404,23.968c0.834,1.818,1.456,3.913,2.608,4.968
		c1.811,1.704,8.83,2.627,11.581,6.265c1.828,2.432,2.741,7.232,0.861,9.167c-1.171,1.18-6.851,1.509-9.441,1.18
		c-3.212-0.452-7.055-3.221-8.306-5.607c-0.816-1.562-0.869-4.145-1.464-5.662c-0.958-2.387-3.673-4.294-6.219-6.513
		c-4.437-3.797-8.572-7.312-12.725-12.103c-2.023-2.334-4.348-5.076-6.496-5.928c-3.034-1.163-8.881-0.657-10.967,0.586
		c-0.222,2.865,1.633,5.448,2.981,7.693c1.207,2.111,2.849,4.702,4.721,6.513c2.467,2.36,7.862,3.744,9.184,6.522
		c1.855,3.912,0.231,9.885,3.274,13.318c1.686,1.89,5.005,2.564,6.789,4.428c4.703,4.969,4.579,15.289,7.391,22.183
		c0.692,1.82,2.174,3.311,2.946,5.058c1.366,3.053,2.209,6.505,2.955,9.727c0.763,3.247,1.749,6.442,2.067,9.751
		c-2.2,0.267-3.504-0.39-5.608-0.301c0.488,2.316,2.485,5.599,4.437,7.462c5.307,0.275,11.198-0.178,16.86-0.302
		c5.039-7.516,9.725-14.189,16.859-21.908c2.715-2.973,6.193-5.919,9.76-9.486c2.565-2.555,7.889-6.813,7.401-11.836
		c-0.292-3.105-3.177-5.555-6.496-5.059c-2.449,0.408-4.188,4.233-6.229,5.359c-2.688,1.491-6.673,1.074-10.32,2.379
		c-1.942,0.647-4.134,2.05-5.368,3.256c-2.795,2.804-3.993,9.043-7.986,9.742c-3.709,0.712-6.034-1.251-7.987-3.219
		c-0.035-8.059,3.684-7.668,8.608-10.986c3.975-2.672,6.796-6.451,9.733-10.95c1.207-1.757,3.55-4.729,3.55-6.788
		c0-3.034-3.052-4.579-3.55-7.409c-0.718-4.304,2.023-6.531,2.397-9.734c0.132-1.49-0.577-4.01-0.613-6.193
		c-0.036-4.294,0.595-6.29-0.285-9.805c-0.78-3.044-2.395-6.558-3.256-10.648c-1.073-5.058-1.641-8.926-4.445-9.459
		c-3.745-0.745-5.324,3.168-8.573,2.946c-2.528-0.15-3.957-3.691-5.021-5.333c-1.491-2.228-2.573-4.081-4.153-6.193
		c-1.42-0.914-3.532,0.621-5.022-0.319c-0.595-2.068,0.187-3.674,0.284-5.59c0.585-9.282-4.917-18.697-0.879-25.423
		c2.228-3.78,10.747-7.809,16.249-8.305c4.649-0.427,12.12,1.818,16.592,5.332c2.396,1.837,4.083,5.476,7.099,7.099
		c2.697,1.375,7.073,1.73,8.27,3.532c0.763,1.181,0.417,3.922,1.226,5.599c1.49,3.247,6.778,3.824,10.044,5.066
		c3.843,1.474,8.021,2.991,8.27,6.46c0.285,4.028-4.206,4.862-4.126,8.021c0.028,3.221,5.032,4.473,7.703,5.617
		c7.169,3.097,10.896,5.12,17.436,9.21c2.822,1.73,6.38,3.319,7.72,5.608c0.905,1.589,1.136,3.823,2.032,5.616
		c3.398,6.611,10.461,11.997,15.972,18.049c2.742,2.973,5.91,5.644,8.572,8.58c2.848,3.062,6.175,5.733,8.278,8.572
		c1.589,2.059,1.73,4.011,3.852,5.342c3.62,2.121,12.209,1.961,17.773,2.032c6.583,0.168,14.986,1.117,16.566-3.239
		c0.576-1.589-0.116-4.321-0.604-7.676c-0.354-2.59-0.531-5.466-0.887-7.711c-0.745-4.756-2.645-7.941,0-11.207
		c2.627-3.31,8.457-4.072,12.44-3.877c7.898,0.346,11.936,4.978,15.067,10.053C525.049,375.61,526.637,376.473,525.155,380.891"/>
	<path clip-path="url(#SVGID_2_)" fill="#192c3b" d="M697.928,503.663c-1.615,1.49-3.682,2.352-5.899,3.567
		c-1.342,0.736-4.562,3.381-5.938,3.247c-1.641-0.125-2.67-2.973-4.134-3.247c-2.37-0.427-5.67,1.827-7.712,2.964
		c-2.324,1.277-4.205,2.421-6.495,3.842c2.227,5.705,5.618,10.656,8.59,15.964c2.449-1.039,3.958-2.22,6.193-3.516
		c1.509-0.923,4.986-2.174,5.342-4.454c0.16-1.137-1.543-3.025-1.189-4.409c0.374-1.634,4.482-3.089,5.901-3.861
		c2.361-1.348,4.037-2.528,6.238-3.282c4.633,8.066,9.309,16.105,13.63,24.552c-1.286,1.935-3.655,2.716-5.661,3.879
		c-1.953,1.063-4.065,2.432-6.186,3.229c-2.004-1.18-1.694-3.646-3.859-4.153c-4.312-0.967-9.148,4.906-12.743,5.636
		c3.222,5.952,6.106,12.227,10.081,17.479c2.201-0.603,4.995-2.396,7.985-4.215c4.437-2.538,9.168-5.065,4.722-10.888
		c3.612-2.919,7.95-5.084,12.439-7.089c3.728,6.663,7.508,13.407,11.243,20.081c-1.66,2.271-4.535,3.168-6.824,4.437
		c-16.327,9.29-33.683,19.051-50.56,28.102c-2.592-3.718-4.827-7.817-6.798-12.095c1.189-1.225,4.846-2.448,5.307-5.031
		c0.729-4.099-4.117-10.089-5.944-13.302c-4.534-8.172-8.484-16.203-13.604-24.845c-1.826-3.15-5.314-10.231-8.269-10.693
		c-2.778-0.407-4.518,2.379-6.221,2.085c-1.633-0.318-2.68-4.045-3.558-5.616c-1.34-2.528-2.733-4.348-3.239-5.953
		c1.658-1.926,4.188-3.132,6.486-4.419c15.094-8.358,33.471-18.015,47.961-26.629c1.597-0.977,1.97-0.728,3.221,1.188
		C692.028,491.559,694.866,498.232,697.928,503.663"/>
	<path clip-path="url(#SVGID_2_)" fill="#192c3b" d="M632.559,530.913c-2.077,0.888-5.928,1.65-6.505,4.427
		c-0.452,1.892,0.7,4.846,1.446,7.41c3.451,11.357,6.469,22.423,10.382,34.029c1.208,3.674,2.857,10.754,5.892,11.499
		c2.608,0.684,4.881-1.383,6.539-0.886c1.563,4.135,2.992,8.447,4.136,12.99c-11.376,3.887-22.698,7.719-34.952,10.684
		c-1.287-4.091-2.476-8.324-3.815-12.423c0.878-1.979,4.171-1.82,4.729-4.152c0.417-1.767-0.816-3.719-1.49-5.893
		c-3.736-12.254-8.227-26.594-11.226-38.432c1.313,20.002-0.123,43.72-0.604,64.776c-3.699,1.942-8.146,2.955-12.732,4.394
		c-1.526,0.523-3.328,1.375-4.411,1.215c-1.845-0.284-3.975-4.304-5.306-6.221c-4.774-6.539-9.778-13.46-14.215-19.539
		c-6.992-9.557-13.585-17.596-17.782-27.214c0.531,3.504,1.917,7.205,3.265,11.242c2.449,7.33,4.49,14.047,7.117,22.485
		c1.375,4.419,2.404,13.354,9.459,10.053c1.614,4.226,2.981,8.68,4.116,13.328c-11.215,3.727-22.555,7.393-34.304,10.612
		c-1.73-4.046-3.07-8.527-4.135-13.274c1.846-0.967,5.661-1.376,6.503-3.832c0.88-2.608-2.68-10.915-3.539-13.923
		c-2.786-9.734-5.085-18.333-8.288-27.828c-1.277-3.797-2.929-11.136-6.229-11.792c-2.431-0.515-4.622,1.393-6.176,0.896
		c-1.384-4.365-3.158-8.351-3.904-13.354c8.838-2.866,17.978-5.608,27.561-8.571c2.379-0.745,7.02-3.018,9.175-2.68
		c1.917,0.282,3.71,3.832,5.307,5.927c4.738,6.211,9.761,12.821,14.207,18.679c6.46,8.394,14.064,16.814,17.169,26.592
		c-2.662-18.783,0.258-42.475,0.888-62.717c4.757-2.11,11.27-3.946,17.729-5.908c6.54-2.05,12.964-4.17,18.066-5.625
		c0.354-0.116,0.798-0.417,1.153-0.267c1.827,0.442,2.271,3.824,2.981,6.193C631.582,526.502,632.46,528.793,632.559,530.913"/>
	<path clip-path="url(#SVGID_2_)" fill="#192c3b" d="M263.345,549.821c-0.87,6.852-3.522,14.456-5.048,21.607
		c-4.951-0.887-9.761-1.891-13.922-3.531c1.322-5.821-2.254-6.186-7.09-7.418c-3.018-0.773-6.122-1.971-8.27-2.06
		c-2.147,5.067-3.247,11.153-4.455,17.151c1.208,1.279,3.842,1.253,6.193,1.767c2.52,0.577,4.624,1.615,6.531,0.905
		c2.112-0.79,1.953-2.715,3.247-4.747c4.561,0.959,8.927,2.146,13.329,3.283c-0.515,4.553-1.74,9.3-2.981,14.198
		c-1.171,4.604-2.378,9.342-3.833,13.585c-4.81-0.905-9.583-1.855-13.62-3.55c0.354-2.209,0.896-3.576,0.3-5.041
		c-1.365-3.531-9.272-3.29-12.999-4.729c-2.147,5.964-3.408,12.768-5.049,19.256c1.73,1.083,4.845,1.597,7.995,2.35
		c3.177,0.782,6.513,1.83,8.891,0.905c2.333-0.931,1.979-3.176,3.531-5.34c4.101,0.274,9.415,1.826,13.328,3.265
		c-1.597,7.737-3.442,15.271-5.607,22.485c-5.377-0.542-10.719-2.272-15.99-3.56c-15.493-3.885-32.255-7.79-47.934-12.155
		c0.728-4.757,1.988-9.061,3.265-13.274c1.189-0.541,3.177,0.977,5.617,0.55c3.754-0.621,4.73-6.869,5.918-11.518
		c3.088-12.45,6.105-22.281,8.554-35.218c0.532-2.654,1.49-5.786,0.87-7.65c-0.728-2.608-5.2-2.91-6.478-3.877
		c0.338-4.712,1.953-8.11,2.68-12.433c0.142-0.435,0.427-0.709,0.879-0.877C221.898,539.413,243.106,544.099,263.345,549.821"/>
	<path clip-path="url(#SVGID_2_)" fill="#192c3b" d="M318.361,557.532c-0.435,4.712-0.808,9.442-1.784,13.612
		c-1.438,0.328-4.26-0.213-6.504,0c-2.812,3.195-3.115,7.95-3.86,12.44c-2.13,13.114-3.94,28.59-5.324,42.575
		c1.579,1.287,4.294,0.86,6.814,1.198c3.071,0.354,5.555,1.18,7.658,0c2.814-1.544,1.625-4.747,3.577-7.091
		c4.649,0.64,9.867,0.79,13.895,2.033c-0.079,4.241-0.949,8.304-1.455,12.458c-0.515,4.037-0.568,8.11-1.792,11.792
		c-21.331-2.573-42.84-5.059-63.604-8.271c-0.053-4.072,0.727-9.653,1.774-13.594c9.246,2.219,8.527-5.554,9.761-13.008
		c1.561-9.229,2.937-18.644,4.162-28.999c0.47-4.152,1.96-11.987,0-14.499c-1.34-1.686-5.528-1.554-6.531-2.635
		c0.151-4.561,0.967-8.351,1.5-12.45c-0.018-0.506,0.213-0.78,0.603-0.904C291.217,553.7,305.13,555.279,318.361,557.532"/>
	<path clip-path="url(#SVGID_2_)" fill="#192c3b" d="M464.798,573.194c-2.271,3.328-1.828,11.003-1.49,15.404
		c0.443,5.324,0.984,11.385,1.49,15.964c1.101,10.31,2.041,22.458,10.053,24.853c4.429,1.322,11.226-0.114,13.595-2.962
		c0.967-1.182,2.103-4.207,2.378-6.816c0.914-8.748-1.393-19.574-2.378-28.109c-0.56-5.12-0.674-9.167-2.067-13.018
		c-2.36-6.452-6.051-9.93-13.887-8.855C469.678,570.019,466.342,570.941,464.798,573.194 M480.167,553.958
		c10.106-0.623,19.734,0.842,24.562,6.521c3.266,3.852,4.942,9.938,6.522,15.377c2.979,10.426,5.634,24.003,5.013,38.475
		c-0.426,10.24-2.165,17.713-7.667,22.183c-5.607,4.589-15.111,6.319-24.579,7.721c-8.039,1.127-21.678,2.085-28.98-1.18
		c-7.294-3.354-10.24-11.11-12.733-20.463c-3.008-11.33-5.013-22.529-4.712-37.879c0.355-19.159,7.657-25.271,24.562-28.652
		C468.08,554.845,474.142,554.365,480.167,553.958"/>
	<path clip-path="url(#SVGID_2_)" fill="#192c3b" d="M385.514,650.136h-2.387c-14.072-0.506-25.173-3.106-30.737-11.57
		c-5.173-7.792-5.147-22.361-4.738-34.003c0.567-16.948,2.182-33.187,12.13-39.913c13.558-9.309,44.429-4.577,59.158,0.896
		c-0.23,8.261,0.381,17.312-0.284,25.138c-6.744,0.48-15.475,0.48-22.184,0c-1.073-5.971-0.213-11.162-3.869-13.612
		c-5.661-3.877-13.957-0.292-15.972,3.239c-2.165,3.852-2.645,14.047-2.645,23.08c0,9.628-0.745,19.201,1.438,24.534
		c1.224,2.911,3.656,5.492,6.237,6.239c3.47,1.037,9.593,0.229,11.837-2.654c2.53-3.354,1.305-9.254,2.37-14.533
		c7.143-0.701,15.51-0.142,22.45,0.311c-0.071,7.595,0.337,18.242-0.267,26.317C409.162,647.749,397.822,649.435,385.514,650.136"/>
	<path clip-path="url(#SVGID_2_)" fill="#192c3b" d="M129.323,535.029c-4.743,8.129-10.803,16-16.603,23.96
		c-5.741,7.869-11.793,15.634-17.725,23.053c-4.37-1.305-8.279-3.71-12.441-5.601c-4.108-1.818-8.66-3.176-12.13-5.899
		c4.424-18.812,8.443-41.307,12.432-62.682c0.59-3.267,1.734-6.603,0.87-9.193c-0.798-2.448-3.061-2.857-5.005-4.446
		c1.509-4.551,3.522-8.491,5.612-12.422c6.163,1.97,11.779,4.995,17.432,7.657c5.714,2.637,11.482,4.917,16.873,8.014
		c-1.354,4.711-3.616,8.571-5.617,12.725c-5.905-3.967-7.933,1.925-9.167,7.099c-2.373,9.937-4.6,22.379-7.378,30.169
		c1.735-1.34,2.489-3.63,3.834-5.608c6.397-9.556,13.856-18.448,21.288-28.094c1.299-1.658,2.52-3.699,4.152-5.899
		c1.083-1.518,3.633-4.916,4.725-5.076c1.384-0.204,4.716,2.066,5.915,2.68c5.944,2.76,12.231,4.96,17.165,8.296
		c-4.179,18.696-7.223,38.492-13.021,55.575c2.157-2.05,3.589-5.271,5.635-8.235c3.801-5.563,7.715-10.452,12.125-16.593
		c1.739-2.404,5.466-6.264,5.324-8.891c-0.16-2.574-3.035-2.973-4.437-4.42c1.97-4.16,3.638-8.589,5.928-12.423
		c11.517,5.014,22.919,10.195,34.002,15.681c-0.036,2.164-1.331,4.303-2.36,6.494c-0.977,2.13-2.059,4.189-2.946,6.176
		c-1.704,0.116-3.727-1.569-5.643-1.411c-2.432,0.143-5.165,3.755-7.099,6.203c-5.822,7.355-11.837,14.711-17.446,21.58
		c-8.43,10.338-15.599,20.64-22.783,29.574c-8.704-3.3-16.717-7.312-24.85-11.251C120.027,572.521,124.615,553.709,129.323,535.029"
		/>
</g>
</svg>
