<?xml version="1.0" standalone="no"?><!-- Generator: Gravit.io --><svg xmlns="http://www.w3.org/2000/svg" xmlns:xlink="http://www.w3.org/1999/xlink" style="isolation:isolate" viewBox="0 0 366.236 162.992" width="366.236" height="162.992"><defs><clipPath id="_clipPath_5evdTlljw6wH5yr0RdwDLSXUAwMO4chS"><rect width="366.236" height="162.992"/></clipPath></defs><g clip-path="url(#_clipPath_5evdTlljw6wH5yr0RdwDLSXUAwMO4chS)"><path d=" M 0 162.992 L 366.236 162.992 L 366.236 0 L 0 0 L 0 162.992 Z " fill="rgb(236,49,90)"/><clipPath id="_clipPath_fk6U20P5ez6VOa0CYOxJQaShCZcKY0m1"><path d=" M 0 162.992 L 366.236 162.992 L 366.236 0 L 0 0 L 0 162.992 Z " fill="rgb(236,49,90)"/></clipPath><g clip-path="url(#_clipPath_fk6U20P5ez6VOa0CYOxJQaShCZcKY0m1)"><path d=" M 321.532 47.903 C 322.004 47.412 324.238 45.574 324.935 45.083 C 327.067 43.609 327.539 43.609 326.473 46.814 C 326.473 47.412 326.001 49.74 325.406 50.36 C 323.643 52.581 320.815 50.36 321.532 47.903 Z  M 303.264 32.437 C 304.925 31.838 311.157 27.545 308.329 32.437 L 306.564 36.132 C 304.453 37.713 301.378 34.294 303.264 32.437 Z  M 286.062 47.412 C 289.486 40.789 295.145 37.713 299.143 37.713 C 302.095 37.713 305.971 40.789 305.971 43.609 C 306.564 47.412 305.971 53.799 304.453 55.017 C 302.444 55.017 296.785 64.608 294.674 64.608 C 291.722 64.608 287.846 64.608 287.129 61.169 C 287.846 57.964 287.129 55.017 286.431 52.581 C 286.062 49.74 285.366 49.74 286.062 47.412 Z  M 276.775 42.391 C 277.595 40.789 278.661 40.17 280.896 39.679 C 283.951 38.332 283.951 38.824 281.942 41.281 C 281.47 42.391 280.896 44.229 279.234 45.083 C 276.775 46.322 275.708 44.229 276.775 42.391 Z  M 259.799 53.799 C 261.582 50.979 268.287 47.903 269.926 47.903 C 273.002 49.013 274.643 49.013 277.595 49.013 L 278.661 49.013 C 279.706 50.979 281.47 53.799 280.896 56.875 C 280.301 61.66 275.237 67.662 272.408 68.774 C 270.767 69.884 264.863 71.102 262.157 69.884 C 258.158 68.154 257.564 57.964 259.799 53.799 Z  M 298.548 121.175 C 295.739 124.123 287.846 128.779 283.131 125.212 C 278.661 121.794 276.303 116.261 276.303 115.044 L 275.708 115.044 C 275.237 115.044 269.578 113.933 267.22 112.096 C 265.457 110.494 262.157 104.363 260.988 103.123 L 260.988 102.632 C 259.225 102.632 258.158 103.743 255.677 102.632 C 251.802 101.415 248.378 96.63 248.378 92.956 C 248.378 87.679 254.038 79.455 259.225 78.343 C 263.222 76.506 270.767 75.888 270.767 75.888 C 275.237 72.448 281.942 71.102 281.942 71.102 C 281.942 71.102 287.846 68.774 290.552 69.265 C 295.145 70.375 295.145 76.998 296.785 78.343 C 299.143 79.455 303.264 81.292 302.095 87.679 C 299.143 98.339 302.095 102.632 303.736 108.529 C 303.264 112.715 302.095 115.643 298.548 121.175 Z  M 303.736 68.774 C 304.453 65.698 305.499 61.66 307.754 59.075 C 311.753 54.419 314.581 53.307 316.693 53.307 C 319.769 54.419 322.004 55.017 323.643 55.017 C 324.238 55.017 324.935 55.017 324.935 55.636 C 325.406 57.964 325.406 64.608 324.238 66.936 C 323.049 69.884 320.343 73.922 317.411 75.888 C 311.157 79.455 303.264 77.853 303.736 68.774 Z  M 320.343 101.907 C 317.883 103.743 317.883 106.328 313.29 107.417 C 308.329 108.529 305.499 101.907 305.499 99.215 C 305.499 95.519 307.036 93.81 309.518 90.606 C 311.157 88.406 311.157 83.62 314.581 82.403 C 322.578 79.455 324.935 87.679 325.406 92.956 C 324.238 97.25 322.578 100.305 320.343 101.907 Z  M 327.067 81.292 C 324.935 83.001 322.004 80.053 324.238 77.853 C 325.406 76.998 326.473 76.506 327.539 74.776 C 328.708 72.448 329.528 73.558 329.528 75.161 C 329.528 77.853 328.708 79.455 327.067 81.292 Z " fill="rgb(254,254,254)"/><path d=" M 49.943 100.923 C 49.943 109.796 51.84 116.107 55.637 119.857 C 59.431 123.608 65.262 125.482 73.13 125.482 C 75.415 125.482 77.816 125.321 80.333 125.002 C 82.847 124.68 85.431 124.11 88.085 123.287 L 85.341 109.155 C 84.059 109.522 82.755 109.772 81.43 109.91 C 80.103 110.047 78.8 110.115 77.52 110.115 C 75.051 110.115 73.038 109.453 71.483 108.126 C 69.927 106.801 69.151 104.263 69.151 100.511 L 69.151 67.446 L 85.615 67.446 L 85.615 52.491 L 69.151 52.491 L 69.151 33.421 L 49.943 33.421 L 49.943 52.491 L 38.693 52.491 L 38.693 67.446 L 49.943 67.446 L 49.943 100.923 Z  M 140.495 124.11 L 158.605 124.11 L 158.605 78.834 C 158.605 74.443 158.078 70.488 157.027 66.966 C 155.975 63.446 154.283 60.449 151.951 57.979 C 149.618 55.51 146.531 53.613 142.69 52.286 C 138.848 50.961 134.183 50.296 128.695 50.296 C 119.73 50.296 112.596 51.966 107.292 55.304 C 101.987 58.644 98.694 64.063 97.414 71.562 L 114.975 73.209 C 116.073 67.446 120.416 64.565 128.009 64.565 C 131.302 64.565 134.16 65.388 136.584 67.035 C 139.007 68.681 140.22 71.699 140.22 76.09 L 140.22 79.657 L 131.028 80.069 C 126.453 80.253 121.949 80.71 117.514 81.441 C 113.076 82.174 109.076 83.409 105.509 85.145 C 101.941 86.884 99.06 89.308 96.865 92.417 C 94.67 95.527 93.572 99.551 93.572 104.49 C 93.572 108.242 94.211 111.466 95.493 114.163 C 96.773 116.862 98.488 119.081 100.638 120.817 C 102.786 122.556 105.303 123.835 108.184 124.659 C 111.065 125.482 114.105 125.893 117.308 125.893 C 122.886 125.893 127.437 124.886 130.959 122.875 C 134.479 120.864 137.658 118.257 140.495 115.055 L 140.495 124.11 Z  M 140.083 95.847 C 140.083 98.775 139.534 101.221 138.437 103.187 C 137.339 105.155 135.92 106.778 134.183 108.057 C 131.073 110.345 127.049 111.487 122.11 111.487 C 119.182 111.487 116.896 110.801 115.25 109.429 C 113.603 108.057 112.78 106.184 112.78 103.804 C 112.78 102.25 113.008 100.833 113.466 99.551 C 113.923 98.271 114.815 97.15 116.142 96.19 C 117.467 95.229 119.366 94.43 121.835 93.789 C 124.305 93.15 127.551 92.738 131.577 92.554 L 140.083 92.142 L 140.083 95.847 Z  M 169.191 124.11 L 228.324 124.11 L 230.107 109.155 L 193.749 109.155 L 228.461 65.525 L 228.461 52.491 L 169.877 52.491 L 169.877 67.446 L 204.039 67.446 L 169.191 111.076 L 169.191 124.11 Z " fill="rgb(254,254,254)"/></g></g></svg>