<?xml version="1.0" encoding="UTF-8"?>
<!-- Generator: Adobe Illustrator 16.0.0, SVG Export Plug-In . SVG Version: 6.00 Build 0)  -->
<!DOCTYPE svg PUBLIC "-//W3C//DTD SVG 1.1//EN" "http://www.w3.org/Graphics/SVG/1.1/DTD/svg11.dtd">
<svg version="1.1" id="Ebene_1" xmlns="http://www.w3.org/2000/svg" xmlns:xlink="http://www.w3.org/1999/xlink" x="0px" y="0px" width="575px" height="532px" viewBox="0 0 575 532" enable-background="new 0 0 575 532" xml:space="preserve">
<g>
	<g>
		<defs>
			<rect id="SVGID_1_" width="574.129" height="531.168"/>
		</defs>
		<clipPath id="SVGID_2_">
			<use xlink:href="#SVGID_1_" overflow="visible"/>
		</clipPath>
		<path clip-path="url(#SVGID_2_)" fill="#182C3A" d="M155.713,107.794c-1.474,6.91-3.202,13.853-5.186,20.831    c-2.434,9.467-8.611,28.777-18.532,57.933c-2.688,8.153-6.371,21.867-11.043,41.144c-3.713,6.218-5.568,10.226-5.568,12.022    c0,3.8,2.463,6.702,7.393,8.705c0-0.207,0.128-0.311,0.384-0.311h1.441c1.472,1.244,2.847,1.901,4.129,1.969    c0.639,0,1.728-0.552,3.265-1.658c0.512,0.277,0.896,0.415,1.152,0.415c1.215,0,3.808-1.589,7.778-4.768    c3.199-1.036,4.801-2.106,4.801-3.213c0.895-0.689,6.081-3.212,15.555-7.565c3.201-2.832,10.467-6.425,21.797-10.778    c0-0.483-0.225-0.76-0.672-0.829h-2.208l-0.769,0.414l-0.384-0.829l3.744-3.523v-0.415c-1.984,0.761-3.104,1.14-3.36,1.14    l-0.769-0.415c1.729-1.658,2.594-2.555,2.594-2.694l-2.594,0.311h-0.672c0-1.726,0.96-3.696,2.881-5.908    c-18.885,5.804-32.327,9.639-40.33,11.504c0-0.275-0.129-0.414-0.384-0.414c0.255-0.76,0.513-1.14,0.77-1.14    c1.728-8.222,2.976-13.3,3.744-15.235c0-0.415-0.257-0.656-0.769-0.725l1.057-2.073l-0.673-1.14v-0.415    c1.473-2.417,2.209-3.765,2.209-4.042l-0.768-2.798v-0.311h1.824c0.512,0,0.768-0.275,0.768-0.829v-0.829    c0-0.414-0.256-0.69-0.768-0.829l1.151-1.554v-0.415h-0.384v-2.798l-0.384-0.726c1.28-1.451,1.921-3.073,1.921-4.871    c2.496-2.14,3.841-4.249,4.033-6.321c-0.449,0-0.706-0.276-0.77-0.83v-1.658c0.577,0,1.088-0.103,1.537-0.311l3.649-9.638    c0-0.552-0.354-0.829-1.058-0.829v-0.725c0-0.69,0.352-1.9,1.058-3.628c1.728-2.832,2.847-6.045,3.359-9.638    c3.713-11.952,6.051-18.585,7.011-19.898c1.151-6.426,2.4-9.638,3.745-9.638v-0.829c-1.025-0.83-1.763-2.799-2.209-5.908    c-4.098-3.523-7.555-5.285-10.37-5.285C158.177,104.996,156.801,105.929,155.713,107.794"/>
		<path clip-path="url(#SVGID_2_)" fill="#182C3A" d="M223.549,223.208l-0.731,1.044l-1.045,0.064l0.731-1.043L223.549,223.208z     M246.974,194.463l0.235,0.734l-0.967,0.31l-0.235-0.735L246.974,194.463z M250.565,231.896c-0.117-0.367-0.968-0.744-0.736-1.134    l0.267-0.334l-0.157-0.49c-2.454-10.995-3.184-17.574-2.188-19.737l-0.765-2.386c-0.247-0.774-0.228-1.815,0.065-3.123    c-0.427-0.223-0.665-0.416-0.718-0.58l0.482-0.155l1.577-6.305l-0.733-1.047c0.354-0.832,0.692-1.3,1.015-1.404    c0.187-1.633,0.666-2.911,1.437-3.832l-1.436-1.159c-0.055-1.556,0.32-2.464,1.126-2.722l-0.5-0.312l-0.156-0.489    c1.644-1.245,2.394-2.092,2.249-2.542c1.66-3.408,2.479-5.154,2.452-5.236c0.594-0.077,0.594-1.357,1.873-1.357    c1.28-2.559,1.158-2.121,1.406-4.674c-6.717-3.785-12.611-4.867-17.685-3.243l-1.812,0.58c-1.37,0.439-3.06,1.677-5.07,3.714    c0,0,0.486-1.896-0.66,2.562c-0.757,5.684-9.259,20.727-25.505,45.127c-4.975,7.484-9.416,13.02-13.327,16.61    c-0.052-0.163-0.24-0.193-0.562-0.09c-0.613-1.917-1.019-6.509-1.213-13.776c-0.261-0.816,0.66-4.866,2.769-12.151    c-0.118-0.367-0.385-0.641-0.797-0.824c0.21-1.281,0.679-2.039,1.404-2.271c-0.118-0.367-0.384-0.641-0.797-0.824    c0.193-0.781,1.052-1.843,2.576-3.185l-0.078-0.245l-0.62-0.274c1.427-1.086,2.102-1.752,2.023-1.997    c-0.322,0.104-0.77-0.18-1.339-0.853c1.13-2.294,1.937-3.52,2.42-3.675c-0.118-0.367-0.385-0.641-0.797-0.824    c-0.039-0.122,1.06-0.99,3.294-2.606l-0.45-1.407c0.725-0.232,1.665-1.589,2.824-4.074l-0.519-0.373l-0.216-0.673    c1.156-2.484,1.936-7.582,9.589-15.293l-0.216-0.673c-0.967,0.31-1.502,0.302-1.606-0.025l-0.078-0.245l0.731-1.043l-0.078-0.245    c-5.622-3.417-11.09-4.275-16.405-2.573c-2.284,0.911-3.917,1.771-4.9,2.58c-15.991,32.939-23.607,55.529-17.929,73.272    c1.828,5.711,5.759,8.837,11.791,9.378c0.549,1.713,6.615,1.255,18.204-1.375c0.539-0.532,1.734-1.095,3.588-1.688    c0.082-1.959,0.888-3.185,2.419-3.675c1.577-3.112,2.903-4.931,3.98-5.456c1.998-2.078,4.988-6.183,8.974-12.316l-0.675-0.863    c0.372-1.333,0.8-2.077,1.283-2.231l0.482-0.155l0.157,0.489l-0.327,0.644c0.696-0.042,1.205-0.115,1.528-0.219l0.261,2.48    l1.371,4.283l0.458-0.198l-0.301,0.687c2.585,8.076,7.864,18.282,17.65,19.736"/>
		<path clip-path="url(#SVGID_2_)" fill="#182C3A" d="M413.039,167.943c-1.788,11.738-2.689,30.206-5.531,35.957    c-4.162,15.947-3.803,15.953-6.013,19.698c-4.053,7.266-5.671,13.208-4.855,17.827l0.139,0.788    c2.38,4.668,4.009,6.926,4.886,6.771c0.353,1.995,1.231,3.161,6.608,3.404l0.357-0.062c0.875-0.154,1.739-0.605,2.593-1.35    l2.723,0.088l1.28-1.119l0.477-0.084l0.892,0.167c1.232-1.841,1.744-3.366,1.531-4.573c1.936-8.569,3.747-21.918,11.512-32.328    c6.989-7.349,10.511-8.3,10.391-8.983c1.774-0.638,2.905-1.432,3.395-2.385c-0.306-1.733,10.698-7.398,14.976-9.668l0.932,0.404    c5.791-3.457,14.28-5.414,15.554-5.639l1.313-0.231c4.297-0.758,7.672-0.919,10.129-0.487c0.436-0.78,2.504-2.309,6.206-4.586    l-0.083-0.473c-1.323-0.524-2.592-1.437-3.806-2.739l-1.16,1.098c-0.716,0.126-1.402-0.971-2.059-3.292    c-0.026-0.157,0.019-1.058,0.14-2.704c-0.604-0.163-1.104-0.211-1.502-0.141c-0.416-2.362-6.314-4.164-17.69-5.407    c-5.57,0.983-23.31,8.664-31.166,13.892c-0.558,0.098-0.882-0.115-0.975-0.64c-0.269-1.522,0.147-2.651,1.249-3.387l-0.958-1.942    l-0.098-0.552l1.071-2.3c-0.815-1.371-1.298-2.477-1.446-3.318l-0.03-2.268c-4.304-5.79-9.041-8.231-14.213-7.319    C416.732,162.172,412.493,164.846,413.039,167.943"/>
		<path clip-path="url(#SVGID_2_)" fill="#182C3A" d="M288.375,210.724c-0.489-3.143,2.34-23.383,8.528-31.798l0.45-0.089    l0.13,0.832l0.563-0.113l1.22-1.101c-0.059-0.369-0.276-0.77-0.652-1.204l1.076-2.025l0.025-0.009l0.338-0.067    c-2.321-0.998-1.097-1.651-1.145-1.96l-0.145-0.925c-0.145-0.924-0.157-2.985-0.036-6.187c-0.654-4.189-4.398-6.874-11.231-8.053    l-5.744,2.575c-0.947,0.38-3.292,5.422-7.036,15.127l-10.057,32.216c-4.905,23.088-7.099,36.296-6.58,39.623l0.58,0.742    c1.787,1.55,2.717,2.541,2.783,2.971c2.037,0.675,3.11,1.35,3.215,2.028c1.5-0.299,2.984,0.295,4.453,1.78    c0.975-0.194,1.396-0.722,1.261-1.585l1.351-0.27c0.134,0.864,0.5,1.235,1.101,1.115c0.9-0.18,2.071-0.857,3.511-2.034    c1.198-0.239,1.935,0.504,2.203,2.229l0.9-0.18c1.319-3.439,2.87-6.385,4.653-8.838c3.151-1.483,2.312-1.061,6.551-6.609"/>
		<path clip-path="url(#SVGID_2_)" fill="#182C3A" d="M289.732,240.035c13.596-15.377,17.351-20.116,23.342-30.016    c1.165-4.107,0.456-1.516,1.362-1.696c1.31-4.772,2.724-5.453,3.962-7.098l1.618-2.886c0.116,0.739-7.847,25.199-3.391,39.848    c0.125,0.802,1.114,2.956,2.969,6.461c0.362-0.073,1.506,1.479,3.434,4.652l0.577-0.496c-0.058-0.37-0.247-0.776-0.565-1.222    c0.107-0.91,0.312-1.396,0.614-1.457c0.344-4.579,1.21-7.007,2.6-7.285c0.412,1.443,0.89,2.11,1.434,2.002    c0.571,1.666,1.943,2.281,4.117,1.847l0.017-2.29c-0.077-0.493-0.387-0.686-0.931-0.577l-0.271,0.054    c0.097,0.617,0.061,1.196-0.103,1.736l-0.797-0.318c0.237-0.872,0.367-1.629,0.393-2.27l-0.461-2.958    c0.68-2.423,7.251-2.969,7.446-6.121c1.289-11.693,1.257-15.789,2.266-20.502c0.776-7.398,0.374-18.935,2.276-21.92    c-0.423,0.084,0.095-0.145-0.052-0.687l-0.343-0.459h0.33c0.077,0.494-0.231-1.406,0.349-0.887    c0.422-0.084,0.642-0.966,0.656-4.464c-0.375-2.403,2.165-12.415-0.951-16.433c-2.502-2.868-1.694-2.182-6.798-2.562    c-3.141,0.626-14.729,11.532-22.661,20.502c-7.932,8.97-22.587,30.513-23.795,30.754 M332.029,247.124l1.177-0.235    c-0.057-0.37-0.004-0.824,0.161-1.366l-0.361,0.072C332.297,246.245,331.972,246.754,332.029,247.124 M326.006,242.035    c0.086,0.555,0.369,0.784,0.854,0.687l0.363-0.072l-0.261-1.664l-0.361,0.073L326.006,242.035z"/>
		<path clip-path="url(#SVGID_2_)" fill="#182C3A" d="M360.529,211.505c1.343-3.974,0.524-1.467,1.568-1.641    c1.511-4.618,3.14-5.277,4.567-6.869l1.863-2.794c0.134,0.716-9.042,24.388-3.906,38.565c0.144,0.776,1.284,2.861,3.421,6.253    c0.418-0.07,1.735,1.431,3.957,4.502l0.665-0.48c-0.067-0.358-0.284-0.751-0.65-1.183c0.122-0.881,0.357-1.351,0.707-1.409    c0.396-4.432,1.395-6.782,2.996-7.051c0.474,1.397,1.025,2.042,1.651,1.937c0.657,1.612,2.239,2.208,4.744,1.788l0.02-2.216    c-0.088-0.477-0.446-0.664-1.072-0.559l-0.312,0.053c0.109,0.597,0.069,1.157-0.119,1.68l-0.918-0.308    c0.273-0.844,0.423-1.577,0.453-2.197l-0.531-2.862c0.783-2.345,8.355-2.874,8.58-5.924c1.486-11.317,1.449-15.281,2.612-19.842    c0.894-7.16,0.431-18.325,2.623-21.214c-0.488,0.082,0.108-0.14-0.061-0.665l-0.394-0.444h0.38c0.089,0.478-0.268-1.36,0.4-0.858    c0.486-0.082,0.74-0.936,0.758-4.321c-0.433-2.326,2.494-12.015-1.097-15.903c-2.883-2.775-1.954-2.112-7.834-2.48    c-3.62,0.606-13.479,14.657-22.62,23.337 M382.373,247.415l1.356-0.227c-0.066-0.358-0.005-0.798,0.186-1.323l-0.418,0.07    C382.681,246.565,382.306,247.057,382.373,247.415 M375.431,242.49c0.101,0.537,0.427,0.759,0.984,0.665l0.418-0.07l-0.299-1.61    l-0.417,0.07L375.431,242.49z M362.186,196.655c0.1,0.537-0.164,0.858-0.79,0.963l-0.313,0.052l-0.149-0.805L362.186,196.655z     M371.462,192.33l0.418-0.07l0.231,1.252c-1.68,4.095-6.75,6.148-11.509,11.433C360.249,203.037,365.101,200.589,371.462,192.33"/>
		<path clip-path="url(#SVGID_2_)" fill="#182C3A" d="M383.515,223.201l-1.828-0.291l0.233-1.327l0.574-0.749l0.896,0.562    l0.43,0.069c0.573,0.091,0.908-0.135,1.004-0.68l-0.268-0.988l-1.452,0.714l-0.538-0.085l0.234-1.328    c0.275-1.565,1.063-2.49,2.367-2.773c0.097-0.544-0.285-0.886-1.146-1.022l0.808-2.077l0.431,0.069    c-0.252,1.43,0.876,2.344,3.386,2.743l0.97-2.996l0.09-0.51l-0.968-0.154l-1.058,0.357l0.252-1.43    c2.043-1.145-20.146,5.582-19.989,6.796c-0.803,2.463-1.359,4.579-1.671,6.349l-0.45,2.553l-0.844,2.281    c0.286,0.045,0.151,2.684-0.4,7.915c0.506,10.508,4.486,16.356,11.943,17.541c0.621-0.182,1.255-0.221,1.899-0.118l1.828,0.29    l1.361,1.057l1.183,0.188l0.234-1.328c0.716,0.114,1.296,0.38,1.738,0.801c2.236-2.654,3.604-3.941,4.106-3.861    c1.484-3.823,0.699-6.341,3.198-7.555l-0.268-0.987l0.103-7.477c-2.447-7.441-3.753-10.956-3.753-10.956"/>
		<path clip-path="url(#SVGID_2_)" fill="#182C3A" d="M388.667,204.442c0.11-1.748,0.223-3.846,0.335-6.293    c0-1.398,0.335-3.523,1.005-6.38c0.67-2.855,1.367-5.681,2.094-8.478c0.727-2.797,1.425-5.272,2.096-7.429    c0.67-2.155,1.005-3.292,1.005-3.409c0-3.029-0.783-5.214-2.346-6.555c-1.565-1.339-3.631-2.011-6.198-2.011    c-2.347,0-7.317,4.371-14.911,13.111c-4.803,5.479-11.617,14.159-20.439,26.046l-14.071,18.878    c1.34-7.691,2.345-13.547,3.015-17.567c0.67-4.021-23.009,5.741-23.454,8.652c-0.67,3.382-1.341,6.905-2.011,10.576    c-0.67,3.671-1.285,7.372-1.843,11.1c-0.112,0.934-0.335,2.185-0.671,3.758c-0.335,1.574-0.586,3.207-0.754,4.895    c-0.167,1.691-0.167,3.381,0,5.069c0.168,1.691,0.697,3.177,1.593,4.458c1.784,2.797,4.522,4.195,8.209,4.195    c2.681,0,6.086-1.428,10.219-4.283c4.131-2.854,8.655-7.137,13.571-12.848c3.237-3.611,6.392-7.369,9.465-11.275    c3.07-3.903,6.17-7.778,9.298-11.624v4.545"/>
		<path clip-path="url(#SVGID_2_)" fill="#182C3A" d="M223.203,223.932c0.555,3.113,1.36,6.531,2.417,10.253    c1.055,3.725,2.501,7.197,4.335,10.42c1.834,3.225,4.139,5.918,6.919,8.085c2.777,2.168,6.111,3.251,10.003,3.251    c1.222,0,2.584-0.474,4.084-1.417c1.501-0.943,2.918-2.084,4.251-3.417c1.334-1.334,2.444-2.751,3.335-4.252    c0.889-1.5,1.333-2.805,1.333-3.917c-1.667-2.001-4.841-2.803-6.509-4.861c-1.667-2.055-3.466-7.839-4.066-10.28    c-1.446-2.168-1.706-1.724-2.595-4.115c-0.891-2.389-1.334-4.918-1.334-7.586"/>
		<path clip-path="url(#SVGID_2_)" fill="#182C3A" d="M238.172,129.232c1.903-1.508,3.498-2.933,4.786-4.27    c1.286-1.334,1.986-2.467,2.099-3.398c0-0.929-0.252-1.975-0.756-3.137c-0.503-1.161-1.12-2.266-1.847-3.312 M272.846,60.912    c-1.064-1.974-2.661-2.962-4.786-2.962c-4.479,0-9.293,5.751-14.44,17.254c-1.344,3.023-2.939,7.088-4.786,12.2    c-1.847,5.114-3.555,10.37-5.122,15.773c-1.569,5.402-2.912,10.544-4.03,15.424c-1.12,4.88-1.679,8.54-1.679,10.98    c0,4.183,0.53,7.785,1.595,10.805c1.063,3.023,3.385,4.532,6.969,4.532c6.94,0,12.595-5.112,16.961-15.337    c1.679-3.949,2.519-6.972,2.519-9.063c0-0.463-0.142-1.22-0.42-2.266c-0.281-1.045-0.616-2.235-1.007-3.573    c-0.395-1.334-0.73-2.641-1.008-3.921c-0.281-1.277-0.421-2.44-0.421-3.486c0-3.02,0.812-6.331,2.436-9.934    c1.622-3.6,2.713-6.1,3.275-7.494c3.693-10.689,5.54-17.835,5.54-21.437C274.44,65.387,273.908,62.89,272.846,60.912     M146.571,70.062c0.949-1.8,1.931-3.63,2.938-5.49c1.008-1.857,1.986-3.6,2.939-5.228c0.948-1.626,1.649-2.846,2.099-3.66    c0.335,1.046,0.559,2.353,0.671,3.921c0.111,1.569,0.223,3.137,0.336,4.706c0.11,1.569,0.194,3.023,0.252,4.357    c0.056,1.337,0.14,2.353,0.252,3.05c-2.24,0.466-4.449,0.902-6.633,1.307c-2.183,0.409-3.836,0.844-4.954,1.307    C144.918,73.287,145.619,71.865,146.571,70.062 M196.696,66.141c-2.241-1.046-5.264-1.569-9.068-1.569    c-3.248,0-6.381,0.349-9.403,1.046c0.335-1.394,0.503-3.311,0.503-5.751c0-1.743-0.225-4.183-0.671-7.32    c-0.449-3.137-0.672-5.752-0.672-7.843V38.43c0-5.692-0.617-10.253-1.847-13.682c-1.233-3.426-4.366-5.141-9.404-5.141    c-3.807,0-7.782,2.674-11.922,8.017c-5.71,7.206-15.785,23.18-30.226,47.928c-5.6,9.646-10.524,18.36-14.777,26.143    c-4.256,7.786-7.837,14.64-10.747,20.566c-1.121,2.208-2.241,4.504-3.359,6.884c-1.12,2.383-2.239,4.91-3.357,7.581    c0,1.629,1.343,3.66,4.03,6.1c0.895,0.698,2.237,1.743,4.029,3.138c3.917,0,7.276-1.975,10.075-5.926    c0.447-0.58,1.315-2.032,2.603-4.357c1.286-2.323,2.994-5.517,5.122-9.586c2.016-3.717,5.373-8.888,10.075-15.511    c1.902-2.672,3.385-4.706,4.45-6.1c1.063-1.395,2.041-2.497,2.939-3.312c0.894-0.811,1.847-1.451,2.854-1.917    c1.008-0.463,2.461-1.16,4.366-2.091c0.782-0.349,2.294-0.986,4.534-1.917c2.237-0.929,5.206-2.149,8.899-3.66    c0,2.325-0.226,5.925-0.672,10.805c-0.448,4.88-0.952,9.733-1.511,14.553c-0.562,4.823-1.065,9.006-1.511,12.549    c-0.449,3.545-0.673,5.141-0.673,4.793c0,4.531,0.589,8.104,1.764,10.718c1.176,2.614,3.778,3.921,7.809,3.921    c7.163,0,13.266-4.705,18.303-14.117c3.806-7.085,5.709-12.897,5.709-17.428c0-2.323-0.729-4.502-2.183-6.536    c-1.456-2.031-3.08-3.921-4.869-5.664l0.504-17.603c1.117-0.463,2.796-0.929,5.037-1.394c2.238-0.463,4.98-1.277,8.229-2.44    c2.687-0.929,4.702-2.555,6.046-4.88c1.343-2.323,2.015-4.82,2.015-7.494C199.941,68.93,198.934,67.187,196.696,66.141"/>
		<path clip-path="url(#SVGID_2_)" fill="#182C3A" d="M166.548,25.004l3.156,94.681l13.858,0.248l-1.412-1.155l-0.139-0.232    l0.337-4.472l1.174,0.613l-0.526,0.317l-2.387,2.803l-0.703,0.423l-0.14-0.232c-0.744-1.239,0.291-2.704,3.105-4.395l-0.187-0.31    c-1.054-1.754-9.268-3.779-6.496-6.077l4.361,0.931l-3.203-0.887l1.371-0.508l-4.21-0.739c-0.527-0.877,4.209,2.864,4.503,1.491    c-1.21,0.377,1.871-3.983,0.816-3.349l-0.279-0.464c0.168-1.576,0.006-2.779-0.49-3.605c2.289-3.623,3.188-5.85,2.691-6.676    l-1.163-1.936l1.23-0.739l0.419,0.696l1.407-0.845c0.703-0.423,0.998-1.127,0.885-2.113c-2.052,0.04-3.231-0.2-3.543-0.716    l-0.139-0.233c2.98-5.576,1.387-7.741,0.953-8.464l-0.467-3.122c-3.941,0.613,2.75-3.743,2.656-3.898l-0.697-1.161l0.249-0.782    c-0.353,0.211-0.621,0.162-0.808-0.148l-0.703,0.423l-1.479,1.521l-0.528,0.317l-0.744-1.238c0.337-0.765,0.741-1.289,1.211-1.571    c-0.093-0.155-0.424-0.307-0.992-0.457c-1.065-3.366-0.25-5.857,2.447-7.479c-0.795-2.12-0.949-3.573-0.464-4.358l-0.093-0.155    l-2.426,1.142l-0.419-0.697c-0.279-0.465,0.561-1.32,2.524-2.571l-0.977-1.626l-0.983-0.042c0.704-0.423,1.057-1.828,1.057-4.218    l-0.703,0.423l0.533-1.901l-0.808-0.148l-0.71-10.744l-1.309-0.584l-0.553-2.514l-1.309-0.583    c0.462-0.558,0.364-2.712-0.293-6.464l-1.023-1.703 M158.228,111.232l0.187,0.31 M177.742,105.126l0.139,0.233    c0.218,0.361-0.086,0.789-0.905,1.281l2.924,0.423l-0.466-0.774L177.742,105.126z M178.385,49.166l0.372,0.62l-1.758,1.056    l-0.373-0.619L178.385,49.166z M176.803,46.533l0.704-0.422l0.837,1.393l-1.934,1.163l-0.56-0.929    C175.695,47.48,176.013,47.079,176.803,46.533 M175.549,37.275l0.528-0.317l0.465,0.774c0.154,0.259-0.119,0.599-0.823,1.022    l-0.703,0.422l-0.372-0.619C174.457,38.247,174.759,37.821,175.549,37.275"/>
		<path clip-path="url(#SVGID_2_)" fill="#182C3A" d="M226.367,5.705c-1.473,6.91-3.202,13.853-5.185,20.831    c-2.435,9.467-8.611,28.777-18.532,57.933c-2.689,8.153-6.371,21.867-11.043,41.144c-3.713,6.218-5.569,10.226-5.569,12.022    c0,3.8,2.463,6.702,7.394,8.705c0-0.207,0.128-0.311,0.384-0.311h1.441c1.472,1.244,2.847,1.901,4.129,1.969    c0.639,0,1.728-0.552,3.265-1.658c0.511,0.277,0.895,0.415,1.152,0.415c1.215,0,3.808-1.589,7.777-4.768    c3.2-1.036,4.802-2.106,4.802-3.212c0.895-0.69,6.08-3.213,15.555-7.566c3.201-2.832,10.467-6.425,21.797-10.778    c0-0.483-0.225-0.76-0.672-0.829h-2.208l-0.77,0.414l-0.384-0.829l3.745-3.523v-0.415c-1.985,0.761-3.104,1.14-3.361,1.14    l-0.768-0.415c1.729-1.658,2.593-2.555,2.593-2.694l-2.593,0.311h-0.672c0-1.726,0.96-3.695,2.881-5.907    c-18.885,5.803-32.328,9.638-40.33,11.503c0-0.275-0.129-0.414-0.384-0.414c0.255-0.76,0.512-1.14,0.769-1.14    c1.729-8.222,2.977-13.3,3.744-15.235c0-0.414-0.256-0.656-0.768-0.725l1.057-2.073l-0.673-1.14v-0.415    c1.472-2.417,2.209-3.765,2.209-4.042l-0.768-2.798v-0.311h1.823c0.513,0,0.769-0.275,0.769-0.829v-0.829    c0-0.414-0.256-0.69-0.769-0.829l1.152-1.554v-0.415h-0.384V83.64l-0.384-0.726c1.279-1.451,1.921-3.073,1.921-4.871    c2.496-2.14,3.841-4.249,4.032-6.321c-0.448,0-0.706-0.276-0.769-0.829v-1.659c0.577,0,1.088-0.103,1.537-0.311l3.648-9.638    c0-0.552-0.353-0.829-1.057-0.829V57.73c0-0.69,0.351-1.9,1.057-3.628c1.729-2.832,2.848-6.045,3.36-9.638    c3.712-11.952,6.05-18.585,7.01-19.898c1.152-6.426,2.401-9.638,3.745-9.638V14.1c-1.024-0.83-1.762-2.799-2.209-5.908    c-4.097-3.523-7.554-5.285-10.37-5.285C228.831,2.907,227.455,3.839,226.367,5.705"/>
		<path clip-path="url(#SVGID_2_)" fill="#182C3A" d="M438.488,114.672c-3.371,1.605-7.14,2.408-7.674,2.408    c-0.75,0,0.689,1.757,0.689-0.169c0-1.819,0.266-4.147,0.803-6.984c0.534-2.834,1.229-5.912,2.087-9.231    c0.963-3.316,1.952-6.743,2.97-10.275c1.017-3.532,1.952-6.903,2.811-10.114c0.854-3.211,1.55-6.181,2.087-8.91    c0.534-2.729,0.802-5.057,0.802-6.984c0-1.068-0.376-2.087-1.123-3.05c-0.75-0.963-1.686-1.791-2.81-2.488    c-1.124-0.695-2.275-1.257-3.451-1.686c-1.179-0.426-2.248-0.642-3.211-0.642c-1.714,0-2.998,0.722-3.853,2.167    c-0.858,1.445-1.874,3.078-3.052,4.897c-0.963-1.927-17.606,51.75-13.325,48.002c-0.75,3.961-1.15,7.653-1.203,11.077    c-0.056,3.427-0.08,6.743-0.08,9.954c0,2.784,0.963,5.325,2.89,7.626c1.926,2.3,4.387,1.638,7.385,1.638    c2.89,0,9.256-3.049,19.104-7.329"/>
		<path clip-path="url(#SVGID_2_)" fill="#182C3A" d="M426.104,62.248c-2.168-3.286-5.614-5.455-10.335-6.504    c-1.471,0.281-2.554,0.42-3.251,0.42c-5.419,0-12.308,3.602-20.668,10.804c-25.16,20.91-37.738,41.014-37.738,60.315v1.049    c3.948,8.392,11.882,12.587,23.805,12.587c3.637-0.839,6.037-2.027,7.198-3.566c3.327-1.818,6.502-4.23,9.521-7.238l19.951-19.346     M384.302,103.262c0.231,0,1.586-1.678,4.063-5.035c10.062-11.188,18.385-18.252,24.966-21.189h1.276v0.315    c-0.31,1.888-2.865,6.679-7.663,14.371c-1.782,4.127-4.685,8.076-8.709,11.853v0.734c0,0.49,0.386,0.734,1.161,0.734v0.734    l-0.348,0.63c-2.401,1.4-3.601,2.622-3.601,3.671l-6.734,6.399l-0.812-0.315c0-0.278,0.154-0.419,0.464-0.419l-0.464-0.63    c-4.568,3.567-8.94,6.54-13.121,8.916h-1.162c0-0.21-0.155-0.559-0.464-1.049c0.697-2.376,1.896-5.384,3.6-9.021h-0.349    C376.405,112.424,379.036,108.857,384.302,103.262"/>
		<path clip-path="url(#SVGID_2_)" fill="#182C3A" d="M426.48,120.406l-0.209-0.419c0-0.977,0.14-1.537,0.421-1.676    c3.222-6.982,4.944-11.297,5.17-12.946l-0.419,0.209l-0.546,0.796c-0.14-0.279-0.322-0.363-0.546-0.252    c-0.193-0.391,0.296-1.299,1.471-2.723l0.251,0.503c2.292-1.143,5.587-12.024,11.645-32.22l3.275-4.565l-1.507-2.181    c-0.251-0.503-0.139-0.908,0.337-1.215l0.252-0.126l0.964,0.043c-0.14-0.279-0.071-0.488,0.21-0.628l-1.381-1.72l0.17-2.599    l-0.167-0.335c-0.728,0.363-1.329,0.977-1.804,1.842l-0.42,0.209l-1.172-2.348c-0.418-0.698-2.5-1.162-6.242-1.391l0.001-1.047    c-0.308-0.615-1.929-0.435-4.863,0.539l-1.09,0.544c-1.566,0.78-2.714,2.19-3.442,4.229c-7.684,23.52-11.732,36.034-13.914,37.121    l-1.426,0.711l-0.167-0.335"/>
		<path clip-path="url(#SVGID_2_)" fill="#182C3A" d="M437.187,132.979c4.925-3.078,9.123-6.302,12.594-9.673    c3.246-3.369,4.87-7.086,4.87-11.155c0-4.065-2.296-6.099-6.885-6.099c-0.672,0-2.771,0.871-6.297,2.614 M481.181,69.627    c0,2.208-0.84,4.531-2.519,6.971c-2.464,3.372-5.739,6.915-9.824,10.632c-4.088,3.72-8.425,6.74-13.014,9.063    c1.454-3.949,2.855-7.203,4.198-9.76c1.118-2.323,2.519-4.559,4.198-6.71c1.68-2.149,3.442-4.066,5.29-5.752    c1.847-1.683,3.665-3.05,5.456-4.096c1.79-1.045,3.359-1.568,4.702-1.568C479.893,68.407,480.396,68.815,481.181,69.627     M487.293,115.471c-5.038,1.977-15.153,6.172-19.462,7.506c-4.311,1.337-7.586,0.191-9.824,0.191c-0.896,0-1.568-1.4-2.015-2.388    c-0.449-0.986-0.729-2.005-0.84-3.05c3.246-1.858,6.576-3.748,9.992-5.665c3.413-1.917,6.743-3.861,9.991-5.838    c2.797-1.626,5.315-3.6,7.557-5.926c2.238-2.323,4.14-4.646,5.709-6.971c3.469-4.763,6.323-10.223,8.563-16.383    c2.238-6.157,3.358-12.083,3.358-17.777c0-8.48-4.591-12.723-13.769-12.723c-6.83,0-13.576,2.557-20.235,7.669    c-6.661,5.114-12.594,11.388-17.799,18.822c-5.206,7.438-9.434,15.31-12.68,23.616c-3.247,8.308-4.868,15.658-4.868,22.047    c0,2.674,0.42,5.55,1.259,8.627c0.84,3.08,2.015,5.926,3.526,8.54c1.512,2.614,3.329,4.793,5.457,6.536    c2.125,1.743,4.477,2.614,7.054,2.614c3.468,0,10.579-1.917,21.326-5.751"/>
		<path clip-path="url(#SVGID_2_)" fill="#182C3A" d="M459.571,115.172c2.64-0.524,3.889-1.261,3.747-2.211l0.854-0.127    c8.791-3.809,17.845-12.453,23.773-17.794c-0.013-0.515,2.56-2.559,7.678-12.796c-0.047-0.317,1.062-1.746,0.726-2.278    l-0.199-1.329c2.32-2.224,3.288-4.633,2.899-7.23l-0.197-1.329l0.845-0.398l0.142,0.95l0.95-0.142    c-0.114-0.76,0.281-2.016,1.185-3.769l-0.866-5.793c-0.293-1.962-0.364-2.879-0.364-2.879l-0.255-1.709    c-0.446-1.681-1.617-3.448-3.511-5.301c-0.597-3.988-7.126-2.229-18.896-2.155c-5.309,2.153,3.481,5.535,3.481,5.535l12.167,5.054    l-1.385,10.461l-8.143,18.958l-19.039,13.76l-15.08,14.598l-1.433,0.734"/>
		<path clip-path="url(#SVGID_2_)" fill="#182C3A" d="M442.307,138.289c0.756,2.02,4.063,4.048,9.923,6.084    c4.977-0.494,7.573-0.453,7.79,0.124l3.644-1.584l2.19-0.692c0.487-0.152,1.366-0.959,2.636-2.419l0.736,0.202l5.102-3.176    c0.67-0.198,1.462-0.317,2.375-0.359c0.141-0.309,1.721-1.069,4.741-2.279l1.704-0.161l0.446-1.728    c0.223-0.065,0.58-0.03,1.07,0.103l0.659-1.062l0.67-0.197l0.699,0.135c-0.108-0.288,0.663-0.773,2.312-1.456    c1.926-0.371,3.093-0.611,3.5-0.72l1.24-1.56c0.225-0.065,0.589-0.064,1.095,0.004c6.316-3.327,10.804-5.409,13.462-6.243    l2.429-0.823l-0.088-0.3c-0.119-0.4-0.413-0.555-0.884-0.468l-2.802,0.855c-0.19-0.532-0.821-0.966-1.892-1.303l-0.375-1.098    l1.432-0.794l-0.213-0.666c-1.014,0.331-1.827,0.316-2.44-0.041l-0.395,0.132l-0.637,0.963l-0.633,0.264l-0.398-0.999    c1.499-0.483,2.064-1.201,1.69-2.157l1.915-0.625l-0.088-0.3c-0.158-0.377-0.452-0.534-0.885-0.468l-2.859,0.888    c-1.541,0.506-2.482,0.448-2.827-0.175c-2.49,0.104-4.074-0.035-4.752-0.414l-2.191,0.691c-0.198,0.111-1.111,0.153-2.737,0.124    l-6.869,2.24c-1.828,0.549-3.673,1.252-5.536,2.111l-1.369,0.062c-3.061,1.232-5.959,2.288-8.696,3.165l-4.619,1.515l-1.703,0.161    l-0.125-0.366 M495.623,125.022l0.25,0.732l-0.945,0.263l-0.25-0.732L495.623,125.022z M500.199,121.18l0.162,0.433    c0.117,0.4-0.035,0.688-0.457,0.863l-0.887,0.23l-0.397-0.999L500.199,121.18z M506.147,116.576l0.796,0.169l0.67-0.197    c0.408-0.109,0.527-0.408,0.361-0.897l-0.125-0.366c-0.133-0.332-0.68-0.523-1.643-0.571L506.147,116.576z M497.196,114.917    l0.213,0.666l-0.909,0.329l-0.25-0.732L497.196,114.917z"/>
		<path clip-path="url(#SVGID_2_)" fill="#182C3A" d="M301.017,103.724c-0.509-2.883,2.428-21.455,8.85-29.175l0.467-0.083    l0.134,0.764l0.584-0.103l1.267-1.01c-0.061-0.34-0.287-0.707-0.676-1.105l1.115-1.859l0.026-0.008l0.352-0.062    c-2.409-0.915-1.139-1.514-1.188-1.798l-0.149-0.848c-0.149-0.848-0.164-2.739-0.037-5.677c-0.679-3.844-4.563-6.307-11.654-7.389    l-5.962,2.363c-0.982,0.348-3.416,4.974-7.302,13.879l-10.434,29.559c-5.091,21.184-7.366,33.303-6.828,36.356l0.603,0.681    c1.854,1.421,2.817,2.331,2.887,2.726c2.114,0.619,3.227,1.238,3.337,1.86c1.556-0.274,3.096,0.271,4.621,1.634    c1.01-0.179,1.448-0.663,1.308-1.455l1.401-0.247c0.139,0.792,0.519,1.132,1.143,1.022c0.934-0.164,2.148-0.786,3.643-1.866    c1.244-0.219,2.007,0.463,2.286,2.045l0.934-0.165c1.369-3.155,2.979-5.859,4.829-8.109c3.27-1.361,2.399-0.974,6.797-6.064"/>
		<path clip-path="url(#SVGID_2_)" fill="#182C3A" d="M302.423,130.618c14.109-14.109,18.005-18.457,24.223-27.54    c1.209-3.769,0.473-1.391,1.413-1.557c1.359-4.378,2.826-5.002,4.11-6.512l1.68-2.649c0.119,0.679-8.143,23.122-3.519,36.563    c0.13,0.735,1.157,2.712,3.08,5.927c0.376-0.066,1.563,1.358,3.564,4.269l0.598-0.455c-0.061-0.34-0.256-0.712-0.586-1.121    c0.111-0.835,0.323-1.281,0.637-1.337c0.357-4.201,1.256-6.43,2.698-6.684c0.427,1.324,0.923,1.936,1.487,1.837    c0.592,1.528,2.017,2.092,4.271,1.695l0.018-2.102c-0.079-0.452-0.401-0.629-0.966-0.529l-0.281,0.049    c0.1,0.566,0.062,1.097-0.107,1.593l-0.827-0.291c0.247-0.801,0.382-1.495,0.408-2.083l-0.479-2.714    c0.706-2.223,7.524-2.724,7.727-5.617c1.338-10.729,1.304-14.487,2.352-18.811c0.806-6.788,0.389-17.373,2.362-20.112    c-0.44,0.077,0.098-0.133-0.054-0.631l-0.355-0.42h0.342c0.08,0.453-0.24-1.29,0.361-0.814c0.438-0.078,0.666-0.887,0.682-4.097    c-0.389-2.205,2.246-11.391-0.986-15.077c-2.596-2.631-1.759-2.002-7.055-2.351c-3.259,0.574-15.284,10.581-23.515,18.811    c-8.229,8.231-23.437,27.997-24.689,28.218 M346.313,137.122l1.222-0.215c-0.06-0.339-0.004-0.756,0.167-1.254l-0.376,0.067    C346.591,136.317,346.253,136.783,346.313,137.122 M340.063,132.453c0.089,0.509,0.384,0.72,0.886,0.631l0.376-0.066l-0.269-1.527    l-0.377,0.066L340.063,132.453z M328.136,88.999c0.091,0.509-0.146,0.813-0.711,0.912l-0.281,0.05l-0.136-0.763L328.136,88.999z     M333.464,88.74l-0.226-0.281l0.209,1.187c-1.513,3.882-6.078,5.829-10.363,10.839c-0.318-1.809,4.05-4.129,9.778-11.96    L333.464,88.74z"/>
		<path clip-path="url(#SVGID_2_)" fill="#182C3A" d="M347.342,114.166l-1.646-0.275l0.211-1.259l0.517-0.71l0.807,0.533    l0.387,0.065c0.516,0.086,0.818-0.128,0.905-0.645l-0.242-0.936l-1.308,0.677l-0.484-0.081l0.211-1.259    c0.248-1.484,0.958-2.361,2.132-2.629c0.086-0.516-0.258-0.839-1.032-0.969l0.728-1.969l0.388,0.065    c-0.227,1.356,0.788,2.222,3.048,2.601l0.874-2.84l0.081-0.484l-0.872-0.146l-0.952,0.338l0.228-1.355    c1.839-1.086-18.14,5.292-17.999,6.443c-0.724,2.335-1.225,4.341-1.505,6.019l-0.405,2.421l-0.76,2.162    c0.257,0.043,0.137,2.545-0.36,7.504c0.455,9.963,4.039,15.507,10.753,16.63c0.561-0.172,1.13-0.209,1.711-0.112l1.646,0.276    l1.226,1.001l1.065,0.178l0.211-1.258c0.644,0.108,1.166,0.36,1.564,0.759c2.014-2.517,3.246-3.737,3.698-3.661    c1.336-3.624,0.629-6.011,2.879-7.162l-0.24-0.936l0.093-7.089c-2.204-7.054-3.38-10.387-3.38-10.387"/>
		<path clip-path="url(#SVGID_2_)" fill="#182C3A" d="M332.309,277.631c24.089,3.852,22.099,10.463,22.263,12.656    c0.175,3.4-0.571,8.623-11.547,14.176c-11.333,1.318-16.975-2.068-16.926-1.098l-9.405-0.9l-5.417-0.145    c-1.203-0.031-3.854-0.896-7.954-2.596l-1.427,0.615l-14.033-2.727c-1.645-0.021-3.484,0.125-5.518,0.443    c-0.588-0.414-4.73-0.916-12.434-1.506l-3.874,0.465l-2.538,2.08c-0.548-0.006-1.297,0.195-2.249,0.604l-2.402-1.348l-1.646-0.023    l-1.405,0.498c-0.023-0.484-2.15-0.902-6.375-1.26c-4.548,0.238-7.317,0.357-8.308,0.359l-4.125-1.865    c-0.548-0.006-1.345,0.148-2.389,0.461c-16.828-2.449-28.527-3.758-35.094-3.924l-6.059-0.246l-0.078-0.494    c-0.103-0.66,0.4-1.02,1.509-1.084l6.901,0.141c-0.062-0.893,0.924-1.818,2.96-2.779l-0.173-1.834l-3.85-0.617l-0.137-1.105    c2.517,0.082,4.282-0.277,5.302-1.08l0.982,0.037l2.262,1.205l1.624,0.141l-0.032-1.693c-3.717-0.111-5.602-0.975-5.647-2.588    l-4.755-0.158l-0.078-0.496c0.004-0.641,0.506-1.002,1.509-1.082l7.062,0.164c3.827,0.131,5.833-0.35,6.024-1.445    c5.541-0.881,8.882-1.752,10.021-2.613l5.416,0.143c0.536,0.086,2.57-0.23,6.103-0.951l17.051,0.559    c4.494,0.076,9.167,0.381,14.02,0.916l3.051-0.477c7.81,0.607,15.104,1.012,21.883,1.211l11.475,0.389l3.874-0.465l-0.059-0.611     M230.602,292.992l0.116,1.223l2.307,0.008L232.908,293L230.602,292.992z M217.115,289.029l0.037,0.729    c0.106,0.66,0.7,1.037,1.781,1.129l2.146-0.02l-0.033-1.691L217.115,289.029z M199.939,284.477l-1.587,0.588l-1.646-0.021    c-0.989,0.004-1.521-0.402-1.6-1.219l-0.058-0.611c-0.01-0.562,1.014-1.082,3.075-1.557L199.939,284.477z M218.021,278.213    l0.136,1.105l2.287,0.125l-0.116-1.225L218.021,278.213z"/>
		<path clip-path="url(#SVGID_2_)" fill="#182C3A" d="M229.004,296.014l46.711,2.738l28.675,0.631    c6.014,1.271,11.123,2.701,15.322,4.293c4.194,1.594,8.419,2.934,12.671,4.018c6.671,0.695,12.677-0.25,18.013-2.84    c5.334-2.59,8.21-5.854,8.628-9.791c0.672-6.35-0.402-10.73-3.221-13.143c-2.823-2.414-9.53-4.172-20.129-5.275    c-6.086-0.635-14.463-1.152-25.136-1.561c-10.673-0.406-61.798-0.762-73.498-0.826"/>
		<path clip-path="url(#SVGID_2_)" fill="#182C3A" d="M308.396,18.681c-0.003,0.559-0.098,0.976-0.285,1.253l-4.473,0.832    l-2.231,3.311l-2.651,0.618l-0.224,0.331c0.256,0.173,0.567,0.543,0.929,1.109c-0.705,1.048-2.068,1.413-4.089,1.093    c-0.062,0.921,0.1,1.512,0.483,1.771c-0.297,0.441-0.574,0.576-0.83,0.403c-2.492,2.732-4.412,3.644-5.757,2.736l-2.292,4.233    l-0.224,0.331l-1.152-0.778c-0.062,0.921,0.099,1.512,0.483,1.771c-0.999,0.931-2.139,0.964-3.421,0.099l-0.669,0.993    c-7.104,6.121-12.337,10.294-15.701,12.52l-0.768-0.519l0.669-0.993l0.731-1.915c0.513,0.346,1.79-0.718,3.828-3.195    c0.224-0.331,0.117-0.724-0.321-1.181c-0.513-0.345-0.991-0.188-1.438,0.474c-0.255-0.172-0.563-0.542-0.929-1.109    c-0.192-0.13-1.035-0.538-2.528-1.225c-0.545-0.85-0.707-1.441-0.482-1.772l0.892-1.324l1.945-2.058    c-0.255-0.173-0.31-0.371-0.161-0.591l-1.983-0.375l-0.545-0.85c1.853-1.64,3.074-2.904,3.668-3.786l0.224-0.331    c0.223-0.331,0.116-0.724-0.322-1.181l24.239-26.892C311.015-7.837,309.363,17.245,308.396,18.681 M270.655,43.173l0.384,0.259    c0.514,0.347,0.917,0.298,1.215-0.143l0.224-0.331l-1.153-0.778L270.655,43.173z"/>
	</g>
	<polygon fill="#FFD0B2" points="64.902,434.5 37.923,529.975 516.085,502.236 539.183,408.826  "/>
	
		<line fill="none" stroke="#182C3A" stroke-width="2.213" stroke-dasharray="8.268,8.268" x1="61.529" y1="446.436" x2="40.17" y2="522.018"/>
	<g>
		<defs>
			<rect id="SVGID_3_" width="574.129" height="531.168"/>
		</defs>
		<clipPath id="SVGID_4_">
			<use xlink:href="#SVGID_3_" overflow="visible"/>
		</clipPath>
		
			<line clip-path="url(#SVGID_4_)" fill="none" stroke="#182C3A" stroke-width="2.213" stroke-dasharray="8.87,8.87" x1="51.205" y1="529.203" x2="507.23" y2="502.75"/>
	</g>
	
		<line fill="none" stroke="#182C3A" stroke-width="2.213" stroke-dasharray="9.622,9.622" x1="519.55" y1="488.225" x2="536.873" y2="418.168"/>
	
		<line fill="none" stroke="#182C3A" stroke-width="2.213" stroke-dasharray="8.796,8.796" x1="526.009" y1="409.541" x2="73.686" y2="434.025"/>
	<g>
		<defs>
			<rect id="SVGID_5_" width="574.129" height="531.168"/>
		</defs>
		<clipPath id="SVGID_6_">
			<use xlink:href="#SVGID_5_" overflow="visible"/>
		</clipPath>
		<path clip-path="url(#SVGID_6_)" fill="none" stroke="#182C3A" stroke-width="2.213" d="M69.294,434.264l-4.393,0.236    l-1.124,3.979 M538.027,413.498l1.155-4.672l-4.391,0.238 M511.658,502.494l4.428-0.258l1.154-4.67 M39.047,525.996l-1.124,3.979    l4.427-0.258"/>
	</g>
	<polygon fill="#FFD0B2" points="46.079,347.879 1.775,443.352 549.528,415.615 572.626,340.395  "/>
	
		<line fill="none" stroke="#182C3A" stroke-width="2.213" stroke-dasharray="8.771,8.771" x1="40.541" y1="359.812" x2="5.467" y2="435.396"/>
	
		<line fill="none" stroke="#182C3A" stroke-width="2.213" stroke-dasharray="8.846,8.846" x1="15.027" y1="442.68" x2="540.693" y2="416.062"/>
	
		<line fill="none" stroke="#182C3A" stroke-width="2.213" stroke-dasharray="9.836,9.836" x1="553.859" y1="401.512" x2="569.739" y2="349.799"/>
	
		<line fill="none" stroke="#182C3A" stroke-width="2.213" stroke-dasharray="8.777,8.777" x1="559.462" y1="340.582" x2="54.855" y2="347.754"/>
	<g>
		<defs>
			<rect id="SVGID_7_" width="574.129" height="531.168"/>
		</defs>
		<clipPath id="SVGID_8_">
			<use xlink:href="#SVGID_7_" overflow="visible"/>
		</clipPath>
		<path clip-path="url(#SVGID_8_)" fill="none" stroke="#182C3A" stroke-width="2.213" d="M50.468,347.816l-4.389,0.062    l-1.846,3.979 M571.183,345.096l1.443-4.699l-4.388,0.061 M545.111,415.838l4.417-0.223l1.444-4.701 M3.621,439.373l-1.846,3.979    l4.417-0.225"/>
		<path clip-path="url(#SVGID_8_)" fill="none" stroke="#182C3A" stroke-width="1.898" stroke-miterlimit="9.147" d="    M83.032,386.541c0.196,0.305,0.465,0.328,0.807,0.076c2.331-1.611,4.742-3.539,7.229-5.785c0.829-0.748,1.414-1.248,1.756-1.502    l-0.292,0.484c-0.415,0.846-1.028,1.896-1.843,3.152l-2.024,3.221c-0.762,1.137-1.244,1.906-1.448,2.309    c-0.945,1.693-1.925,3.508-2.938,5.441l-2.471,4.947l-2.74,5.725l-2.302,4.998l-2.682,5.723c-1.335,2.969-2.112,4.711-2.33,5.232    c-0.201,0.363-0.124,0.604,0.23,0.723c0.354,0.117,0.614-0.023,0.78-0.424c0.307-0.604,1.122-2.35,2.448-5.238l2.557-5.658l2.36-5    c1.11-2.408,2.002-4.295,2.675-5.662l2.588-4.953l2.821-5.436c0.15-0.281,0.608-1.012,1.375-2.188l2.083-3.223    c0.823-1.336,1.463-2.428,1.916-3.273c0.604-1.129,0.9-1.967,0.891-2.514c-0.015-0.195-0.094-0.348-0.235-0.459    c-0.181-0.107-0.374-0.117-0.578-0.027c-0.122,0.045-0.229,0.129-0.322,0.252l-0.197,0.186l-0.065,0.062    c-0.597,0.424-1.507,1.195-2.73,2.316c-2.313,2.08-4.678,3.967-7.098,5.66C82.909,385.961,82.837,386.238,83.032,386.541z"/>
		<path clip-path="url(#SVGID_8_)" fill="none" stroke="#182C3A" stroke-width="1.898" stroke-miterlimit="9.147" d="    M105.268,381.586c-0.104,0.379,0.033,0.596,0.415,0.654c0.918,0.109,2.677-0.16,5.28-0.807c1.761-0.443,4.212-1.121,7.351-2.029    l6.767-2c0.961-0.244,1.697-0.402,2.211-0.469c0.277-0.053,0.495-0.084,0.651-0.092l0.177-0.01    c0.027,0.078,0.06,0.135,0.095,0.172c-0.265,0.562-0.729,1.193-1.397,1.895l-0.987,0.934l-1.002,1.051    c-3.994,4.713-6.972,8.414-8.932,11.102c-1.624,2.162-5.084,7.102-10.377,14.82c-0.659,0.938-1.598,2.416-2.815,4.438    c-1.297,2.027-2.463,3.771-3.495,5.236c-1.034,1.463-2.107,2.773-3.219,3.928c-0.272,0.328-0.278,0.611-0.018,0.854    c0.262,0.24,0.546,0.215,0.853-0.074c1.122-1.234,2.223-2.613,3.304-4.139c1.079-1.525,2.271-3.322,3.571-5.387    c1.303-2.066,2.235-3.504,2.802-4.318c5.02-7.391,8.44-12.33,10.26-14.814c1.988-2.611,4.961-6.271,8.916-10.984l0.871-0.926    l0.995-0.994c0.838-0.826,1.419-1.602,1.74-2.322c0.151-0.283,0.15-0.596-0.001-0.939c-0.093-0.191-0.228-0.361-0.403-0.51    c-0.143-0.109-0.386-0.174-0.732-0.195c-0.195,0.01-0.472,0.045-0.828,0.102c-0.552,0.068-1.348,0.229-2.387,0.479    c-0.723,0.193-2.978,0.859-6.766,2c-3.144,0.947-5.575,1.623-7.293,2.025c-2.401,0.596-4.044,0.859-4.929,0.787    C105.598,381.031,105.373,381.209,105.268,381.586z"/>
		<path clip-path="url(#SVGID_8_)" fill="none" stroke="#182C3A" stroke-width="1.898" stroke-miterlimit="9.147" d="    M131.051,413.637c-0.177,0.166-0.278,0.367-0.308,0.604c-0.062,0.512-0.073,0.904-0.027,1.176    c0.167,0.539,0.506,0.777,1.019,0.711c0.317-0.057,0.632-0.248,0.944-0.578c0.141-0.203,0.286-0.436,0.435-0.699    c0.149-0.262,0.254-0.492,0.318-0.693c0.092-0.434,0.046-0.773-0.138-1.02c-0.183-0.244-0.454-0.318-0.816-0.223    c-0.156,0.01-0.339,0.076-0.549,0.205l-0.264,0.25C131.432,413.381,131.226,413.471,131.051,413.637z"/>
		<path clip-path="url(#SVGID_8_)" fill="none" stroke="#182C3A" stroke-width="1.898" stroke-miterlimit="9.147" d="    M159.065,400.711c-0.01,0.393,0.184,0.559,0.579,0.498c3.163-0.479,7.675-0.871,13.534-1.18c0.39-0.02,0.61-0.227,0.659-0.621    c0.048-0.395-0.123-0.582-0.514-0.561c-5.898,0.309-10.448,0.705-13.651,1.186C159.276,400.094,159.074,400.318,159.065,400.711z"/>
		<path clip-path="url(#SVGID_8_)" fill="none" stroke="#182C3A" stroke-width="1.898" stroke-miterlimit="9.147" d="    M171.545,400.057c-0.01,0.393,0.183,0.559,0.579,0.498c3.163-0.479,7.675-0.871,13.534-1.178c0.39-0.021,0.609-0.229,0.658-0.623    s-0.122-0.58-0.513-0.561c-5.898,0.311-10.449,0.705-13.651,1.186C171.756,399.439,171.554,399.664,171.545,400.057z"/>
		<path clip-path="url(#SVGID_8_)" fill="none" stroke="#182C3A" stroke-width="1.898" stroke-miterlimit="9.147" d="    M216.207,379.562c0.196,0.303,0.464,0.328,0.807,0.074c2.33-1.609,4.741-3.537,7.229-5.783c0.829-0.748,1.414-1.25,1.756-1.502    l-0.292,0.484c-0.415,0.846-1.029,1.896-1.843,3.152l-2.025,3.219c-0.761,1.139-1.244,1.908-1.447,2.311    c-0.945,1.693-1.926,3.508-2.938,5.439l-2.471,4.947l-2.74,5.727l-2.302,4.996l-2.683,5.723c-1.335,2.969-2.111,4.713-2.33,5.232    c-0.2,0.363-0.123,0.605,0.231,0.725c0.354,0.117,0.614-0.023,0.78-0.424c0.307-0.604,1.122-2.35,2.447-5.24l2.558-5.656l2.359-5    c1.111-2.408,2.003-4.295,2.676-5.664l2.588-4.953l2.821-5.436c0.15-0.281,0.608-1.01,1.375-2.188l2.084-3.223    c0.822-1.336,1.462-2.426,1.914-3.273c0.604-1.127,0.901-1.965,0.892-2.514c-0.015-0.195-0.094-0.348-0.235-0.457    c-0.181-0.109-0.374-0.117-0.579-0.029c-0.122,0.047-0.229,0.129-0.321,0.252l-0.197,0.188l-0.066,0.061    c-0.596,0.426-1.506,1.197-2.729,2.318c-2.313,2.08-4.679,3.967-7.099,5.66C216.084,378.98,216.011,379.26,216.207,379.562z"/>
		<path clip-path="url(#SVGID_8_)" fill="none" stroke="#182C3A" stroke-width="1.898" stroke-miterlimit="9.147" d="    M260.169,373.791c-0.386-0.018-0.64,0.152-0.761,0.51c-0.701,2.545-2.316,5.115-4.849,7.717c-2.531,2.6-5.293,4.703-8.284,6.309    c-3.069,1.609-5.601,2.311-7.593,2.102c-2.071-0.205-3.174-1.498-3.308-3.881c-0.16-3.125,1.573-6.328,5.198-9.613    c3.237-2.99,7.008-5.244,11.309-6.762c1.947-0.689,3.671-1.062,5.173-1.123c1.501-0.059,2.584,0.207,3.249,0.799    c0.948,0.812,1.025,2.238,0.232,4.277C260.48,373.932,260.358,373.82,260.169,373.791z M252.184,385.725    c-2.932,3.326-6.981,7.555-12.151,12.682c-6.098,6.039-11.108,10.648-15.03,13.832c-0.345,0.291-0.41,0.58-0.193,0.861    c0.219,0.281,0.479,0.297,0.78,0.047c4.229-3.473,9.284-8.125,15.161-13.955c4.945-4.881,9.041-9.148,12.284-12.807    c0.678-0.779,1.719-1.988,3.124-3.629c1.412-1.719,2.333-2.883,2.757-3.494c3.583-5.162,4.339-8.629,2.267-10.4    c-1.721-1.477-4.892-1.408-9.514,0.205c-4.462,1.566-8.397,3.906-11.808,7.023c-3.976,3.615-5.87,7.201-5.686,10.756    c0.148,2.891,1.545,4.482,4.187,4.775c2.262,0.232,5.031-0.52,8.312-2.258c1.951-1.043,3.854-2.316,5.709-3.824L252.184,385.725z"/>
		<path clip-path="url(#SVGID_8_)" fill="none" stroke="#182C3A" stroke-width="1.898" stroke-miterlimit="9.147" d="    M264.05,406.666c-0.176,0.166-0.278,0.367-0.307,0.604c-0.063,0.512-0.073,0.906-0.028,1.176c0.167,0.541,0.506,0.777,1.019,0.711    c0.317-0.055,0.632-0.248,0.944-0.578c0.141-0.203,0.286-0.436,0.435-0.699c0.149-0.262,0.255-0.492,0.318-0.691    c0.092-0.436,0.046-0.775-0.137-1.021c-0.184-0.244-0.455-0.318-0.817-0.221c-0.156,0.008-0.339,0.076-0.549,0.205l-0.263,0.248    C264.431,406.41,264.225,406.5,264.05,406.666z"/>
		<path clip-path="url(#SVGID_8_)" fill="none" stroke="#182C3A" stroke-width="1.898" stroke-miterlimit="9.147" d="    M330.358,374.871c0.005-0.039,0.055-0.139,0.154-0.301l1.366-3.068c0.847-2.158,1.184-3.803,1.013-4.93    c-0.133-0.814-0.509-1.393-1.127-1.732s-1.444-0.404-2.479-0.193c-1.312,0.266-2.695,0.779-4.147,1.539    c-1.452,0.762-2.649,1.5-3.59,2.215c-0.942,0.717-2.062,1.617-3.359,2.703c-5.713,4.803-10.993,10.506-15.839,17.104    c-2.195-1.725-3.754-3.25-4.678-4.572c-0.299-0.414-0.685-0.434-1.157-0.057c-0.475,0.377-0.562,0.773-0.262,1.189    c1.025,1.436,2.708,3.07,5.044,4.906c-1.692,2.398-3.34,4.914-4.943,7.545c-1.692,2.713-3.378,6.012-5.058,9.898    c-1.088,2.525-1.756,4.498-2.009,5.922c-0.148,0.908-0.142,1.633,0.025,2.174c0.298,0.727,0.858,1.07,1.678,1.027    c0.547-0.027,0.854-0.318,0.922-0.871c0.068-0.553-0.172-0.812-0.719-0.785c-0.156,0.01-0.247-0.045-0.271-0.16    c-0.118-0.309-0.118-0.779-0.001-1.41c0.231-1.268,0.844-3.08,1.832-5.443c1.621-3.727,3.261-6.967,4.919-9.717    c1.55-2.51,3.166-4.924,4.848-7.246c2.599,1.902,6.069,4.148,10.408,6.74c0.435,0.252,0.817,0.133,1.149-0.354    c0.331-0.488,0.28-0.857-0.154-1.107c-4.34-2.594-7.789-4.842-10.351-6.744c4.759-6.516,9.93-12.113,15.51-16.793    c1.99-1.67,3.785-3.02,5.387-4.043c1.601-1.023,3.216-1.697,4.847-2.018c0.673-0.111,1.156-0.098,1.45,0.041    c0.254,0.145,0.416,0.41,0.485,0.799c0.127,0.855-0.176,2.203-0.904,4.043c-0.279,0.68-0.622,1.424-1.031,2.227    c-0.005,0.041-0.087,0.24-0.248,0.602l-0.065,0.062l-0.015,0.117l-0.074,0.121c0.006-0.037,0.029-0.078,0.074-0.121l-0.074,0.121    l-0.146,0.242l-2.025,3.691l-0.007,0.059c-0.395,0.688-0.639,1.092-0.73,1.215c-0.356,0.684-0.93,1.713-1.719,3.086l-1.775,3.09    l-11.528,21.342l-2.186,4.051c-0.204,0.402-0.331,0.645-0.38,0.727l-0.066,0.061l-0.014,0.119c-0.05,0.08-0.076,0.141-0.08,0.18    c-0.039,0.629,0.261,0.869,0.9,0.719c0.2-0.051,0.366-0.139,0.498-0.262c0.005-0.041,0.029-0.082,0.073-0.123l0.066-0.061    l0.079-0.18l6.968-12.646c0.005-0.039,0.028-0.078,0.072-0.121l6.097-11.248l5.103-9.314c0.005-0.039,0.026-0.061,0.066-0.062    L330.358,374.871z"/>
		<path clip-path="url(#SVGID_8_)" fill="none" stroke="#182C3A" stroke-width="1.898" stroke-miterlimit="9.147" d="    M351.879,366.254c-0.301-0.24-0.608-0.193-0.919,0.135c-3.116,3.572-6.177,8.1-9.179,13.584    c-2.996,5.445-5.136,10.375-6.414,14.789c-0.866,2.945-1.371,5.164-1.517,6.66c-0.338,3.387,0.476,5.301,2.438,5.748    c2.271,0.467,4.892-0.336,7.863-2.41c1.951-1.355,4.011-3.266,6.177-5.73c2.202-2.465,4.307-5.141,6.312-8.025    c2.003-2.887,3.896-5.973,5.677-9.258c1.781-3.285,3.299-6.244,4.555-8.875c1.254-2.633,2.685-5.754,4.293-9.361    c0.204-0.402,0.109-0.662-0.283-0.779c-0.394-0.115-0.675,0.045-0.845,0.486c-1.604,3.568-3.042,6.67-4.316,9.303    s-2.778,5.561-4.513,8.785c-1.735,3.225-3.593,6.26-5.571,9.104c-1.98,2.848-4.047,5.463-6.203,7.846    c-2.112,2.344-4.083,4.172-5.912,5.48c-2.591,1.82-4.832,2.525-6.722,2.115c-1.401-0.279-1.955-1.777-1.66-4.496    c0.13-1.377,0.626-3.518,1.488-6.424c1.269-4.334,3.375-9.166,6.319-14.49c2.913-5.4,5.902-9.826,8.966-13.277    C352.19,366.795,352.179,366.492,351.879,366.254z"/>
		<path clip-path="url(#SVGID_8_)" fill="none" stroke="#182C3A" stroke-width="1.898" stroke-miterlimit="9.147" d="    M403.572,375.029c0.366,0.178,0.671,0.064,0.915-0.342c0.443-0.766,0.767-1.352,0.972-1.754l0.907-1.693    c0.448-0.807,0.773-1.488,0.979-2.049c0.204-0.559,0.418-1.195,0.644-1.914c0.223-0.717,0.376-1.408,0.459-2.08    c0.082-0.67,0.083-1.314,0.005-1.938c-0.217-1.713-1.07-2.666-2.559-2.863c-1.148-0.135-2.645,0.197-4.489,0.998    c-1.357,0.621-2.756,1.418-4.194,2.395c-1.439,0.977-2.552,1.818-3.338,2.525c-2.054,1.869-4.57,4.508-7.55,7.916    c-2.897,3.363-5.679,6.898-8.345,10.602c-3.049,4.271-5.398,8.076-7.05,11.416c-1.924,3.977-2.802,7.178-2.634,9.596    c0.188,2.262,2.011,3.066,5.467,2.416c2.787-0.578,5.96-1.918,9.518-4.023c3.641-2.148,6.25-4.283,7.831-6.402    c0.926-1.225,1.371-2.324,1.336-3.303c-0.021-1.096-0.634-1.943-1.841-2.547c-1.066-0.492-2.549-0.748-4.447-0.766l-2.211-0.002    c-0.974,0.012-1.688-0.008-2.147-0.064c-0.425-0.016-0.691,0.184-0.801,0.602c-0.109,0.416,0.026,0.654,0.407,0.713    c0.615,0.047,1.389,0.064,2.322,0.055c0.155-0.008,0.389-0.012,0.699-0.008c0.31,0.004,0.582-0.002,0.816-0.014    c0.235-0.012,0.467-0.004,0.696,0.021c1.709-0.01,3.02,0.215,3.934,0.676c0.845,0.389,1.283,0.932,1.313,1.635    c0,0.627-0.349,1.41-1.046,2.348c-1.482,1.957-3.938,3.947-7.368,5.967c-3.432,2.021-6.457,3.275-9.078,3.766    c-2.627,0.529-3.988,0.072-4.082-1.371c-0.158-2.186,0.671-5.148,2.487-8.887c1.608-3.295,3.893-7.037,6.852-11.227    c2.613-3.584,5.379-7.059,8.295-10.424c2.916-3.363,5.398-5.961,7.448-7.793c0.696-0.623,1.724-1.402,3.081-2.334    c1.355-0.934,2.692-1.707,4.011-2.326c1.561-0.707,2.799-0.988,3.713-0.84c0.956,0.105,1.497,0.764,1.62,1.971    c0.093,0.504,0.104,1.051,0.031,1.643s-0.206,1.207-0.4,1.844c-0.195,0.637-0.392,1.215-0.592,1.734s-0.497,1.123-0.891,1.809    l-0.907,1.693c-0.21,0.441-0.533,1.025-0.973,1.754C403.145,374.562,403.205,374.854,403.572,375.029z"/>
		<path clip-path="url(#SVGID_8_)" fill="none" stroke="#182C3A" stroke-width="1.898" stroke-miterlimit="9.147" d="    M427.578,362.285c-0.301-0.238-0.607-0.191-0.919,0.137c-3.116,3.57-6.176,8.1-9.178,13.584    c-2.997,5.443-5.136,10.375-6.414,14.787c-0.867,2.945-1.372,5.166-1.517,6.66c-0.339,3.389,0.475,5.303,2.438,5.748    c2.271,0.469,4.893-0.336,7.864-2.41c1.951-1.354,4.01-3.264,6.176-5.729c2.203-2.465,4.307-5.141,6.312-8.027    c2.003-2.885,3.896-5.971,5.677-9.258c1.781-3.285,3.299-6.242,4.554-8.875c1.254-2.631,2.686-5.752,4.293-9.361    c0.204-0.4,0.11-0.66-0.283-0.777c-0.393-0.115-0.675,0.045-0.845,0.484c-1.603,3.57-3.042,6.672-4.316,9.305    c-1.273,2.633-2.777,5.561-4.513,8.785c-1.734,3.225-3.592,6.26-5.571,9.104c-1.979,2.846-4.047,5.461-6.202,7.846    c-2.112,2.344-4.083,4.17-5.912,5.48c-2.591,1.82-4.832,2.523-6.723,2.115c-1.401-0.279-1.955-1.777-1.659-4.496    c0.13-1.377,0.626-3.52,1.487-6.424c1.27-4.334,3.375-9.166,6.32-14.49c2.913-5.4,5.902-9.826,8.965-13.277    C427.891,362.828,427.878,362.525,427.578,362.285z"/>
		<path clip-path="url(#SVGID_8_)" fill="none" stroke="#182C3A" stroke-width="1.898" stroke-miterlimit="9.147" d="    M485.046,356.514c0.26-0.387,0.21-0.688-0.151-0.904c-3.532-1.891-6.462-1.895-8.788-0.008c-1.811,1.465-3.171,4.16-4.079,8.086    c-0.613,2.461-1.117,5.934-1.513,10.42c-0.386,4.408-0.686,7.008-0.899,7.803c-1.221,4.881-2.996,8.91-5.326,12.088    c-1.444,1.955-3.106,3.482-4.987,4.58c-1.881,1.096-3.718,1.672-5.51,1.729c-1.836,0.096-3.446-0.379-4.832-1.422    c-1.385-1.045-2.333-2.648-2.843-4.816c-0.069-0.387-0.317-0.502-0.744-0.342c-0.427,0.158-0.588,0.451-0.486,0.877    c0.561,2.398,1.62,4.184,3.186,5.355c1.558,1.211,3.393,1.762,5.502,1.65c2.064-0.07,4.143-0.717,6.234-1.941    c2.091-1.227,3.907-2.898,5.447-5.016c2.506-3.342,4.384-7.574,5.634-12.693c0.224-0.871,0.53-3.531,0.921-7.979    c0.387-4.406,0.863-7.82,1.433-10.24c0.865-3.57,2.071-5.963,3.618-7.18c1.771-1.463,4.205-1.375,7.303,0.264    C484.491,357.002,484.785,356.898,485.046,356.514z"/>
		<path clip-path="url(#SVGID_8_)" fill="none" stroke="#182C3A" stroke-width="1.898" stroke-miterlimit="9.147" d="    M494.498,360.131c0.168,0.363,0.44,0.438,0.816,0.221c1.006-0.6,2.737-1.121,5.199-1.564c2.144-0.387,4.765-0.721,7.865-1    l0.058-0.004c-8.066,13.232-15.605,26.904-22.616,41.02c-0.205,0.402-0.122,0.672,0.25,0.811c0.37,0.137,0.658,0.004,0.863-0.398    c7.113-14.316,14.772-28.172,22.976-41.566c1.646-0.125,5.75-0.359,12.312-0.705c0.429-0.021,0.671-0.25,0.725-0.684    s-0.136-0.639-0.564-0.617c-6.328,0.332-10.218,0.557-11.667,0.67l1.594-2.551c0.243-0.404,0.182-0.693-0.184-0.871    c-0.367-0.176-0.672-0.062-0.916,0.342l-1.966,3.217l-0.763,0.039c-3.179,0.285-5.839,0.621-7.982,1.008    c-2.621,0.488-4.496,1.057-5.623,1.703C494.454,359.457,494.329,359.768,494.498,360.131z"/>
	</g>
	<g>
		<path fill="#182C3A" d="M83.251,385.709c2.42-1.693,4.786-3.58,7.099-5.661c1.224-1.121,2.134-1.894,2.729-2.316l0.067-0.062    l0.197-0.188c0.093-0.122,0.2-0.205,0.322-0.251c0.204-0.089,0.396-0.08,0.579,0.028c0.142,0.11,0.219,0.263,0.233,0.457    c0.011,0.549-0.286,1.387-0.89,2.515c-0.453,0.846-1.093,1.938-1.917,3.273l-2.083,3.223c-0.766,1.176-1.224,1.905-1.374,2.188    l-2.822,5.436l-2.587,4.954c-0.673,1.366-1.564,3.254-2.675,5.662l-2.36,5l-2.558,5.657c-1.325,2.889-2.142,4.636-2.447,5.239    c-0.165,0.399-0.427,0.542-0.779,0.423c-0.355-0.119-0.433-0.359-0.232-0.723c0.219-0.521,0.996-2.264,2.331-5.232l2.682-5.723    l2.302-4.998l2.74-5.725l2.471-4.947c1.014-1.933,1.993-3.746,2.938-5.442c0.205-0.401,0.688-1.171,1.447-2.308l2.025-3.22    c0.814-1.256,1.428-2.309,1.843-3.152l0.292-0.485c-0.342,0.253-0.926,0.754-1.756,1.502c-2.488,2.246-4.898,4.175-7.23,5.784    c-0.342,0.253-0.61,0.229-0.806-0.075C82.837,386.24,82.908,385.962,83.251,385.709z"/>
		<path fill="#182C3A" d="M105.887,381.056c0.882,0.071,2.525-0.19,4.928-0.788c1.717-0.402,4.149-1.078,7.293-2.026    c3.787-1.138,6.043-1.805,6.766-1.999c1.039-0.251,1.835-0.41,2.387-0.478c0.357-0.058,0.631-0.093,0.827-0.103    c0.348,0.021,0.591,0.086,0.733,0.196c0.176,0.147,0.311,0.317,0.402,0.508c0.152,0.345,0.152,0.658,0.002,0.939    c-0.321,0.722-0.903,1.497-1.741,2.325l-0.994,0.991l-0.87,0.928c-3.957,4.711-6.929,8.374-8.918,10.983    c-1.819,2.485-5.239,7.424-10.26,14.815c-0.565,0.813-1.499,2.252-2.8,4.316c-1.302,2.066-2.493,3.862-3.572,5.388    c-1.081,1.526-2.183,2.905-3.303,4.139c-0.308,0.289-0.593,0.314-0.853,0.074c-0.263-0.241-0.257-0.526,0.016-0.853    c1.112-1.156,2.186-2.465,3.219-3.929c1.034-1.464,2.199-3.209,3.496-5.236c1.218-2.021,2.156-3.5,2.814-4.437    c5.295-7.718,8.754-12.658,10.378-14.82c1.959-2.688,4.938-6.389,8.932-11.103l1.002-1.051l0.987-0.934    c0.669-0.7,1.134-1.332,1.397-1.895c-0.035-0.037-0.067-0.095-0.097-0.172l-0.176,0.01c-0.156,0.008-0.373,0.04-0.651,0.093    c-0.513,0.066-1.249,0.222-2.212,0.469l-6.766,1.999c-3.138,0.908-5.588,1.586-7.351,2.031c-2.603,0.646-4.362,0.914-5.28,0.805    c-0.381-0.058-0.518-0.275-0.413-0.653C105.313,381.213,105.539,381.036,105.887,381.056z"/>
		<path fill="#182C3A" d="M131.606,413.374l0.263-0.249c0.21-0.129,0.394-0.197,0.551-0.205c0.359-0.097,0.633-0.023,0.815,0.221    c0.183,0.246,0.229,0.586,0.137,1.021c-0.063,0.199-0.169,0.43-0.317,0.691c-0.148,0.264-0.294,0.496-0.436,0.699    c-0.312,0.33-0.627,0.523-0.944,0.578c-0.513,0.066-0.853-0.17-1.018-0.711c-0.046-0.271-0.036-0.662,0.027-1.176    c0.028-0.236,0.131-0.438,0.307-0.604C131.166,413.476,131.372,413.386,131.606,413.374z"/>
		<path fill="#182C3A" d="M159.613,400.037c3.203-0.481,7.754-0.877,13.651-1.186c0.391-0.021,0.562,0.167,0.514,0.561    c-0.049,0.395-0.269,0.602-0.659,0.622c-5.859,0.307-10.369,0.7-13.533,1.18c-0.396,0.06-0.589-0.106-0.579-0.498    C159.016,400.324,159.219,400.097,159.613,400.037z"/>
		<path fill="#182C3A" d="M172.152,399.38c3.201-0.48,7.752-0.877,13.65-1.186c0.39-0.021,0.562,0.167,0.514,0.561    c-0.049,0.395-0.27,0.602-0.659,0.622c-5.859,0.307-10.37,0.7-13.533,1.18c-0.396,0.06-0.59-0.105-0.58-0.498    C171.554,399.667,171.756,399.439,172.152,399.38z"/>
		<path fill="#182C3A" d="M216.484,378.727c2.419-1.693,4.785-3.58,7.099-5.661c1.224-1.121,2.134-1.894,2.729-2.316l0.066-0.062    l0.197-0.188c0.093-0.122,0.2-0.205,0.321-0.251c0.205-0.089,0.397-0.08,0.579,0.028c0.142,0.11,0.22,0.262,0.234,0.457    c0.01,0.549-0.287,1.387-0.89,2.515c-0.454,0.846-1.093,1.938-1.917,3.273l-2.084,3.223c-0.766,1.176-1.223,1.905-1.373,2.187    l-2.822,5.437l-2.587,4.954c-0.673,1.366-1.564,3.254-2.675,5.662l-2.36,5l-2.558,5.657c-1.325,2.889-2.142,4.635-2.448,5.239    c-0.164,0.399-0.426,0.541-0.779,0.423c-0.354-0.119-0.432-0.359-0.231-0.723c0.219-0.521,0.996-2.264,2.33-5.233l2.683-5.722    l2.302-4.998l2.739-5.725l2.472-4.947c1.014-1.933,1.993-3.746,2.938-5.442c0.204-0.401,0.688-1.171,1.448-2.308l2.025-3.22    c0.813-1.257,1.427-2.309,1.842-3.152l0.292-0.485c-0.342,0.253-0.927,0.754-1.757,1.502c-2.486,2.246-4.896,4.175-7.229,5.784    c-0.343,0.253-0.611,0.229-0.806-0.075C216.07,379.258,216.143,378.979,216.484,378.727z"/>
		<path fill="#182C3A" d="M252.382,385.54c-1.855,1.507-3.758,2.781-5.709,3.824c-3.281,1.739-6.051,2.491-8.312,2.258    c-2.641-0.293-4.038-1.885-4.187-4.775c-0.185-3.554,1.711-7.141,5.688-10.756c3.41-3.117,7.344-5.457,11.807-7.023    c4.621-1.612,7.793-1.68,9.514-0.204c2.072,1.771,1.315,5.239-2.266,10.399c-0.426,0.61-1.345,1.775-2.758,3.494    c-1.404,1.641-2.446,2.851-3.124,3.63c-3.243,3.657-7.339,7.926-12.284,12.806c-5.877,5.831-10.933,10.483-15.16,13.955    c-0.303,0.251-0.562,0.236-0.781-0.047c-0.218-0.282-0.153-0.57,0.194-0.862c3.921-3.181,8.932-7.792,15.028-13.83    c5.17-5.128,9.22-9.356,12.152-12.682L252.382,385.54z M260.535,374.126c0.794-2.039,0.717-3.465-0.231-4.276    c-0.665-0.592-1.748-0.857-3.249-0.799c-1.502,0.059-3.227,0.433-5.174,1.122c-4.3,1.518-8.069,3.771-11.309,6.763    c-3.625,3.284-5.358,6.489-5.196,9.612c0.134,2.383,1.236,3.676,3.307,3.882c1.991,0.21,4.522-0.492,7.594-2.103    c2.991-1.605,5.752-3.708,8.283-6.309s4.147-5.172,4.849-7.716c0.121-0.359,0.375-0.528,0.762-0.51    C260.358,373.822,260.48,373.934,260.535,374.126z"/>
		<path fill="#182C3A" d="M264.665,406.4l0.263-0.249c0.21-0.128,0.394-0.197,0.551-0.205c0.359-0.097,0.633-0.023,0.815,0.221    c0.183,0.246,0.229,0.586,0.137,1.021c-0.063,0.199-0.169,0.43-0.317,0.692s-0.294,0.495-0.436,0.699    c-0.312,0.329-0.627,0.522-0.944,0.577c-0.513,0.066-0.853-0.17-1.018-0.71c-0.046-0.271-0.036-0.663,0.027-1.177    c0.028-0.236,0.131-0.437,0.307-0.604C264.225,406.502,264.431,406.412,264.665,406.4z"/>
		<path fill="#182C3A" d="M328.18,378.865c-0.039,0.002-0.062,0.023-0.066,0.062l-5.103,9.315l-6.096,11.246    c-0.044,0.043-0.068,0.084-0.073,0.122l-6.966,12.645l-0.081,0.181l-0.065,0.062c-0.045,0.041-0.068,0.082-0.073,0.121    c-0.133,0.126-0.299,0.212-0.498,0.263c-0.641,0.15-0.94-0.089-0.901-0.717c0.005-0.04,0.03-0.101,0.08-0.181l0.015-0.118    l0.066-0.062c0.048-0.081,0.175-0.323,0.379-0.726l2.186-4.051l11.528-21.344l1.776-3.09c0.789-1.372,1.362-2.4,1.719-3.086    c0.091-0.122,0.334-0.526,0.73-1.213l0.007-0.059l2.026-3.691l0.145-0.243l0.073-0.121c-0.045,0.042-0.068,0.083-0.073,0.121    l0.073-0.121l0.015-0.118l0.066-0.062c0.16-0.36,0.243-0.56,0.248-0.6c0.409-0.805,0.752-1.547,1.03-2.228    c0.729-1.839,1.032-3.188,0.903-4.043c-0.068-0.388-0.229-0.653-0.483-0.798c-0.294-0.141-0.778-0.154-1.45-0.041    c-1.632,0.32-3.247,0.993-4.846,2.016c-1.602,1.024-3.397,2.373-5.387,4.043c-5.582,4.68-10.752,10.278-15.511,16.795    c2.562,1.902,6.01,4.149,10.35,6.742c0.435,0.252,0.486,0.621,0.154,1.108c-0.331,0.487-0.715,0.605-1.148,0.354    c-4.339-2.593-7.81-4.839-10.408-6.739c-1.683,2.319-3.298,4.735-4.849,7.246c-1.658,2.75-3.297,5.989-4.919,9.716    c-0.988,2.362-1.6,4.177-1.833,5.443c-0.117,0.632-0.115,1.103,0.002,1.409c0.024,0.116,0.115,0.171,0.271,0.163    c0.547-0.029,0.787,0.232,0.72,0.784c-0.068,0.552-0.376,0.842-0.923,0.871c-0.82,0.043-1.38-0.301-1.679-1.028    c-0.166-0.54-0.174-1.265-0.023-2.173c0.253-1.424,0.921-3.397,2.007-5.922c1.68-3.887,3.365-7.187,5.058-9.9    c1.604-2.63,3.252-5.144,4.943-7.545c-2.336-1.835-4.019-3.471-5.044-4.906c-0.299-0.414-0.212-0.811,0.263-1.188    c0.473-0.378,0.858-0.358,1.156,0.057c0.924,1.322,2.483,2.847,4.679,4.572c4.847-6.6,10.125-12.301,15.838-17.104    c1.298-1.086,2.418-1.986,3.36-2.703c0.94-0.715,2.138-1.452,3.589-2.214c1.452-0.761,2.835-1.274,4.149-1.54    c1.033-0.21,1.859-0.146,2.479,0.193c0.618,0.341,0.993,0.917,1.126,1.732c0.172,1.128-0.166,2.771-1.013,4.931l-1.366,3.066    c-0.099,0.163-0.148,0.264-0.153,0.303L328.18,378.865z"/>
		<path fill="#182C3A" d="M351.911,367.163c-3.062,3.451-6.051,7.877-8.966,13.278c-2.943,5.324-5.05,10.154-6.318,14.49    c-0.861,2.904-1.357,5.046-1.487,6.423c-0.296,2.719,0.258,4.218,1.66,4.496c1.889,0.409,4.13-0.296,6.722-2.115    c1.828-1.309,3.8-3.137,5.911-5.48c2.157-2.383,4.224-4.999,6.203-7.845c1.979-2.845,3.836-5.879,5.571-9.104    c1.734-3.225,3.238-6.152,4.514-8.785c1.272-2.632,2.712-5.733,4.314-9.304c0.171-0.439,0.453-0.602,0.846-0.484    c0.393,0.116,0.486,0.377,0.282,0.778c-1.606,3.609-3.038,6.729-4.292,9.361c-1.255,2.631-2.773,5.589-4.554,8.875    c-1.781,3.285-3.674,6.371-5.678,9.257c-2.004,2.887-4.108,5.562-6.312,8.027c-2.166,2.464-4.225,4.374-6.176,5.729    c-2.973,2.074-5.593,2.878-7.864,2.41c-1.964-0.446-2.776-2.36-2.438-5.748c0.145-1.495,0.649-3.715,1.516-6.659    c1.28-4.415,3.417-9.344,6.415-14.789c3.002-5.484,6.061-10.012,9.178-13.584c0.312-0.329,0.618-0.374,0.918-0.136    C352.178,366.494,352.19,366.796,351.911,367.163z"/>
		<path fill="#182C3A" d="M403.387,374.16c0.44-0.728,0.764-1.313,0.973-1.756l0.906-1.692c0.395-0.687,0.691-1.289,0.892-1.809    c0.2-0.519,0.398-1.098,0.593-1.735c0.193-0.636,0.327-1.251,0.399-1.842c0.073-0.593,0.062-1.14-0.029-1.644    c-0.125-1.208-0.665-1.865-1.622-1.972c-0.912-0.147-2.151,0.133-3.713,0.841c-1.317,0.617-2.655,1.393-4.01,2.324    c-1.358,0.936-2.385,1.713-3.082,2.336c-2.05,1.832-4.531,4.43-7.447,7.794c-2.917,3.364-5.682,6.839-8.295,10.423    c-2.96,4.189-5.244,7.934-6.852,11.228c-1.817,3.738-2.646,6.7-2.488,8.885c0.095,1.443,1.455,1.901,4.082,1.372    c2.621-0.49,5.647-1.745,9.078-3.766s5.887-4.009,7.369-5.968c0.697-0.938,1.046-1.72,1.045-2.346    c-0.03-0.704-0.468-1.248-1.312-1.636c-0.915-0.46-2.227-0.686-3.935-0.675c-0.229-0.026-0.461-0.034-0.695-0.022    c-0.234,0.013-0.508,0.018-0.817,0.014c-0.311-0.003-0.544,0-0.699,0.008c-0.933,0.01-1.707-0.008-2.322-0.055    c-0.381-0.058-0.517-0.296-0.406-0.714c0.109-0.417,0.375-0.616,0.801-0.6c0.459,0.056,1.175,0.076,2.146,0.064l2.211,0.001    c1.899,0.019,3.383,0.274,4.447,0.766c1.206,0.604,1.82,1.452,1.842,2.548c0.034,0.977-0.411,2.077-1.338,3.301    c-1.58,2.12-4.189,4.255-7.829,6.402c-3.558,2.106-6.731,3.448-9.519,4.025c-3.455,0.651-5.277-0.154-5.466-2.417    c-0.168-2.419,0.71-5.618,2.634-9.597c1.651-3.338,4.001-7.143,7.048-11.415c2.667-3.704,5.449-7.237,8.347-10.602    c2.979-3.406,5.495-6.046,7.55-7.915c0.786-0.708,1.897-1.55,3.338-2.526c1.438-0.976,2.837-1.773,4.193-2.393    c1.846-0.803,3.342-1.135,4.488-0.999c1.491,0.195,2.342,1.15,2.56,2.86c0.079,0.624,0.077,1.271-0.005,1.94    c-0.083,0.671-0.235,1.364-0.459,2.08c-0.225,0.717-0.438,1.355-0.643,1.914c-0.205,0.56-0.531,1.242-0.979,2.048l-0.906,1.693    c-0.205,0.402-0.529,0.988-0.973,1.756c-0.244,0.404-0.549,0.519-0.914,0.341C403.205,374.855,403.143,374.564,403.387,374.16z"/>
		<path fill="#182C3A" d="M427.611,363.195c-3.063,3.452-6.051,7.878-8.965,13.278c-2.945,5.325-5.052,10.155-6.32,14.49    c-0.861,2.905-1.356,5.046-1.487,6.423c-0.296,2.719,0.258,4.218,1.66,4.497c1.89,0.409,4.131-0.296,6.722-2.115    c1.829-1.309,3.8-3.138,5.912-5.48c2.156-2.384,4.224-4.999,6.202-7.845c1.98-2.845,3.837-5.88,5.572-9.105    c1.733-3.224,3.238-6.152,4.513-8.784c1.273-2.633,2.712-5.734,4.316-9.305c0.17-0.438,0.451-0.601,0.845-0.483    c0.393,0.116,0.486,0.376,0.282,0.777c-1.606,3.609-3.039,6.73-4.292,9.361c-1.255,2.631-2.774,5.59-4.555,8.875    c-1.781,3.286-3.673,6.371-5.677,9.257c-2.005,2.888-4.108,5.562-6.312,8.027c-2.166,2.465-4.225,4.374-6.176,5.729    c-2.972,2.074-5.592,2.878-7.863,2.41c-1.964-0.446-2.777-2.361-2.438-5.749c0.145-1.495,0.649-3.714,1.516-6.658    c1.28-4.415,3.418-9.345,6.416-14.79c3.002-5.484,6.061-10.012,9.177-13.583c0.312-0.329,0.618-0.374,0.92-0.136    C427.877,362.526,427.89,362.828,427.611,363.195z"/>
		<path fill="#182C3A" d="M484.164,356.825c-3.1-1.64-5.532-1.728-7.304-0.264c-1.546,1.217-2.753,3.61-3.618,7.181    c-0.569,2.419-1.046,5.833-1.432,10.239c-0.391,4.447-0.697,7.107-0.921,7.979c-1.25,5.118-3.128,9.35-5.634,12.691    c-1.54,2.119-3.356,3.789-5.447,5.017c-2.092,1.226-4.17,1.872-6.235,1.941c-2.108,0.11-3.942-0.439-5.502-1.65    c-1.563-1.171-2.624-2.956-3.185-5.355c-0.102-0.426,0.059-0.717,0.486-0.877c0.427-0.159,0.675-0.045,0.744,0.343    c0.51,2.168,1.458,3.771,2.843,4.814c1.386,1.045,2.995,1.518,4.832,1.422c1.792-0.056,3.628-0.63,5.511-1.729    c1.88-1.098,3.542-2.623,4.985-4.579c2.331-3.178,4.106-7.206,5.327-12.089c0.213-0.794,0.514-3.395,0.899-7.803    c0.396-4.485,0.898-7.957,1.512-10.419c0.909-3.926,2.269-6.62,4.079-8.087c2.327-1.884,5.256-1.88,8.789,0.01    c0.36,0.216,0.411,0.517,0.151,0.902C484.785,356.9,484.491,357.004,484.164,356.825z"/>
		<path fill="#182C3A" d="M494.874,359.2c1.128-0.646,3.002-1.215,5.624-1.704c2.143-0.386,4.804-0.723,7.98-1.007l0.762-0.039    l1.969-3.217c0.243-0.404,0.547-0.518,0.915-0.341c0.365,0.177,0.427,0.467,0.184,0.871l-1.595,2.551    c1.45-0.115,5.34-0.339,11.667-0.671c0.43-0.022,0.618,0.184,0.565,0.617c-0.054,0.435-0.295,0.661-0.725,0.684    c-6.562,0.344-10.666,0.58-12.312,0.705c-8.203,13.395-15.862,27.25-22.975,41.566c-0.206,0.401-0.494,0.534-0.864,0.398    c-0.372-0.138-0.455-0.408-0.251-0.81c7.012-14.116,14.55-27.789,22.618-41.021l-0.06,0.003c-3.1,0.28-5.722,0.614-7.864,1.001    c-2.461,0.442-4.193,0.964-5.199,1.565c-0.376,0.216-0.649,0.142-0.816-0.222C494.328,359.769,494.454,359.457,494.874,359.2z"/>
	</g>
	<g>
		<defs>
			<rect id="SVGID_9_" width="574.129" height="531.168"/>
		</defs>
		<clipPath id="SVGID_10_">
			<use xlink:href="#SVGID_9_" overflow="visible"/>
		</clipPath>
		<path clip-path="url(#SVGID_10_)" fill="none" stroke="#182C3A" stroke-width="1.898" stroke-miterlimit="9.147" d="    M109.736,462.9c0.26-0.385,0.21-0.688-0.151-0.902c-3.532-1.891-6.462-1.895-8.789-0.01c-1.81,1.467-3.17,4.162-4.078,8.086    c-0.613,2.463-1.117,5.936-1.513,10.42c-0.386,4.408-0.686,7.008-0.899,7.803c-1.221,4.883-2.996,8.912-5.326,12.09    c-1.444,1.955-3.106,3.48-4.987,4.58c-1.881,1.096-3.718,1.672-5.51,1.727c-1.836,0.098-3.446-0.377-4.832-1.42    c-1.385-1.045-2.333-2.648-2.843-4.816c-0.069-0.387-0.317-0.502-0.744-0.344c-0.427,0.16-0.588,0.453-0.486,0.879    c0.561,2.398,1.62,4.184,3.186,5.355c1.558,1.211,3.393,1.762,5.502,1.65c2.064-0.07,4.143-0.717,6.234-1.941    c2.09-1.227,3.907-2.898,5.447-5.018c2.506-3.342,4.384-7.572,5.634-12.691c0.224-0.871,0.53-3.531,0.921-7.98    c0.387-4.406,0.863-7.818,1.433-10.238c0.864-3.57,2.07-5.963,3.618-7.182c1.771-1.463,4.204-1.375,7.303,0.264    C109.182,463.391,109.476,463.287,109.736,462.9z"/>
		<path clip-path="url(#SVGID_10_)" fill="none" stroke="#182C3A" stroke-width="1.898" stroke-miterlimit="9.147" d="    M119.188,466.518c0.168,0.365,0.44,0.439,0.816,0.223c1.005-0.602,2.737-1.121,5.199-1.564c2.143-0.387,4.764-0.721,7.865-1    l0.058-0.004c-8.066,13.23-15.605,26.904-22.617,41.02c-0.205,0.402-0.122,0.672,0.25,0.811c0.371,0.135,0.659,0.004,0.864-0.398    c7.113-14.316,14.772-28.172,22.975-41.566c1.646-0.125,5.75-0.361,12.312-0.705c0.429-0.023,0.671-0.25,0.724-0.684    c0.055-0.434-0.135-0.641-0.563-0.617c-6.328,0.332-10.218,0.557-11.667,0.67l1.594-2.551c0.243-0.404,0.181-0.693-0.184-0.873    c-0.367-0.176-0.672-0.061-0.916,0.344l-1.967,3.217l-0.762,0.039c-3.179,0.285-5.839,0.621-7.982,1.006    c-2.621,0.49-4.496,1.059-5.623,1.705C119.145,465.846,119.02,466.154,119.188,466.518z"/>
		<path clip-path="url(#SVGID_10_)" fill="none" stroke="#182C3A" stroke-width="1.898" stroke-miterlimit="9.147" d="    M165.354,462.953c2.37-1.926,4.501-3.232,6.39-3.92c1.89-0.686,3.444-0.787,4.665-0.303c1.48,0.59,2.424,2.068,2.832,4.434    c0.369,2.371,0.015,5.582-1.065,9.635c-1.318,5.043-3.664,10.082-7.037,15.115c-3.374,5.033-7.176,8.975-11.406,11.818    c-4.562,3.021-7.831,3.564-9.806,1.631c-0.86-0.895-1.395-2.238-1.602-4.029s-0.03-3.855,0.528-6.195    c1.211-5.117,3.256-10.238,6.136-15.363c2.841-5.123,6.192-9.176,10.051-12.16C165.259,463.408,165.362,463.188,165.354,462.953z     M152.617,477.545c-2.31,4.586-3.989,9.102-5.039,13.543c-0.578,2.496-0.757,4.738-0.534,6.725    c0.222,1.986,0.851,3.502,1.887,4.543c1.061,1.158,2.587,1.607,4.579,1.348c1.992-0.262,4.257-1.242,6.794-2.941    c4.396-2.934,8.352-7.02,11.867-12.256c3.476-5.234,5.896-10.414,7.264-15.539c1.104-4.248,1.45-7.703,1.04-10.365    c-0.411-2.662-1.542-4.355-3.394-5.08c-1.852-0.727-4.157-0.439-6.917,0.861s-5.77,3.523-9.027,6.672    c-0.181,0.205-0.267,0.424-0.255,0.66C157.682,469.016,154.928,472.959,152.617,477.545z"/>
		<path clip-path="url(#SVGID_10_)" fill="none" stroke="#182C3A" stroke-width="1.898" stroke-miterlimit="9.147" d="    M204.854,477.863c3.246-1.15,5.979-2.232,8.2-3.25c2.674-1.236,4.538-2.354,5.592-3.35c1.94-1.902,2.374-3.844,1.298-5.824    c-0.828-1.484-2.533-2.924-5.117-4.314c-2.188-1.139-4.634-2.088-7.335-2.848l1.162-1.883c0.244-0.404,0.182-0.693-0.185-0.871    c-0.365-0.178-0.671-0.062-0.914,0.342l-1.309,2.125c-1.886-0.449-3.337-0.648-4.352-0.594c-0.431,0.021-0.671,0.25-0.725,0.684    s0.135,0.639,0.564,0.617c0.858-0.045,2.119,0.123,3.78,0.506c-4.174,6.799-8.23,13.768-12.173,20.908    c-1.206,0.338-2.328,0.631-3.367,0.881c-0.441,0.102-0.648,0.367-0.622,0.797c0.023,0.43,0.256,0.594,0.695,0.492    c0.684-0.191,1.507-0.412,2.469-0.658c-3.598,6.533-7.048,13.139-10.351,19.814c-0.205,0.4-0.122,0.672,0.25,0.809    c0.37,0.137,0.659,0.004,0.864-0.398c4.394-8.611,7.969-15.438,10.722-20.479c0.396,0.881,0.848,1.797,1.352,2.75l1.372,2.572    l1.658,2.613l1.556,2.504l1.774,2.609l1.637,2.324l1.782,2.551c0.896,1.246,1.44,2.02,1.637,2.322    c0.233,0.301,0.532,0.316,0.896,0.041c0.363-0.273,0.45-0.58,0.259-0.924c-0.234-0.303-0.8-1.074-1.694-2.32l-1.731-2.494    l-1.636-2.324l-1.782-2.549l-1.512-2.389c-0.651-1.023-1.185-1.896-1.6-2.619l-1.32-2.516l-1.365-2.631    C198.628,479.893,201.818,478.883,204.854,477.863z M214.037,462.34c2.409,1.246,3.978,2.535,4.706,3.867    c0.792,1.447,0.487,2.834-0.918,4.16c-0.888,0.908-2.606,1.938-5.153,3.09c-2.177,0.977-4.869,2.039-8.074,3.186    c-3.041,1.061-6.252,2.07-9.63,3.031c3.791-6.857,7.703-13.584,11.734-20.18C209.447,460.211,211.893,461.16,214.037,462.34z"/>
		<path clip-path="url(#SVGID_10_)" fill="none" stroke="#182C3A" stroke-width="1.898" stroke-miterlimit="9.147" d="    M249.619,496.844c0.242-0.404,0.182-0.695-0.185-0.871c-0.664-0.279-1.375-0.652-2.133-1.123l-1.678-1.027    c-0.396-0.254-1.075-0.727-2.038-1.422l-1.767-1.258c-0.571-0.4-2.348-1.582-5.329-3.539c-2.047-1.342-3.675-2.471-4.882-3.387    l3.378-6.17c0.84-0.201,1.796-0.408,2.87-0.621c2.148-0.426,4.653-0.91,7.514-1.451c2.978-0.547,4.646-0.852,5.002-0.908    c0.438-0.102,0.646-0.367,0.622-0.797c-0.026-0.43-0.259-0.594-0.697-0.492c-0.323,0.096-1.971,0.406-4.946,0.936    c-2.976,0.527-5.499,1.002-7.568,1.424l-1.978,0.457c4.235-7.625,8.622-15.062,13.16-22.312c0.244-0.402,0.182-0.693-0.185-0.871    c-0.366-0.176-0.672-0.061-0.915,0.342c-4.689,7.531-9.228,15.25-13.612,23.156c-1.558,0.357-2.859,0.68-3.903,0.969    c-1.123,0.295-1.991,0.574-2.605,0.842c-0.371,0.178-0.682,0.33-0.931,0.461c-0.338,0.213-0.559,0.439-0.666,0.68    c-0.15,0.283-0.191,0.619-0.123,1.006c0.088,0.23,0.232,0.479,0.434,0.742c0.298,0.416,0.741,0.9,1.334,1.457    c0.527,0.443,1.253,1.012,2.177,1.707c-2.568,4.797-5.065,9.646-7.491,14.553c-0.205,0.402-0.122,0.672,0.249,0.809    s0.659,0.004,0.864-0.398l7.339-14.25c0.957,0.734,2.533,1.807,4.727,3.219c2.731,1.777,4.508,2.957,5.329,3.539    c0.177,0.148,0.745,0.57,1.708,1.264l2.089,1.477c0.396,0.254,0.983,0.605,1.764,1.053c0.778,0.449,1.498,0.832,2.158,1.15    C249.069,497.361,249.375,497.248,249.619,496.844z M227.379,480.266c0.132-0.123,0.339-0.232,0.622-0.326    c0.614-0.268,1.443-0.545,2.489-0.836c0.84-0.199,1.82-0.447,2.943-0.742l-2.785,5.141c-0.787-0.547-1.425-1.041-1.913-1.486    c-0.562-0.479-0.959-0.891-1.188-1.23c-0.132-0.188-0.211-0.342-0.235-0.457l0.007-0.059L227.379,480.266z"/>
		<path clip-path="url(#SVGID_10_)" fill="none" stroke="#182C3A" stroke-width="1.898" stroke-miterlimit="9.147" d="    M275.211,457.195c2.369-1.924,4.501-3.232,6.39-3.918c1.889-0.688,3.444-0.787,4.665-0.305c1.479,0.59,2.424,2.068,2.832,4.436    c0.369,2.371,0.014,5.58-1.066,9.633c-1.317,5.043-3.664,10.082-7.037,15.115c-3.374,5.035-7.176,8.975-11.405,11.82    c-4.562,3.02-7.831,3.562-9.807,1.629c-0.859-0.895-1.394-2.236-1.601-4.027s-0.031-3.857,0.527-6.197    c1.212-5.117,3.257-10.236,6.137-15.361c2.841-5.123,6.191-9.178,10.051-12.16C275.115,457.652,275.22,457.43,275.211,457.195z     M262.475,471.787c-2.311,4.586-3.99,9.102-5.039,13.543c-0.578,2.498-0.757,4.74-0.535,6.725    c0.222,1.986,0.852,3.502,1.887,4.543c1.062,1.158,2.587,1.607,4.579,1.348c1.992-0.262,4.257-1.242,6.794-2.941    c4.396-2.934,8.353-7.018,11.867-12.256c3.477-5.234,5.897-10.414,7.264-15.539c1.104-4.248,1.45-7.703,1.04-10.365    c-0.41-2.66-1.542-4.355-3.393-5.08c-1.852-0.727-4.158-0.438-6.917,0.861c-2.76,1.301-5.77,3.525-9.028,6.672    c-0.18,0.205-0.266,0.424-0.255,0.66C267.538,463.258,264.784,467.201,262.475,471.787z"/>
		<path clip-path="url(#SVGID_10_)" fill="none" stroke="#182C3A" stroke-width="1.898" stroke-miterlimit="9.147" d="    M299.61,456.416c-0.403-0.037-0.668,0.143-0.794,0.541c-0.225,0.875-0.408,2.059-0.554,3.555    c-0.197,1.617-0.356,2.742-0.472,3.373c-0.025,0.199-0.179,0.98-0.463,2.346s-0.466,2.207-0.543,2.525    c-0.078,0.318-0.24,1.08-0.484,2.287c-0.246,1.209-0.408,2.049-0.484,2.521c-0.078,0.475-0.222,1.246-0.43,2.314    c-0.21,1.068-0.351,1.908-0.426,2.52s-0.189,1.371-0.338,2.279c-0.151,0.91-0.274,1.758-0.371,2.547s-0.175,1.576-0.232,2.361    l-0.131,1.064l-0.13,1.064c-0.126,1.025-0.197,1.91-0.21,2.656c-0.051,2.312,0.344,3.84,1.185,4.578    c0.416,0.41,0.962,0.381,1.641-0.086c0.419-0.258,0.905-0.732,1.456-1.428c0.862-1.023,1.911-2.605,3.144-4.748    c0.58-0.93,1.599-2.746,3.057-5.447c1.101-2.016,1.747-3.166,1.937-3.449l2.479-4.068c-0.068,0.555-0.166,1.186-0.291,1.896    c-0.055,0.121-0.52,2.162-1.394,6.125c-0.603,2.695-0.969,4.73-1.099,6.107c-0.185,2.125,0.094,3.502,0.832,4.129    c0.836,0.779,1.922,0.781,3.26,0.006c0.96-0.559,2.051-1.537,3.271-2.934c0.452-0.533,0.944-1.137,1.474-1.811    s0.959-1.254,1.291-1.742l1.126-1.586c0.375-0.529,0.587-0.834,0.637-0.914c1.638-2.279,6.591-9.59,14.859-21.93l1.981-2.865    c0.896-1.301,1.608-2.357,2.136-3.168c0.525-0.811,1.125-1.812,1.795-3.002s1.224-2.307,1.663-3.348    c0.165-0.4,0.052-0.658-0.343-0.775c-0.393-0.117-0.694,0.047-0.903,0.488c-0.395,1-0.914,2.064-1.557,3.195    c-0.644,1.131-1.216,2.08-1.718,2.852c-0.503,0.77-1.222,1.807-2.158,3.109l-1.996,2.982    c-7.244,10.955-12.153,18.225-14.728,21.807c-0.093,0.121-0.329,0.467-0.709,1.035l-1.053,1.465    c-0.332,0.488-0.752,1.059-1.258,1.711c-0.509,0.654-0.989,1.248-1.441,1.779c-1.083,1.232-2.021,2.074-2.814,2.527    s-1.42,0.496-1.878,0.129c-0.455-0.408-0.614-1.477-0.479-3.207c0.125-1.338,0.487-3.334,1.085-5.99    c0.879-4.002,1.343-6.043,1.392-6.125c0.417-2.137,0.497-3.57,0.237-4.301c-0.093-0.191-0.235-0.301-0.425-0.33    c-0.152-0.031-0.312-0.004-0.477,0.082l-0.196,0.188c-0.045,0.041-0.092,0.104-0.14,0.184c-0.049,0.082-0.12,0.182-0.212,0.305    l-0.739,1.273l-2.609,4.189c-0.191,0.285-0.839,1.455-1.945,3.51c-1.262,2.377-2.258,4.172-2.989,5.387    c-1.224,2.061-2.244,3.584-3.063,4.566c-0.42,0.57-0.776,0.941-1.069,1.113c-0.044,0.041-0.086,0.064-0.124,0.066    c-0.592-0.559-0.864-1.816-0.816-3.777c0.003-0.666,0.068-1.51,0.194-2.537l0.123-1.004l0.131-1.066    c0.058-0.785,0.135-1.562,0.229-2.332c0.095-0.768,0.217-1.605,0.367-2.516c0.149-0.908,0.263-1.668,0.339-2.279    c0.075-0.611,0.216-1.451,0.425-2.52s0.35-1.83,0.426-2.285c0.075-0.453,0.237-1.295,0.485-2.521    c0.247-1.227,0.396-1.979,0.451-2.258c0.053-0.275,0.233-1.117,0.543-2.523c0.308-1.406,0.473-2.189,0.492-2.348    c0.12-0.672,0.283-1.836,0.486-3.49c0.141-1.457,0.315-2.564,0.524-3.318C300.168,456.691,300.013,456.455,299.61,456.416z"/>
	</g>
	<g>
		<path fill="#182C3A" d="M108.854,463.212c-3.098-1.638-5.532-1.726-7.303-0.263c-1.546,1.218-2.753,3.609-3.618,7.181    c-0.569,2.42-1.046,5.832-1.431,10.239c-0.393,4.447-0.699,7.107-0.922,7.98c-1.251,5.118-3.129,9.35-5.635,12.691    c-1.54,2.118-3.356,3.789-5.447,5.017c-2.092,1.225-4.169,1.871-6.234,1.94c-2.108,0.111-3.943-0.439-5.502-1.649    c-1.564-1.171-2.625-2.956-3.186-5.356c-0.102-0.426,0.06-0.717,0.487-0.877c0.426-0.16,0.675-0.045,0.744,0.342    c0.509,2.169,1.458,3.772,2.844,4.816c1.385,1.044,2.994,1.518,4.832,1.421c1.79-0.055,3.627-0.629,5.509-1.729    c1.881-1.097,3.543-2.623,4.986-4.579c2.33-3.178,4.105-7.206,5.326-12.088c0.214-0.795,0.514-3.395,0.899-7.803    c0.396-4.486,0.899-7.959,1.513-10.42c0.909-3.926,2.268-6.621,4.079-8.086c2.327-1.885,5.256-1.882,8.788,0.009    c0.362,0.217,0.412,0.517,0.151,0.901C109.475,463.287,109.182,463.393,108.854,463.212z"/>
	</g>
	<g>
		<path fill="#182C3A" d="M119.565,465.589c1.127-0.647,3.002-1.215,5.623-1.704c2.143-0.387,4.804-0.723,7.982-1.007l0.762-0.04    l1.968-3.217c0.242-0.404,0.548-0.518,0.914-0.342c0.366,0.178,0.428,0.469,0.184,0.873l-1.594,2.551    c1.45-0.115,5.34-0.34,11.667-0.671c0.431-0.022,0.617,0.183,0.564,0.616c-0.054,0.435-0.294,0.662-0.725,0.685    c-6.562,0.344-10.665,0.579-12.31,0.704c-8.205,13.395-15.864,27.25-22.977,41.566c-0.206,0.402-0.494,0.534-0.864,0.397    c-0.371-0.137-0.454-0.406-0.25-0.809c7.011-14.116,14.55-27.788,22.618-41.021l-0.06,0.004c-3.101,0.279-5.722,0.614-7.864,0.999    c-2.462,0.443-4.194,0.965-5.199,1.565c-0.377,0.217-0.648,0.143-0.816-0.221C119.02,466.156,119.145,465.846,119.565,465.589z"/>
		<path fill="#182C3A" d="M160.823,465.719c-0.01-0.234,0.075-0.455,0.256-0.66c3.258-3.147,6.268-5.372,9.027-6.672    c2.759-1.299,5.064-1.588,6.917-0.861c1.851,0.725,2.981,2.42,3.393,5.08c0.41,2.661,0.064,6.117-1.039,10.365    c-1.367,5.124-3.789,10.305-7.265,15.539c-3.515,5.236-7.471,9.322-11.866,12.256c-2.537,1.698-4.803,2.679-6.794,2.94    c-1.992,0.261-3.519-0.188-4.579-1.347c-1.037-1.041-1.665-2.556-1.888-4.543c-0.221-1.986-0.043-4.227,0.535-6.725    c1.049-4.441,2.729-8.956,5.04-13.543C154.869,472.962,157.623,469.02,160.823,465.719z M164.981,463.619    c-3.858,2.984-7.209,7.037-10.05,12.16c-2.882,5.125-4.927,10.246-6.137,15.363c-0.56,2.34-0.735,4.405-0.527,6.195    c0.206,1.792,0.739,3.135,1.601,4.029c1.975,1.933,5.243,1.389,9.806-1.63c4.229-2.847,8.031-6.786,11.406-11.819    c3.372-5.033,5.719-10.072,7.037-15.115c1.079-4.053,1.434-7.263,1.066-9.634c-0.408-2.366-1.354-3.845-2.833-4.434    c-1.222-0.483-2.776-0.384-4.665,0.303s-4.02,1.993-6.39,3.918C165.305,463.191,165.2,463.412,164.981,463.619z"/>
		<path fill="#182C3A" d="M195.227,480.895l1.365,2.631l1.32,2.516c0.417,0.723,0.949,1.596,1.601,2.619l1.512,2.388l1.781,2.551    l1.636,2.323l1.731,2.494c0.896,1.246,1.46,2.019,1.696,2.32c0.189,0.342,0.103,0.65-0.261,0.925    c-0.363,0.273-0.662,0.259-0.897-0.042c-0.195-0.304-0.74-1.077-1.635-2.322l-1.782-2.551l-1.637-2.324l-1.775-2.608l-1.555-2.503    l-1.658-2.617l-1.373-2.572c-0.505-0.951-0.955-1.867-1.351-2.748c-2.753,5.04-6.328,11.867-10.723,20.479    c-0.206,0.401-0.492,0.534-0.864,0.397c-0.371-0.137-0.454-0.407-0.25-0.809c3.303-6.675,6.754-13.279,10.351-19.813    c-0.962,0.246-1.784,0.467-2.468,0.658c-0.439,0.102-0.672-0.062-0.696-0.492c-0.026-0.43,0.182-0.694,0.622-0.797    c1.039-0.25,2.161-0.543,3.368-0.881c3.941-7.14,7.999-14.109,12.172-20.908c-1.661-0.383-2.921-0.552-3.779-0.506    c-0.431,0.021-0.618-0.184-0.564-0.617c0.053-0.434,0.294-0.662,0.725-0.684c1.015-0.054,2.465,0.144,4.35,0.594l1.311-2.125    c0.243-0.404,0.548-0.518,0.915-0.342c0.365,0.178,0.427,0.469,0.183,0.872l-1.161,1.882c2.701,0.76,5.146,1.708,7.334,2.846    c2.585,1.395,4.289,2.832,5.117,4.315c1.075,1.98,0.644,3.923-1.298,5.825c-1.053,0.996-2.918,2.112-5.592,3.35    c-2.221,1.018-4.953,2.101-8.199,3.249C201.761,478.887,198.569,479.896,195.227,480.895z M206.645,459.497    c-4.032,6.597-7.943,13.323-11.734,20.181c3.379-0.961,6.588-1.971,9.629-3.031c3.206-1.147,5.898-2.209,8.076-3.186    c2.546-1.15,4.263-2.181,5.151-3.089c1.405-1.328,1.71-2.714,0.919-4.161c-0.729-1.333-2.298-2.621-4.706-3.867    C211.834,461.164,209.388,460.216,206.645,459.497z"/>
		<path fill="#182C3A" d="M248.646,497.189c-0.659-0.318-1.379-0.701-2.158-1.15c-0.78-0.449-1.367-0.799-1.764-1.053l-2.088-1.477    c-0.963-0.694-1.532-1.115-1.708-1.263c-0.821-0.583-2.599-1.763-5.329-3.539c-2.194-1.413-3.771-2.485-4.727-3.22l-7.339,14.25    c-0.206,0.402-0.493,0.535-0.864,0.398c-0.372-0.137-0.455-0.407-0.251-0.809c2.427-4.905,4.924-9.756,7.492-14.553    c-0.924-0.695-1.648-1.265-2.176-1.707c-0.593-0.557-1.038-1.042-1.335-1.458c-0.201-0.263-0.346-0.511-0.434-0.741    c-0.068-0.387-0.027-0.723,0.123-1.004c0.107-0.241,0.329-0.468,0.667-0.682c0.248-0.131,0.559-0.283,0.929-0.46    c0.615-0.267,1.483-0.548,2.607-0.841c1.044-0.291,2.346-0.614,3.903-0.971c4.385-7.904,8.923-15.624,13.612-23.156    c0.243-0.403,0.549-0.518,0.915-0.342c0.365,0.178,0.427,0.469,0.184,0.873c-4.538,7.248-8.925,14.686-13.159,22.309l1.977-0.455    c2.07-0.422,4.593-0.896,7.568-1.424c2.976-0.528,4.624-0.84,4.946-0.936c0.44-0.102,0.671,0.062,0.696,0.492    c0.024,0.43-0.183,0.695-0.621,0.796c-0.356,0.058-2.023,0.36-5.002,0.908c-2.86,0.542-5.365,1.026-7.514,1.452    c-1.074,0.213-2.03,0.421-2.87,0.62l-3.377,6.169c1.207,0.916,2.835,2.047,4.882,3.389c2.98,1.957,4.756,3.139,5.328,3.538    l1.767,1.259c0.963,0.693,1.642,1.169,2.037,1.422l1.68,1.027c0.757,0.471,1.468,0.844,2.133,1.123    c0.365,0.177,0.427,0.467,0.183,0.871C249.317,497.252,249.012,497.365,248.646,497.189z M227.264,480.273l-0.008,0.059    c0.023,0.117,0.103,0.27,0.234,0.457c0.229,0.341,0.625,0.752,1.188,1.23c0.488,0.445,1.127,0.939,1.913,1.486l2.785-5.139    c-1.122,0.293-2.104,0.541-2.943,0.741c-1.045,0.29-1.875,0.567-2.488,0.836c-0.284,0.093-0.492,0.201-0.622,0.325    L227.264,480.273z"/>
		<path fill="#182C3A" d="M270.622,459.964c-0.01-0.234,0.075-0.454,0.256-0.659c3.258-3.148,6.268-5.373,9.027-6.673    c2.758-1.299,5.064-1.587,6.916-0.86c1.852,0.725,2.982,2.419,3.394,5.08c0.41,2.66,0.064,6.117-1.04,10.365    c-1.367,5.123-3.788,10.304-7.264,15.538c-3.515,5.237-7.471,9.323-11.866,12.256c-2.537,1.698-4.803,2.679-6.794,2.94    c-1.992,0.261-3.519-0.188-4.58-1.346c-1.036-1.041-1.665-2.557-1.887-4.543c-0.221-1.986-0.043-4.228,0.534-6.725    c1.05-4.442,2.73-8.957,5.041-13.543C264.668,467.207,267.422,463.266,270.622,459.964z M274.779,457.865    c-3.858,2.984-7.209,7.037-10.049,12.16c-2.882,5.125-4.927,10.246-6.137,15.362c-0.56,2.341-0.735,4.405-0.528,6.196    s0.74,3.135,1.601,4.029c1.976,1.933,5.244,1.389,9.807-1.631c4.229-2.846,8.03-6.785,11.406-11.819    c3.372-5.033,5.718-10.071,7.036-15.115c1.079-4.052,1.434-7.263,1.066-9.634c-0.408-2.366-1.353-3.845-2.832-4.434    c-1.222-0.483-2.776-0.383-4.665,0.303c-1.89,0.688-4.02,1.994-6.39,3.919C275.104,457.438,274.999,457.658,274.779,457.865z"/>
		<path fill="#182C3A" d="M299.96,457.133c-0.21,0.756-0.386,1.863-0.524,3.318c-0.203,1.656-0.366,2.82-0.486,3.492    c-0.02,0.156-0.185,0.939-0.493,2.346c-0.308,1.407-0.489,2.249-0.542,2.525c-0.055,0.277-0.205,1.029-0.452,2.256    c-0.248,1.229-0.41,2.069-0.484,2.523c-0.076,0.454-0.218,1.216-0.427,2.284c-0.208,1.068-0.35,1.908-0.425,2.52    s-0.188,1.37-0.338,2.278c-0.15,0.91-0.272,1.748-0.367,2.518c-0.095,0.768-0.171,1.547-0.229,2.332l-0.131,1.064l-0.123,1.006    c-0.126,1.025-0.19,1.871-0.195,2.536c-0.048,1.962,0.225,3.22,0.817,3.776c0.038-0.002,0.08-0.023,0.125-0.066    c0.291-0.17,0.648-0.542,1.066-1.111c0.819-0.984,1.841-2.508,3.065-4.568c0.731-1.213,1.727-3.008,2.989-5.385    c1.105-2.057,1.755-3.227,1.944-3.51l2.61-4.191l0.739-1.271c0.092-0.123,0.162-0.225,0.211-0.305    c0.049-0.082,0.095-0.143,0.139-0.185l0.199-0.187c0.165-0.088,0.323-0.115,0.475-0.084c0.19,0.029,0.333,0.14,0.427,0.33    c0.258,0.73,0.18,2.164-0.238,4.302c-0.049,0.081-0.514,2.122-1.393,6.124c-0.598,2.656-0.959,4.654-1.084,5.99    c-0.136,1.732,0.024,2.801,0.479,3.207c0.46,0.368,1.086,0.324,1.88-0.127c0.792-0.453,1.729-1.295,2.812-2.527    c0.453-0.531,0.934-1.127,1.441-1.78c0.507-0.652,0.926-1.224,1.258-1.71l1.053-1.465c0.381-0.568,0.616-0.914,0.71-1.037    c2.574-3.582,7.482-10.85,14.728-21.806l1.997-2.982c0.935-1.303,1.655-2.339,2.157-3.109c0.501-0.77,1.073-1.722,1.717-2.853    c0.643-1.129,1.162-2.194,1.557-3.195c0.21-0.44,0.513-0.604,0.904-0.487c0.395,0.116,0.507,0.376,0.343,0.775    c-0.439,1.042-0.993,2.157-1.664,3.348c-0.67,1.19-1.269,2.192-1.795,3.003c-0.526,0.812-1.238,1.867-2.135,3.166l-1.982,2.865    c-8.268,12.342-13.222,19.651-14.859,21.93c-0.049,0.082-0.261,0.387-0.636,0.914l-1.126,1.587    c-0.332,0.487-0.764,1.068-1.291,1.742c-0.529,0.675-1.021,1.279-1.475,1.812c-1.219,1.396-2.31,2.374-3.271,2.933    c-1.337,0.774-2.424,0.773-3.26-0.006c-0.737-0.627-1.015-2.003-0.832-4.128c0.131-1.377,0.497-3.413,1.101-6.109    c0.873-3.963,1.338-6.004,1.392-6.124c0.126-0.712,0.224-1.343,0.292-1.895l-2.479,4.065c-0.191,0.284-0.837,1.434-1.938,3.451    c-1.458,2.7-2.476,4.516-3.057,5.447c-1.232,2.142-2.281,3.724-3.144,4.748c-0.553,0.695-1.038,1.17-1.456,1.427    c-0.68,0.466-1.226,0.495-1.641,0.086c-0.841-0.739-1.236-2.265-1.186-4.579c0.014-0.744,0.085-1.629,0.211-2.654l0.13-1.064    l0.131-1.064c0.058-0.787,0.135-1.574,0.232-2.363c0.097-0.787,0.22-1.637,0.37-2.545c0.149-0.908,0.263-1.668,0.338-2.279    c0.074-0.611,0.217-1.451,0.426-2.52c0.208-1.068,0.352-1.84,0.431-2.315c0.076-0.474,0.238-1.313,0.483-2.521    c0.246-1.209,0.407-1.97,0.485-2.288c0.077-0.316,0.258-1.159,0.543-2.525c0.284-1.366,0.438-2.147,0.462-2.346    c0.116-0.632,0.274-1.757,0.473-3.374c0.145-1.494,0.329-2.68,0.553-3.553c0.127-0.398,0.392-0.579,0.795-0.541    C299.896,456.461,300.051,456.697,299.96,457.133z"/>
	</g>
	<g>
		<defs>
			<rect id="SVGID_11_" width="574.129" height="531.168"/>
		</defs>
		<clipPath id="SVGID_12_">
			<use xlink:href="#SVGID_11_" overflow="visible"/>
		</clipPath>
		<path clip-path="url(#SVGID_12_)" fill="none" stroke="#182C3A" stroke-width="1.898" stroke-miterlimit="9.147" d="    M361.434,457.113c-0.214-0.166-0.424-0.125-0.63,0.123c-0.75,0.865-1.482,1.938-2.195,3.217c-0.713,1.277-1.235,2.309-1.565,3.094    l-1.433,3.443c-2.337,5.676-3.771,11.586-4.306,17.729c-0.535,6.145-0.062,11.879,1.421,17.209    c0.056,0.262,0.229,0.334,0.522,0.215c0.292-0.119,0.398-0.324,0.317-0.613c-1.439-5.213-1.89-10.84-1.353-16.879    c0.536-6.039,1.952-11.854,4.248-17.439c0.596-1.508,1.058-2.654,1.389-3.439s0.834-1.779,1.508-2.982    c0.675-1.201,1.37-2.221,2.088-3.055C361.651,457.486,361.647,457.279,361.434,457.113z"/>
		<path clip-path="url(#SVGID_12_)" fill="none" stroke="#182C3A" stroke-width="1.898" stroke-miterlimit="9.147" d="    M362.849,492.246c0.298,0.088,0.508-0.02,0.633-0.322c2.824-6.086,6.992-14.162,12.503-24.229l3.06-5.611l0.436-0.688    c-0.113,0.686-0.249,1.551-0.406,2.592c-0.449,2.949-0.817,5.701-1.102,8.256c-0.183,1.723-0.313,3.148-0.393,4.275    c-0.051,0.65-0.078,1.109-0.082,1.377c0.004,0.207,0.013,0.369,0.029,0.484l0.065,0.174c0.07,0.146,0.162,0.23,0.277,0.252    c0.224,0.078,0.493,0.033,0.806-0.131c0.188-0.098,0.397-0.256,0.629-0.475c0.331-0.314,0.757-0.793,1.275-1.441    c0.135-0.154,0.764-0.984,1.886-2.492c0.803-1.047,2.187-2.779,4.152-5.201s3.737-4.457,5.315-6.107    c0.945-1.023,1.713-1.787,2.302-2.291c0.322-0.254,0.579-0.43,0.767-0.529l0.044-0.002c-0.024,0.209-0.109,0.539-0.253,0.988    c-0.36,1.025-1.058,2.537-2.094,4.541l-1.142,2.145l-0.236,0.5c-0.004,0.029-0.023,0.059-0.056,0.09l-0.011,0.09l-0.006,0.045    c-0.033,0.031-0.051,0.061-0.055,0.09l-0.298,0.637l-4.167,8.195c-0.662,1.334-1.54,3.359-2.635,6.076    c-1.135,2.807-1.981,4.814-2.54,6.027c-0.157,0.332-0.089,0.543,0.208,0.631c0.296,0.088,0.508-0.02,0.633-0.322    c0.517-1.119,1.382-3.158,2.595-6.117c1.05-2.596,1.91-4.59,2.579-5.984l4.167-8.195c1.105-2.096,1.695-3.205,1.77-3.328    l0.011-0.088l0.056-0.092l0.017-0.135c1.04-2.031,1.741-3.576,2.105-4.629c0.183-0.543,0.293-0.961,0.33-1.258    c0.024-0.445-0.115-0.732-0.421-0.865c-0.247-0.135-0.561-0.088-0.939,0.139c-0.28,0.133-0.6,0.355-0.96,0.67    c-0.648,0.508-1.461,1.289-2.439,2.344c-1.583,1.678-3.364,3.736-5.347,6.174c-1.983,2.438-3.376,4.195-4.181,5.271    c-1.155,1.537-1.782,2.352-1.881,2.445c-0.453,0.586-0.844,1.02-1.17,1.303c-0.071,0.092-0.138,0.154-0.199,0.188l0.031-1.33    c0.095-1.01,0.236-2.406,0.427-4.188c0.354-3.121,0.721-5.873,1.102-8.256c0.252-1.578,0.428-2.77,0.526-3.572    c0.048-0.387,0.068-0.684,0.064-0.891c0.012-0.09,0.008-0.178-0.011-0.266c0.007-0.059-0.002-0.102-0.028-0.131    c-0.062-0.203-0.196-0.299-0.402-0.289c-0.118,0.006-0.226,0.041-0.32,0.105l-0.1,0.094c-0.003,0.031-0.015,0.053-0.03,0.068    c-0.017,0.016-0.027,0.039-0.03,0.068c-0.034,0.031-0.068,0.076-0.104,0.137l-0.331,0.551l-1.07,1.918l-3.064,5.654    c-5.562,10.246-9.729,18.322-12.504,24.229C362.483,491.947,362.552,492.158,362.849,492.246z"/>
		<path clip-path="url(#SVGID_12_)" fill="none" stroke="#182C3A" stroke-width="1.898" stroke-miterlimit="9.147" d="    M427.526,464.152c0.004-0.029,0.042-0.105,0.116-0.229l1.029-2.314c0.64-1.627,0.895-2.867,0.765-3.717    c-0.101-0.615-0.384-1.051-0.85-1.309c-0.467-0.256-1.09-0.303-1.87-0.145c-0.99,0.201-2.033,0.588-3.129,1.162    c-1.095,0.574-1.998,1.131-2.707,1.67c-0.711,0.539-1.555,1.219-2.533,2.039c-4.309,3.623-8.291,7.922-11.946,12.898    c-1.655-1.301-2.831-2.449-3.528-3.447c-0.225-0.312-0.516-0.328-0.873-0.043c-0.356,0.283-0.423,0.584-0.198,0.896    c0.774,1.082,2.044,2.316,3.806,3.699c-1.276,1.811-2.52,3.707-3.729,5.689c-1.275,2.049-2.548,4.537-3.814,7.469    c-0.82,1.904-1.323,3.393-1.515,4.467c-0.112,0.684-0.107,1.23,0.019,1.639c0.225,0.549,0.646,0.809,1.266,0.775    c0.412-0.021,0.645-0.242,0.695-0.658s-0.129-0.613-0.542-0.592c-0.118,0.008-0.187-0.033-0.204-0.121    c-0.089-0.232-0.089-0.588-0.001-1.064c0.175-0.955,0.636-2.322,1.382-4.104c1.223-2.812,2.459-5.254,3.71-7.33    c1.168-1.893,2.388-3.713,3.656-5.465c1.961,1.434,4.578,3.129,7.85,5.084c0.328,0.189,0.617,0.1,0.867-0.268    s0.211-0.645-0.117-0.836c-3.271-1.955-5.874-3.65-7.805-5.086c3.589-4.914,7.488-9.135,11.697-12.666    c1.501-1.26,2.854-2.275,4.062-3.049c1.207-0.771,2.425-1.279,3.655-1.52c0.508-0.086,0.872-0.076,1.094,0.031    c0.191,0.107,0.313,0.309,0.365,0.602c0.097,0.645-0.131,1.66-0.682,3.049c-0.209,0.512-0.469,1.072-0.777,1.68    c-0.003,0.029-0.066,0.182-0.188,0.453l-0.05,0.047l-0.011,0.088l-0.055,0.094c0.004-0.031,0.021-0.061,0.055-0.094l-0.055,0.094    l-0.11,0.182l-1.527,2.783l-0.006,0.045c-0.298,0.518-0.48,0.822-0.551,0.914c-0.269,0.518-0.701,1.293-1.296,2.328l-1.34,2.33    l-8.694,16.098l-1.647,3.057c-0.155,0.303-0.251,0.484-0.287,0.547l-0.051,0.047l-0.011,0.09c-0.037,0.059-0.057,0.105-0.06,0.135    c-0.03,0.475,0.197,0.654,0.68,0.541c0.15-0.037,0.276-0.104,0.375-0.197c0.004-0.031,0.022-0.061,0.055-0.092l0.051-0.047    l0.061-0.135l5.254-9.537c0.003-0.029,0.022-0.061,0.055-0.092l4.599-8.484l3.848-7.025c0.004-0.029,0.021-0.045,0.05-0.047    L427.526,464.152z"/>
		<path clip-path="url(#SVGID_12_)" fill="none" stroke="#182C3A" stroke-width="1.898" stroke-miterlimit="9.147" d="    M449.557,470.309c2.448-0.865,4.511-1.684,6.186-2.451c2.017-0.932,3.423-1.775,4.217-2.525c1.464-1.436,1.79-2.898,0.979-4.393    c-0.624-1.121-1.91-2.205-3.859-3.254c-1.651-0.859-3.495-1.576-5.532-2.148l0.876-1.42c0.185-0.305,0.138-0.523-0.138-0.658    c-0.277-0.133-0.507-0.047-0.691,0.26l-0.986,1.602c-1.422-0.338-2.517-0.488-3.282-0.449c-0.324,0.018-0.506,0.189-0.546,0.518    s0.101,0.48,0.426,0.465c0.648-0.035,1.598,0.094,2.851,0.383c-3.147,5.127-6.208,10.383-9.181,15.768    c-0.909,0.256-1.756,0.477-2.54,0.666c-0.332,0.076-0.489,0.277-0.469,0.6c0.018,0.326,0.192,0.449,0.524,0.373    c0.516-0.146,1.137-0.312,1.861-0.498c-2.713,4.928-5.314,9.91-7.806,14.943c-0.155,0.305-0.092,0.508,0.188,0.611    c0.28,0.104,0.497,0.002,0.652-0.301c3.313-6.494,6.01-11.643,8.087-15.445c0.299,0.664,0.639,1.355,1.02,2.074l1.034,1.939    l1.251,1.973l1.174,1.889l1.339,1.967l1.233,1.752l1.344,1.926c0.676,0.938,1.087,1.521,1.234,1.752    c0.176,0.227,0.402,0.236,0.677,0.029c0.273-0.207,0.339-0.438,0.195-0.695c-0.177-0.229-0.603-0.811-1.278-1.75l-1.306-1.881    l-1.234-1.752l-1.344-1.926l-1.14-1.801c-0.491-0.771-0.894-1.43-1.206-1.975l-0.997-1.898l-1.029-1.982    C444.861,471.84,447.268,471.078,449.557,470.309z M456.483,458.602c1.816,0.939,2.999,1.912,3.55,2.916    c0.597,1.092,0.366,2.137-0.693,3.139c-0.67,0.686-1.965,1.461-3.887,2.33c-1.642,0.736-3.672,1.537-6.09,2.402    c-2.294,0.801-4.714,1.561-7.262,2.287c2.858-5.174,5.809-10.246,8.85-15.221C453.021,456.996,454.865,457.711,456.483,458.602z"/>
		<path clip-path="url(#SVGID_12_)" fill="none" stroke="#182C3A" stroke-width="1.898" stroke-miterlimit="9.147" d="    M485.529,484.508c0.183-0.303,0.137-0.521-0.14-0.656c-0.501-0.209-1.036-0.492-1.607-0.846l-1.267-0.775    c-0.299-0.191-0.811-0.549-1.536-1.072l-1.332-0.949c-0.433-0.303-1.772-1.191-4.02-2.67c-1.545-1.012-2.771-1.863-3.682-2.555    l2.547-4.652c0.633-0.15,1.354-0.309,2.165-0.469c1.62-0.32,3.509-0.686,5.666-1.094c2.246-0.414,3.504-0.643,3.772-0.686    c0.331-0.076,0.487-0.275,0.47-0.602c-0.021-0.322-0.194-0.447-0.526-0.371c-0.243,0.072-1.486,0.307-3.729,0.705    c-2.245,0.398-4.148,0.758-5.708,1.076l-1.492,0.344c3.193-5.752,6.503-11.361,9.926-16.828c0.183-0.305,0.137-0.523-0.139-0.658    c-0.277-0.133-0.508-0.047-0.69,0.258c-3.537,5.682-6.96,11.502-10.267,17.467c-1.176,0.268-2.156,0.512-2.944,0.73    c-0.847,0.221-1.502,0.434-1.966,0.633c-0.28,0.135-0.515,0.25-0.701,0.348c-0.255,0.162-0.422,0.334-0.502,0.514    c-0.114,0.213-0.146,0.467-0.093,0.758c0.065,0.174,0.175,0.361,0.326,0.561c0.225,0.312,0.56,0.68,1.007,1.1    c0.397,0.332,0.944,0.762,1.642,1.287c-1.937,3.617-3.821,7.275-5.651,10.975c-0.153,0.305-0.091,0.508,0.189,0.611    c0.279,0.102,0.497,0.002,0.651-0.301l5.534-10.748c0.723,0.555,1.911,1.363,3.566,2.428c2.059,1.34,3.399,2.23,4.019,2.67    c0.133,0.111,0.562,0.43,1.288,0.951l1.575,1.115c0.299,0.191,0.742,0.455,1.33,0.795c0.587,0.338,1.13,0.627,1.628,0.867    C485.115,484.9,485.345,484.814,485.529,484.508z M468.755,472.006c0.1-0.094,0.255-0.176,0.469-0.246    c0.465-0.201,1.091-0.412,1.879-0.631c0.633-0.15,1.372-0.338,2.22-0.559l-2.102,3.877c-0.593-0.412-1.073-0.787-1.442-1.121    c-0.424-0.361-0.724-0.672-0.896-0.928c-0.1-0.143-0.16-0.258-0.178-0.346l0.006-0.045L468.755,472.006z"/>
		<path clip-path="url(#SVGID_12_)" fill="none" stroke="#182C3A" stroke-width="1.898" stroke-miterlimit="9.147" d="    M490.885,495.418c0.229,0.148,0.433,0.102,0.61-0.145c0.701-0.953,1.372-2.059,2.01-3.316c0.638-1.26,1.125-2.312,1.464-3.156    c0.227-0.662,0.646-1.822,1.261-3.479c2.074-5.691,3.241-11.617,3.5-17.775c0.261-6.188-0.509-11.834-2.311-16.939    c-0.085-0.262-0.269-0.326-0.547-0.193c-0.28,0.133-0.378,0.33-0.292,0.592c1.751,5.049,2.502,10.607,2.255,16.676    c-0.248,6.07-1.404,11.906-3.468,17.508c-0.5,1.445-0.91,2.588-1.233,3.434c-0.323,0.844-0.777,1.857-1.361,3.039    c-0.614,1.186-1.254,2.223-1.919,3.113C490.644,495.053,490.653,495.266,490.885,495.418z"/>
	</g>
	<g>
		<path fill="#182C3A" d="M361.444,457.733c-0.717,0.836-1.412,1.854-2.087,3.056c-0.675,1.203-1.178,2.197-1.508,2.982    s-0.793,1.933-1.388,3.44c-2.297,5.586-3.713,11.398-4.249,17.438c-0.537,6.04-0.086,11.666,1.352,16.878    c0.082,0.291-0.023,0.496-0.316,0.615c-0.292,0.118-0.467,0.047-0.521-0.216c-1.483-5.329-1.957-11.064-1.422-17.209    c0.533-6.143,1.969-12.052,4.307-17.729l1.432-3.442c0.33-0.784,0.853-1.817,1.565-3.096c0.713-1.277,1.444-2.351,2.194-3.217    c0.206-0.247,0.416-0.288,0.631-0.122C361.646,457.28,361.65,457.486,361.444,457.733z"/>
		<path fill="#182C3A" d="M362.642,491.615c2.773-5.906,6.94-13.982,12.502-24.23l3.065-5.654l1.07-1.918l0.33-0.549    c0.037-0.062,0.071-0.107,0.105-0.139c0.004-0.029,0.014-0.053,0.029-0.068c0.017-0.015,0.027-0.037,0.031-0.068l0.1-0.094    c0.096-0.063,0.202-0.1,0.32-0.105c0.205-0.011,0.34,0.087,0.403,0.289c0.025,0.029,0.035,0.072,0.027,0.132    c0.019,0.087,0.023,0.177,0.013,0.265c0.002,0.207-0.019,0.504-0.066,0.89c-0.099,0.804-0.274,1.995-0.526,3.573    c-0.38,2.383-0.748,5.135-1.102,8.256c-0.19,1.782-0.332,3.18-0.427,4.188l-0.031,1.331c0.062-0.032,0.129-0.097,0.197-0.188    c0.328-0.283,0.719-0.717,1.172-1.301c0.099-0.095,0.726-0.91,1.881-2.447c0.805-1.076,2.198-2.834,4.182-5.271    c1.981-2.438,3.764-4.495,5.346-6.174c0.979-1.055,1.791-1.836,2.438-2.342c0.36-0.315,0.682-0.539,0.962-0.672    c0.379-0.227,0.691-0.273,0.938-0.139c0.305,0.133,0.446,0.42,0.421,0.865c-0.037,0.298-0.147,0.717-0.33,1.258    c-0.363,1.054-1.066,2.596-2.105,4.631l-0.017,0.133l-0.056,0.092l-0.012,0.088c-0.072,0.123-0.662,1.232-1.769,3.328    l-4.167,8.196c-0.669,1.394-1.529,3.388-2.579,5.983c-1.213,2.959-2.077,4.998-2.595,6.118c-0.126,0.302-0.337,0.409-0.633,0.321    c-0.297-0.088-0.367-0.298-0.208-0.631c0.559-1.211,1.405-3.221,2.54-6.027c1.096-2.717,1.973-4.741,2.635-6.076l4.167-8.195    l0.298-0.635c0.003-0.029,0.021-0.061,0.055-0.092l0.005-0.045l0.011-0.088c0.033-0.031,0.053-0.062,0.057-0.093l0.236-0.499    l1.142-2.144c1.037-2.003,1.734-3.517,2.095-4.541c0.143-0.45,0.227-0.779,0.252-0.987l-0.044,0.002    c-0.187,0.099-0.444,0.275-0.768,0.527c-0.589,0.505-1.355,1.268-2.301,2.291c-1.579,1.65-3.35,3.685-5.315,6.106    c-1.966,2.423-3.35,4.157-4.15,5.202c-1.124,1.508-1.752,2.338-1.888,2.492c-0.519,0.647-0.944,1.129-1.275,1.441    c-0.231,0.219-0.44,0.378-0.629,0.476c-0.312,0.165-0.582,0.208-0.806,0.131c-0.114-0.022-0.207-0.107-0.276-0.251l-0.067-0.174    c-0.016-0.117-0.024-0.279-0.028-0.486c0.004-0.266,0.03-0.726,0.082-1.378c0.079-1.126,0.21-2.552,0.393-4.274    c0.284-2.555,0.652-5.308,1.102-8.256c0.157-1.041,0.293-1.905,0.406-2.59l-0.436,0.686l-3.06,5.611    c-5.511,10.068-9.678,18.145-12.504,24.229c-0.123,0.302-0.334,0.409-0.631,0.321S362.483,491.947,362.642,491.615z"/>
	</g>
	<g>
		<path fill="#182C3A" d="M425.883,467.164c-0.029,0.002-0.045,0.018-0.049,0.047l-3.849,7.026l-4.599,8.482    c-0.032,0.031-0.051,0.062-0.055,0.091l-5.254,9.538l-0.061,0.136l-0.05,0.046c-0.033,0.031-0.052,0.062-0.056,0.093    c-0.1,0.093-0.225,0.159-0.376,0.196c-0.481,0.114-0.709-0.067-0.68-0.54c0.004-0.03,0.023-0.076,0.061-0.136l0.011-0.089    l0.051-0.048c0.035-0.062,0.132-0.243,0.286-0.547l1.648-3.055l8.694-16.099l1.34-2.329c0.595-1.036,1.027-1.812,1.296-2.329    c0.069-0.092,0.253-0.396,0.551-0.914l0.006-0.045l1.527-2.783l0.109-0.183l0.056-0.093c-0.033,0.032-0.052,0.063-0.056,0.093    l0.056-0.093l0.012-0.089l0.049-0.047c0.122-0.272,0.185-0.423,0.188-0.452c0.309-0.607,0.567-1.168,0.777-1.682    c0.551-1.386,0.778-2.402,0.682-3.047c-0.051-0.294-0.174-0.494-0.365-0.604c-0.221-0.105-0.586-0.115-1.094-0.03    c-1.23,0.241-2.449,0.749-3.655,1.521c-1.208,0.771-2.562,1.788-4.062,3.049c-4.21,3.528-8.108,7.751-11.698,12.666    c1.932,1.435,4.533,3.13,7.806,5.086c0.328,0.189,0.366,0.468,0.117,0.836c-0.25,0.367-0.539,0.456-0.867,0.267    c-3.272-1.956-5.89-3.649-7.85-5.085c-1.269,1.751-2.487,3.573-3.655,5.467c-1.252,2.074-2.488,4.517-3.711,7.328    c-0.746,1.782-1.207,3.149-1.382,4.104c-0.088,0.478-0.088,0.831,0.001,1.063c0.019,0.087,0.086,0.128,0.204,0.122    c0.412-0.021,0.593,0.176,0.542,0.593c-0.052,0.416-0.283,0.635-0.695,0.656c-0.619,0.032-1.04-0.227-1.266-0.774    c-0.126-0.408-0.131-0.955-0.019-1.64c0.19-1.073,0.695-2.562,1.514-4.467c1.268-2.931,2.538-5.421,3.815-7.466    c1.21-1.983,2.452-3.881,3.729-5.691c-1.763-1.384-3.031-2.617-3.805-3.7c-0.226-0.312-0.16-0.611,0.198-0.896    c0.356-0.284,0.647-0.27,0.872,0.044c0.697,0.998,1.873,2.146,3.528,3.447c3.655-4.977,7.638-9.277,11.945-12.9    c0.979-0.819,1.824-1.498,2.534-2.038c0.71-0.539,1.612-1.096,2.708-1.671c1.095-0.573,2.138-0.96,3.128-1.16    c0.78-0.158,1.402-0.11,1.87,0.146c0.466,0.257,0.749,0.691,0.85,1.306c0.13,0.853-0.124,2.09-0.763,3.72l-1.031,2.312    c-0.074,0.124-0.112,0.199-0.115,0.229L425.883,467.164z"/>
	</g>
	<g>
		<path fill="#182C3A" d="M442.34,472.594l1.029,1.984l0.998,1.898c0.312,0.544,0.716,1.202,1.206,1.976l1.14,1.8l1.345,1.925    l1.233,1.751l1.306,1.882c0.675,0.939,1.101,1.522,1.277,1.75c0.146,0.258,0.079,0.49-0.195,0.697    c-0.273,0.206-0.499,0.195-0.676-0.031c-0.147-0.229-0.56-0.813-1.234-1.752l-1.344-1.925l-1.233-1.752l-1.34-1.968l-1.174-1.888    l-1.25-1.974l-1.035-1.938c-0.381-0.72-0.72-1.41-1.019-2.074c-2.076,3.802-4.772,8.95-8.088,15.445    c-0.154,0.304-0.372,0.404-0.651,0.3c-0.28-0.104-0.342-0.308-0.188-0.61c2.49-5.034,5.093-10.016,7.806-14.943    c-0.726,0.187-1.346,0.352-1.86,0.496c-0.333,0.077-0.508-0.047-0.526-0.371s0.138-0.523,0.469-0.601    c0.785-0.188,1.632-0.41,2.54-0.664c2.974-5.386,6.034-10.642,9.182-15.77c-1.253-0.289-2.204-0.417-2.852-0.383    c-0.324,0.018-0.465-0.138-0.425-0.465s0.222-0.498,0.546-0.516c0.766-0.04,1.859,0.109,3.282,0.448l0.986-1.603    c0.184-0.306,0.414-0.391,0.69-0.258s0.323,0.353,0.139,0.657l-0.877,1.42c2.037,0.572,3.882,1.288,5.532,2.147    c1.949,1.049,3.235,2.134,3.86,3.254c0.811,1.493,0.484,2.958-0.979,4.393c-0.795,0.751-2.202,1.594-4.219,2.526    c-1.676,0.768-3.736,1.585-6.185,2.45C447.269,471.08,444.862,471.842,442.34,472.594z M450.951,456.456    c-3.04,4.976-5.99,10.048-8.85,15.221c2.548-0.726,4.969-1.487,7.262-2.287c2.418-0.864,4.448-1.665,6.092-2.402    c1.921-0.868,3.215-1.645,3.887-2.33c1.059-1.001,1.288-2.047,0.691-3.138c-0.551-1.005-1.732-1.978-3.549-2.916    C454.865,457.713,453.021,456.997,450.951,456.456z"/>
		<path fill="#182C3A" d="M484.84,484.769c-0.498-0.24-1.041-0.529-1.629-0.868c-0.588-0.338-1.031-0.604-1.328-0.794l-1.576-1.114    c-0.727-0.521-1.155-0.84-1.288-0.951c-0.619-0.439-1.96-1.331-4.019-2.67c-1.655-1.065-2.844-1.874-3.566-2.428l-5.535,10.748    c-0.153,0.303-0.371,0.403-0.651,0.3s-0.342-0.308-0.188-0.611c1.829-3.699,3.713-7.356,5.65-10.975    c-0.697-0.524-1.244-0.953-1.643-1.287c-0.446-0.42-0.782-0.786-1.006-1.1c-0.152-0.199-0.262-0.385-0.327-0.56    c-0.053-0.292-0.021-0.545,0.093-0.758c0.081-0.182,0.248-0.352,0.503-0.513c0.188-0.1,0.421-0.215,0.701-0.348    c0.463-0.201,1.118-0.413,1.965-0.635c0.788-0.218,1.77-0.462,2.944-0.73c3.307-5.962,6.73-11.786,10.268-17.465    c0.183-0.306,0.413-0.392,0.689-0.258c0.276,0.133,0.323,0.353,0.139,0.657c-3.423,5.467-6.731,11.076-9.925,16.826l1.49-0.344    c1.561-0.317,3.465-0.676,5.709-1.074s3.487-0.632,3.73-0.705c0.331-0.076,0.507,0.048,0.525,0.371    c0.019,0.324-0.138,0.524-0.469,0.601c-0.269,0.044-1.526,0.272-3.772,0.686c-2.157,0.407-4.046,0.772-5.667,1.095    c-0.81,0.161-1.531,0.317-2.165,0.468l-2.547,4.653c0.911,0.69,2.139,1.542,3.683,2.555c2.248,1.477,3.587,2.367,4.019,2.669    l1.332,0.949c0.727,0.523,1.237,0.881,1.537,1.072l1.267,0.775c0.57,0.354,1.106,0.637,1.607,0.847    c0.276,0.134,0.322,0.353,0.14,0.657C485.346,484.814,485.115,484.901,484.84,484.769z M468.711,472.009l-0.005,0.045    c0.019,0.088,0.077,0.203,0.178,0.346c0.172,0.257,0.472,0.566,0.895,0.929c0.37,0.335,0.851,0.708,1.443,1.12l2.102-3.877    c-0.848,0.222-1.587,0.409-2.22,0.56c-0.789,0.219-1.414,0.429-1.879,0.63c-0.213,0.07-0.369,0.152-0.469,0.246L468.711,472.009z"/>
		<path fill="#182C3A" d="M490.854,494.777c0.666-0.892,1.306-1.93,1.92-3.114c0.583-1.182,1.038-2.195,1.36-3.04    c0.323-0.844,0.734-1.987,1.234-3.433c2.063-5.602,3.22-11.438,3.466-17.508c0.247-6.068-0.503-11.627-2.255-16.677    c-0.085-0.26,0.012-0.457,0.292-0.59s0.462-0.069,0.547,0.192c1.804,5.105,2.573,10.751,2.312,16.939    c-0.259,6.159-1.426,12.083-3.5,17.775c-0.613,1.656-1.033,2.816-1.262,3.479c-0.338,0.844-0.824,1.896-1.463,3.156    c-0.638,1.259-1.308,2.365-2.01,3.317c-0.177,0.245-0.381,0.293-0.609,0.143C490.656,495.268,490.646,495.055,490.854,494.777z"/>
	</g>
</g>
</svg>