<?xml version="1.0" encoding="utf-8"?>
<!-- Generator: Adobe Illustrator 16.0.0, SVG Export Plug-In . SVG Version: 6.00 Build 0)  -->
<!DOCTYPE svg PUBLIC "-//W3C//DTD SVG 1.1//EN" "http://www.w3.org/Graphics/SVG/1.1/DTD/svg11.dtd">
<svg version="1.1" id="Ebene_1" xmlns="http://www.w3.org/2000/svg" xmlns:xlink="http://www.w3.org/1999/xlink" x="0px" y="0px"
	 width="481px" height="587.5px" viewBox="35 0 481 587.5" enable-background="new 35 0 481 587.5" xml:space="preserve">
<g>
	<defs>
		<rect id="SVGID_1_" x="43" y="3.563" width="464.342" height="578.437"/>
	</defs>
	<clipPath id="SVGID_2_">
		<use xlink:href="#SVGID_1_"  overflow="visible"/>
	</clipPath>
	<path clip-path="url(#SVGID_2_)" fill="#FFFFFF" d="M83.382,235.633c-7.535-19.531-8.815-26.114-9.261-39.341
		c-1.804-56.926,17.07-73.371,42.534-104.362c17.041-20.74,35.45-34.111,59.707-48.237c24.993-13.664,21.872-13.603,50.045-25.365
		c6.325-2.801,44.799-15.539,58.81-14.726c45.172-0.931,90.604,32.456,120.85,71.18c21.098,27.017,38.962,49.065,53.465,88.721
		c6.879,17.671,5.365,45.488,3.927,61.714c-8.567,25.346-10.886,34.26-21.302,58.813c-14.82,34.953-32.271,71.405-65.797,90.042
		c-72.727,40.434-139.807,29.183-207.344-21.414C128.353,322.187,104.425,281.627,83.382,235.633"/>
	<path clip-path="url(#SVGID_2_)" fill="#1C2F3C" d="M171.023,204.111c0.083,4.958-0.003,9.98-0.258,15.065
		c-0.169,6.858-1.345,21.041-3.526,42.547c-0.552,6-0.905,15.961-1.056,29.882c-1.558,4.839-2.194,7.874-1.911,9.102
		c0.601,2.599,2.744,4.195,6.432,4.786c-0.032-0.142,0.038-0.232,0.213-0.273l0.985-0.228c1.203,0.619,2.248,0.851,3.135,0.695
		c0.436-0.102,1.094-0.651,1.971-1.649c0.393,0.108,0.678,0.143,0.854,0.102c0.832-0.191,2.353-1.688,4.566-4.488
		c2.025-1.215,2.951-2.199,2.776-2.956c0.504-0.612,3.652-3.157,9.444-7.63c1.742-2.442,6.144-6.047,13.206-10.813
		c-0.076-0.33-0.274-0.483-0.59-0.461l-1.511,0.35l-0.46,0.404l-0.393-0.506l2.005-3.002l-0.065-0.284
		c-1.237,0.835-1.944,1.271-2.119,1.312l-0.591-0.163c0.92-1.406,1.369-2.156,1.347-2.252l-1.724,0.623l-0.459,0.104
		c-0.272-1.18,0.073-2.678,1.038-4.494c-12,6.951-20.588,11.696-25.766,14.235c-0.044-0.188-0.154-0.263-0.328-0.223
		c0.054-0.561,0.169-0.861,0.345-0.901c-0.116-5.896-0.064-9.565,0.155-11.01c-0.065-0.284-0.279-0.408-0.64-0.375l0.395-1.585
		l-0.639-0.673l-0.066-0.284c0.625-1.886,0.916-2.923,0.873-3.113l-0.967-1.792l-0.049-0.213l1.248-0.288
		c0.35-0.081,0.482-0.31,0.395-0.688l-0.131-0.567c-0.066-0.284-0.285-0.431-0.657-0.446l0.543-1.245l-0.066-0.284l-0.262,0.062
		l-0.442-1.914l-0.377-0.436c0.646-1.194,0.828-2.405,0.544-3.634c1.37-1.858,1.957-3.513,1.76-4.96
		c-0.307,0.071-0.525-0.077-0.656-0.446l-0.262-1.133c0.394-0.091,0.728-0.243,1.002-0.455l0.974-7.168
		c-0.087-0.377-0.372-0.511-0.853-0.401l-0.115-0.495c-0.109-0.472-0.061-1.354,0.149-2.647c0.735-2.21,0.993-4.584,0.777-7.123
		c0.651-8.761,1.202-13.666,1.651-14.716c-0.227-4.577,0.12-6.971,1.039-7.183l-0.129-0.567c-0.833-0.405-1.648-1.635-2.444-3.691
		c-3.359-1.763-6-2.422-7.927-1.977C172.266,201.809,171.472,202.664,171.023,204.111"/>
	<path clip-path="url(#SVGID_2_)" fill="#1C2F3C" d="M235.641,272.335l-0.335,0.828l-0.705,0.21l0.336-0.829L235.641,272.335z
		 M247.123,248.977l0.276,0.465l-0.612,0.365l-0.276-0.466L247.123,248.977z M255.49,274.01c-0.138-0.233-0.78-0.356-0.683-0.659
		l0.129-0.271l-0.185-0.31c-3.415-7.132-4.953-11.517-4.613-13.152l-0.899-1.512c-0.292-0.49-0.442-1.206-0.449-2.146
		c-0.327-0.085-0.521-0.18-0.583-0.283l0.306-0.182l0.083-4.562l-0.668-0.6c0.111-0.625,0.269-0.999,0.473-1.121
		c-0.13-1.146-0.004-2.097,0.377-2.848l-1.167-0.565c-0.282-1.055-0.169-1.735,0.341-2.039l-0.39-0.135l-0.186-0.31
		c0.928-1.111,1.308-1.809,1.138-2.094c0.597-2.593,0.881-3.916,0.85-3.968c0.395-0.147,0.191-1.022,1.067-1.224
		c0.472-1.953,0.457-1.633,0.224-3.418c-5.192-1.529-9.394-1.337-12.607,0.574l-1.147,0.683c-0.868,0.516-1.828,1.63-2.881,3.34
		c0,0,0.033-1.373-0.048,1.856c0.38,4.007-3.059,15.637-10.318,34.892c-2.22,5.903-4.384,10.39-6.492,13.462
		c-0.061-0.102-0.195-0.093-0.398,0.028c-0.722-1.215-1.724-4.291-3.005-9.229c-0.307-0.518-0.316-3.433-0.025-8.748
		c-0.139-0.232-0.364-0.378-0.675-0.438c-0.059-0.909,0.143-1.501,0.602-1.773c-0.139-0.233-0.364-0.379-0.675-0.438
		c0.009-0.565,0.428-1.426,1.259-2.585l-0.092-0.156l-0.467-0.089c0.804-0.968,1.161-1.53,1.069-1.685
		c-0.205,0.121-0.555-0.003-1.051-0.372c0.411-1.748,0.768-2.713,1.074-2.896c-0.138-0.232-0.364-0.377-0.674-0.437
		c-0.046-0.078,0.567-0.845,1.841-2.303l-0.53-0.891c0.459-0.273,0.888-1.35,1.289-3.233l-0.415-0.173l-0.254-0.426
		c0.4-1.881,0.128-5.491,4.144-11.973l-0.253-0.426c-0.612,0.364-0.98,0.444-1.103,0.237l-0.092-0.155l0.335-0.83l-0.093-0.155
		c-4.384-1.449-8.259-1.172-11.625,0.831c-1.418,0.984-2.399,1.83-2.943,2.538c-5.737,25.052-7.379,41.705-0.693,52.944
		c2.152,3.617,5.333,5.134,9.545,4.552c0.645,1.085,4.722-0.187,12.232-3.815c0.285-0.447,1.014-1.022,2.188-1.721
		c-0.253-1.353,0.105-2.318,1.074-2.895c0.587-2.378,1.207-3.832,1.861-4.36c1.038-1.736,2.436-5.017,4.193-9.84l-0.598-0.483
		c0.044-0.972,0.219-1.547,0.524-1.729l0.307-0.182l0.184,0.311l-0.121,0.491c0.469-0.139,0.806-0.271,1.01-0.391l0.57,1.654
		l1.613,2.713l0.282-0.208l-0.098,0.518c3.043,5.115,8.266,11.262,15.189,10.71"/>
	<path clip-path="url(#SVGID_2_)" fill="#1C2F3C" d="M356.511,204.618c0.631,8.31,2.93,21.083,1.895,25.465
		c-0.329,11.564-0.082,11.511-1.003,14.421c-1.624,5.609-1.792,9.928-0.506,12.959l0.22,0.517c2.365,2.817,3.835,4.104,4.41,3.859
		c0.556,1.31,1.341,1.967,5.058,1.286l0.234-0.1c0.574-0.244,1.095-0.688,1.561-1.333l1.875-0.369l0.698-0.967l0.313-0.133
		l0.637-0.026c0.552-1.454,0.661-2.578,0.325-3.369c-0.029-6.167-0.898-15.582,2.769-23.927c3.62-6.129,5.878-7.336,5.688-7.784
		c1.113-0.717,1.761-1.438,1.945-2.167c-0.483-1.137,6.149-6.75,8.715-8.977l0.703,0.129c3.413-3.278,8.91-5.957,9.746-6.312
		l0.861-0.366c2.819-1.197,5.102-1.84,6.85-1.933c0.176-0.602,1.349-1.975,3.521-4.117l-0.132-0.31c-0.988-0.15-2-0.574-3.036-1.273
		l-0.619,0.935c-0.47,0.199-1.112-0.443-1.927-1.927c-0.044-0.103-0.156-0.726-0.332-1.871c-0.439-0.017-0.789,0.03-1.05,0.14
		c-0.658-1.549-4.977-1.851-12.952-0.904c-3.654,1.551-14.573,9.605-19.121,14.421c-0.366,0.156-0.622,0.062-0.769-0.283
		c-0.424-1-0.317-1.837,0.319-2.514l-0.962-1.178l-0.154-0.361l0.37-1.742c-0.774-0.809-1.279-1.489-1.512-2.041l-0.38-1.546
		c-3.858-3.281-7.483-4.202-10.876-2.761C358.124,200.087,355.648,202.585,356.511,204.618"/>
	<path clip-path="url(#SVGID_2_)" fill="#1C2F3C" d="M278.006,253.56c-0.832-2.072-2.092-16.362,0.812-23.094l0.293-0.132
		l0.22,0.548l0.366-0.166l0.662-0.945c-0.099-0.244-0.311-0.483-0.636-0.721l0.416-1.556l0.016-0.01l0.22-0.099
		c-1.746-0.316-1.01-0.956-1.092-1.159l-0.244-0.61c-0.245-0.609-0.58-2.018-1.002-4.226c-1.108-2.762-4.093-4.006-8.953-3.734
		l-3.522,2.668c-0.588,0.409-1.396,4.228-2.424,11.457l-1.791,23.621c0.29,16.565,0.875,25.944,1.755,28.138l0.515,0.417
		c1.467,0.776,2.257,1.309,2.372,1.592c1.5,0.14,2.34,0.432,2.519,0.879c0.978-0.441,2.087-0.27,3.327,0.515
		c0.635-0.287,0.84-0.715,0.611-1.283l0.881-0.397c0.228,0.569,0.537,0.765,0.929,0.588c0.587-0.265,1.28-0.912,2.08-1.945
		c0.781-0.354,1.402,0.039,1.857,1.177l0.588-0.265c0.359-2.562,0.955-4.821,1.787-6.779c1.921-1.513,1.414-1.092,3.438-5.555"/>
	<path clip-path="url(#SVGID_2_)" fill="#1C2F3C" d="M283.561,273.393c6.872-12.664,8.691-16.498,11.226-24.215
		c0.148-2.992,0.072-1.108,0.662-1.375c0.143-3.471,1.003-4.159,1.59-5.479l0.651-2.23c0.195,0.488-1.389,18.474,3.973,27.789
		c0.212,0.528,1.229,1.846,3.051,3.949c0.236-0.106,1.263,0.774,3.082,2.641l0.316-0.432c-0.099-0.243-0.292-0.491-0.578-0.746
		c-0.072-0.639-0.009-1.004,0.188-1.093c-0.487-3.186-0.278-4.983,0.63-5.393c0.508,0.921,0.94,1.303,1.294,1.143
		c0.653,1.049,1.69,1.253,3.109,0.613l-0.353-1.569c-0.13-0.325-0.372-0.407-0.727-0.248l-0.177,0.081
		c0.162,0.406,0.23,0.808,0.204,1.202l-0.597-0.09c0.025-0.635-0.005-1.173-0.088-1.616l-0.783-1.95
		c0.082-1.765,4.491-3.175,4.126-5.362c-0.965-8.201-1.634-10.998-1.688-14.38c-0.638-5.182-2.733-13.008-1.904-15.351
		c-0.275,0.125,0.042-0.114-0.144-0.462l-0.307-0.26l0.226-0.052c0.132,0.326-0.38-0.924,0.098-0.661
		c0.276-0.125,0.287-0.763-0.255-3.157c-0.637-1.585-0.48-8.833-3.245-11.089c-2.164-1.565-1.504-1.225-5.054-0.679
		c-2.05,0.924-8.254,10.213-12.263,17.6c-4.007,7.387-10.629,24.435-11.417,24.79 M313.608,271.562l0.769-0.347
		c-0.098-0.243-0.133-0.562-0.105-0.959l-0.236,0.105C313.653,270.919,313.51,271.317,313.608,271.562 M308.686,269.033
		c0.146,0.365,0.377,0.478,0.692,0.335l0.236-0.107l-0.439-1.097l-0.236,0.106L308.686,269.033z"/>
	<path clip-path="url(#SVGID_2_)" fill="#1C2F3C" d="M327.477,242.702c0.29-2.93,0.127-1.086,0.813-1.37
		c0.304-3.397,1.314-4.104,2.039-5.419l0.834-2.205c0.203,0.469-2.335,18.107,3.416,26.992c0.222,0.508,1.33,1.754,3.328,3.735
		c0.274-0.113,1.413,0.705,3.417,2.455l0.379-0.433c-0.103-0.234-0.313-0.468-0.632-0.706c-0.055-0.621,0.031-0.98,0.261-1.076
		c-0.429-3.093-0.117-4.858,0.937-5.294c0.545,0.88,1.022,1.234,1.435,1.064c0.705,0.999,1.882,1.156,3.528,0.474l-0.338-1.52
		c-0.136-0.312-0.409-0.383-0.821-0.212l-0.206,0.085c0.17,0.391,0.231,0.78,0.184,1.168l-0.676-0.066
		c0.055-0.621,0.04-1.145-0.037-1.574l-0.815-1.874c0.166-1.728,5.262-3.284,4.932-5.406c-0.77-7.974-1.421-10.679-1.346-13.983
		c-0.519-5.037-2.598-12.601-1.556-14.922c-0.321,0.132,0.053-0.113-0.146-0.446l-0.339-0.241l0.26-0.06
		c0.137,0.313-0.398-0.888,0.139-0.651c0.319-0.132,0.357-0.756-0.165-3.074c-0.662-1.522-0.19-8.611-3.26-10.703
		c-2.41-1.443-1.67-1.136-5.75-0.459c-2.38,0.985-6.905,12.152-11.785,19.532 M348.086,263.812l0.892-0.37
		c-0.103-0.234-0.129-0.545-0.083-0.934l-0.273,0.113C348.162,263.182,347.982,263.577,348.086,263.812 M342.56,261.54
		c0.153,0.352,0.412,0.452,0.778,0.3l0.275-0.114l-0.459-1.054l-0.275,0.114L342.56,261.54z M326.265,232.284
		c0.152,0.351,0.023,0.612-0.389,0.783l-0.206,0.085l-0.229-0.527L326.265,232.284z M331.926,227.861l0.274-0.114l0.357,0.82
		c-0.504,3.066-3.646,5.271-6.067,9.636C325.947,236.954,328.88,234.515,331.926,227.861"/>
	<path clip-path="url(#SVGID_2_)" fill="#1C2F3C" d="M345.042,247.071l-1.295,0.09l-0.05-0.945l0.274-0.602l0.701,0.243l0.305-0.021
		c0.406-0.028,0.6-0.235,0.579-0.624l-0.339-0.633l-0.881,0.718l-0.381,0.026l-0.05-0.945c-0.059-1.114,0.334-1.871,1.182-2.271
		c-0.021-0.388-0.336-0.56-0.945-0.518l0.225-1.547l0.306-0.021c0.053,1.018,0.969,1.464,2.748,1.342l0.19-2.202l-0.02-0.364
		l-0.686,0.047l-0.667,0.412l-0.053-1.019c1.216-1.106-12.897,7-12.599,7.805c-0.162,1.811-0.206,3.346-0.141,4.605l0.096,1.817
		l-0.218,1.693c0.202-0.014,0.528,1.812,0.977,5.478c2.005,7.107,5.65,10.477,10.938,10.111c0.396-0.223,0.823-0.35,1.282-0.382
		l1.294-0.09l1.099,0.508l0.839-0.059l-0.051-0.944c0.508-0.035,0.947,0.056,1.316,0.273c1.11-2.169,1.842-3.265,2.199-3.29
		c0.411-2.848-0.523-4.447,0.994-5.671l-0.34-0.633l-1.11-5.13c-2.848-4.702-4.297-6.9-4.297-6.9"/>
	<path clip-path="url(#SVGID_2_)" fill="#1C2F3C" d="M345.605,233.429c-0.201-1.213-0.455-2.666-0.765-4.357
		c-0.222-0.956-0.328-2.462-0.319-4.522c0.007-2.058,0.037-4.102,0.093-6.129c0.054-2.028,0.142-3.831,0.26-5.412
		c0.118-1.579,0.167-2.41,0.148-2.49c-0.478-2.071-1.358-3.443-2.639-4.113c-1.282-0.668-2.801-0.801-4.557-0.396
		c-1.604,0.371-4.314,4.145-8.129,11.321c-2.419,4.505-5.708,11.518-9.865,21.04l-6.644,15.133
		c-0.297-5.471-0.535-9.635-0.711-12.491c-0.177-2.856-14.831,7.559-14.675,9.621c0.075,2.419,0.173,4.935,0.295,7.551
		c0.121,2.616,0.285,5.244,0.492,7.882c0.071,0.656,0.116,1.548,0.135,2.676c0.02,1.129,0.105,2.286,0.258,3.467
		c0.152,1.183,0.419,2.339,0.8,3.467c0.382,1.13,0.978,2.062,1.792,2.798c1.664,1.631,3.757,2.154,6.277,1.573
		c1.833-0.424,3.938-1.938,6.312-4.543s4.792-6.247,7.253-10.93c1.644-2.981,3.209-6.049,4.692-9.205
		c1.484-3.154,2.992-6.295,4.524-9.419l0.718,3.109"/>
	<path clip-path="url(#SVGID_2_)" fill="#1C2F3C" d="M235.519,272.884c0.871,2.041,1.961,4.251,3.272,6.63
		c1.309,2.382,2.847,4.527,4.609,6.442c1.764,1.916,3.766,3.394,6.008,4.438c2.242,1.042,4.693,1.257,7.355,0.643
		c0.835-0.192,1.692-0.732,2.57-1.614c0.877-0.882,1.666-1.886,2.368-3.009c0.702-1.123,1.237-2.267,1.609-3.434
		c0.371-1.166,0.47-2.129,0.293-2.89c-1.456-1.105-3.754-1.152-5.219-2.297c-1.464-1.142-3.607-4.813-4.405-6.388
		c-1.331-1.254-1.438-0.909-2.424-2.406c-0.986-1.492-1.688-3.152-2.11-4.976"/>
	<path clip-path="url(#SVGID_2_)" fill="#1C2F3C" d="M230.804,205.752c1.063-1.332,1.93-2.557,2.6-3.675
		c0.668-1.116,0.968-2.001,0.898-2.656c-0.146-0.636-0.484-1.31-1.012-2.026c-0.528-0.714-1.124-1.373-1.785-1.974 M243.73,153.553
		c-1.04-1.182-2.287-1.606-3.741-1.271c-3.063,0.708-5.448,5.401-7.152,14.082c-0.441,2.279-0.891,5.312-1.348,9.099
		c-0.456,3.789-0.793,7.654-1.012,11.597c-0.22,3.943-0.327,7.671-0.321,11.185c0.005,3.514,0.2,6.105,0.585,7.774
		c0.661,2.861,1.592,5.24,2.798,7.138c1.204,1.899,3.03,2.564,5.482,2c4.746-1.097,7.806-5.485,9.177-13.168
		c0.525-2.965,0.622-5.165,0.292-6.595c-0.073-0.317-0.29-0.812-0.645-1.483c-0.356-0.671-0.775-1.432-1.253-2.284
		c-0.479-0.851-0.916-1.692-1.308-2.523c-0.394-0.829-0.672-1.603-0.837-2.317c-0.478-2.065-0.446-4.458,0.096-7.179
		c0.541-2.718,0.892-4.601,1.056-5.643c0.839-7.894,0.975-13.072,0.405-15.536C245.528,156.362,244.77,154.737,243.73,153.553
		 M158.814,179.75c0.366-1.382,0.747-2.788,1.143-4.22c0.396-1.429,0.79-2.776,1.184-4.04c0.393-1.261,0.679-2.207,0.857-2.834
		c0.395,0.662,0.754,1.521,1.079,2.575c0.323,1.056,0.648,2.111,0.973,3.166c0.323,1.056,0.61,2.037,0.86,2.941
		c0.249,0.906,0.467,1.586,0.654,2.046c-1.459,0.672-2.901,1.319-4.331,1.94c-1.428,0.625-2.489,1.184-3.181,1.677
		C158.193,182.216,158.447,181.133,158.814,179.75 M192.476,169.153c-1.698-0.361-3.847-0.242-6.45,0.359
		c-2.221,0.512-4.308,1.246-6.266,2.2c0.009-1.007-0.179-2.345-0.563-4.013c-0.275-1.193-0.815-2.825-1.615-4.9
		c-0.802-2.075-1.368-3.828-1.697-5.258l-0.991-4.291c-0.898-3.892-2.041-6.914-3.424-9.065c-1.384-2.148-3.798-2.827-7.243-2.031
		c-2.604,0.6-4.901,3.057-6.889,7.366c-2.766,5.829-7.135,18.345-13.104,37.551c-2.306,7.481-4.299,14.218-5.979,20.212
		c-1.681,5.997-3.048,11.25-4.103,15.762c-0.417,1.688-0.821,3.435-1.209,5.239c-0.39,1.807-0.758,3.711-1.101,5.715
		c0.258,1.114,1.498,2.291,3.72,3.535c0.721,0.336,1.806,0.839,3.251,1.509c2.68-0.618,4.664-2.499,5.955-5.643
		c0.213-0.468,0.578-1.598,1.092-3.392c0.513-1.791,1.176-4.246,1.99-7.364c0.791-2.86,2.271-6.928,4.441-12.199
		c0.879-2.128,1.572-3.753,2.081-4.875c0.506-1.121,1.001-2.03,1.487-2.728c0.483-0.697,1.034-1.285,1.649-1.762
		c0.616-0.476,1.501-1.183,2.655-2.121c0.481-0.362,1.413-1.036,2.799-2.027c1.384-0.988,3.222-2.292,5.509-3.908
		c0.367,1.59,0.781,4.088,1.247,7.496c0.462,3.409,0.884,6.808,1.264,10.192c0.378,3.387,0.693,6.327,0.948,8.821
		c0.253,2.495,0.352,3.621,0.297,3.383c0.716,3.099,1.682,5.449,2.898,7.052c1.216,1.603,3.203,2.085,5.959,1.449
		c4.898-1.131,8.33-5.313,10.289-12.544c1.483-5.447,1.869-9.722,1.153-12.821c-0.366-1.589-1.21-2.964-2.524-4.125
		c-1.317-1.16-2.726-2.196-4.225-3.105l-2.436-12.118c0.692-0.493,1.767-1.078,3.226-1.75c1.457-0.67,3.204-1.66,5.242-2.968
		c1.69-1.06,2.812-2.49,3.363-4.292c0.552-1.801,0.617-3.614,0.195-5.444C195.137,170.547,194.172,169.515,192.476,169.153"/>
	<path clip-path="url(#SVGID_2_)" fill="#1C2F3C" d="M165.356,145.781l17.106,64.255l9.51-2.017l-1.148-0.566l-0.132-0.138
		l-0.475-3.111l0.898,0.233l-0.31,0.3l-1.188,2.293l-0.414,0.401l-0.132-0.137c-0.704-0.73-0.228-1.896,1.428-3.496l-0.176-0.183
		c-0.998-1.033-6.93-1.123-5.398-3.131l3.126-0.051l-2.328-0.102l0.856-0.563l-2.993,0.158c-0.499-0.516,3.328,1.295,3.312,0.311
		c-0.767,0.449,0.65-3.02,0.03-2.419l-0.264-0.273c-0.135-1.104-0.435-1.901-0.905-2.388c0.992-2.838,1.255-4.503,0.786-4.99
		l-1.101-1.14l0.724-0.7l0.397,0.41l0.828-0.8c0.414-0.4,0.504-0.928,0.271-1.584c-1.396,0.351-2.24,0.373-2.535,0.069l-0.132-0.137
		c1.156-4.284-0.274-5.513-0.685-5.939l-0.812-2.062c-2.596,1.04,1.289-2.994,1.201-3.086l-0.661-0.684l0.047-0.574
		c-0.208,0.2-0.399,0.209-0.575,0.026l-0.414,0.401l-0.77,1.274l-0.311,0.3l-0.704-0.729c0.109-0.577,0.303-0.998,0.578-1.265
		c-0.088-0.092-0.337-0.143-0.75-0.157c-1.26-2.132-1.097-3.965,0.492-5.5c-0.879-1.325-1.214-2.293-1.006-2.907l-0.088-0.092
		l-1.478,1.163l-0.396-0.41c-0.264-0.273,0.175-0.991,1.319-2.156l-0.924-0.958l-0.679,0.126c0.414-0.401,0.433-1.417,0.056-3.051
		l-0.414,0.399l0.064-1.384l-0.575,0.026l-2.182-7.236l-0.986-0.192l-0.775-1.633l-0.986-0.192c0.227-0.454-0.18-1.912-1.221-4.374
		l-0.968-1.004 M173.286,206.066l0.177,0.182 M185.656,198.812l0.132,0.136c0.206,0.213,0.065,0.554-0.416,1.019l2.064-0.171
		l-0.44-0.457L185.656,198.812z M177.259,160.438l0.352,0.365l-1.035,1l-0.352-0.365L177.259,160.438z M175.763,158.887l0.414-0.401
		l0.793,0.821l-1.138,1.101l-0.529-0.548C175.156,159.709,175.309,159.385,175.763,158.887 M173.444,152.753l0.311-0.3l0.44,0.456
		c0.147,0.153,0.013,0.428-0.4,0.829l-0.415,0.399l-0.352-0.365C172.852,153.59,172.991,153.25,173.444,152.753"/>
	<path clip-path="url(#SVGID_2_)" fill="#1C2F3C" d="M203.226,123.134c0.083,4.958-0.002,9.98-0.257,15.065
		c-0.169,6.858-1.345,21.041-3.526,42.547c-0.552,6-0.905,15.962-1.056,29.882c-1.558,4.839-2.194,7.874-1.912,9.102
		c0.601,2.599,2.744,4.195,6.432,4.786c-0.032-0.141,0.039-0.232,0.213-0.273l0.986-0.228c1.203,0.619,2.248,0.851,3.135,0.695
		c0.437-0.101,1.095-0.651,1.971-1.649c0.394,0.108,0.678,0.142,0.854,0.101c0.832-0.191,2.353-1.688,4.567-4.488
		c2.025-1.214,2.951-2.199,2.776-2.955c0.504-0.613,3.652-3.157,9.444-7.63c1.742-2.442,6.144-6.047,13.206-10.813
		c-0.076-0.33-0.274-0.484-0.59-0.461l-1.511,0.35l-0.46,0.404l-0.393-0.506l2.005-3.001l-0.065-0.284
		c-1.237,0.834-1.944,1.271-2.118,1.311l-0.591-0.162c0.92-1.407,1.369-2.157,1.347-2.252l-1.724,0.622l-0.459,0.106
		c-0.272-1.181,0.074-2.679,1.038-4.495c-12,6.951-20.588,11.696-25.766,14.235c-0.044-0.188-0.154-0.263-0.328-0.223
		c0.054-0.56,0.17-0.861,0.346-0.901c-0.116-5.896-0.064-9.565,0.155-11.011c-0.065-0.284-0.279-0.408-0.64-0.375l0.396-1.585
		l-0.639-0.673l-0.066-0.284c0.625-1.886,0.916-2.924,0.873-3.113l-0.967-1.792l-0.049-0.213l1.247-0.288
		c0.35-0.081,0.482-0.31,0.396-0.688l-0.131-0.567c-0.066-0.284-0.285-0.431-0.656-0.446l0.542-1.245l-0.066-0.284l-0.262,0.062
		l-0.441-1.915l-0.378-0.435c0.646-1.194,0.829-2.405,0.544-3.635c1.37-1.858,1.957-3.513,1.76-4.96
		c-0.307,0.07-0.525-0.077-0.656-0.446l-0.262-1.134c0.395-0.091,0.728-0.243,1.002-0.455l0.974-7.168
		c-0.087-0.378-0.372-0.512-0.853-0.401l-0.115-0.496c-0.109-0.472-0.06-1.355,0.15-2.647c0.735-2.21,0.993-4.584,0.776-7.123
		c0.651-8.761,1.203-13.666,1.651-14.715c-0.227-4.577,0.12-6.971,1.04-7.183l-0.13-0.567c-0.833-0.405-1.647-1.635-2.444-3.691
		c-3.359-1.763-6-2.421-7.926-1.977C204.469,120.832,203.676,121.687,203.226,123.134"/>
	<path clip-path="url(#SVGID_2_)" fill="#1C2F3C" d="M365.504,164.167c-2.052,1.63-4.502,2.773-4.867,2.858
		c-0.514,0.119,0.75,1.094,0.445-0.225c-0.287-1.244-0.474-2.877-0.554-4.902c-0.082-2.023-0.093-4.238-0.031-6.643
		c0.136-2.42,0.271-4.92,0.409-7.496s0.245-5.029,0.324-7.361c0.079-2.331,0.084-4.471,0.021-6.423
		c-0.066-1.951-0.25-3.585-0.553-4.902c-0.17-0.731-0.588-1.369-1.252-1.91c-0.665-0.54-1.435-0.958-2.313-1.258
		c-0.879-0.297-1.755-0.5-2.627-0.607c-0.874-0.106-1.639-0.084-2.298,0.067c-1.171,0.271-1.936,0.968-2.293,2.091
		c-0.358,1.124-0.795,2.401-1.312,3.831c-0.964-1.166-3.871,38.173-1.535,34.933c0.113,2.827,0.421,5.416,0.926,7.766
		c0.504,2.352,1.01,4.625,1.517,6.82c0.44,1.905,1.501,3.491,3.182,4.759c1.681,1.269,3.26,0.427,5.309-0.045
		c1.977-0.457,5.85-3.547,11.909-8.029"/>
	<path clip-path="url(#SVGID_2_)" fill="#1C2F3C" d="M348.757,130.269c-2.001-1.906-4.699-2.845-8.094-2.817
		c-0.964,0.424-1.682,0.69-2.158,0.8c-3.706,0.856-7.849,4.408-12.43,10.654c-13.906,18.273-19.333,34.008-16.286,47.208
		l0.165,0.717c4.026,5.116,10.114,6.732,18.269,4.85c2.355-1.148,3.809-2.34,4.36-3.576c1.988-1.768,3.778-3.919,5.369-6.454
		l10.589-16.382 M326.645,164.918c0.157-0.037,0.819-1.398,1.983-4.085c5.115-9.24,9.691-15.386,13.729-18.434l0.874-0.202
		l0.049,0.215c0.087,1.34-0.904,5.021-2.972,11.039c-0.566,3.104-1.929,6.263-4.085,9.481l0.116,0.502
		c0.077,0.334,0.38,0.441,0.91,0.318l0.116,0.502l-0.14,0.486c-1.42,1.336-2.047,2.361-1.882,3.079l-3.595,5.44l-0.605-0.087
		c-0.045-0.191,0.039-0.311,0.251-0.36l-0.418-0.356c-2.561,3.16-5.081,5.884-7.564,8.169l-0.795,0.183
		c-0.033-0.144-0.194-0.357-0.482-0.645c0.1-1.735,0.445-3.981,1.036-6.737l-0.238,0.054
		C322.69,172.431,323.927,169.577,326.645,164.918"/>
	<path clip-path="url(#SVGID_2_)" fill="#1C2F3C" d="M358.197,169.984l-0.209-0.254c-0.154-0.668-0.146-1.072,0.023-1.213
		c1.101-5.284,1.599-8.507,1.492-9.67l-0.254,0.209l-0.247,0.631c-0.14-0.169-0.278-0.198-0.413-0.086
		c-0.195-0.237-0.004-0.935,0.576-2.095l0.251,0.304c1.387-1.143,1.922-9.105,2.876-23.875l1.52-3.639l-1.375-1.254
		c-0.251-0.305-0.238-0.6,0.038-0.884l0.152-0.125l0.667-0.123c-0.14-0.169-0.126-0.323,0.043-0.463l-1.216-0.958l-0.294-1.804
		l-0.166-0.203c-0.44,0.363-0.756,0.878-0.943,1.544l-0.254,0.21l-1.172-1.422c-0.396-0.412-1.894-0.399-4.49,0.035l-0.164-0.717
		c-0.307-0.372-1.388,0.008-3.24,1.137l-0.661,0.544c-0.946,0.781-1.509,1.927-1.685,3.436c-1.543,17.299-2.335,26.498-3.655,27.585
		l-0.863,0.711l-0.167-0.203"/>
	<path clip-path="url(#SVGID_2_)" fill="#1C2F3C" d="M367.504,176.893c2.884-2.882,5.246-5.75,7.087-8.604
		c1.688-2.816,2.212-5.615,1.569-8.397c-0.643-2.781-2.533-3.81-5.672-3.085c-0.46,0.105-1.758,1.033-3.894,2.782 M387.59,126.618
		c0.35,1.51,0.142,3.232-0.622,5.166c-1.151,2.695-2.832,5.635-5.04,8.822c-2.208,3.19-4.696,5.94-7.468,8.254
		c0.369-2.931,0.814-5.377,1.33-7.338c0.397-1.766,1.003-3.516,1.81-5.252c0.811-1.734,1.714-3.324,2.711-4.769
		c0.997-1.443,2.025-2.665,3.085-3.663c1.059-0.998,2.05-1.603,2.969-1.815C386.517,125.987,386.926,126.188,387.59,126.618
		 M399.009,157.007c-3.133,2.147-9.389,6.613-12.125,8.207c-2.737,1.595-5.157,1.328-6.688,1.681
		c-0.614,0.142-1.295-0.709-1.757-1.315c-0.462-0.604-0.814-1.255-1.056-1.954c1.928-1.782,3.906-3.601,5.94-5.452
		c2.031-1.85,4.001-3.705,5.911-5.57c1.656-1.554,3.067-3.301,4.231-5.247c1.165-1.941,2.099-3.831,2.805-5.668
		c1.619-3.806,2.711-7.991,3.27-12.557c0.56-4.565,0.391-8.794-0.51-12.688c-1.339-5.8-5.148-7.977-11.427-6.528
		c-4.669,1.079-8.88,3.892-12.628,8.44c-3.748,4.549-6.813,9.777-9.201,15.683c-2.386,5.909-4.033,11.96-4.942,18.154
		c-0.908,6.195-0.857,11.478,0.15,15.847c0.423,1.829,1.165,3.729,2.225,5.701c1.061,1.975,2.314,3.734,3.761,5.284
		c1.445,1.55,3.034,2.752,4.764,3.609c1.729,0.855,3.475,1.08,5.236,0.673c2.373-0.547,6.934-2.981,13.677-7.3"/>
	<path clip-path="url(#SVGID_2_)" fill="#1C2F3C" d="M380.003,161.18c1.722-0.775,2.461-1.477,2.213-2.104l0.564-0.222
		c5.41-3.993,10.237-11.334,13.449-15.923c-0.09-0.35,1.346-2.154,3.23-9.964c-0.082-0.208,0.451-1.362,0.137-1.672l-0.346-0.877
		c1.235-1.887,1.518-3.688,0.842-5.403l-0.346-0.877l0.516-0.406l0.247,0.627l0.626-0.247c-0.196-0.501-0.125-1.423,0.215-2.765
		l-1.506-3.825c-0.512-1.295-0.705-1.911-0.705-1.911l-0.443-1.128c-0.57-1.08-1.651-2.103-3.238-3.071
		c-1.037-2.635-5.227-0.4-13.262,1.51c-3.293,2.31,3.254,3.234,3.254,3.234l9.119,1.536l0.704,7.373l-2.575,14.252l-10.848,12.417
		l-8.009,12.365l-0.864,0.729"/>
	<path clip-path="url(#SVGID_2_)" fill="#1C2F3C" d="M371.845,179.715c0.835,1.262,3.419,2.128,7.747,2.594
		c3.325-1.123,5.108-1.505,5.347-1.144l2.242-1.659l1.389-0.819c0.309-0.181,0.782-0.872,1.421-2.071l0.535,0.022l2.987-2.978
		c0.428-0.241,0.951-0.447,1.568-0.62c0.047-0.234,1.008-1.003,2.883-2.308l1.141-0.379l0.032-1.252
		c0.141-0.08,0.392-0.111,0.748-0.098l0.283-0.83l0.428-0.241l0.497-0.018c-0.118-0.18,0.333-0.633,1.353-1.361
		c1.259-0.558,2.02-0.906,2.28-1.045l0.602-1.262c0.144-0.08,0.394-0.137,0.749-0.17c3.795-3.273,6.536-5.406,8.221-6.395
		l1.533-0.946l-0.109-0.191c-0.144-0.256-0.369-0.315-0.678-0.182l-1.78,1.028c-0.215-0.333-0.715-0.531-1.5-0.592l-0.43-0.692
		l0.854-0.769l-0.251-0.422c-0.64,0.386-1.199,0.504-1.676,0.357l-0.249,0.152l-0.282,0.759l-0.393,0.281l-0.43-0.621
		c0.95-0.567,1.222-1.148,0.816-1.742l1.21-0.73l-0.107-0.191c-0.167-0.232-0.394-0.293-0.678-0.181l-1.816,1.06
		c-0.974,0.588-1.627,0.697-1.961,0.326c-1.688,0.464-2.792,0.62-3.315,0.466l-1.389,0.819c-0.12,0.107-0.735,0.28-1.854,0.518
		l-4.345,2.616c-1.163,0.664-2.313,1.437-3.453,2.318l-0.926,0.259c-1.898,1.326-3.714,2.505-5.447,3.537l-2.919,1.766l-1.141,0.379
		l-0.144-0.231 M406.215,162.224l0.287,0.462l-0.607,0.329l-0.286-0.462L406.215,162.224z M408.737,158.874l0.18,0.271
		c0.144,0.254,0.084,0.476-0.177,0.662l-0.57,0.297l-0.429-0.62L408.737,158.874z M412.079,154.785l0.57-0.01l0.427-0.241
		c0.262-0.139,0.296-0.362,0.104-0.67l-0.143-0.23c-0.143-0.207-0.548-0.251-1.214-0.131L412.079,154.785z M405.694,155.064
		l0.252,0.422l-0.57,0.37l-0.287-0.462L405.694,155.064z"/>
	<path clip-path="url(#SVGID_2_)" fill="#1C2F3C" d="M269.757,178.385c-0.803-1.892-1.728-15.056,1.445-21.351l0.306-0.13
		l0.213,0.501l0.383-0.164l0.707-0.89c-0.094-0.223-0.308-0.438-0.637-0.649l0.47-1.447l0.017-0.01l0.23-0.097
		c-1.792-0.245-1.017-0.856-1.097-1.042l-0.236-0.556c-0.235-0.557-0.543-1.848-0.922-3.877c-1.07-2.521-4.117-3.593-9.137-3.214
		l-3.704,2.558c-0.617,0.393-1.551,3.942-2.802,10.646l-2.469,21.863c-0.137,15.292,0.22,23.938,1.071,25.941l0.519,0.371
		c1.492,0.68,2.295,1.15,2.405,1.408c1.542,0.09,2.402,0.338,2.576,0.745c1.021-0.432,2.16-0.303,3.418,0.388
		c0.663-0.281,0.886-0.681,0.665-1.201l0.918-0.391c0.221,0.52,0.534,0.693,0.943,0.519c0.613-0.26,1.345-0.876,2.197-1.852
		c0.816-0.347,1.445,0,1.887,1.038l0.612-0.259c0.438-2.375,1.112-4.478,2.022-6.309c2.021-1.447,1.486-1.045,3.691-5.222"/>
	<path clip-path="url(#SVGID_2_)" fill="#1C2F3C" d="M274.965,196.557c7.421-11.877,9.399-15.466,12.217-22.661
		c0.231-2.768,0.104-1.025,0.72-1.288c0.239-3.209,1.145-3.867,1.785-5.103l0.729-2.076c0.189,0.445-1.917,17.098,3.368,25.562
		c0.204,0.482,1.219,1.671,3.042,3.567c0.247-0.104,1.283,0.681,3.111,2.357l0.337-0.406c-0.095-0.223-0.287-0.446-0.577-0.675
		c-0.057-0.588,0.019-0.927,0.224-1.014c-0.419-2.93-0.156-4.597,0.791-4.998c0.5,0.838,0.938,1.178,1.306,1.021
		c0.646,0.952,1.71,1.113,3.19,0.485l-0.32-1.44c-0.126-0.297-0.374-0.367-0.744-0.21l-0.185,0.079
		c0.157,0.371,0.216,0.74,0.179,1.106l-0.612-0.069c0.043-0.586,0.025-1.083-0.049-1.489l-0.757-1.78
		c0.133-1.631,4.717-3.052,4.397-5.061c-0.779-7.549-1.396-10.115-1.362-13.237c-0.52-4.769-2.477-11.942-1.56-14.128
		c-0.289,0.123,0.046-0.106-0.137-0.422l-0.31-0.232l0.234-0.054c0.127,0.298-0.368-0.843,0.118-0.613
		c0.287-0.122,0.316-0.711-0.18-2.909c-0.614-1.447-0.263-8.146-3.056-10.156c-2.191-1.39-1.52-1.091-5.196-0.494
		c-2.138,0.907-8.782,9.65-13.111,16.579c-4.33,6.928-11.609,22.848-12.431,23.196 M306.009,194.074l0.802-0.34
		c-0.094-0.223-0.122-0.516-0.084-0.883l-0.246,0.104C306.073,193.479,305.914,193.852,306.009,194.074 M300.997,191.867
		c0.142,0.335,0.376,0.432,0.706,0.292l0.247-0.104l-0.426-1.001l-0.246,0.104L300.997,191.867z M285.979,164.032
		c0.142,0.333,0.028,0.579-0.343,0.736l-0.185,0.079l-0.212-0.501L285.979,164.032z M289.582,163.014l-0.199-0.157l0.33,0.779
		c-0.421,2.894-3.235,4.946-5.375,9.049c-0.504-1.187,2.118-3.464,4.799-9.723L289.582,163.014z"/>
	<path clip-path="url(#SVGID_2_)" fill="#1C2F3C" d="M303.089,178.212l-1.17,0.072l-0.055-0.894l0.241-0.567l0.636,0.237
		l0.275-0.017c0.366-0.022,0.539-0.216,0.517-0.584l-0.313-0.602l-0.787,0.669l-0.344,0.021l-0.055-0.894
		c-0.064-1.054,0.282-1.766,1.043-2.135c-0.022-0.367-0.31-0.534-0.858-0.5l0.186-1.461l0.276-0.018
		c0.058,0.963,0.89,1.395,2.494,1.297l0.149-2.08l-0.021-0.344l-0.618,0.038l-0.599,0.382l-0.059-0.964
		c1.086-1.033-11.57,6.484-11.293,7.249c-0.126,1.71-0.152,3.163-0.078,4.354l0.105,1.72l-0.18,1.599
		c0.184-0.012,0.496,1.719,0.939,5.188c1.885,6.742,5.211,9.968,9.98,9.676c0.354-0.206,0.739-0.322,1.153-0.346l1.168-0.072
		l0.997,0.492l0.757-0.047l-0.056-0.893c0.458-0.029,0.855,0.061,1.19,0.272c0.981-2.04,1.631-3.068,1.951-3.088
		c0.343-2.689-0.519-4.21,0.838-5.352l-0.312-0.603l-1.055-4.863c-2.621-4.476-3.951-6.57-3.951-6.57"/>
	<path clip-path="url(#SVGID_2_)" fill="#1C2F3C" d="M318.616,292.383c17.084-1.17,16.766,3.666,17.225,5.141
		c0.656,2.299,0.971,5.987-5.659,11.518c-7.542,2.692-11.936,1.266-11.748,1.923l-6.576,0.868l-3.728,0.757
		c-0.826,0.169-2.776-0.005-5.849-0.52l-0.879,0.646l-10.027,0.353c-1.129,0.244-2.364,0.636-3.705,1.174
		c-0.467-0.191-3.378,0.119-8.741,0.934l-2.576,0.929l-1.407,1.823c-0.375,0.083-0.855,0.338-1.443,0.768l-1.855-0.542l-1.128,0.245
		l-0.884,0.562c-0.092-0.327-1.613-0.279-4.558,0.146c-3.073,0.881-4.948,1.399-5.625,1.557l-3.116-0.623
		c-0.376,0.081-0.896,0.312-1.561,0.692c-11.896,0.98-20.103,1.934-24.621,2.857l-4.182,0.787l-0.131-0.325
		c-0.175-0.436,0.112-0.761,0.861-0.979l4.741-0.994c-0.184-0.6,0.345-1.389,1.586-2.367l-0.408-1.228l-2.73,0.187l-0.268-0.734
		c1.733-0.341,2.884-0.867,3.454-1.575l0.678-0.131l1.737,0.467l1.133-0.161l-0.29-1.152c-2.559,0.512-3.984,0.218-4.271-0.879
		l-3.277,0.643l-0.131-0.325c-0.1-0.438,0.187-0.767,0.86-0.98l4.855-1.001c2.637-0.516,3.934-1.161,3.892-1.94
		c3.651-1.477,5.797-2.6,6.441-3.369l3.727-0.758c0.38-0.026,1.721-0.563,4.023-1.615l11.749-2.31
		c3.087-0.656,6.33-1.187,9.733-1.587l2.012-0.808c5.436-0.817,10.488-1.692,15.157-2.627l7.908-1.545l2.577-0.93l-0.137-0.41
		 M251.482,318.947l0.272,0.818l1.58-0.358l-0.272-0.819L251.482,318.947z M241.634,318.366l0.14,0.493
		c0.177,0.435,0.643,0.598,1.396,0.489l1.465-0.352l-0.291-1.151L241.634,318.366z M229.168,317.964l-0.992,0.653l-1.129,0.245
		c-0.677,0.159-1.104-0.035-1.286-0.581l-0.137-0.409c-0.095-0.384,0.522-0.9,1.858-1.55L229.168,317.964z M240.545,310.826
		l0.268,0.734l1.584-0.276l-0.272-0.818L240.545,310.826z"/>
	<path clip-path="url(#SVGID_2_)" fill="#1C2F3C" d="M250.868,321.266l32.379-5.502l19.711-4.096
		c4.313-0.081,8.033,0.09,11.155,0.517c3.121,0.428,6.222,0.677,9.301,0.747c4.673-0.579,8.632-2.173,11.871-4.788
		c3.24-2.613,4.692-5.299,4.355-8.057c-0.543-4.449-1.971-7.276-4.279-8.481c-2.312-1.204-7.176-1.348-14.599-0.43
		c-4.263,0.527-10.074,1.496-17.437,2.902c-7.364,1.408-42.386,9.237-50.398,11.042"/>
	<path clip-path="url(#SVGID_2_)" fill="#1C2F3C" d="M261.375,119.057c0.086,0.383,0.087,0.683,0.003,0.902l-2.925,1.275
		l-1.001,2.616l-1.714,0.84l-0.1,0.262c0.203,0.078,0.473,0.281,0.81,0.612c-0.317,0.828-1.19,1.292-2.622,1.392
		c0.104,0.64,0.306,1.019,0.61,1.135c-0.133,0.348-0.301,0.485-0.503,0.407c-1.271,2.262-2.438,3.188-3.5,2.78l-0.898,3.256
		l-0.1,0.261l-0.91-0.35c0.104,0.64,0.306,1.019,0.609,1.136c-0.534,0.794-1.308,0.996-2.321,0.607l-0.3,0.785
		c-3.887,5.307-6.803,8.986-8.75,11.039l-0.607-0.234l0.301-0.785l0.197-1.425c0.405,0.156,1.109-0.773,2.111-2.789
		c0.101-0.262-0.034-0.514-0.406-0.757c-0.404-0.155-0.707,0.028-0.907,0.552c-0.202-0.078-0.471-0.282-0.811-0.612
		c-0.151-0.059-0.791-0.205-1.92-0.439c-0.506-0.496-0.709-0.875-0.609-1.136l0.4-1.047l1.003-1.714
		c-0.2-0.078-0.269-0.205-0.202-0.378l-1.415,0.056l-0.507-0.495c1.006-1.414,1.642-2.471,1.908-3.167l0.1-0.262
		c0.1-0.261-0.034-0.513-0.406-0.756l12.312-22.214C258.978,100.509,261.81,117.923,261.375,119.057 M239.461,141.76l0.303,0.117
		c0.405,0.157,0.674,0.06,0.807-0.289l0.101-0.262l-0.911-0.35L239.461,141.76z"/>
	<path clip-path="url(#SVGID_2_)" fill="#FFFFFF" d="M272.471,516.509c124.606-9.26,223.91-39.77,221.801-68.147
		c-2.108-28.377-104.832-43.874-229.438-34.614c-124.606,9.26-223.91,39.77-221.802,68.147
		C45.142,510.271,147.865,525.769,272.471,516.509"/>
	<path clip-path="url(#SVGID_2_)" fill="#FFFFFF" d="M294.451,581.917c117.918-1.544,213.232-23.99,212.891-50.134
		C507,505.639,411.13,485.696,293.211,487.24c-117.918,1.544-213.232,23.988-212.89,50.133
		C80.663,563.518,176.532,583.46,294.451,581.917"/>
	<path clip-path="url(#SVGID_2_)" fill="#1C2F3C" d="M474.176,550.327c0.144,0.102,0.274,0.076,0.395-0.076
		c0.473-0.592,0.93-1.283,1.369-2.072c0.439-0.791,0.778-1.451,1.016-1.983c0.162-0.418,0.461-1.149,0.895-2.194
		c1.471-3.59,2.367-7.353,2.688-11.288c0.322-3.952-0.028-7.586-1.053-10.897c-0.049-0.171-0.164-0.215-0.346-0.139
		c-0.183,0.079-0.25,0.202-0.202,0.372c0.993,3.275,1.335,6.852,1.024,10.729c-0.311,3.878-1.198,7.583-2.659,11.117
		c-0.356,0.912-0.647,1.634-0.875,2.167c-0.229,0.53-0.545,1.168-0.949,1.911c-0.423,0.742-0.857,1.389-1.306,1.943
		C474.031,550.089,474.033,550.226,474.176,550.327 M473.856,543.174c0.124-0.189,0.101-0.331-0.072-0.423
		c-0.315-0.147-0.651-0.341-1.009-0.582l-0.79-0.528c-0.187-0.131-0.505-0.371-0.957-0.725l-0.829-0.642
		c-0.269-0.204-1.103-0.808-2.504-1.809c-0.964-0.687-1.727-1.263-2.292-1.728l1.747-2.914c0.408-0.081,0.876-0.162,1.397-0.244
		c1.045-0.166,2.263-0.352,3.654-0.559c1.447-0.208,2.258-0.322,2.431-0.344c0.214-0.041,0.319-0.164,0.314-0.374
		c-0.003-0.206-0.112-0.29-0.326-0.249c-0.158,0.04-0.959,0.158-2.405,0.356c-1.445,0.199-2.673,0.38-3.68,0.544l-0.963,0.184
		c2.188-3.6,4.447-7.106,6.774-10.52c0.125-0.19,0.101-0.331-0.072-0.424s-0.323-0.043-0.448,0.147
		c-2.406,3.546-4.743,7.187-7.01,10.918c-0.758,0.143-1.393,0.274-1.902,0.395c-0.547,0.12-0.971,0.239-1.273,0.356
		c-0.182,0.078-0.335,0.146-0.458,0.204c-0.167,0.097-0.278,0.202-0.334,0.316c-0.078,0.133-0.104,0.294-0.078,0.482
		c0.038,0.112,0.102,0.236,0.195,0.366c0.136,0.207,0.341,0.449,0.615,0.729c0.247,0.224,0.586,0.512,1.02,0.865
		c-1.331,2.267-2.629,4.561-3.893,6.883c-0.106,0.189-0.071,0.321,0.105,0.395s0.317,0.016,0.424-0.175l3.812-6.739
		c0.449,0.372,1.188,0.919,2.222,1.644c1.283,0.908,2.119,1.513,2.505,1.81c0.082,0.074,0.349,0.287,0.8,0.641l0.98,0.753
		c0.187,0.129,0.463,0.311,0.83,0.541c0.367,0.232,0.708,0.43,1.021,0.597C473.582,543.414,473.731,543.365,473.856,543.174
		 M463.438,534.751c0.064-0.057,0.166-0.105,0.306-0.146c0.301-0.117,0.708-0.236,1.217-0.356c0.409-0.08,0.888-0.181,1.435-0.303
		l-1.441,2.429c-0.37-0.278-0.667-0.529-0.895-0.754c-0.264-0.241-0.446-0.446-0.551-0.615c-0.06-0.094-0.096-0.169-0.104-0.226
		l0.005-0.029H463.438z M454.027,533.146c1.588-0.493,2.927-0.964,4.02-1.413c1.313-0.547,2.234-1.05,2.762-1.51
		c0.974-0.882,1.22-1.812,0.737-2.787c-0.372-0.732-1.167-1.459-2.389-2.181c-1.034-0.591-2.197-1.095-3.485-1.513l0.597-0.886
		c0.126-0.191,0.101-0.332-0.073-0.425c-0.173-0.093-0.322-0.043-0.447,0.147l-0.672,1.001c-0.902-0.253-1.599-0.376-2.089-0.369
		c-0.209,0.002-0.329,0.108-0.363,0.316c-0.032,0.208,0.054,0.311,0.261,0.309c0.416-0.007,1.021,0.099,1.815,0.315
		c-2.143,3.203-4.234,6.49-6.271,9.86c-0.589,0.141-1.137,0.262-1.644,0.363c-0.213,0.04-0.318,0.164-0.314,0.371
		c0.003,0.209,0.112,0.293,0.327,0.252c0.333-0.08,0.733-0.171,1.203-0.271c-1.86,3.086-3.65,6.208-5.371,9.367
		c-0.107,0.189-0.072,0.321,0.104,0.395s0.317,0.016,0.425-0.175c2.284-4.073,4.14-7.3,5.564-9.682
		c0.174,0.433,0.374,0.883,0.6,1.354l0.614,1.268l0.751,1.293l0.702,1.238l0.808,1.294l0.746,1.151l0.812,1.265
		c0.407,0.619,0.656,1.003,0.746,1.152c0.106,0.149,0.25,0.162,0.432,0.037c0.181-0.125,0.229-0.272,0.143-0.441
		c-0.107-0.149-0.366-0.533-0.774-1.151l-0.788-1.238l-0.745-1.151l-0.812-1.265l-0.685-1.182c-0.294-0.507-0.535-0.937-0.722-1.294
		l-0.591-1.239l-0.608-1.296C450.983,534.008,452.542,533.581,454.027,533.146 M458.754,525.828
		c1.139,0.646,1.871,1.298,2.197,1.955c0.355,0.714,0.182,1.377-0.521,1.99c-0.446,0.423-1.295,0.886-2.545,1.395
		c-1.07,0.43-2.39,0.891-3.958,1.384c-1.489,0.454-3.057,0.881-4.706,1.28c1.96-3.238,3.976-6.409,6.047-9.518
		C456.578,524.714,457.74,525.218,458.754,525.828 M442.917,528.615c0.003-0.02,0.029-0.067,0.08-0.144l0.718-1.455
		c0.449-1.026,0.644-1.813,0.582-2.36c-0.049-0.396-0.219-0.682-0.511-0.857c-0.293-0.176-0.691-0.222-1.194-0.141
		c-0.638,0.104-1.315,0.325-2.03,0.664c-0.716,0.341-1.308,0.675-1.774,1.002c-0.469,0.327-1.026,0.74-1.673,1.24
		c-2.85,2.211-5.505,4.861-7.97,7.955c-1.025-0.875-1.751-1.64-2.172-2.295c-0.135-0.206-0.321-0.224-0.557-0.05
		s-0.284,0.363-0.149,0.568c0.468,0.713,1.25,1.534,2.343,2.464c-0.862,1.127-1.705,2.31-2.53,3.548
		c-0.868,1.278-1.743,2.839-2.628,4.683c-0.573,1.197-0.933,2.139-1.082,2.82c-0.089,0.436-0.1,0.785-0.029,1.049
		c0.13,0.357,0.394,0.533,0.791,0.528c0.264-0.003,0.418-0.139,0.461-0.403c0.043-0.264-0.067-0.396-0.332-0.392
		c-0.075,0-0.118-0.027-0.127-0.084c-0.052-0.15-0.043-0.378,0.024-0.68c0.139-0.607,0.467-1.471,0.988-2.593
		c0.854-1.768,1.707-3.301,2.559-4.597c0.795-1.182,1.622-2.317,2.479-3.405c1.217,0.967,2.85,2.116,4.895,3.45
		c0.206,0.131,0.393,0.08,0.562-0.148c0.168-0.229,0.151-0.408-0.054-0.538c-2.045-1.334-3.668-2.484-4.868-3.45
		c2.421-3.056,5.022-5.659,7.805-7.812c0.992-0.769,1.885-1.385,2.677-1.849s1.584-0.758,2.378-0.882
		c0.326-0.042,0.56-0.025,0.699,0.048c0.119,0.074,0.193,0.205,0.218,0.394c0.045,0.415-0.125,1.06-0.514,1.935
		c-0.146,0.322-0.326,0.675-0.539,1.056c-0.003,0.019-0.046,0.114-0.131,0.284l-0.033,0.03l-0.01,0.056l-0.037,0.058
		c0.004-0.019,0.016-0.038,0.037-0.058l-0.037,0.058l-0.075,0.114l-1.048,1.742l-0.003,0.028c-0.205,0.325-0.33,0.516-0.376,0.572
		c-0.186,0.324-0.481,0.81-0.889,1.457l-0.916,1.457l-5.969,10.083l-1.132,1.915c-0.105,0.19-0.172,0.305-0.197,0.343l-0.032,0.028
		l-0.009,0.057c-0.027,0.039-0.039,0.067-0.043,0.086c-0.03,0.303,0.11,0.424,0.422,0.363c0.098-0.021,0.179-0.06,0.244-0.116
		c0.005-0.02,0.016-0.039,0.037-0.058l0.034-0.029l0.041-0.086l3.604-5.97c0.003-0.02,0.016-0.038,0.038-0.059l3.155-5.312
		l2.639-4.398c0.004-0.021,0.015-0.029,0.034-0.03L442.917,528.615z M403.653,544.93c0.188,0.063,0.326,0,0.413-0.189
		c1.961-3.823,4.831-8.888,8.61-15.191l2.1-3.514l0.296-0.429c-0.09,0.435-0.198,0.985-0.326,1.647
		c-0.361,1.876-0.666,3.628-0.911,5.256c-0.161,1.099-0.281,2.006-0.359,2.725c-0.05,0.418-0.078,0.71-0.087,0.881
		c-0.003,0.133-0.001,0.236,0.006,0.312l0.038,0.112c0.041,0.095,0.099,0.15,0.172,0.168c0.141,0.055,0.313,0.034,0.519-0.063
		c0.122-0.058,0.26-0.153,0.414-0.289c0.22-0.191,0.504-0.487,0.853-0.89c0.091-0.095,0.514-0.61,1.269-1.546
		c0.539-0.65,1.47-1.726,2.788-3.227c1.319-1.5,2.504-2.758,3.556-3.773c0.631-0.632,1.141-1.101,1.53-1.409
		c0.214-0.153,0.382-0.259,0.505-0.318h0.027c-0.021,0.134-0.082,0.342-0.186,0.627c-0.257,0.645-0.742,1.596-1.454,2.853
		l-0.785,1.343l-0.164,0.313c-0.003,0.02-0.017,0.039-0.038,0.058l-0.009,0.058l-0.005,0.027c-0.021,0.02-0.034,0.038-0.038,0.058
		l-0.206,0.399l-2.872,5.14c-0.458,0.837-1.07,2.111-1.839,3.821c-0.797,1.769-1.391,3.032-1.777,3.793
		c-0.108,0.21-0.069,0.346,0.117,0.41c0.188,0.063,0.325,0,0.412-0.189c0.359-0.704,0.964-1.987,1.814-3.851
		c0.738-1.636,1.338-2.89,1.803-3.765l2.872-5.14c0.76-1.313,1.166-2.01,1.216-2.086l0.01-0.057l0.037-0.057l0.014-0.085
		c0.717-1.275,1.204-2.245,1.463-2.91c0.132-0.343,0.213-0.607,0.243-0.797c0.028-0.284-0.055-0.471-0.247-0.564
		c-0.153-0.092-0.355-0.069-0.604,0.064c-0.183,0.079-0.394,0.214-0.633,0.406c-0.427,0.308-0.967,0.787-1.619,1.438
		c-1.055,1.033-2.247,2.307-3.577,3.815c-1.33,1.512-2.266,2.6-2.809,3.269c-0.777,0.955-1.199,1.461-1.265,1.52
		c-0.304,0.362-0.564,0.63-0.781,0.804c-0.047,0.057-0.092,0.095-0.132,0.114l0.054-0.852c0.086-0.643,0.212-1.533,0.378-2.668
		c0.305-1.989,0.609-3.74,0.912-5.256c0.202-1.003,0.344-1.762,0.428-2.273c0.04-0.245,0.061-0.436,0.064-0.566
		c0.009-0.058,0.008-0.114-0.002-0.172c0.007-0.037,0.002-0.065-0.015-0.084c-0.034-0.132-0.118-0.196-0.251-0.195
		c-0.075,0.001-0.144,0.021-0.207,0.06l-0.066,0.058c-0.002,0.019-0.01,0.033-0.021,0.043c-0.012,0.01-0.019,0.023-0.021,0.043
		c-0.022,0.02-0.047,0.047-0.072,0.086l-0.226,0.343l-0.731,1.2l-2.104,3.541c-3.816,6.418-6.687,11.481-8.61,15.192
		C403.427,544.73,403.467,544.865,403.653,544.93 M406.464,522.374c-0.132-0.112-0.267-0.091-0.405,0.062
		c-0.502,0.535-0.997,1.204-1.486,2.002c-0.487,0.801-0.848,1.448-1.079,1.942l-1.004,2.168c-1.638,3.574-2.704,7.319-3.201,11.237
		c-0.496,3.918-0.337,7.6,0.478,11.048c0.028,0.17,0.139,0.22,0.328,0.15c0.191-0.067,0.264-0.196,0.219-0.385
		c-0.789-3.372-0.937-6.983-0.441-10.835c0.496-3.853,1.548-7.537,3.157-11.054c0.419-0.95,0.744-1.672,0.976-2.167
		c0.231-0.494,0.579-1.117,1.041-1.87c0.462-0.752,0.933-1.387,1.412-1.902C406.595,522.618,406.598,522.485,406.464,522.374"/>
	<path clip-path="url(#SVGID_2_)" fill="none" stroke="#1C2F3C" stroke-miterlimit="3.714" d="M474.176,550.327
		c0.144,0.102,0.274,0.076,0.395-0.076c0.473-0.592,0.93-1.283,1.369-2.072c0.439-0.791,0.778-1.451,1.016-1.983
		c0.162-0.418,0.461-1.149,0.895-2.194c1.471-3.59,2.367-7.353,2.688-11.288c0.322-3.952-0.028-7.586-1.053-10.897
		c-0.049-0.171-0.164-0.215-0.346-0.139c-0.183,0.079-0.25,0.202-0.202,0.372c0.993,3.275,1.335,6.852,1.024,10.729
		c-0.311,3.878-1.198,7.583-2.659,11.117c-0.356,0.912-0.647,1.634-0.875,2.167c-0.229,0.53-0.545,1.168-0.949,1.911
		c-0.423,0.742-0.857,1.389-1.306,1.943C474.031,550.089,474.033,550.226,474.176,550.327z M473.856,543.174
		c0.124-0.189,0.101-0.331-0.072-0.423c-0.315-0.147-0.651-0.341-1.009-0.582l-0.79-0.528c-0.187-0.131-0.505-0.371-0.957-0.725
		l-0.829-0.642c-0.269-0.204-1.103-0.808-2.504-1.809c-0.964-0.687-1.727-1.263-2.292-1.728l1.747-2.914
		c0.408-0.081,0.876-0.162,1.397-0.244c1.045-0.166,2.263-0.352,3.654-0.559c1.447-0.208,2.258-0.322,2.431-0.344
		c0.214-0.041,0.319-0.164,0.314-0.374c-0.003-0.206-0.112-0.29-0.326-0.249c-0.158,0.04-0.959,0.158-2.405,0.356
		c-1.445,0.199-2.673,0.38-3.68,0.544l-0.963,0.184c2.188-3.6,4.447-7.106,6.774-10.52c0.125-0.19,0.101-0.331-0.072-0.424
		s-0.323-0.043-0.448,0.147c-2.406,3.546-4.743,7.187-7.01,10.918c-0.758,0.143-1.393,0.274-1.902,0.395
		c-0.547,0.12-0.971,0.239-1.273,0.356c-0.182,0.078-0.335,0.146-0.458,0.204c-0.167,0.097-0.278,0.202-0.334,0.316
		c-0.078,0.133-0.104,0.294-0.078,0.482c0.038,0.112,0.102,0.236,0.195,0.366c0.136,0.207,0.341,0.449,0.615,0.729
		c0.247,0.224,0.586,0.512,1.02,0.865c-1.331,2.267-2.629,4.561-3.893,6.883c-0.106,0.189-0.071,0.321,0.105,0.395
		s0.317,0.016,0.424-0.175l3.812-6.739c0.449,0.372,1.188,0.919,2.222,1.644c1.283,0.908,2.119,1.513,2.505,1.81
		c0.082,0.074,0.349,0.287,0.8,0.641l0.98,0.753c0.187,0.129,0.463,0.311,0.83,0.541c0.367,0.232,0.708,0.43,1.021,0.597
		C473.582,543.414,473.731,543.365,473.856,543.174z M463.438,534.751c0.064-0.057,0.166-0.105,0.306-0.146
		c0.301-0.117,0.708-0.236,1.217-0.356c0.409-0.08,0.888-0.181,1.435-0.303l-1.441,2.429c-0.37-0.278-0.667-0.529-0.895-0.754
		c-0.264-0.241-0.446-0.446-0.551-0.615c-0.06-0.094-0.096-0.169-0.104-0.226l0.005-0.029H463.438z M454.027,533.146
		c1.588-0.493,2.927-0.964,4.02-1.413c1.313-0.547,2.234-1.05,2.762-1.51c0.974-0.882,1.22-1.812,0.737-2.787
		c-0.372-0.732-1.167-1.459-2.389-2.181c-1.034-0.591-2.197-1.095-3.485-1.513l0.597-0.886c0.126-0.191,0.101-0.332-0.073-0.425
		c-0.173-0.093-0.322-0.043-0.447,0.147l-0.672,1.001c-0.902-0.253-1.599-0.376-2.089-0.369c-0.209,0.002-0.329,0.108-0.363,0.316
		c-0.032,0.208,0.054,0.311,0.261,0.309c0.416-0.007,1.021,0.099,1.815,0.315c-2.143,3.203-4.234,6.49-6.271,9.86
		c-0.589,0.141-1.137,0.262-1.644,0.363c-0.213,0.04-0.318,0.164-0.314,0.371c0.003,0.209,0.112,0.293,0.327,0.252
		c0.333-0.08,0.733-0.171,1.203-0.271c-1.86,3.086-3.65,6.208-5.371,9.367c-0.107,0.189-0.072,0.321,0.104,0.395
		s0.317,0.016,0.425-0.175c2.284-4.073,4.14-7.3,5.564-9.682c0.174,0.433,0.374,0.883,0.6,1.354l0.614,1.268l0.751,1.293
		l0.702,1.238l0.808,1.294l0.746,1.151l0.812,1.265c0.407,0.619,0.656,1.003,0.746,1.152c0.106,0.149,0.25,0.162,0.432,0.037
		c0.181-0.125,0.229-0.272,0.143-0.441c-0.107-0.149-0.366-0.533-0.774-1.151l-0.788-1.238l-0.745-1.151l-0.812-1.265l-0.685-1.182
		c-0.294-0.507-0.535-0.937-0.722-1.294l-0.591-1.239l-0.608-1.296C450.983,534.008,452.542,533.581,454.027,533.146z
		 M458.754,525.828c1.139,0.646,1.871,1.298,2.197,1.955c0.355,0.714,0.182,1.377-0.521,1.99c-0.446,0.423-1.295,0.886-2.545,1.395
		c-1.07,0.43-2.39,0.891-3.958,1.384c-1.489,0.454-3.057,0.881-4.706,1.28c1.96-3.238,3.976-6.409,6.047-9.518
		C456.578,524.714,457.74,525.218,458.754,525.828z M442.917,528.615c0.003-0.02,0.029-0.067,0.08-0.144l0.718-1.455
		c0.449-1.026,0.644-1.813,0.582-2.36c-0.049-0.396-0.219-0.682-0.511-0.857c-0.293-0.176-0.691-0.222-1.194-0.141
		c-0.638,0.104-1.315,0.325-2.03,0.664c-0.716,0.341-1.308,0.675-1.774,1.002c-0.469,0.327-1.026,0.74-1.673,1.24
		c-2.85,2.211-5.505,4.861-7.97,7.955c-1.025-0.875-1.751-1.64-2.172-2.295c-0.135-0.206-0.321-0.224-0.557-0.05
		s-0.284,0.363-0.149,0.568c0.468,0.713,1.25,1.534,2.343,2.464c-0.862,1.127-1.705,2.31-2.53,3.548
		c-0.868,1.278-1.743,2.839-2.628,4.683c-0.573,1.197-0.933,2.139-1.082,2.82c-0.089,0.436-0.1,0.785-0.029,1.049
		c0.13,0.357,0.394,0.533,0.791,0.528c0.264-0.003,0.418-0.139,0.461-0.403c0.043-0.264-0.067-0.396-0.332-0.392
		c-0.075,0-0.118-0.027-0.127-0.084c-0.052-0.15-0.043-0.378,0.024-0.68c0.139-0.607,0.467-1.471,0.988-2.593
		c0.854-1.768,1.707-3.301,2.559-4.597c0.795-1.182,1.622-2.317,2.479-3.405c1.217,0.967,2.85,2.116,4.895,3.45
		c0.206,0.131,0.393,0.08,0.562-0.148c0.168-0.229,0.151-0.408-0.054-0.538c-2.045-1.334-3.668-2.484-4.868-3.45
		c2.421-3.056,5.022-5.659,7.805-7.812c0.992-0.769,1.885-1.385,2.677-1.849s1.584-0.758,2.378-0.882
		c0.326-0.042,0.56-0.025,0.699,0.048c0.119,0.074,0.193,0.205,0.218,0.394c0.045,0.415-0.125,1.06-0.514,1.935
		c-0.146,0.322-0.326,0.675-0.539,1.056c-0.003,0.019-0.046,0.114-0.131,0.284l-0.033,0.03l-0.01,0.056l-0.037,0.058
		c0.004-0.019,0.016-0.038,0.037-0.058l-0.037,0.058l-0.075,0.114l-1.048,1.742l-0.003,0.028c-0.205,0.325-0.33,0.516-0.376,0.572
		c-0.186,0.324-0.481,0.81-0.889,1.457l-0.916,1.457l-5.969,10.083l-1.132,1.915c-0.105,0.19-0.172,0.305-0.197,0.343l-0.032,0.028
		l-0.009,0.057c-0.027,0.039-0.039,0.067-0.043,0.086c-0.03,0.303,0.11,0.424,0.422,0.363c0.098-0.021,0.179-0.06,0.244-0.116
		c0.005-0.02,0.016-0.039,0.037-0.058l0.034-0.029l0.041-0.086l3.604-5.97c0.003-0.02,0.016-0.038,0.038-0.059l3.155-5.312
		l2.639-4.398c0.004-0.021,0.015-0.029,0.034-0.03L442.917,528.615z M403.653,544.93c0.188,0.063,0.326,0,0.413-0.189
		c1.961-3.823,4.831-8.888,8.61-15.191l2.1-3.514l0.296-0.429c-0.09,0.435-0.198,0.985-0.326,1.647
		c-0.361,1.876-0.666,3.628-0.911,5.256c-0.161,1.099-0.281,2.006-0.359,2.725c-0.05,0.418-0.078,0.71-0.087,0.881
		c-0.003,0.133-0.001,0.236,0.006,0.312l0.038,0.112c0.041,0.095,0.099,0.15,0.172,0.168c0.141,0.055,0.313,0.034,0.519-0.063
		c0.122-0.058,0.26-0.153,0.414-0.289c0.22-0.191,0.504-0.487,0.853-0.89c0.091-0.095,0.514-0.61,1.269-1.546
		c0.539-0.65,1.47-1.726,2.788-3.227c1.319-1.5,2.504-2.758,3.556-3.773c0.631-0.632,1.141-1.101,1.53-1.409
		c0.214-0.153,0.382-0.259,0.505-0.318h0.027c-0.021,0.134-0.082,0.342-0.186,0.627c-0.257,0.645-0.742,1.596-1.454,2.853
		l-0.785,1.343l-0.164,0.313c-0.003,0.02-0.017,0.039-0.038,0.058l-0.009,0.058l-0.005,0.027c-0.021,0.02-0.034,0.038-0.038,0.058
		l-0.206,0.399l-2.872,5.14c-0.458,0.837-1.07,2.111-1.839,3.821c-0.797,1.769-1.391,3.032-1.777,3.793
		c-0.108,0.21-0.069,0.346,0.117,0.41c0.188,0.063,0.325,0,0.412-0.189c0.359-0.704,0.964-1.987,1.814-3.851
		c0.738-1.636,1.338-2.89,1.803-3.765l2.872-5.14c0.76-1.313,1.166-2.01,1.216-2.086l0.01-0.057l0.037-0.057l0.014-0.085
		c0.717-1.275,1.204-2.245,1.463-2.91c0.132-0.343,0.213-0.607,0.243-0.797c0.028-0.284-0.055-0.471-0.247-0.564
		c-0.153-0.092-0.355-0.069-0.604,0.064c-0.183,0.079-0.394,0.214-0.633,0.406c-0.427,0.308-0.967,0.787-1.619,1.438
		c-1.055,1.033-2.247,2.307-3.577,3.815c-1.33,1.512-2.266,2.6-2.809,3.269c-0.777,0.955-1.199,1.461-1.265,1.52
		c-0.304,0.362-0.564,0.63-0.781,0.804c-0.047,0.057-0.092,0.095-0.132,0.114l0.054-0.852c0.086-0.643,0.212-1.533,0.378-2.668
		c0.305-1.989,0.609-3.74,0.912-5.256c0.202-1.003,0.344-1.762,0.428-2.273c0.04-0.245,0.061-0.436,0.064-0.566
		c0.009-0.058,0.008-0.114-0.002-0.172c0.007-0.037,0.002-0.065-0.015-0.084c-0.034-0.132-0.118-0.196-0.251-0.195
		c-0.075,0.001-0.144,0.021-0.207,0.06l-0.066,0.058c-0.002,0.019-0.01,0.033-0.021,0.043c-0.012,0.01-0.019,0.023-0.021,0.043
		c-0.022,0.02-0.047,0.047-0.072,0.086l-0.226,0.343l-0.731,1.2l-2.104,3.541c-3.816,6.418-6.687,11.481-8.61,15.192
		C403.427,544.73,403.467,544.865,403.653,544.93z M406.464,522.374c-0.132-0.112-0.267-0.091-0.405,0.062
		c-0.502,0.535-0.997,1.204-1.486,2.002c-0.487,0.801-0.848,1.448-1.079,1.942l-1.004,2.168c-1.638,3.574-2.704,7.319-3.201,11.237
		c-0.496,3.918-0.337,7.6,0.478,11.048c0.028,0.17,0.139,0.22,0.328,0.15c0.191-0.067,0.264-0.196,0.219-0.385
		c-0.789-3.372-0.937-6.983-0.441-10.835c0.496-3.853,1.548-7.537,3.157-11.054c0.419-0.95,0.744-1.672,0.976-2.167
		c0.231-0.494,0.579-1.117,1.041-1.87c0.462-0.752,0.933-1.387,1.412-1.902C406.595,522.618,406.598,522.485,406.464,522.374z"/>
	<path clip-path="url(#SVGID_2_)" fill="#1C2F3C" d="M360.117,516.581c-0.391-0.053-0.657,0.114-0.795,0.498
		c-0.253,0.844-0.479,1.992-0.676,3.447c-0.256,1.569-0.454,2.662-0.59,3.274c-0.031,0.192-0.213,0.948-0.543,2.271
		c-0.329,1.323-0.539,2.138-0.627,2.444c-0.087,0.308-0.274,1.045-0.56,2.214c-0.287,1.17-0.476,1.983-0.569,2.443
		c-0.096,0.46-0.264,1.208-0.509,2.243c-0.245,1.034-0.415,1.849-0.512,2.441c-0.097,0.594-0.236,1.331-0.417,2.212
		c-0.184,0.882-0.335,1.705-0.46,2.471c-0.126,0.767-0.23,1.532-0.317,2.297l-0.168,1.033l-0.168,1.035
		c-0.162,0.996-0.265,1.856-0.307,2.583c-0.139,2.257,0.188,3.761,0.98,4.514c0.389,0.416,0.924,0.408,1.604-0.02
		c0.419-0.235,0.91-0.68,1.476-1.338c0.881-0.966,1.966-2.471,3.251-4.513c0.602-0.888,1.665-2.62,3.19-5.2
		c1.153-1.926,1.828-3.024,2.023-3.294l2.576-3.874c-0.088,0.537-0.208,1.149-0.356,1.839c-0.058,0.115-0.589,2.091-1.595,5.925
		c-0.691,2.607-1.127,4.581-1.307,5.92c-0.262,2.066-0.044,3.421,0.653,4.061c0.785,0.793,1.845,0.836,3.181,0.131
		c0.96-0.508,2.062-1.421,3.305-2.737c0.463-0.502,0.967-1.072,1.509-1.711c0.542-0.636,0.983-1.188,1.327-1.65l1.16-1.505
		c0.386-0.501,0.604-0.791,0.656-0.868c1.686-2.162,6.801-9.106,15.345-20.835l2.044-2.721c0.924-1.234,1.658-2.236,2.205-3.008
		c0.545-0.772,1.167-1.727,1.867-2.862s1.282-2.204,1.751-3.204c0.177-0.384,0.075-0.641-0.303-0.77
		c-0.38-0.129-0.681,0.018-0.902,0.441c-0.423,0.96-0.971,1.98-1.641,3.059c-0.673,1.079-1.267,1.984-1.787,2.717
		c-0.521,0.734-1.262,1.717-2.225,2.953l-2.064,2.835c-7.49,10.416-12.561,17.321-15.211,20.718
		c-0.095,0.116-0.338,0.444-0.73,0.984l-1.085,1.39c-0.343,0.464-0.773,1.004-1.293,1.622c-0.521,0.618-1.013,1.18-1.475,1.681
		c-1.104,1.161-2.052,1.947-2.844,2.359c-0.792,0.411-1.405,0.43-1.838,0.053c-0.428-0.415-0.543-1.464-0.345-3.147
		c0.173-1.301,0.603-3.237,1.288-5.807c1.012-3.872,1.543-5.846,1.594-5.924c0.489-2.069,0.623-3.466,0.396-4.189
		c-0.084-0.189-0.218-0.303-0.402-0.339c-0.146-0.035-0.304-0.014-0.467,0.063l-0.201,0.175c-0.045,0.039-0.093,0.097-0.143,0.174
		c-0.051,0.078-0.124,0.174-0.219,0.289l-0.77,1.214l-2.708,3.991c-0.197,0.27-0.875,1.387-2.032,3.351
		c-1.324,2.271-2.365,3.986-3.125,5.142c-1.273,1.965-2.329,3.411-3.166,4.341c-0.432,0.541-0.793,0.889-1.085,1.046
		c-0.044,0.038-0.087,0.058-0.125,0.059c-0.556-0.566-0.773-1.805-0.651-3.718c0.028-0.649,0.125-1.472,0.287-2.468l0.159-0.977
		l0.167-1.034c0.087-0.765,0.192-1.521,0.313-2.268c0.122-0.747,0.273-1.561,0.455-2.441c0.181-0.881,0.32-1.619,0.417-2.213
		c0.097-0.593,0.267-1.407,0.512-2.442c0.246-1.035,0.413-1.772,0.504-2.213s0.281-1.255,0.57-2.444
		c0.287-1.187,0.463-1.915,0.527-2.184c0.062-0.268,0.271-1.083,0.626-2.444c0.354-1.361,0.544-2.119,0.57-2.271
		c0.144-0.652,0.347-1.782,0.608-3.391c0.193-1.415,0.406-2.488,0.64-3.218C360.652,516.87,360.51,516.633,360.117,516.581
		 M336.273,516.405c2.387-1.788,4.517-2.981,6.388-3.58c1.869-0.597,3.391-0.636,4.564-0.117c1.421,0.633,2.286,2.11,2.594,4.437
		c0.269,2.328-0.201,5.448-1.41,9.361c-1.479,4.872-3.963,9.7-7.448,14.484c-3.485,4.783-7.348,8.483-11.585,11.099
		c-4.569,2.771-7.78,3.177-9.634,1.214c-0.806-0.905-1.275-2.235-1.409-3.992c-0.133-1.755,0.118-3.765,0.754-6.028
		c1.377-4.947,3.57-9.867,6.578-14.76c2.97-4.89,6.396-8.718,10.276-11.482C336.164,516.847,336.273,516.635,336.273,516.405
		 M323.284,530.159c-2.432,4.388-4.245,8.73-5.439,13.024c-0.659,2.416-0.919,4.598-0.779,6.544s0.695,3.45,1.667,4.506
		c0.991,1.172,2.464,1.668,4.419,1.489c1.953-0.178,4.202-1.048,6.744-2.609c4.402-2.693,8.419-6.529,12.052-11.506
		c3.593-4.977,6.154-9.939,7.686-14.889c1.24-4.104,1.711-7.463,1.412-10.077c-0.299-2.612-1.338-4.311-3.117-5.089
		c-1.779-0.779-4.04-0.586-6.783,0.576c-2.744,1.164-5.767,3.219-9.068,6.165c-0.185,0.194-0.275,0.405-0.273,0.634
		C328.552,522.028,325.713,525.771,323.284,530.159 M309.773,554.121c0.254-0.385,0.205-0.67-0.145-0.857
		c-0.639-0.297-1.318-0.689-2.039-1.177l-1.6-1.068c-0.377-0.262-1.021-0.75-1.934-1.465l-1.676-1.296
		c-0.543-0.412-2.232-1.633-5.064-3.659c-1.948-1.388-3.493-2.553-4.637-3.492l3.534-5.894c0.827-0.162,1.769-0.328,2.825-0.495
		c2.113-0.332,4.576-0.708,7.389-1.128c2.927-0.42,4.567-0.652,4.916-0.695c0.434-0.081,0.645-0.333,0.638-0.754
		c-0.009-0.419-0.228-0.588-0.661-0.506c-0.318,0.081-1.938,0.321-4.863,0.722c-2.925,0.402-5.406,0.77-7.441,1.101l-1.947,0.37
		c4.426-7.28,8.992-14.37,13.699-21.271c0.253-0.386,0.205-0.671-0.146-0.858c-0.351-0.186-0.653-0.086-0.906,0.3
		c-4.865,7.169-9.591,14.53-14.175,22.079c-1.533,0.288-2.816,0.553-3.847,0.795c-1.106,0.245-1.966,0.484-2.576,0.722
		c-0.368,0.158-0.678,0.296-0.926,0.414c-0.337,0.194-0.562,0.408-0.676,0.639c-0.157,0.27-0.21,0.597-0.158,0.976
		c0.077,0.229,0.208,0.477,0.394,0.74c0.275,0.418,0.69,0.909,1.246,1.474c0.5,0.452,1.186,1.037,2.061,1.75
		c-2.69,4.584-5.315,9.223-7.87,13.917c-0.216,0.385-0.145,0.651,0.212,0.8c0.357,0.147,0.644,0.028,0.858-0.356l7.709-13.627
		c0.906,0.753,2.402,1.86,4.491,3.323c2.597,1.839,4.285,3.06,5.063,3.659c0.167,0.15,0.707,0.584,1.619,1.297l1.983,1.522
		c0.376,0.262,0.937,0.628,1.68,1.096c0.742,0.468,1.43,0.87,2.062,1.204C309.218,554.606,309.521,554.507,309.773,554.121
		 M288.703,537.089c0.134-0.117,0.34-0.214,0.619-0.295c0.61-0.237,1.431-0.478,2.462-0.721c0.827-0.162,1.794-0.366,2.902-0.61
		l-2.916,4.91c-0.747-0.563-1.351-1.072-1.81-1.523c-0.531-0.489-0.902-0.906-1.113-1.247c-0.121-0.188-0.193-0.341-0.212-0.456
		l0.01-0.057L288.703,537.089z M266.811,533.88c3.211-0.998,5.921-1.951,8.127-2.857c2.658-1.105,4.521-2.124,5.587-3.055
		c1.967-1.782,2.464-3.661,1.49-5.636c-0.751-1.481-2.36-2.95-4.83-4.407c-2.093-1.196-4.442-2.215-7.049-3.061l1.206-1.792
		c0.253-0.386,0.205-0.672-0.146-0.859c-0.352-0.186-0.654-0.086-0.907,0.3l-1.359,2.022c-1.824-0.51-3.232-0.76-4.225-0.746
		c-0.421,0.005-0.664,0.218-0.733,0.64c-0.069,0.422,0.107,0.63,0.528,0.624c0.84-0.012,2.062,0.202,3.669,0.64
		c-4.334,6.477-8.561,13.122-12.682,19.939c-1.19,0.283-2.297,0.526-3.322,0.731c-0.434,0.083-0.646,0.333-0.638,0.753
		c0.008,0.421,0.228,0.59,0.661,0.508c0.674-0.161,1.485-0.344,2.434-0.548c-3.761,6.239-7.382,12.554-10.861,18.941
		c-0.216,0.385-0.145,0.651,0.213,0.8c0.356,0.148,0.642,0.029,0.858-0.355c4.62-8.236,8.37-14.762,11.251-19.577
		c0.353,0.875,0.757,1.787,1.213,2.735l1.241,2.563l1.519,2.616l1.422,2.503l1.633,2.615l1.507,2.33l1.643,2.559
		c0.825,1.249,1.328,2.025,1.507,2.33c0.217,0.302,0.508,0.327,0.874,0.074c0.365-0.254,0.461-0.551,0.289-0.892
		c-0.218-0.304-0.739-1.08-1.565-2.33l-1.594-2.501l-1.507-2.33l-1.643-2.558l-1.383-2.389c-0.596-1.024-1.083-1.897-1.461-2.618
		l-1.192-2.506l-1.231-2.62C260.655,535.621,263.808,534.76,266.811,533.88 M276.368,519.081c2.303,1.307,3.785,2.626,4.446,3.954
		c0.717,1.442,0.365,2.784-1.056,4.025c-0.902,0.853-2.619,1.793-5.148,2.819c-2.162,0.869-4.831,1.802-8.004,2.798
		c-3.008,0.919-6.179,1.782-9.513,2.589c3.962-6.547,8.038-12.963,12.226-19.245C271.97,516.827,274.319,517.847,276.368,519.081
		 M228.828,517.812c2.387-1.788,4.517-2.981,6.387-3.579c1.87-0.599,3.392-0.637,4.565-0.118c1.422,0.633,2.287,2.111,2.594,4.437
		c0.269,2.329-0.201,5.448-1.41,9.361c-1.48,4.873-3.962,9.701-7.449,14.483c-3.486,4.784-7.348,8.485-11.586,11.1
		c-4.568,2.772-7.779,3.177-9.633,1.215c-0.806-0.906-1.275-2.237-1.408-3.994c-0.134-1.755,0.117-3.764,0.754-6.027
		c1.376-4.947,3.569-9.866,6.578-14.759c2.969-4.891,6.395-8.718,10.276-11.483C228.718,518.253,228.828,518.041,228.828,517.812
		 M215.837,531.565c-2.43,4.389-4.243,8.73-5.437,13.025c-0.66,2.415-0.921,4.597-0.78,6.543c0.14,1.947,0.695,3.45,1.667,4.507
		c0.991,1.171,2.464,1.668,4.418,1.489c1.954-0.178,4.203-1.049,6.744-2.61c4.403-2.694,8.421-6.529,12.052-11.506
		c3.593-4.976,6.155-9.938,7.686-14.888c1.24-4.105,1.71-7.464,1.413-10.078c-0.299-2.612-1.338-4.31-3.117-5.088
		c-1.78-0.779-4.042-0.587-6.784,0.575c-2.745,1.163-5.767,3.22-9.068,6.165c-0.184,0.194-0.275,0.406-0.274,0.635
		C221.107,523.436,218.268,527.178,215.837,531.565 M183.632,519.521c0.15,0.361,0.414,0.444,0.789,0.247
		c1.005-0.547,2.715-0.99,5.134-1.328c2.106-0.294,4.678-0.52,7.714-0.674h0.058c-8.381,12.604-16.265,25.66-23.648,39.168
		c-0.215,0.385-0.145,0.652,0.213,0.8c0.356,0.147,0.643,0.029,0.858-0.354c7.493-13.701,15.499-26.931,24.02-39.689
		c1.61-0.06,5.625-0.132,12.043-0.216c0.421-0.006,0.665-0.219,0.733-0.641c0.069-0.421-0.107-0.628-0.527-0.623
		c-6.189,0.081-9.994,0.15-11.413,0.206l1.654-2.428c0.252-0.385,0.205-0.671-0.146-0.858c-0.351-0.187-0.654-0.086-0.906,0.298
		l-2.043,3.065l-0.745,0.01c-3.113,0.156-5.723,0.382-7.83,0.675c-2.578,0.378-4.429,0.861-5.554,1.448
		C183.615,518.862,183.481,519.161,183.632,519.521 M174.545,515.629c0.269-0.367,0.231-0.663-0.113-0.889
		c-3.376-1.979-6.235-2.095-8.578-0.346c-1.823,1.362-3.253,3.941-4.291,7.736c-0.693,2.379-1.318,5.749-1.875,10.113
		c-0.546,4.287-0.938,6.813-1.177,7.58c-1.379,4.719-3.267,8.583-5.663,11.596c-1.484,1.853-3.165,3.279-5.042,4.278
		c-1.878,0.999-3.693,1.49-5.444,1.475c-1.796,0.023-3.349-0.5-4.661-1.572c-1.313-1.072-2.176-2.674-2.591-4.81
		c-0.052-0.38-0.291-0.502-0.713-0.362c-0.422,0.139-0.592,0.419-0.508,0.838c0.454,2.363,1.421,4.146,2.902,5.35
		c1.475,1.241,3.245,1.849,5.308,1.821c2.019,0.011,4.072-0.54,6.16-1.656c2.087-1.116,3.924-2.679,5.509-4.687
		c2.574-3.165,4.569-7.225,5.985-12.172c0.252-0.843,0.654-3.428,1.206-7.753c0.545-4.286,1.142-7.6,1.79-9.938
		c0.982-3.453,2.25-5.743,3.807-6.871c1.784-1.36,4.157-1.182,7.118,0.537C173.985,516.085,174.276,515.994,174.545,515.629"/>
	<path clip-path="url(#SVGID_2_)" fill="none" stroke="#1C2F3C" stroke-width="1.5" stroke-miterlimit="5.252" d="M360.117,516.581
		c-0.391-0.053-0.657,0.114-0.795,0.498c-0.253,0.844-0.479,1.992-0.676,3.447c-0.256,1.569-0.454,2.662-0.59,3.274
		c-0.031,0.192-0.213,0.948-0.543,2.271c-0.329,1.323-0.539,2.138-0.627,2.444c-0.087,0.308-0.274,1.045-0.56,2.214
		c-0.287,1.17-0.476,1.983-0.569,2.443c-0.096,0.46-0.264,1.208-0.509,2.243c-0.245,1.034-0.415,1.849-0.512,2.441
		c-0.097,0.594-0.236,1.331-0.417,2.212c-0.184,0.882-0.335,1.705-0.46,2.471c-0.126,0.767-0.23,1.532-0.317,2.297l-0.168,1.033
		l-0.168,1.035c-0.162,0.996-0.265,1.856-0.307,2.583c-0.139,2.257,0.188,3.761,0.98,4.514c0.389,0.416,0.924,0.408,1.604-0.02
		c0.419-0.235,0.91-0.68,1.476-1.338c0.881-0.966,1.966-2.471,3.251-4.513c0.602-0.888,1.665-2.62,3.19-5.2
		c1.153-1.926,1.828-3.024,2.023-3.294l2.576-3.874c-0.088,0.537-0.208,1.149-0.356,1.839c-0.058,0.115-0.589,2.091-1.595,5.925
		c-0.691,2.607-1.127,4.581-1.307,5.92c-0.262,2.066-0.044,3.421,0.653,4.061c0.785,0.793,1.845,0.836,3.181,0.131
		c0.96-0.508,2.062-1.421,3.305-2.737c0.463-0.502,0.967-1.072,1.509-1.711c0.542-0.636,0.983-1.188,1.327-1.65l1.16-1.505
		c0.386-0.501,0.604-0.791,0.656-0.868c1.686-2.162,6.801-9.106,15.345-20.835l2.044-2.721c0.924-1.234,1.658-2.236,2.205-3.008
		c0.545-0.772,1.167-1.727,1.867-2.862s1.282-2.204,1.751-3.204c0.177-0.384,0.075-0.641-0.303-0.77
		c-0.38-0.129-0.681,0.018-0.902,0.441c-0.423,0.96-0.971,1.98-1.641,3.059c-0.673,1.079-1.267,1.984-1.787,2.717
		c-0.521,0.734-1.262,1.717-2.225,2.953l-2.064,2.835c-7.49,10.416-12.561,17.321-15.211,20.718
		c-0.095,0.116-0.338,0.444-0.73,0.984l-1.085,1.39c-0.343,0.464-0.773,1.004-1.293,1.622c-0.521,0.618-1.013,1.18-1.475,1.681
		c-1.104,1.161-2.052,1.947-2.844,2.359c-0.792,0.411-1.405,0.43-1.838,0.053c-0.428-0.415-0.543-1.464-0.345-3.147
		c0.173-1.301,0.603-3.237,1.288-5.807c1.012-3.872,1.543-5.846,1.594-5.924c0.489-2.069,0.623-3.466,0.396-4.189
		c-0.084-0.189-0.218-0.303-0.402-0.339c-0.146-0.035-0.304-0.014-0.467,0.063l-0.201,0.175c-0.045,0.039-0.093,0.097-0.143,0.174
		c-0.051,0.078-0.124,0.174-0.219,0.289l-0.77,1.214l-2.708,3.991c-0.197,0.27-0.875,1.387-2.032,3.351
		c-1.324,2.271-2.365,3.986-3.125,5.142c-1.273,1.965-2.329,3.411-3.166,4.341c-0.432,0.541-0.793,0.889-1.085,1.046
		c-0.044,0.038-0.087,0.058-0.125,0.059c-0.556-0.566-0.773-1.805-0.651-3.718c0.028-0.649,0.125-1.472,0.287-2.468l0.159-0.977
		l0.167-1.034c0.087-0.765,0.192-1.521,0.313-2.268c0.122-0.747,0.273-1.561,0.455-2.441c0.181-0.881,0.32-1.619,0.417-2.213
		c0.097-0.593,0.267-1.407,0.512-2.442c0.246-1.035,0.413-1.772,0.504-2.213s0.281-1.255,0.57-2.444
		c0.287-1.187,0.463-1.915,0.527-2.184c0.062-0.268,0.271-1.083,0.626-2.444c0.354-1.361,0.544-2.119,0.57-2.271
		c0.144-0.652,0.347-1.782,0.608-3.391c0.193-1.415,0.406-2.488,0.64-3.218C360.652,516.87,360.51,516.633,360.117,516.581z
		 M336.273,516.405c2.387-1.788,4.517-2.981,6.388-3.58c1.869-0.597,3.391-0.636,4.564-0.117c1.421,0.633,2.286,2.11,2.594,4.437
		c0.269,2.328-0.201,5.448-1.41,9.361c-1.479,4.872-3.963,9.7-7.448,14.484c-3.485,4.783-7.348,8.483-11.585,11.099
		c-4.569,2.771-7.78,3.177-9.634,1.214c-0.806-0.905-1.275-2.235-1.409-3.992c-0.133-1.755,0.118-3.765,0.754-6.028
		c1.377-4.947,3.57-9.867,6.578-14.76c2.97-4.89,6.396-8.718,10.276-11.482C336.164,516.847,336.273,516.635,336.273,516.405z
		 M323.284,530.159c-2.432,4.388-4.245,8.73-5.439,13.024c-0.659,2.416-0.919,4.598-0.779,6.544s0.695,3.45,1.667,4.506
		c0.991,1.172,2.464,1.668,4.419,1.489c1.953-0.178,4.202-1.048,6.744-2.609c4.402-2.693,8.419-6.529,12.052-11.506
		c3.593-4.977,6.154-9.939,7.686-14.889c1.24-4.104,1.711-7.463,1.412-10.077c-0.299-2.612-1.338-4.311-3.117-5.089
		c-1.779-0.779-4.04-0.586-6.783,0.576c-2.744,1.164-5.767,3.219-9.068,6.165c-0.185,0.194-0.275,0.405-0.273,0.634
		C328.552,522.028,325.713,525.771,323.284,530.159z M309.773,554.121c0.254-0.385,0.205-0.67-0.145-0.857
		c-0.639-0.297-1.318-0.689-2.039-1.177l-1.6-1.068c-0.377-0.262-1.021-0.75-1.934-1.465l-1.676-1.296
		c-0.543-0.412-2.232-1.633-5.064-3.659c-1.948-1.388-3.493-2.553-4.637-3.492l3.534-5.894c0.827-0.162,1.769-0.328,2.825-0.495
		c2.113-0.332,4.576-0.708,7.389-1.128c2.927-0.42,4.567-0.652,4.916-0.695c0.434-0.081,0.645-0.333,0.638-0.754
		c-0.009-0.419-0.228-0.588-0.661-0.506c-0.318,0.081-1.938,0.321-4.863,0.722c-2.925,0.402-5.406,0.77-7.441,1.101l-1.947,0.37
		c4.426-7.28,8.992-14.37,13.699-21.271c0.253-0.386,0.205-0.671-0.146-0.858c-0.351-0.186-0.653-0.086-0.906,0.3
		c-4.865,7.169-9.591,14.53-14.175,22.079c-1.533,0.288-2.816,0.553-3.847,0.795c-1.106,0.245-1.966,0.484-2.576,0.722
		c-0.368,0.158-0.678,0.296-0.926,0.414c-0.337,0.194-0.562,0.408-0.676,0.639c-0.157,0.27-0.21,0.597-0.158,0.976
		c0.077,0.229,0.208,0.477,0.394,0.74c0.275,0.418,0.69,0.909,1.246,1.474c0.5,0.452,1.186,1.037,2.061,1.75
		c-2.69,4.584-5.315,9.223-7.87,13.917c-0.216,0.385-0.145,0.651,0.212,0.8c0.357,0.147,0.644,0.028,0.858-0.356l7.709-13.627
		c0.906,0.753,2.402,1.86,4.491,3.323c2.597,1.839,4.285,3.06,5.063,3.659c0.167,0.15,0.707,0.584,1.619,1.297l1.983,1.522
		c0.376,0.262,0.937,0.628,1.68,1.096c0.742,0.468,1.43,0.87,2.062,1.204C309.218,554.606,309.521,554.507,309.773,554.121z
		 M288.703,537.089c0.134-0.117,0.34-0.214,0.619-0.295c0.61-0.237,1.431-0.478,2.462-0.721c0.827-0.162,1.794-0.366,2.902-0.61
		l-2.916,4.91c-0.747-0.563-1.351-1.072-1.81-1.523c-0.531-0.489-0.902-0.906-1.113-1.247c-0.121-0.188-0.193-0.341-0.212-0.456
		l0.01-0.057L288.703,537.089z M266.811,533.88c3.211-0.998,5.921-1.951,8.127-2.857c2.658-1.105,4.521-2.124,5.587-3.055
		c1.967-1.782,2.464-3.661,1.49-5.636c-0.751-1.481-2.36-2.95-4.83-4.407c-2.093-1.196-4.442-2.215-7.049-3.061l1.206-1.792
		c0.253-0.386,0.205-0.672-0.146-0.859c-0.352-0.186-0.654-0.086-0.907,0.3l-1.359,2.022c-1.824-0.51-3.232-0.76-4.225-0.746
		c-0.421,0.005-0.664,0.218-0.733,0.64c-0.069,0.422,0.107,0.63,0.528,0.624c0.84-0.012,2.062,0.202,3.669,0.64
		c-4.334,6.477-8.561,13.122-12.682,19.939c-1.19,0.283-2.297,0.526-3.322,0.731c-0.434,0.083-0.646,0.333-0.638,0.753
		c0.008,0.421,0.228,0.59,0.661,0.508c0.674-0.161,1.485-0.344,2.434-0.548c-3.761,6.239-7.382,12.554-10.861,18.941
		c-0.216,0.385-0.145,0.651,0.213,0.8c0.356,0.148,0.642,0.029,0.858-0.355c4.62-8.236,8.37-14.762,11.251-19.577
		c0.353,0.875,0.757,1.787,1.213,2.735l1.241,2.563l1.519,2.616l1.422,2.503l1.633,2.615l1.507,2.33l1.643,2.559
		c0.825,1.249,1.328,2.025,1.507,2.33c0.217,0.302,0.508,0.327,0.874,0.074c0.365-0.254,0.461-0.551,0.289-0.892
		c-0.218-0.304-0.739-1.08-1.565-2.33l-1.594-2.501l-1.507-2.33l-1.643-2.558l-1.383-2.389c-0.596-1.024-1.083-1.897-1.461-2.618
		l-1.192-2.506l-1.231-2.62C260.655,535.621,263.808,534.76,266.811,533.88z M276.368,519.081c2.303,1.307,3.785,2.626,4.446,3.954
		c0.717,1.442,0.365,2.784-1.056,4.025c-0.902,0.853-2.619,1.793-5.148,2.819c-2.162,0.869-4.831,1.802-8.004,2.798
		c-3.008,0.919-6.179,1.782-9.513,2.589c3.962-6.547,8.038-12.963,12.226-19.245C271.97,516.827,274.319,517.847,276.368,519.081z
		 M228.828,517.812c2.387-1.788,4.517-2.981,6.387-3.579c1.87-0.599,3.392-0.637,4.565-0.118c1.422,0.633,2.287,2.111,2.594,4.437
		c0.269,2.329-0.201,5.448-1.41,9.361c-1.48,4.873-3.962,9.701-7.449,14.483c-3.486,4.784-7.348,8.485-11.586,11.1
		c-4.568,2.772-7.779,3.177-9.633,1.215c-0.806-0.906-1.275-2.237-1.408-3.994c-0.134-1.755,0.117-3.764,0.754-6.027
		c1.376-4.947,3.569-9.866,6.578-14.759c2.969-4.891,6.395-8.718,10.276-11.483C228.718,518.253,228.828,518.041,228.828,517.812z
		 M215.837,531.565c-2.43,4.389-4.243,8.73-5.437,13.025c-0.66,2.415-0.921,4.597-0.78,6.543c0.14,1.947,0.695,3.45,1.667,4.507
		c0.991,1.171,2.464,1.668,4.418,1.489c1.954-0.178,4.203-1.049,6.744-2.61c4.403-2.694,8.421-6.529,12.052-11.506
		c3.593-4.976,6.155-9.938,7.686-14.888c1.24-4.105,1.71-7.464,1.413-10.078c-0.299-2.612-1.338-4.31-3.117-5.088
		c-1.78-0.779-4.042-0.587-6.784,0.575c-2.745,1.163-5.767,3.22-9.068,6.165c-0.184,0.194-0.275,0.406-0.274,0.635
		C221.107,523.436,218.268,527.178,215.837,531.565z M183.632,519.521c0.15,0.361,0.414,0.444,0.789,0.247
		c1.005-0.547,2.715-0.99,5.134-1.328c2.106-0.294,4.678-0.52,7.714-0.674h0.058c-8.381,12.604-16.265,25.66-23.648,39.168
		c-0.215,0.385-0.145,0.652,0.213,0.8c0.356,0.147,0.643,0.029,0.858-0.354c7.493-13.701,15.499-26.931,24.02-39.689
		c1.61-0.06,5.625-0.132,12.043-0.216c0.421-0.006,0.665-0.219,0.733-0.641c0.069-0.421-0.107-0.628-0.527-0.623
		c-6.189,0.081-9.994,0.15-11.413,0.206l1.654-2.428c0.252-0.385,0.205-0.671-0.146-0.858c-0.351-0.187-0.654-0.086-0.906,0.298
		l-2.043,3.065l-0.745,0.01c-3.113,0.156-5.723,0.382-7.83,0.675c-2.578,0.378-4.429,0.861-5.554,1.448
		C183.615,518.862,183.481,519.161,183.632,519.521z M174.545,515.629c0.269-0.367,0.231-0.663-0.113-0.889
		c-3.376-1.979-6.235-2.095-8.578-0.346c-1.823,1.362-3.253,3.941-4.291,7.736c-0.693,2.379-1.318,5.749-1.875,10.113
		c-0.546,4.287-0.938,6.813-1.177,7.58c-1.379,4.719-3.267,8.583-5.663,11.596c-1.484,1.853-3.165,3.279-5.042,4.278
		c-1.878,0.999-3.693,1.49-5.444,1.475c-1.796,0.023-3.349-0.5-4.661-1.572c-1.313-1.072-2.176-2.674-2.591-4.81
		c-0.052-0.38-0.291-0.502-0.713-0.362c-0.422,0.139-0.592,0.419-0.508,0.838c0.454,2.363,1.421,4.146,2.902,5.35
		c1.475,1.241,3.245,1.849,5.308,1.821c2.019,0.011,4.072-0.54,6.16-1.656c2.087-1.116,3.924-2.679,5.509-4.687
		c2.574-3.165,4.569-7.225,5.985-12.172c0.252-0.843,0.654-3.428,1.206-7.753c0.545-4.286,1.142-7.6,1.79-9.938
		c0.982-3.453,2.25-5.743,3.807-6.871c1.784-1.36,4.157-1.182,7.118,0.537C173.985,516.085,174.276,515.994,174.545,515.629z"/>
	<path clip-path="url(#SVGID_2_)" fill="#1C2F3C" d="M445.331,444.605c0.123,0.255,0.316,0.304,0.579,0.146
		c0.701-0.435,1.917-0.825,3.648-1.167c1.508-0.299,3.353-0.566,5.536-0.802l0.042-0.004c-5.53,9.435-10.681,19.174-15.452,29.22
		c-0.14,0.286-0.079,0.476,0.187,0.567c0.263,0.093,0.464-0.004,0.604-0.291c4.842-10.188,10.075-20.058,15.698-29.61
		c1.159-0.107,4.052-0.324,8.678-0.648c0.303-0.021,0.47-0.184,0.502-0.49c0.031-0.307-0.104-0.449-0.406-0.429
		c-4.461,0.312-7.201,0.518-8.223,0.616l1.093-1.819c0.167-0.288,0.12-0.492-0.141-0.612s-0.476-0.036-0.641,0.251l-1.35,2.296
		l-0.537,0.037c-2.237,0.239-4.111,0.509-5.618,0.808c-1.844,0.378-3.159,0.802-3.946,1.272
		C445.292,444.131,445.206,444.353,445.331,444.605 M439.649,442.098c0.18-0.275,0.141-0.486-0.117-0.635
		c-2.516-1.29-4.582-1.257-6.202,0.102c-1.258,1.057-2.185,2.975-2.776,5.755c-0.403,1.744-0.716,4.2-0.939,7.37
		c-0.219,3.115-0.398,4.953-0.538,5.518c-0.802,3.458-2.005,6.323-3.609,8.594c-0.995,1.397-2.148,2.494-3.462,3.292
		c-1.314,0.798-2.604,1.227-3.865,1.287c-1.297,0.091-2.438-0.224-3.428-0.943c-0.99-0.719-1.679-1.839-2.065-3.362
		c-0.054-0.271-0.229-0.35-0.529-0.232c-0.299,0.118-0.41,0.326-0.332,0.625c0.425,1.687,1.194,2.933,2.313,3.74
		c1.114,0.835,2.415,1.2,3.901,1.097c1.457-0.075,2.914-0.558,4.375-1.448c1.46-0.89,2.722-2.092,3.781-3.604
		c1.728-2.39,3-5.398,3.819-9.025c0.146-0.618,0.33-2.498,0.552-5.641c0.218-3.114,0.514-5.527,0.884-7.242
		c0.566-2.529,1.388-4.233,2.464-5.111c1.231-1.054,2.95-1.022,5.156,0.097C439.264,442.45,439.471,442.374,439.649,442.098
		 M401.164,443.708c-0.239-0.183-0.479-0.144-0.719,0.119c-2.394,2.842-4.73,6.434-7.008,10.773
		c-2.275,4.309-3.885,8.203-4.827,11.682c-0.639,2.32-1.005,4.067-1.097,5.241c-0.22,2.66,0.443,4.15,1.989,4.473
		c1.786,0.337,3.83-0.33,6.132-1.996c1.511-1.091,3.099-2.616,4.763-4.576c1.694-1.963,3.306-4.09,4.839-6.379
		c1.53-2.29,2.972-4.735,4.323-7.336c1.352-2.6,2.501-4.939,3.448-7.02c0.948-2.079,2.027-4.546,3.238-7.396
		c0.154-0.318,0.077-0.521-0.232-0.606c-0.311-0.086-0.529,0.045-0.656,0.392c-1.208,2.821-2.293,5.272-3.255,7.352
		c-0.964,2.082-2.103,4.398-3.419,6.949c-1.315,2.552-2.729,4.957-4.242,7.214s-3.099,4.337-4.756,6.234
		c-1.623,1.866-3.144,3.327-4.56,4.378c-2.007,1.462-3.753,2.045-5.24,1.75c-1.104-0.2-1.558-1.367-1.363-3.502
		c0.083-1.082,0.442-2.767,1.078-5.056c0.936-3.417,2.521-7.232,4.757-11.446c2.21-4.273,4.492-7.784,6.846-10.532
		C401.416,444.128,401.403,443.892,401.164,443.708 M385.974,451.122c0.325,0.15,0.593,0.045,0.802-0.315
		c0.38-0.684,0.655-1.204,0.83-1.562l0.774-1.507c0.383-0.719,0.659-1.325,0.831-1.821s0.351-1.062,0.538-1.699
		c0.186-0.636,0.311-1.249,0.372-1.841c0.062-0.593,0.055-1.162-0.024-1.71c-0.219-1.507-0.984-2.335-2.302-2.485
		c-1.014-0.102-2.329,0.215-3.943,0.95c-1.187,0.568-2.408,1.293-3.662,2.176c-1.255,0.884-2.223,1.643-2.904,2.278
		c-1.783,1.682-3.962,4.046-6.537,7.097c-2.503,3.012-4.902,6.172-7.197,9.479c-2.622,3.813-4.635,7.206-6.041,10.175
		c-1.634,3.538-2.359,6.374-2.173,8.505c0.198,1.991,1.819,2.674,4.857,2.047c2.449-0.553,5.226-1.784,8.332-3.695
		c3.177-1.952,5.445-3.874,6.806-5.769c0.799-1.093,1.174-2.07,1.129-2.932c-0.035-0.966-0.59-1.705-1.663-2.218
		c-0.948-0.418-2.259-0.621-3.934-0.607l-1.95,0.032c-0.856,0.026-1.488,0.019-1.895-0.022c-0.375-0.008-0.607,0.172-0.697,0.541
		c-0.09,0.37,0.033,0.577,0.371,0.622c0.542,0.032,1.226,0.036,2.048,0.014c0.137-0.011,0.342-0.017,0.616-0.018
		c0.273-0.001,0.515-0.01,0.721-0.024s0.41-0.012,0.614,0.009c1.506-0.036,2.666,0.144,3.479,0.535
		c0.751,0.328,1.146,0.802,1.183,1.422c0.009,0.553-0.284,1.248-0.884,2.085c-1.278,1.75-3.414,3.541-6.408,5.376
		c-2.995,1.836-5.644,2.989-7.949,3.461c-2.308,0.507-3.515,0.125-3.62-1.147c-0.173-1.924,0.513-4.549,2.058-7.873
		c1.366-2.932,3.324-6.268,5.869-10.008c2.249-3.201,4.635-6.308,7.155-9.32c2.52-3.012,4.668-5.341,6.449-6.987
		c0.604-0.562,1.498-1.264,2.68-2.106c1.182-0.844,2.35-1.548,3.502-2.114c1.366-0.647,2.453-0.914,3.263-0.797
		c0.845,0.079,1.332,0.65,1.459,1.712c0.09,0.444,0.107,0.928,0.053,1.449c-0.055,0.523-0.164,1.067-0.325,1.632
		c-0.163,0.564-0.327,1.077-0.496,1.538c-0.168,0.462-0.42,0.998-0.758,1.609l-0.772,1.507c-0.179,0.395-0.455,0.914-0.831,1.563
		C385.589,450.717,385.647,450.972,385.974,451.122 M344.12,443.906c-0.269-0.205-0.539-0.161-0.808,0.135
		c-2.693,3.197-5.321,7.237-7.885,12.12c-2.561,4.848-4.37,9.228-5.43,13.142c-0.719,2.61-1.13,4.576-1.235,5.896
		c-0.246,2.993,0.501,4.669,2.238,5.032c2.011,0.378,4.31-0.372,6.899-2.247c1.699-1.225,3.486-2.941,5.357-5.147
		c1.906-2.208,3.72-4.6,5.443-7.176c1.723-2.576,3.344-5.327,4.865-8.253c1.52-2.925,2.812-5.557,3.879-7.896
		c1.065-2.341,2.279-5.114,3.643-8.322c0.173-0.358,0.086-0.585-0.262-0.682c-0.35-0.097-0.595,0.05-0.739,0.44
		c-1.358,3.174-2.579,5.931-3.661,8.271c-1.084,2.341-2.365,4.947-3.846,7.817c-1.481,2.871-3.071,5.576-4.773,8.114
		c-1.703,2.542-3.485,4.88-5.35,7.016c-1.826,2.1-3.536,3.741-5.13,4.924c-2.257,1.645-4.223,2.301-5.896,1.969
		c-1.24-0.225-1.751-1.538-1.532-3.939c0.093-1.217,0.497-3.112,1.212-5.688c1.053-3.843,2.836-8.137,5.351-12.877
		c2.486-4.809,5.055-8.758,7.703-11.848C344.404,444.379,344.389,444.112,344.12,443.906"/>
	<path clip-path="url(#SVGID_2_)" fill="none" stroke="#1C2F3C" stroke-width="1.5" stroke-miterlimit="5.088" d="M445.331,444.605
		c0.123,0.255,0.316,0.304,0.579,0.146c0.701-0.435,1.917-0.825,3.648-1.167c1.508-0.299,3.353-0.566,5.536-0.802l0.042-0.004
		c-5.53,9.435-10.681,19.174-15.452,29.22c-0.14,0.286-0.079,0.476,0.187,0.567c0.263,0.093,0.464-0.004,0.604-0.291
		c4.842-10.188,10.075-20.058,15.698-29.61c1.159-0.107,4.052-0.324,8.678-0.648c0.303-0.021,0.47-0.184,0.502-0.49
		c0.031-0.307-0.104-0.449-0.406-0.429c-4.461,0.312-7.201,0.518-8.223,0.616l1.093-1.819c0.167-0.288,0.12-0.492-0.141-0.612
		s-0.476-0.036-0.641,0.251l-1.35,2.296l-0.537,0.037c-2.237,0.239-4.111,0.509-5.618,0.808c-1.844,0.378-3.159,0.802-3.946,1.272
		C445.292,444.131,445.206,444.353,445.331,444.605z M439.649,442.098c0.18-0.275,0.141-0.486-0.117-0.635
		c-2.516-1.29-4.582-1.257-6.202,0.102c-1.258,1.057-2.185,2.975-2.776,5.755c-0.403,1.744-0.716,4.2-0.939,7.37
		c-0.219,3.115-0.398,4.953-0.538,5.518c-0.802,3.458-2.005,6.323-3.609,8.594c-0.995,1.397-2.148,2.494-3.462,3.292
		c-1.314,0.798-2.604,1.227-3.865,1.287c-1.297,0.091-2.438-0.224-3.428-0.943c-0.99-0.719-1.679-1.839-2.065-3.362
		c-0.054-0.271-0.229-0.35-0.529-0.232c-0.299,0.118-0.41,0.326-0.332,0.625c0.425,1.687,1.194,2.933,2.313,3.74
		c1.114,0.835,2.415,1.2,3.901,1.097c1.457-0.075,2.914-0.558,4.375-1.448c1.46-0.89,2.722-2.092,3.781-3.604
		c1.728-2.39,3-5.398,3.819-9.025c0.146-0.618,0.33-2.498,0.552-5.641c0.218-3.114,0.514-5.527,0.884-7.242
		c0.566-2.529,1.388-4.233,2.464-5.111c1.231-1.054,2.95-1.022,5.156,0.097C439.264,442.45,439.471,442.374,439.649,442.098z
		 M401.164,443.708c-0.239-0.183-0.479-0.144-0.719,0.119c-2.394,2.842-4.73,6.434-7.008,10.773
		c-2.275,4.309-3.885,8.203-4.827,11.682c-0.639,2.32-1.005,4.067-1.097,5.241c-0.22,2.66,0.443,4.15,1.989,4.473
		c1.786,0.337,3.83-0.33,6.132-1.996c1.511-1.091,3.099-2.616,4.763-4.576c1.694-1.963,3.306-4.09,4.839-6.379
		c1.53-2.29,2.972-4.735,4.323-7.336c1.352-2.6,2.501-4.939,3.448-7.02c0.948-2.079,2.027-4.546,3.238-7.396
		c0.154-0.318,0.077-0.521-0.232-0.606c-0.311-0.086-0.529,0.045-0.656,0.392c-1.208,2.821-2.293,5.272-3.255,7.352
		c-0.964,2.082-2.103,4.398-3.419,6.949c-1.315,2.552-2.729,4.957-4.242,7.214s-3.099,4.337-4.756,6.234
		c-1.623,1.866-3.144,3.327-4.56,4.378c-2.007,1.462-3.753,2.045-5.24,1.75c-1.104-0.2-1.558-1.367-1.363-3.502
		c0.083-1.082,0.442-2.767,1.078-5.056c0.936-3.417,2.521-7.232,4.757-11.446c2.21-4.273,4.492-7.784,6.846-10.532
		C401.416,444.128,401.403,443.892,401.164,443.708z M385.974,451.122c0.325,0.15,0.593,0.045,0.802-0.315
		c0.38-0.684,0.655-1.204,0.83-1.562l0.774-1.507c0.383-0.719,0.659-1.325,0.831-1.821s0.351-1.062,0.538-1.699
		c0.186-0.636,0.311-1.249,0.372-1.841c0.062-0.593,0.055-1.162-0.024-1.71c-0.219-1.507-0.984-2.335-2.302-2.485
		c-1.014-0.102-2.329,0.215-3.943,0.95c-1.187,0.568-2.408,1.293-3.662,2.176c-1.255,0.884-2.223,1.643-2.904,2.278
		c-1.783,1.682-3.962,4.046-6.537,7.097c-2.503,3.012-4.902,6.172-7.197,9.479c-2.622,3.813-4.635,7.206-6.041,10.175
		c-1.634,3.538-2.359,6.374-2.173,8.505c0.198,1.991,1.819,2.674,4.857,2.047c2.449-0.553,5.226-1.784,8.332-3.695
		c3.177-1.952,5.445-3.874,6.806-5.769c0.799-1.093,1.174-2.07,1.129-2.932c-0.035-0.966-0.59-1.705-1.663-2.218
		c-0.948-0.418-2.259-0.621-3.934-0.607l-1.95,0.032c-0.856,0.026-1.488,0.019-1.895-0.022c-0.375-0.008-0.607,0.172-0.697,0.541
		c-0.09,0.37,0.033,0.577,0.371,0.622c0.542,0.032,1.226,0.036,2.048,0.014c0.137-0.011,0.342-0.017,0.616-0.018
		c0.273-0.001,0.515-0.01,0.721-0.024s0.41-0.012,0.614,0.009c1.506-0.036,2.666,0.144,3.479,0.535
		c0.751,0.328,1.146,0.802,1.183,1.422c0.009,0.553-0.284,1.248-0.884,2.085c-1.278,1.75-3.414,3.541-6.408,5.376
		c-2.995,1.836-5.644,2.989-7.949,3.461c-2.308,0.507-3.515,0.125-3.62-1.147c-0.173-1.924,0.513-4.549,2.058-7.873
		c1.366-2.932,3.324-6.268,5.869-10.008c2.249-3.201,4.635-6.308,7.155-9.32c2.52-3.012,4.668-5.341,6.449-6.987
		c0.604-0.562,1.498-1.264,2.68-2.106c1.182-0.844,2.35-1.548,3.502-2.114c1.366-0.647,2.453-0.914,3.263-0.797
		c0.845,0.079,1.332,0.65,1.459,1.712c0.09,0.444,0.107,0.928,0.053,1.449c-0.055,0.523-0.164,1.067-0.325,1.632
		c-0.163,0.564-0.327,1.077-0.496,1.538c-0.168,0.462-0.42,0.998-0.758,1.609l-0.772,1.507c-0.179,0.395-0.455,0.914-0.831,1.563
		C385.589,450.717,385.647,450.972,385.974,451.122z M344.12,443.906c-0.269-0.205-0.539-0.161-0.808,0.135
		c-2.693,3.197-5.321,7.237-7.885,12.12c-2.561,4.848-4.37,9.228-5.43,13.142c-0.719,2.61-1.13,4.576-1.235,5.896
		c-0.246,2.993,0.501,4.669,2.238,5.032c2.011,0.378,4.31-0.372,6.899-2.247c1.699-1.225,3.486-2.941,5.357-5.147
		c1.906-2.208,3.72-4.6,5.443-7.176c1.723-2.576,3.344-5.327,4.865-8.253c1.52-2.925,2.812-5.557,3.879-7.896
		c1.065-2.341,2.279-5.114,3.643-8.322c0.173-0.358,0.086-0.585-0.262-0.682c-0.35-0.097-0.595,0.05-0.739,0.44
		c-1.358,3.174-2.579,5.931-3.661,8.271c-1.084,2.341-2.365,4.947-3.846,7.817c-1.481,2.871-3.071,5.576-4.773,8.114
		c-1.703,2.542-3.485,4.88-5.35,7.016c-1.826,2.1-3.536,3.741-5.13,4.924c-2.257,1.645-4.223,2.301-5.896,1.969
		c-1.24-0.225-1.751-1.538-1.532-3.939c0.093-1.217,0.497-3.112,1.212-5.688c1.053-3.843,2.836-8.137,5.351-12.877
		c2.486-4.809,5.055-8.758,7.703-11.848C344.404,444.379,344.389,444.112,344.12,443.906z"/>
	<path clip-path="url(#SVGID_2_)" fill="#1C2F3C" d="M329.561,446.451c0.005-0.04,0.056-0.146,0.155-0.318l1.372-3.23
		c0.846-2.273,1.169-3.996,0.969-5.172c-0.154-0.85-0.557-1.444-1.209-1.789c-0.653-0.344-1.518-0.396-2.595-0.157
		c-1.368,0.301-2.803,0.862-4.307,1.685s-2.742,1.616-3.712,2.381c-0.972,0.765-2.125,1.726-3.461,2.884
		c-5.884,5.126-11.297,11.181-16.241,18.166c-2.326-1.764-3.983-3.327-4.972-4.693c-0.321-0.428-0.724-0.441-1.212-0.038
		c-0.487,0.403-0.571,0.819-0.253,1.248c1.1,1.481,2.887,3.158,5.362,5.035c-1.725,2.539-3.4,5.196-5.028,7.974
		c-1.719,2.868-3.421,6.348-5.105,10.44c-1.09,2.657-1.753,4.733-1.991,6.225c-0.14,0.953-0.118,1.709,0.065,2.271
		c0.325,0.756,0.917,1.104,1.773,1.045c0.569-0.042,0.887-0.351,0.947-0.928c0.061-0.579-0.195-0.847-0.765-0.808
		c-0.165,0.012-0.26-0.043-0.287-0.164c-0.128-0.32-0.138-0.811-0.026-1.474c0.22-1.327,0.824-3.233,1.815-5.722
		c1.628-3.925,3.28-7.34,4.963-10.245c1.574-2.65,3.22-5.205,4.936-7.66c2.751,1.938,6.418,4.223,11,6.854
		c0.459,0.255,0.856,0.124,1.195-0.392c0.336-0.516,0.277-0.9-0.183-1.154c-4.582-2.631-8.229-4.916-10.939-6.859
		c4.854-6.896,10.156-12.841,15.903-17.833c2.049-1.783,3.901-3.224,5.556-4.323c1.653-1.1,3.329-1.832,5.027-2.197
		c0.703-0.129,1.208-0.124,1.518,0.019c0.267,0.145,0.441,0.42,0.521,0.823c0.148,0.892-0.142,2.306-0.871,4.242
		c-0.278,0.717-0.624,1.499-1.036,2.347c-0.005,0.042-0.088,0.252-0.249,0.633l-0.067,0.065l-0.013,0.124l-0.073,0.128
		c0.003-0.04,0.027-0.083,0.073-0.128l-0.073,0.128l-0.149,0.257l-2.049,3.894l-0.006,0.062c-0.402,0.726-0.648,1.151-0.743,1.282
		c-0.359,0.723-0.94,1.808-1.738,3.257l-1.802,3.26l-11.657,22.519l-2.211,4.273c-0.206,0.424-0.334,0.679-0.383,0.765l-0.068,0.066
		l-0.013,0.123c-0.05,0.085-0.076,0.149-0.081,0.19c-0.029,0.657,0.289,0.901,0.955,0.732c0.208-0.056,0.381-0.15,0.516-0.281
		c0.004-0.043,0.029-0.085,0.073-0.129l0.068-0.066l0.081-0.19l7.05-13.341c0.005-0.042,0.03-0.085,0.074-0.129l6.167-11.866
		l5.162-9.828c0.005-0.041,0.026-0.063,0.067-0.066L329.561,446.451z"/>
	<path clip-path="url(#SVGID_2_)" fill="none" stroke="#1C2F3C" stroke-miterlimit="5.088" d="M329.561,446.451
		c0.005-0.04,0.056-0.146,0.155-0.318l1.372-3.23c0.846-2.273,1.169-3.996,0.969-5.172c-0.154-0.85-0.557-1.444-1.209-1.789
		c-0.653-0.344-1.518-0.396-2.595-0.157c-1.368,0.301-2.803,0.862-4.307,1.685s-2.742,1.616-3.712,2.381
		c-0.972,0.765-2.125,1.726-3.461,2.884c-5.884,5.126-11.297,11.181-16.241,18.166c-2.326-1.764-3.983-3.327-4.972-4.693
		c-0.321-0.428-0.724-0.441-1.212-0.038c-0.487,0.403-0.571,0.819-0.253,1.248c1.1,1.481,2.887,3.158,5.362,5.035
		c-1.725,2.539-3.4,5.196-5.028,7.974c-1.719,2.868-3.421,6.348-5.105,10.44c-1.09,2.657-1.753,4.733-1.991,6.225
		c-0.14,0.953-0.118,1.709,0.065,2.271c0.325,0.756,0.917,1.104,1.773,1.045c0.569-0.042,0.887-0.351,0.947-0.928
		c0.061-0.579-0.195-0.847-0.765-0.808c-0.165,0.012-0.26-0.043-0.287-0.164c-0.128-0.32-0.138-0.811-0.026-1.474
		c0.22-1.327,0.824-3.233,1.815-5.722c1.628-3.925,3.28-7.34,4.963-10.245c1.574-2.65,3.22-5.205,4.936-7.66
		c2.751,1.938,6.418,4.223,11,6.854c0.459,0.255,0.856,0.124,1.195-0.392c0.336-0.516,0.277-0.9-0.183-1.154
		c-4.582-2.631-8.229-4.916-10.939-6.859c4.854-6.896,10.156-12.841,15.903-17.833c2.049-1.783,3.901-3.224,5.556-4.323
		c1.653-1.1,3.329-1.832,5.027-2.197c0.703-0.129,1.208-0.124,1.518,0.019c0.267,0.145,0.441,0.42,0.521,0.823
		c0.148,0.892-0.142,2.306-0.871,4.242c-0.278,0.717-0.624,1.499-1.036,2.347c-0.005,0.042-0.088,0.252-0.249,0.633l-0.067,0.065
		l-0.013,0.124l-0.073,0.128c0.003-0.04,0.027-0.083,0.073-0.128l-0.073,0.128l-0.149,0.257l-2.049,3.894l-0.006,0.062
		c-0.402,0.726-0.648,1.151-0.743,1.282c-0.359,0.723-0.94,1.808-1.738,3.257l-1.802,3.26l-11.657,22.519l-2.211,4.273
		c-0.206,0.424-0.334,0.679-0.383,0.765l-0.068,0.066l-0.013,0.123c-0.05,0.085-0.076,0.149-0.081,0.19
		c-0.029,0.657,0.289,0.901,0.955,0.732c0.208-0.056,0.381-0.15,0.516-0.281c0.004-0.043,0.029-0.085,0.073-0.129l0.068-0.066
		l0.081-0.19l7.05-13.341c0.005-0.042,0.03-0.085,0.074-0.129l6.167-11.866l5.162-9.828c0.005-0.041,0.026-0.063,0.067-0.066
		L329.561,446.451z"/>
	<path clip-path="url(#SVGID_2_)" fill="#1C2F3C" d="M266.958,480.461c-0.181,0.177-0.284,0.389-0.31,0.638
		c-0.057,0.537-0.06,0.946-0.008,1.229c0.184,0.561,0.543,0.803,1.078,0.724c0.331-0.063,0.656-0.271,0.976-0.622
		c0.145-0.214,0.292-0.46,0.442-0.737c0.15-0.277,0.257-0.52,0.32-0.729c0.088-0.458,0.034-0.812-0.161-1.065
		c-0.197-0.253-0.482-0.324-0.858-0.217c-0.164,0.012-0.354,0.087-0.57,0.224l-0.271,0.265
		C267.352,480.188,267.138,480.285,266.958,480.461 M232.152,482.28c-0.28,0.349-0.27,0.634,0.031,0.858
		c1.579,1.16,3.366,1.865,5.365,2.114c1.998,0.25,3.997,0.11,5.995-0.419c2-0.529,3.971-1.374,5.915-2.534
		c2.938-1.763,5.462-4.01,7.571-6.738c2.109-2.729,3.421-5.588,3.938-8.575c0.644-3.815-0.194-6.626-2.514-8.432
		c-2.134-1.653-5.059-2.146-8.772-1.476c-0.952,0.188-2.455,0.622-4.509,1.299c0.131-0.092,0.241-0.181,0.332-0.27l3.275-3.426
		l3.855-4.327l3.16-3.479c8.635-0.891,13.769-1.395,15.4-1.509c0.408-0.028,0.633-0.248,0.678-0.661
		c0.043-0.413-0.14-0.605-0.547-0.577c-2.121,0.148-6.886,0.604-14.293,1.368l0.684-0.725c0.319-0.35,0.341-0.646,0.063-0.895
		c-0.278-0.247-0.554-0.218-0.829,0.088l-1.576,1.708c-2.661,0.269-4.99,0.473-6.988,0.612c-0.408,0.029-0.633,0.25-0.677,0.662
		c-0.043,0.413,0.139,0.605,0.546,0.577c1.754-0.123,3.713-0.281,5.88-0.474c-5.039,5.559-8.17,8.975-9.397,10.247
		c-0.091,0.091-0.266,0.225-0.528,0.406c-0.393,0.273-0.613,0.433-0.657,0.478c-0.308,0.228-0.536,0.468-0.684,0.725
		c-0.24,0.345-0.296,0.696-0.171,1.056c0.127,0.32,0.356,0.447,0.688,0.383c0.122-0.009,0.248-0.058,0.379-0.149
		c0.045-0.044,0.091-0.088,0.136-0.133l0.061-0.004l0.062-0.004c0.379-0.149,0.979-0.366,1.799-0.648
		c0.819-0.283,1.521-0.517,2.108-0.702c0.586-0.184,1.166-0.315,1.742-0.397c3.382-0.605,6.03-0.176,7.941,1.289
		c2.021,1.579,2.734,4.03,2.142,7.35c-0.495,2.781-1.726,5.45-3.695,8.006c-1.969,2.557-4.338,4.668-7.104,6.337
		c-2.809,1.672-5.58,2.614-8.313,2.824c-2.736,0.213-5.277-0.461-7.623-2.018C232.72,481.872,232.432,481.933,232.152,482.28
		 M211.169,453.686c0.399,0.054,0.661-0.129,0.787-0.548c0.326-1.169,1.473-2.459,3.443-3.868c1.789-1.231,4.037-2.392,6.743-3.483
		c2.366-0.943,4.544-1.629,6.531-2.056c0.874-0.225,1.574-0.334,2.1-0.332c0.203-0.013,0.365-0.003,0.483,0.029
		c0.045,0.324-0.13,0.85-0.53,1.573c-0.45,0.812-1.1,1.8-1.952,2.965l-1.479,1.948c-0.56,0.694-1.071,1.314-1.532,1.859
		c-0.462,0.545-0.74,0.882-0.834,1.011c-7.806,9.932-13.999,18.009-18.579,24.23c-1.375,1.899-2.3,3.194-2.777,3.883
		c-0.635,1.028-1.111,1.902-1.43,2.621c-0.165,0.421-0.266,0.797-0.3,1.127c-0.048,0.454,0.039,0.797,0.256,1.027
		c0.401,0.424,1.242,0.692,2.526,0.807c0.966,0.057,2.204,0.03,3.713-0.075c2.161-0.151,4.295-0.424,6.402-0.816
		c1.114-0.2,2.252-0.444,3.417-0.73c1.159-0.243,2.477-0.553,3.954-0.922c1.476-0.369,2.608-0.644,3.396-0.822
		c0.376-0.108,0.554-0.355,0.534-0.743s-0.237-0.547-0.648-0.478c-0.747,0.176-1.86,0.447-3.335,0.817
		c-1.477,0.37-2.805,0.688-3.988,0.955c-1.181,0.267-2.29,0.499-3.322,0.693c-2.065,0.39-4.159,0.659-6.279,0.808
		c-1.428,0.101-2.604,0.12-3.528,0.062c-1.003-0.094-1.634-0.255-1.893-0.482l0.019-0.186c0.022-0.206,0.088-0.457,0.201-0.752
		c0.264-0.592,0.711-1.382,1.342-2.369c0.436-0.685,1.316-1.937,2.641-3.75c4.445-6.09,10.639-14.167,18.58-24.23
		c0.094-0.13,0.373-0.478,0.838-1.042l1.534-1.891l1.542-1.951c0.896-1.211,1.571-2.242,2.025-3.094
		c0.611-1.189,0.827-2.086,0.647-2.688c-0.092-0.281-0.295-0.472-0.608-0.573c-0.24-0.023-0.521-0.046-0.843-0.064
		c-0.608,0.003-1.39,0.119-2.345,0.35c-2.07,0.431-4.333,1.163-6.79,2.195c-2.747,1.094-5.08,2.303-7,3.625
		c-2.314,1.597-3.671,3.146-4.072,4.649C210.633,453.395,210.77,453.631,211.169,453.686 M165.203,476.522
		c0.083,0.379,0.411,0.529,0.982,0.449c4.566-0.626,11.153-1.24,19.755-1.842c0.573-0.041,0.847-0.251,0.821-0.633
		c-0.026-0.383-0.328-0.555-0.901-0.515c-8.661,0.605-15.303,1.224-19.928,1.855C165.361,475.916,165.119,476.145,165.203,476.522
		 M142.692,488.967c-0.192,0.188-0.301,0.412-0.329,0.676c-0.06,0.57-0.063,1.007-0.008,1.307c0.195,0.597,0.577,0.854,1.145,0.77
		c0.351-0.066,0.696-0.288,1.038-0.66c0.153-0.229,0.31-0.49,0.469-0.784c0.161-0.294,0.273-0.553,0.34-0.775
		c0.094-0.484,0.036-0.861-0.171-1.131c-0.208-0.268-0.512-0.345-0.912-0.229c-0.173,0.012-0.375,0.091-0.605,0.237l-0.288,0.281
		C143.11,488.677,142.884,488.78,142.692,488.967 M127.669,457.889c0.334,0.068,0.575-0.067,0.718-0.406
		c0.3-0.786,1.034-1.348,2.205-1.686c1.17-0.336,2.518-0.395,4.044-0.173c1.491,0.224,2.741,0.665,3.753,1.324
		c1.016,0.621,1.516,1.335,1.504,2.138c-0.023,1.936-0.977,3.972-2.858,6.108c-1.393,1.595-3.295,3.24-5.708,4.941
		c-1.516,1.055-2.778,1.744-3.785,2.07c-0.041,0.039-0.116,0.072-0.227,0.098c-0.111,0.026-0.205,0.061-0.281,0.102l-0.229,0.126
		c-0.073,0.004-0.129,0.027-0.168,0.065c-0.082,0.08-0.144,0.157-0.188,0.232c-0.096,0.227-0.097,0.409-0.003,0.548
		c0.062,0.104,0.18,0.17,0.358,0.193l0.109-0.008c0.362-0.024,1.134-0.17,2.315-0.435c0.81-0.167,1.481-0.214,2.015-0.142
		c2.454,0.303,4.193,1.413,5.217,3.328c1.023,1.917,0.874,4.035-0.451,6.352c-0.972,1.709-2.675,3.415-5.105,5.118
		c-2.431,1.7-5.088,3.073-7.972,4.112c-2.819,1.109-5.497,1.652-8.036,1.629c-2.537-0.022-4.384-0.705-5.54-2.047
		c-0.224-0.276-0.396-0.538-0.513-0.784c-0.118-0.247-0.206-0.534-0.261-0.857c-0.056-0.324-0.083-0.587-0.079-0.788
		c0.002-0.2,0.013-0.557,0.032-1.069c0.017-0.512,0.021-0.895,0.013-1.15c0.002-0.364-0.181-0.516-0.547-0.453
		c-0.366,0.062-0.551,0.275-0.554,0.64c0.013,0.218,0.001,0.585-0.034,1.097c-0.037,0.515-0.049,0.897-0.041,1.152
		s0.049,0.571,0.116,0.948c0.069,0.379,0.185,0.735,0.348,1.071c0.162,0.336,0.388,0.676,0.677,1.02
		c0.863,1.034,2.106,1.723,3.728,2.064c1.621,0.343,3.338,0.377,5.151,0.105c1.812-0.273,3.73-0.791,5.756-1.553
		c2.96-1.082,5.725-2.524,8.292-4.327c2.568-1.802,4.401-3.654,5.502-5.556c1.544-2.697,1.72-5.145,0.529-7.341
		c-1.193-2.195-3.158-3.473-5.894-3.828c-0.319-0.05-0.661-0.063-1.023-0.038l1.333-0.859c2.449-1.703,4.412-3.408,5.889-5.117
		c2.091-2.408,3.163-4.726,3.218-6.955c0.011-1.13-0.625-2.107-1.909-2.93c-1.113-0.724-2.487-1.195-4.122-1.408
		c-1.668-0.248-3.17-0.18-4.507,0.205c-1.596,0.44-2.638,1.262-3.125,2.463C127.221,457.601,127.333,457.822,127.669,457.889
		 M89.78,465.873c0.354,0.049,0.588-0.113,0.699-0.486c0.29-1.041,1.312-2.189,3.065-3.442c1.592-1.097,3.592-2.13,6.001-3.101
		c2.105-0.84,4.044-1.449,5.813-1.829c0.778-0.2,1.4-0.298,1.869-0.296c0.181-0.012,0.325-0.003,0.43,0.025
		c0.041,0.289-0.116,0.757-0.472,1.401c-0.4,0.721-0.979,1.6-1.736,2.639l-1.317,1.733c-0.498,0.618-0.953,1.17-1.363,1.654
		c-0.412,0.484-0.659,0.785-0.743,0.9c-6.947,8.838-12.458,16.027-16.535,21.564c-1.224,1.69-2.047,2.843-2.471,3.455
		c-0.565,0.915-0.988,1.692-1.272,2.333c-0.147,0.375-0.236,0.71-0.267,1.002c-0.043,0.406,0.033,0.71,0.227,0.915
		c0.357,0.377,1.106,0.616,2.249,0.718c0.86,0.05,1.96,0.028,3.305-0.066c1.923-0.135,3.822-0.377,5.697-0.728
		c0.992-0.178,2.005-0.394,3.041-0.649c1.031-0.217,2.205-0.492,3.52-0.82c1.312-0.329,2.32-0.573,3.022-0.731
		c0.334-0.097,0.492-0.316,0.475-0.662c-0.018-0.346-0.211-0.486-0.577-0.426c-0.666,0.156-1.656,0.399-2.968,0.729
		c-1.315,0.329-2.497,0.612-3.549,0.85c-1.052,0.237-2.037,0.443-2.956,0.617c-1.839,0.348-3.702,0.587-5.589,0.719
		c-1.271,0.09-2.317,0.107-3.141,0.056c-0.892-0.082-1.454-0.227-1.684-0.429l0.017-0.167c0.02-0.183,0.079-0.405,0.179-0.668
		c0.236-0.526,0.634-1.229,1.195-2.107c0.388-0.61,1.171-1.725,2.35-3.338c3.957-5.421,9.468-12.608,16.536-21.564
		c0.083-0.115,0.332-0.425,0.746-0.929l1.366-1.682l1.371-1.737c0.798-1.076,1.399-1.994,1.802-2.752
		c0.543-1.06,0.736-1.857,0.577-2.394c-0.083-0.248-0.263-0.419-0.542-0.509c-0.214-0.021-0.464-0.04-0.751-0.058
		c-0.54,0.002-1.235,0.105-2.086,0.31c-1.842,0.385-3.856,1.037-6.042,1.955c-2.445,0.974-4.521,2.049-6.23,3.226
		c-2.06,1.422-3.267,2.801-3.623,4.139C89.303,465.614,89.425,465.826,89.78,465.873"/>
	<path clip-path="url(#SVGID_2_)" fill="none" stroke="#1C2F3C" stroke-width="1.5" stroke-miterlimit="5.088" d="M266.958,480.461
		c-0.181,0.177-0.284,0.389-0.31,0.638c-0.057,0.537-0.06,0.946-0.008,1.229c0.184,0.561,0.543,0.803,1.078,0.724
		c0.331-0.063,0.656-0.271,0.976-0.622c0.145-0.214,0.292-0.46,0.442-0.737c0.15-0.277,0.257-0.52,0.32-0.729
		c0.088-0.458,0.034-0.812-0.161-1.065c-0.197-0.253-0.482-0.324-0.858-0.217c-0.164,0.012-0.354,0.087-0.57,0.224l-0.271,0.265
		C267.352,480.188,267.138,480.285,266.958,480.461z M232.152,482.28c-0.28,0.349-0.27,0.634,0.031,0.858
		c1.579,1.16,3.366,1.865,5.365,2.114c1.998,0.25,3.997,0.11,5.995-0.419c2-0.529,3.971-1.374,5.915-2.534
		c2.938-1.763,5.462-4.01,7.571-6.738c2.109-2.729,3.421-5.588,3.938-8.575c0.644-3.815-0.194-6.626-2.514-8.432
		c-2.134-1.653-5.059-2.146-8.772-1.476c-0.952,0.188-2.455,0.622-4.509,1.299c0.131-0.092,0.241-0.181,0.332-0.27l3.275-3.426
		l3.855-4.327l3.16-3.479c8.635-0.891,13.769-1.395,15.4-1.509c0.408-0.028,0.633-0.248,0.678-0.661
		c0.043-0.413-0.14-0.605-0.547-0.577c-2.121,0.148-6.886,0.604-14.293,1.368l0.684-0.725c0.319-0.35,0.341-0.646,0.063-0.895
		c-0.278-0.247-0.554-0.218-0.829,0.088l-1.576,1.708c-2.661,0.269-4.99,0.473-6.988,0.612c-0.408,0.029-0.633,0.25-0.677,0.662
		c-0.043,0.413,0.139,0.605,0.546,0.577c1.754-0.123,3.713-0.281,5.88-0.474c-5.039,5.559-8.17,8.975-9.397,10.247
		c-0.091,0.091-0.266,0.225-0.528,0.406c-0.393,0.273-0.613,0.433-0.657,0.478c-0.308,0.228-0.536,0.468-0.684,0.725
		c-0.24,0.345-0.296,0.696-0.171,1.056c0.127,0.32,0.356,0.447,0.688,0.383c0.122-0.009,0.248-0.058,0.379-0.149
		c0.045-0.044,0.091-0.088,0.136-0.133l0.061-0.004l0.062-0.004c0.379-0.149,0.979-0.366,1.799-0.648
		c0.819-0.283,1.521-0.517,2.108-0.702c0.586-0.184,1.166-0.315,1.742-0.397c3.382-0.605,6.03-0.176,7.941,1.289
		c2.021,1.579,2.734,4.03,2.142,7.35c-0.495,2.781-1.726,5.45-3.695,8.006c-1.969,2.557-4.338,4.668-7.104,6.337
		c-2.809,1.672-5.58,2.614-8.313,2.824c-2.736,0.213-5.277-0.461-7.623-2.018C232.72,481.872,232.432,481.933,232.152,482.28z
		 M211.169,453.686c0.399,0.054,0.661-0.129,0.787-0.548c0.326-1.169,1.473-2.459,3.443-3.868c1.789-1.231,4.037-2.392,6.743-3.483
		c2.366-0.943,4.544-1.629,6.531-2.056c0.874-0.225,1.574-0.334,2.1-0.332c0.203-0.013,0.365-0.003,0.483,0.029
		c0.045,0.324-0.13,0.85-0.53,1.573c-0.45,0.812-1.1,1.8-1.952,2.965l-1.479,1.948c-0.56,0.694-1.071,1.314-1.532,1.859
		c-0.462,0.545-0.74,0.882-0.834,1.011c-7.806,9.932-13.999,18.009-18.579,24.23c-1.375,1.899-2.3,3.194-2.777,3.883
		c-0.635,1.028-1.111,1.902-1.43,2.621c-0.165,0.421-0.266,0.797-0.3,1.127c-0.048,0.454,0.039,0.797,0.256,1.027
		c0.401,0.424,1.242,0.692,2.526,0.807c0.966,0.057,2.204,0.03,3.713-0.075c2.161-0.151,4.295-0.424,6.402-0.816
		c1.114-0.2,2.252-0.444,3.417-0.73c1.159-0.243,2.477-0.553,3.954-0.922c1.476-0.369,2.608-0.644,3.396-0.822
		c0.376-0.108,0.554-0.355,0.534-0.743s-0.237-0.547-0.648-0.478c-0.747,0.176-1.86,0.447-3.335,0.817
		c-1.477,0.37-2.805,0.688-3.988,0.955c-1.181,0.267-2.29,0.499-3.322,0.693c-2.065,0.39-4.159,0.659-6.279,0.808
		c-1.428,0.101-2.604,0.12-3.528,0.062c-1.003-0.094-1.634-0.255-1.893-0.482l0.019-0.186c0.022-0.206,0.088-0.457,0.201-0.752
		c0.264-0.592,0.711-1.382,1.342-2.369c0.436-0.685,1.316-1.937,2.641-3.75c4.445-6.09,10.639-14.167,18.58-24.23
		c0.094-0.13,0.373-0.478,0.838-1.042l1.534-1.891l1.542-1.951c0.896-1.211,1.571-2.242,2.025-3.094
		c0.611-1.189,0.827-2.086,0.647-2.688c-0.092-0.281-0.295-0.472-0.608-0.573c-0.24-0.023-0.521-0.046-0.843-0.064
		c-0.608,0.003-1.39,0.119-2.345,0.35c-2.07,0.431-4.333,1.163-6.79,2.195c-2.747,1.094-5.08,2.303-7,3.625
		c-2.314,1.597-3.671,3.146-4.072,4.649C210.633,453.395,210.77,453.631,211.169,453.686z M165.203,476.522
		c0.083,0.379,0.411,0.529,0.982,0.449c4.566-0.626,11.153-1.24,19.755-1.842c0.573-0.041,0.847-0.251,0.821-0.633
		c-0.026-0.383-0.328-0.555-0.901-0.515c-8.661,0.605-15.303,1.224-19.928,1.855C165.361,475.916,165.119,476.145,165.203,476.522z
		 M142.692,488.967c-0.192,0.188-0.301,0.412-0.329,0.676c-0.06,0.57-0.063,1.007-0.008,1.307c0.195,0.597,0.577,0.854,1.145,0.77
		c0.351-0.066,0.696-0.288,1.038-0.66c0.153-0.229,0.31-0.49,0.469-0.784c0.161-0.294,0.273-0.553,0.34-0.775
		c0.094-0.484,0.036-0.861-0.171-1.131c-0.208-0.268-0.512-0.345-0.912-0.229c-0.173,0.012-0.375,0.091-0.605,0.237l-0.288,0.281
		C143.11,488.677,142.884,488.78,142.692,488.967z M127.669,457.889c0.334,0.068,0.575-0.067,0.718-0.406
		c0.3-0.786,1.034-1.348,2.205-1.686c1.17-0.336,2.518-0.395,4.044-0.173c1.491,0.224,2.741,0.665,3.753,1.324
		c1.016,0.621,1.516,1.335,1.504,2.138c-0.023,1.936-0.977,3.972-2.858,6.108c-1.393,1.595-3.295,3.24-5.708,4.941
		c-1.516,1.055-2.778,1.744-3.785,2.07c-0.041,0.039-0.116,0.072-0.227,0.098c-0.111,0.026-0.205,0.061-0.281,0.102l-0.229,0.126
		c-0.073,0.004-0.129,0.027-0.168,0.065c-0.082,0.08-0.144,0.157-0.188,0.232c-0.096,0.227-0.097,0.409-0.003,0.548
		c0.062,0.104,0.18,0.17,0.358,0.193l0.109-0.008c0.362-0.024,1.134-0.17,2.315-0.435c0.81-0.167,1.481-0.214,2.015-0.142
		c2.454,0.303,4.193,1.413,5.217,3.328c1.023,1.917,0.874,4.035-0.451,6.352c-0.972,1.709-2.675,3.415-5.105,5.118
		c-2.431,1.7-5.088,3.073-7.972,4.112c-2.819,1.109-5.497,1.652-8.036,1.629c-2.537-0.022-4.384-0.705-5.54-2.047
		c-0.224-0.276-0.396-0.538-0.513-0.784c-0.118-0.247-0.206-0.534-0.261-0.857c-0.056-0.324-0.083-0.587-0.079-0.788
		c0.002-0.2,0.013-0.557,0.032-1.069c0.017-0.512,0.021-0.895,0.013-1.15c0.002-0.364-0.181-0.516-0.547-0.453
		c-0.366,0.062-0.551,0.275-0.554,0.64c0.013,0.218,0.001,0.585-0.034,1.097c-0.037,0.515-0.049,0.897-0.041,1.152
		s0.049,0.571,0.116,0.948c0.069,0.379,0.185,0.735,0.348,1.071c0.162,0.336,0.388,0.676,0.677,1.02
		c0.863,1.034,2.106,1.723,3.728,2.064c1.621,0.343,3.338,0.377,5.151,0.105c1.812-0.273,3.73-0.791,5.756-1.553
		c2.96-1.082,5.725-2.524,8.292-4.327c2.568-1.802,4.401-3.654,5.502-5.556c1.544-2.697,1.72-5.145,0.529-7.341
		c-1.193-2.195-3.158-3.473-5.894-3.828c-0.319-0.05-0.661-0.063-1.023-0.038l1.333-0.859c2.449-1.703,4.412-3.408,5.889-5.117
		c2.091-2.408,3.163-4.726,3.218-6.955c0.011-1.13-0.625-2.107-1.909-2.93c-1.113-0.724-2.487-1.195-4.122-1.408
		c-1.668-0.248-3.17-0.18-4.507,0.205c-1.596,0.44-2.638,1.262-3.125,2.463C127.221,457.601,127.333,457.822,127.669,457.889z
		 M89.78,465.873c0.354,0.049,0.588-0.113,0.699-0.486c0.29-1.041,1.312-2.189,3.065-3.442c1.592-1.097,3.592-2.13,6.001-3.101
		c2.105-0.84,4.044-1.449,5.813-1.829c0.778-0.2,1.4-0.298,1.869-0.296c0.181-0.012,0.325-0.003,0.43,0.025
		c0.041,0.289-0.116,0.757-0.472,1.401c-0.4,0.721-0.979,1.6-1.736,2.639l-1.317,1.733c-0.498,0.618-0.953,1.17-1.363,1.654
		c-0.412,0.484-0.659,0.785-0.743,0.9c-6.947,8.838-12.458,16.027-16.535,21.564c-1.224,1.69-2.047,2.843-2.471,3.455
		c-0.565,0.915-0.988,1.692-1.272,2.333c-0.147,0.375-0.236,0.71-0.267,1.002c-0.043,0.406,0.033,0.71,0.227,0.915
		c0.357,0.377,1.106,0.616,2.249,0.718c0.86,0.05,1.96,0.028,3.305-0.066c1.923-0.135,3.822-0.377,5.697-0.728
		c0.992-0.178,2.005-0.394,3.041-0.649c1.031-0.217,2.205-0.492,3.52-0.82c1.312-0.329,2.32-0.573,3.022-0.731
		c0.334-0.097,0.492-0.316,0.475-0.662c-0.018-0.346-0.211-0.486-0.577-0.426c-0.666,0.156-1.656,0.399-2.968,0.729
		c-1.315,0.329-2.497,0.612-3.549,0.85c-1.052,0.237-2.037,0.443-2.956,0.617c-1.839,0.348-3.702,0.587-5.589,0.719
		c-1.271,0.09-2.317,0.107-3.141,0.056c-0.892-0.082-1.454-0.227-1.684-0.429l0.017-0.167c0.02-0.183,0.079-0.405,0.179-0.668
		c0.236-0.526,0.634-1.229,1.195-2.107c0.388-0.61,1.171-1.725,2.35-3.338c3.957-5.421,9.468-12.608,16.536-21.564
		c0.083-0.115,0.332-0.425,0.746-0.929l1.366-1.682l1.371-1.737c0.798-1.076,1.399-1.994,1.802-2.752
		c0.543-1.06,0.736-1.857,0.577-2.394c-0.083-0.248-0.263-0.419-0.542-0.509c-0.214-0.021-0.464-0.04-0.751-0.058
		c-0.54,0.002-1.235,0.105-2.086,0.31c-1.842,0.385-3.856,1.037-6.042,1.955c-2.445,0.974-4.521,2.049-6.23,3.226
		c-2.06,1.422-3.267,2.801-3.623,4.139C89.303,465.614,89.425,465.826,89.78,465.873z"/>
</g>
</svg>
