<?xml version="1.0" encoding="UTF-8" standalone="no"?><!-- Generator: Gravit.io --><svg xmlns="http://www.w3.org/2000/svg" xmlns:xlink="http://www.w3.org/1999/xlink" style="isolation:isolate" viewBox="0 0 481 587.5" width="481pt" height="587.5pt"><defs><clipPath id="_clipPath_XYNfQ9bsrEbd3v77E82SmLmcckz2m37v"><rect width="481" height="587.5"/></clipPath></defs><g clip-path="url(#_clipPath_XYNfQ9bsrEbd3v77E82SmLmcckz2m37v)"><clipPath id="_clipPath_BzPvybFBT8qphM8QyPL0CNXdrHi4XXfc"><rect x="8" y="3.563" width="464.342" height="578.437" transform="matrix(1,0,0,1,0,0)" fill="rgb(255,255,255)"/></clipPath><g clip-path="url(#_clipPath_BzPvybFBT8qphM8QyPL0CNXdrHi4XXfc)"><path d=" M 48.382 235.633 C 40.847 216.102 39.567 209.519 39.121 196.292 C 37.317 139.366 56.191 122.921 81.655 91.93 C 98.696 71.19 117.105 57.819 141.362 43.693 C 166.355 30.029 163.234 30.09 191.407 18.328 C 197.732 15.527 236.206 2.789 250.217 3.602 C 295.389 2.671 340.821 36.058 371.067 74.782 C 392.165 101.799 410.029 123.847 424.532 163.503 C 431.411 181.174 429.897 208.991 428.459 225.217 C 419.892 250.563 417.573 259.477 407.157 284.03 C 392.337 318.983 374.886 355.435 341.36 374.072 C 268.633 414.506 201.553 403.255 134.016 352.658 C 93.353 322.187 69.425 281.627 48.382 235.633 Z " fill="rgb(255,255,255)"/></g><clipPath id="_clipPath_MiMNBSJk5EvG4da00gQINt4I52EFCi9R"><rect x="8" y="3.563" width="464.342" height="578.437" transform="matrix(1,0,0,1,0,0)" fill="rgb(255,255,255)"/></clipPath><g clip-path="url(#_clipPath_MiMNBSJk5EvG4da00gQINt4I52EFCi9R)"><path d=" M 136.023 204.111 C 136.106 209.069 136.02 214.091 135.765 219.176 C 135.596 226.034 134.42 240.217 132.239 261.723 C 131.687 267.723 131.334 277.684 131.183 291.605 C 129.625 296.444 128.989 299.479 129.272 300.707 C 129.873 303.306 132.016 304.902 135.704 305.493 C 135.672 305.351 135.742 305.261 135.917 305.22 L 136.902 304.992 C 138.105 305.611 139.15 305.843 140.037 305.687 C 140.473 305.585 141.131 305.036 142.008 304.038 C 142.401 304.146 142.686 304.181 142.862 304.14 C 143.694 303.949 145.215 302.452 147.428 299.652 C 149.453 298.437 150.379 297.453 150.204 296.696 C 150.708 296.084 153.856 293.539 159.648 289.066 C 161.39 286.624 165.792 283.019 172.854 278.253 C 172.778 277.923 172.58 277.77 172.264 277.792 L 170.753 278.142 L 170.293 278.546 L 169.9 278.04 L 171.905 275.038 L 171.84 274.754 C 170.603 275.589 169.896 276.025 169.721 276.066 L 169.13 275.903 C 170.05 274.497 170.499 273.747 170.477 273.651 L 168.753 274.274 L 168.294 274.378 C 168.022 273.198 168.367 271.7 169.332 269.884 C 157.332 276.835 148.744 281.58 143.566 284.119 C 143.522 283.931 143.412 283.856 143.238 283.896 C 143.292 283.335 143.407 283.035 143.583 282.995 C 143.467 277.099 143.519 273.43 143.738 271.985 C 143.673 271.701 143.459 271.577 143.098 271.61 L 143.493 270.025 L 142.854 269.352 L 142.788 269.068 C 143.413 267.182 143.704 266.145 143.661 265.955 L 142.694 264.163 L 142.645 263.95 L 143.893 263.662 C 144.243 263.581 144.375 263.352 144.288 262.974 L 144.157 262.407 C 144.091 262.123 143.872 261.976 143.5 261.961 L 144.043 260.716 L 143.977 260.432 L 143.715 260.494 L 143.273 258.58 L 142.896 258.144 C 143.542 256.95 143.724 255.739 143.44 254.51 C 144.81 252.652 145.397 250.997 145.2 249.55 C 144.893 249.621 144.675 249.473 144.544 249.104 L 144.282 247.971 C 144.676 247.88 145.01 247.728 145.284 247.516 L 146.258 240.348 C 146.171 239.971 145.886 239.837 145.405 239.947 L 145.29 239.452 C 145.181 238.98 145.229 238.098 145.439 236.805 C 146.174 234.595 146.432 232.221 146.216 229.682 C 146.867 220.921 147.418 216.016 147.867 214.966 C 147.64 210.389 147.987 207.995 148.906 207.783 L 148.777 207.216 C 147.944 206.811 147.129 205.581 146.333 203.525 C 142.974 201.762 140.333 201.103 138.406 201.548 C 137.266 201.809 136.472 202.664 136.023 204.111 Z " fill="rgb(28,47,60)"/></g><clipPath id="_clipPath_8kLOBjg5oDe7NRvWCe8NEbcrqg6UtkLE"><rect x="8" y="3.563" width="464.342" height="578.437" transform="matrix(1,0,0,1,0,0)" fill="rgb(255,255,255)"/></clipPath><g clip-path="url(#_clipPath_8kLOBjg5oDe7NRvWCe8NEbcrqg6UtkLE)"><path d=" M 200.641 272.335 L 200.306 273.163 L 199.601 273.373 L 199.937 272.544 L 200.641 272.335 Z  M 212.123 248.977 L 212.399 249.442 L 211.787 249.807 L 211.511 249.341 L 212.123 248.977 Z  M 220.49 274.01 C 220.352 273.777 219.71 273.654 219.807 273.351 L 219.936 273.08 L 219.751 272.77 C 216.336 265.638 214.798 261.253 215.138 259.618 L 214.239 258.106 C 213.947 257.616 213.797 256.9 213.79 255.96 C 213.463 255.875 213.269 255.78 213.207 255.677 L 213.513 255.495 L 213.596 250.933 L 212.928 250.333 C 213.039 249.708 213.197 249.334 213.401 249.212 C 213.271 248.066 213.397 247.115 213.778 246.364 L 212.611 245.799 C 212.329 244.744 212.442 244.064 212.952 243.76 L 212.562 243.625 L 212.376 243.315 C 213.304 242.204 213.684 241.506 213.514 241.221 C 214.111 238.628 214.395 237.305 214.364 237.253 C 214.759 237.106 214.555 236.231 215.431 236.029 C 215.903 234.076 215.888 234.396 215.655 232.611 C 210.463 231.082 206.261 231.274 203.048 233.185 L 201.901 233.868 C 201.033 234.384 200.073 235.498 199.02 237.208 C 199.02 237.208 199.053 235.835 198.972 239.064 C 199.352 243.071 195.913 254.701 188.654 273.956 C 186.434 279.859 184.27 284.346 182.162 287.418 C 182.101 287.316 181.967 287.325 181.764 287.446 C 181.042 286.231 180.04 283.155 178.759 278.217 C 178.452 277.699 178.443 274.784 178.734 269.469 C 178.595 269.237 178.37 269.091 178.059 269.031 C 178 268.122 178.202 267.53 178.661 267.258 C 178.522 267.025 178.297 266.879 177.986 266.82 C 177.995 266.255 178.414 265.394 179.245 264.235 L 179.153 264.079 L 178.686 263.99 C 179.49 263.022 179.847 262.46 179.755 262.305 C 179.55 262.426 179.2 262.302 178.704 261.933 C 179.115 260.185 179.472 259.22 179.778 259.037 C 179.64 258.805 179.414 258.66 179.104 258.6 C 179.058 258.522 179.671 257.755 180.945 256.297 L 180.415 255.406 C 180.874 255.133 181.303 254.056 181.704 252.173 L 181.289 252 L 181.035 251.574 C 181.435 249.693 181.163 246.083 185.179 239.601 L 184.926 239.175 C 184.314 239.539 183.946 239.619 183.823 239.412 L 183.731 239.257 L 184.066 238.427 L 183.973 238.272 C 179.589 236.823 175.714 237.1 172.348 239.103 C 170.93 240.087 169.949 240.933 169.405 241.641 C 163.668 266.693 162.026 283.346 168.712 294.585 C 170.864 298.202 174.045 299.719 178.257 299.137 C 178.902 300.222 182.979 298.95 190.489 295.322 C 190.774 294.875 191.503 294.3 192.677 293.601 C 192.424 292.248 192.782 291.283 193.751 290.706 C 194.338 288.328 194.958 286.874 195.612 286.346 C 196.65 284.61 198.048 281.329 199.805 276.506 L 199.207 276.023 C 199.251 275.051 199.426 274.476 199.731 274.294 L 200.038 274.112 L 200.222 274.423 L 200.101 274.914 C 200.57 274.775 200.907 274.643 201.111 274.523 L 201.681 276.177 L 203.294 278.89 L 203.576 278.682 L 203.478 279.2 C 206.521 284.315 211.744 290.462 218.667 289.91" fill="rgb(28,47,60)"/></g><clipPath id="_clipPath_utKh5EHmoiv76H5F7C7WlX9vE536UDYg"><rect x="8" y="3.563" width="464.342" height="578.437" transform="matrix(1,0,0,1,0,0)" fill="rgb(255,255,255)"/></clipPath><g clip-path="url(#_clipPath_utKh5EHmoiv76H5F7C7WlX9vE536UDYg)"><path d=" M 321.511 204.618 C 322.142 212.928 324.441 225.701 323.406 230.083 C 323.077 241.647 323.324 241.594 322.403 244.504 C 320.779 250.113 320.611 254.432 321.897 257.463 L 322.117 257.98 C 324.482 260.797 325.952 262.084 326.527 261.839 C 327.083 263.149 327.868 263.806 331.585 263.125 L 331.819 263.025 C 332.393 262.781 332.914 262.337 333.38 261.692 L 335.255 261.323 L 335.953 260.356 L 336.266 260.223 L 336.903 260.197 C 337.455 258.743 337.564 257.619 337.228 256.828 C 337.199 250.661 336.33 241.246 339.997 232.901 C 343.617 226.772 345.875 225.565 345.685 225.117 C 346.798 224.4 347.446 223.679 347.63 222.95 C 347.147 221.813 353.779 216.2 356.345 213.973 L 357.048 214.102 C 360.461 210.824 365.958 208.145 366.794 207.79 L 367.655 207.424 C 370.474 206.227 372.757 205.584 374.505 205.491 C 374.681 204.889 375.854 203.516 378.026 201.374 L 377.894 201.064 C 376.906 200.914 375.894 200.49 374.858 199.791 L 374.239 200.726 C 373.769 200.925 373.127 200.283 372.312 198.799 C 372.268 198.696 372.156 198.073 371.98 196.928 C 371.541 196.911 371.191 196.958 370.93 197.068 C 370.272 195.519 365.953 195.217 357.978 196.164 C 354.324 197.715 343.405 205.769 338.857 210.585 C 338.491 210.741 338.235 210.647 338.088 210.302 C 337.664 209.302 337.771 208.465 338.407 207.788 L 337.445 206.61 L 337.291 206.249 L 337.661 204.507 C 336.887 203.698 336.382 203.018 336.149 202.466 L 335.769 200.92 C 331.911 197.639 328.286 196.718 324.893 198.159 C 323.124 200.087 320.648 202.585 321.511 204.618 Z " fill="rgb(28,47,60)"/></g><clipPath id="_clipPath_GINkTHbWwqNowmzl1j0fzNf7SVdVD5sg"><rect x="8" y="3.563" width="464.342" height="578.437" transform="matrix(1,0,0,1,0,0)" fill="rgb(255,255,255)"/></clipPath><g clip-path="url(#_clipPath_GINkTHbWwqNowmzl1j0fzNf7SVdVD5sg)"><path d=" M 243.006 253.56 C 242.174 251.488 240.914 237.198 243.818 230.466 L 244.111 230.334 L 244.331 230.882 L 244.697 230.716 L 245.359 229.771 C 245.26 229.527 245.048 229.288 244.723 229.05 L 245.139 227.494 L 245.155 227.484 L 245.375 227.385 C 243.629 227.069 244.365 226.429 244.283 226.226 L 244.039 225.616 C 243.794 225.007 243.459 223.598 243.037 221.39 C 241.929 218.628 238.944 217.384 234.084 217.656 L 230.562 220.324 C 229.974 220.733 229.166 224.552 228.138 231.781 L 226.347 255.402 C 226.637 271.967 227.222 281.346 228.102 283.54 L 228.617 283.957 C 230.084 284.733 230.874 285.266 230.989 285.549 C 232.489 285.689 233.329 285.981 233.508 286.428 C 234.486 285.987 235.595 286.158 236.835 286.943 C 237.47 286.656 237.675 286.228 237.446 285.66 L 238.327 285.263 C 238.555 285.832 238.864 286.028 239.256 285.851 C 239.843 285.586 240.536 284.939 241.336 283.906 C 242.117 283.552 242.738 283.945 243.193 285.083 L 243.781 284.818 C 244.14 282.256 244.736 279.997 245.568 278.039 C 247.489 276.526 246.982 276.947 249.006 272.484" fill="rgb(28,47,60)"/></g><clipPath id="_clipPath_XcfJGgEUuGjj7nIi9hFE3jgEy4Zf8pZD"><rect x="8" y="3.563" width="464.342" height="578.437" transform="matrix(1,0,0,1,0,0)" fill="rgb(255,255,255)"/></clipPath><g clip-path="url(#_clipPath_XcfJGgEUuGjj7nIi9hFE3jgEy4Zf8pZD)"><path d=" M 248.561 273.393 C 255.433 260.729 257.252 256.895 259.787 249.178 C 259.935 246.186 259.859 248.07 260.449 247.803 C 260.592 244.332 261.452 243.644 262.039 242.324 L 262.69 240.094 C 262.885 240.582 261.301 258.568 266.663 267.883 C 266.875 268.411 267.892 269.729 269.714 271.832 C 269.95 271.726 270.977 272.606 272.796 274.473 L 273.112 274.041 C 273.013 273.798 272.82 273.55 272.534 273.295 C 272.462 272.656 272.525 272.291 272.722 272.202 C 272.235 269.016 272.444 267.219 273.352 266.809 C 273.86 267.73 274.292 268.112 274.646 267.952 C 275.299 269.001 276.336 269.205 277.755 268.565 L 277.402 266.996 C 277.272 266.671 277.03 266.589 276.675 266.748 L 276.498 266.829 C 276.66 267.235 276.728 267.637 276.702 268.031 L 276.105 267.941 C 276.13 267.306 276.1 266.768 276.017 266.325 L 275.234 264.375 C 275.316 262.61 279.725 261.2 279.36 259.013 C 278.395 250.812 277.726 248.015 277.672 244.633 C 277.034 239.451 274.939 231.625 275.768 229.282 C 275.493 229.407 275.81 229.168 275.624 228.82 L 275.317 228.56 L 275.543 228.508 C 275.675 228.834 275.163 227.584 275.641 227.847 C 275.917 227.722 275.928 227.084 275.386 224.69 C 274.749 223.105 274.906 215.857 272.141 213.601 C 269.977 212.036 270.637 212.376 267.087 212.922 C 265.037 213.846 258.833 223.135 254.824 230.522 C 250.817 237.909 244.195 254.957 243.407 255.312 M 278.608 271.562 L 279.377 271.215 C 279.279 270.972 279.244 270.653 279.272 270.256 L 279.036 270.361 C 278.653 270.919 278.51 271.317 278.608 271.562 Z  M 273.686 269.033 C 273.832 269.398 274.063 269.511 274.378 269.368 L 274.614 269.261 L 274.175 268.164 L 273.939 268.27 L 273.686 269.033 Z " fill="rgb(28,47,60)"/></g><clipPath id="_clipPath_1J1OqFGyF8c3HqjE5cLGSSax4opTsiR6"><rect x="8" y="3.563" width="464.342" height="578.437" transform="matrix(1,0,0,1,0,0)" fill="rgb(255,255,255)"/></clipPath><g clip-path="url(#_clipPath_1J1OqFGyF8c3HqjE5cLGSSax4opTsiR6)"><path d=" M 292.477 242.702 C 292.767 239.772 292.604 241.616 293.29 241.332 C 293.594 237.935 294.604 237.228 295.329 235.913 L 296.163 233.708 C 296.366 234.177 293.828 251.815 299.579 260.7 C 299.801 261.208 300.909 262.454 302.907 264.435 C 303.181 264.322 304.32 265.14 306.324 266.89 L 306.703 266.457 C 306.6 266.223 306.39 265.989 306.071 265.751 C 306.016 265.13 306.102 264.771 306.332 264.675 C 305.903 261.582 306.215 259.817 307.269 259.381 C 307.814 260.261 308.291 260.615 308.704 260.445 C 309.409 261.444 310.586 261.601 312.232 260.919 L 311.894 259.399 C 311.758 259.087 311.485 259.016 311.073 259.187 L 310.867 259.272 C 311.037 259.663 311.098 260.052 311.051 260.44 L 310.375 260.374 C 310.43 259.753 310.415 259.229 310.338 258.8 L 309.523 256.926 C 309.689 255.198 314.785 253.642 314.455 251.52 C 313.685 243.546 313.034 240.841 313.109 237.537 C 312.59 232.5 310.511 224.936 311.553 222.615 C 311.232 222.747 311.606 222.502 311.407 222.169 L 311.068 221.928 L 311.328 221.868 C 311.465 222.181 310.93 220.98 311.467 221.217 C 311.786 221.085 311.824 220.461 311.302 218.143 C 310.64 216.621 311.112 209.532 308.042 207.44 C 305.632 205.997 306.372 206.304 302.292 206.981 C 299.912 207.966 295.387 219.133 290.507 226.513 M 313.086 263.812 L 313.978 263.442 C 313.875 263.208 313.849 262.897 313.895 262.508 L 313.622 262.621 C 313.162 263.182 312.982 263.577 313.086 263.812 Z  M 307.56 261.54 C 307.713 261.892 307.972 261.992 308.338 261.84 L 308.613 261.726 L 308.154 260.672 L 307.879 260.786 L 307.56 261.54 Z  M 291.265 232.284 C 291.417 232.635 291.288 232.896 290.876 233.067 L 290.67 233.152 L 290.441 232.625 L 291.265 232.284 Z  M 296.926 227.861 L 297.2 227.747 L 297.557 228.567 C 297.053 231.633 293.911 233.838 291.49 238.203 C 290.947 236.954 293.88 234.515 296.926 227.861 Z " fill="rgb(28,47,60)"/></g><clipPath id="_clipPath_o3ohtQylpAuxadRISE0fGGbTxTtElAzX"><rect x="8" y="3.563" width="464.342" height="578.437" transform="matrix(1,0,0,1,0,0)" fill="rgb(255,255,255)"/></clipPath><g clip-path="url(#_clipPath_o3ohtQylpAuxadRISE0fGGbTxTtElAzX)"><path d=" M 310.042 247.071 L 308.747 247.161 L 308.697 246.216 L 308.971 245.614 L 309.672 245.857 L 309.977 245.836 C 310.383 245.808 310.577 245.601 310.556 245.212 L 310.217 244.579 L 309.336 245.297 L 308.955 245.323 L 308.905 244.378 C 308.846 243.264 309.239 242.507 310.087 242.107 C 310.066 241.719 309.751 241.547 309.142 241.589 L 309.367 240.042 L 309.673 240.021 C 309.726 241.039 310.642 241.485 312.421 241.363 L 312.611 239.161 L 312.591 238.797 L 311.905 238.844 L 311.238 239.256 L 311.185 238.237 C 312.401 237.131 298.288 245.237 298.586 246.042 C 298.424 247.853 298.38 249.388 298.445 250.647 L 298.541 252.464 L 298.323 254.157 C 298.525 254.143 298.851 255.969 299.3 259.635 C 301.305 266.742 304.95 270.112 310.238 269.746 C 310.634 269.523 311.061 269.396 311.52 269.364 L 312.814 269.274 L 313.913 269.782 L 314.752 269.723 L 314.701 268.779 C 315.209 268.744 315.648 268.835 316.017 269.052 C 317.127 266.883 317.859 265.787 318.216 265.762 C 318.627 262.914 317.693 261.315 319.21 260.091 L 318.87 259.458 L 317.76 254.328 C 314.912 249.626 313.463 247.428 313.463 247.428" fill="rgb(28,47,60)"/></g><clipPath id="_clipPath_1X6KIkxsNHxgXtuYvBWZnJDFseVWIzNV"><rect x="8" y="3.563" width="464.342" height="578.437" transform="matrix(1,0,0,1,0,0)" fill="rgb(255,255,255)"/></clipPath><g clip-path="url(#_clipPath_1X6KIkxsNHxgXtuYvBWZnJDFseVWIzNV)"><path d=" M 310.605 233.429 C 310.404 232.216 310.15 230.763 309.84 229.072 C 309.618 228.116 309.512 226.61 309.521 224.55 C 309.528 222.492 309.558 220.448 309.614 218.421 C 309.668 216.393 309.756 214.59 309.874 213.009 C 309.992 211.43 310.041 210.599 310.022 210.519 C 309.544 208.448 308.664 207.076 307.383 206.406 C 306.101 205.738 304.582 205.605 302.826 206.01 C 301.222 206.381 298.512 210.155 294.697 217.331 C 292.278 221.836 288.989 228.849 284.832 238.371 L 278.188 253.504 C 277.891 248.033 277.653 243.869 277.477 241.013 C 277.3 238.157 262.646 248.572 262.802 250.634 C 262.877 253.053 262.975 255.569 263.097 258.185 C 263.218 260.801 263.382 263.429 263.589 266.067 C 263.66 266.723 263.705 267.615 263.724 268.743 C 263.744 269.872 263.829 271.029 263.982 272.21 C 264.134 273.393 264.401 274.549 264.782 275.677 C 265.164 276.807 265.76 277.739 266.574 278.475 C 268.238 280.106 270.331 280.629 272.851 280.048 C 274.684 279.624 276.789 278.11 279.163 275.505 C 281.537 272.9 283.955 269.258 286.416 264.575 C 288.06 261.594 289.625 258.526 291.108 255.37 C 292.592 252.216 294.1 249.075 295.632 245.951 L 296.35 249.06" fill="rgb(28,47,60)"/></g><clipPath id="_clipPath_tBZGb52AV5gU6qplgQebmWNod9TIV4aL"><rect x="8" y="3.563" width="464.342" height="578.437" transform="matrix(1,0,0,1,0,0)" fill="rgb(255,255,255)"/></clipPath><g clip-path="url(#_clipPath_tBZGb52AV5gU6qplgQebmWNod9TIV4aL)"><path d=" M 200.519 272.884 C 201.39 274.925 202.48 277.135 203.791 279.514 C 205.1 281.896 206.638 284.041 208.4 285.956 C 210.164 287.872 212.166 289.35 214.408 290.394 C 216.65 291.436 219.101 291.651 221.763 291.037 C 222.598 290.845 223.455 290.305 224.333 289.423 C 225.21 288.541 225.999 287.537 226.701 286.414 C 227.403 285.291 227.938 284.147 228.31 282.98 C 228.681 281.814 228.78 280.851 228.603 280.09 C 227.147 278.985 224.849 278.938 223.384 277.793 C 221.92 276.651 219.777 272.98 218.979 271.405 C 217.648 270.151 217.541 270.496 216.555 268.999 C 215.569 267.507 214.867 265.847 214.445 264.023" fill="rgb(28,47,60)"/></g><clipPath id="_clipPath_3hiINSj8tULQfLXR5YtGfaHE7vQIgZcX"><rect x="8" y="3.563" width="464.342" height="578.437" transform="matrix(1,0,0,1,0,0)" fill="rgb(255,255,255)"/></clipPath><g clip-path="url(#_clipPath_3hiINSj8tULQfLXR5YtGfaHE7vQIgZcX)"><path d=" M 195.804 205.752 C 196.867 204.42 197.734 203.195 198.404 202.077 C 199.072 200.961 199.372 200.076 199.302 199.421 C 199.156 198.785 198.818 198.111 198.29 197.395 C 197.762 196.681 197.166 196.022 196.505 195.421 M 208.73 153.553 C 207.69 152.371 206.443 151.947 204.989 152.282 C 201.926 152.99 199.541 157.683 197.837 166.364 C 197.396 168.643 196.946 171.676 196.489 175.463 C 196.033 179.252 195.696 183.117 195.477 187.06 C 195.257 191.003 195.15 194.731 195.156 198.245 C 195.161 201.759 195.356 204.35 195.741 206.019 C 196.402 208.88 197.333 211.259 198.539 213.157 C 199.743 215.056 201.569 215.721 204.021 215.157 C 208.767 214.06 211.827 209.672 213.198 201.989 C 213.723 199.024 213.82 196.824 213.49 195.394 C 213.417 195.077 213.2 194.582 212.845 193.911 C 212.489 193.24 212.07 192.479 211.592 191.627 C 211.113 190.776 210.676 189.935 210.284 189.104 C 209.89 188.275 209.612 187.501 209.447 186.787 C 208.969 184.722 209.001 182.329 209.543 179.608 C 210.084 176.89 210.435 175.007 210.599 173.965 C 211.438 166.071 211.574 160.893 211.004 158.429 C 210.528 156.362 209.77 154.737 208.73 153.553 Z  M 123.814 179.75 C 124.18 178.368 124.561 176.962 124.957 175.53 C 125.353 174.101 125.747 172.754 126.141 171.49 C 126.534 170.229 126.82 169.283 126.998 168.656 C 127.393 169.318 127.752 170.177 128.077 171.231 C 128.4 172.287 128.725 173.342 129.05 174.397 C 129.373 175.453 129.66 176.434 129.91 177.338 C 130.159 178.244 130.377 178.924 130.564 179.384 C 129.105 180.056 127.663 180.703 126.233 181.324 C 124.805 181.949 123.744 182.508 123.052 183.001 C 123.193 182.216 123.447 181.133 123.814 179.75 Z  M 157.476 169.153 C 155.778 168.792 153.629 168.911 151.026 169.512 C 148.805 170.024 146.718 170.758 144.76 171.712 C 144.769 170.705 144.581 169.367 144.197 167.699 C 143.922 166.506 143.382 164.874 142.582 162.799 C 141.78 160.724 141.214 158.971 140.885 157.541 L 139.894 153.25 C 138.996 149.358 137.853 146.336 136.47 144.185 C 135.086 142.037 132.672 141.358 129.227 142.154 C 126.623 142.754 124.326 145.211 122.338 149.52 C 119.572 155.349 115.203 167.865 109.234 187.071 C 106.928 194.552 104.935 201.289 103.255 207.283 C 101.574 213.28 100.207 218.533 99.152 223.045 C 98.735 224.733 98.331 226.48 97.943 228.284 C 97.553 230.091 97.185 231.995 96.842 233.999 C 97.1 235.113 98.34 236.29 100.562 237.534 C 101.283 237.87 102.368 238.373 103.813 239.043 C 106.493 238.425 108.477 236.544 109.768 233.4 C 109.981 232.932 110.346 231.802 110.86 230.008 C 111.373 228.217 112.036 225.762 112.85 222.644 C 113.641 219.784 115.121 215.716 117.291 210.445 C 118.17 208.317 118.863 206.692 119.372 205.57 C 119.878 204.449 120.373 203.54 120.859 202.842 C 121.342 202.145 121.893 201.557 122.508 201.08 C 123.124 200.604 124.009 199.897 125.163 198.959 C 125.644 198.597 126.576 197.923 127.962 196.932 C 129.346 195.944 131.184 194.64 133.471 193.024 C 133.838 194.614 134.252 197.112 134.718 200.52 C 135.18 203.929 135.602 207.328 135.982 210.712 C 136.36 214.099 136.675 217.039 136.93 219.533 C 137.183 222.028 137.282 223.154 137.227 222.916 C 137.943 226.015 138.909 228.365 140.125 229.968 C 141.341 231.571 143.328 232.053 146.084 231.417 C 150.982 230.286 154.414 226.104 156.373 218.873 C 157.856 213.426 158.242 209.151 157.526 206.052 C 157.16 204.463 156.316 203.088 155.002 201.927 C 153.685 200.767 152.276 199.731 150.777 198.822 L 148.341 186.704 C 149.033 186.211 150.108 185.626 151.567 184.954 C 153.024 184.284 154.771 183.294 156.809 181.986 C 158.499 180.926 159.621 179.496 160.172 177.694 C 160.724 175.893 160.789 174.08 160.367 172.25 C 160.137 170.547 159.172 169.515 157.476 169.153 Z " fill="rgb(28,47,60)"/></g><clipPath id="_clipPath_q4xfmMP5MgMBikkjLeyctV5ceIMXTMFz"><rect x="8" y="3.563" width="464.342" height="578.437" transform="matrix(1,0,0,1,0,0)" fill="rgb(255,255,255)"/></clipPath><g clip-path="url(#_clipPath_q4xfmMP5MgMBikkjLeyctV5ceIMXTMFz)"><path d=" M 130.356 145.781 L 147.462 210.036 L 156.972 208.019 L 155.824 207.453 L 155.692 207.315 L 155.217 204.204 L 156.115 204.437 L 155.805 204.737 L 154.617 207.03 L 154.203 207.431 L 154.071 207.294 C 153.367 206.564 153.843 205.398 155.499 203.798 L 155.323 203.615 C 154.325 202.582 148.393 202.492 149.925 200.484 L 153.051 200.433 L 150.723 200.331 L 151.579 199.768 L 148.586 199.926 C 148.087 199.41 151.914 201.221 151.898 200.237 C 151.131 200.686 152.548 197.217 151.928 197.818 L 151.664 197.545 C 151.529 196.441 151.229 195.644 150.759 195.157 C 151.751 192.319 152.014 190.654 151.545 190.167 L 150.444 189.027 L 151.168 188.327 L 151.565 188.737 L 152.393 187.937 C 152.807 187.537 152.897 187.009 152.664 186.353 C 151.268 186.704 150.424 186.726 150.129 186.422 L 149.997 186.285 C 151.153 182.001 149.723 180.772 149.312 180.346 L 148.5 178.284 C 145.904 179.324 149.789 175.29 149.701 175.198 L 149.04 174.514 L 149.087 173.94 C 148.879 174.14 148.688 174.149 148.512 173.966 L 148.098 174.367 L 147.328 175.641 L 147.017 175.941 L 146.313 175.212 C 146.422 174.635 146.616 174.214 146.891 173.947 C 146.803 173.855 146.554 173.804 146.141 173.79 C 144.881 171.658 145.044 169.825 146.633 168.29 C 145.754 166.965 145.419 165.997 145.627 165.383 L 145.539 165.291 L 144.061 166.454 L 143.665 166.044 C 143.401 165.771 143.84 165.053 144.984 163.888 L 144.06 162.93 L 143.381 163.056 C 143.795 162.655 143.814 161.639 143.437 160.005 L 143.023 160.404 L 143.087 159.02 L 142.512 159.046 L 140.33 151.81 L 139.344 151.618 L 138.569 149.985 L 137.583 149.793 C 137.81 149.339 137.403 147.881 136.362 145.419 L 135.394 144.415 M 138.286 206.066 L 138.463 206.248 M 150.656 198.812 L 150.788 198.948 C 150.994 199.161 150.853 199.502 150.372 199.967 L 152.436 199.796 L 151.996 199.339 L 150.656 198.812 Z  M 142.259 160.438 L 142.611 160.803 L 141.576 161.803 L 141.224 161.438 L 142.259 160.438 Z  M 140.763 158.887 L 141.177 158.486 L 141.97 159.307 L 140.832 160.408 L 140.303 159.86 C 140.156 159.709 140.309 159.385 140.763 158.887 Z  M 138.444 152.753 L 138.755 152.453 L 139.195 152.909 C 139.342 153.062 139.208 153.337 138.795 153.738 L 138.38 154.137 L 138.028 153.772 C 137.852 153.59 137.991 153.25 138.444 152.753 Z " fill="rgb(28,47,60)"/></g><clipPath id="_clipPath_5OKPWjvcGRjBI2TlGc1d7zLOKSnaaidQ"><rect x="8" y="3.563" width="464.342" height="578.437" transform="matrix(1,0,0,1,0,0)" fill="rgb(255,255,255)"/></clipPath><g clip-path="url(#_clipPath_5OKPWjvcGRjBI2TlGc1d7zLOKSnaaidQ)"><path d=" M 168.226 123.134 C 168.309 128.092 168.224 133.114 167.969 138.199 C 167.8 145.057 166.624 159.24 164.443 180.746 C 163.891 186.746 163.538 196.708 163.387 210.628 C 161.829 215.467 161.193 218.502 161.475 219.73 C 162.076 222.329 164.219 223.925 167.907 224.516 C 167.875 224.375 167.946 224.284 168.12 224.243 L 169.106 224.015 C 170.309 224.634 171.354 224.866 172.241 224.71 C 172.678 224.609 173.336 224.059 174.212 223.061 C 174.606 223.169 174.89 223.203 175.066 223.162 C 175.898 222.971 177.419 221.474 179.633 218.674 C 181.658 217.46 182.584 216.475 182.409 215.719 C 182.913 215.106 186.061 212.562 191.853 208.089 C 193.595 205.647 197.997 202.042 205.059 197.276 C 204.983 196.946 204.785 196.792 204.469 196.815 L 202.958 197.165 L 202.498 197.569 L 202.105 197.063 L 204.11 194.062 L 204.045 193.778 C 202.808 194.612 202.101 195.049 201.927 195.089 L 201.336 194.927 C 202.256 193.52 202.705 192.77 202.683 192.675 L 200.959 193.297 L 200.5 193.403 C 200.228 192.222 200.574 190.724 201.538 188.908 C 189.538 195.859 180.95 200.604 175.772 203.143 C 175.728 202.955 175.618 202.88 175.444 202.92 C 175.498 202.36 175.614 202.059 175.79 202.019 C 175.674 196.123 175.726 192.454 175.945 191.008 C 175.88 190.724 175.666 190.6 175.305 190.633 L 175.701 189.048 L 175.062 188.375 L 174.996 188.091 C 175.621 186.205 175.912 185.167 175.869 184.978 L 174.902 183.186 L 174.853 182.973 L 176.1 182.685 C 176.45 182.604 176.582 182.375 176.496 181.997 L 176.365 181.43 C 176.299 181.146 176.08 180.999 175.709 180.984 L 176.251 179.739 L 176.185 179.455 L 175.923 179.517 L 175.482 177.602 L 175.104 177.167 C 175.75 175.973 175.933 174.762 175.648 173.532 C 177.018 171.674 177.605 170.019 177.408 168.572 C 177.101 168.642 176.883 168.495 176.752 168.126 L 176.49 166.992 C 176.885 166.901 177.218 166.749 177.492 166.537 L 178.466 159.369 C 178.379 158.991 178.094 158.857 177.613 158.968 L 177.498 158.472 C 177.389 158 177.438 157.117 177.648 155.825 C 178.383 153.615 178.641 151.241 178.424 148.702 C 179.075 139.941 179.627 135.036 180.075 133.987 C 179.848 129.41 180.195 127.016 181.115 126.804 L 180.985 126.237 C 180.152 125.832 179.338 124.602 178.541 122.546 C 175.182 120.783 172.541 120.125 170.615 120.569 C 169.469 120.832 168.676 121.687 168.226 123.134 Z " fill="rgb(28,47,60)"/></g><clipPath id="_clipPath_3LeTAm6Bbl8SfkVm03zWw9Smz8THczHT"><rect x="8" y="3.563" width="464.342" height="578.437" transform="matrix(1,0,0,1,0,0)" fill="rgb(255,255,255)"/></clipPath><g clip-path="url(#_clipPath_3LeTAm6Bbl8SfkVm03zWw9Smz8THczHT)"><path d=" M 330.504 164.167 C 328.452 165.797 326.002 166.94 325.637 167.025 C 325.123 167.144 326.387 168.119 326.082 166.8 C 325.795 165.556 325.608 163.923 325.528 161.898 C 325.446 159.875 325.435 157.66 325.497 155.255 C 325.633 152.835 325.768 150.335 325.906 147.759 C 326.044 145.183 326.151 142.73 326.23 140.398 C 326.309 138.067 326.314 135.927 326.251 133.975 C 326.185 132.024 326.001 130.39 325.698 129.073 C 325.528 128.342 325.11 127.704 324.446 127.163 C 323.781 126.623 323.011 126.205 322.133 125.905 C 321.254 125.608 320.378 125.405 319.506 125.298 C 318.632 125.192 317.867 125.214 317.208 125.365 C 316.037 125.636 315.272 126.333 314.915 127.456 C 314.557 128.58 314.12 129.857 313.603 131.287 C 312.639 130.121 309.732 169.46 312.068 166.22 C 312.181 169.047 312.489 171.636 312.994 173.986 C 313.498 176.338 314.004 178.611 314.511 180.806 C 314.951 182.711 316.012 184.297 317.693 185.565 C 319.374 186.834 320.953 185.992 323.002 185.52 C 324.979 185.063 328.852 181.973 334.911 177.491" fill="rgb(28,47,60)"/></g><clipPath id="_clipPath_hZ1i3G0OepdpcIrPLQQTGEzGXF2peJSb"><rect x="8" y="3.563" width="464.342" height="578.437" transform="matrix(1,0,0,1,0,0)" fill="rgb(255,255,255)"/></clipPath><g clip-path="url(#_clipPath_hZ1i3G0OepdpcIrPLQQTGEzGXF2peJSb)"><path d=" M 313.757 130.269 C 311.756 128.363 309.058 127.424 305.663 127.452 C 304.699 127.876 303.981 128.142 303.505 128.252 C 299.799 129.108 295.656 132.66 291.075 138.906 C 277.169 157.179 271.742 172.914 274.789 186.114 L 274.954 186.831 C 278.98 191.947 285.068 193.563 293.223 191.681 C 295.578 190.533 297.032 189.341 297.583 188.105 C 299.571 186.337 301.361 184.186 302.952 181.651 L 313.541 165.269 M 291.645 164.918 C 291.802 164.881 292.464 163.52 293.628 160.833 C 298.743 151.593 303.319 145.447 307.357 142.399 L 308.231 142.197 L 308.28 142.412 C 308.367 143.752 307.376 147.433 305.308 153.451 C 304.742 156.555 303.379 159.714 301.223 162.932 L 301.339 163.434 C 301.416 163.768 301.719 163.875 302.249 163.752 L 302.365 164.254 L 302.225 164.74 C 300.805 166.076 300.178 167.101 300.343 167.819 L 296.748 173.259 L 296.143 173.172 C 296.098 172.981 296.182 172.861 296.394 172.812 L 295.976 172.456 C 293.415 175.616 290.895 178.34 288.412 180.625 L 287.617 180.808 C 287.584 180.664 287.423 180.451 287.135 180.163 C 287.235 178.428 287.58 176.182 288.171 173.426 L 287.933 173.48 C 287.69 172.431 288.927 169.577 291.645 164.918 Z " fill="rgb(28,47,60)"/></g><clipPath id="_clipPath_41eEGVq4D82RQhLrWM8PoexByLjUVp7L"><rect x="8" y="3.563" width="464.342" height="578.437" transform="matrix(1,0,0,1,0,0)" fill="rgb(255,255,255)"/></clipPath><g clip-path="url(#_clipPath_41eEGVq4D82RQhLrWM8PoexByLjUVp7L)"><path d=" M 323.197 169.984 L 322.988 169.73 C 322.834 169.062 322.842 168.658 323.011 168.517 C 324.112 163.233 324.61 160.01 324.503 158.847 L 324.249 159.056 L 324.002 159.687 C 323.862 159.518 323.724 159.489 323.589 159.601 C 323.394 159.364 323.585 158.666 324.165 157.506 L 324.416 157.81 C 325.803 156.667 326.338 148.705 327.292 133.935 L 328.812 130.296 L 327.437 129.042 C 327.186 128.737 327.199 128.442 327.475 128.158 L 327.627 128.033 L 328.294 127.91 C 328.154 127.741 328.168 127.587 328.337 127.447 L 327.121 126.489 L 326.827 124.685 L 326.661 124.482 C 326.221 124.845 325.905 125.36 325.718 126.026 L 325.464 126.236 L 324.292 124.814 C 323.896 124.402 322.398 124.415 319.802 124.849 L 319.638 124.132 C 319.331 123.76 318.25 124.14 316.398 125.269 L 315.737 125.813 C 314.791 126.594 314.228 127.74 314.052 129.249 C 312.509 146.548 311.717 155.747 310.397 156.834 L 309.534 157.545 L 309.367 157.342" fill="rgb(28,47,60)"/></g><clipPath id="_clipPath_l1SBRLV9GUTOnLcUlG0ZZGOB5HywLpuM"><rect x="8" y="3.563" width="464.342" height="578.437" transform="matrix(1,0,0,1,0,0)" fill="rgb(255,255,255)"/></clipPath><g clip-path="url(#_clipPath_l1SBRLV9GUTOnLcUlG0ZZGOB5HywLpuM)"><path d=" M 332.504 176.893 C 335.388 174.011 337.75 171.143 339.591 168.289 C 341.279 165.473 341.803 162.674 341.16 159.892 C 340.517 157.111 338.627 156.082 335.488 156.807 C 335.028 156.912 333.73 157.84 331.594 159.589 M 352.59 126.618 C 352.94 128.128 352.732 129.85 351.968 131.784 C 350.817 134.479 349.136 137.419 346.928 140.606 C 344.72 143.796 342.232 146.546 339.46 148.86 C 339.829 145.929 340.274 143.483 340.79 141.522 C 341.187 139.756 341.793 138.006 342.6 136.27 C 343.411 134.536 344.314 132.946 345.311 131.501 C 346.308 130.058 347.336 128.836 348.396 127.838 C 349.455 126.84 350.446 126.235 351.365 126.023 C 351.517 125.987 351.926 126.188 352.59 126.618 Z  M 364.009 157.007 C 360.876 159.154 354.62 163.62 351.884 165.214 C 349.147 166.809 346.727 166.542 345.196 166.895 C 344.582 167.037 343.901 166.186 343.439 165.58 C 342.977 164.976 342.625 164.325 342.383 163.626 C 344.311 161.844 346.289 160.025 348.323 158.174 C 350.354 156.324 352.324 154.469 354.234 152.604 C 355.89 151.05 357.301 149.303 358.465 147.357 C 359.63 145.416 360.564 143.526 361.27 141.689 C 362.889 137.883 363.981 133.698 364.54 129.132 C 365.1 124.567 364.931 120.338 364.03 116.444 C 362.691 110.644 358.882 108.467 352.603 109.916 C 347.934 110.995 343.723 113.808 339.975 118.356 C 336.227 122.905 333.162 128.133 330.774 134.039 C 328.388 139.948 326.741 145.999 325.832 152.193 C 324.924 158.388 324.975 163.671 325.982 168.04 C 326.405 169.869 327.147 171.769 328.207 173.741 C 329.268 175.716 330.521 177.475 331.968 179.025 C 333.413 180.575 335.002 181.777 336.732 182.634 C 338.461 183.489 340.207 183.714 341.968 183.307 C 344.341 182.76 348.902 180.326 355.645 176.007" fill="rgb(28,47,60)"/></g><clipPath id="_clipPath_1KhMYuBP0Axtx2GucyyntnDCswQKWCVG"><rect x="8" y="3.563" width="464.342" height="578.437" transform="matrix(1,0,0,1,0,0)" fill="rgb(255,255,255)"/></clipPath><g clip-path="url(#_clipPath_1KhMYuBP0Axtx2GucyyntnDCswQKWCVG)"><path d=" M 345.003 161.18 C 346.725 160.405 347.464 159.703 347.216 159.076 L 347.78 158.854 C 353.19 154.861 358.017 147.52 361.229 142.931 C 361.139 142.581 362.575 140.777 364.459 132.967 C 364.377 132.759 364.91 131.605 364.596 131.295 L 364.25 130.418 C 365.485 128.531 365.768 126.73 365.092 125.015 L 364.746 124.138 L 365.262 123.732 L 365.509 124.359 L 366.135 124.112 C 365.939 123.611 366.01 122.689 366.35 121.347 L 364.844 117.522 C 364.332 116.227 364.139 115.611 364.139 115.611 L 363.696 114.483 C 363.126 113.403 362.045 112.38 360.458 111.412 C 359.421 108.777 355.231 111.012 347.196 112.922 C 343.903 115.232 350.45 116.156 350.45 116.156 L 359.569 117.692 L 360.273 125.065 L 357.698 139.317 L 346.85 151.734 L 338.841 164.099 L 337.977 164.828" fill="rgb(28,47,60)"/></g><clipPath id="_clipPath_ykCXwGRlwSrWBen29iColAj2Pjp7WdXd"><rect x="8" y="3.563" width="464.342" height="578.437" transform="matrix(1,0,0,1,0,0)" fill="rgb(255,255,255)"/></clipPath><g clip-path="url(#_clipPath_ykCXwGRlwSrWBen29iColAj2Pjp7WdXd)"><path d=" M 336.845 179.715 C 337.68 180.977 340.264 181.843 344.592 182.309 C 347.917 181.186 349.7 180.804 349.939 181.165 L 352.181 179.506 L 353.57 178.687 C 353.879 178.506 354.352 177.815 354.991 176.616 L 355.526 176.638 L 358.513 173.66 C 358.941 173.419 359.464 173.213 360.081 173.04 C 360.128 172.806 361.089 172.037 362.964 170.732 L 364.105 170.353 L 364.137 169.101 C 364.278 169.021 364.529 168.99 364.885 169.003 L 365.168 168.173 L 365.596 167.932 L 366.093 167.914 C 365.975 167.734 366.426 167.281 367.446 166.553 C 368.705 165.995 369.466 165.647 369.726 165.508 L 370.328 164.246 C 370.472 164.166 370.722 164.109 371.077 164.076 C 374.872 160.803 377.613 158.67 379.298 157.681 L 380.831 156.735 L 380.722 156.544 C 380.578 156.288 380.353 156.229 380.044 156.362 L 378.264 157.39 C 378.049 157.057 377.549 156.859 376.764 156.798 L 376.334 156.106 L 377.188 155.337 L 376.937 154.915 C 376.297 155.301 375.738 155.419 375.261 155.272 L 375.012 155.424 L 374.73 156.183 L 374.337 156.464 L 373.907 155.843 C 374.857 155.276 375.129 154.695 374.723 154.101 L 375.933 153.371 L 375.826 153.18 C 375.659 152.948 375.432 152.887 375.148 152.999 L 373.332 154.059 C 372.358 154.647 371.705 154.756 371.371 154.385 C 369.683 154.849 368.579 155.005 368.056 154.851 L 366.667 155.67 C 366.547 155.777 365.932 155.95 364.813 156.188 L 360.468 158.804 C 359.305 159.468 358.155 160.241 357.015 161.122 L 356.089 161.381 C 354.191 162.707 352.375 163.886 350.642 164.918 L 347.723 166.684 L 346.582 167.063 L 346.438 166.832 M 371.215 162.224 L 371.502 162.686 L 370.895 163.015 L 370.609 162.553 L 371.215 162.224 Z  M 373.737 158.874 L 373.917 159.145 C 374.061 159.399 374.001 159.621 373.74 159.807 L 373.17 160.104 L 372.741 159.484 L 373.737 158.874 Z  M 377.079 154.785 L 377.649 154.775 L 378.076 154.534 C 378.338 154.395 378.372 154.172 378.18 153.864 L 378.037 153.634 C 377.894 153.427 377.489 153.383 376.823 153.503 L 377.079 154.785 Z  M 370.694 155.064 L 370.946 155.486 L 370.376 155.856 L 370.089 155.394 L 370.694 155.064 Z " fill="rgb(28,47,60)"/></g><clipPath id="_clipPath_NMRgDkEUeSJskR2zrj0WSkYlCQZ0qaUv"><rect x="8" y="3.563" width="464.342" height="578.437" transform="matrix(1,0,0,1,0,0)" fill="rgb(255,255,255)"/></clipPath><g clip-path="url(#_clipPath_NMRgDkEUeSJskR2zrj0WSkYlCQZ0qaUv)"><path d=" M 234.757 178.385 C 233.954 176.493 233.029 163.329 236.202 157.034 L 236.508 156.904 L 236.721 157.405 L 237.104 157.241 L 237.811 156.351 C 237.717 156.128 237.503 155.913 237.174 155.702 L 237.644 154.255 L 237.661 154.245 L 237.891 154.148 C 236.099 153.903 236.874 153.292 236.794 153.106 L 236.558 152.55 C 236.323 151.993 236.015 150.702 235.636 148.673 C 234.566 146.152 231.519 145.08 226.499 145.459 L 222.795 148.017 C 222.178 148.41 221.244 151.959 219.993 158.663 L 217.524 180.526 C 217.387 195.818 217.744 204.464 218.595 206.467 L 219.114 206.838 C 220.606 207.518 221.409 207.988 221.519 208.246 C 223.061 208.336 223.921 208.584 224.095 208.991 C 225.116 208.559 226.255 208.688 227.513 209.379 C 228.176 209.098 228.399 208.698 228.178 208.178 L 229.096 207.787 C 229.317 208.307 229.63 208.48 230.039 208.306 C 230.652 208.046 231.384 207.43 232.236 206.454 C 233.052 206.107 233.681 206.454 234.123 207.492 L 234.735 207.233 C 235.173 204.858 235.847 202.755 236.757 200.924 C 238.778 199.477 238.243 199.879 240.448 195.702" fill="rgb(28,47,60)"/></g><clipPath id="_clipPath_63so7C2cZKYcnrYnBz2a9QJ7Ka1tmlPY"><rect x="8" y="3.563" width="464.342" height="578.437" transform="matrix(1,0,0,1,0,0)" fill="rgb(255,255,255)"/></clipPath><g clip-path="url(#_clipPath_63so7C2cZKYcnrYnBz2a9QJ7Ka1tmlPY)"><path d=" M 239.965 196.557 C 247.386 184.68 249.364 181.091 252.182 173.896 C 252.413 171.128 252.286 172.871 252.902 172.608 C 253.141 169.399 254.047 168.741 254.687 167.505 L 255.416 165.429 C 255.605 165.874 253.499 182.527 258.784 190.991 C 258.988 191.473 260.003 192.662 261.826 194.558 C 262.073 194.454 263.109 195.239 264.937 196.915 L 265.274 196.509 C 265.179 196.286 264.987 196.063 264.697 195.834 C 264.64 195.246 264.716 194.907 264.921 194.82 C 264.502 191.89 264.765 190.223 265.712 189.822 C 266.212 190.66 266.65 191 267.018 190.843 C 267.664 191.795 268.728 191.956 270.208 191.328 L 269.888 189.888 C 269.762 189.591 269.514 189.521 269.144 189.678 L 268.959 189.757 C 269.116 190.128 269.175 190.497 269.138 190.863 L 268.526 190.794 C 268.569 190.208 268.551 189.711 268.477 189.305 L 267.72 187.525 C 267.853 185.894 272.437 184.473 272.117 182.464 C 271.338 174.915 270.721 172.349 270.755 169.227 C 270.235 164.458 268.278 157.285 269.195 155.099 C 268.906 155.222 269.241 154.993 269.058 154.677 L 268.748 154.445 L 268.982 154.391 C 269.109 154.689 268.614 153.548 269.1 153.778 C 269.387 153.656 269.416 153.067 268.92 150.869 C 268.306 149.422 268.657 142.723 265.864 140.713 C 263.673 139.323 264.344 139.622 260.668 140.219 C 258.53 141.126 251.886 149.869 247.557 156.798 C 243.227 163.726 235.948 179.646 235.126 179.994 M 271.009 194.074 L 271.811 193.734 C 271.717 193.511 271.689 193.218 271.727 192.851 L 271.481 192.955 C 271.073 193.479 270.914 193.852 271.009 194.074 Z  M 265.997 191.867 C 266.139 192.202 266.373 192.299 266.703 192.159 L 266.95 192.055 L 266.524 191.054 L 266.278 191.158 L 265.997 191.867 Z  M 250.979 164.032 C 251.121 164.365 251.007 164.611 250.636 164.768 L 250.451 164.847 L 250.239 164.346 L 250.979 164.032 Z  M 254.582 163.014 L 254.383 162.857 L 254.713 163.636 C 254.292 166.53 251.478 168.582 249.338 172.685 C 248.834 171.498 251.456 169.221 254.137 162.962 L 254.582 163.014 Z " fill="rgb(28,47,60)"/></g><clipPath id="_clipPath_lKlIHDBNXrxHc1HBkLqLEmItp16qtU7E"><rect x="8" y="3.563" width="464.342" height="578.437" transform="matrix(1,0,0,1,0,0)" fill="rgb(255,255,255)"/></clipPath><g clip-path="url(#_clipPath_lKlIHDBNXrxHc1HBkLqLEmItp16qtU7E)"><path d=" M 268.089 178.212 L 266.919 178.284 L 266.864 177.39 L 267.105 176.823 L 267.741 177.06 L 268.016 177.043 C 268.382 177.021 268.555 176.827 268.533 176.459 L 268.22 175.857 L 267.433 176.526 L 267.089 176.547 L 267.034 175.653 C 266.97 174.599 267.316 173.887 268.077 173.518 C 268.055 173.151 267.767 172.984 267.219 173.018 L 267.405 171.557 L 267.681 171.539 C 267.739 172.502 268.571 172.934 270.175 172.836 L 270.324 170.756 L 270.303 170.412 L 269.685 170.45 L 269.086 170.832 L 269.027 169.868 C 270.113 168.835 257.457 176.352 257.734 177.117 C 257.608 178.827 257.582 180.28 257.656 181.471 L 257.761 183.191 L 257.581 184.79 C 257.765 184.778 258.077 186.509 258.52 189.978 C 260.405 196.72 263.731 199.946 268.5 199.654 C 268.854 199.448 269.239 199.332 269.653 199.308 L 270.821 199.236 L 271.818 199.728 L 272.575 199.681 L 272.519 198.788 C 272.977 198.759 273.374 198.849 273.709 199.06 C 274.69 197.02 275.34 195.992 275.66 195.972 C 276.003 193.283 275.141 191.762 276.498 190.62 L 276.186 190.017 L 275.131 185.154 C 272.51 180.678 271.18 178.584 271.18 178.584" fill="rgb(28,47,60)"/></g><clipPath id="_clipPath_xHNkfCdE0DvYFnR8z5BvkS0de7PGrUds"><rect x="8" y="3.563" width="464.342" height="578.437" transform="matrix(1,0,0,1,0,0)" fill="rgb(255,255,255)"/></clipPath><g clip-path="url(#_clipPath_xHNkfCdE0DvYFnR8z5BvkS0de7PGrUds)"><path d=" M 283.616 292.383 C 300.7 291.213 300.382 296.049 300.841 297.524 C 301.497 299.823 301.812 303.511 295.182 309.042 C 287.64 311.734 283.246 310.308 283.434 310.965 L 276.858 311.833 L 273.13 312.59 C 272.304 312.759 270.354 312.585 267.281 312.07 L 266.402 312.716 L 256.375 313.069 C 255.246 313.313 254.011 313.705 252.67 314.243 C 252.203 314.052 249.292 314.362 243.929 315.177 L 241.353 316.106 L 239.946 317.929 C 239.571 318.012 239.091 318.267 238.503 318.697 L 236.648 318.155 L 235.52 318.4 L 234.636 318.962 C 234.544 318.635 233.023 318.683 230.078 319.108 C 227.005 319.989 225.13 320.507 224.453 320.665 L 221.337 320.042 C 220.961 320.123 220.441 320.354 219.776 320.734 C 207.88 321.714 199.673 322.668 195.155 323.591 L 190.973 324.378 L 190.842 324.053 C 190.667 323.617 190.954 323.292 191.703 323.074 L 196.444 322.08 C 196.26 321.48 196.789 320.691 198.03 319.713 L 197.622 318.485 L 194.892 318.672 L 194.624 317.938 C 196.357 317.597 197.508 317.071 198.078 316.363 L 198.756 316.232 L 200.493 316.699 L 201.626 316.538 L 201.336 315.386 C 198.777 315.898 197.352 315.604 197.065 314.507 L 193.788 315.15 L 193.657 314.825 C 193.557 314.387 193.844 314.058 194.517 313.845 L 199.372 312.844 C 202.009 312.328 203.306 311.683 203.264 310.904 C 206.915 309.427 209.061 308.304 209.705 307.535 L 213.432 306.777 C 213.812 306.751 215.153 306.214 217.455 305.162 L 229.204 302.852 C 232.291 302.196 235.534 301.665 238.937 301.265 L 240.949 300.457 C 246.385 299.64 251.437 298.765 256.106 297.83 L 264.014 296.285 L 266.591 295.355 L 266.454 294.945 M 216.482 318.947 L 216.754 319.765 L 218.334 319.407 L 218.062 318.588 L 216.482 318.947 Z  M 206.634 318.366 L 206.774 318.859 C 206.951 319.294 207.417 319.457 208.17 319.348 L 209.635 318.996 L 209.344 317.845 L 206.634 318.366 Z  M 194.168 317.964 L 193.176 318.617 L 192.047 318.862 C 191.37 319.021 190.943 318.827 190.761 318.281 L 190.624 317.872 C 190.529 317.488 191.146 316.972 192.482 316.322 L 194.168 317.964 Z  M 205.545 310.826 L 205.813 311.56 L 207.397 311.284 L 207.125 310.466 L 205.545 310.826 Z " fill="rgb(28,47,60)"/></g><clipPath id="_clipPath_R1tcJM5Bc74rYsaPmjppxOpFxFpr46mx"><rect x="8" y="3.563" width="464.342" height="578.437" transform="matrix(1,0,0,1,0,0)" fill="rgb(255,255,255)"/></clipPath><g clip-path="url(#_clipPath_R1tcJM5Bc74rYsaPmjppxOpFxFpr46mx)"><path d=" M 215.868 321.266 L 248.247 315.764 L 267.958 311.668 C 272.271 311.587 275.991 311.758 279.113 312.185 C 282.234 312.613 285.335 312.862 288.414 312.932 C 293.087 312.353 297.046 310.759 300.285 308.144 C 303.525 305.531 304.977 302.845 304.64 300.087 C 304.097 295.638 302.669 292.811 300.361 291.606 C 298.049 290.402 293.185 290.258 285.762 291.176 C 281.499 291.703 275.688 292.672 268.325 294.078 C 260.961 295.486 225.939 303.315 217.927 305.12" fill="rgb(28,47,60)"/></g><clipPath id="_clipPath_u9O4KXF3pNb8vJTLwV76IVpHXsY0tzOB"><rect x="8" y="3.563" width="464.342" height="578.437" transform="matrix(1,0,0,1,0,0)" fill="rgb(255,255,255)"/></clipPath><g clip-path="url(#_clipPath_u9O4KXF3pNb8vJTLwV76IVpHXsY0tzOB)"><path d=" M 226.375 119.057 C 226.461 119.44 226.462 119.74 226.378 119.959 L 223.453 121.234 L 222.452 123.85 L 220.738 124.69 L 220.638 124.952 C 220.841 125.03 221.111 125.233 221.448 125.564 C 221.131 126.392 220.258 126.856 218.826 126.956 C 218.93 127.596 219.132 127.975 219.436 128.091 C 219.303 128.439 219.135 128.576 218.933 128.498 C 217.662 130.76 216.495 131.686 215.433 131.278 L 214.535 134.534 L 214.435 134.795 L 213.525 134.445 C 213.629 135.085 213.831 135.464 214.134 135.581 C 213.6 136.375 212.826 136.577 211.813 136.188 L 211.513 136.973 C 207.626 142.28 204.71 145.959 202.763 148.012 L 202.156 147.778 L 202.457 146.993 L 202.654 145.568 C 203.059 145.724 203.763 144.795 204.765 142.779 C 204.866 142.517 204.731 142.265 204.359 142.022 C 203.955 141.867 203.652 142.05 203.452 142.574 C 203.25 142.496 202.981 142.292 202.641 141.962 C 202.49 141.903 201.85 141.757 200.721 141.523 C 200.215 141.027 200.012 140.648 200.112 140.387 L 200.512 139.34 L 201.515 137.626 C 201.315 137.548 201.246 137.421 201.313 137.248 L 199.898 137.304 L 199.391 136.809 C 200.397 135.395 201.033 134.338 201.299 133.642 L 201.399 133.38 C 201.499 133.119 201.365 132.867 200.993 132.624 L 213.305 110.41 C 223.978 100.509 226.81 117.923 226.375 119.057 Z  M 204.461 141.76 L 204.764 141.877 C 205.169 142.034 205.438 141.937 205.571 141.588 L 205.672 141.326 L 204.761 140.976 L 204.461 141.76 Z " fill="rgb(28,47,60)"/></g><rect x="8" y="3.563" width="464.342" height="578.437" transform="matrix(1,0,0,1,0,0)" fill="none"/><clipPath id="_clipPath_E7folKh7ekq4WIK5FVdB3ab9mHen9qQI"><rect x="8" y="-66.437" width="464.342" height="578.437" transform="matrix(1,0,0,1,0,0)" fill="rgb(255,255,255)"/></clipPath><g clip-path="url(#_clipPath_E7folKh7ekq4WIK5FVdB3ab9mHen9qQI)"><path d=" M 259.451 511.917 C 377.369 510.373 472.683 487.927 472.342 461.783 C 472 435.639 376.13 415.696 258.211 417.24 C 140.293 418.784 44.979 441.228 45.321 467.373 C 45.663 493.518 141.532 513.46 259.451 511.917 Z " fill="rgb(255,255,255)"/></g><clipPath id="_clipPath_d9C7wD0N1IXx0ysZl5d7zrRlolGG6tJ8"><rect x="8" y="-66.437" width="464.342" height="578.437" transform="matrix(1,0,0,1,0,0)" fill="rgb(255,255,255)"/></clipPath><g clip-path="url(#_clipPath_d9C7wD0N1IXx0ysZl5d7zrRlolGG6tJ8)"><path d=" M 439.176 480.327 C 439.32 480.429 439.45 480.403 439.571 480.251 C 440.044 479.659 440.501 478.968 440.94 478.179 C 441.379 477.388 441.718 476.728 441.956 476.196 C 442.118 475.778 442.417 475.047 442.851 474.002 C 444.322 470.412 445.218 466.649 445.539 462.714 C 445.861 458.762 445.511 455.128 444.486 451.817 C 444.437 451.646 444.322 451.602 444.14 451.678 C 443.957 451.757 443.89 451.88 443.938 452.05 C 444.931 455.325 445.273 458.902 444.962 462.779 C 444.651 466.657 443.764 470.362 442.303 473.896 C 441.947 474.808 441.656 475.53 441.428 476.063 C 441.199 476.593 440.883 477.231 440.479 477.974 C 440.056 478.716 439.622 479.363 439.173 479.917 C 439.031 480.089 439.033 480.226 439.176 480.327 Z  M 438.856 473.174 C 438.98 472.985 438.957 472.843 438.784 472.751 C 438.469 472.604 438.133 472.41 437.775 472.169 L 436.985 471.641 C 436.798 471.51 436.48 471.27 436.028 470.916 L 435.199 470.274 C 434.93 470.07 434.096 469.466 432.695 468.465 C 431.731 467.778 430.968 467.202 430.403 466.737 L 432.15 463.823 C 432.558 463.742 433.026 463.661 433.547 463.579 C 434.592 463.413 435.81 463.227 437.201 463.02 C 438.648 462.812 439.459 462.698 439.632 462.676 C 439.846 462.635 439.951 462.512 439.946 462.302 C 439.943 462.096 439.834 462.012 439.62 462.053 C 439.462 462.093 438.661 462.211 437.215 462.409 C 435.77 462.608 434.542 462.789 433.535 462.953 L 432.572 463.137 C 434.76 459.537 437.019 456.031 439.346 452.617 C 439.471 452.427 439.447 452.286 439.274 452.193 C 439.101 452.1 438.951 452.15 438.826 452.34 C 436.42 455.886 434.083 459.527 431.816 463.258 C 431.058 463.401 430.423 463.532 429.914 463.653 C 429.367 463.773 428.943 463.892 428.641 464.009 C 428.459 464.087 428.306 464.155 428.183 464.213 C 428.016 464.31 427.905 464.415 427.849 464.529 C 427.771 464.662 427.745 464.823 427.771 465.011 C 427.809 465.123 427.873 465.247 427.966 465.377 C 428.102 465.584 428.307 465.826 428.581 466.106 C 428.828 466.33 429.167 466.618 429.601 466.971 C 428.27 469.238 426.972 471.532 425.708 473.854 C 425.602 474.043 425.637 474.175 425.813 474.249 C 425.989 474.323 426.13 474.265 426.237 474.074 L 430.049 467.335 C 430.498 467.707 431.237 468.254 432.271 468.979 C 433.554 469.887 434.39 470.492 434.776 470.789 C 434.858 470.863 435.125 471.076 435.576 471.43 L 436.556 472.183 C 436.743 472.312 437.019 472.494 437.386 472.724 C 437.753 472.956 438.094 473.154 438.407 473.321 C 438.582 473.414 438.731 473.365 438.856 473.174 Z  M 428.438 464.751 C 428.502 464.694 428.604 464.646 428.744 464.605 C 429.045 464.488 429.452 464.369 429.961 464.249 C 430.37 464.169 430.849 464.068 431.396 463.946 L 429.955 466.375 C 429.585 466.097 429.288 465.846 429.06 465.621 C 428.796 465.38 428.614 465.175 428.509 465.006 C 428.449 464.912 428.413 464.837 428.405 464.78 L 428.41 464.751 L 428.438 464.751 Z  M 419.027 463.146 C 420.615 462.653 421.954 462.182 423.047 461.733 C 424.36 461.186 425.281 460.683 425.809 460.223 C 426.783 459.341 427.029 458.411 426.546 457.436 C 426.174 456.704 425.379 455.977 424.157 455.255 C 423.123 454.664 421.96 454.16 420.672 453.742 L 421.269 452.856 C 421.395 452.665 421.37 452.524 421.196 452.431 C 421.023 452.338 420.874 452.388 420.749 452.578 L 420.077 453.579 C 419.175 453.326 418.478 453.203 417.988 453.21 C 417.779 453.212 417.659 453.318 417.625 453.526 C 417.593 453.734 417.679 453.837 417.886 453.835 C 418.302 453.828 418.907 453.934 419.701 454.15 C 417.558 457.353 415.467 460.64 413.43 464.01 C 412.841 464.151 412.293 464.272 411.786 464.373 C 411.573 464.413 411.468 464.537 411.472 464.744 C 411.475 464.953 411.584 465.037 411.799 464.996 C 412.132 464.916 412.532 464.825 413.002 464.725 C 411.142 467.811 409.352 470.933 407.631 474.092 C 407.524 474.281 407.559 474.413 407.735 474.487 C 407.911 474.561 408.052 474.503 408.16 474.312 C 410.444 470.239 412.3 467.012 413.724 464.63 C 413.898 465.063 414.098 465.513 414.324 465.984 L 414.938 467.252 L 415.689 468.545 L 416.391 469.783 L 417.199 471.077 L 417.945 472.228 L 418.757 473.493 C 419.164 474.112 419.413 474.496 419.503 474.645 C 419.609 474.794 419.753 474.807 419.935 474.682 C 420.116 474.557 420.164 474.41 420.078 474.241 C 419.971 474.092 419.712 473.708 419.304 473.09 L 418.516 471.852 L 417.771 470.701 L 416.959 469.436 L 416.274 468.254 C 415.98 467.747 415.739 467.317 415.552 466.96 L 414.961 465.721 L 414.353 464.425 C 415.983 464.008 417.542 463.581 419.027 463.146 Z  M 423.754 455.828 C 424.893 456.474 425.625 457.126 425.951 457.783 C 426.306 458.497 426.133 459.16 425.43 459.773 C 424.984 460.196 424.135 460.659 422.885 461.168 C 421.815 461.598 420.495 462.059 418.927 462.552 C 417.438 463.006 415.87 463.433 414.221 463.832 C 416.181 460.594 418.197 457.423 420.268 454.314 C 421.578 454.714 422.74 455.218 423.754 455.828 Z  M 407.917 458.615 C 407.92 458.595 407.946 458.548 407.997 458.471 L 408.715 457.016 C 409.164 455.99 409.359 455.203 409.297 454.656 C 409.248 454.26 409.078 453.974 408.786 453.799 C 408.493 453.623 408.095 453.577 407.592 453.658 C 406.954 453.762 406.277 453.983 405.562 454.322 C 404.846 454.663 404.254 454.997 403.788 455.324 C 403.319 455.651 402.762 456.064 402.115 456.564 C 399.265 458.775 396.61 461.425 394.145 464.519 C 393.12 463.644 392.394 462.879 391.973 462.224 C 391.838 462.018 391.652 462 391.416 462.174 C 391.18 462.348 391.132 462.537 391.267 462.742 C 391.735 463.455 392.517 464.276 393.61 465.206 C 392.748 466.333 391.905 467.516 391.08 468.754 C 390.212 470.032 389.337 471.593 388.452 473.437 C 387.879 474.634 387.519 475.576 387.37 476.257 C 387.281 476.693 387.27 477.042 387.341 477.306 C 387.471 477.663 387.735 477.839 388.132 477.834 C 388.396 477.831 388.55 477.695 388.593 477.431 C 388.636 477.167 388.526 477.035 388.261 477.039 C 388.186 477.039 388.143 477.012 388.134 476.955 C 388.082 476.805 388.091 476.577 388.158 476.275 C 388.297 475.668 388.625 474.804 389.146 473.682 C 390 471.914 390.853 470.381 391.705 469.085 C 392.5 467.903 393.327 466.768 394.184 465.68 C 395.401 466.647 397.034 467.796 399.079 469.13 C 399.285 469.261 399.472 469.21 399.641 468.982 C 399.809 468.753 399.792 468.574 399.587 468.444 C 397.542 467.11 395.919 465.96 394.719 464.994 C 397.14 461.938 399.741 459.335 402.524 457.182 C 403.516 456.413 404.409 455.797 405.201 455.333 C 405.993 454.869 406.785 454.575 407.579 454.451 C 407.905 454.409 408.139 454.426 408.278 454.499 C 408.397 454.573 408.471 454.704 408.496 454.893 C 408.541 455.308 408.371 455.953 407.982 456.828 C 407.836 457.15 407.656 457.503 407.443 457.884 C 407.44 457.903 407.397 457.998 407.312 458.168 L 407.279 458.198 L 407.269 458.254 L 407.232 458.312 C 407.236 458.293 407.248 458.274 407.269 458.254 L 407.232 458.312 L 407.157 458.426 L 406.109 460.168 L 406.106 460.196 C 405.901 460.521 405.776 460.712 405.73 460.768 C 405.544 461.092 405.249 461.578 404.841 462.225 L 403.925 463.682 L 397.956 473.765 L 396.824 475.68 C 396.719 475.87 396.652 475.985 396.627 476.023 L 396.595 476.051 L 396.586 476.108 C 396.559 476.147 396.547 476.175 396.543 476.194 C 396.513 476.497 396.653 476.618 396.965 476.557 C 397.063 476.536 397.144 476.497 397.209 476.441 C 397.214 476.421 397.225 476.402 397.246 476.383 L 397.28 476.354 L 397.321 476.268 L 400.925 470.298 C 400.928 470.278 400.941 470.26 400.963 470.239 L 404.118 464.927 L 406.757 460.529 C 406.761 460.508 406.772 460.5 406.791 460.499 L 407.917 458.615 Z  M 368.653 474.93 C 368.841 474.993 368.979 474.93 369.066 474.741 C 371.027 470.918 373.897 465.853 377.676 459.55 L 379.776 456.036 L 380.072 455.607 C 379.982 456.042 379.874 456.592 379.746 457.254 C 379.385 459.13 379.08 460.882 378.835 462.51 C 378.674 463.609 378.554 464.516 378.476 465.235 C 378.426 465.653 378.398 465.945 378.389 466.116 C 378.386 466.249 378.388 466.352 378.395 466.428 L 378.433 466.54 C 378.474 466.635 378.532 466.69 378.605 466.708 C 378.746 466.763 378.918 466.742 379.124 466.645 C 379.246 466.587 379.384 466.492 379.538 466.356 C 379.758 466.165 380.042 465.869 380.391 465.466 C 380.482 465.371 380.905 464.856 381.66 463.92 C 382.199 463.27 383.13 462.194 384.448 460.693 C 385.767 459.193 386.952 457.935 388.004 456.92 C 388.635 456.288 389.145 455.819 389.534 455.511 C 389.748 455.358 389.916 455.252 390.039 455.193 L 390.066 455.193 C 390.045 455.327 389.984 455.535 389.88 455.82 C 389.623 456.465 389.138 457.416 388.426 458.673 L 387.641 460.016 L 387.477 460.329 C 387.474 460.349 387.46 460.368 387.439 460.387 L 387.43 460.445 L 387.425 460.472 C 387.404 460.492 387.391 460.51 387.387 460.53 L 387.181 460.929 L 384.309 466.069 C 383.851 466.906 383.239 468.18 382.47 469.89 C 381.673 471.659 381.079 472.922 380.693 473.683 C 380.585 473.893 380.624 474.029 380.81 474.093 C 380.998 474.156 381.135 474.093 381.222 473.904 C 381.581 473.2 382.186 471.917 383.036 470.053 C 383.774 468.417 384.374 467.163 384.839 466.288 L 387.711 461.148 C 388.471 459.835 388.877 459.138 388.927 459.062 L 388.937 459.005 L 388.974 458.948 L 388.988 458.863 C 389.705 457.588 390.192 456.618 390.451 455.953 C 390.583 455.61 390.664 455.346 390.694 455.156 C 390.722 454.872 390.639 454.685 390.447 454.592 C 390.294 454.5 390.092 454.523 389.843 454.656 C 389.66 454.735 389.449 454.87 389.21 455.062 C 388.783 455.37 388.243 455.849 387.591 456.5 C 386.536 457.533 385.344 458.807 384.014 460.315 C 382.684 461.827 381.748 462.915 381.205 463.584 C 380.428 464.539 380.006 465.045 379.94 465.104 C 379.636 465.466 379.376 465.734 379.159 465.908 C 379.112 465.965 379.067 466.003 379.027 466.022 L 379.081 465.17 C 379.167 464.527 379.293 463.637 379.459 462.502 C 379.764 460.513 380.068 458.762 380.371 457.246 C 380.573 456.243 380.715 455.484 380.799 454.973 C 380.839 454.728 380.86 454.537 380.863 454.407 C 380.872 454.349 380.871 454.293 380.861 454.235 C 380.868 454.198 380.863 454.17 380.846 454.151 C 380.812 454.019 380.728 453.955 380.595 453.956 C 380.52 453.957 380.451 453.977 380.388 454.016 L 380.322 454.074 C 380.32 454.093 380.312 454.107 380.301 454.117 C 380.289 454.127 380.282 454.14 380.28 454.16 C 380.258 454.18 380.233 454.207 380.208 454.246 L 379.982 454.589 L 379.251 455.789 L 377.147 459.33 C 373.331 465.748 370.46 470.811 368.537 474.522 C 368.427 474.73 368.467 474.865 368.653 474.93 Z  M 371.464 452.374 C 371.332 452.262 371.197 452.283 371.059 452.436 C 370.557 452.971 370.062 453.64 369.573 454.438 C 369.086 455.239 368.725 455.886 368.494 456.38 L 367.49 458.548 C 365.852 462.122 364.786 465.867 364.289 469.785 C 363.793 473.703 363.952 477.385 364.767 480.833 C 364.795 481.003 364.906 481.053 365.095 480.983 C 365.286 480.916 365.359 480.787 365.314 480.598 C 364.525 477.226 364.377 473.615 364.873 469.763 C 365.369 465.91 366.421 462.226 368.03 458.709 C 368.449 457.759 368.774 457.037 369.006 456.542 C 369.237 456.048 369.585 455.425 370.047 454.672 C 370.509 453.92 370.98 453.285 371.459 452.77 C 371.595 452.618 371.598 452.485 371.464 452.374 Z " fill="rgb(28,47,60)"/></g><clipPath id="_clipPath_UTZkMSkW611yO0Ow3fARBaZJQBqGwt0T"><rect x="8" y="-66.437" width="464.342" height="578.437" transform="matrix(1,0,0,1,0,0)" fill="rgb(255,255,255)"/></clipPath><g clip-path="url(#_clipPath_UTZkMSkW611yO0Ow3fARBaZJQBqGwt0T)"><path d=" M 439.176 480.327 C 439.32 480.429 439.45 480.403 439.571 480.251 C 440.044 479.659 440.501 478.968 440.94 478.179 C 441.379 477.388 441.718 476.728 441.956 476.196 C 442.118 475.778 442.417 475.047 442.851 474.002 C 444.322 470.412 445.218 466.649 445.539 462.714 C 445.861 458.762 445.511 455.128 444.486 451.817 C 444.437 451.646 444.322 451.602 444.14 451.678 C 443.957 451.757 443.89 451.88 443.938 452.05 C 444.931 455.325 445.273 458.902 444.962 462.779 C 444.651 466.657 443.764 470.362 442.303 473.896 C 441.947 474.808 441.656 475.53 441.428 476.063 C 441.199 476.593 440.883 477.231 440.479 477.974 C 440.056 478.716 439.622 479.363 439.173 479.917 C 439.031 480.089 439.033 480.226 439.176 480.327 Z  M 438.856 473.174 C 438.98 472.985 438.957 472.843 438.784 472.751 C 438.469 472.604 438.133 472.41 437.775 472.169 L 436.985 471.641 C 436.798 471.51 436.48 471.27 436.028 470.916 L 435.199 470.274 C 434.93 470.07 434.096 469.466 432.695 468.465 C 431.731 467.778 430.968 467.202 430.403 466.737 L 432.15 463.823 C 432.558 463.742 433.026 463.661 433.547 463.579 C 434.592 463.413 435.81 463.227 437.201 463.02 C 438.648 462.812 439.459 462.698 439.632 462.676 C 439.846 462.635 439.951 462.512 439.946 462.302 C 439.943 462.096 439.834 462.012 439.62 462.053 C 439.462 462.093 438.661 462.211 437.215 462.409 C 435.77 462.608 434.542 462.789 433.535 462.953 L 432.572 463.137 C 434.76 459.537 437.019 456.031 439.346 452.617 C 439.471 452.427 439.447 452.286 439.274 452.193 C 439.101 452.1 438.951 452.15 438.826 452.34 C 436.42 455.886 434.083 459.527 431.816 463.258 C 431.058 463.401 430.423 463.532 429.914 463.653 C 429.367 463.773 428.943 463.892 428.641 464.009 C 428.459 464.087 428.306 464.155 428.183 464.213 C 428.016 464.31 427.905 464.415 427.849 464.529 C 427.771 464.662 427.745 464.823 427.771 465.011 C 427.809 465.123 427.873 465.247 427.966 465.377 C 428.102 465.584 428.307 465.826 428.581 466.106 C 428.828 466.33 429.167 466.618 429.601 466.971 C 428.27 469.238 426.972 471.532 425.708 473.854 C 425.602 474.043 425.637 474.175 425.813 474.249 C 425.989 474.323 426.13 474.265 426.237 474.074 L 430.049 467.335 C 430.498 467.707 431.237 468.254 432.271 468.979 C 433.554 469.887 434.39 470.492 434.776 470.789 C 434.858 470.863 435.125 471.076 435.576 471.43 L 436.556 472.183 C 436.743 472.312 437.019 472.494 437.386 472.724 C 437.753 472.956 438.094 473.154 438.407 473.321 C 438.582 473.414 438.731 473.365 438.856 473.174 Z  M 428.438 464.751 C 428.502 464.694 428.604 464.646 428.744 464.605 C 429.045 464.488 429.452 464.369 429.961 464.249 C 430.37 464.169 430.849 464.068 431.396 463.946 L 429.955 466.375 C 429.585 466.097 429.288 465.846 429.06 465.621 C 428.796 465.38 428.614 465.175 428.509 465.006 C 428.449 464.912 428.413 464.837 428.405 464.78 L 428.41 464.751 L 428.438 464.751 Z  M 419.027 463.146 C 420.615 462.653 421.954 462.182 423.047 461.733 C 424.36 461.186 425.281 460.683 425.809 460.223 C 426.783 459.341 427.029 458.411 426.546 457.436 C 426.174 456.704 425.379 455.977 424.157 455.255 C 423.123 454.664 421.96 454.16 420.672 453.742 L 421.269 452.856 C 421.395 452.665 421.37 452.524 421.196 452.431 C 421.023 452.338 420.874 452.388 420.749 452.578 L 420.077 453.579 C 419.175 453.326 418.478 453.203 417.988 453.21 C 417.779 453.212 417.659 453.318 417.625 453.526 C 417.593 453.734 417.679 453.837 417.886 453.835 C 418.302 453.828 418.907 453.934 419.701 454.15 C 417.558 457.353 415.467 460.64 413.43 464.01 C 412.841 464.151 412.293 464.272 411.786 464.373 C 411.573 464.413 411.468 464.537 411.472 464.744 C 411.475 464.953 411.584 465.037 411.799 464.996 C 412.132 464.916 412.532 464.825 413.002 464.725 C 411.142 467.811 409.352 470.933 407.631 474.092 C 407.524 474.281 407.559 474.413 407.735 474.487 C 407.911 474.561 408.052 474.503 408.16 474.312 C 410.444 470.239 412.3 467.012 413.724 464.63 C 413.898 465.063 414.098 465.513 414.324 465.984 L 414.938 467.252 L 415.689 468.545 L 416.391 469.783 L 417.199 471.077 L 417.945 472.228 L 418.757 473.493 C 419.164 474.112 419.413 474.496 419.503 474.645 C 419.609 474.794 419.753 474.807 419.935 474.682 C 420.116 474.557 420.164 474.41 420.078 474.241 C 419.971 474.092 419.712 473.708 419.304 473.09 L 418.516 471.852 L 417.771 470.701 L 416.959 469.436 L 416.274 468.254 C 415.98 467.747 415.739 467.317 415.552 466.96 L 414.961 465.721 L 414.353 464.425 C 415.983 464.008 417.542 463.581 419.027 463.146 Z  M 423.754 455.828 C 424.893 456.474 425.625 457.126 425.951 457.783 C 426.306 458.497 426.133 459.16 425.43 459.773 C 424.984 460.196 424.135 460.659 422.885 461.168 C 421.815 461.598 420.495 462.059 418.927 462.552 C 417.438 463.006 415.87 463.433 414.221 463.832 C 416.181 460.594 418.197 457.423 420.268 454.314 C 421.578 454.714 422.74 455.218 423.754 455.828 Z  M 407.917 458.615 C 407.92 458.595 407.946 458.548 407.997 458.471 L 408.715 457.016 C 409.164 455.99 409.359 455.203 409.297 454.656 C 409.248 454.26 409.078 453.974 408.786 453.799 C 408.493 453.623 408.095 453.577 407.592 453.658 C 406.954 453.762 406.277 453.983 405.562 454.322 C 404.846 454.663 404.254 454.997 403.788 455.324 C 403.319 455.651 402.762 456.064 402.115 456.564 C 399.265 458.775 396.61 461.425 394.145 464.519 C 393.12 463.644 392.394 462.879 391.973 462.224 C 391.838 462.018 391.652 462 391.416 462.174 C 391.18 462.348 391.132 462.537 391.267 462.742 C 391.735 463.455 392.517 464.276 393.61 465.206 C 392.748 466.333 391.905 467.516 391.08 468.754 C 390.212 470.032 389.337 471.593 388.452 473.437 C 387.879 474.634 387.519 475.576 387.37 476.257 C 387.281 476.693 387.27 477.042 387.341 477.306 C 387.471 477.663 387.735 477.839 388.132 477.834 C 388.396 477.831 388.55 477.695 388.593 477.431 C 388.636 477.167 388.526 477.035 388.261 477.039 C 388.186 477.039 388.143 477.012 388.134 476.955 C 388.082 476.805 388.091 476.577 388.158 476.275 C 388.297 475.668 388.625 474.804 389.146 473.682 C 390 471.914 390.853 470.381 391.705 469.085 C 392.5 467.903 393.327 466.768 394.184 465.68 C 395.401 466.647 397.034 467.796 399.079 469.13 C 399.285 469.261 399.472 469.21 399.641 468.982 C 399.809 468.753 399.792 468.574 399.587 468.444 C 397.542 467.11 395.919 465.96 394.719 464.994 C 397.14 461.938 399.741 459.335 402.524 457.182 C 403.516 456.413 404.409 455.797 405.201 455.333 C 405.993 454.869 406.785 454.575 407.579 454.451 C 407.905 454.409 408.139 454.426 408.278 454.499 C 408.397 454.573 408.471 454.704 408.496 454.893 C 408.541 455.308 408.371 455.953 407.982 456.828 C 407.836 457.15 407.656 457.503 407.443 457.884 C 407.44 457.903 407.397 457.998 407.312 458.168 L 407.279 458.198 L 407.269 458.254 L 407.232 458.312 C 407.236 458.293 407.248 458.274 407.269 458.254 L 407.232 458.312 L 407.157 458.426 L 406.109 460.168 L 406.106 460.196 C 405.901 460.521 405.776 460.712 405.73 460.768 C 405.544 461.092 405.249 461.578 404.841 462.225 L 403.925 463.682 L 397.956 473.765 L 396.824 475.68 C 396.719 475.87 396.652 475.985 396.627 476.023 L 396.595 476.051 L 396.586 476.108 C 396.559 476.147 396.547 476.175 396.543 476.194 C 396.513 476.497 396.653 476.618 396.965 476.557 C 397.063 476.536 397.144 476.497 397.209 476.441 C 397.214 476.421 397.225 476.402 397.246 476.383 L 397.28 476.354 L 397.321 476.268 L 400.925 470.298 C 400.928 470.278 400.941 470.26 400.963 470.239 L 404.118 464.927 L 406.757 460.529 C 406.761 460.508 406.772 460.5 406.791 460.499 L 407.917 458.615 Z  M 368.653 474.93 C 368.841 474.993 368.979 474.93 369.066 474.741 C 371.027 470.918 373.897 465.853 377.676 459.55 L 379.776 456.036 L 380.072 455.607 C 379.982 456.042 379.874 456.592 379.746 457.254 C 379.385 459.13 379.08 460.882 378.835 462.51 C 378.674 463.609 378.554 464.516 378.476 465.235 C 378.426 465.653 378.398 465.945 378.389 466.116 C 378.386 466.249 378.388 466.352 378.395 466.428 L 378.433 466.54 C 378.474 466.635 378.532 466.69 378.605 466.708 C 378.746 466.763 378.918 466.742 379.124 466.645 C 379.246 466.587 379.384 466.492 379.538 466.356 C 379.758 466.165 380.042 465.869 380.391 465.466 C 380.482 465.371 380.905 464.856 381.66 463.92 C 382.199 463.27 383.13 462.194 384.448 460.693 C 385.767 459.193 386.952 457.935 388.004 456.92 C 388.635 456.288 389.145 455.819 389.534 455.511 C 389.748 455.358 389.916 455.252 390.039 455.193 L 390.066 455.193 C 390.045 455.327 389.984 455.535 389.88 455.82 C 389.623 456.465 389.138 457.416 388.426 458.673 L 387.641 460.016 L 387.477 460.329 C 387.474 460.349 387.46 460.368 387.439 460.387 L 387.43 460.445 L 387.425 460.472 C 387.404 460.492 387.391 460.51 387.387 460.53 L 387.181 460.929 L 384.309 466.069 C 383.851 466.906 383.239 468.18 382.47 469.89 C 381.673 471.659 381.079 472.922 380.693 473.683 C 380.585 473.893 380.624 474.029 380.81 474.093 C 380.998 474.156 381.135 474.093 381.222 473.904 C 381.581 473.2 382.186 471.917 383.036 470.053 C 383.774 468.417 384.374 467.163 384.839 466.288 L 387.711 461.148 C 388.471 459.835 388.877 459.138 388.927 459.062 L 388.937 459.005 L 388.974 458.948 L 388.988 458.863 C 389.705 457.588 390.192 456.618 390.451 455.953 C 390.583 455.61 390.664 455.346 390.694 455.156 C 390.722 454.872 390.639 454.685 390.447 454.592 C 390.294 454.5 390.092 454.523 389.843 454.656 C 389.66 454.735 389.449 454.87 389.21 455.062 C 388.783 455.37 388.243 455.849 387.591 456.5 C 386.536 457.533 385.344 458.807 384.014 460.315 C 382.684 461.827 381.748 462.915 381.205 463.584 C 380.428 464.539 380.006 465.045 379.94 465.104 C 379.636 465.466 379.376 465.734 379.159 465.908 C 379.112 465.965 379.067 466.003 379.027 466.022 L 379.081 465.17 C 379.167 464.527 379.293 463.637 379.459 462.502 C 379.764 460.513 380.068 458.762 380.371 457.246 C 380.573 456.243 380.715 455.484 380.799 454.973 C 380.839 454.728 380.86 454.537 380.863 454.407 C 380.872 454.349 380.871 454.293 380.861 454.235 C 380.868 454.198 380.863 454.17 380.846 454.151 C 380.812 454.019 380.728 453.955 380.595 453.956 C 380.52 453.957 380.451 453.977 380.388 454.016 L 380.322 454.074 C 380.32 454.093 380.312 454.107 380.301 454.117 C 380.289 454.127 380.282 454.14 380.28 454.16 C 380.258 454.18 380.233 454.207 380.208 454.246 L 379.982 454.589 L 379.251 455.789 L 377.147 459.33 C 373.331 465.748 370.46 470.811 368.537 474.522 C 368.427 474.73 368.467 474.865 368.653 474.93 Z  M 371.464 452.374 C 371.332 452.262 371.197 452.283 371.059 452.436 C 370.557 452.971 370.062 453.64 369.573 454.438 C 369.086 455.239 368.725 455.886 368.494 456.38 L 367.49 458.548 C 365.852 462.122 364.786 465.867 364.289 469.785 C 363.793 473.703 363.952 477.385 364.767 480.833 C 364.795 481.003 364.906 481.053 365.095 480.983 C 365.286 480.916 365.359 480.787 365.314 480.598 C 364.525 477.226 364.377 473.615 364.873 469.763 C 365.369 465.91 366.421 462.226 368.03 458.709 C 368.449 457.759 368.774 457.037 369.006 456.542 C 369.237 456.048 369.585 455.425 370.047 454.672 C 370.509 453.92 370.98 453.285 371.459 452.77 C 371.595 452.618 371.598 452.485 371.464 452.374 Z " fill="none" vector-effect="non-scaling-stroke" stroke-width="1" stroke="rgb(28,47,60)" stroke-linejoin="miter" stroke-linecap="butt" stroke-miterlimit="3.714"/></g><clipPath id="_clipPath_NRbXoNXxdDBkWrZWvjqJGv9DTpW3ccvA"><rect x="8" y="-66.437" width="464.342" height="578.437" transform="matrix(1,0,0,1,0,0)" fill="rgb(255,255,255)"/></clipPath><g clip-path="url(#_clipPath_NRbXoNXxdDBkWrZWvjqJGv9DTpW3ccvA)"><path d=" M 325.117 446.581 C 324.726 446.528 324.46 446.695 324.322 447.079 C 324.069 447.923 323.843 449.071 323.646 450.526 C 323.39 452.095 323.192 453.188 323.056 453.8 C 323.025 453.992 322.843 454.748 322.513 456.071 C 322.184 457.394 321.974 458.209 321.886 458.515 C 321.799 458.823 321.612 459.56 321.326 460.729 C 321.039 461.899 320.85 462.712 320.757 463.172 C 320.661 463.632 320.493 464.38 320.248 465.415 C 320.003 466.449 319.833 467.264 319.736 467.856 C 319.639 468.45 319.5 469.187 319.319 470.068 C 319.135 470.95 318.984 471.773 318.859 472.539 C 318.733 473.306 318.629 474.071 318.542 474.836 L 318.374 475.869 L 318.206 476.904 C 318.044 477.9 317.941 478.76 317.899 479.487 C 317.76 481.744 318.087 483.248 318.879 484.001 C 319.268 484.417 319.803 484.409 320.483 483.981 C 320.902 483.746 321.393 483.301 321.959 482.643 C 322.84 481.677 323.925 480.172 325.21 478.13 C 325.812 477.242 326.875 475.51 328.4 472.93 C 329.553 471.004 330.228 469.906 330.423 469.636 L 332.999 465.762 C 332.911 466.299 332.791 466.911 332.643 467.601 C 332.585 467.716 332.054 469.692 331.048 473.526 C 330.357 476.133 329.921 478.107 329.741 479.446 C 329.479 481.512 329.697 482.867 330.394 483.507 C 331.179 484.3 332.239 484.343 333.575 483.638 C 334.535 483.13 335.637 482.217 336.88 480.901 C 337.343 480.399 337.847 479.829 338.389 479.19 C 338.931 478.554 339.372 478.002 339.716 477.54 L 340.876 476.035 C 341.262 475.534 341.48 475.244 341.532 475.167 C 343.218 473.005 348.333 466.061 356.877 454.332 L 358.921 451.611 C 359.845 450.377 360.579 449.375 361.126 448.603 C 361.671 447.831 362.293 446.876 362.993 445.741 C 363.693 444.606 364.275 443.537 364.744 442.537 C 364.921 442.153 364.819 441.896 364.441 441.767 C 364.061 441.638 363.76 441.785 363.539 442.208 C 363.116 443.168 362.568 444.188 361.898 445.267 C 361.225 446.346 360.631 447.251 360.111 447.984 C 359.59 448.718 358.849 449.701 357.886 450.937 L 355.822 453.772 C 348.332 464.188 343.261 471.093 340.611 474.49 C 340.516 474.606 340.273 474.934 339.881 475.474 L 338.796 476.864 C 338.453 477.328 338.023 477.868 337.503 478.486 C 336.982 479.104 336.49 479.666 336.028 480.167 C 334.924 481.328 333.976 482.114 333.184 482.526 C 332.392 482.937 331.779 482.956 331.346 482.579 C 330.918 482.164 330.803 481.115 331.001 479.432 C 331.174 478.131 331.604 476.195 332.289 473.625 C 333.301 469.753 333.832 467.779 333.883 467.701 C 334.372 465.632 334.506 464.235 334.279 463.512 C 334.195 463.323 334.061 463.209 333.877 463.173 C 333.731 463.138 333.573 463.159 333.41 463.236 L 333.209 463.411 C 333.164 463.45 333.116 463.508 333.066 463.585 C 333.015 463.663 332.942 463.759 332.847 463.874 L 332.077 465.088 L 329.369 469.079 C 329.172 469.349 328.494 470.466 327.337 472.43 C 326.013 474.701 324.972 476.416 324.212 477.572 C 322.939 479.537 321.883 480.983 321.046 481.913 C 320.614 482.454 320.253 482.802 319.961 482.959 C 319.917 482.997 319.874 483.017 319.836 483.018 C 319.28 482.452 319.063 481.213 319.185 479.3 C 319.213 478.651 319.31 477.828 319.472 476.832 L 319.631 475.855 L 319.798 474.821 C 319.885 474.056 319.99 473.3 320.111 472.553 C 320.233 471.806 320.384 470.992 320.566 470.112 C 320.747 469.231 320.886 468.493 320.983 467.899 C 321.08 467.306 321.25 466.492 321.495 465.457 C 321.741 464.422 321.908 463.685 321.999 463.244 C 322.09 462.803 322.28 461.989 322.569 460.8 C 322.856 459.613 323.032 458.885 323.096 458.616 C 323.158 458.348 323.367 457.533 323.722 456.172 C 324.076 454.811 324.266 454.053 324.292 453.901 C 324.436 453.249 324.639 452.119 324.9 450.51 C 325.093 449.095 325.306 448.022 325.54 447.292 C 325.652 446.87 325.51 446.633 325.117 446.581 Z  M 301.273 446.405 C 303.66 444.617 305.79 443.424 307.661 442.825 C 309.53 442.228 311.052 442.189 312.225 442.708 C 313.646 443.341 314.511 444.818 314.819 447.145 C 315.088 449.473 314.618 452.593 313.409 456.506 C 311.93 461.378 309.446 466.206 305.961 470.99 C 302.476 475.773 298.613 479.473 294.376 482.089 C 289.807 484.86 286.596 485.266 284.742 483.303 C 283.936 482.398 283.467 481.068 283.333 479.311 C 283.2 477.556 283.451 475.546 284.087 473.283 C 285.464 468.336 287.657 463.416 290.665 458.523 C 293.635 453.633 297.061 449.805 300.941 447.041 C 301.164 446.847 301.273 446.635 301.273 446.405 Z  M 288.284 460.159 C 285.852 464.547 284.039 468.889 282.845 473.183 C 282.186 475.599 281.926 477.781 282.066 479.727 C 282.206 481.673 282.761 483.177 283.733 484.233 C 284.724 485.405 286.197 485.901 288.152 485.722 C 290.105 485.544 292.354 484.674 294.896 483.113 C 299.298 480.42 303.315 476.584 306.948 471.607 C 310.541 466.63 313.102 461.668 314.634 456.718 C 315.874 452.614 316.345 449.255 316.046 446.641 C 315.747 444.029 314.708 442.33 312.929 441.552 C 311.15 440.773 308.889 440.966 306.146 442.128 C 303.402 443.292 300.379 445.347 297.078 448.293 C 296.893 448.487 296.803 448.698 296.805 448.927 C 293.552 452.028 290.713 455.771 288.284 460.159 Z  M 274.773 484.121 C 275.027 483.736 274.978 483.451 274.628 483.264 C 273.989 482.967 273.31 482.575 272.589 482.087 L 270.989 481.019 C 270.612 480.757 269.968 480.269 269.055 479.554 L 267.379 478.258 C 266.836 477.846 265.147 476.625 262.315 474.599 C 260.367 473.211 258.822 472.046 257.678 471.107 L 261.212 465.213 C 262.039 465.051 262.981 464.885 264.037 464.718 C 266.15 464.386 268.613 464.01 271.426 463.59 C 274.353 463.17 275.993 462.938 276.342 462.895 C 276.776 462.814 276.987 462.562 276.98 462.141 C 276.971 461.722 276.752 461.553 276.319 461.635 C 276.001 461.716 274.381 461.956 271.456 462.357 C 268.531 462.759 266.05 463.127 264.015 463.458 L 262.068 463.828 C 266.494 456.548 271.06 449.458 275.767 442.557 C 276.02 442.171 275.972 441.886 275.621 441.699 C 275.27 441.513 274.968 441.613 274.715 441.999 C 269.85 449.168 265.124 456.529 260.54 464.078 C 259.007 464.366 257.724 464.631 256.693 464.873 C 255.587 465.118 254.727 465.357 254.117 465.595 C 253.749 465.753 253.439 465.891 253.191 466.009 C 252.854 466.203 252.629 466.417 252.515 466.648 C 252.358 466.918 252.305 467.245 252.357 467.624 C 252.434 467.853 252.565 468.101 252.751 468.364 C 253.026 468.782 253.441 469.273 253.997 469.838 C 254.497 470.29 255.183 470.875 256.058 471.588 C 253.368 476.172 250.743 480.811 248.188 485.505 C 247.972 485.89 248.043 486.156 248.4 486.305 C 248.757 486.452 249.044 486.333 249.258 485.949 L 256.967 472.322 C 257.873 473.075 259.369 474.182 261.458 475.645 C 264.055 477.484 265.743 478.705 266.521 479.304 C 266.688 479.454 267.228 479.888 268.14 480.601 L 270.123 482.123 C 270.499 482.385 271.06 482.751 271.803 483.219 C 272.545 483.687 273.233 484.089 273.865 484.423 C 274.218 484.606 274.521 484.507 274.773 484.121 Z  M 253.703 467.089 C 253.837 466.972 254.043 466.875 254.322 466.794 C 254.932 466.557 255.753 466.316 256.784 466.073 C 257.611 465.911 258.578 465.707 259.686 465.463 L 256.77 470.373 C 256.023 469.81 255.419 469.301 254.96 468.85 C 254.429 468.361 254.058 467.944 253.847 467.603 C 253.726 467.415 253.654 467.262 253.635 467.147 L 253.645 467.09 L 253.703 467.089 Z  M 231.811 463.88 C 235.022 462.882 237.732 461.929 239.938 461.023 C 242.596 459.918 244.459 458.899 245.525 457.968 C 247.492 456.186 247.989 454.307 247.015 452.332 C 246.264 450.851 244.655 449.382 242.185 447.925 C 240.092 446.729 237.743 445.71 235.136 444.864 L 236.342 443.072 C 236.595 442.686 236.547 442.4 236.196 442.213 C 235.844 442.027 235.542 442.127 235.289 442.513 L 233.93 444.535 C 232.106 444.025 230.698 443.775 229.705 443.789 C 229.284 443.794 229.041 444.007 228.972 444.429 C 228.903 444.851 229.079 445.059 229.5 445.053 C 230.34 445.041 231.562 445.255 233.169 445.693 C 228.835 452.17 224.608 458.815 220.487 465.632 C 219.297 465.915 218.19 466.158 217.165 466.363 C 216.731 466.446 216.519 466.696 216.527 467.116 C 216.535 467.537 216.755 467.706 217.188 467.624 C 217.862 467.463 218.673 467.28 219.622 467.076 C 215.861 473.315 212.24 479.63 208.761 486.017 C 208.545 486.402 208.616 486.668 208.974 486.817 C 209.33 486.965 209.616 486.846 209.832 486.462 C 214.452 478.226 218.202 471.7 221.083 466.885 C 221.436 467.76 221.84 468.672 222.296 469.62 L 223.537 472.183 L 225.056 474.799 L 226.478 477.302 L 228.111 479.917 L 229.618 482.247 L 231.261 484.806 C 232.086 486.055 232.589 486.831 232.768 487.136 C 232.985 487.438 233.276 487.463 233.642 487.21 C 234.007 486.956 234.103 486.659 233.931 486.318 C 233.713 486.014 233.192 485.238 232.366 483.988 L 230.772 481.487 L 229.265 479.157 L 227.622 476.599 L 226.239 474.21 C 225.643 473.186 225.156 472.313 224.778 471.592 L 223.586 469.086 L 222.355 466.466 C 225.655 465.621 228.808 464.76 231.811 463.88 Z  M 241.368 449.081 C 243.671 450.388 245.153 451.707 245.814 453.035 C 246.531 454.477 246.179 455.819 244.758 457.06 C 243.856 457.913 242.139 458.853 239.61 459.879 C 237.448 460.748 234.779 461.681 231.606 462.677 C 228.598 463.596 225.427 464.459 222.093 465.266 C 226.055 458.719 230.131 452.303 234.319 446.021 C 236.97 446.827 239.319 447.847 241.368 449.081 Z  M 193.828 447.812 C 196.215 446.024 198.345 444.831 200.215 444.233 C 202.085 443.634 203.607 443.596 204.78 444.115 C 206.202 444.748 207.067 446.226 207.374 448.552 C 207.643 450.881 207.173 454 205.964 457.913 C 204.484 462.786 202.002 467.614 198.515 472.396 C 195.029 477.18 191.167 480.881 186.929 483.496 C 182.361 486.268 179.15 486.673 177.296 484.711 C 176.49 483.805 176.021 482.474 175.888 480.717 C 175.754 478.962 176.005 476.953 176.642 474.69 C 178.018 469.743 180.211 464.824 183.22 459.931 C 186.189 455.04 189.615 451.213 193.496 448.448 C 193.718 448.253 193.828 448.041 193.828 447.812 Z  M 180.837 461.565 C 178.407 465.954 176.594 470.295 175.4 474.59 C 174.74 477.005 174.479 479.187 174.62 481.133 C 174.76 483.08 175.315 484.583 176.287 485.64 C 177.278 486.811 178.751 487.308 180.705 487.129 C 182.659 486.951 184.908 486.08 187.449 484.519 C 191.852 481.825 195.87 477.99 199.501 473.013 C 203.094 468.037 205.656 463.075 207.187 458.125 C 208.427 454.02 208.897 450.661 208.6 448.047 C 208.301 445.435 207.262 443.737 205.483 442.959 C 203.703 442.18 201.441 442.372 198.699 443.534 C 195.954 444.697 192.932 446.754 189.631 449.699 C 189.447 449.893 189.356 450.105 189.357 450.334 C 186.107 453.436 183.268 457.178 180.837 461.565 Z  M 148.632 449.521 C 148.782 449.882 149.046 449.965 149.421 449.768 C 150.426 449.221 152.136 448.778 154.555 448.44 C 156.661 448.146 159.233 447.92 162.269 447.766 L 162.327 447.766 C 153.946 460.37 146.062 473.426 138.679 486.934 C 138.464 487.319 138.534 487.586 138.892 487.734 C 139.248 487.881 139.535 487.763 139.75 487.38 C 147.243 473.679 155.249 460.449 163.77 447.691 C 165.38 447.631 169.395 447.559 175.813 447.475 C 176.234 447.469 176.478 447.256 176.546 446.834 C 176.615 446.413 176.439 446.206 176.019 446.211 C 169.83 446.292 166.025 446.361 164.606 446.417 L 166.26 443.989 C 166.512 443.604 166.465 443.318 166.114 443.131 C 165.763 442.944 165.46 443.045 165.208 443.429 L 163.165 446.494 L 162.42 446.504 C 159.307 446.66 156.697 446.886 154.59 447.179 C 152.012 447.557 150.161 448.04 149.036 448.627 C 148.615 448.862 148.481 449.161 148.632 449.521 Z  M 139.545 445.629 C 139.814 445.262 139.776 444.966 139.432 444.74 C 136.056 442.761 133.197 442.645 130.854 444.394 C 129.031 445.756 127.601 448.335 126.563 452.13 C 125.87 454.509 125.245 457.879 124.688 462.243 C 124.142 466.53 123.75 469.056 123.511 469.823 C 122.132 474.542 120.244 478.406 117.848 481.419 C 116.364 483.272 114.683 484.698 112.806 485.697 C 110.928 486.696 109.113 487.187 107.362 487.172 C 105.566 487.195 104.013 486.672 102.701 485.6 C 101.388 484.528 100.525 482.926 100.11 480.79 C 100.058 480.41 99.819 480.288 99.397 480.428 C 98.975 480.567 98.805 480.847 98.889 481.266 C 99.343 483.629 100.31 485.412 101.791 486.616 C 103.266 487.857 105.036 488.465 107.099 488.437 C 109.118 488.448 111.171 487.897 113.259 486.781 C 115.346 485.665 117.183 484.102 118.768 482.094 C 121.342 478.929 123.337 474.869 124.753 469.922 C 125.005 469.079 125.407 466.494 125.959 462.169 C 126.504 457.883 127.101 454.569 127.749 452.231 C 128.731 448.778 129.999 446.488 131.556 445.36 C 133.34 444 135.713 444.178 138.674 445.897 C 138.985 446.085 139.276 445.994 139.545 445.629 Z " fill="rgb(28,47,60)"/></g><clipPath id="_clipPath_gEX0N1ZqHP2XVwLyYdlLLz0Dc7dNuuIz"><rect x="8" y="-66.437" width="464.342" height="578.437" transform="matrix(1,0,0,1,0,0)" fill="rgb(255,255,255)"/></clipPath><g clip-path="url(#_clipPath_gEX0N1ZqHP2XVwLyYdlLLz0Dc7dNuuIz)"><path d=" M 325.117 446.581 C 324.726 446.528 324.46 446.695 324.322 447.079 C 324.069 447.923 323.843 449.071 323.646 450.526 C 323.39 452.095 323.192 453.188 323.056 453.8 C 323.025 453.992 322.843 454.748 322.513 456.071 C 322.184 457.394 321.974 458.209 321.886 458.515 C 321.799 458.823 321.612 459.56 321.326 460.729 C 321.039 461.899 320.85 462.712 320.757 463.172 C 320.661 463.632 320.493 464.38 320.248 465.415 C 320.003 466.449 319.833 467.264 319.736 467.856 C 319.639 468.45 319.5 469.187 319.319 470.068 C 319.135 470.95 318.984 471.773 318.859 472.539 C 318.733 473.306 318.629 474.071 318.542 474.836 L 318.374 475.869 L 318.206 476.904 C 318.044 477.9 317.941 478.76 317.899 479.487 C 317.76 481.744 318.087 483.248 318.879 484.001 C 319.268 484.417 319.803 484.409 320.483 483.981 C 320.902 483.746 321.393 483.301 321.959 482.643 C 322.84 481.677 323.925 480.172 325.21 478.13 C 325.812 477.242 326.875 475.51 328.4 472.93 C 329.553 471.004 330.228 469.906 330.423 469.636 L 332.999 465.762 C 332.911 466.299 332.791 466.911 332.643 467.601 C 332.585 467.716 332.054 469.692 331.048 473.526 C 330.357 476.133 329.921 478.107 329.741 479.446 C 329.479 481.512 329.697 482.867 330.394 483.507 C 331.179 484.3 332.239 484.343 333.575 483.638 C 334.535 483.13 335.637 482.217 336.88 480.901 C 337.343 480.399 337.847 479.829 338.389 479.19 C 338.931 478.554 339.372 478.002 339.716 477.54 L 340.876 476.035 C 341.262 475.534 341.48 475.244 341.532 475.167 C 343.218 473.005 348.333 466.061 356.877 454.332 L 358.921 451.611 C 359.845 450.377 360.579 449.375 361.126 448.603 C 361.671 447.831 362.293 446.876 362.993 445.741 C 363.693 444.606 364.275 443.537 364.744 442.537 C 364.921 442.153 364.819 441.896 364.441 441.767 C 364.061 441.638 363.76 441.785 363.539 442.208 C 363.116 443.168 362.568 444.188 361.898 445.267 C 361.225 446.346 360.631 447.251 360.111 447.984 C 359.59 448.718 358.849 449.701 357.886 450.937 L 355.822 453.772 C 348.332 464.188 343.261 471.093 340.611 474.49 C 340.516 474.606 340.273 474.934 339.881 475.474 L 338.796 476.864 C 338.453 477.328 338.023 477.868 337.503 478.486 C 336.982 479.104 336.49 479.666 336.028 480.167 C 334.924 481.328 333.976 482.114 333.184 482.526 C 332.392 482.937 331.779 482.956 331.346 482.579 C 330.918 482.164 330.803 481.115 331.001 479.432 C 331.174 478.131 331.604 476.195 332.289 473.625 C 333.301 469.753 333.832 467.779 333.883 467.701 C 334.372 465.632 334.506 464.235 334.279 463.512 C 334.195 463.323 334.061 463.209 333.877 463.173 C 333.731 463.138 333.573 463.159 333.41 463.236 L 333.209 463.411 C 333.164 463.45 333.116 463.508 333.066 463.585 C 333.015 463.663 332.942 463.759 332.847 463.874 L 332.077 465.088 L 329.369 469.079 C 329.172 469.349 328.494 470.466 327.337 472.43 C 326.013 474.701 324.972 476.416 324.212 477.572 C 322.939 479.537 321.883 480.983 321.046 481.913 C 320.614 482.454 320.253 482.802 319.961 482.959 C 319.917 482.997 319.874 483.017 319.836 483.018 C 319.28 482.452 319.063 481.213 319.185 479.3 C 319.213 478.651 319.31 477.828 319.472 476.832 L 319.631 475.855 L 319.798 474.821 C 319.885 474.056 319.99 473.3 320.111 472.553 C 320.233 471.806 320.384 470.992 320.566 470.112 C 320.747 469.231 320.886 468.493 320.983 467.899 C 321.08 467.306 321.25 466.492 321.495 465.457 C 321.741 464.422 321.908 463.685 321.999 463.244 C 322.09 462.803 322.28 461.989 322.569 460.8 C 322.856 459.613 323.032 458.885 323.096 458.616 C 323.158 458.348 323.367 457.533 323.722 456.172 C 324.076 454.811 324.266 454.053 324.292 453.901 C 324.436 453.249 324.639 452.119 324.9 450.51 C 325.093 449.095 325.306 448.022 325.54 447.292 C 325.652 446.87 325.51 446.633 325.117 446.581 Z  M 301.273 446.405 C 303.66 444.617 305.79 443.424 307.661 442.825 C 309.53 442.228 311.052 442.189 312.225 442.708 C 313.646 443.341 314.511 444.818 314.819 447.145 C 315.088 449.473 314.618 452.593 313.409 456.506 C 311.93 461.378 309.446 466.206 305.961 470.99 C 302.476 475.773 298.613 479.473 294.376 482.089 C 289.807 484.86 286.596 485.266 284.742 483.303 C 283.936 482.398 283.467 481.068 283.333 479.311 C 283.2 477.556 283.451 475.546 284.087 473.283 C 285.464 468.336 287.657 463.416 290.665 458.523 C 293.635 453.633 297.061 449.805 300.941 447.041 C 301.164 446.847 301.273 446.635 301.273 446.405 Z  M 288.284 460.159 C 285.852 464.547 284.039 468.889 282.845 473.183 C 282.186 475.599 281.926 477.781 282.066 479.727 C 282.206 481.673 282.761 483.177 283.733 484.233 C 284.724 485.405 286.197 485.901 288.152 485.722 C 290.105 485.544 292.354 484.674 294.896 483.113 C 299.298 480.42 303.315 476.584 306.948 471.607 C 310.541 466.63 313.102 461.668 314.634 456.718 C 315.874 452.614 316.345 449.255 316.046 446.641 C 315.747 444.029 314.708 442.33 312.929 441.552 C 311.15 440.773 308.889 440.966 306.146 442.128 C 303.402 443.292 300.379 445.347 297.078 448.293 C 296.893 448.487 296.803 448.698 296.805 448.927 C 293.552 452.028 290.713 455.771 288.284 460.159 Z  M 274.773 484.121 C 275.027 483.736 274.978 483.451 274.628 483.264 C 273.989 482.967 273.31 482.575 272.589 482.087 L 270.989 481.019 C 270.612 480.757 269.968 480.269 269.055 479.554 L 267.379 478.258 C 266.836 477.846 265.147 476.625 262.315 474.599 C 260.367 473.211 258.822 472.046 257.678 471.107 L 261.212 465.213 C 262.039 465.051 262.981 464.885 264.037 464.718 C 266.15 464.386 268.613 464.01 271.426 463.59 C 274.353 463.17 275.993 462.938 276.342 462.895 C 276.776 462.814 276.987 462.562 276.98 462.141 C 276.971 461.722 276.752 461.553 276.319 461.635 C 276.001 461.716 274.381 461.956 271.456 462.357 C 268.531 462.759 266.05 463.127 264.015 463.458 L 262.068 463.828 C 266.494 456.548 271.06 449.458 275.767 442.557 C 276.02 442.171 275.972 441.886 275.621 441.699 C 275.27 441.513 274.968 441.613 274.715 441.999 C 269.85 449.168 265.124 456.529 260.54 464.078 C 259.007 464.366 257.724 464.631 256.693 464.873 C 255.587 465.118 254.727 465.357 254.117 465.595 C 253.749 465.753 253.439 465.891 253.191 466.009 C 252.854 466.203 252.629 466.417 252.515 466.648 C 252.358 466.918 252.305 467.245 252.357 467.624 C 252.434 467.853 252.565 468.101 252.751 468.364 C 253.026 468.782 253.441 469.273 253.997 469.838 C 254.497 470.29 255.183 470.875 256.058 471.588 C 253.368 476.172 250.743 480.811 248.188 485.505 C 247.972 485.89 248.043 486.156 248.4 486.305 C 248.757 486.452 249.044 486.333 249.258 485.949 L 256.967 472.322 C 257.873 473.075 259.369 474.182 261.458 475.645 C 264.055 477.484 265.743 478.705 266.521 479.304 C 266.688 479.454 267.228 479.888 268.14 480.601 L 270.123 482.123 C 270.499 482.385 271.06 482.751 271.803 483.219 C 272.545 483.687 273.233 484.089 273.865 484.423 C 274.218 484.606 274.521 484.507 274.773 484.121 Z  M 253.703 467.089 C 253.837 466.972 254.043 466.875 254.322 466.794 C 254.932 466.557 255.753 466.316 256.784 466.073 C 257.611 465.911 258.578 465.707 259.686 465.463 L 256.77 470.373 C 256.023 469.81 255.419 469.301 254.96 468.85 C 254.429 468.361 254.058 467.944 253.847 467.603 C 253.726 467.415 253.654 467.262 253.635 467.147 L 253.645 467.09 L 253.703 467.089 Z  M 231.811 463.88 C 235.022 462.882 237.732 461.929 239.938 461.023 C 242.596 459.918 244.459 458.899 245.525 457.968 C 247.492 456.186 247.989 454.307 247.015 452.332 C 246.264 450.851 244.655 449.382 242.185 447.925 C 240.092 446.729 237.743 445.71 235.136 444.864 L 236.342 443.072 C 236.595 442.686 236.547 442.4 236.196 442.213 C 235.844 442.027 235.542 442.127 235.289 442.513 L 233.93 444.535 C 232.106 444.025 230.698 443.775 229.705 443.789 C 229.284 443.794 229.041 444.007 228.972 444.429 C 228.903 444.851 229.079 445.059 229.5 445.053 C 230.34 445.041 231.562 445.255 233.169 445.693 C 228.835 452.17 224.608 458.815 220.487 465.632 C 219.297 465.915 218.19 466.158 217.165 466.363 C 216.731 466.446 216.519 466.696 216.527 467.116 C 216.535 467.537 216.755 467.706 217.188 467.624 C 217.862 467.463 218.673 467.28 219.622 467.076 C 215.861 473.315 212.24 479.63 208.761 486.017 C 208.545 486.402 208.616 486.668 208.974 486.817 C 209.33 486.965 209.616 486.846 209.832 486.462 C 214.452 478.226 218.202 471.7 221.083 466.885 C 221.436 467.76 221.84 468.672 222.296 469.62 L 223.537 472.183 L 225.056 474.799 L 226.478 477.302 L 228.111 479.917 L 229.618 482.247 L 231.261 484.806 C 232.086 486.055 232.589 486.831 232.768 487.136 C 232.985 487.438 233.276 487.463 233.642 487.21 C 234.007 486.956 234.103 486.659 233.931 486.318 C 233.713 486.014 233.192 485.238 232.366 483.988 L 230.772 481.487 L 229.265 479.157 L 227.622 476.599 L 226.239 474.21 C 225.643 473.186 225.156 472.313 224.778 471.592 L 223.586 469.086 L 222.355 466.466 C 225.655 465.621 228.808 464.76 231.811 463.88 Z  M 241.368 449.081 C 243.671 450.388 245.153 451.707 245.814 453.035 C 246.531 454.477 246.179 455.819 244.758 457.06 C 243.856 457.913 242.139 458.853 239.61 459.879 C 237.448 460.748 234.779 461.681 231.606 462.677 C 228.598 463.596 225.427 464.459 222.093 465.266 C 226.055 458.719 230.131 452.303 234.319 446.021 C 236.97 446.827 239.319 447.847 241.368 449.081 Z  M 193.828 447.812 C 196.215 446.024 198.345 444.831 200.215 444.233 C 202.085 443.634 203.607 443.596 204.78 444.115 C 206.202 444.748 207.067 446.226 207.374 448.552 C 207.643 450.881 207.173 454 205.964 457.913 C 204.484 462.786 202.002 467.614 198.515 472.396 C 195.029 477.18 191.167 480.881 186.929 483.496 C 182.361 486.268 179.15 486.673 177.296 484.711 C 176.49 483.805 176.021 482.474 175.888 480.717 C 175.754 478.962 176.005 476.953 176.642 474.69 C 178.018 469.743 180.211 464.824 183.22 459.931 C 186.189 455.04 189.615 451.213 193.496 448.448 C 193.718 448.253 193.828 448.041 193.828 447.812 Z  M 180.837 461.565 C 178.407 465.954 176.594 470.295 175.4 474.59 C 174.74 477.005 174.479 479.187 174.62 481.133 C 174.76 483.08 175.315 484.583 176.287 485.64 C 177.278 486.811 178.751 487.308 180.705 487.129 C 182.659 486.951 184.908 486.08 187.449 484.519 C 191.852 481.825 195.87 477.99 199.501 473.013 C 203.094 468.037 205.656 463.075 207.187 458.125 C 208.427 454.02 208.897 450.661 208.6 448.047 C 208.301 445.435 207.262 443.737 205.483 442.959 C 203.703 442.18 201.441 442.372 198.699 443.534 C 195.954 444.697 192.932 446.754 189.631 449.699 C 189.447 449.893 189.356 450.105 189.357 450.334 C 186.107 453.436 183.268 457.178 180.837 461.565 Z  M 148.632 449.521 C 148.782 449.882 149.046 449.965 149.421 449.768 C 150.426 449.221 152.136 448.778 154.555 448.44 C 156.661 448.146 159.233 447.92 162.269 447.766 L 162.327 447.766 C 153.946 460.37 146.062 473.426 138.679 486.934 C 138.464 487.319 138.534 487.586 138.892 487.734 C 139.248 487.881 139.535 487.763 139.75 487.38 C 147.243 473.679 155.249 460.449 163.77 447.691 C 165.38 447.631 169.395 447.559 175.813 447.475 C 176.234 447.469 176.478 447.256 176.546 446.834 C 176.615 446.413 176.439 446.206 176.019 446.211 C 169.83 446.292 166.025 446.361 164.606 446.417 L 166.26 443.989 C 166.512 443.604 166.465 443.318 166.114 443.131 C 165.763 442.944 165.46 443.045 165.208 443.429 L 163.165 446.494 L 162.42 446.504 C 159.307 446.66 156.697 446.886 154.59 447.179 C 152.012 447.557 150.161 448.04 149.036 448.627 C 148.615 448.862 148.481 449.161 148.632 449.521 Z  M 139.545 445.629 C 139.814 445.262 139.776 444.966 139.432 444.74 C 136.056 442.761 133.197 442.645 130.854 444.394 C 129.031 445.756 127.601 448.335 126.563 452.13 C 125.87 454.509 125.245 457.879 124.688 462.243 C 124.142 466.53 123.75 469.056 123.511 469.823 C 122.132 474.542 120.244 478.406 117.848 481.419 C 116.364 483.272 114.683 484.698 112.806 485.697 C 110.928 486.696 109.113 487.187 107.362 487.172 C 105.566 487.195 104.013 486.672 102.701 485.6 C 101.388 484.528 100.525 482.926 100.11 480.79 C 100.058 480.41 99.819 480.288 99.397 480.428 C 98.975 480.567 98.805 480.847 98.889 481.266 C 99.343 483.629 100.31 485.412 101.791 486.616 C 103.266 487.857 105.036 488.465 107.099 488.437 C 109.118 488.448 111.171 487.897 113.259 486.781 C 115.346 485.665 117.183 484.102 118.768 482.094 C 121.342 478.929 123.337 474.869 124.753 469.922 C 125.005 469.079 125.407 466.494 125.959 462.169 C 126.504 457.883 127.101 454.569 127.749 452.231 C 128.731 448.778 129.999 446.488 131.556 445.36 C 133.34 444 135.713 444.178 138.674 445.897 C 138.985 446.085 139.276 445.994 139.545 445.629 Z " fill="none" vector-effect="non-scaling-stroke" stroke-width="1.5" stroke="rgb(28,47,60)" stroke-linejoin="miter" stroke-linecap="butt" stroke-miterlimit="5.252"/></g><rect x="8" y="-66.437" width="464.342" height="578.437" transform="matrix(1,0,0,1,0,0)" fill="none"/><rect x="8" y="-66.437" width="464.342" height="578.437" transform="matrix(1,0,0,1,0,0)" fill="none"/><rect x="8" y="-66.437" width="464.342" height="578.437" transform="matrix(1,0,0,1,0,0)" fill="none"/><rect x="8" y="-66.437" width="464.342" height="578.437" transform="matrix(1,0,0,1,0,0)" fill="none"/><rect x="8" y="-66.437" width="464.342" height="578.437" transform="matrix(1,0,0,1,0,0)" fill="none"/><rect x="8" y="-66.437" width="464.342" height="578.437" transform="matrix(1,0,0,1,0,0)" fill="none"/></g></svg>