<?xml version="1.0" encoding="UTF-8" standalone="no"?>
<svg
   xmlns:dc="http://purl.org/dc/elements/1.1/"
   xmlns:cc="http://creativecommons.org/ns#"
   xmlns:rdf="http://www.w3.org/1999/02/22-rdf-syntax-ns#"
   xmlns:svg="http://www.w3.org/2000/svg"
   xmlns="http://www.w3.org/2000/svg"
   viewBox="0 0 1058.2667 243.01334"
   height="243.01334"
   width="1058.2667"
   xml:space="preserve"
   id="svg2"
   version="1.1"><metadata
     id="metadata8"><rdf:RDF><cc:Work
         rdf:about=""><dc:format>image/svg+xml</dc:format><dc:type
           rdf:resource="http://purl.org/dc/dcmitype/StillImage" /></cc:Work></rdf:RDF></metadata><defs
     id="defs6" /><g
     transform="matrix(1.3333333,0,0,-1.3333333,0,243.01333)"
     id="g10"><g
       transform="scale(0.1)"
       id="g12"><path
         id="path14"
         style="fill:#231f20;fill-opacity:1;fill-rule:nonzero;stroke:none"
         d="M 230.453,1087.13 H -0.00390625 V 27.0195 H 532.438 V 219.32 H 230.453 v 867.81" /><path
         id="path16"
         style="fill:#231f20;fill-opacity:1;fill-rule:nonzero;stroke:none"
         d="M 643.719,27.0195 H 1241.32 V 219.32 H 874.172 V 473.629 H 1241.32 V 667.531 H 874.172 V 893.238 H 1241.32 V 1087.13 H 643.719 V 27.0195" /><path
         id="path18"
         style="fill:#231f20;fill-opacity:1;fill-rule:nonzero;stroke:none"
         d="M 2171.13,1087.13 1997.89,553.09 c -15.9,-50.86 -31.79,-101.719 -44.5,-154.18 -11.13,54.051 -23.85,106.5 -39.73,158.961 l -165.3,529.259 H 1511.55 L 1358.96,27.0195 h 222.51 c 30.2,239.9925 63.58,478.3905 84.24,719.9805 9.53,-57.219 25.43,-112.84 42.91,-168.48 L 1889.81,27.0195 h 125.56 L 2199.74,565.82 c 20.67,58.782 34.96,120.789 52.45,181.18 1.6,-44.488 4.77,-89 9.54,-133.512 l 68.34,-586.4685 h 222.52 L 2407.95,1087.13 h -236.82" /><path
         id="path20"
         style="fill:#231f20;fill-opacity:1;fill-rule:nonzero;stroke:none"
         d="m 3140.69,201.852 c -192.32,0 -332.18,168.457 -332.18,354.429 0,189.141 141.45,356.028 336.95,356.028 190.72,0 330.59,-166.887 330.59,-351.27 0,-185.961 -143.05,-359.187 -335.36,-359.187 z m 0,910.708 c -317.88,0 -565.83,-232.048 -565.83,-553.099 0,-324.231 251.13,-559.4492812 572.19,-559.4492812 317.87,0 562.64,239.9762812 562.64,559.4492812 0,325.828 -247.95,553.099 -569,553.099" /><path
         id="path22"
         style="fill:#231f20;fill-opacity:1;fill-rule:nonzero;stroke:none"
         d="m 4528.25,502.23 c 0,-47.679 3.18,-93.769 4.78,-141.449 -17.48,31.789 -41.32,60.391 -61.99,89.008 L 4008.55,1087.13 H 3782.84 V 27.0195 H 4013.3 V 572.16 c 0,55.641 -3.17,111.25 -6.36,166.891 19.07,-31.789 39.74,-61.973 62,-92.192 L 4533.03,27.0195 h 224.09 V 1087.13 h -228.87 v -584.9" /><path
         id="path24"
         style="fill:#231f20;fill-opacity:1;fill-rule:nonzero;stroke:none"
         d="m 5194.24,435.48 c 42.93,136.68 95.38,271.782 117.64,414.817 7.93,-50.856 20.65,-101.719 36.54,-150.969 l 84.24,-263.848 z m 0,651.65 -370.3,-1060.1105 h 233.62 l 73.12,230.4605 h 365.56 l 69.93,-230.4605 h 232.05 L 5429.48,1087.13 h -235.24" /><path
         id="path26"
         style="fill:#231f20;fill-opacity:1;fill-rule:nonzero;stroke:none"
         d="m 5879.3,27.0195 h 230.47 V 1087.13 H 5879.3 V 27.0195" /><path
         id="path28"
         style="fill:#231f20;fill-opacity:1;fill-rule:nonzero;stroke:none"
         d="m 6640.62,219.32 h -100.11 v 673.918 h 103.3 c 198.66,0 314.69,-149.418 314.69,-338.558 0,-193.899 -117.62,-335.36 -317.88,-335.36 z m 316.3,802.65 c -100.14,57.23 -206.63,65.16 -319.48,65.16 H 6310.03 V 27.0195 h 319.46 c 119.21,0 241.6,19.0703 343.32,84.2425 147.82,95.347 219.33,276.547 219.33,446.609 0,176.399 -77.89,371.91 -235.22,464.099" /><path
         id="path30"
         style="fill:#231f20;fill-opacity:1;fill-rule:nonzero;stroke:none"
         d="m 7937,1415.16 h -407.34 v 407.47 h -216.73 v -407.47 h -407.42 v -216.73 h 407.42 V 791.039 h 216.73 V 1198.43 H 7937 v 216.73" /></g></g></svg>