<?xml version="1.0" standalone="no"?><!-- Generator: Gravit.io --><svg xmlns="http://www.w3.org/2000/svg" xmlns:xlink="http://www.w3.org/1999/xlink" style="isolation:isolate" viewBox="0 0 550.025 413.355" width="550.025" height="413.355"><defs><clipPath id="_clipPath_cderPn1651UP1E0WqTY1FEo3jr9lAhxh"><rect width="550.025" height="413.355"/></clipPath></defs><g clip-path="url(#_clipPath_cderPn1651UP1E0WqTY1FEo3jr9lAhxh)"><clipPath id="_clipPath_7Eb9hRJB4ne1THDti4eRRR81QKgvUnAa"><path d=" M 0 0 L 0 413.355 L 550.025 413.355 L 550.025 0 L 0 0 Z " fill="rgb(255,255,255)"/></clipPath><g clip-path="url(#_clipPath_7Eb9hRJB4ne1THDti4eRRR81QKgvUnAa)"><path d=" M 58.3 151.412 L 58.3 215.012 L 82.044 215.012 L 82.044 66.612 L 58.3 66.612 L 58.3 130.212 L 31.8 130.212 L 31.8 66.612 L 8.48 66.612 L 8.48 215.012 L 31.8 215.012 L 31.8 151.412 L 58.3 151.412 Z  M 132.5 86.116 C 140.556 86.116 144.584 90.992 144.584 100.744 L 144.584 180.88 C 144.584 190.632 140.556 195.508 132.5 195.508 C 124.444 195.508 120.416 190.632 120.416 180.88 L 120.416 100.744 C 120.416 90.992 124.444 86.116 132.5 86.116 Z  M 106.212 206.956 C 112.36 213.528 121.052 216.708 132.5 216.708 C 143.948 216.708 152.64 213.528 158.788 206.956 C 164.936 200.384 167.904 191.268 167.904 179.396 L 167.904 102.228 C 167.904 90.356 164.936 81.24 158.788 74.668 C 152.64 68.096 143.948 64.916 132.5 64.916 C 121.052 64.916 112.36 68.096 106.212 74.668 C 100.064 81.24 97.096 90.356 97.096 102.228 L 97.096 179.396 C 97.096 191.268 100.064 200.384 106.212 206.956 Z  M 182.956 66.612 L 182.956 215.012 L 206.276 215.012 L 206.276 159.256 L 217.3 159.256 C 240.408 159.256 252.068 146.96 252.068 122.58 L 252.068 103.288 C 252.068 78.908 240.408 66.612 217.3 66.612 L 182.956 66.612 Z  M 225.992 90.992 C 227.9 93.112 228.748 96.716 228.748 101.804 L 228.748 124.064 C 228.748 129.152 227.9 132.756 225.992 134.876 C 224.084 136.996 221.116 138.056 217.3 138.056 L 206.276 138.056 L 206.276 87.812 L 217.3 87.812 C 221.116 87.812 224.084 88.872 225.992 90.992 Z  M 326.48 87.812 L 326.48 66.612 L 262.88 66.612 L 262.88 215.012 L 326.48 215.012 L 326.48 193.812 L 286.2 193.812 L 286.2 150.352 L 318 150.352 L 318 129.152 L 286.2 129.152 L 286.2 87.812 L 326.48 87.812 Z " fill="rgb(55,53,53)"/></g><clipPath id="_clipPath_Y8AkrbtnJpyFEaicqGUbSlqWugjRQDKd"><path d=" M 0 0 L 0 413.355 L 550.025 413.355 L 550.025 0 L 0 0 Z " fill="rgb(255,255,255)"/></clipPath><g clip-path="url(#_clipPath_Y8AkrbtnJpyFEaicqGUbSlqWugjRQDKd)"><path d=" M 8.48 226.965 L 8.48 375.365 L 31.8 375.365 L 31.8 319.609 L 42.824 319.609 C 65.932 319.609 77.592 307.313 77.592 282.933 L 77.592 263.641 C 77.592 239.261 65.932 226.965 42.824 226.965 L 8.48 226.965 Z  M 51.516 251.345 C 53.424 253.465 54.272 257.069 54.272 262.157 L 54.272 284.417 C 54.272 289.505 53.424 293.109 51.516 295.229 C 49.608 297.349 46.64 298.409 42.824 298.409 L 31.8 298.409 L 31.8 248.165 L 42.824 248.165 C 46.64 248.165 49.608 249.225 51.516 251.345 Z " fill="rgb(55,53,53)"/></g><clipPath id="_clipPath_DNEpuYjz9pGghLM9HTafHmHOgVHBEgw6"><path d=" M 0 0 L 0 413.355 L 550.025 413.355 L 550.025 0 L 0 0 Z " fill="rgb(255,255,255)"/></clipPath><g clip-path="url(#_clipPath_DNEpuYjz9pGghLM9HTafHmHOgVHBEgw6)"><path d=" M 102.81 226.965 L 80.338 375.365 L 101.962 375.365 L 105.778 348.441 L 134.398 348.441 L 138.426 375.365 L 160.686 375.365 L 138.214 226.965 L 102.81 226.965 Z  M 131.43 328.301 L 108.958 328.301 L 119.982 253.041 L 131.43 328.301 Z  M 176.531 283.781 C 179.711 290.353 183.315 295.653 187.979 300.105 L 201.335 312.401 C 205.787 316.429 209.603 320.881 212.783 325.757 C 215.963 330.633 217.447 335.721 217.447 341.445 C 217.447 350.985 213.419 355.861 205.363 355.861 C 197.731 355.861 193.915 350.985 193.915 341.445 L 193.915 330.845 L 171.231 330.845 L 171.231 339.961 C 171.231 351.833 174.199 361.161 180.347 367.521 C 186.495 373.881 195.187 377.061 206.211 377.061 C 217.447 377.061 225.927 373.881 231.863 367.521 C 237.799 361.161 240.767 351.833 240.767 339.961 C 240.767 334.025 239.919 328.725 238.223 323.637 C 236.527 318.761 234.407 314.521 231.651 310.917 C 228.895 307.101 225.927 303.921 222.747 300.741 C 219.567 297.773 216.175 294.593 213.207 291.625 C 210.027 288.657 207.059 285.689 204.303 282.721 C 201.547 279.753 199.427 276.361 197.731 272.757 C 196.035 268.941 195.187 265.125 195.187 261.097 C 195.187 251.345 199.003 246.469 206.847 246.469 C 214.691 246.469 218.507 251.345 218.507 261.097 L 218.507 267.245 L 240.555 267.245 L 240.555 262.581 C 240.555 250.497 237.587 241.381 231.863 234.809 C 226.139 228.449 217.659 225.269 206.423 225.269 C 195.399 225.269 186.707 228.449 180.771 234.809 C 174.835 241.381 171.867 250.497 171.867 262.581 C 171.867 270.425 173.351 277.421 176.531 283.781 Z  M 257.84 283.781 C 261.02 290.353 264.624 295.653 269.289 300.105 L 282.645 312.401 C 287.097 316.429 290.912 320.881 294.093 325.757 C 297.273 330.633 298.756 335.721 298.756 341.445 C 298.756 350.985 294.729 355.861 286.672 355.861 C 279.04 355.861 275.225 350.985 275.225 341.445 L 275.225 330.845 L 252.54 330.845 L 252.54 339.961 C 252.54 351.833 255.508 361.161 261.657 367.521 C 267.804 373.881 276.496 377.061 287.52 377.061 C 298.756 377.061 307.237 373.881 313.172 367.521 C 319.109 361.161 322.076 351.833 322.076 339.961 C 322.076 334.025 321.228 328.725 319.532 323.637 C 317.837 318.761 315.717 314.521 312.96 310.917 C 310.205 307.101 307.237 303.921 304.057 300.741 C 300.876 297.773 297.484 294.593 294.516 291.625 C 291.337 288.657 288.369 285.689 285.612 282.721 C 282.857 279.753 280.737 276.361 279.04 272.757 C 277.345 268.941 276.496 265.125 276.496 261.097 C 276.496 251.345 280.313 246.469 288.157 246.469 C 296.001 246.469 299.816 251.345 299.816 261.097 L 299.816 267.245 L 321.864 267.245 L 321.864 262.581 C 321.864 250.497 318.896 241.381 313.172 234.809 C 307.448 228.449 298.968 225.269 287.732 225.269 C 276.708 225.269 268.016 228.449 262.08 234.809 C 256.145 241.381 253.176 250.497 253.176 262.581 C 253.176 270.425 254.66 277.421 257.84 283.781 Z  M 360.774 375.365 L 360.774 226.965 L 337.454 226.965 L 337.454 375.365 L 360.774 375.365 Z  M 413.338 246.469 C 421.394 246.469 425.422 251.345 425.422 261.097 L 425.422 341.233 C 425.422 350.985 421.394 355.861 413.338 355.861 C 405.282 355.861 401.254 350.985 401.254 341.233 L 401.254 261.097 C 401.254 251.345 405.282 246.469 413.338 246.469 Z  M 387.05 367.309 C 393.198 373.881 401.89 377.061 413.338 377.061 C 424.786 377.061 433.478 373.881 439.626 367.309 C 445.774 360.737 448.742 351.621 448.742 339.749 L 448.742 262.581 C 448.742 250.709 445.774 241.593 439.626 235.021 C 433.478 228.449 424.786 225.269 413.338 225.269 C 401.89 225.269 393.198 228.449 387.05 235.021 C 380.902 241.593 377.934 250.709 377.934 262.581 L 377.934 339.749 C 377.934 351.621 380.902 360.737 387.05 367.309 Z  M 539.901 375.365 L 539.901 226.965 L 518.913 226.965 L 518.913 316.005 L 494.957 226.965 L 465.701 226.965 L 465.701 375.365 L 486.689 375.365 L 486.689 267.669 L 515.733 375.365 L 539.901 375.365 Z " fill="rgb(55,53,53)"/></g><clipPath id="_clipPath_CEikuIMikjrigaVpE3tGZ4MxIalfIgc6"><path d=" M 0 0 L 0 413.355 L 550.025 413.355 L 550.025 0 L 0 0 Z " fill="rgb(255,255,255)"/></clipPath><g clip-path="url(#_clipPath_CEikuIMikjrigaVpE3tGZ4MxIalfIgc6)"><path d=" M 343.76 170.138 L 336.976 214.938 L 343.504 214.938 L 344.656 206.81 L 353.296 206.81 L 354.512 214.938 L 361.232 214.938 L 354.448 170.138 L 343.76 170.138 Z  M 352.4 200.73 L 345.616 200.73 L 348.944 178.01 L 352.4 200.73 Z  M 387.216 214.938 L 387.216 170.138 L 380.88 170.138 L 380.88 197.018 L 373.648 170.138 L 364.816 170.138 L 364.816 214.938 L 371.152 214.938 L 371.152 182.426 L 379.92 214.938 L 387.216 214.938 Z  M 403.344 214.938 C 410.32 214.938 413.84 211.226 413.84 203.866 L 413.84 181.21 C 413.84 173.85 410.32 170.138 403.344 170.138 L 392.208 170.138 L 392.208 214.938 L 403.344 214.938 Z  M 406.8 180.89 L 406.8 204.186 C 406.8 207.066 405.584 208.538 403.216 208.538 L 399.248 208.538 L 399.248 176.538 L 403.216 176.538 C 405.584 176.538 406.8 178.01 406.8 180.89 Z " fill="rgb(55,53,53)"/></g><clipPath id="_clipPath_3N7QhPu6ERv9fGTtSTJPMWUPaFnDAVQ3"><path d=" M 0 0 L 0 413.355 L 550.025 413.355 L 550.025 0 L 0 0 Z " fill="rgb(255,255,255)"/></clipPath><g clip-path="url(#_clipPath_3N7QhPu6ERv9fGTtSTJPMWUPaFnDAVQ3)"><path d=" M 30.929 54.406 L 30.929 9.606 L 24.593 9.606 L 24.593 36.486 L 17.361 9.606 L 8.529 9.606 L 8.529 54.406 L 14.865 54.406 L 14.865 21.894 L 23.633 54.406 L 30.929 54.406 Z  M 46.033 15.494 C 48.465 15.494 49.681 16.966 49.681 19.91 L 49.681 44.102 C 49.681 47.046 48.465 48.518 46.033 48.518 C 43.601 48.518 42.385 47.046 42.385 44.102 L 42.385 19.91 C 42.385 16.966 43.601 15.494 46.033 15.494 Z  M 38.097 51.974 C 39.953 53.958 42.577 54.918 46.033 54.918 C 49.489 54.918 52.113 53.958 53.969 51.974 C 55.825 49.99 56.721 47.238 56.721 43.654 L 56.721 20.358 C 56.721 16.774 55.825 14.022 53.969 12.038 C 52.113 10.054 49.489 9.094 46.033 9.094 C 42.577 9.094 39.953 10.054 38.097 12.038 C 36.241 14.022 35.345 16.774 35.345 20.358 L 35.345 43.654 C 35.345 47.238 36.241 49.99 38.097 51.974 Z  M 66.577 16.006 L 66.577 54.406 L 73.617 54.406 L 73.617 16.006 L 80.977 16.006 L 80.977 9.606 L 59.217 9.606 L 59.217 16.006 L 66.577 16.006 Z  M 99.089 35.206 L 99.089 54.406 L 106.257 54.406 L 106.257 9.606 L 99.089 9.606 L 99.089 28.806 L 91.089 28.806 L 91.089 9.606 L 84.049 9.606 L 84.049 54.406 L 91.089 54.406 L 91.089 35.206 L 99.089 35.206 Z  M 118.417 54.406 L 118.417 9.606 L 111.377 9.606 L 111.377 54.406 L 118.417 54.406 Z  M 145.873 54.406 L 145.873 9.606 L 139.537 9.606 L 139.537 36.486 L 132.305 9.606 L 123.473 9.606 L 123.473 54.406 L 129.809 54.406 L 129.809 21.894 L 138.577 54.406 L 145.873 54.406 Z  M 164.625 35.846 L 164.625 44.102 C 164.625 47.046 163.409 48.518 160.977 48.518 C 158.545 48.518 157.329 47.046 157.329 44.166 L 157.329 19.91 C 157.329 16.966 158.545 15.494 160.977 15.494 C 163.409 15.494 164.625 16.966 164.625 19.91 L 164.625 24.71 L 171.281 24.71 L 171.281 20.358 C 171.281 16.71 170.385 13.958 168.593 11.974 C 166.801 10.054 164.177 9.094 160.785 9.094 C 157.393 9.094 154.769 10.054 152.977 11.974 C 151.185 13.958 150.289 16.71 150.289 20.358 L 150.289 43.654 C 150.289 47.302 151.185 50.054 152.977 52.038 C 154.769 53.958 157.393 54.918 160.785 54.918 C 164.177 54.918 166.801 53.958 168.593 52.038 C 170.385 50.054 171.281 47.302 171.281 43.654 L 171.281 29.446 L 161.425 29.446 L 161.425 35.846 L 164.625 35.846 Z  M 185.745 9.606 L 185.745 54.406 L 196.817 54.406 C 200.337 54.406 202.961 53.51 204.817 51.718 C 206.609 49.862 207.505 47.238 207.505 43.782 L 207.505 40.134 C 207.505 35.078 205.777 31.878 202.257 30.534 C 205.265 29.126 206.801 26.118 206.801 21.51 L 206.801 19.91 C 206.801 16.39 205.969 13.83 204.305 12.166 C 202.641 10.438 200.017 9.606 196.369 9.606 L 185.745 9.606 Z  M 199.441 35.462 C 200.145 36.23 200.465 37.638 200.465 39.686 L 200.465 43.59 C 200.465 45.254 200.145 46.342 199.569 47.046 C 198.929 47.686 198.033 48.006 196.817 48.006 L 192.785 48.006 L 192.785 34.246 L 195.921 34.246 C 197.585 34.246 198.737 34.63 199.441 35.462 Z  M 199.761 20.614 L 199.761 23.11 C 199.761 24.838 199.441 26.054 198.737 26.758 C 198.033 27.462 196.945 27.846 195.537 27.846 L 192.785 27.846 L 192.785 16.006 L 196.177 16.006 C 198.609 16.006 199.761 17.542 199.761 20.614 Z  M 211.409 43.718 C 211.409 47.366 212.305 50.118 214.097 52.102 C 215.889 54.022 218.513 54.982 221.905 54.982 C 225.297 54.982 227.921 54.022 229.713 52.102 C 231.505 50.118 232.401 47.366 232.401 43.718 L 232.401 9.606 L 225.745 9.606 L 225.745 44.23 C 225.745 47.11 224.529 48.582 222.097 48.582 C 219.665 48.582 218.449 47.11 218.449 44.23 L 218.449 9.606 L 211.409 9.606 L 211.409 43.718 Z  M 242.513 16.006 L 242.513 54.406 L 249.553 54.406 L 249.553 16.006 L 256.913 16.006 L 256.913 9.606 L 235.153 9.606 L 235.153 16.006 L 242.513 16.006 Z " fill="rgb(55,53,53)"/></g></g></svg>