<?xml version="1.0" encoding="UTF-8" standalone="no"?>
<svg
   xmlns:dc="http://purl.org/dc/elements/1.1/"
   xmlns:cc="http://creativecommons.org/ns#"
   xmlns:rdf="http://www.w3.org/1999/02/22-rdf-syntax-ns#"
   xmlns:svg="http://www.w3.org/2000/svg"
   xmlns="http://www.w3.org/2000/svg"
   viewBox="0 0 909.48749 135.9875"
   height="135.9875"
   width="909.48749"
   xml:space="preserve"
   version="1.1"
   id="svg2"><metadata
     id="metadata8"><rdf:RDF><cc:Work
         rdf:about=""><dc:format>image/svg+xml</dc:format><dc:type
           rdf:resource="http://purl.org/dc/dcmitype/StillImage" /></cc:Work></rdf:RDF></metadata><defs
     id="defs6" /><g
     transform="matrix(1.25,0,0,-1.25,0,135.9875)"
     id="g10"><g
       transform="scale(0.1,0.1)"
       id="g12"><path
         id="path14"
         style="fill:#f09100;fill-opacity:1;fill-rule:nonzero;stroke:none"
         d="m 4186.99,637.16 0,-376.64 C 4186.99,73.6836 4083.71,0.753906 3928.57,0.753906 l -662.36,0 c -145.9,0 -263.5,92.831994 -263.5,265.613094 l 0,283.039 c 0,160.754 115.77,271.567 267.64,271.567 l 279.78,0.023 c 187.82,0 265.62,-152.402 265.62,-257.523 l 0,-233.297 -632.29,0 0,-63.809 c 0,-55.984 36.28,-79.676 82.75,-79.676 l 662.36,0 c 75.56,0 72.52,23.551 72.52,73.829 l 0,376.64 185.9,0 z m -1003.53,-85.672 0,-56.058 451.52,0 0,70.129 c 0,38.171 -36.07,76.82 -84.73,76.82 l -279.9,-0.094 c -43.49,0 -86.89,-37.359 -86.89,-90.797 z m 2414.49,-64.906 c 163.89,-29.539 277.79,-91.992 277.79,-242.352 0,-162.3042 -113.2,-242.355 -277.7,-242.1675 l -858.04,0 0,544.0235 c 0,58.488 -31.05,91.074 -92.98,91.074 l -460.03,0 0,185.899 460.03,0 c 185.76,0 278.96,-118.137 278.96,-276.973 l 0,-357.238 670.51,0 c 78.89,0 94.61,19.894 94.61,48.359 0,30.852 -35.58,52.148 -93.15,60.625 l -238.29,40.488 c -159.49,33.43 -277.74,92.18 -277.74,242.59 0,162.328 113.24,242.149 277.74,242.149 l 440.29,0 0,-185.899 -440.29,0 c -78.84,0 -93.15,-20.742 -93.15,-49.199 0,-30.856 39.78,-48.574 93.15,-59.719 l 238.29,-41.66 z m -1410.96,336.477 -188.06,0 0,204.221 188.06,0 0,-204.221" /><path
         id="path16"
         style="fill:#f09100;fill-opacity:1;fill-rule:nonzero;stroke:none"
         d="m 6741.41,780.031 c 0,-24.902 -2.15,-49.101 -3.89,-63.972 -21.48,-5.825 -69.51,-15.727 -154.38,-15.891 -37.32,-0.094 -81.42,2.738 -133.28,7.137 l 0,152.008 c 143.52,21.531 246.89,-2.504 286.69,-15.172 1.77,-14.746 4.86,-39.18 4.86,-64.11 l 0,0 z m 67.6,2.903 c 0,90.445 -16.34,110.879 -16.34,110.879 0,0 -75.84,41.593 -230.93,41.593 -33.28,-0.234 -72.19,-2.574 -111.88,-7.961 l 0,142.805 -67.13,0 0,-424.223 c 0,0 107.48,-13.316 199.32,-13.316 167.69,0 211.14,34.922 211.14,34.922 0,0 15.82,22.262 15.82,115.301 l 0,0" /><path
         id="path18"
         style="fill:#f09100;fill-opacity:1;fill-rule:nonzero;stroke:none"
         d="m 7208.14,780.031 c 0,-24.902 -1.96,-49.101 -3.74,-63.972 -21.58,-5.825 -69.66,-15.727 -154.48,-15.891 -37.17,-0.094 -81.46,2.738 -133.15,7.137 l 0,152.008 c 143.49,21.531 246.62,-2.504 286.69,-15.172 1.69,-14.746 4.68,-39.18 4.68,-64.11 l 0,0 z m 67.74,2.903 c 0,90.445 -16.29,110.879 -16.29,110.879 0,0 -75.97,41.593 -230.84,41.593 -33.42,-0.234 -72.32,-2.574 -111.98,-7.961 l 0,142.805 -67.31,0 0,-424.223 c 0,0 107.48,-13.316 199.52,-13.316 167.68,0 211.12,34.922 211.12,34.922 0,0 15.78,22.262 15.78,115.301 l 0,0" /><path
         id="path20"
         style="fill:#f09100;fill-opacity:1;fill-rule:nonzero;stroke:none"
         d="m 6338.44,934.098 c -258.87,-1.332 -361.86,-62.36 -361.86,-62.36 l 0,-234.629 68.76,0 0,190.348 c 32.45,10.836 123.64,37.051 293.1,39.297 l 0,67.344" /><path
         id="path22"
         style="fill:#645550;fill-opacity:1;fill-rule:nonzero;stroke:none"
         d="m 1661.76,350.82 c 0,-130.234 -59.87,-205.32 -165.44,-205.32 -104.25,0 -165.65,58.145 -165.65,220.488 l 0,108.797 c 0,162.492 61.4,220.563 165.65,220.563 105.57,0 165.44,-74.903 165.44,-205.297 l 0,-139.231 z m 0,737.13 0,-340.571 c -39.83,58.187 -119.58,93.465 -202.28,93.465 -186.67,0 -286.52,-122.531 -286.52,-359.977 l 0,-120.867 c 0,-237.441 99.85,-360 286.52,-360 82.7,0 162.45,35.3906 202.28,93.4375 l 0,-76.5312 157.65,0 0,1071.0437 -157.65,0" /><path
         id="path24"
         style="fill:#645550;fill-opacity:1;fill-rule:nonzero;stroke:none"
         d="m 2710.08,365.988 c 0,-162.343 -61.35,-220.488 -165.55,-220.488 l -0.66,0 c -104.23,0 -165.67,58.145 -165.67,220.488 l 0,108.797 c 0,162.492 61.44,220.563 165.67,220.563 l 0.66,0 c 104.2,0 165.55,-58.071 165.55,-220.563 l 0,-108.797 z m -128.71,474.832 -74.34,0 c -186.83,0 -286.57,-122.507 -286.57,-359.953 l 0,-120.867 c 0,-237.441 99.74,-360 286.57,-360 l 74.34,0 c 186.69,0 286.5,122.559 286.5,360 l 0,120.867 c 0,237.446 -99.81,359.953 -286.5,359.953" /><path
         id="path26"
         style="fill:#645550;fill-opacity:1;fill-rule:nonzero;stroke:none"
         d="m 1951.26,1087.95 0,-143.368 157.83,0 0,143.368 -157.83,0 z m 0,-1071.0437 157.83,0 0,804.0667 -157.83,0 0,-804.0667" /><path
         id="path28"
         style="fill:#645550;fill-opacity:1;fill-rule:nonzero;stroke:none"
         d="m 341.086,822.004 c -79.516,0 -146.715,-39.606 -183.512,-93.352 l 0,92.766 -157.574,0 0,-803.4883 157.574,0 0,442.9493 c 0,136.23 58.281,205.82 157.555,205.82 -0.211,-0.215 119.019,-0.215 119.019,-0.215 l 0,155.52 c 0,0 -93.019,-0.117 -93.062,0" /><path
         id="path30"
         style="fill:#645550;fill-opacity:1;fill-rule:nonzero;stroke:none"
         d="M 917.289,245.07 C 880.586,194.563 807.156,142.414 722.895,142.414 c -104.11,0 -154.696,53.691 -154.696,133.27 0,73.457 64.344,119.472 165.391,119.472 85.832,0 140.82,-13.906 183.699,-35.156 l 0,-114.93 z m -146.949,576.203 -236.945,0 0,-155.3 232.429,0 c 97.91,0 151.465,-48.989 151.465,-136.207 l 0,-28.953 C 872.91,520.684 813.266,531.359 738.203,531.359 555.934,531.359 418.16,450.352 418.16,271.055 418.16,73.5938 566.746,0.0976563 696.938,0.0976563 c 87.238,0 165.324,41.2890437 220.351,96.3867437 l 0,-79.5781 154.721,0 0,534.8637 c 0,182.335 -122.42,269.503 -301.67,269.503" /></g></g></svg>