<?xml version="1.0" encoding="utf-8"?>
<!-- Generator: Adobe Illustrator 16.0.0, SVG Export Plug-In . SVG Version: 6.00 Build 0)  -->
<!DOCTYPE svg PUBLIC "-//W3C//DTD SVG 1.1//EN" "http://www.w3.org/Graphics/SVG/1.1/DTD/svg11.dtd">
<svg version="1.1" id="Ebene_1" xmlns="http://www.w3.org/2000/svg" xmlns:xlink="http://www.w3.org/1999/xlink" x="0px" y="0px"
	 width="64.136px" height="41.885px" viewBox="0 0 64.136 41.885" enable-background="new 0 0 64.136 41.885" xml:space="preserve">
<g>
	<g>
		<defs>
			<rect id="SVGID_1_" x="-24.875" y="-9.551" width="137.341" height="70.221"/>
		</defs>
		<clipPath id="SVGID_2_">
			<use xlink:href="#SVGID_1_"  overflow="visible"/>
		</clipPath>
		<path clip-path="url(#SVGID_2_)" fill="none" stroke="#182C3A" stroke-width="1.552" stroke-miterlimit="7.483" d="M31.37,14.672
			c0.291,0.16,0.545,0.08,0.762-0.24c0.395-0.608,0.685-1.072,0.87-1.392l0.812-1.344c0.401-0.64,0.696-1.184,0.889-1.632
			c0.189-0.448,0.392-0.96,0.605-1.536c0.214-0.576,0.369-1.135,0.465-1.68c0.096-0.544,0.124-1.072,0.087-1.584
			c-0.104-1.408-0.76-2.224-1.968-2.448c-0.932-0.16-2.169,0.048-3.71,0.624c-1.136,0.449-2.312,1.04-3.53,1.776
			c-1.218,0.737-2.161,1.376-2.834,1.92c-1.759,1.44-3.927,3.488-6.507,6.144c-2.511,2.624-4.934,5.393-7.272,8.304
			c-2.673,3.36-4.755,6.369-6.247,9.024c-1.742,3.168-2.597,5.744-2.563,7.729c0.057,1.855,1.511,2.592,4.363,2.208
			c2.302-0.353,4.951-1.313,7.948-2.881c3.066-1.6,5.289-3.231,6.671-4.896c0.809-0.96,1.22-1.84,1.233-2.64
			c0.029-0.896-0.435-1.616-1.395-2.16c-0.85-0.448-2.05-0.721-3.601-0.816l-1.807-0.096c-0.794-0.032-1.378-0.079-1.75-0.145
			c-0.347-0.031-0.573,0.121-0.681,0.457c-0.107,0.336-0.006,0.535,0.303,0.6c0.5,0.064,1.132,0.111,1.894,0.144
			c0.128,0,0.318,0.009,0.572,0.024c0.253,0.016,0.476,0.023,0.668,0.023c0.192,0,0.381,0.018,0.567,0.049
			c1.397,0.063,2.458,0.304,3.185,0.72c0.674,0.353,1.008,0.815,1.003,1.392c-0.027,0.513-0.345,1.136-0.954,1.872
			c-1.296,1.536-3.388,3.056-6.276,4.561c-2.89,1.504-5.415,2.399-7.578,2.688c-2.169,0.319-3.261-0.112-3.276-1.296
			c-0.036-1.792,0.768-4.176,2.413-7.152c1.454-2.623,3.481-5.583,6.078-8.88c2.288-2.816,4.696-5.536,7.223-8.16
			s4.667-4.639,6.418-6.048c0.597-0.48,1.469-1.072,2.617-1.776c1.147-0.703,2.273-1.28,3.376-1.728
			c1.307-0.511,2.329-0.688,3.069-0.528c0.777,0.128,1.191,0.689,1.24,1.68c0.054,0.416,0.04,0.864-0.045,1.344
			s-0.22,0.977-0.406,1.488c-0.187,0.512-0.373,0.976-0.558,1.392c-0.187,0.416-0.454,0.896-0.807,1.44l-0.812,1.344
			c-0.19,0.352-0.479,0.816-0.869,1.392C31.04,14.272,31.078,14.513,31.37,14.672z"/>
		<path clip-path="url(#SVGID_2_)" fill="none" stroke="#182C3A" stroke-width="1.552" stroke-miterlimit="7.483" d="M50.61,5.457
			c2.02-1.472,3.816-2.448,5.389-2.928s2.848-0.496,3.824-0.048c1.184,0.544,1.893,1.792,2.123,3.744
			c0.2,1.952-0.228,4.56-1.282,7.824c-1.293,4.064-3.426,8.08-6.396,12.048c-2.973,3.968-6.248,7.023-9.825,9.168
			c-3.856,2.271-6.55,2.575-8.081,0.912c-0.665-0.769-1.043-1.889-1.135-3.36c-0.093-1.472,0.139-3.15,0.696-5.04
			c1.208-4.128,3.098-8.224,5.671-12.288c2.54-4.064,5.451-7.232,8.732-9.504C50.514,5.825,50.608,5.648,50.61,5.457z
			 M39.581,16.833c-2.083,3.648-3.649,7.264-4.697,10.848c-0.579,2.016-0.821,3.84-0.725,5.472s0.546,2.896,1.348,3.792
			c0.815,0.992,2.044,1.423,3.683,1.296c1.639-0.128,3.531-0.832,5.678-2.111c3.717-2.208,7.122-5.376,10.219-9.504
			c3.063-4.128,5.264-8.256,6.6-12.384c1.084-3.424,1.514-6.232,1.293-8.424s-1.073-3.624-2.554-4.296
			c-1.482-0.672-3.378-0.536-5.688,0.408c-2.311,0.944-4.863,2.633-7.66,5.064c-0.156,0.16-0.235,0.336-0.237,0.528
			C44.083,10.081,41.664,13.185,39.581,16.833z"/>
	</g>
	<g>
		<path fill="#182C3A" d="M31.256,13.953c0.391-0.576,0.68-1.04,0.87-1.393l0.813-1.343c0.352-0.543,0.619-1.024,0.805-1.44
			s0.372-0.88,0.559-1.393c0.186-0.512,0.321-1.008,0.406-1.488c0.084-0.48,0.099-0.928,0.045-1.343
			c-0.05-0.992-0.464-1.552-1.24-1.68c-0.74-0.16-1.764,0.016-3.069,0.528c-1.104,0.448-2.229,1.024-3.376,1.727
			c-1.148,0.705-2.021,1.296-2.617,1.776c-1.753,1.409-3.893,3.425-6.418,6.048c-2.527,2.624-4.935,5.344-7.223,8.16
			c-2.597,3.296-4.624,6.256-6.077,8.88c-1.646,2.976-2.449,5.36-2.414,7.152c0.015,1.183,1.108,1.614,3.275,1.295
			c2.163-0.287,4.689-1.184,7.579-2.688c2.888-1.503,4.98-3.023,6.275-4.56c0.61-0.735,0.927-1.36,0.954-1.873
			c0.006-0.576-0.328-1.039-1.002-1.391c-0.727-0.416-1.789-0.656-3.185-0.721c-0.187-0.031-0.376-0.049-0.568-0.049
			c-0.192,0-0.415-0.007-0.667-0.023c-0.254-0.016-0.445-0.023-0.572-0.023c-0.763-0.031-1.395-0.08-1.895-0.145
			c-0.309-0.064-0.41-0.264-0.303-0.6c0.107-0.336,0.333-0.487,0.68-0.455c0.374,0.064,0.957,0.111,1.751,0.143l1.807,0.096
			c1.551,0.097,2.75,0.369,3.601,0.816c0.959,0.545,1.425,1.264,1.395,2.16c-0.014,0.801-0.424,1.68-1.233,2.641
			c-1.382,1.664-3.605,3.296-6.672,4.896c-2.996,1.567-5.646,2.528-7.947,2.88c-2.852,0.384-4.306-0.352-4.362-2.208
			c-0.034-1.983,0.82-4.56,2.562-7.728c1.492-2.656,3.574-5.665,6.247-9.024c2.337-2.912,4.761-5.68,7.273-8.305
			c2.58-2.655,4.748-4.704,6.507-6.144c0.672-0.544,1.616-1.184,2.835-1.92c1.217-0.736,2.394-1.327,3.529-1.776
			c1.542-0.575,2.777-0.783,3.709-0.623c1.209,0.224,1.864,1.04,1.969,2.448c0.038,0.512,0.009,1.041-0.087,1.584
			c-0.096,0.544-0.251,1.104-0.464,1.68c-0.215,0.576-0.417,1.088-0.606,1.536c-0.192,0.448-0.488,0.993-0.889,1.632l-0.813,1.345
			c-0.185,0.32-0.474,0.784-0.869,1.392c-0.217,0.32-0.471,0.4-0.762,0.239C31.078,14.513,31.04,14.273,31.256,13.953z"/>
		<path fill="#182C3A" d="M46.838,7.521c0.002-0.192,0.081-0.367,0.237-0.528c2.796-2.431,5.351-4.12,7.661-5.064
			c2.31-0.943,4.206-1.08,5.688-0.408s2.333,2.104,2.556,4.296c0.221,2.193-0.21,5-1.294,8.424c-1.337,4.129-3.536,8.256-6.6,12.384
			c-3.097,4.128-6.503,7.296-10.221,9.504c-2.146,1.28-4.038,1.983-5.676,2.111c-1.639,0.128-2.867-0.304-3.684-1.295
			c-0.802-0.896-1.251-2.16-1.347-3.792c-0.097-1.632,0.146-3.456,0.725-5.473c1.047-3.583,2.613-7.199,4.697-10.848
			C41.663,13.185,44.083,10.081,46.838,7.521z M50.325,5.985c-3.28,2.272-6.191,5.44-8.732,9.504
			c-2.573,4.064-4.462,8.16-5.671,12.288c-0.557,1.889-0.789,3.567-0.696,5.04c0.093,1.472,0.471,2.592,1.136,3.359
			c1.53,1.664,4.224,1.36,8.08-0.912c3.578-2.144,6.853-5.2,9.825-9.168c2.972-3.967,5.104-7.983,6.396-12.047
			c1.056-3.264,1.482-5.872,1.284-7.825c-0.232-1.951-0.94-3.2-2.124-3.744c-0.978-0.447-2.252-0.432-3.825,0.048
			c-1.572,0.48-3.369,1.457-5.389,2.929C50.607,5.649,50.513,5.826,50.325,5.985z"/>
	</g>
</g>
</svg>
