<?xml version="1.0" encoding="utf-8"?>
<!-- Generator: Adobe Illustrator 16.0.0, SVG Export Plug-In . SVG Version: 6.00 Build 0)  -->
<!DOCTYPE svg PUBLIC "-//W3C//DTD SVG 1.1//EN" "http://www.w3.org/Graphics/SVG/1.1/DTD/svg11.dtd">
<svg version="1.1" id="Ebene_1" xmlns="http://www.w3.org/2000/svg" xmlns:xlink="http://www.w3.org/1999/xlink" x="0px" y="0px"
	 width="485px" height="122px" viewBox="0 0 485 122" enable-background="new 0 0 485 122" xml:space="preserve">
<g>
	<g>
		<polygon fill="#FFFFFF" points="23.27,33.776 0,122 459.958,87.84 485,0 		"/>
		<g>
			<g>
				<defs>
					<rect id="SVGID_1_" width="508.444" height="122"/>
				</defs>
				<clipPath id="SVGID_2_">
					<use xlink:href="#SVGID_1_"  overflow="visible"/>
				</clipPath>
				<path clip-path="url(#SVGID_2_)" fill="none" stroke="#1C2F3C" stroke-width="1.552" stroke-miterlimit="7.483" d="
					M40.507,101.159c0.436-0.07,0.657-0.322,0.664-0.759c0.074-3.674,2.724-9.975,7.95-18.901
					c4.178-7.117,8.226-13.183,12.143-18.19c0.177-0.209,0.627-0.771,1.347-1.69l1.627-2.127l1.465-1.699
					c0.581-0.711,1.132-1.312,1.651-1.804c0.519-0.488,1.008-0.888,1.47-1.196c1.218-0.834,2.154-1.019,2.806-0.553
					c0.985,0.643,1.639,2.393,1.962,5.249c0.553,4.382-0.081,9.674-1.902,15.875c-1.822,6.205-4.234,11.168-7.236,14.89
					c-1.076,1.338-2.488,2.532-4.235,3.581c-1.747,1.049-3.519,1.773-5.315,2.176c-1.918,0.451-3.603,0.439-5.054-0.031
					c-1.451-0.47-2.49-1.433-3.116-2.889c-0.155-0.383-0.439-0.462-0.852-0.236c-0.414,0.228-0.544,0.531-0.389,0.914
					c0.75,1.764,1.984,2.91,3.702,3.441c1.717,0.53,3.633,0.562,5.748,0.102c1.996-0.457,3.941-1.252,5.834-2.392
					s3.443-2.44,4.65-3.905c3.136-3.889,5.635-9.035,7.498-15.438c1.861-6.403,2.524-11.875,1.988-16.414
					c-0.404-3.207-1.205-5.223-2.405-6.047c-1.125-0.789-2.549-0.591-4.271,0.595c-0.509,0.391-1.044,0.843-1.604,1.354
					c-0.561,0.513-1.174,1.158-1.841,1.935c-0.666,0.776-1.179,1.395-1.539,1.854l-1.627,2.126c-0.76,0.92-1.208,1.485-1.347,1.692
					c-3.961,5.051-8.052,11.156-12.273,18.316c-5.33,9.172-8.043,15.714-8.143,19.627C39.857,101.046,40.071,101.229,40.507,101.159
					z"/>
			</g>
			<g>
				<defs>
					<rect id="SVGID_3_" width="508.444" height="122"/>
				</defs>
				<clipPath id="SVGID_4_">
					<use xlink:href="#SVGID_3_"  overflow="visible"/>
				</clipPath>
				<path clip-path="url(#SVGID_4_)" fill="none" stroke="#1C2F3C" stroke-width="1.552" stroke-miterlimit="7.483" d="
					M115.09,61.262c0.004-0.039,0.053-0.143,0.149-0.307l1.321-3.11c0.815-2.188,1.125-3.847,0.932-4.979
					c-0.147-0.817-0.536-1.392-1.163-1.723c-0.629-0.331-1.461-0.381-2.498-0.151c-1.317,0.29-2.699,0.83-4.146,1.621
					c-1.448,0.792-2.639,1.556-3.573,2.292c-0.936,0.737-2.046,1.663-3.332,2.778c-5.664,4.934-10.876,10.762-15.636,17.486
					c-2.238-1.696-3.834-3.202-4.787-4.519c-0.307-0.411-0.696-0.424-1.165-0.036c-0.47,0.388-0.551,0.788-0.243,1.2
					c1.058,1.427,2.779,3.041,5.161,4.848c-1.66,2.445-3.273,5.003-4.841,7.678c-1.654,2.76-3.293,6.109-4.914,10.051
					c-1.05,2.559-1.687,4.557-1.917,5.993c-0.134,0.916-0.114,1.644,0.063,2.185c0.313,0.729,0.882,1.063,1.707,1.006
					c0.549-0.038,0.854-0.336,0.912-0.893c0.059-0.558-0.187-0.815-0.737-0.777c-0.157,0.012-0.249-0.041-0.275-0.158
					c-0.124-0.307-0.133-0.779-0.027-1.418c0.212-1.277,0.795-3.113,1.748-5.508c1.567-3.779,3.159-7.065,4.779-9.863
					c1.515-2.553,3.099-5.012,4.75-7.375c2.649,1.867,6.179,4.066,10.59,6.6c0.442,0.245,0.825,0.119,1.151-0.377
					c0.324-0.496,0.266-0.867-0.176-1.111c-4.411-2.533-7.921-4.733-10.531-6.604c4.674-6.64,9.777-12.361,15.31-17.168
					c1.972-1.717,3.755-3.104,5.348-4.162c1.592-1.059,3.205-1.764,4.841-2.114c0.675-0.126,1.162-0.12,1.46,0.016
					c0.257,0.141,0.425,0.405,0.501,0.794c0.144,0.858-0.136,2.22-0.838,4.083c-0.268,0.69-0.601,1.443-0.998,2.26
					c-0.004,0.039-0.084,0.242-0.239,0.608l-0.065,0.064l-0.013,0.119l-0.071,0.122c0.004-0.038,0.027-0.079,0.071-0.122
					l-0.071,0.122l-0.143,0.247l-1.973,3.748l-0.006,0.061c-0.386,0.698-0.623,1.108-0.714,1.232
					c-0.346,0.695-0.905,1.741-1.674,3.137l-1.734,3.139L96.161,93.952l-2.128,4.114c-0.199,0.408-0.322,0.654-0.369,0.735
					l-0.065,0.063l-0.013,0.119c-0.048,0.082-0.073,0.143-0.078,0.183c-0.028,0.634,0.279,0.869,0.92,0.705
					c0.2-0.054,0.366-0.144,0.496-0.271c0.005-0.041,0.028-0.082,0.072-0.123l0.065-0.064l0.078-0.184l6.787-12.844
					c0.004-0.039,0.027-0.08,0.071-0.123l5.936-11.424l4.97-9.462c0.004-0.039,0.026-0.062,0.065-0.063L115.09,61.262z"/>
			</g>
			<g>
				<defs>
					<rect id="SVGID_5_" width="508.444" height="122"/>
				</defs>
				<clipPath id="SVGID_6_">
					<use xlink:href="#SVGID_5_"  overflow="visible"/>
				</clipPath>
				<path clip-path="url(#SVGID_6_)" fill="none" stroke="#1C2F3C" stroke-width="1.552" stroke-miterlimit="7.483" d="
					M153.081,48.277c0.255-0.393,0.199-0.695-0.168-0.906c-3.587-1.84-6.535-1.792-8.843,0.146
					c-1.795,1.507-3.116,4.242-3.961,8.208c-0.574,2.486-1.02,5.989-1.339,10.509c-0.311,4.44-0.567,7.062-0.768,7.867
					c-1.142,4.933-2.858,9.018-5.147,12.256c-1.418,1.992-3.063,3.558-4.937,4.693c-1.873,1.139-3.711,1.749-5.513,1.836
					c-1.846,0.131-3.474-0.318-4.886-1.345c-1.412-1.024-2.394-2.624-2.945-4.795c-0.077-0.39-0.328-0.5-0.755-0.332
					c-0.427,0.168-0.584,0.465-0.473,0.892c0.605,2.403,1.703,4.182,3.298,5.334c1.589,1.188,3.444,1.711,5.565,1.562
					c2.076-0.104,4.155-0.793,6.238-2.062c2.082-1.271,3.88-2.984,5.393-5.144c2.463-3.407,4.278-7.697,5.445-12.868
					c0.21-0.882,0.471-3.562,0.787-8.045c0.311-4.439,0.731-7.883,1.261-10.327c0.808-3.607,1.979-6.037,3.514-7.289
					c1.756-1.503,4.206-1.457,7.352,0.138C152.531,48.78,152.825,48.67,153.081,48.277z"/>
			</g>
			<g>
				<defs>
					<rect id="SVGID_7_" width="508.444" height="122"/>
				</defs>
				<clipPath id="SVGID_8_">
					<use xlink:href="#SVGID_7_"  overflow="visible"/>
				</clipPath>
				<path clip-path="url(#SVGID_8_)" fill="none" stroke="#1C2F3C" stroke-width="1.552" stroke-miterlimit="7.483" d="
					M184.744,69.352c2.959,1.887,5.049,3.316,6.271,4.297c0.328,0.215,0.638,0.144,0.929-0.213c0.29-0.354,0.294-0.66,0.009-0.918
					c-1.262-0.978-3.369-2.428-6.324-4.352l-1.261-0.8c3.217-5.394,6.903-10.623,11.062-15.688l2.213-2.7
					c0.576-0.671,1.336-1.492,2.276-2.467c0.94-0.973,1.845-1.795,2.716-2.468c0.868-0.672,1.754-1.218,2.655-1.636
					c0.697-0.324,1.19-0.399,1.485-0.223c0.297,0.138,0.494,0.479,0.594,1.023c0.232,1.129,0.038,2.977-0.582,5.545
					c-0.271,1.085-0.611,2.283-1.021,3.593c-0.41,1.312-0.777,2.393-1.101,3.244l-0.995,2.792c-0.336,0.97-0.525,1.478-0.568,1.52
					c-0.125,0.442,0.014,0.699,0.416,0.77c0.401,0.071,0.682-0.097,0.842-0.503c0.004-0.039,0.193-0.546,0.568-1.519l0.995-2.792
					c0.327-0.892,0.697-2.002,1.11-3.333c0.412-1.331,0.756-2.559,1.029-3.683c0.682-2.77,0.877-4.815,0.588-6.137
					c-0.18-0.896-0.566-1.479-1.16-1.754c-0.67-0.309-1.518-0.209-2.545,0.296c-0.985,0.464-1.963,1.055-2.936,1.774
					c-0.972,0.719-1.962,1.606-2.969,2.663c-1.008,1.058-1.777,1.9-2.312,2.529c-0.486,0.547-1.244,1.448-2.271,2.704
					c-4.165,5.144-7.857,10.413-11.074,15.807c-1.567-1.033-2.887-2.008-3.961-2.918c-0.328-0.215-0.638-0.143-0.928,0.213
					c-0.292,0.355-0.295,0.662-0.009,0.918c1.112,0.908,2.507,1.916,4.184,3.021c-4.096,7.073-7.255,14.14-9.478,21.2
					c-0.121,0.4,0.021,0.639,0.423,0.71c0.401,0.069,0.684-0.117,0.848-0.562c2.124-6.855,5.188-13.759,9.192-20.707L184.744,69.352
					z"/>
			</g>
			<g>
				<defs>
					<rect id="SVGID_9_" width="508.444" height="122"/>
				</defs>
				<clipPath id="SVGID_10_">
					<use xlink:href="#SVGID_9_"  overflow="visible"/>
				</clipPath>
				<path clip-path="url(#SVGID_10_)" fill="none" stroke="#1C2F3C" stroke-width="1.552" stroke-miterlimit="7.483" d="
					M241.406,56.453c0.37,0.172,0.676,0.052,0.914-0.36c0.432-0.778,0.749-1.374,0.948-1.781l0.881-1.72
					c0.438-0.819,0.754-1.512,0.951-2.079c0.194-0.565,0.397-1.212,0.61-1.937c0.214-0.725,0.354-1.425,0.427-2.101
					c0.072-0.676,0.062-1.326-0.029-1.951c-0.248-1.719-1.123-2.663-2.625-2.835c-1.156-0.116-2.656,0.245-4.499,1.084
					c-1.354,0.647-2.746,1.475-4.178,2.481c-1.432,1.008-2.535,1.874-3.312,2.6c-5.402,5.033-10.43,10.968-15.084,17.804
					c-1.806-0.623-3.373-1.282-4.703-1.979c-0.332-0.175-0.627-0.064-0.883,0.327c-0.256,0.394-0.199,0.694,0.168,0.905
					c1.334,0.656,2.864,1.3,4.592,1.928c-3.012,4.553-5.375,8.86-7.088,12.926c-2.162,5.004-2.475,8.34-0.936,10.008
					c0.844,0.889,2.116,1.192,3.821,0.916c1.665-0.273,3.739-1.09,6.221-2.446c2.026-1.128,4.634-2.75,7.819-4.867
					c3.811-2.515,8.312-5.849,13.504-9.999c0.343-0.3,0.404-0.609,0.185-0.932c-0.22-0.318-0.519-0.348-0.897-0.084
					c-5.234,4.193-9.696,7.522-13.385,9.99c-3.06,2.028-5.623,3.608-7.689,4.739c-2.316,1.267-4.229,2.031-5.737,2.295
					c-1.308,0.21-2.241-0.001-2.798-0.633c-1.188-1.298-0.844-4.202,1.033-8.713c1.705-3.985,4.083-8.255,7.134-12.81l2.603,0.824
					c4.195,1.244,6.983,2.154,8.365,2.729c0.371,0.172,0.676,0.052,0.916-0.36c0.237-0.409,0.17-0.7-0.201-0.873
					c-1.455-0.608-4.302-1.532-8.535-2.776l-2.321-0.726c4.56-6.671,9.472-12.439,14.739-17.307c0.689-0.64,1.709-1.441,3.059-2.403
					c1.348-0.962,2.68-1.765,3.995-2.41c1.558-0.739,2.799-1.044,3.72-0.911c0.965,0.091,1.52,0.742,1.666,1.954
					c0.102,0.507,0.123,1.058,0.061,1.653c-0.062,0.597-0.188,1.217-0.371,1.861c-0.186,0.644-0.373,1.229-0.564,1.756
					c-0.192,0.527-0.479,1.138-0.864,1.836l-0.883,1.719c-0.203,0.449-0.519,1.042-0.947,1.782
					C240.967,55.991,241.033,56.282,241.406,56.453z"/>
			</g>
			<g>
				<defs>
					<rect id="SVGID_11_" width="508.444" height="122"/>
				</defs>
				<clipPath id="SVGID_12_">
					<use xlink:href="#SVGID_11_"  overflow="visible"/>
				</clipPath>
				<path clip-path="url(#SVGID_12_)" fill="none" stroke="#1C2F3C" stroke-width="1.552" stroke-miterlimit="7.483" d="
					M284.771,39.068c0.254-0.392,0.197-0.695-0.17-0.906c-3.586-1.84-6.533-1.792-8.843,0.146c-1.795,1.507-3.116,4.243-3.961,8.208
					c-0.573,2.487-1.021,5.99-1.339,10.51c-0.312,4.441-0.566,7.063-0.77,7.867c-1.142,4.933-2.856,9.018-5.146,12.256
					c-1.418,1.992-3.062,3.558-4.938,4.694c-1.873,1.138-3.711,1.749-5.513,1.837c-1.846,0.129-3.474-0.32-4.886-1.346
					s-2.395-2.624-2.945-4.796c-0.076-0.39-0.328-0.5-0.755-0.332s-0.584,0.466-0.474,0.892c0.605,2.404,1.703,4.182,3.299,5.334
					c1.589,1.188,3.443,1.711,5.564,1.562c2.076-0.104,4.154-0.793,6.237-2.062c2.082-1.271,3.88-2.984,5.394-5.144
					c2.463-3.406,4.277-7.696,5.445-12.867c0.209-0.883,0.471-3.564,0.786-8.045c0.312-4.44,0.73-7.884,1.263-10.327
					c0.808-3.608,1.979-6.037,3.514-7.289c1.755-1.503,4.205-1.457,7.352,0.137C284.221,39.571,284.516,39.462,284.771,39.068z"/>
			</g>
			<g>
				<defs>
					<rect id="SVGID_13_" width="508.444" height="122"/>
				</defs>
				<clipPath id="SVGID_14_">
					<use xlink:href="#SVGID_13_"  overflow="visible"/>
				</clipPath>
				<path clip-path="url(#SVGID_14_)" fill="none" stroke="#1C2F3C" stroke-width="1.552" stroke-miterlimit="7.483" d="
					M294.344,42.542c0.176,0.363,0.451,0.433,0.826,0.209c1.001-0.622,2.734-1.177,5.203-1.666c2.148-0.426,4.781-0.808,7.896-1.144
					l0.057-0.005c-7.883,13.453-15.229,27.343-22.034,41.667c-0.199,0.407-0.11,0.68,0.267,0.811
					c0.375,0.131,0.662-0.007,0.861-0.415c6.906-14.528,14.367-28.604,22.387-42.225c1.652-0.154,5.777-0.464,12.375-0.925
					c0.43-0.03,0.67-0.264,0.715-0.701c0.047-0.438-0.146-0.641-0.578-0.61c-6.359,0.445-10.271,0.738-11.727,0.879l1.559-2.595
					c0.238-0.41,0.17-0.701-0.2-0.873c-0.371-0.171-0.677-0.051-0.913,0.358l-1.924,3.272l-0.766,0.053
					c-3.193,0.342-5.865,0.727-8.014,1.152c-2.629,0.539-4.505,1.144-5.628,1.813C294.288,41.865,294.167,42.18,294.344,42.542z"/>
			</g>
			<g>
				<defs>
					<rect id="SVGID_15_" width="508.444" height="122"/>
				</defs>
				<clipPath id="SVGID_16_">
					<use xlink:href="#SVGID_15_"  overflow="visible"/>
				</clipPath>
				<path clip-path="url(#SVGID_16_)" fill="none" stroke="#1C2F3C" stroke-width="1.552" stroke-miterlimit="7.483" d="
					M344.284,32.688c-0.372-0.171-0.677-0.051-0.915,0.36c-8.887,14.824-17.135,30.257-24.743,46.296
					c-0.198,0.408-0.11,0.678,0.265,0.811c0.377,0.131,0.664-0.008,0.863-0.416c8.498-17.44,16.741-32.834,24.73-46.176
					C344.723,33.15,344.654,32.859,344.284,32.688z"/>
			</g>
			<g>
				<defs>
					<rect id="SVGID_17_" width="508.444" height="122"/>
				</defs>
				<clipPath id="SVGID_18_">
					<use xlink:href="#SVGID_17_"  overflow="visible"/>
				</clipPath>
				<path clip-path="url(#SVGID_18_)" fill="none" stroke="#1C2F3C" stroke-width="1.552" stroke-miterlimit="7.483" d="
					M352.652,44.561c-0.402-0.07-0.686,0.117-0.848,0.562c-0.574,1.736-0.998,4.114-1.275,7.133
					c-0.393,4.091-0.637,6.416-0.733,6.975c-0.493,2.837-0.942,5.985-1.345,9.445c-0.444,3.858-0.342,6.594,0.308,8.206
					c0.304,0.808,0.776,1.326,1.415,1.558c0.594,0.274,1.299,0.244,2.113-0.088c1.303-0.526,2.855-1.778,4.664-3.76
					c1.549-1.766,3.18-3.931,4.893-6.496c1.85-2.772,6.316-9.872,13.404-21.298l2.338-3.893l2.546-4.202
					c0.653-1.031,1.485-2.264,2.493-3.695c1.008-1.433,1.979-2.693,2.912-3.784c0.309-0.337,0.318-0.634,0.035-0.891
					c-0.285-0.256-0.582-0.216-0.891,0.122c-1.017,1.136-2.039,2.431-3.068,3.884s-1.852,2.694-2.467,3.723l-2.676,4.33l-2.34,3.893
					c-7.042,11.383-11.468,18.438-13.273,21.169c-1.664,2.483-3.27,4.59-4.814,6.313c-1.594,1.809-2.938,2.928-4.036,3.36
					c-0.487,0.19-0.882,0.22-1.179,0.082c-0.336-0.135-0.633-0.47-0.887-1.003c-0.555-1.422-0.617-3.962-0.193-7.621
					c0.396-3.421,0.841-6.529,1.33-9.326c0.102-0.6,0.352-2.963,0.746-7.095c0.27-2.938,0.688-5.236,1.25-6.895
					C353.195,44.868,353.055,44.632,352.652,44.561z"/>
			</g>
			<g>
				<defs>
					<rect id="SVGID_19_" width="508.444" height="122"/>
				</defs>
				<clipPath id="SVGID_20_">
					<use xlink:href="#SVGID_19_"  overflow="visible"/>
				</clipPath>
				<path clip-path="url(#SVGID_20_)" fill="none" stroke="#1C2F3C" stroke-width="1.552" stroke-miterlimit="7.483" d="
					M420.167,39.929c0.005-0.039,0.054-0.143,0.149-0.307l1.319-3.11c0.815-2.188,1.125-3.847,0.934-4.979
					c-0.147-0.818-0.536-1.392-1.163-1.723c-0.629-0.331-1.461-0.381-2.498-0.151c-1.316,0.29-2.699,0.83-4.146,1.621
					c-1.447,0.792-2.639,1.556-3.572,2.292c-0.936,0.737-2.047,1.663-3.332,2.778c-5.664,4.934-10.875,10.763-15.637,17.486
					c-2.236-1.696-3.834-3.202-4.787-4.518c-0.307-0.412-0.694-0.425-1.164-0.037c-0.471,0.388-0.551,0.789-0.242,1.201
					c1.058,1.426,2.777,3.041,5.16,4.847c-1.66,2.445-3.272,5.003-4.842,7.677c-1.652,2.762-3.293,6.11-4.914,10.051
					c-1.049,2.56-1.687,4.558-1.916,5.994c-0.135,0.916-0.113,1.645,0.062,2.186c0.312,0.727,0.882,1.062,1.707,1.005
					c0.549-0.038,0.854-0.337,0.912-0.892c0.059-0.559-0.188-0.816-0.737-0.777c-0.157,0.011-0.249-0.043-0.274-0.159
					c-0.125-0.308-0.133-0.78-0.026-1.418c0.212-1.277,0.795-3.114,1.749-5.509c1.564-3.778,3.158-7.065,4.777-9.862
					c1.516-2.552,3.1-5.011,4.75-7.375c2.648,1.867,6.18,4.066,10.59,6.599c0.441,0.246,0.824,0.12,1.15-0.375
					c0.324-0.496,0.268-0.867-0.176-1.113c-4.41-2.533-7.921-4.733-10.531-6.604c4.674-6.639,9.777-12.361,15.312-17.168
					c1.972-1.716,3.755-3.104,5.348-4.161c1.593-1.059,3.205-1.764,4.843-2.114c0.674-0.126,1.161-0.12,1.459,0.016
					c0.258,0.141,0.426,0.405,0.502,0.794c0.144,0.858-0.138,2.219-0.838,4.083c-0.27,0.69-0.603,1.443-0.998,2.259
					c-0.005,0.04-0.084,0.243-0.24,0.609l-0.064,0.064l-0.013,0.118l-0.071,0.123c0.004-0.039,0.027-0.08,0.071-0.123l-0.071,0.123
					l-0.143,0.247l-1.974,3.748l-0.007,0.061c-0.386,0.697-0.623,1.108-0.714,1.232c-0.347,0.696-0.903,1.741-1.674,3.137
					l-1.734,3.139L401.239,72.62l-2.128,4.114c-0.199,0.408-0.322,0.654-0.369,0.736l-0.064,0.062l-0.014,0.119
					c-0.048,0.082-0.072,0.143-0.078,0.183c-0.027,0.634,0.279,0.869,0.921,0.705c0.199-0.054,0.365-0.144,0.495-0.271
					c0.005-0.041,0.028-0.082,0.072-0.123l0.064-0.064l0.078-0.184l6.787-12.844c0.004-0.039,0.026-0.08,0.07-0.123l5.936-11.425
					l4.971-9.462c0.004-0.039,0.025-0.061,0.064-0.062L420.167,39.929z"/>
			</g>
			<g>
				<defs>
					<rect id="SVGID_21_" width="508.444" height="122"/>
				</defs>
				<clipPath id="SVGID_22_">
					<use xlink:href="#SVGID_21_"  overflow="visible"/>
				</clipPath>
				<path clip-path="url(#SVGID_22_)" fill="none" stroke="#1C2F3C" stroke-width="1.552" stroke-miterlimit="7.483" d="
					M445.584,25.604c-0.372-0.171-0.678-0.051-0.915,0.36l-5.363,9.312l-6.359,11.57l-5.143,9.415
					c-1.878,3.407-3.037,5.539-3.478,6.398c-0.697,1.43-1.217,2.67-1.562,3.72c-0.447,1.294-0.607,2.271-0.482,2.934
					c0.301,1.599,1.123,2.467,2.474,2.608c1.034,0.164,2.415-0.169,4.139-1c1.188-0.556,2.825-1.479,4.91-2.769
					c3.124-1.916,4.791-2.94,5-3.073c0.413-0.226,0.543-0.53,0.391-0.914c-0.156-0.384-0.44-0.463-0.854-0.237
					c-0.622,0.36-2.311,1.405-5.063,3.137c-2.041,1.248-3.617,2.146-4.728,2.697c-1.516,0.698-2.658,0.995-3.428,0.893
					c-0.807-0.103-1.311-0.698-1.506-1.789c-0.107-0.467,0.012-1.225,0.354-2.274c0.336-0.97,0.849-2.131,1.535-3.479
					c0.255-0.57,1.394-2.682,3.414-6.334l5.146-9.476l6.295-11.507l5.424-9.316C446.021,26.067,445.955,25.776,445.584,25.604z"/>
			</g>
		</g>
	</g>
	<g>
		<path fill="#1C2F3C" d="M39.863,100.613c0.1-3.914,2.812-10.456,8.142-19.628c4.222-7.16,8.313-13.266,12.273-18.315
			c0.139-0.208,0.587-0.771,1.347-1.693l1.627-2.126c0.359-0.458,0.873-1.076,1.541-1.854c0.665-0.776,1.279-1.421,1.839-1.935
			c0.56-0.513,1.095-0.964,1.604-1.355c1.722-1.186,3.146-1.383,4.271-0.594c1.2,0.824,2.001,2.84,2.404,6.047
			c0.536,4.539-0.126,10.011-1.988,16.414c-1.862,6.404-4.362,11.55-7.498,15.438c-1.207,1.468-2.757,2.769-4.649,3.907
			c-1.895,1.138-3.838,1.935-5.835,2.391c-2.115,0.463-4.031,0.43-5.749-0.102c-1.718-0.531-2.952-1.678-3.702-3.44
			c-0.155-0.383-0.025-0.688,0.389-0.914s0.697-0.147,0.852,0.236c0.626,1.456,1.666,2.42,3.117,2.889
			c1.45,0.471,3.136,0.482,5.054,0.031c1.795-0.4,3.566-1.127,5.314-2.176s3.16-2.243,4.236-3.582
			c3.001-3.721,5.414-8.684,7.235-14.888c1.821-6.203,2.455-11.495,1.903-15.876c-0.325-2.856-0.979-4.606-1.963-5.248
			c-0.653-0.467-1.588-0.283-2.806,0.552c-0.462,0.308-0.951,0.707-1.47,1.197c-0.519,0.49-1.07,1.091-1.65,1.802l-1.466,1.7
			l-1.626,2.127c-0.721,0.918-1.17,1.482-1.347,1.692c-3.917,5.008-7.965,11.071-12.143,18.189
			c-5.227,8.928-7.876,15.229-7.95,18.903c-0.009,0.434-0.229,0.687-0.665,0.757C40.071,101.229,39.856,101.048,39.863,100.613z"/>
		<path fill="#1C2F3C" d="M112.967,65.317c-0.04,0.003-0.061,0.023-0.065,0.063l-4.97,9.462l-5.936,11.423
			c-0.044,0.043-0.068,0.085-0.072,0.124l-6.786,12.844l-0.079,0.183l-0.065,0.064c-0.044,0.041-0.068,0.082-0.072,0.123
			c-0.13,0.127-0.295,0.218-0.495,0.271c-0.642,0.163-0.949-0.073-0.92-0.705c0.004-0.04,0.03-0.102,0.078-0.183l0.012-0.119
			l0.066-0.064c0.047-0.083,0.169-0.327,0.369-0.736l2.128-4.113l11.223-21.678l1.734-3.139c0.769-1.395,1.328-2.44,1.674-3.135
			c0.09-0.126,0.329-0.537,0.714-1.235l0.006-0.059l1.973-3.748l0.142-0.247l0.071-0.124c-0.044,0.044-0.067,0.085-0.071,0.124
			l0.071-0.124l0.012-0.118l0.065-0.064c0.155-0.366,0.236-0.568,0.24-0.608c0.397-0.816,0.729-1.57,0.998-2.26
			c0.702-1.863,0.981-3.225,0.838-4.083c-0.076-0.389-0.243-0.653-0.502-0.793c-0.298-0.138-0.784-0.142-1.459-0.018
			c-1.636,0.353-3.249,1.058-4.84,2.114c-1.594,1.059-3.377,2.446-5.35,4.163c-5.532,4.806-10.636,10.528-15.309,17.168
			c2.61,1.868,6.121,4.07,10.532,6.602c0.441,0.247,0.499,0.617,0.175,1.113c-0.326,0.496-0.708,0.622-1.15,0.375
			c-4.41-2.53-7.941-4.73-10.59-6.598c-1.651,2.364-3.235,4.823-4.75,7.376c-1.619,2.797-3.211,6.084-4.777,9.862
			c-0.955,2.396-1.537,4.229-1.748,5.508c-0.107,0.639-0.098,1.111,0.025,1.419c0.026,0.117,0.119,0.169,0.275,0.158
			c0.55-0.039,0.796,0.22,0.737,0.777c-0.059,0.555-0.363,0.854-0.913,0.893c-0.823,0.057-1.394-0.278-1.706-1.006
			c-0.177-0.541-0.197-1.269-0.062-2.186c0.229-1.436,0.866-3.434,1.916-5.992c1.621-3.94,3.26-7.291,4.915-10.051
			c1.567-2.674,3.18-5.232,4.841-7.677c-2.383-1.806-4.104-3.422-5.162-4.849c-0.308-0.411-0.227-0.812,0.244-1.2
			c0.469-0.388,0.857-0.375,1.165,0.036c0.952,1.316,2.549,2.821,4.786,4.52c4.761-6.725,9.973-12.554,15.636-17.487
			c1.286-1.115,2.396-2.041,3.332-2.778c0.935-0.735,2.126-1.5,3.574-2.291c1.446-0.791,2.829-1.331,4.146-1.622
			c1.037-0.229,1.87-0.18,2.498,0.151c0.628,0.331,1.015,0.905,1.164,1.724c0.192,1.131-0.118,2.79-0.932,4.978l-1.322,3.11
			c-0.095,0.166-0.145,0.268-0.148,0.307L112.967,65.317z"/>
		<path fill="#1C2F3C" d="M152.198,48.606c-3.146-1.595-5.597-1.64-7.352-0.137c-1.534,1.251-2.707,3.681-3.514,7.288
			c-0.529,2.444-0.95,5.888-1.261,10.327c-0.316,4.481-0.577,7.163-0.787,8.045c-1.167,5.172-2.982,9.461-5.444,12.869
			c-1.513,2.157-3.311,3.87-5.393,5.141s-4.162,1.958-6.239,2.064c-2.12,0.148-3.975-0.374-5.565-1.563
			c-1.594-1.152-2.693-2.929-3.298-5.333c-0.109-0.427,0.047-0.723,0.474-0.892c0.428-0.168,0.68-0.058,0.755,0.332
			c0.55,2.172,1.533,3.769,2.946,4.795c1.411,1.025,3.04,1.474,4.886,1.345c1.801-0.087,3.64-0.697,5.512-1.836
			c1.874-1.137,3.519-2.702,4.937-4.694c2.289-3.237,4.004-7.323,5.147-12.256c0.201-0.804,0.456-3.426,0.769-7.866
			c0.318-4.52,0.765-8.023,1.338-10.51c0.845-3.965,2.166-6.701,3.961-8.209c2.308-1.937,5.256-1.983,8.844-0.145
			c0.366,0.211,0.423,0.515,0.167,0.905C152.824,48.671,152.531,48.781,152.198,48.606z"/>
		<path fill="#1C2F3C" d="M183.654,68.601c-4.005,6.948-7.068,13.851-9.192,20.706c-0.164,0.445-0.446,0.632-0.848,0.562
			c-0.402-0.069-0.543-0.307-0.422-0.71c2.222-7.061,5.382-14.127,9.477-21.199c-1.677-1.105-3.072-2.114-4.184-3.021
			c-0.285-0.257-0.282-0.562,0.009-0.919c0.29-0.354,0.6-0.427,0.929-0.212c1.073,0.91,2.393,1.884,3.96,2.919
			c3.217-5.394,6.909-10.664,11.075-15.808c1.026-1.256,1.784-2.156,2.271-2.704c0.533-0.629,1.303-1.473,2.311-2.528
			c1.008-1.057,1.997-1.946,2.97-2.664c0.971-0.719,1.95-1.31,2.935-1.774c1.026-0.506,1.875-0.604,2.543-0.296
			c0.595,0.274,0.982,0.858,1.161,1.753c0.29,1.321,0.094,3.368-0.587,6.138c-0.274,1.124-0.617,2.352-1.03,3.682
			c-0.413,1.332-0.782,2.442-1.11,3.333l-0.995,2.793c-0.375,0.974-0.564,1.479-0.568,1.519c-0.16,0.406-0.44,0.573-0.843,0.503
			c-0.402-0.069-0.541-0.326-0.417-0.77c0.043-0.042,0.234-0.549,0.57-1.52l0.996-2.793c0.323-0.851,0.689-1.932,1.101-3.243
			c0.41-1.31,0.75-2.509,1.021-3.593c0.621-2.567,0.815-4.416,0.583-5.544c-0.099-0.546-0.297-0.887-0.594-1.024
			c-0.293-0.176-0.789-0.102-1.486,0.223c-0.901,0.418-1.787,0.963-2.656,1.636c-0.87,0.673-1.775,1.495-2.715,2.468
			c-0.941,0.975-1.7,1.796-2.276,2.469l-2.213,2.698c-4.158,5.065-7.845,10.296-11.062,15.689l1.26,0.799
			c2.954,1.923,5.062,3.374,6.325,4.352c0.284,0.257,0.281,0.562-0.009,0.918c-0.291,0.356-0.601,0.427-0.929,0.213
			c-1.221-0.98-3.313-2.411-6.271-4.296L183.654,68.601z"/>
		<path fill="#1C2F3C" d="M241.205,55.58c0.429-0.74,0.744-1.333,0.947-1.782l0.882-1.719c0.385-0.697,0.672-1.31,0.865-1.837
			c0.192-0.525,0.38-1.111,0.564-1.755s0.309-1.265,0.371-1.861c0.062-0.596,0.042-1.146-0.06-1.652
			c-0.146-1.212-0.701-1.864-1.666-1.955c-0.921-0.132-2.162,0.171-3.72,0.911c-1.316,0.646-2.647,1.449-3.995,2.41
			c-1.349,0.962-2.369,1.764-3.059,2.403c-5.266,4.867-10.18,10.636-14.74,17.307l2.321,0.726c4.234,1.242,7.081,2.169,8.537,2.776
			c0.371,0.173,0.438,0.463,0.2,0.874c-0.238,0.411-0.543,0.531-0.914,0.359c-1.382-0.573-4.17-1.484-8.366-2.729l-2.603-0.824
			c-3.052,4.554-5.429,8.823-7.134,12.81c-1.877,4.51-2.222,7.413-1.033,8.712c0.556,0.633,1.49,0.844,2.798,0.634
			c1.508-0.264,3.419-1.029,5.736-2.296c2.068-1.131,4.631-2.71,7.689-4.739c3.689-2.468,8.151-5.798,13.386-9.991
			c0.378-0.263,0.676-0.234,0.896,0.085c0.22,0.32,0.158,0.63-0.185,0.931c-5.192,4.15-9.693,7.483-13.503,9.999
			c-3.186,2.117-5.792,3.739-7.82,4.867c-2.482,1.357-4.555,2.173-6.221,2.447c-1.704,0.276-2.978-0.028-3.821-0.916
			c-1.539-1.668-1.227-5.005,0.937-10.009c1.713-4.064,4.074-8.372,7.086-12.925c-1.726-0.628-3.256-1.27-4.591-1.927
			c-0.368-0.212-0.424-0.513-0.167-0.906c0.254-0.393,0.55-0.501,0.882-0.327c1.33,0.696,2.897,1.355,4.703,1.979
			c4.654-6.835,9.682-12.771,15.084-17.804c0.778-0.725,1.882-1.591,3.313-2.6c1.431-1.008,2.824-1.835,4.178-2.48
			c1.842-0.84,3.342-1.201,4.498-1.085c1.503,0.171,2.377,1.116,2.626,2.835c0.09,0.625,0.1,1.275,0.028,1.951
			c-0.07,0.676-0.212,1.375-0.425,2.101c-0.214,0.726-0.418,1.371-0.613,1.938c-0.196,0.566-0.512,1.259-0.949,2.078l-0.882,1.719
			c-0.199,0.408-0.515,1.004-0.947,1.783c-0.239,0.411-0.544,0.531-0.915,0.359C241.033,56.283,240.966,55.992,241.205,55.58z"/>
		<path fill="#1C2F3C" d="M283.828,39.401c-3.146-1.595-5.596-1.64-7.352-0.136c-1.534,1.251-2.706,3.681-3.514,7.288
			c-0.529,2.444-0.95,5.888-1.262,10.326c-0.315,4.481-0.577,7.164-0.787,8.045c-1.167,5.172-2.981,9.462-5.444,12.87
			c-1.513,2.156-3.311,3.87-5.393,5.141s-4.162,1.958-6.239,2.064c-2.12,0.148-3.975-0.375-5.564-1.564
			c-1.594-1.151-2.693-2.928-3.299-5.332c-0.11-0.427,0.047-0.723,0.474-0.893c0.428-0.167,0.679-0.057,0.756,0.332
			c0.55,2.173,1.532,3.77,2.944,4.795c1.412,1.026,3.04,1.475,4.887,1.346c1.801-0.088,3.64-0.698,5.513-1.836
			c1.874-1.138,3.519-2.702,4.937-4.695c2.289-3.236,4.005-7.322,5.146-12.255c0.202-0.804,0.457-3.426,0.77-7.867
			c0.318-4.519,0.765-8.022,1.338-10.51c0.846-3.965,2.166-6.7,3.961-8.208c2.309-1.937,5.256-1.983,8.844-0.145
			c0.366,0.211,0.423,0.515,0.168,0.905C284.455,39.467,284.161,39.577,283.828,39.401z"/>
		<path fill="#1C2F3C" d="M294.647,41.604c1.122-0.67,2.997-1.274,5.627-1.814c2.15-0.425,4.82-0.811,8.014-1.151l0.766-0.054
			l1.922-3.271c0.238-0.41,0.544-0.53,0.915-0.359c0.371,0.172,0.438,0.463,0.2,0.874l-1.56,2.594
			c1.458-0.141,5.367-0.434,11.728-0.879c0.432-0.03,0.625,0.174,0.579,0.611s-0.285,0.67-0.717,0.7
			c-6.596,0.462-10.721,0.771-12.375,0.926c-8.019,13.62-15.479,27.694-22.386,42.223c-0.199,0.409-0.487,0.548-0.863,0.417
			c-0.376-0.132-0.464-0.402-0.265-0.811c6.807-14.325,14.151-28.214,22.036-41.668l-0.06,0.004
			c-3.114,0.338-5.746,0.719-7.896,1.145c-2.469,0.489-4.202,1.045-5.204,1.666c-0.374,0.224-0.648,0.155-0.825-0.209
			C294.108,42.186,294.229,41.87,294.647,41.604z"/>
		<path fill="#1C2F3C" d="M344.425,33.566c-7.989,13.342-16.232,28.734-24.73,46.176c-0.199,0.408-0.487,0.548-0.863,0.416
			s-0.464-0.401-0.265-0.811c7.609-16.038,15.857-31.47,24.743-46.295c0.238-0.41,0.544-0.531,0.915-0.36
			C344.596,32.864,344.663,33.155,344.425,33.566z"/>
		<path fill="#1C2F3C" d="M353.016,45.276c-0.563,1.657-0.981,3.955-1.251,6.894c-0.396,4.132-0.644,6.496-0.745,7.095
			c-0.49,2.797-0.933,5.904-1.331,9.326c-0.424,3.66-0.36,6.2,0.192,7.621c0.256,0.534,0.552,0.868,0.889,1.004
			c0.297,0.136,0.689,0.108,1.178-0.083c1.098-0.432,2.443-1.552,4.037-3.359c1.544-1.727,3.149-3.83,4.813-6.315
			c1.807-2.729,6.232-9.786,13.274-21.169l2.339-3.892l2.677-4.33c0.614-1.029,1.437-2.271,2.467-3.724
			c1.029-1.452,2.052-2.747,3.068-3.884c0.307-0.336,0.604-0.376,0.89-0.122c0.284,0.258,0.272,0.554-0.035,0.891
			c-0.933,1.092-1.903,2.352-2.911,3.784c-1.009,1.432-1.84,2.664-2.494,3.696l-2.546,4.202l-2.338,3.893
			c-7.088,11.425-11.555,18.524-13.406,21.296c-1.711,2.566-3.342,4.732-4.892,6.498c-1.807,1.979-3.359,3.232-4.662,3.758
			c-0.815,0.333-1.52,0.363-2.114,0.09c-0.639-0.232-1.11-0.752-1.415-1.559c-0.649-1.611-0.751-4.347-0.307-8.205
			c0.402-3.462,0.851-6.608,1.343-9.445c0.098-0.559,0.343-2.885,0.733-6.976c0.277-3.019,0.704-5.396,1.276-7.133
			c0.164-0.445,0.446-0.632,0.848-0.562C352.995,44.637,353.135,44.873,353.016,45.276z"/>
		<path fill="#1C2F3C" d="M418.045,43.984c-0.04,0.003-0.061,0.023-0.064,0.063l-4.97,9.462l-5.937,11.423
			c-0.044,0.043-0.068,0.085-0.072,0.124L400.216,77.9l-0.078,0.183l-0.065,0.064c-0.044,0.041-0.066,0.082-0.07,0.123
			c-0.131,0.127-0.297,0.218-0.496,0.271c-0.643,0.163-0.949-0.073-0.921-0.705c0.005-0.04,0.03-0.102,0.078-0.183l0.012-0.119
			l0.066-0.064c0.047-0.083,0.17-0.327,0.369-0.736l2.128-4.113l11.223-21.678l1.733-3.139c0.77-1.395,1.328-2.44,1.675-3.135
			c0.09-0.126,0.328-0.537,0.714-1.235l0.006-0.059l1.974-3.749l0.142-0.246l0.072-0.124c-0.044,0.044-0.067,0.085-0.072,0.124
			l0.072-0.124l0.013-0.118l0.064-0.064c0.155-0.366,0.235-0.568,0.24-0.608c0.396-0.816,0.729-1.57,0.997-2.26
			c0.702-1.863,0.981-3.225,0.838-4.083c-0.076-0.389-0.243-0.653-0.502-0.793c-0.298-0.138-0.783-0.143-1.459-0.018
			c-1.636,0.353-3.249,1.058-4.84,2.114c-1.593,1.059-3.376,2.446-5.35,4.163c-5.532,4.806-10.636,10.528-15.31,17.168
			c2.61,1.868,6.121,4.07,10.532,6.602c0.441,0.246,0.498,0.617,0.175,1.113c-0.326,0.496-0.708,0.621-1.15,0.375
			c-4.41-2.53-7.941-4.73-10.591-6.598c-1.65,2.364-3.235,4.823-4.75,7.376c-1.619,2.797-3.211,6.083-4.777,9.862
			c-0.954,2.395-1.536,4.229-1.748,5.508c-0.107,0.639-0.099,1.111,0.025,1.418c0.026,0.118,0.119,0.17,0.276,0.158
			c0.549-0.038,0.796,0.221,0.737,0.778c-0.059,0.555-0.364,0.854-0.913,0.892c-0.824,0.058-1.395-0.277-1.707-1.005
			c-0.177-0.541-0.197-1.269-0.062-2.186c0.229-1.436,0.867-3.434,1.916-5.993c1.622-3.939,3.26-7.29,4.915-10.05
			c1.567-2.674,3.18-5.232,4.841-7.677c-2.384-1.806-4.104-3.422-5.162-4.849c-0.308-0.411-0.227-0.812,0.244-1.2
			c0.469-0.388,0.857-0.375,1.165,0.036c0.952,1.316,2.549,2.821,4.787,4.52c4.76-6.726,9.972-12.554,15.635-17.487
			c1.286-1.115,2.396-2.041,3.332-2.778c0.935-0.735,2.126-1.5,3.573-2.291c1.446-0.791,2.829-1.331,4.146-1.622
			c1.037-0.229,1.869-0.18,2.497,0.151c0.629,0.331,1.017,0.905,1.164,1.724c0.192,1.131-0.117,2.79-0.933,4.978l-1.32,3.11
			c-0.096,0.166-0.146,0.268-0.149,0.307L418.045,43.984z"/>
		<path fill="#1C2F3C" d="M445.843,26.475l-5.422,9.316l-6.296,11.507l-5.147,9.475c-2.021,3.654-3.158,5.765-3.413,6.335
			c-0.688,1.351-1.199,2.511-1.535,3.481c-0.344,1.051-0.463,1.808-0.356,2.273c0.197,1.092,0.7,1.688,1.508,1.788
			c0.769,0.104,1.909-0.191,3.426-0.891c1.11-0.55,2.686-1.45,4.728-2.698c2.754-1.731,4.441-2.775,5.065-3.136
			c0.412-0.226,0.696-0.146,0.852,0.237c0.154,0.383,0.024,0.688-0.39,0.914c-0.208,0.133-1.874,1.158-4.999,3.073
			c-2.085,1.29-3.721,2.212-4.909,2.77c-1.725,0.83-3.105,1.164-4.14,0.999c-1.35-0.142-2.175-1.011-2.473-2.608
			c-0.127-0.662,0.034-1.64,0.482-2.935c0.345-1.05,0.864-2.289,1.561-3.719c0.44-0.858,1.601-2.992,3.479-6.397l5.142-9.416
			l6.36-11.57l5.363-9.312c0.237-0.41,0.543-0.53,0.914-0.36C446.014,25.772,446.08,26.063,445.843,26.475z"/>
	</g>
</g>
</svg>
