<?xml version="1.0" encoding="utf-8"?>
<!-- Generator: Adobe Illustrator 16.0.0, SVG Export Plug-In . SVG Version: 6.00 Build 0)  -->
<!DOCTYPE svg PUBLIC "-//W3C//DTD SVG 1.1//EN" "http://www.w3.org/Graphics/SVG/1.1/DTD/svg11.dtd">
<svg version="1.1" id="Ebene_1" xmlns="http://www.w3.org/2000/svg" xmlns:xlink="http://www.w3.org/1999/xlink" x="0px" y="0px"
	 width="510px" height="123px" viewBox="0 0 510 123" enable-background="new 0 0 510 123" xml:space="preserve">
<g>
	<polygon fill="#1C2F3C" points="30.951,14.309 0,123 487.792,87.682 510,0 	"/>
	<g>
		<g>
			<defs>
				<rect id="SVGID_1_" width="510" height="123"/>
			</defs>
			<clipPath id="SVGID_2_">
				<use xlink:href="#SVGID_1_"  overflow="visible"/>
			</clipPath>
			<path clip-path="url(#SVGID_2_)" fill="none" stroke="#FDF4F1" stroke-width="1.552" stroke-miterlimit="7.483" d="
				M204.312,38.538c-0.372-0.171-0.677-0.051-0.915,0.36c-8.886,14.825-17.134,30.256-24.743,46.295
				c-0.199,0.408-0.111,0.679,0.265,0.811c0.376,0.131,0.664-0.008,0.863-0.416c8.498-17.439,16.741-32.834,24.73-46.176
				C204.75,39.001,204.683,38.71,204.312,38.538z"/>
		</g>
		<g>
			<defs>
				<rect id="SVGID_3_" width="510" height="123"/>
			</defs>
			<clipPath id="SVGID_4_">
				<use xlink:href="#SVGID_3_"  overflow="visible"/>
			</clipPath>
			<path clip-path="url(#SVGID_4_)" fill="none" stroke="#FDF4F1" stroke-width="1.552" stroke-miterlimit="7.483" d="M203.5,83.516
				c0.423,0.049,0.697-0.147,0.822-0.59c0.382-1.406,0.931-2.925,1.648-4.554c0.76-1.672,1.41-3.038,1.951-4.103
				c0.54-1.062,1.377-2.631,2.511-4.703c1.133-2.071,1.874-3.455,2.22-4.149c2.426-4.55,4.118-7.667,5.075-9.352l3.317-5.973
				c0.429-0.74,1.422-2.408,2.981-5.002l1.832-2.969c0.012,0.63-0.201,2.283-0.637,4.957c-1.252,7.821-2.311,15.865-3.18,24.132
				c-0.017,0.159-0.068,0.548-0.152,1.165c-0.085,0.617-0.166,1.205-0.243,1.764c-0.079,0.557-0.161,1.254-0.249,2.088
				c-0.087,1.19-0.072,2.156,0.046,2.897c0.119,1.097,0.462,1.724,1.03,1.881c0.375,0.132,0.796,0.022,1.262-0.325
				c0.295-0.218,0.643-0.558,1.043-1.021c0.58-0.711,1.292-1.728,2.132-3.05c0.421-0.659,0.866-1.381,1.339-2.164l1.155-2.094
				l0.637-1.051l5.059-8.641l5.546-9.382l5.068-8.167l5.791-8.928c0.277-0.413,0.24-0.716-0.109-0.909
				c-0.351-0.192-0.643-0.103-0.876,0.268c-1.843,2.694-3.793,5.671-5.85,8.932l-5.08,8.286l-5.612,9.447l-5.052,8.58
				c-0.048,0.083-0.241,0.431-0.578,1.047c-0.338,0.614-0.741,1.294-1.208,2.037l-1.28,2.16c-0.797,1.279-1.462,2.232-1.996,2.861
				c-0.313,0.377-0.573,0.633-0.782,0.766c-0.004,0.04-0.026,0.062-0.065,0.064c-0.141-0.148-0.242-0.477-0.306-0.986
				c-0.09-0.623-0.095-1.512-0.012-2.661c0.083-0.796,0.163-1.472,0.242-2.029c0.078-0.558,0.159-1.146,0.244-1.764
				c0.084-0.616,0.135-1.005,0.152-1.164c0.793-7.552,1.848-15.556,3.167-24.014c0.478-3.071,0.693-5.118,0.645-6.141l0.013-0.119
				c0.016-0.159,0.009-0.276-0.022-0.354c0.017-0.158-0.008-0.295-0.074-0.409c-0.163-0.304-0.403-0.425-0.721-0.364
				c-0.158,0.011-0.303,0.101-0.438,0.268l-0.13,0.127c-0.088,0.086-0.176,0.19-0.267,0.315c-0.178,0.21-0.41,0.561-0.695,1.054
				l-1.898,3.033c-1.563,2.635-2.559,4.322-2.987,5.062l-3.317,5.973c-0.957,1.685-2.653,4.842-5.088,9.471l-2.239,4.062
				l-2.492,4.79c-0.58,1.065-1.243,2.465-1.99,4.192c-0.747,1.729-1.33,3.3-1.752,4.709C202.928,83.221,203.078,83.466,203.5,83.516
				z"/>
		</g>
		<g>
			<defs>
				<rect id="SVGID_5_" width="510" height="123"/>
			</defs>
			<clipPath id="SVGID_6_">
				<use xlink:href="#SVGID_5_"  overflow="visible"/>
			</clipPath>
			<path clip-path="url(#SVGID_6_)" fill="none" stroke="#FDF4F1" stroke-width="1.552" stroke-miterlimit="7.483" d="
				M262.449,59.981c2.959,1.885,5.049,3.316,6.271,4.296c0.327,0.214,0.637,0.143,0.928-0.213c0.291-0.356,0.295-0.662,0.01-0.918
				c-1.262-0.979-3.369-2.428-6.324-4.353l-1.261-0.8c3.217-5.393,6.903-10.623,11.062-15.688l2.213-2.7
				c0.575-0.671,1.336-1.493,2.275-2.467c0.939-0.973,1.846-1.795,2.715-2.468c0.869-0.672,1.756-1.218,2.656-1.636
				c0.697-0.324,1.191-0.399,1.484-0.222c0.297,0.137,0.496,0.478,0.595,1.023c0.231,1.129,0.038,2.977-0.582,5.545
				c-0.271,1.085-0.611,2.283-1.021,3.593c-0.412,1.312-0.779,2.392-1.103,3.244l-0.995,2.792c-0.336,0.97-0.525,1.477-0.568,1.519
				c-0.125,0.443,0.014,0.7,0.416,0.77c0.401,0.071,0.682-0.097,0.842-0.503c0.004-0.039,0.193-0.546,0.568-1.519l0.995-2.792
				c0.327-0.891,0.697-2.002,1.11-3.333c0.412-1.331,0.756-2.558,1.029-3.682c0.682-2.77,0.877-4.816,0.588-6.137
				c-0.18-0.895-0.566-1.479-1.16-1.754c-0.67-0.308-1.519-0.209-2.545,0.296c-0.985,0.464-1.963,1.055-2.937,1.774
				c-0.972,0.719-1.962,1.608-2.969,2.664c-1.009,1.057-1.777,1.9-2.312,2.529c-0.488,0.547-1.244,1.448-2.272,2.704
				c-4.165,5.144-7.856,10.413-11.074,15.807c-1.565-1.035-2.887-2.008-3.961-2.919c-0.328-0.214-0.638-0.142-0.929,0.213
				c-0.291,0.356-0.295,0.662-0.008,0.918c1.111,0.909,2.506,1.916,4.184,3.021c-4.096,7.074-7.255,14.141-9.478,21.2
				c-0.121,0.401,0.021,0.639,0.423,0.71c0.401,0.07,0.684-0.117,0.848-0.562c2.124-6.855,5.188-13.759,9.191-20.707L262.449,59.981
				z"/>
		</g>
		<g>
			<defs>
				<rect id="SVGID_7_" width="510" height="123"/>
			</defs>
			<clipPath id="SVGID_8_">
				<use xlink:href="#SVGID_7_"  overflow="visible"/>
			</clipPath>
			<path clip-path="url(#SVGID_8_)" fill="none" stroke="#FDF4F1" stroke-width="1.552" stroke-miterlimit="7.483" d="
				M304.118,36.767c2.351-1.979,4.471-3.331,6.358-4.055c1.889-0.724,3.451-0.852,4.688-0.387c1.499,0.567,2.476,2.037,2.928,4.412
				c0.412,2.378,0.111,5.615-0.903,9.71c-1.236,5.098-3.51,10.209-6.814,15.332c-3.307,5.125-7.062,9.155-11.27,12.092
				c-4.535,3.118-7.814,3.722-9.836,1.812c-0.881-0.886-1.441-2.227-1.682-4.024s-0.1-3.88,0.422-6.244
				c1.129-5.169,3.096-10.356,5.904-15.564c2.768-5.204,6.066-9.341,9.896-12.41C304.029,37.227,304.131,37.003,304.118,36.767z
				 M291.561,51.672c-2.244,4.655-3.854,9.227-4.832,13.714c-0.539,2.523-0.679,4.782-0.42,6.776
				c0.258,1.994,0.916,3.507,1.979,4.537c1.088,1.146,2.632,1.57,4.631,1.273c1.999-0.299,4.262-1.324,6.784-3.078
				c4.371-3.027,8.278-7.209,11.724-12.539c3.405-5.328,5.75-10.582,7.036-15.761c1.036-4.294,1.323-7.776,0.864-10.447
				c-0.46-2.67-1.628-4.355-3.503-5.052c-1.876-0.698-4.191-0.368-6.944,0.988c-2.755,1.357-5.742,3.648-8.966,6.871
				c-0.179,0.211-0.261,0.433-0.245,0.668C296.505,43.002,293.803,47.017,291.561,51.672z"/>
		</g>
	</g>
	<g>
		<path fill="#FFFFFF" d="M204.512,39.414c-7.99,13.342-16.233,28.734-24.73,46.176c-0.2,0.407-0.487,0.547-0.863,0.416
			c-0.376-0.133-0.465-0.402-0.265-0.812c7.61-16.037,15.856-31.469,24.743-46.294c0.237-0.41,0.542-0.53,0.914-0.359
			C204.682,38.711,204.749,39.002,204.512,39.414z"/>
		<path fill="#FFFFFF" d="M203.051,82.779c0.422-1.411,1.004-2.979,1.752-4.711c0.746-1.729,1.41-3.125,1.99-4.192l2.492-4.79
			l2.239-4.062c2.435-4.628,4.131-7.786,5.088-9.469l3.316-5.974c0.429-0.74,1.424-2.428,2.988-5.062l1.898-3.033
			c0.284-0.493,0.517-0.845,0.695-1.055c0.09-0.125,0.179-0.229,0.267-0.314l0.131-0.128c0.134-0.167,0.28-0.255,0.437-0.266
			c0.317-0.061,0.558,0.059,0.722,0.363c0.066,0.114,0.09,0.251,0.073,0.409c0.031,0.078,0.038,0.196,0.021,0.354l-0.012,0.118
			c0.048,1.023-0.167,3.071-0.646,6.143c-1.318,8.457-2.373,16.461-3.167,24.012c-0.017,0.16-0.067,0.548-0.152,1.165
			c-0.085,0.618-0.167,1.206-0.243,1.763c-0.079,0.561-0.16,1.234-0.244,2.029c-0.082,1.15-0.077,2.039,0.013,2.662
			c0.064,0.51,0.165,0.839,0.305,0.986c0.039-0.004,0.061-0.023,0.065-0.064c0.209-0.133,0.469-0.389,0.783-0.766
			c0.533-0.629,1.198-1.582,1.996-2.86l1.28-2.162c0.468-0.743,0.871-1.422,1.208-2.038c0.337-0.615,0.53-0.963,0.579-1.046
			l5.052-8.58l5.612-9.447l5.08-8.286c2.058-3.26,4.008-6.238,5.851-8.932c0.233-0.371,0.525-0.46,0.875-0.268
			s0.387,0.495,0.109,0.909l-5.791,8.927l-5.067,8.167l-5.546,9.384l-5.059,8.639l-0.637,1.051l-1.155,2.094
			c-0.472,0.783-0.917,1.505-1.338,2.166c-0.841,1.32-1.552,2.338-2.132,3.048c-0.399,0.464-0.748,0.803-1.044,1.021
			c-0.466,0.35-0.886,0.457-1.261,0.325c-0.568-0.155-0.911-0.784-1.029-1.881c-0.118-0.741-0.134-1.708-0.047-2.897
			c0.087-0.834,0.17-1.528,0.25-2.088c0.077-0.558,0.158-1.146,0.243-1.764c0.084-0.617,0.135-1.005,0.152-1.165
			c0.869-8.267,1.928-16.311,3.18-24.132c0.437-2.674,0.65-4.325,0.638-4.958l-1.832,2.969c-1.559,2.595-2.553,4.263-2.981,5.003
			l-3.317,5.972c-0.958,1.686-2.649,4.802-5.076,9.352c-0.345,0.695-1.085,2.078-2.219,4.148c-1.134,2.074-1.971,3.642-2.512,4.705
			s-1.191,2.431-1.95,4.102c-0.718,1.628-1.267,3.146-1.648,4.554c-0.125,0.442-0.4,0.64-0.822,0.591
			C203.077,83.467,202.927,83.221,203.051,82.779z"/>
		<path fill="#FFFFFF" d="M261.359,59.23c-4.004,6.95-7.069,13.85-9.192,20.706c-0.164,0.445-0.447,0.635-0.848,0.562
			c-0.403-0.068-0.543-0.307-0.423-0.71c2.223-7.06,5.381-14.127,9.478-21.199c-1.679-1.105-3.072-2.114-4.185-3.022
			c-0.285-0.256-0.282-0.562,0.01-0.918c0.29-0.355,0.6-0.427,0.929-0.212c1.073,0.911,2.394,1.884,3.96,2.919
			c3.217-5.394,6.909-10.663,11.075-15.808c1.026-1.255,1.784-2.156,2.271-2.703c0.534-0.63,1.305-1.473,2.312-2.529
			c1.007-1.056,1.995-1.945,2.969-2.664c0.973-0.718,1.949-1.309,2.936-1.773c1.025-0.506,1.875-0.604,2.545-0.296
			c0.594,0.274,0.979,0.858,1.16,1.753c0.289,1.322,0.094,3.368-0.588,6.139c-0.273,1.123-0.617,2.35-1.028,3.681
			c-0.414,1.332-0.783,2.442-1.11,3.333l-0.996,2.792c-0.375,0.974-0.564,1.479-0.568,1.519c-0.158,0.406-0.439,0.574-0.842,0.503
			c-0.401-0.07-0.541-0.327-0.416-0.77c0.043-0.042,0.232-0.548,0.569-1.52l0.994-2.792c0.323-0.852,0.69-1.933,1.101-3.243
			c0.411-1.31,0.752-2.51,1.021-3.593c0.621-2.567,0.814-4.416,0.583-5.545c-0.099-0.545-0.298-0.887-0.593-1.023
			c-0.295-0.177-0.789-0.102-1.485,0.222c-0.901,0.418-1.788,0.964-2.656,1.636c-0.87,0.672-1.774,1.495-2.715,2.468
			c-0.942,0.974-1.7,1.796-2.276,2.468l-2.213,2.698c-4.158,5.066-7.845,10.296-11.062,15.689l1.261,0.799
			c2.954,1.924,5.062,3.374,6.324,4.352c0.284,0.258,0.28,0.562-0.009,0.92c-0.291,0.354-0.602,0.427-0.93,0.212
			c-1.222-0.979-3.312-2.411-6.271-4.296L261.359,59.23z"/>
		<path fill="#FFFFFF" d="M299.667,39.625c-0.015-0.236,0.065-0.457,0.246-0.667c3.222-3.224,6.21-5.514,8.965-6.872
			c2.753-1.356,5.067-1.686,6.944-0.989c1.875,0.698,3.041,2.382,3.502,5.053c0.459,2.67,0.172,6.153-0.863,10.446
			c-1.285,5.18-3.631,10.434-7.036,15.761c-3.444,5.332-7.353,9.511-11.723,12.539c-2.525,1.754-4.786,2.78-6.785,3.078
			c-1.999,0.297-3.543-0.127-4.631-1.272c-1.062-1.031-1.722-2.544-1.979-4.537c-0.258-1.995-0.117-4.254,0.422-6.776
			c0.977-4.488,2.588-9.06,4.83-13.714C293.805,47.018,296.506,43.003,299.667,39.625z M303.812,37.44
			c-3.83,3.07-7.131,7.208-9.897,12.411c-2.81,5.208-4.776,10.396-5.903,15.563c-0.521,2.365-0.664,4.445-0.424,6.244
			s0.801,3.141,1.684,4.025c2.021,1.909,5.299,1.307,9.836-1.812c4.205-2.938,7.961-6.969,11.269-12.091
			c3.306-5.124,5.578-10.234,6.813-15.333c1.018-4.096,1.316-7.332,0.904-9.71c-0.451-2.374-1.429-3.845-2.927-4.412
			c-1.237-0.465-2.8-0.336-4.688,0.387c-1.89,0.725-4.01,2.077-6.36,4.056C304.131,37.004,304.029,37.229,303.812,37.44z"/>
	</g>
</g>
</svg>
