<?xml version="1.0" encoding="utf-8"?>
<!-- Generator: Adobe Illustrator 16.0.0, SVG Export Plug-In . SVG Version: 6.00 Build 0)  -->
<!DOCTYPE svg PUBLIC "-//W3C//DTD SVG 1.1//EN" "http://www.w3.org/Graphics/SVG/1.1/DTD/svg11.dtd">
<svg version="1.1" id="Ebene_1" xmlns="http://www.w3.org/2000/svg" xmlns:xlink="http://www.w3.org/1999/xlink" x="0px" y="0px"
	 width="510px" height="123px" viewBox="0 0 510 123" enable-background="new 0 0 510 123" xml:space="preserve">
<g>
	<polygon fill="#FDF4F1" points="30.951,14.309 0,123 487.792,87.681 510,0 	"/>
	<g>
		<defs>
			<rect id="SVGID_1_" width="510" height="123"/>
		</defs>
		<clipPath id="SVGID_2_">
			<use xlink:href="#SVGID_1_"  overflow="visible"/>
		</clipPath>
		<path clip-path="url(#SVGID_2_)" fill="none" stroke="#182C3A" stroke-width="1.552" stroke-miterlimit="7.483" d="M101.745,45.71
			c-0.372-0.171-0.677-0.051-0.915,0.36c-8.886,14.825-17.134,30.257-24.743,46.296c-0.199,0.408-0.111,0.678,0.265,0.811
			c0.376,0.131,0.664-0.009,0.863-0.416c8.498-17.441,16.741-32.834,24.73-46.176C102.183,46.173,102.116,45.882,101.745,45.71z"/>
		<path clip-path="url(#SVGID_2_)" fill="none" stroke="#182C3A" stroke-width="1.552" stroke-miterlimit="7.483" d="M101.781,91.25
			c0.398,0.11,0.676-0.038,0.836-0.443c3.627-8.184,8.998-19.055,16.114-32.613l3.951-7.556l0.565-0.927
			c-0.135,0.917-0.296,2.073-0.481,3.466c-0.531,3.943-0.957,7.623-1.277,11.039c-0.204,2.303-0.345,4.206-0.425,5.711
			c-0.053,0.872-0.078,1.485-0.076,1.84c0.009,0.276,0.026,0.492,0.049,0.648l0.092,0.229c0.097,0.191,0.222,0.302,0.375,0.329
			c0.301,0.098,0.659,0.033,1.073-0.193c0.248-0.136,0.524-0.353,0.828-0.649c0.434-0.425,0.99-1.076,1.667-1.952
			c0.177-0.209,0.996-1.332,2.458-3.368c1.045-1.413,2.851-3.759,5.417-7.036s4.882-6.033,6.949-8.269
			c1.237-1.389,2.243-2.425,3.017-3.111c0.425-0.345,0.763-0.586,1.011-0.722l0.059-0.004c-0.03,0.279-0.134,0.72-0.315,1.324
			c-0.457,1.374-1.352,3.409-2.688,6.106l-1.472,2.885l-0.305,0.672c-0.004,0.04-0.029,0.082-0.071,0.124l-0.013,0.119l-0.006,0.06
			c-0.044,0.042-0.067,0.084-0.072,0.123l-0.382,0.855l-5.368,11.029c-0.852,1.796-1.976,4.519-3.372,8.166
			c-1.449,3.771-2.532,6.471-3.249,8.099c-0.203,0.449-0.105,0.728,0.292,0.839c0.398,0.109,0.677-0.038,0.836-0.443
			c0.664-1.506,1.771-4.247,3.32-8.222c1.34-3.487,2.44-6.168,3.301-8.044l5.368-11.028c1.427-2.822,2.187-4.315,2.283-4.48
			l0.013-0.119l0.071-0.124l0.019-0.179c1.34-2.736,2.24-4.811,2.701-6.225c0.231-0.727,0.369-1.288,0.411-1.686
			c0.023-0.594-0.171-0.974-0.582-1.143c-0.332-0.174-0.749-0.105-1.249,0.206c-0.37,0.184-0.792,0.49-1.266,0.917
			c-0.853,0.691-1.919,1.752-3.199,3.183c-2.072,2.275-4.401,5.062-6.988,8.36c-2.588,3.298-4.407,5.674-5.456,7.128
			c-1.504,2.079-2.322,3.181-2.452,3.308c-0.59,0.792-1.1,1.379-1.53,1.766c-0.092,0.124-0.178,0.21-0.261,0.255l0.012-1.777
			c0.102-1.348,0.259-3.214,0.471-5.596c0.399-4.171,0.825-7.85,1.277-11.038c0.3-2.112,0.506-3.705,0.619-4.778
			c0.054-0.517,0.076-0.913,0.066-1.189c0.013-0.119,0.005-0.237-0.021-0.353c0.009-0.08-0.005-0.138-0.04-0.175
			c-0.089-0.27-0.271-0.396-0.545-0.376c-0.157,0.011-0.299,0.06-0.425,0.148l-0.13,0.127c-0.004,0.04-0.018,0.071-0.039,0.092
			c-0.022,0.022-0.035,0.052-0.039,0.091c-0.044,0.043-0.089,0.105-0.136,0.187l-0.429,0.74l-1.382,2.583l-3.958,7.615
			c-7.179,13.8-12.551,24.67-16.114,32.613C101.286,90.86,101.383,91.139,101.781,91.25z"/>
		<path clip-path="url(#SVGID_2_)" fill="none" stroke="#182C3A" stroke-width="1.552" stroke-miterlimit="7.483" d="
			M157.808,65.759c-1.207,0.361-2.332,0.678-3.373,0.947c-0.441,0.11-0.645,0.38-0.612,0.812c0.033,0.432,0.269,0.593,0.71,0.482
			c0.683-0.205,1.507-0.439,2.471-0.706c-3.504,6.637-6.86,13.343-10.066,20.117c-0.199,0.407-0.11,0.678,0.266,0.81
			c0.375,0.131,0.663-0.008,0.862-0.416c3.353-7.06,6.856-14.052,10.507-20.976c3.739-1.09,7.331-2.267,10.778-3.535
			c3.245-1.213,5.976-2.351,8.193-3.414c2.668-1.29,4.525-2.447,5.567-3.467c1.92-1.948,2.32-3.91,1.203-5.884
			c-0.858-1.478-2.599-2.895-5.224-4.251c-2.222-1.107-4.699-2.018-7.429-2.735l1.136-1.915c0.238-0.41,0.171-0.701-0.2-0.873
			c-0.372-0.171-0.677-0.051-0.915,0.36l-1.28,2.161c-1.905-0.419-3.367-0.594-4.388-0.522c-0.432,0.03-0.671,0.264-0.717,0.701
			c-0.046,0.438,0.147,0.641,0.579,0.61c0.863-0.06,2.134,0.088,3.812,0.444C165.608,51.424,161.648,58.507,157.808,65.759z
			 M178.316,47.517c2.445,1.211,4.046,2.479,4.803,3.807c0.822,1.442,0.539,2.843-0.851,4.202c-0.878,0.93-2.587,1.997-5.13,3.2
			c-2.174,1.02-4.863,2.136-8.069,3.346c-3.041,1.121-6.252,2.192-9.634,3.218c3.694-6.965,7.511-13.801,11.451-20.509
			C173.661,45.456,176.138,46.367,178.316,47.517z"/>
		<path clip-path="url(#SVGID_2_)" fill="none" stroke="#182C3A" stroke-width="1.552" stroke-miterlimit="7.483" d="M209.87,60.462
			c3.245-1.213,5.976-2.351,8.193-3.414c2.668-1.29,4.525-2.447,5.567-3.467c1.92-1.948,2.32-3.91,1.203-5.884
			c-0.858-1.478-2.599-2.895-5.224-4.251c-2.222-1.107-4.699-2.018-7.429-2.735l1.136-1.915c0.238-0.41,0.171-0.701-0.2-0.873
			c-0.372-0.171-0.677-0.051-0.915,0.36l-1.28,2.161c-1.905-0.419-3.367-0.594-4.388-0.522c-0.432,0.03-0.671,0.264-0.717,0.701
			c-0.046,0.438,0.147,0.641,0.579,0.61c0.863-0.06,2.134,0.088,3.812,0.444c-4.079,6.914-8.039,13.997-11.88,21.249
			c-1.207,0.361-2.332,0.677-3.373,0.947c-0.441,0.109-0.645,0.38-0.612,0.812c0.033,0.433,0.269,0.593,0.71,0.483
			c0.683-0.205,1.507-0.44,2.471-0.706c-3.504,6.637-6.86,13.343-10.066,20.117c-0.199,0.406-0.11,0.678,0.266,0.81
			c0.375,0.13,0.663-0.008,0.862-0.416c4.271-8.741,7.747-15.672,10.429-20.793c0.414,0.88,0.883,1.794,1.407,2.743l1.426,2.562
			l1.714,2.604l1.609,2.492l1.832,2.594l1.687,2.309l1.838,2.534c0.923,1.238,1.485,2.007,1.687,2.31
			c0.241,0.298,0.542,0.307,0.903,0.025c0.361-0.283,0.443-0.594,0.245-0.935c-0.242-0.299-0.824-1.067-1.746-2.305l-1.785-2.479
			l-1.687-2.308l-1.838-2.535l-1.563-2.376c-0.673-1.02-1.225-1.888-1.655-2.607l-1.374-2.508l-1.419-2.623
			C203.641,62.613,206.833,61.542,209.87,60.462z M218.836,44.684c2.445,1.211,4.046,2.479,4.803,3.807
			c0.822,1.442,0.539,2.843-0.851,4.202c-0.878,0.93-2.587,1.997-5.13,3.2c-2.174,1.02-4.863,2.136-8.069,3.346
			c-3.041,1.121-6.252,2.193-9.634,3.218c3.694-6.965,7.511-13.801,11.451-20.509C214.18,42.623,216.657,43.534,218.836,44.684z"/>
		<path clip-path="url(#SVGID_2_)" fill="none" stroke="#182C3A" stroke-width="1.552" stroke-miterlimit="7.483" d="
			M259.185,51.272c0.37,0.172,0.676,0.052,0.914-0.36c0.433-0.779,0.748-1.374,0.947-1.782l0.882-1.719
			c0.438-0.82,0.753-1.512,0.95-2.079c0.195-0.566,0.399-1.212,0.612-1.937s0.354-1.425,0.426-2.101
			c0.071-0.675,0.062-1.326-0.029-1.951c-0.249-1.718-1.123-2.663-2.625-2.835c-1.156-0.116-2.656,0.245-4.499,1.084
			c-1.354,0.648-2.747,1.475-4.178,2.482c-1.431,1.008-2.535,1.874-3.313,2.599c-5.402,5.034-10.429,10.968-15.084,17.804
			c-1.805-0.623-3.373-1.282-4.703-1.979c-0.332-0.174-0.627-0.065-0.882,0.328c-0.256,0.393-0.2,0.694,0.168,0.905
			c1.334,0.657,2.864,1.3,4.591,1.928c-3.012,4.552-5.374,8.86-7.088,12.925c-2.162,5.004-2.474,8.34-0.935,10.008
			c0.843,0.888,2.116,1.192,3.821,0.916c1.666-0.274,3.739-1.09,6.221-2.447c2.027-1.128,4.634-2.75,7.819-4.867
			c3.811-2.515,8.312-5.849,13.504-9.999c0.343-0.3,0.405-0.609,0.185-0.931c-0.22-0.319-0.519-0.348-0.896-0.085
			c-5.235,4.194-9.697,7.523-13.386,9.991c-3.059,2.028-5.622,3.608-7.689,4.739c-2.316,1.267-4.228,2.031-5.737,2.296
			c-1.308,0.21-2.241-0.001-2.798-0.634c-1.188-1.298-0.844-4.202,1.033-8.713c1.705-3.985,4.083-8.255,7.134-12.809l2.603,0.824
			c4.195,1.244,6.983,2.154,8.365,2.729c0.371,0.172,0.676,0.052,0.915-0.36c0.238-0.409,0.171-0.7-0.2-0.873
			c-1.456-0.608-4.302-1.533-8.536-2.776l-2.321-0.725c4.56-6.671,9.472-12.44,14.739-17.307c0.69-0.64,1.71-1.441,3.059-2.403
			c1.348-0.962,2.679-1.765,3.995-2.41c1.559-0.74,2.799-1.044,3.72-0.912c0.966,0.091,1.521,0.743,1.666,1.955
			c0.103,0.506,0.123,1.057,0.061,1.653c-0.063,0.597-0.187,1.217-0.371,1.861s-0.373,1.23-0.565,1.756
			c-0.191,0.526-0.479,1.138-0.864,1.836l-0.883,1.719c-0.202,0.449-0.519,1.042-0.947,1.782
			C258.745,50.811,258.812,51.102,259.185,51.272z"/>
		<path clip-path="url(#SVGID_2_)" fill="none" stroke="#182C3A" stroke-width="1.552" stroke-miterlimit="7.483" d="
			M302.549,33.888c0.255-0.392,0.199-0.695-0.168-0.906c-3.587-1.84-6.535-1.792-8.843,0.145c-1.795,1.507-3.116,4.243-3.961,8.208
			c-0.574,2.487-1.02,5.99-1.339,10.51c-0.312,4.441-0.567,7.063-0.769,7.866c-1.142,4.934-2.857,9.019-5.146,12.256
			c-1.418,1.993-3.063,3.559-4.938,4.695c-1.872,1.137-3.711,1.749-5.513,1.836c-1.846,0.129-3.474-0.32-4.886-1.345
			c-1.412-1.026-2.395-2.624-2.945-4.795c-0.077-0.39-0.328-0.5-0.755-0.332s-0.584,0.465-0.474,0.891
			c0.605,2.404,1.704,4.182,3.299,5.333c1.589,1.19,3.444,1.712,5.564,1.563c2.076-0.106,4.155-0.793,6.238-2.063
			c2.082-1.27,3.88-2.984,5.394-5.142c2.463-3.407,4.277-7.697,5.444-12.868c0.21-0.882,0.472-3.564,0.787-8.045
			c0.312-4.44,0.731-7.883,1.261-10.327c0.809-3.608,1.979-6.037,3.515-7.289c1.756-1.503,4.206-1.457,7.352,0.137
			C301.999,34.391,302.293,34.281,302.549,33.888z"/>
		<path clip-path="url(#SVGID_2_)" fill="none" stroke="#182C3A" stroke-width="1.552" stroke-miterlimit="7.483" d="
			M340.831,31.211c0.255-0.392,0.199-0.695-0.168-0.906c-3.587-1.84-6.535-1.792-8.843,0.145c-1.795,1.507-3.116,4.243-3.961,8.208
			c-0.574,2.487-1.021,5.99-1.339,10.51c-0.312,4.441-0.567,7.063-0.769,7.866c-1.142,4.933-2.857,9.018-5.146,12.256
			c-1.418,1.993-3.063,3.558-4.938,4.695c-1.873,1.137-3.711,1.749-5.513,1.836c-1.846,0.129-3.474-0.32-4.886-1.345
			c-1.412-1.026-2.395-2.624-2.945-4.796c-0.076-0.389-0.328-0.5-0.755-0.332c-0.427,0.169-0.584,0.466-0.474,0.892
			c0.605,2.404,1.703,4.182,3.299,5.333c1.589,1.189,3.443,1.712,5.564,1.562c2.076-0.105,4.155-0.793,6.238-2.062
			c2.082-1.271,3.88-2.984,5.393-5.143c2.463-3.406,4.278-7.696,5.445-12.868c0.21-0.882,0.471-3.564,0.787-8.045
			c0.311-4.44,0.73-7.883,1.261-10.327c0.809-3.608,1.979-6.037,3.515-7.289c1.756-1.503,4.205-1.457,7.352,0.137
			C340.281,31.714,340.575,31.604,340.831,31.211z"/>
		<path clip-path="url(#SVGID_2_)" fill="none" stroke="#182C3A" stroke-width="1.552" stroke-miterlimit="7.483" d="
			M359.678,32.675c-0.308-0.235-0.615-0.184-0.922,0.153c-3.073,3.648-6.071,8.257-8.995,13.827
			c-2.92,5.531-4.986,10.529-6.195,14.993c-0.82,2.978-1.289,5.22-1.408,6.727c-0.281,3.413,0.57,5.325,2.553,5.74
			c2.294,0.431,4.917-0.425,7.87-2.563c1.939-1.397,3.978-3.354,6.113-5.872c2.174-2.52,4.244-5.248,6.21-8.188
			c1.965-2.938,3.814-6.076,5.549-9.413c1.734-3.337,3.21-6.34,4.426-9.01c1.217-2.669,2.602-5.834,4.155-9.493
			c0.198-0.408,0.1-0.668-0.299-0.779c-0.397-0.11-0.678,0.058-0.842,0.503c-1.55,3.621-2.943,6.766-4.178,9.436
			c-1.236,2.671-2.698,5.644-4.387,8.918c-1.688,3.276-3.505,6.362-5.445,9.259c-1.942,2.898-3.977,5.565-6.104,8.002
			c-2.084,2.395-4.035,4.268-5.852,5.618c-2.575,1.876-4.817,2.624-6.726,2.245c-1.416-0.257-1.999-1.755-1.75-4.494
			c0.107-1.389,0.568-3.552,1.384-6.488c1.201-4.384,3.235-9.282,6.104-14.691c2.837-5.485,5.766-9.991,8.787-13.516
			C360,33.215,359.983,32.911,359.678,32.675z"/>
		<path clip-path="url(#SVGID_2_)" fill="none" stroke="#182C3A" stroke-width="1.552" stroke-miterlimit="7.483" d="
			M379.119,71.856c0.398,0.11,0.676-0.038,0.836-0.442c3.627-8.185,8.998-19.056,16.114-32.613l3.951-7.556l0.564-0.927
			c-0.135,0.917-0.296,2.073-0.48,3.466c-0.531,3.943-0.957,7.623-1.277,11.039c-0.204,2.303-0.345,4.206-0.425,5.711
			c-0.053,0.872-0.078,1.485-0.076,1.84c0.009,0.276,0.026,0.492,0.049,0.648l0.093,0.23c0.097,0.191,0.222,0.301,0.375,0.329
			c0.301,0.097,0.658,0.033,1.072-0.194c0.248-0.135,0.524-0.352,0.828-0.649c0.435-0.425,0.99-1.076,1.667-1.952
			c0.177-0.209,0.997-1.332,2.458-3.368c1.045-1.413,2.852-3.759,5.417-7.036c2.566-3.277,4.882-6.033,6.949-8.269
			c1.237-1.389,2.243-2.425,3.017-3.111c0.426-0.345,0.764-0.586,1.012-0.722l0.059-0.004c-0.03,0.279-0.134,0.72-0.314,1.324
			c-0.457,1.374-1.353,3.409-2.688,6.106l-1.472,2.885l-0.306,0.672c-0.004,0.04-0.028,0.082-0.07,0.124l-0.014,0.119l-0.006,0.06
			c-0.044,0.042-0.066,0.084-0.072,0.123l-0.382,0.855l-5.368,11.029c-0.852,1.796-1.976,4.518-3.371,8.166
			c-1.449,3.771-2.532,6.471-3.249,8.099c-0.203,0.448-0.105,0.727,0.292,0.838c0.397,0.109,0.677-0.038,0.836-0.443
			c0.664-1.506,1.771-4.247,3.319-8.222c1.34-3.487,2.44-6.168,3.302-8.044l5.367-11.028c1.428-2.822,2.188-4.315,2.283-4.48
			l0.013-0.119l0.071-0.124l0.02-0.179c1.34-2.736,2.239-4.811,2.7-6.225c0.231-0.727,0.369-1.288,0.411-1.686
			c0.023-0.594-0.171-0.974-0.582-1.143c-0.332-0.174-0.749-0.105-1.249,0.206c-0.37,0.184-0.792,0.49-1.266,0.917
			c-0.852,0.691-1.919,1.752-3.199,3.183c-2.071,2.275-4.4,5.062-6.987,8.36c-2.589,3.298-4.407,5.674-5.456,7.128
			c-1.505,2.079-2.322,3.181-2.452,3.308c-0.59,0.792-1.101,1.379-1.53,1.765c-0.092,0.124-0.178,0.21-0.261,0.255l0.012-1.777
			c0.102-1.348,0.259-3.214,0.471-5.596c0.399-4.171,0.825-7.85,1.277-11.038c0.3-2.112,0.506-3.705,0.619-4.778
			c0.054-0.517,0.076-0.913,0.065-1.189c0.014-0.119,0.006-0.237-0.021-0.353c0.009-0.08-0.005-0.138-0.04-0.175
			c-0.088-0.27-0.271-0.396-0.545-0.376c-0.157,0.011-0.299,0.06-0.425,0.148l-0.13,0.127c-0.005,0.04-0.019,0.071-0.039,0.092
			c-0.022,0.022-0.035,0.052-0.039,0.091c-0.044,0.043-0.089,0.105-0.137,0.187l-0.429,0.74l-1.382,2.583l-3.958,7.615
			c-7.179,13.8-12.551,24.669-16.114,32.613C378.624,71.467,378.722,71.746,379.119,71.856z"/>
	</g>
	<g>
		<path fill="#182C3A" d="M101.946,46.584c-7.989,13.342-16.233,28.735-24.73,46.176c-0.199,0.408-0.487,0.547-0.863,0.416
			c-0.376-0.132-0.464-0.402-0.265-0.811c7.609-16.039,15.857-31.47,24.743-46.296c0.238-0.41,0.543-0.531,0.916-0.36
			C102.117,45.882,102.184,46.173,101.946,46.584z"/>
		<path fill="#182C3A" d="M101.49,90.412c3.562-7.943,8.934-18.813,16.114-32.612l3.957-7.616l1.382-2.583l0.429-0.74
			c0.047-0.082,0.093-0.145,0.137-0.187c0.004-0.039,0.016-0.07,0.039-0.091c0.021-0.021,0.034-0.052,0.039-0.092l0.13-0.127
			c0.126-0.087,0.268-0.137,0.424-0.148c0.275-0.019,0.457,0.107,0.546,0.376c0.035,0.037,0.048,0.096,0.04,0.175
			c0.026,0.116,0.035,0.235,0.022,0.354c0.008,0.276-0.013,0.672-0.068,1.188c-0.113,1.073-0.318,2.666-0.618,4.778
			c-0.453,3.188-0.878,6.868-1.278,11.038c-0.211,2.383-0.368,4.249-0.471,5.597l-0.011,1.775c0.082-0.043,0.169-0.13,0.261-0.254
			c0.429-0.386,0.94-0.973,1.529-1.765c0.13-0.127,0.947-1.229,2.453-3.309c1.048-1.453,2.867-3.829,5.455-7.128
			c2.588-3.297,4.917-6.084,6.989-8.36c1.281-1.43,2.347-2.493,3.199-3.184c0.472-0.426,0.895-0.732,1.266-0.917
			c0.499-0.311,0.915-0.38,1.249-0.206c0.41,0.169,0.604,0.55,0.582,1.144c-0.042,0.396-0.18,0.959-0.412,1.686
			c-0.461,1.414-1.36,3.489-2.701,6.225l-0.019,0.18l-0.071,0.123l-0.013,0.12c-0.096,0.165-0.857,1.657-2.284,4.48l-5.368,11.028
			c-0.86,1.876-1.96,4.557-3.301,8.043c-1.548,3.977-2.655,6.717-3.32,8.223c-0.16,0.404-0.438,0.554-0.835,0.442
			c-0.397-0.11-0.495-0.388-0.292-0.837c0.717-1.629,1.799-4.328,3.249-8.099c1.396-3.648,2.519-6.371,3.372-8.166l5.368-11.028
			l0.381-0.856c0.004-0.038,0.028-0.08,0.072-0.124l0.006-0.06l0.013-0.119c0.042-0.042,0.067-0.082,0.071-0.123l0.306-0.673
			l1.472-2.884c1.335-2.697,2.23-4.732,2.687-6.106c0.181-0.605,0.286-1.045,0.315-1.325l-0.06,0.004
			c-0.248,0.137-0.585,0.376-1.011,0.723c-0.774,0.685-1.778,1.721-3.016,3.11c-2.067,2.236-4.383,4.992-6.949,8.268
			c-2.566,3.277-4.373,5.624-5.417,7.038c-1.461,2.035-2.281,3.157-2.458,3.367c-0.677,0.876-1.234,1.527-1.667,1.951
			c-0.305,0.299-0.58,0.515-0.828,0.65c-0.414,0.227-0.771,0.29-1.072,0.192c-0.154-0.027-0.278-0.138-0.375-0.329l-0.092-0.229
			c-0.023-0.156-0.04-0.373-0.048-0.649c-0.003-0.354,0.022-0.967,0.076-1.84c0.08-1.505,0.221-3.408,0.424-5.711
			c0.32-3.416,0.746-7.096,1.278-11.039c0.185-1.393,0.346-2.548,0.481-3.466l-0.564,0.928l-3.952,7.555
			c-7.116,13.558-12.487,24.429-16.114,32.614c-0.16,0.404-0.438,0.553-0.835,0.442C101.384,91.139,101.286,90.86,101.49,90.412z"/>
		<path fill="#182C3A" d="M169.688,44.51c-1.679-0.355-2.948-0.503-3.812-0.443c-0.433,0.03-0.626-0.173-0.58-0.611
			c0.046-0.438,0.285-0.671,0.717-0.702c1.021-0.071,2.483,0.104,4.389,0.522l1.279-2.161c0.237-0.41,0.543-0.53,0.916-0.36
			c0.371,0.172,0.438,0.463,0.2,0.874l-1.137,1.915c2.731,0.717,5.208,1.628,7.43,2.735c2.625,1.355,4.366,2.773,5.225,4.252
			c1.116,1.973,0.716,3.935-1.204,5.884c-1.042,1.02-2.898,2.176-5.568,3.467c-2.215,1.062-4.947,2.201-8.192,3.413
			c-3.447,1.27-7.039,2.446-10.778,3.536c-3.65,6.924-7.154,13.915-10.506,20.976c-0.2,0.407-0.487,0.547-0.863,0.416
			c-0.376-0.133-0.465-0.402-0.265-0.812c3.206-6.773,6.561-13.479,10.065-20.115c-0.963,0.265-1.788,0.5-2.471,0.706
			c-0.441,0.109-0.676-0.052-0.709-0.483s0.17-0.702,0.612-0.812c1.041-0.27,2.166-0.586,3.373-0.946
			C161.649,58.508,165.609,51.424,169.688,44.51z M170.888,44.782c-3.94,6.707-7.757,13.543-11.452,20.509
			c3.382-1.026,6.593-2.098,9.635-3.219c3.205-1.21,5.895-2.326,8.069-3.346c2.542-1.203,4.252-2.27,5.13-3.199
			c1.39-1.359,1.673-2.76,0.851-4.203c-0.757-1.327-2.358-2.596-4.802-3.807C176.138,46.367,173.662,45.456,170.888,44.782z"/>
		<path fill="#182C3A" d="M200.295,63.678l1.42,2.621l1.374,2.51c0.43,0.72,0.982,1.588,1.655,2.606l1.562,2.376l1.839,2.534
			l1.686,2.309l1.786,2.48c0.922,1.237,1.503,2.004,1.745,2.305c0.198,0.341,0.116,0.651-0.245,0.934
			c-0.361,0.282-0.662,0.272-0.903-0.025c-0.202-0.302-0.764-1.071-1.687-2.309l-1.837-2.535l-1.688-2.309l-1.831-2.594l-1.61-2.492
			l-1.714-2.603l-1.425-2.563c-0.526-0.949-0.994-1.864-1.408-2.742c-2.683,5.121-6.158,12.052-10.428,20.793
			c-0.2,0.407-0.487,0.547-0.863,0.416c-0.376-0.133-0.465-0.403-0.265-0.812c3.205-6.773,6.561-13.479,10.065-20.116
			c-0.963,0.266-1.788,0.501-2.471,0.706c-0.441,0.109-0.677-0.051-0.709-0.483c-0.033-0.431,0.169-0.702,0.611-0.812
			c1.042-0.27,2.167-0.586,3.374-0.945c3.84-7.252,7.8-14.336,11.88-21.25c-1.679-0.355-2.949-0.503-3.812-0.443
			c-0.432,0.03-0.625-0.173-0.579-0.611c0.046-0.438,0.285-0.671,0.716-0.702c1.021-0.071,2.483,0.104,4.389,0.522l1.28-2.161
			c0.237-0.41,0.542-0.53,0.915-0.359c0.371,0.172,0.438,0.463,0.201,0.874l-1.137,1.914c2.731,0.718,5.207,1.628,7.43,2.735
			c2.625,1.355,4.366,2.773,5.224,4.252c1.117,1.973,0.716,3.935-1.203,5.884c-1.042,1.02-2.898,2.177-5.568,3.467
			c-2.216,1.062-4.947,2.2-8.192,3.413C206.833,61.542,203.642,62.614,200.295,63.678z M211.407,41.949
			c-3.94,6.707-7.757,13.543-11.452,20.508c3.382-1.025,6.593-2.097,9.635-3.218c3.205-1.21,5.894-2.326,8.068-3.346
			c2.543-1.203,4.253-2.27,5.131-3.199c1.39-1.359,1.673-2.76,0.851-4.203c-0.758-1.327-2.358-2.596-4.803-3.807
			C216.658,43.534,214.181,42.623,211.407,41.949z"/>
		<path fill="#182C3A" d="M258.984,50.399c0.429-0.74,0.744-1.333,0.947-1.782l0.883-1.72c0.385-0.697,0.673-1.309,0.865-1.836
			c0.191-0.525,0.38-1.111,0.564-1.755c0.185-0.643,0.308-1.264,0.371-1.861c0.062-0.596,0.042-1.146-0.061-1.652
			c-0.146-1.212-0.7-1.865-1.665-1.955c-0.922-0.132-2.161,0.171-3.721,0.912c-1.316,0.645-2.646,1.448-3.995,2.41
			c-1.349,0.962-2.368,1.763-3.059,2.402c-5.267,4.867-10.179,10.636-14.74,17.307l2.321,0.726c4.234,1.242,7.08,2.168,8.536,2.777
			c0.372,0.172,0.439,0.462,0.2,0.873c-0.238,0.412-0.543,0.532-0.914,0.36c-1.382-0.573-4.17-1.484-8.366-2.729l-2.603-0.823
			c-3.05,4.553-5.429,8.823-7.133,12.809c-1.878,4.511-2.222,7.413-1.033,8.714c0.556,0.631,1.49,0.842,2.798,0.632
			c1.508-0.264,3.419-1.029,5.736-2.294c2.067-1.133,4.631-2.712,7.689-4.741c3.689-2.467,8.151-5.798,13.387-9.991
			c0.377-0.263,0.676-0.234,0.896,0.086c0.219,0.32,0.157,0.63-0.186,0.93c-5.192,4.15-9.693,7.484-13.504,9.999
			c-3.186,2.117-5.791,3.739-7.819,4.868c-2.482,1.356-4.555,2.173-6.221,2.447c-1.704,0.277-2.978-0.028-3.821-0.917
			c-1.539-1.668-1.227-5.004,0.937-10.008c1.713-4.065,4.075-8.373,7.086-12.925c-1.726-0.626-3.256-1.27-4.591-1.927
			c-0.369-0.211-0.424-0.512-0.167-0.906c0.254-0.392,0.55-0.5,0.882-0.327c1.329,0.696,2.897,1.356,4.703,1.979
			c4.654-6.836,9.682-12.771,15.084-17.804c0.778-0.725,1.882-1.591,3.313-2.6c1.431-1.007,2.824-1.834,4.179-2.481
			c1.842-0.839,3.341-1.201,4.499-1.084c1.502,0.172,2.376,1.116,2.625,2.835c0.089,0.625,0.1,1.276,0.028,1.951
			c-0.071,0.677-0.212,1.376-0.426,2.101c-0.214,0.726-0.417,1.371-0.612,1.937c-0.197,0.566-0.513,1.259-0.949,2.079l-0.883,1.718
			c-0.199,0.408-0.515,1.003-0.947,1.783c-0.239,0.411-0.543,0.531-0.914,0.359C258.812,51.102,258.745,50.811,258.984,50.399z"/>
		<path fill="#182C3A" d="M301.607,34.22c-3.145-1.595-5.595-1.64-7.351-0.136c-1.534,1.251-2.707,3.681-3.515,7.288
			c-0.529,2.444-0.95,5.888-1.261,10.328c-0.315,4.48-0.577,7.162-0.787,8.043c-1.167,5.172-2.981,9.462-5.444,12.87
			c-1.514,2.158-3.312,3.871-5.394,5.141c-2.082,1.271-4.161,1.958-6.238,2.064c-2.12,0.148-3.976-0.373-5.564-1.564
			c-1.595-1.151-2.694-2.928-3.299-5.332c-0.109-0.427,0.047-0.723,0.474-0.893c0.428-0.167,0.679-0.056,0.755,0.332
			c0.55,2.173,1.533,3.77,2.945,4.796c1.412,1.025,3.04,1.474,4.887,1.345c1.801-0.087,3.64-0.697,5.512-1.835
			c1.874-1.138,3.52-2.703,4.938-4.695c2.288-3.237,4.004-7.323,5.147-12.255c0.2-0.804,0.456-3.426,0.769-7.867
			c0.317-4.519,0.765-8.022,1.338-10.51c0.846-3.964,2.165-6.7,3.961-8.208c2.308-1.935,5.256-1.983,8.844-0.144
			c0.366,0.211,0.423,0.514,0.167,0.906S301.941,34.396,301.607,34.22z"/>
		<path fill="#182C3A" d="M339.891,31.543c-3.146-1.595-5.596-1.64-7.352-0.136c-1.534,1.251-2.707,3.681-3.515,7.288
			c-0.529,2.444-0.95,5.888-1.26,10.328c-0.316,4.48-0.578,7.163-0.787,8.044c-1.168,5.171-2.981,9.462-5.445,12.87
			c-1.514,2.157-3.312,3.871-5.394,5.141c-2.082,1.271-4.161,1.958-6.238,2.064c-2.119,0.148-3.976-0.373-5.563-1.564
			c-1.595-1.151-2.694-2.928-3.3-5.332c-0.109-0.427,0.047-0.723,0.474-0.893c0.428-0.167,0.68-0.056,0.755,0.332
			c0.55,2.173,1.534,3.77,2.946,4.795c1.411,1.026,3.04,1.475,4.886,1.346c1.802-0.087,3.64-0.698,5.513-1.835
			c1.873-1.139,3.52-2.703,4.938-4.695c2.288-3.237,4.003-7.323,5.146-12.256c0.2-0.804,0.457-3.426,0.769-7.867
			c0.317-4.52,0.765-8.022,1.338-10.51c0.846-3.965,2.166-6.701,3.962-8.208c2.307-1.936,5.255-1.983,8.843-0.145
			c0.366,0.211,0.423,0.515,0.168,0.906C340.518,31.608,340.224,31.719,339.891,31.543z"/>
		<path fill="#182C3A" d="M359.669,33.594c-3.021,3.526-5.951,8.031-8.787,13.516c-2.868,5.409-4.903,10.306-6.104,14.69
			c-0.815,2.938-1.277,5.101-1.383,6.489c-0.25,2.739,0.334,4.238,1.749,4.494c1.909,0.379,4.15-0.37,6.726-2.246
			c1.816-1.35,3.768-3.223,5.852-5.618c2.127-2.437,4.161-5.104,6.104-8.002c1.941-2.896,3.757-5.982,5.444-9.257
			c1.69-3.274,3.151-6.247,4.388-8.918c1.234-2.67,2.629-5.816,4.178-9.436c0.163-0.446,0.444-0.613,0.842-0.503
			c0.398,0.11,0.497,0.371,0.299,0.778c-1.554,3.661-2.939,6.824-4.155,9.493c-1.216,2.67-2.692,5.673-4.425,9.01
			c-1.735,3.338-3.585,6.475-5.55,9.414c-1.967,2.939-4.036,5.667-6.21,8.187c-2.136,2.516-4.174,4.475-6.113,5.872
			c-2.953,2.14-5.575,2.994-7.869,2.562c-1.983-0.415-2.835-2.326-2.554-5.739c0.119-1.508,0.589-3.75,1.408-6.728
			c1.209-4.465,3.274-9.462,6.194-14.993c2.925-5.569,5.923-10.179,8.995-13.827c0.308-0.336,0.616-0.387,0.923-0.152
			C359.925,32.915,359.942,33.22,359.669,33.594z"/>
		<path fill="#182C3A" d="M378.77,71.023c3.562-7.943,8.935-18.814,16.114-32.613l3.957-7.616l1.383-2.582l0.429-0.741
			c0.048-0.082,0.093-0.144,0.136-0.187c0.005-0.039,0.017-0.07,0.039-0.091c0.021-0.021,0.034-0.052,0.039-0.092l0.13-0.127
			c0.127-0.087,0.268-0.137,0.425-0.148c0.274-0.019,0.457,0.107,0.546,0.376c0.034,0.037,0.048,0.096,0.039,0.175
			c0.026,0.116,0.034,0.235,0.021,0.354c0.01,0.276-0.012,0.672-0.066,1.188c-0.112,1.073-0.318,2.666-0.619,4.778
			c-0.451,3.188-0.877,6.868-1.276,11.039c-0.212,2.382-0.368,4.248-0.472,5.596l-0.011,1.775c0.082-0.043,0.169-0.13,0.261-0.254
			c0.429-0.386,0.939-0.973,1.529-1.764c0.131-0.127,0.947-1.229,2.453-3.309c1.048-1.454,2.866-3.83,5.455-7.128
			c2.587-3.297,4.916-6.084,6.987-8.36c1.282-1.431,2.348-2.493,3.199-3.184c0.474-0.427,0.896-0.732,1.267-0.917
			c0.5-0.311,0.916-0.38,1.249-0.207c0.411,0.169,0.605,0.55,0.582,1.144c-0.042,0.396-0.18,0.958-0.411,1.686
			c-0.461,1.414-1.36,3.489-2.701,6.225l-0.019,0.18l-0.072,0.123l-0.013,0.12c-0.095,0.165-0.855,1.657-2.282,4.48l-5.369,11.028
			c-0.859,1.876-1.96,4.557-3.3,8.043c-1.548,3.976-2.655,6.716-3.319,8.223c-0.16,0.403-0.438,0.553-0.836,0.442
			c-0.397-0.111-0.496-0.389-0.292-0.838c0.716-1.628,1.799-4.328,3.248-8.098c1.396-3.649,2.52-6.371,3.371-8.167l5.369-11.028
			l0.382-0.857c0.004-0.038,0.028-0.079,0.072-0.123l0.006-0.06l0.013-0.119c0.043-0.042,0.067-0.082,0.071-0.123l0.305-0.673
			l1.472-2.884c1.337-2.697,2.232-4.732,2.688-6.106c0.181-0.605,0.286-1.045,0.315-1.325l-0.06,0.004
			c-0.249,0.137-0.586,0.376-1.011,0.723c-0.774,0.685-1.78,1.721-3.017,3.11c-2.067,2.235-4.383,4.992-6.95,8.268
			c-2.565,3.278-4.371,5.624-5.416,7.038c-1.462,2.035-2.281,3.158-2.459,3.368c-0.676,0.875-1.232,1.526-1.666,1.95
			c-0.305,0.299-0.58,0.515-0.828,0.65c-0.414,0.227-0.771,0.291-1.072,0.192c-0.154-0.027-0.279-0.138-0.375-0.329l-0.093-0.229
			c-0.023-0.155-0.04-0.373-0.049-0.649c-0.003-0.355,0.022-0.967,0.076-1.839c0.08-1.505,0.222-3.409,0.425-5.711
			c0.32-3.416,0.745-7.096,1.277-11.039c0.186-1.394,0.346-2.548,0.48-3.466l-0.563,0.928l-3.953,7.555
			c-7.115,13.558-12.487,24.43-16.113,32.613c-0.159,0.405-0.438,0.554-0.836,0.442C378.663,71.75,378.566,71.472,378.77,71.023z"/>
	</g>
</g>
</svg>
