<?xml version="1.0" encoding="utf-8"?>
<!-- Generator: Adobe Illustrator 16.0.0, SVG Export Plug-In . SVG Version: 6.00 Build 0)  -->
<!DOCTYPE svg PUBLIC "-//W3C//DTD SVG 1.1//EN" "http://www.w3.org/Graphics/SVG/1.1/DTD/svg11.dtd">
<svg version="1.1" id="Ebene_1" xmlns="http://www.w3.org/2000/svg" xmlns:xlink="http://www.w3.org/1999/xlink" x="0px" y="0px"
	 width="485px" height="122px" viewBox="0 0 485 122" enable-background="new 0 0 485 122" xml:space="preserve">
<g>
	<polygon fill="#FDF4F1" points="23.27,34.776 0,123 459.958,88.84 485,1 	"/>
	<g>
		<defs>
			<rect id="SVGID_1_" y="1" width="485" height="122"/>
		</defs>
		<clipPath id="SVGID_2_">
			<use xlink:href="#SVGID_1_"  overflow="visible"/>
		</clipPath>
		<path clip-path="url(#SVGID_2_)" fill="none" stroke="#182C3A" stroke-width="1.552" stroke-miterlimit="7.483" d="
			M191.995,55.877c0.384,0.053,0.636-0.123,0.757-0.526c0.313-1.126,1.418-2.368,3.314-3.724c1.723-1.186,3.886-2.303,6.491-3.354
			c2.277-0.908,4.374-1.568,6.288-1.978c0.842-0.216,1.515-0.323,2.021-0.319c0.196-0.014,0.351-0.005,0.465,0.026
			c0.045,0.313-0.125,0.818-0.51,1.516c-0.434,0.78-1.06,1.731-1.879,2.853l-1.424,1.876c-0.538,0.669-1.031,1.265-1.476,1.789
			c-0.445,0.525-0.713,0.849-0.804,0.974c-7.514,9.561-13.477,17.336-17.886,23.325c-1.323,1.83-2.215,3.076-2.674,3.738
			c-0.61,0.99-1.068,1.831-1.376,2.523c-0.158,0.406-0.256,0.768-0.289,1.086c-0.046,0.438,0.036,0.767,0.247,0.989
			c0.386,0.406,1.196,0.666,2.433,0.775c0.93,0.055,2.121,0.03,3.574-0.071c2.08-0.146,4.135-0.407,6.162-0.786
			c1.072-0.193,2.17-0.428,3.289-0.703c1.116-0.236,2.385-0.532,3.807-0.889c1.42-0.355,2.51-0.618,3.269-0.79
			c0.362-0.104,0.533-0.343,0.515-0.717c-0.02-0.374-0.229-0.525-0.624-0.46c-0.72,0.169-1.79,0.432-3.21,0.787
			c-1.423,0.356-2.701,0.662-3.84,0.919c-1.138,0.257-2.204,0.48-3.197,0.668c-1.989,0.376-4.004,0.635-6.045,0.778
			c-1.375,0.096-2.508,0.116-3.397,0.06c-0.965-0.09-1.573-0.246-1.822-0.465l0.02-0.179c0.021-0.198,0.084-0.439,0.192-0.723
			c0.254-0.57,0.686-1.33,1.292-2.281c0.42-0.66,1.268-1.864,2.543-3.61c4.279-5.863,10.241-13.638,17.887-23.326
			c0.09-0.125,0.358-0.459,0.807-1.004l1.478-1.819l1.483-1.88c0.862-1.164,1.513-2.157,1.95-2.977
			c0.588-1.145,0.795-2.009,0.622-2.588c-0.088-0.27-0.284-0.454-0.585-0.551c-0.231-0.023-0.502-0.044-0.812-0.062
			c-0.585,0.002-1.337,0.114-2.257,0.335c-1.993,0.416-4.171,1.121-6.536,2.115c-2.645,1.053-4.891,2.216-6.738,3.489
			c-2.229,1.538-3.534,3.029-3.921,4.476C191.479,55.599,191.61,55.826,191.995,55.877z"/>
		<path clip-path="url(#SVGID_2_)" fill="none" stroke="#182C3A" stroke-width="1.552" stroke-miterlimit="7.483" d="
			M231.954,47.815c-4.355,3.619-8.108,7.986-11.257,13.098c-3.148,5.113-5.337,10.356-6.563,15.728
			c-1.074,4.653-0.571,7.656,1.508,9.009c2.148,1.428,5.27,0.481,9.36-2.844c4.348-3.539,8.165-7.969,11.452-13.289
			c3.335-5.4,5.777-10.84,7.328-16.314c0.746-2.657,1.074-4.849,0.983-6.579c-0.122-1.806-0.697-3.009-1.726-3.608
			c-1.024-0.639-2.417-0.561-4.175,0.232c-1.752,0.715-3.764,2.059-6.037,4.033l-0.391,0.382
			C232.244,47.639,232.084,47.688,231.954,47.815z M227.937,53.779l2.762-2.916c1.094-1.141,2.046-2.037,2.855-2.685
			c2.146-1.886,4.017-3.181,5.61-3.884c1.386-0.571,2.445-0.645,3.181-0.223c0.734,0.422,1.144,1.361,1.225,2.815
			c0.111,1.531-0.202,3.585-0.94,6.162c-1.546,5.434-3.917,10.749-7.112,15.944c-3.24,5.237-6.947,9.541-11.121,12.909
			c-3.621,2.938-6.288,3.834-7.999,2.69c-0.768-0.498-1.253-1.431-1.46-2.799c-0.247-1.362-0.126-3.067,0.362-5.114
			c0.971-4.052,2.46-8.022,4.468-11.912c2.05-3.931,4.533-7.538,7.451-10.819C227.475,54.087,227.715,54.031,227.937,53.779z"/>
		<path clip-path="url(#SVGID_2_)" fill="none" stroke="#182C3A" stroke-width="1.552" stroke-miterlimit="7.483" d="
			M257.459,51.004c0.202,0.302,0.472,0.322,0.812,0.062c2.317-1.662,4.709-3.644,7.173-5.947c0.82-0.768,1.4-1.282,1.739-1.542
			l-0.284,0.493c-0.403,0.857-1.002,1.925-1.798,3.204l-1.982,3.275c-0.745,1.157-1.218,1.94-1.416,2.348
			c-0.922,1.722-1.875,3.564-2.861,5.527l-2.397,5.02l-2.657,5.81l-2.228,5.067l-2.599,5.805c-1.291,3.011-2.042,4.779-2.253,5.307
			c-0.195,0.368-0.113,0.609,0.246,0.723c0.358,0.112,0.617-0.034,0.777-0.439c0.298-0.613,1.088-2.384,2.37-5.314l2.474-5.736
			l2.287-5.072c1.075-2.443,1.938-4.357,2.592-5.745l2.516-5.029l2.743-5.518c0.147-0.286,0.596-1.028,1.346-2.225l2.039-3.279
			c0.806-1.359,1.43-2.467,1.87-3.327c0.588-1.145,0.871-1.994,0.853-2.545c-0.02-0.196-0.102-0.348-0.245-0.457
			c-0.185-0.105-0.378-0.111-0.582-0.018c-0.122,0.048-0.229,0.134-0.32,0.259l-0.194,0.191l-0.065,0.064
			c-0.593,0.436-1.494,1.229-2.706,2.379c-2.29,2.134-4.637,4.073-7.042,5.819C257.325,50.422,257.257,50.703,257.459,51.004z"/>
		<path clip-path="url(#SVGID_2_)" fill="none" stroke="#182C3A" stroke-width="1.552" stroke-miterlimit="7.483" d="
			M279.743,45.628c-0.099,0.382,0.044,0.599,0.429,0.651c0.925,0.093,2.691-0.208,5.298-0.903c1.766-0.479,4.219-1.203,7.361-2.172
			l6.771-2.131c0.964-0.264,1.701-0.434,2.217-0.51c0.277-0.058,0.497-0.094,0.653-0.105l0.178-0.012
			c0.029,0.077,0.062,0.134,0.099,0.17c-0.256,0.571-0.712,1.214-1.372,1.931l-0.978,0.956l-0.99,1.075
			c-3.937,4.813-6.866,8.589-8.79,11.327c-1.597,2.204-4.99,7.235-10.181,15.095c-0.646,0.952-1.565,2.457-2.755,4.512
			c-1.269,2.062-2.411,3.838-3.425,5.33c-1.015,1.492-2.07,2.827-3.169,4.01c-0.269,0.334-0.27,0.62-0.003,0.857
			c0.268,0.238,0.553,0.207,0.857-0.089c1.106-1.261,2.189-2.669,3.25-4.223c1.06-1.554,2.226-3.382,3.5-5.481
			c1.272-2.102,2.187-3.566,2.742-4.395c4.921-7.525,8.275-12.553,10.062-15.085c1.955-2.662,4.882-6.398,8.778-11.208l0.859-0.948
			l0.984-1.016c0.829-0.847,1.4-1.636,1.71-2.368c0.147-0.286,0.141-0.602-0.017-0.946c-0.098-0.19-0.236-0.358-0.415-0.504
			c-0.146-0.108-0.392-0.169-0.741-0.185c-0.196,0.014-0.474,0.054-0.83,0.118c-0.555,0.078-1.353,0.252-2.395,0.522
			c-0.723,0.209-2.98,0.919-6.771,2.131c-3.146,1.01-5.58,1.732-7.302,2.168c-2.406,0.641-4.055,0.934-4.944,0.878
			C280.065,45.064,279.842,45.247,279.743,45.628z"/>
	</g>
	<g>
		<path fill="#182C3A" d="M191.601,55.196c0.386-1.447,1.69-2.938,3.919-4.476c1.849-1.274,4.094-2.438,6.739-3.49
			c2.364-0.994,4.543-1.698,6.536-2.115c0.92-0.221,1.673-0.333,2.257-0.335c0.311,0.018,0.581,0.039,0.812,0.062
			c0.301,0.097,0.496,0.281,0.585,0.551c0.173,0.58-0.035,1.444-0.623,2.589c-0.438,0.82-1.087,1.812-1.95,2.978l-1.483,1.879
			l-1.478,1.82c-0.447,0.544-0.716,0.878-0.807,1.002c-7.645,9.688-13.606,17.465-17.886,23.326
			c-1.275,1.747-2.123,2.951-2.544,3.611c-0.606,0.95-1.037,1.711-1.291,2.28c-0.108,0.284-0.173,0.525-0.193,0.724l-0.019,0.179
			c0.249,0.22,0.857,0.375,1.822,0.465c0.89,0.056,2.021,0.036,3.396-0.06c2.042-0.144,4.057-0.403,6.046-0.778
			c0.993-0.188,2.061-0.41,3.197-0.668c1.138-0.257,2.417-0.562,3.839-0.919c1.42-0.356,2.491-0.618,3.211-0.787
			c0.396-0.066,0.604,0.086,0.623,0.46c0.02,0.373-0.151,0.612-0.514,0.716c-0.759,0.173-1.849,0.436-3.27,0.791
			c-1.421,0.357-2.689,0.652-3.806,0.889c-1.121,0.276-2.217,0.51-3.289,0.703c-2.027,0.378-4.082,0.641-6.163,0.785
			c-1.452,0.102-2.644,0.126-3.574,0.073c-1.236-0.11-2.046-0.37-2.432-0.777c-0.21-0.222-0.293-0.551-0.247-0.989
			c0.033-0.317,0.13-0.679,0.29-1.085c0.306-0.691,0.765-1.533,1.376-2.523c0.458-0.663,1.349-1.909,2.673-3.737
			c4.41-5.991,10.371-13.766,17.886-23.326c0.091-0.126,0.358-0.449,0.804-0.974c0.443-0.524,0.936-1.121,1.475-1.791l1.425-1.875
			c0.819-1.123,1.445-2.073,1.878-2.854c0.385-0.697,0.555-1.202,0.511-1.515c-0.113-0.032-0.27-0.04-0.466-0.026
			c-0.506-0.003-1.18,0.102-2.021,0.32c-1.914,0.409-4.011,1.069-6.288,1.978c-2.605,1.05-4.77,2.167-6.492,3.353
			c-1.896,1.356-3.001,2.598-3.313,3.725c-0.121,0.402-0.374,0.578-0.757,0.526C191.61,55.826,191.479,55.6,191.601,55.196z"/>
		<path fill="#182C3A" d="M232.381,47.668l0.391-0.382c2.272-1.973,4.284-3.317,6.035-4.032c1.76-0.792,3.151-0.871,4.176-0.232
			c1.028,0.599,1.604,1.802,1.726,3.607c0.09,1.731-0.236,3.923-0.983,6.579c-1.551,5.475-3.993,10.914-7.327,16.315
			c-3.288,5.32-7.105,9.75-11.452,13.288c-4.092,3.325-7.213,4.271-9.361,2.845c-2.079-1.353-2.582-4.356-1.509-9.009
			c1.228-5.372,3.414-10.616,6.564-15.729c3.147-5.111,6.9-9.479,11.257-13.097C232.027,47.692,232.188,47.644,232.381,47.668z
			 M227.159,53.952c-2.917,3.281-5.4,6.888-7.451,10.818c-2.007,3.89-3.495,7.86-4.468,11.913c-0.488,2.047-0.608,3.751-0.361,5.114
			c0.207,1.368,0.693,2.3,1.459,2.799c1.712,1.144,4.378,0.247,8-2.69c4.174-3.368,7.88-7.672,11.12-12.91
			c3.197-5.194,5.567-10.509,7.114-15.943c0.738-2.577,1.051-4.631,0.939-6.164c-0.081-1.452-0.489-2.392-1.225-2.813
			c-0.735-0.422-1.797-0.348-3.18,0.222c-1.594,0.704-3.465,1.999-5.612,3.884c-0.809,0.649-1.761,1.544-2.854,2.686l-2.761,2.915
			C227.656,54.035,227.418,54.092,227.159,53.952z"/>
		<path fill="#182C3A" d="M257.607,50.165c2.404-1.745,4.752-3.686,7.042-5.819c1.213-1.149,2.114-1.941,2.705-2.378l0.065-0.063
			l0.196-0.192c0.09-0.124,0.196-0.21,0.319-0.258c0.203-0.094,0.397-0.088,0.582,0.018c0.145,0.109,0.226,0.261,0.245,0.457
			c0.019,0.551-0.265,1.399-0.853,2.545c-0.44,0.86-1.065,1.969-1.87,3.327L264,51.079c-0.749,1.198-1.197,1.94-1.345,2.225
			l-2.742,5.52l-2.517,5.028c-0.652,1.388-1.517,3.303-2.592,5.745l-2.287,5.071l-2.474,5.736c-1.283,2.932-2.072,4.703-2.371,5.315
			c-0.159,0.406-0.419,0.552-0.777,0.439c-0.358-0.113-0.44-0.354-0.245-0.723c0.21-0.528,0.962-2.296,2.254-5.307l2.598-5.805
			l2.228-5.068l2.657-5.809l2.397-5.02c0.985-1.962,1.94-3.805,2.861-5.527c0.198-0.407,0.67-1.19,1.416-2.347l1.981-3.275
			c0.797-1.278,1.396-2.348,1.799-3.204l0.284-0.494c-0.339,0.261-0.92,0.775-1.74,1.542c-2.463,2.303-4.855,4.285-7.172,5.947
			c-0.34,0.26-0.611,0.24-0.812-0.062C257.199,50.708,257.267,50.426,257.607,50.165z"/>
		<path fill="#182C3A" d="M280.357,45.083c0.889,0.056,2.537-0.237,4.944-0.878c1.721-0.436,4.155-1.158,7.302-2.167
			c3.79-1.212,6.049-1.922,6.771-2.131c1.043-0.27,1.84-0.444,2.394-0.522c0.357-0.063,0.635-0.104,0.831-0.118
			c0.35,0.017,0.596,0.078,0.74,0.186c0.18,0.146,0.318,0.313,0.415,0.503c0.159,0.345,0.164,0.661,0.018,0.947
			c-0.311,0.73-0.881,1.521-1.711,2.369l-0.983,1.015l-0.859,0.948c-3.896,4.81-6.823,8.546-8.777,11.208
			c-1.786,2.532-5.142,7.561-10.063,15.085c-0.555,0.829-1.469,2.293-2.741,4.396c-1.275,2.101-2.44,3.928-3.5,5.482
			c-1.062,1.552-2.144,2.961-3.25,4.221c-0.305,0.298-0.589,0.327-0.858,0.09c-0.267-0.238-0.266-0.524,0.004-0.857
			c1.098-1.183,2.154-2.52,3.169-4.011c1.014-1.491,2.155-3.266,3.424-5.328c1.19-2.057,2.108-3.56,2.755-4.514
			c5.191-7.859,8.585-12.89,10.181-15.094c1.925-2.738,4.855-6.513,8.791-11.327l0.99-1.075l0.979-0.957
			c0.658-0.716,1.116-1.359,1.372-1.93c-0.036-0.036-0.07-0.093-0.1-0.17l-0.178,0.012c-0.156,0.011-0.375,0.045-0.654,0.105
			c-0.515,0.076-1.253,0.246-2.217,0.51l-6.771,2.131c-3.141,0.97-5.595,1.692-7.36,2.171c-2.607,0.695-4.372,0.996-5.298,0.903
			c-0.385-0.051-0.527-0.268-0.429-0.65C279.783,45.251,280.008,45.068,280.357,45.083z"/>
	</g>
</g>
</svg>
