<?xml version="1.0" encoding="utf-8"?>
<!-- Generator: Adobe Illustrator 16.0.0, SVG Export Plug-In . SVG Version: 6.00 Build 0)  -->
<!DOCTYPE svg PUBLIC "-//W3C//DTD SVG 1.1//EN" "http://www.w3.org/Graphics/SVG/1.1/DTD/svg11.dtd">
<svg version="1.1" id="Ebene_1" xmlns="http://www.w3.org/2000/svg" xmlns:xlink="http://www.w3.org/1999/xlink" x="0px" y="0px"
	 width="510px" height="123px" viewBox="0 0 510 123" enable-background="new 0 0 510 123" xml:space="preserve">
<g>
	<polygon fill="#FDF4F1" points="30.951,14.309 0,123 487.792,87.681 510,0 	"/>
	<g>
		<defs>
			<rect id="SVGID_1_" width="510" height="123"/>
		</defs>
		<clipPath id="SVGID_2_">
			<use xlink:href="#SVGID_1_"  overflow="visible"/>
		</clipPath>
		<path clip-path="url(#SVGID_2_)" fill="none" stroke="#182C3A" stroke-width="1.552" stroke-miterlimit="7.483" d="M99.973,69.803
			c-1.207,0.361-2.332,0.678-3.373,0.947c-0.441,0.11-0.646,0.381-0.612,0.812s0.27,0.593,0.71,0.482
			c0.684-0.205,1.507-0.439,2.472-0.705c-3.505,6.637-6.86,13.343-10.066,20.117c-0.199,0.406-0.11,0.678,0.266,0.81
			c0.375,0.13,0.663-0.009,0.862-0.416c3.354-7.06,6.856-14.052,10.507-20.976c3.739-1.091,7.331-2.268,10.778-3.535
			c3.245-1.213,5.976-2.352,8.193-3.414c2.668-1.291,4.524-2.447,5.566-3.467c1.92-1.948,2.32-3.91,1.203-5.884
			c-0.858-1.478-2.599-2.895-5.224-4.251c-2.223-1.107-4.699-2.018-7.43-2.735l1.137-1.915c0.237-0.41,0.171-0.701-0.2-0.873
			c-0.372-0.171-0.677-0.051-0.915,0.36l-1.28,2.161c-1.905-0.419-3.367-0.594-4.388-0.522c-0.433,0.03-0.671,0.264-0.717,0.701
			c-0.047,0.438,0.146,0.641,0.578,0.61c0.863-0.06,2.135,0.088,3.812,0.444C107.773,55.468,103.813,62.551,99.973,69.803z
			 M120.481,51.562c2.445,1.211,4.046,2.479,4.803,3.807c0.822,1.442,0.539,2.843-0.851,4.202c-0.878,0.93-2.587,1.997-5.13,3.2
			c-2.174,1.021-4.863,2.136-8.069,3.346c-3.041,1.121-6.252,2.193-9.634,3.218c3.694-6.965,7.511-13.801,11.451-20.509
			C115.825,49.5,118.303,50.412,120.481,51.562z"/>
		<path clip-path="url(#SVGID_2_)" fill="none" stroke="#182C3A" stroke-width="1.552" stroke-miterlimit="7.483" d="
			M152.035,64.506c3.245-1.213,5.976-2.352,8.193-3.414c2.668-1.29,4.524-2.447,5.566-3.467c1.92-1.948,2.32-3.91,1.203-5.884
			c-0.857-1.478-2.599-2.895-5.224-4.251c-2.223-1.107-4.699-2.018-7.43-2.735l1.137-1.915c0.237-0.41,0.171-0.701-0.2-0.873
			c-0.372-0.171-0.677-0.051-0.915,0.36l-1.28,2.161c-1.904-0.419-3.367-0.594-4.388-0.522c-0.432,0.03-0.671,0.264-0.717,0.701
			c-0.046,0.438,0.146,0.641,0.579,0.61c0.862-0.06,2.134,0.088,3.812,0.444c-4.079,6.914-8.039,13.997-11.88,21.25
			c-1.207,0.36-2.332,0.676-3.373,0.946c-0.441,0.11-0.645,0.38-0.612,0.812c0.033,0.433,0.27,0.594,0.71,0.483
			c0.684-0.205,1.509-0.44,2.472-0.706c-3.504,6.637-6.86,13.344-10.066,20.117c-0.199,0.406-0.11,0.678,0.267,0.811
			c0.376,0.129,0.662-0.009,0.861-0.416c4.271-8.742,7.747-15.672,10.43-20.793c0.413,0.879,0.883,1.793,1.406,2.742l1.426,2.562
			l1.715,2.604l1.608,2.492l1.832,2.594l1.688,2.309l1.838,2.535c0.923,1.237,1.484,2.006,1.687,2.309
			c0.241,0.298,0.542,0.307,0.903,0.025c0.361-0.283,0.443-0.594,0.245-0.935c-0.242-0.299-0.824-1.067-1.746-2.304l-1.785-2.48
			l-1.687-2.308l-1.839-2.535l-1.562-2.376c-0.673-1.02-1.225-1.887-1.655-2.607l-1.374-2.508l-1.419-2.623
			C145.807,66.658,148.998,65.587,152.035,64.506z M161.001,48.728c2.445,1.211,4.046,2.479,4.804,3.807
			c0.821,1.442,0.538,2.843-0.852,4.202c-0.878,0.93-2.587,1.997-5.13,3.2c-2.174,1.02-4.863,2.136-8.069,3.346
			c-3.041,1.121-6.252,2.193-9.634,3.218c3.694-6.965,7.511-13.801,11.451-20.509C156.345,46.667,158.822,47.578,161.001,48.728z"/>
		<path clip-path="url(#SVGID_2_)" fill="none" stroke="#182C3A" stroke-width="1.552" stroke-miterlimit="7.483" d="
			M186.356,45.001c2.351-1.979,4.471-3.331,6.359-4.055s3.451-0.852,4.688-0.387c1.499,0.567,2.476,2.037,2.928,4.412
			c0.412,2.378,0.111,5.615-0.904,9.71c-1.236,5.098-3.509,10.209-6.814,15.332c-3.306,5.124-7.062,9.155-11.269,12.092
			c-4.536,3.118-7.815,3.723-9.837,1.812c-0.881-0.885-1.441-2.227-1.681-4.025c-0.241-1.798-0.1-3.879,0.422-6.244
			c1.128-5.169,3.095-10.355,5.904-15.564c2.768-5.204,6.067-9.341,9.897-12.41C186.269,45.462,186.369,45.238,186.356,45.001z
			 M173.798,59.907c-2.242,4.655-3.854,9.227-4.832,13.714c-0.538,2.522-0.678,4.781-0.42,6.775
			c0.259,1.994,0.917,3.508,1.979,4.537c1.088,1.146,2.632,1.571,4.631,1.273c1.999-0.297,4.261-1.323,6.784-3.077
			c4.371-3.028,8.278-7.208,11.724-12.539c3.405-5.327,5.75-10.581,7.036-15.761c1.036-4.294,1.323-7.776,0.864-10.447
			c-0.46-2.67-1.628-4.355-3.503-5.052c-1.876-0.698-4.191-0.368-6.944,0.988c-2.755,1.357-5.743,3.648-8.966,6.871
			c-0.178,0.211-0.26,0.433-0.245,0.668C178.743,51.237,176.041,55.251,173.798,59.907z"/>
		<path clip-path="url(#SVGID_2_)" fill="none" stroke="#182C3A" stroke-width="1.552" stroke-miterlimit="7.483" d="
			M235.154,52.953c0.371,0.172,0.677,0.052,0.915-0.36c0.433-0.779,0.748-1.374,0.947-1.782l0.882-1.719
			c0.438-0.82,0.753-1.512,0.95-2.079c0.195-0.566,0.399-1.212,0.612-1.937c0.213-0.725,0.354-1.425,0.426-2.101
			c0.071-0.675,0.061-1.326-0.029-1.951c-0.249-1.718-1.123-2.663-2.625-2.835c-1.156-0.116-2.656,0.245-4.499,1.084
			c-1.354,0.648-2.747,1.475-4.178,2.482c-1.431,1.008-2.535,1.874-3.312,2.599c-2.034,1.918-4.52,4.617-7.457,8.097
			c-2.856,3.436-5.594,7.04-8.212,10.813c-2.99,4.352-5.287,8.223-6.891,11.609c-1.866,4.035-2.693,7.271-2.48,9.701
			c0.229,2.272,2.075,3.052,5.542,2.336c2.794-0.631,5.963-2.035,9.505-4.217c3.625-2.226,6.213-4.418,7.766-6.58
			c0.91-1.246,1.339-2.361,1.287-3.344c-0.041-1.102-0.673-1.945-1.897-2.531c-1.081-0.477-2.576-0.707-4.487-0.692l-2.226,0.037
			c-0.978,0.03-1.697,0.021-2.161-0.026c-0.428-0.009-0.692,0.196-0.795,0.618c-0.103,0.421,0.037,0.658,0.422,0.71
			c0.619,0.036,1.399,0.041,2.338,0.014c0.155-0.011,0.391-0.017,0.703-0.019c0.312-0.002,0.586-0.013,0.821-0.028
			c0.236-0.017,0.469-0.013,0.7,0.01c1.719-0.041,3.043,0.164,3.97,0.61c0.857,0.375,1.308,0.915,1.351,1.622
			c0.011,0.631-0.325,1.424-1.011,2.379c-1.458,1.996-3.894,4.041-7.31,6.135c-3.416,2.092-6.438,3.408-9.067,3.947
			c-2.633,0.578-4.011,0.143-4.13-1.309c-0.197-2.196,0.583-5.19,2.348-8.983c1.559-3.344,3.791-7.149,6.694-11.417
			c2.566-3.651,5.287-7.195,8.163-10.632c2.875-3.436,5.326-6.093,7.356-7.972c0.689-0.64,1.71-1.441,3.059-2.403
			c1.348-0.962,2.679-1.765,3.995-2.41c1.558-0.74,2.799-1.044,3.72-0.912c0.965,0.091,1.521,0.743,1.666,1.955
			c0.103,0.506,0.123,1.057,0.061,1.653c-0.063,0.597-0.187,1.217-0.371,1.861c-0.186,0.644-0.373,1.23-0.565,1.756
			c-0.191,0.526-0.479,1.138-0.865,1.836l-0.882,1.719c-0.203,0.449-0.519,1.042-0.946,1.782
			C234.716,52.491,234.782,52.782,235.154,52.953z"/>
		<path clip-path="url(#SVGID_2_)" fill="none" stroke="#182C3A" stroke-width="1.552" stroke-miterlimit="7.483" d="
			M264.172,56.665c3.245-1.213,5.976-2.351,8.192-3.414c2.668-1.29,4.525-2.447,5.567-3.467c1.92-1.948,2.32-3.91,1.203-5.884
			c-0.858-1.478-2.6-2.895-5.225-4.251c-2.222-1.107-4.698-2.018-7.429-2.735l1.136-1.915c0.238-0.41,0.172-0.701-0.199-0.873
			c-0.372-0.171-0.678-0.051-0.915,0.36l-1.28,2.161c-1.905-0.419-3.367-0.594-4.388-0.522c-0.433,0.03-0.671,0.264-0.718,0.701
			c-0.046,0.438,0.147,0.641,0.579,0.61c0.863-0.06,2.135,0.088,3.812,0.444c-4.079,6.914-8.039,13.997-11.88,21.249
			c-1.207,0.361-2.332,0.677-3.373,0.947c-0.441,0.11-0.646,0.38-0.612,0.812s0.269,0.593,0.71,0.483
			c0.683-0.205,1.507-0.44,2.471-0.706c-3.504,6.637-6.859,13.343-10.065,20.117c-0.199,0.407-0.11,0.678,0.266,0.811
			c0.375,0.13,0.663-0.008,0.862-0.416c4.271-8.741,7.747-15.672,10.429-20.793c0.414,0.88,0.883,1.794,1.407,2.742l1.426,2.563
			l1.714,2.603l1.609,2.492l1.832,2.594l1.687,2.31l1.838,2.534c0.924,1.238,1.485,2.007,1.688,2.309
			c0.241,0.299,0.542,0.307,0.903,0.026c0.36-0.283,0.442-0.595,0.245-0.935c-0.242-0.299-0.824-1.067-1.746-2.305l-1.785-2.48
			l-1.688-2.307l-1.838-2.535l-1.562-2.377c-0.674-1.019-1.226-1.887-1.655-2.606l-1.374-2.509l-1.419-2.623
			C257.942,58.816,261.135,57.746,264.172,56.665z M273.138,40.887c2.445,1.211,4.046,2.479,4.803,3.807
			c0.822,1.442,0.539,2.843-0.851,4.202c-0.878,0.93-2.587,1.997-5.13,3.2c-2.175,1.02-4.863,2.136-8.069,3.346
			c-3.041,1.121-6.252,2.193-9.634,3.218c3.693-6.965,7.511-13.801,11.451-20.509C268.481,38.826,270.959,39.737,273.138,40.887z"/>
		<path clip-path="url(#SVGID_2_)" fill="none" stroke="#182C3A" stroke-width="1.552" stroke-miterlimit="7.483" d="
			M319.801,43.009c0.005-0.039,0.054-0.142,0.149-0.306l1.321-3.111c0.814-2.188,1.125-3.846,0.932-4.978
			c-0.146-0.818-0.536-1.392-1.163-1.723c-0.629-0.331-1.461-0.381-2.498-0.151c-1.316,0.29-2.699,0.83-4.146,1.621
			c-1.448,0.792-2.64,1.556-3.573,2.292c-0.937,0.737-2.046,1.663-3.332,2.778c-5.664,4.934-10.876,10.763-15.636,17.487
			c-2.238-1.697-3.834-3.203-4.787-4.518c-0.308-0.412-0.696-0.425-1.165-0.037c-0.47,0.388-0.551,0.789-0.243,1.201
			c1.058,1.426,2.779,3.041,5.161,4.847c-1.66,2.445-3.273,5.005-4.841,7.677c-1.654,2.76-3.293,6.11-4.914,10.051
			c-1.049,2.559-1.688,4.557-1.916,5.994c-0.135,0.916-0.115,1.644,0.062,2.185c0.313,0.728,0.882,1.063,1.707,1.005
			c0.549-0.038,0.854-0.336,0.912-0.893c0.06-0.557-0.187-0.815-0.737-0.776c-0.156,0.011-0.249-0.042-0.274-0.159
			c-0.124-0.307-0.133-0.779-0.027-1.418c0.212-1.277,0.795-3.113,1.749-5.508c1.566-3.779,3.158-7.066,4.778-9.863
			c1.515-2.552,3.099-5.011,4.75-7.375c2.648,1.867,6.179,4.066,10.59,6.598c0.442,0.246,0.825,0.121,1.151-0.375
			c0.323-0.496,0.266-0.867-0.177-1.112c-4.41-2.533-7.921-4.733-10.53-6.603c4.674-6.639,9.776-12.362,15.31-17.168
			c1.972-1.716,3.755-3.104,5.348-4.162s3.205-1.763,4.842-2.114c0.675-0.126,1.162-0.12,1.46,0.016
			c0.257,0.14,0.425,0.405,0.501,0.794c0.144,0.858-0.137,2.219-0.838,4.083c-0.269,0.69-0.602,1.443-0.998,2.259
			c-0.004,0.04-0.084,0.243-0.239,0.609l-0.065,0.064l-0.013,0.119l-0.071,0.123c0.004-0.039,0.027-0.08,0.071-0.123l-0.071,0.123
			l-0.143,0.247l-1.973,3.748l-0.007,0.06c-0.386,0.698-0.623,1.109-0.714,1.233c-0.346,0.696-0.904,1.741-1.674,3.136l-1.734,3.139
			L300.872,75.7l-2.128,4.114c-0.199,0.408-0.322,0.654-0.369,0.736l-0.064,0.063l-0.014,0.119
			c-0.048,0.082-0.072,0.144-0.078,0.183c-0.027,0.633,0.279,0.869,0.921,0.705c0.199-0.053,0.365-0.143,0.495-0.271
			c0.006-0.039,0.028-0.08,0.072-0.122l0.065-0.064l0.078-0.183l6.786-12.844c0.005-0.039,0.027-0.082,0.071-0.123l5.937-11.424
			l4.97-9.462c0.004-0.039,0.026-0.061,0.065-0.063L319.801,43.009z"/>
		<path clip-path="url(#SVGID_2_)" fill="none" stroke="#182C3A" stroke-width="1.552" stroke-miterlimit="7.483" d="
			M322.462,75.818c0.397,0.11,0.676-0.038,0.836-0.443c3.627-8.184,8.998-19.055,16.114-32.612l3.95-7.556l0.565-0.927
			c-0.135,0.917-0.296,2.073-0.481,3.466c-0.53,3.943-0.957,7.623-1.276,11.039c-0.204,2.303-0.346,4.206-0.425,5.711
			c-0.054,0.872-0.078,1.485-0.076,1.84c0.009,0.276,0.025,0.492,0.049,0.648l0.092,0.23c0.097,0.191,0.222,0.301,0.375,0.329
			c0.301,0.097,0.659,0.033,1.073-0.194c0.248-0.135,0.523-0.352,0.828-0.649c0.434-0.425,0.99-1.076,1.667-1.952
			c0.177-0.209,0.996-1.332,2.458-3.368c1.045-1.413,2.851-3.759,5.417-7.037c2.565-3.276,4.882-6.032,6.949-8.268
			c1.236-1.389,2.242-2.425,3.017-3.111c0.425-0.345,0.763-0.586,1.011-0.722l0.06-0.004c-0.03,0.279-0.135,0.72-0.315,1.324
			c-0.457,1.374-1.352,3.409-2.688,6.106l-1.473,2.885l-0.305,0.672c-0.004,0.04-0.029,0.082-0.071,0.124l-0.013,0.119l-0.006,0.06
			c-0.044,0.042-0.067,0.084-0.072,0.123l-0.382,0.855l-5.368,11.029c-0.852,1.796-1.976,4.518-3.372,8.167
			c-1.449,3.771-2.532,6.471-3.249,8.098c-0.203,0.449-0.104,0.728,0.292,0.839c0.398,0.11,0.677-0.038,0.836-0.443
			c0.664-1.506,1.771-4.247,3.32-8.222c1.34-3.487,2.439-6.168,3.301-8.044l5.368-11.028c1.427-2.822,2.187-4.315,2.283-4.48
			l0.013-0.119l0.071-0.124l0.019-0.179c1.34-2.736,2.24-4.811,2.701-6.225c0.231-0.727,0.369-1.288,0.411-1.686
			c0.022-0.594-0.171-0.974-0.582-1.143c-0.332-0.174-0.749-0.105-1.249,0.206c-0.37,0.184-0.793,0.49-1.266,0.917
			c-0.854,0.691-1.92,1.752-3.199,3.183c-2.072,2.275-4.401,5.062-6.988,8.36c-2.589,3.298-4.407,5.674-5.456,7.128
			c-1.504,2.079-2.322,3.181-2.452,3.308c-0.59,0.792-1.1,1.379-1.529,1.765c-0.093,0.124-0.179,0.21-0.262,0.255l0.013-1.777
			c0.102-1.348,0.259-3.214,0.471-5.596c0.398-4.171,0.825-7.85,1.276-11.038c0.301-2.112,0.507-3.705,0.619-4.778
			c0.055-0.517,0.076-0.913,0.066-1.189c0.013-0.119,0.005-0.237-0.021-0.353c0.009-0.08-0.005-0.138-0.039-0.175
			c-0.09-0.27-0.271-0.396-0.546-0.376c-0.156,0.011-0.299,0.06-0.425,0.148l-0.13,0.127c-0.004,0.04-0.018,0.071-0.039,0.092
			c-0.021,0.022-0.035,0.052-0.039,0.091c-0.044,0.043-0.089,0.105-0.136,0.187l-0.429,0.74l-1.382,2.583l-3.959,7.615
			c-7.179,13.8-12.551,24.669-16.113,32.613C321.967,75.429,322.063,75.707,322.462,75.818z"/>
		<path clip-path="url(#SVGID_2_)" fill="none" stroke="#182C3A" stroke-width="1.552" stroke-miterlimit="7.483" d="
			M366.104,72.767c0.397,0.11,0.676-0.038,0.836-0.442c3.627-8.185,8.998-19.056,16.114-32.613l3.95-7.556l0.565-0.927
			c-0.135,0.917-0.296,2.073-0.481,3.466c-0.53,3.943-0.956,7.623-1.276,11.039c-0.204,2.303-0.345,4.206-0.425,5.711
			c-0.054,0.872-0.078,1.485-0.076,1.84c0.009,0.276,0.025,0.492,0.049,0.648l0.092,0.23c0.098,0.191,0.223,0.301,0.375,0.329
			c0.301,0.097,0.659,0.033,1.073-0.194c0.248-0.135,0.524-0.352,0.828-0.649c0.434-0.425,0.99-1.076,1.667-1.952
			c0.177-0.209,0.996-1.332,2.458-3.368c1.045-1.413,2.851-3.759,5.417-7.037c2.565-3.276,4.882-6.032,6.949-8.268
			c1.236-1.389,2.242-2.425,3.017-3.111c0.425-0.345,0.763-0.586,1.011-0.722l0.06-0.004c-0.03,0.279-0.134,0.72-0.315,1.324
			c-0.457,1.374-1.352,3.409-2.688,6.106L403.83,39.5l-0.305,0.672c-0.004,0.04-0.029,0.082-0.071,0.124l-0.013,0.119l-0.006,0.06
			c-0.044,0.042-0.067,0.084-0.072,0.123l-0.382,0.855l-5.368,11.029c-0.852,1.796-1.976,4.518-3.372,8.166
			c-1.449,3.771-2.532,6.47-3.249,8.099c-0.203,0.449-0.104,0.727,0.292,0.838c0.398,0.109,0.677-0.038,0.836-0.443
			c0.664-1.506,1.771-4.247,3.32-8.222c1.34-3.487,2.44-6.168,3.301-8.044l5.368-11.028c1.427-2.822,2.188-4.315,2.283-4.48
			l0.013-0.119l0.071-0.124l0.019-0.179c1.34-2.736,2.24-4.811,2.701-6.225c0.231-0.727,0.369-1.288,0.411-1.686
			c0.023-0.594-0.171-0.974-0.582-1.143c-0.332-0.174-0.749-0.105-1.249,0.206c-0.37,0.184-0.793,0.49-1.266,0.917
			c-0.854,0.691-1.919,1.752-3.199,3.183c-2.072,2.275-4.401,5.062-6.988,8.36c-2.589,3.298-4.407,5.674-5.456,7.128
			c-1.504,2.079-2.322,3.181-2.452,3.308c-0.59,0.792-1.1,1.379-1.529,1.765c-0.093,0.124-0.179,0.21-0.262,0.255l0.013-1.777
			c0.102-1.348,0.259-3.214,0.471-5.596c0.399-4.171,0.825-7.85,1.277-11.038c0.3-2.112,0.506-3.705,0.618-4.778
			c0.055-0.517,0.076-0.913,0.066-1.189c0.013-0.119,0.005-0.237-0.021-0.353c0.008-0.08-0.006-0.138-0.04-0.175
			c-0.09-0.27-0.271-0.396-0.546-0.376c-0.156,0.011-0.299,0.06-0.425,0.148l-0.13,0.127c-0.004,0.04-0.018,0.071-0.039,0.092
			c-0.021,0.022-0.035,0.052-0.039,0.091c-0.044,0.043-0.089,0.105-0.136,0.187l-0.429,0.74l-1.382,2.583l-3.958,7.615
			c-7.18,13.8-12.552,24.67-16.114,32.613C365.608,72.377,365.705,72.656,366.104,72.767z"/>
	</g>
	<g>
		<path fill="#182C3A" d="M111.852,48.555c-1.677-0.356-2.948-0.503-3.812-0.443c-0.433,0.03-0.624-0.173-0.578-0.611
			s0.284-0.67,0.717-0.701c1.021-0.071,2.483,0.103,4.389,0.521l1.278-2.16c0.238-0.411,0.544-0.531,0.915-0.36
			c0.371,0.172,0.438,0.463,0.2,0.874l-1.136,1.915c2.731,0.717,5.207,1.628,7.429,2.734c2.625,1.356,4.367,2.773,5.226,4.252
			c1.116,1.973,0.716,3.935-1.204,5.884c-1.042,1.02-2.898,2.177-5.567,3.467c-2.216,1.062-4.948,2.201-8.193,3.413
			c-3.445,1.269-7.039,2.446-10.776,3.536c-3.651,6.924-7.154,13.915-10.508,20.976c-0.199,0.407-0.486,0.547-0.863,0.416
			c-0.375-0.132-0.463-0.402-0.265-0.812c3.206-6.772,6.562-13.479,10.065-20.115c-0.962,0.266-1.787,0.501-2.472,0.706
			c-0.44,0.109-0.676-0.052-0.709-0.483c-0.032-0.432,0.171-0.701,0.612-0.812c1.041-0.271,2.167-0.585,3.373-0.946
			C103.813,62.552,107.773,55.468,111.852,48.555z M113.052,48.826c-3.94,6.708-7.758,13.543-11.451,20.509
			c3.383-1.025,6.593-2.098,9.634-3.218c3.206-1.211,5.895-2.327,8.069-3.348c2.543-1.202,4.252-2.269,5.13-3.198
			c1.39-1.36,1.673-2.76,0.852-4.204c-0.759-1.327-2.359-2.596-4.804-3.806C118.303,50.412,115.826,49.5,113.052,48.826z"/>
		<path fill="#182C3A" d="M142.46,67.721l1.42,2.623l1.374,2.509c0.43,0.72,0.981,1.588,1.654,2.606l1.562,2.376l1.839,2.534
			l1.687,2.309l1.786,2.479c0.922,1.238,1.504,2.005,1.745,2.306c0.198,0.341,0.116,0.651-0.245,0.934s-0.661,0.272-0.902-0.025
			c-0.203-0.302-0.765-1.071-1.687-2.309l-1.838-2.535l-1.688-2.309l-1.832-2.594l-1.609-2.492l-1.713-2.603l-1.427-2.562
			c-0.524-0.95-0.993-1.864-1.408-2.743c-2.681,5.121-6.157,12.052-10.428,20.793c-0.199,0.407-0.487,0.547-0.863,0.416
			c-0.375-0.132-0.464-0.403-0.265-0.812c3.206-6.772,6.562-13.479,10.065-20.116c-0.963,0.267-1.788,0.501-2.472,0.706
			c-0.44,0.109-0.676-0.052-0.709-0.483c-0.033-0.431,0.171-0.701,0.611-0.812c1.042-0.27,2.167-0.585,3.373-0.945
			c3.842-7.252,7.802-14.336,11.88-21.25c-1.678-0.356-2.948-0.503-3.812-0.443c-0.433,0.03-0.625-0.173-0.579-0.611
			s0.285-0.67,0.718-0.701c1.021-0.071,2.483,0.103,4.389,0.521l1.278-2.16c0.237-0.411,0.544-0.531,0.915-0.36
			c0.371,0.172,0.438,0.463,0.2,0.874l-1.137,1.915c2.731,0.717,5.208,1.628,7.43,2.735c2.625,1.355,4.366,2.773,5.226,4.251
			c1.115,1.973,0.716,3.935-1.204,5.884c-1.042,1.02-2.898,2.176-5.568,3.467c-2.215,1.062-4.947,2.2-8.192,3.413
			C148.998,65.587,145.807,66.658,142.46,67.721z M153.572,45.993c-3.941,6.707-7.758,13.542-11.452,20.508
			c3.383-1.024,6.593-2.098,9.635-3.217c3.205-1.211,5.895-2.327,8.069-3.348c2.542-1.202,4.251-2.269,5.131-3.198
			c1.388-1.36,1.672-2.76,0.85-4.203c-0.758-1.328-2.358-2.596-4.803-3.807C158.822,47.578,156.347,46.667,153.572,45.993z"/>
		<path fill="#182C3A" d="M181.905,47.858c-0.016-0.236,0.066-0.458,0.245-0.668c3.222-3.224,6.212-5.514,8.965-6.872
			c2.754-1.356,5.069-1.685,6.945-0.989c1.875,0.699,3.041,2.383,3.502,5.053c0.459,2.671,0.172,6.153-0.864,10.447
			c-1.284,5.18-3.63,10.433-7.034,15.761c-3.445,5.331-7.354,9.51-11.725,12.539c-2.523,1.754-4.785,2.78-6.784,3.078
			c-1.999,0.297-3.543-0.128-4.631-1.274c-1.061-1.03-1.721-2.543-1.979-4.536c-0.259-1.995-0.117-4.254,0.421-6.776
			c0.978-4.488,2.588-9.06,4.831-13.714C176.042,55.253,178.743,51.236,181.905,47.858z M186.051,45.674
			c-3.83,3.07-7.13,7.208-9.898,12.411c-2.808,5.208-4.775,10.396-5.902,15.563c-0.523,2.366-0.664,4.446-0.424,6.244
			c0.239,1.799,0.801,3.14,1.683,4.025c2.02,1.91,5.299,1.307,9.836-1.812c4.206-2.937,7.962-6.968,11.268-12.092
			c3.307-5.123,5.579-10.234,6.815-15.332c1.016-4.096,1.316-7.331,0.904-9.71c-0.452-2.374-1.429-3.845-2.927-4.411
			c-1.238-0.466-2.801-0.336-4.689,0.386c-1.889,0.724-4.01,2.077-6.359,4.056C186.37,45.238,186.268,45.462,186.051,45.674z"/>
		<path fill="#182C3A" d="M234.954,52.079c0.43-0.74,0.745-1.333,0.947-1.782l0.884-1.72c0.384-0.697,0.671-1.308,0.864-1.836
			c0.192-0.525,0.38-1.11,0.564-1.755c0.186-0.643,0.309-1.265,0.371-1.86c0.062-0.597,0.042-1.147-0.06-1.653
			c-0.146-1.212-0.702-1.865-1.666-1.955c-0.921-0.132-2.162,0.171-3.72,0.912c-1.316,0.645-2.647,1.448-3.996,2.41
			c-1.348,0.962-2.367,1.763-3.059,2.404c-2.03,1.878-4.48,4.536-7.356,7.971c-2.875,3.437-5.597,6.981-8.162,10.632
			c-2.904,4.268-5.136,8.073-6.695,11.417c-1.764,3.794-2.546,6.787-2.348,8.984c0.119,1.449,1.498,1.886,4.13,1.309
			c2.63-0.539,5.652-1.856,9.068-3.949s5.852-4.137,7.31-6.134c0.685-0.954,1.021-1.748,1.01-2.379
			c-0.042-0.707-0.493-1.246-1.349-1.621c-0.929-0.448-2.252-0.651-3.971-0.61c-0.232-0.022-0.466-0.027-0.7-0.011
			c-0.236,0.017-0.511,0.027-0.821,0.028c-0.313,0.003-0.548,0.009-0.704,0.02c-0.938,0.026-1.717,0.022-2.338-0.014
			c-0.384-0.053-0.524-0.289-0.421-0.711c0.102-0.421,0.366-0.626,0.795-0.618c0.464,0.048,1.183,0.057,2.16,0.027l2.227-0.038
			c1.91-0.015,3.406,0.216,4.486,0.692c1.225,0.586,1.857,1.43,1.897,2.53c0.052,0.983-0.376,2.099-1.287,3.346
			c-1.553,2.16-4.141,4.354-7.766,6.58c-3.543,2.18-6.711,3.585-9.504,4.216c-3.467,0.715-5.314-0.063-5.544-2.336
			c-0.211-2.431,0.616-5.665,2.482-9.702c1.603-3.386,3.899-7.256,6.891-11.607c2.619-3.773,5.355-7.378,8.211-10.812
			c2.938-3.481,5.423-6.179,7.457-8.098c0.778-0.725,1.882-1.591,3.313-2.6c1.431-1.006,2.823-1.834,4.177-2.481
			c1.843-0.839,3.343-1.201,4.5-1.084c1.503,0.172,2.377,1.116,2.625,2.835c0.09,0.625,0.099,1.276,0.028,1.951
			c-0.071,0.677-0.212,1.375-0.425,2.101c-0.214,0.726-0.417,1.372-0.612,1.937c-0.197,0.566-0.513,1.259-0.95,2.079l-0.882,1.719
			c-0.199,0.407-0.515,1.002-0.948,1.782c-0.238,0.412-0.543,0.531-0.913,0.359C234.783,52.782,234.716,52.491,234.954,52.079z"/>
		<path fill="#182C3A" d="M254.537,59.884l1.42,2.623l1.374,2.509c0.429,0.72,0.981,1.588,1.655,2.606l1.562,2.376l1.839,2.534
			l1.687,2.309l1.786,2.479c0.922,1.237,1.504,2.005,1.745,2.306c0.197,0.341,0.115,0.651-0.245,0.933
			c-0.361,0.282-0.661,0.273-0.902-0.024c-0.203-0.302-0.765-1.071-1.688-2.309l-1.837-2.535l-1.688-2.309l-1.832-2.594
			l-1.609-2.492l-1.714-2.603l-1.426-2.563c-0.525-0.95-0.993-1.863-1.408-2.742c-2.682,5.12-6.158,12.052-10.428,20.792
			c-0.2,0.408-0.487,0.547-0.863,0.416c-0.375-0.132-0.464-0.402-0.265-0.811c3.206-6.772,6.562-13.479,10.065-20.116
			c-0.963,0.266-1.788,0.501-2.472,0.706c-0.44,0.109-0.676-0.051-0.709-0.483c-0.033-0.431,0.17-0.701,0.61-0.812
			c1.043-0.27,2.168-0.585,3.374-0.945c3.841-7.252,7.801-14.336,11.88-21.25c-1.678-0.355-2.949-0.503-3.812-0.443
			c-0.433,0.03-0.625-0.173-0.579-0.611s0.285-0.67,0.718-0.701c1.021-0.071,2.482,0.103,4.388,0.521l1.279-2.16
			c0.237-0.411,0.544-0.531,0.915-0.36c0.371,0.171,0.438,0.462,0.2,0.874l-1.137,1.915c2.731,0.717,5.208,1.628,7.43,2.735
			c2.625,1.356,4.365,2.773,5.225,4.252c1.116,1.973,0.717,3.935-1.203,5.884c-1.043,1.02-2.898,2.176-5.568,3.467
			c-2.216,1.062-4.947,2.2-8.192,3.413C261.075,57.75,257.884,58.821,254.537,59.884z M265.649,38.156
			c-3.94,6.708-7.758,13.543-11.452,20.508c3.383-1.024,6.593-2.097,9.635-3.217c3.205-1.211,5.895-2.327,8.068-3.347
			c2.543-1.203,4.252-2.269,5.131-3.198c1.389-1.36,1.673-2.761,0.851-4.204c-0.759-1.328-2.358-2.596-4.804-3.806
			C270.899,39.741,268.424,38.83,265.649,38.156z"/>
		<path fill="#182C3A" d="M317.621,47.068c-0.039,0.003-0.061,0.024-0.064,0.063l-4.97,9.463l-5.937,11.422
			c-0.044,0.043-0.067,0.086-0.072,0.124l-6.787,12.844l-0.077,0.183l-0.064,0.064c-0.045,0.042-0.068,0.082-0.072,0.123
			c-0.131,0.127-0.296,0.218-0.496,0.271c-0.642,0.163-0.949-0.072-0.919-0.705c0.004-0.04,0.029-0.102,0.076-0.183l0.013-0.119
			l0.065-0.064c0.047-0.082,0.17-0.327,0.37-0.736l2.127-4.113l11.224-21.678l1.732-3.138c0.771-1.396,1.328-2.441,1.676-3.136
			c0.09-0.126,0.327-0.536,0.713-1.235l0.006-0.059l1.974-3.749l0.143-0.246l0.071-0.125c-0.044,0.044-0.067,0.085-0.071,0.125
			l0.071-0.125l0.013-0.118l0.065-0.064c0.154-0.366,0.234-0.567,0.239-0.608c0.397-0.816,0.729-1.57,0.997-2.259
			c0.702-1.864,0.982-3.225,0.839-4.083c-0.076-0.388-0.244-0.653-0.502-0.793c-0.298-0.136-0.783-0.142-1.459-0.017
			c-1.635,0.352-3.25,1.057-4.841,2.114c-1.593,1.059-3.376,2.446-5.349,4.163c-5.533,4.806-10.636,10.528-15.309,17.168
			c2.608,1.87,6.119,4.07,10.53,6.603c0.441,0.245,0.499,0.615,0.176,1.112c-0.326,0.497-0.709,0.621-1.151,0.376
			c-4.41-2.531-7.94-4.73-10.589-6.598c-1.652,2.364-3.236,4.823-4.751,7.375c-1.62,2.797-3.212,6.083-4.778,9.862
			c-0.953,2.395-1.536,4.23-1.748,5.508c-0.106,0.639-0.099,1.111,0.026,1.418c0.026,0.118,0.118,0.17,0.275,0.158
			c0.55-0.038,0.796,0.221,0.737,0.778c-0.059,0.556-0.363,0.854-0.913,0.892c-0.824,0.058-1.394-0.277-1.706-1.005
			c-0.178-0.54-0.198-1.269-0.063-2.186c0.229-1.436,0.867-3.434,1.917-5.993c1.621-3.939,3.26-7.29,4.914-10.05
			c1.567-2.674,3.181-5.232,4.841-7.676c-2.382-1.806-4.104-3.422-5.162-4.848c-0.308-0.413-0.227-0.813,0.244-1.202
			c0.469-0.388,0.857-0.375,1.165,0.038c0.952,1.315,2.549,2.821,4.787,4.518c4.761-6.725,9.972-12.554,15.635-17.487
			c1.286-1.115,2.397-2.041,3.333-2.777c0.934-0.737,2.126-1.501,3.573-2.292c1.446-0.791,2.828-1.331,4.146-1.622
			c1.038-0.23,1.869-0.18,2.499,0.151c0.627,0.331,1.015,0.905,1.162,1.724c0.193,1.131-0.117,2.791-0.933,4.978l-1.32,3.111
			c-0.096,0.165-0.146,0.266-0.149,0.305L317.621,47.068z"/>
		<path fill="#182C3A" d="M322.112,74.984c3.562-7.943,8.934-18.813,16.113-32.612l3.957-7.616l1.383-2.582l0.429-0.741
			c0.047-0.081,0.093-0.144,0.137-0.187c0.004-0.039,0.016-0.069,0.039-0.091c0.021-0.021,0.034-0.052,0.038-0.092l0.13-0.127
			c0.126-0.087,0.269-0.136,0.425-0.147c0.275-0.019,0.457,0.106,0.546,0.375c0.035,0.037,0.048,0.096,0.04,0.174
			c0.026,0.117,0.034,0.235,0.021,0.354c0.009,0.276-0.013,0.671-0.066,1.188c-0.113,1.073-0.319,2.666-0.62,4.779
			c-0.452,3.188-0.878,6.868-1.277,11.038c-0.211,2.382-0.368,4.249-0.471,5.596l-0.011,1.777c0.082-0.044,0.168-0.131,0.261-0.255
			c0.43-0.386,0.94-0.973,1.529-1.765c0.131-0.127,0.947-1.229,2.453-3.309c1.049-1.454,2.867-3.83,5.455-7.127
			c2.587-3.298,4.916-6.085,6.988-8.361c1.28-1.43,2.347-2.493,3.199-3.183c0.473-0.427,0.896-0.732,1.267-0.917
			c0.5-0.311,0.915-0.379,1.249-0.207c0.41,0.169,0.604,0.55,0.581,1.144c-0.042,0.396-0.181,0.958-0.411,1.685
			c-0.461,1.414-1.36,3.489-2.7,6.226l-0.019,0.18l-0.072,0.122l-0.013,0.12c-0.096,0.165-0.856,1.659-2.283,4.48l-5.368,11.029
			c-0.859,1.875-1.961,4.556-3.301,8.042c-1.549,3.977-2.656,6.717-3.32,8.223c-0.158,0.405-0.438,0.554-0.836,0.443
			c-0.396-0.111-0.495-0.389-0.291-0.838c0.717-1.629,1.799-4.328,3.248-8.099c1.396-3.648,2.521-6.371,3.372-8.166l5.368-11.028
			l0.382-0.856c0.004-0.038,0.027-0.08,0.072-0.123l0.006-0.06l0.013-0.119c0.042-0.042,0.066-0.083,0.071-0.124l0.305-0.671
			l1.473-2.885c1.335-2.697,2.23-4.732,2.688-6.106c0.18-0.605,0.285-1.046,0.314-1.325l-0.06,0.004
			c-0.248,0.137-0.586,0.376-1.011,0.723c-0.774,0.685-1.779,1.722-3.017,3.11c-2.067,2.235-4.383,4.992-6.949,8.268
			c-2.566,3.277-4.373,5.624-5.417,7.038c-1.462,2.035-2.281,3.158-2.459,3.368c-0.676,0.875-1.233,1.527-1.666,1.952
			c-0.305,0.298-0.58,0.514-0.829,0.649c-0.413,0.227-0.771,0.291-1.071,0.193c-0.154-0.028-0.278-0.139-0.376-0.329l-0.092-0.23
			c-0.023-0.156-0.04-0.373-0.049-0.648c-0.002-0.354,0.022-0.968,0.076-1.84c0.08-1.504,0.221-3.408,0.424-5.711
			c0.32-3.416,0.746-7.096,1.277-11.038c0.186-1.395,0.347-2.55,0.482-3.467l-0.565,0.927l-3.951,7.557
			c-7.116,13.557-12.487,24.428-16.114,32.612c-0.159,0.404-0.438,0.553-0.835,0.443C322.006,75.711,321.908,75.433,322.112,74.984z
			"/>
		<path fill="#182C3A" d="M365.754,71.933c3.562-7.943,8.934-18.813,16.113-32.612l3.957-7.616l1.383-2.582l0.429-0.741
			c0.047-0.081,0.093-0.144,0.137-0.187c0.004-0.039,0.016-0.069,0.038-0.091c0.022-0.021,0.035-0.052,0.039-0.092l0.13-0.127
			c0.126-0.087,0.269-0.136,0.425-0.147c0.275-0.019,0.457,0.106,0.546,0.375c0.035,0.037,0.048,0.096,0.04,0.174
			c0.026,0.117,0.034,0.235,0.021,0.354c0.008,0.276-0.014,0.672-0.067,1.188c-0.113,1.073-0.319,2.666-0.619,4.778
			c-0.452,3.188-0.878,6.868-1.277,11.038c-0.211,2.382-0.368,4.249-0.471,5.596l-0.011,1.777c0.082-0.044,0.168-0.131,0.261-0.255
			c0.43-0.386,0.94-0.973,1.529-1.765c0.131-0.127,0.947-1.229,2.453-3.308c1.049-1.454,2.867-3.83,5.454-7.127
			c2.587-3.299,4.917-6.085,6.989-8.361c1.28-1.43,2.346-2.493,3.199-3.183c0.472-0.427,0.896-0.732,1.267-0.917
			c0.499-0.311,0.915-0.379,1.248-0.207c0.41,0.169,0.604,0.55,0.582,1.144c-0.042,0.396-0.18,0.958-0.412,1.686
			c-0.46,1.414-1.359,3.489-2.7,6.225l-0.019,0.18l-0.071,0.122l-0.013,0.12c-0.096,0.165-0.856,1.659-2.283,4.48l-5.368,11.029
			c-0.86,1.875-1.962,4.556-3.301,8.042c-1.549,3.976-2.656,6.716-3.32,8.223c-0.159,0.404-0.438,0.553-0.835,0.442
			c-0.397-0.111-0.497-0.389-0.293-0.838c0.718-1.628,1.8-4.328,3.249-8.099c1.396-3.648,2.52-6.37,3.372-8.166l5.368-11.028
			l0.382-0.856c0.004-0.038,0.027-0.079,0.072-0.123l0.006-0.06l0.013-0.119c0.042-0.042,0.066-0.082,0.071-0.123l0.304-0.672
			l1.474-2.885c1.335-2.697,2.23-4.732,2.688-6.106c0.181-0.605,0.286-1.046,0.315-1.325l-0.06,0.004
			c-0.248,0.137-0.587,0.376-1.012,0.723c-0.773,0.685-1.779,1.722-3.016,3.11c-2.067,2.235-4.383,4.992-6.949,8.268
			c-2.566,3.278-4.373,5.624-5.417,7.038c-1.463,2.035-2.281,3.158-2.459,3.368c-0.676,0.875-1.233,1.526-1.666,1.951
			c-0.305,0.298-0.58,0.514-0.829,0.649c-0.413,0.227-0.771,0.291-1.071,0.193c-0.154-0.028-0.278-0.139-0.376-0.329l-0.092-0.23
			c-0.023-0.156-0.041-0.373-0.05-0.648c-0.001-0.354,0.023-0.968,0.077-1.84c0.08-1.504,0.221-3.408,0.424-5.711
			c0.32-3.416,0.746-7.096,1.277-11.038c0.186-1.395,0.347-2.549,0.482-3.467l-0.565,0.927l-3.951,7.557
			c-7.116,13.557-12.487,24.428-16.114,32.612c-0.16,0.404-0.438,0.553-0.836,0.443C365.647,72.659,365.549,72.382,365.754,71.933z"
			/>
	</g>
</g>
</svg>
