<?xml version="1.0" encoding="utf-8"?>
<!-- Generator: Adobe Illustrator 16.0.0, SVG Export Plug-In . SVG Version: 6.00 Build 0)  -->
<!DOCTYPE svg PUBLIC "-//W3C//DTD SVG 1.1//EN" "http://www.w3.org/Graphics/SVG/1.1/DTD/svg11.dtd">
<svg version="1.1" id="Ebene_1" xmlns="http://www.w3.org/2000/svg" xmlns:xlink="http://www.w3.org/1999/xlink" x="0px" y="0px"
	 width="510px" height="123px" viewBox="0 0 510 123" enable-background="new 0 0 510 123" xml:space="preserve">
<g>
	<polygon fill="#FDF4F1" points="30.951,14.309 0,123 487.792,87.681 510,0 	"/>
	<g>
		<defs>
			<rect id="SVGID_1_" width="510" height="123"/>
		</defs>
		<clipPath id="SVGID_2_">
			<use xlink:href="#SVGID_1_"  overflow="visible"/>
		</clipPath>
		<path clip-path="url(#SVGID_2_)" fill="none" stroke="#182C3A" stroke-width="1.552" stroke-miterlimit="7.483" d="
			M144.438,66.694c-1.207,0.36-2.332,0.677-3.373,0.946c-0.441,0.11-0.645,0.381-0.612,0.812c0.033,0.432,0.269,0.593,0.71,0.482
			c0.683-0.204,1.507-0.439,2.471-0.705c-3.504,6.637-6.86,13.343-10.066,20.116c-0.199,0.407-0.11,0.679,0.266,0.811
			c0.375,0.13,0.663-0.008,0.862-0.416c3.353-7.061,6.856-14.052,10.507-20.977c3.739-1.09,7.331-2.267,10.778-3.534
			c3.245-1.214,5.976-2.352,8.193-3.415c2.668-1.29,4.525-2.447,5.567-3.467c1.92-1.948,2.32-3.91,1.203-5.884
			c-0.858-1.478-2.599-2.895-5.224-4.251c-2.222-1.107-4.699-2.018-7.429-2.735l1.136-1.915c0.238-0.41,0.171-0.701-0.2-0.873
			c-0.372-0.171-0.677-0.051-0.915,0.36l-1.28,2.161c-1.905-0.419-3.367-0.594-4.388-0.522c-0.432,0.03-0.671,0.264-0.717,0.701
			c-0.046,0.438,0.147,0.641,0.579,0.61c0.863-0.06,2.134,0.088,3.812,0.444C152.239,52.359,148.279,59.442,144.438,66.694z
			 M164.947,48.452c2.445,1.211,4.046,2.479,4.803,3.807c0.822,1.442,0.539,2.843-0.851,4.202c-0.878,0.93-2.587,1.997-5.13,3.2
			c-2.174,1.02-4.863,2.136-8.069,3.346c-3.041,1.121-6.252,2.193-9.634,3.218c3.694-6.965,7.511-13.801,11.451-20.509
			C160.292,46.391,162.769,47.302,164.947,48.452z"/>
		<path clip-path="url(#SVGID_2_)" fill="none" stroke="#182C3A" stroke-width="1.552" stroke-miterlimit="7.483" d="
			M196.501,61.396c3.245-1.213,5.976-2.351,8.193-3.414c2.668-1.29,4.525-2.447,5.567-3.467c1.92-1.948,2.32-3.91,1.203-5.884
			c-0.858-1.478-2.599-2.895-5.224-4.251c-2.222-1.107-4.699-2.018-7.429-2.735l1.136-1.915c0.238-0.41,0.171-0.701-0.2-0.873
			c-0.372-0.171-0.677-0.051-0.915,0.36l-1.28,2.161c-1.905-0.419-3.367-0.594-4.388-0.522c-0.432,0.03-0.671,0.264-0.717,0.701
			c-0.046,0.438,0.147,0.641,0.579,0.61c0.863-0.06,2.134,0.088,3.812,0.444c-4.079,6.914-8.039,13.997-11.88,21.249
			c-1.207,0.361-2.332,0.678-3.373,0.947c-0.441,0.11-0.645,0.38-0.612,0.812c0.033,0.433,0.269,0.594,0.71,0.483
			c0.683-0.205,1.508-0.439,2.471-0.706c-3.504,6.637-6.86,13.343-10.066,20.117c-0.199,0.407-0.11,0.678,0.266,0.81
			c0.376,0.13,0.663-0.008,0.862-0.416c4.271-8.74,7.747-15.672,10.429-20.793c0.414,0.88,0.883,1.794,1.407,2.743l1.426,2.563
			l1.714,2.603l1.609,2.492l1.832,2.594l1.687,2.31l1.838,2.533c0.923,1.238,1.485,2.008,1.687,2.31
			c0.241,0.298,0.542,0.307,0.903,0.025c0.361-0.282,0.443-0.594,0.245-0.935c-0.242-0.299-0.824-1.067-1.746-2.304l-1.785-2.48
			l-1.687-2.308l-1.838-2.535l-1.563-2.376c-0.673-1.019-1.225-1.887-1.655-2.607l-1.374-2.508l-1.419-2.623
			C190.272,63.549,193.464,62.478,196.501,61.396z M205.467,45.619c2.445,1.211,4.046,2.479,4.803,3.807
			c0.822,1.442,0.539,2.843-0.851,4.202c-0.878,0.93-2.587,1.997-5.13,3.2c-2.174,1.02-4.863,2.136-8.069,3.346
			c-3.041,1.121-6.252,2.192-9.634,3.218c3.694-6.965,7.511-13.801,11.451-20.509C200.811,43.558,203.288,44.469,205.467,45.619z"/>
		<path clip-path="url(#SVGID_2_)" fill="none" stroke="#182C3A" stroke-width="1.552" stroke-miterlimit="7.483" d="
			M245.815,52.208c0.371,0.172,0.676,0.052,0.915-0.36c0.432-0.779,0.748-1.374,0.947-1.782l0.882-1.719
			c0.437-0.82,0.753-1.512,0.95-2.079c0.195-0.566,0.399-1.212,0.612-1.937c0.213-0.725,0.355-1.425,0.426-2.101
			c0.071-0.675,0.061-1.326-0.029-1.951c-0.249-1.718-1.123-2.663-2.625-2.835c-1.157-0.116-2.657,0.245-4.499,1.084
			c-1.354,0.648-2.747,1.475-4.178,2.482c-1.431,1.008-2.535,1.874-3.313,2.599c-5.402,5.034-10.429,10.968-15.084,17.804
			c-1.805-0.623-3.373-1.282-4.703-1.979c-0.332-0.174-0.627-0.065-0.882,0.328c-0.256,0.393-0.2,0.694,0.168,0.905
			c1.334,0.657,2.864,1.3,4.591,1.928c-3.012,4.552-5.374,8.859-7.088,12.925c-2.162,5.004-2.474,8.34-0.935,10.008
			c0.843,0.888,2.116,1.193,3.821,0.916c1.666-0.273,3.739-1.09,6.221-2.447c2.027-1.128,4.634-2.75,7.819-4.866
			c3.811-2.516,8.312-5.85,13.504-9.999c0.343-0.301,0.405-0.61,0.185-0.932c-0.22-0.318-0.519-0.348-0.897-0.085
			c-5.235,4.194-9.697,7.524-13.386,9.991c-3.059,2.029-5.622,3.609-7.689,4.74c-2.316,1.266-4.228,2.031-5.737,2.295
			c-1.308,0.21-2.241-0.001-2.798-0.633c-1.188-1.298-0.844-4.202,1.033-8.713c1.705-3.986,4.083-8.256,7.134-12.81l2.603,0.824
			c4.195,1.245,6.983,2.155,8.365,2.729c0.371,0.173,0.676,0.053,0.915-0.359c0.238-0.41,0.171-0.701-0.2-0.873
			c-1.456-0.609-4.302-1.534-8.536-2.777l-2.321-0.725c4.559-6.671,9.472-12.44,14.739-17.307c0.69-0.64,1.71-1.441,3.059-2.403
			c1.348-0.962,2.679-1.765,3.995-2.41c1.558-0.74,2.799-1.044,3.72-0.912c0.965,0.091,1.52,0.743,1.666,1.955
			c0.102,0.506,0.123,1.057,0.06,1.653c-0.063,0.597-0.186,1.217-0.371,1.861c-0.185,0.644-0.373,1.23-0.565,1.756
			c-0.192,0.526-0.48,1.138-0.865,1.836l-0.882,1.719c-0.203,0.449-0.519,1.042-0.947,1.782
			C245.376,51.746,245.443,52.037,245.815,52.208z"/>
		<path clip-path="url(#SVGID_2_)" fill="none" stroke="#182C3A" stroke-width="1.552" stroke-miterlimit="7.483" d="M289.18,34.823
			c0.255-0.392,0.199-0.695-0.168-0.906c-3.587-1.84-6.535-1.792-8.843,0.145c-1.795,1.507-3.116,4.243-3.961,8.208
			c-0.574,2.487-1.021,5.99-1.339,10.51c-0.312,4.441-0.567,7.063-0.769,7.866c-1.142,4.933-2.857,9.018-5.146,12.256
			c-1.418,1.992-3.063,3.558-4.938,4.694c-1.873,1.138-3.711,1.749-5.513,1.836c-1.846,0.129-3.474-0.319-4.886-1.345
			c-1.412-1.026-2.394-2.624-2.945-4.795c-0.077-0.389-0.328-0.5-0.755-0.332c-0.427,0.168-0.584,0.465-0.474,0.891
			c0.606,2.404,1.704,4.183,3.299,5.333c1.589,1.19,3.443,1.712,5.564,1.564c2.076-0.107,4.155-0.794,6.238-2.064
			c2.082-1.27,3.88-2.983,5.394-5.142c2.463-3.407,4.277-7.697,5.444-12.868c0.21-0.882,0.472-3.564,0.787-8.045
			c0.312-4.44,0.731-7.883,1.261-10.327c0.809-3.608,1.979-6.037,3.515-7.289c1.756-1.503,4.206-1.457,7.352,0.137
			C288.63,35.326,288.924,35.216,289.18,34.823z"/>
		<path clip-path="url(#SVGID_2_)" fill="none" stroke="#182C3A" stroke-width="1.552" stroke-miterlimit="7.483" d="
			M327.462,32.146c0.255-0.392,0.199-0.695-0.168-0.906c-3.587-1.84-6.535-1.792-8.843,0.145c-1.795,1.507-3.116,4.243-3.961,8.208
			c-0.574,2.487-1.021,5.99-1.339,10.51c-0.312,4.441-0.567,7.063-0.769,7.866c-1.142,4.933-2.857,9.018-5.146,12.255
			c-1.418,1.993-3.063,3.559-4.938,4.695c-1.873,1.137-3.711,1.749-5.513,1.836c-1.846,0.129-3.475-0.32-4.886-1.345
			c-1.412-1.026-2.395-2.624-2.945-4.795c-0.076-0.39-0.328-0.5-0.755-0.332s-0.584,0.465-0.474,0.891
			c0.605,2.404,1.703,4.183,3.299,5.333c1.589,1.19,3.443,1.712,5.564,1.564c2.076-0.107,4.155-0.794,6.238-2.064
			c2.082-1.27,3.88-2.983,5.393-5.142c2.463-3.407,4.278-7.697,5.445-12.868c0.21-0.882,0.471-3.564,0.787-8.045
			c0.311-4.44,0.73-7.883,1.261-10.327c0.809-3.608,1.979-6.037,3.514-7.289c1.757-1.503,4.206-1.457,7.353,0.137
			C326.912,32.649,327.206,32.539,327.462,32.146z"/>
		<path clip-path="url(#SVGID_2_)" fill="none" stroke="#182C3A" stroke-width="1.552" stroke-miterlimit="7.483" d="
			M360.189,44.209c0.371,0.172,0.677,0.052,0.915-0.36c0.433-0.779,0.748-1.374,0.947-1.782l0.882-1.719
			c0.438-0.82,0.753-1.512,0.95-2.079c0.195-0.566,0.399-1.212,0.612-1.937s0.354-1.425,0.426-2.101
			c0.071-0.675,0.061-1.326-0.029-1.951c-0.249-1.718-1.123-2.663-2.625-2.835c-1.156-0.116-2.656,0.245-4.499,1.084
			c-1.354,0.648-2.747,1.475-4.178,2.482c-1.431,1.008-2.535,1.874-3.312,2.599c-5.402,5.034-10.43,10.968-15.084,17.804
			c-1.806-0.623-3.373-1.282-4.703-1.979c-0.332-0.174-0.627-0.065-0.882,0.328c-0.257,0.393-0.2,0.694,0.168,0.905
			c1.334,0.657,2.863,1.3,4.591,1.928c-3.013,4.552-5.374,8.86-7.088,12.925c-2.163,5.004-2.475,8.34-0.936,10.008
			c0.843,0.889,2.116,1.193,3.821,0.916c1.666-0.273,3.739-1.09,6.221-2.446c2.027-1.129,4.634-2.75,7.819-4.867
			c3.811-2.516,8.312-5.85,13.504-9.999c0.343-0.3,0.405-0.61,0.185-0.931c-0.22-0.319-0.518-0.348-0.896-0.085
			c-5.235,4.194-9.697,7.524-13.386,9.991c-3.06,2.029-5.622,3.609-7.689,4.74c-2.316,1.266-4.228,2.031-5.737,2.295
			c-1.308,0.21-2.24-0.001-2.798-0.633c-1.188-1.298-0.844-4.202,1.033-8.713c1.705-3.986,4.083-8.255,7.134-12.809l2.604,0.824
			c4.194,1.245,6.982,2.155,8.364,2.729c0.371,0.172,0.677,0.052,0.915-0.36c0.238-0.41,0.172-0.701-0.199-0.873
			c-1.456-0.609-4.303-1.534-8.536-2.777l-2.321-0.725c4.559-6.671,9.472-12.44,14.739-17.307c0.689-0.64,1.71-1.441,3.059-2.403
			s2.679-1.765,3.995-2.41c1.558-0.74,2.799-1.044,3.72-0.912c0.966,0.091,1.521,0.743,1.666,1.955
			c0.103,0.506,0.123,1.057,0.061,1.653c-0.063,0.597-0.187,1.217-0.371,1.861c-0.186,0.644-0.373,1.23-0.565,1.756
			c-0.191,0.526-0.479,1.138-0.864,1.836l-0.883,1.719c-0.202,0.449-0.519,1.042-0.947,1.782
			C359.751,43.748,359.818,44.039,360.189,44.209z"/>
	</g>
	<g>
		<path fill="#182C3A" d="M156.319,45.445c-1.679-0.356-2.949-0.503-3.812-0.443c-0.433,0.03-0.625-0.174-0.579-0.611
			c0.046-0.438,0.284-0.671,0.716-0.701c1.021-0.072,2.483,0.104,4.389,0.522l1.279-2.161c0.238-0.41,0.543-0.531,0.916-0.36
			c0.371,0.172,0.438,0.463,0.2,0.874l-1.136,1.915c2.731,0.717,5.207,1.628,7.429,2.735c2.625,1.354,4.367,2.773,5.225,4.251
			c1.117,1.973,0.716,3.936-1.203,5.884c-1.042,1.02-2.899,2.176-5.568,3.467c-2.216,1.062-4.947,2.2-8.193,3.413
			c-3.446,1.269-7.039,2.445-10.777,3.535c-3.651,6.924-7.154,13.915-10.506,20.976c-0.2,0.408-0.487,0.547-0.863,0.416
			c-0.376-0.132-0.465-0.402-0.266-0.811c3.206-6.773,6.561-13.479,10.065-20.116c-0.962,0.266-1.787,0.5-2.471,0.706
			c-0.44,0.109-0.676-0.052-0.709-0.483c-0.032-0.431,0.17-0.702,0.612-0.812c1.041-0.27,2.167-0.586,3.374-0.945
			C148.279,59.443,152.239,52.359,156.319,45.445z M157.518,45.717c-3.939,6.707-7.757,13.542-11.451,20.508
			c3.382-1.025,6.593-2.098,9.634-3.219c3.206-1.209,5.895-2.325,8.069-3.346c2.543-1.202,4.253-2.27,5.131-3.199
			c1.39-1.359,1.672-2.761,0.851-4.203c-0.758-1.328-2.359-2.596-4.803-3.808C162.769,47.302,160.292,46.391,157.518,45.717z"/>
		<path fill="#182C3A" d="M186.926,64.612l1.42,2.621l1.374,2.51c0.431,0.72,0.982,1.589,1.655,2.606l1.563,2.377l1.838,2.534
			l1.686,2.308l1.786,2.48c0.923,1.237,1.504,2.004,1.745,2.305c0.199,0.342,0.117,0.651-0.244,0.934
			c-0.362,0.282-0.663,0.273-0.903-0.025c-0.203-0.302-0.765-1.07-1.687-2.308l-1.838-2.536l-1.687-2.308l-1.832-2.595l-1.609-2.492
			l-1.714-2.602l-1.426-2.564c-0.525-0.949-0.994-1.863-1.408-2.742c-2.682,5.121-6.157,12.052-10.428,20.793
			c-0.199,0.407-0.487,0.547-0.863,0.416c-0.376-0.133-0.464-0.402-0.265-0.812c3.206-6.773,6.561-13.479,10.065-20.115
			c-0.963,0.265-1.788,0.5-2.471,0.706c-0.441,0.109-0.676-0.052-0.709-0.484c-0.033-0.431,0.17-0.701,0.612-0.812
			c1.041-0.271,2.166-0.586,3.373-0.946c3.841-7.251,7.801-14.335,11.88-21.25c-1.678-0.356-2.948-0.503-3.812-0.443
			c-0.433,0.03-0.625-0.174-0.579-0.611c0.046-0.438,0.284-0.671,0.716-0.701c1.021-0.071,2.483,0.104,4.389,0.522l1.279-2.161
			c0.238-0.41,0.543-0.531,0.916-0.36c0.371,0.172,0.438,0.463,0.2,0.874l-1.137,1.915c2.731,0.717,5.208,1.628,7.43,2.735
			c2.625,1.354,4.366,2.773,5.225,4.252c1.116,1.973,0.716,3.935-1.204,5.884c-1.042,1.02-2.898,2.176-5.568,3.467
			c-2.215,1.062-4.947,2.2-8.192,3.413C193.464,62.477,190.273,63.549,186.926,64.612z M198.038,42.884
			c-3.94,6.707-7.757,13.543-11.451,20.509c3.381-1.026,6.592-2.098,9.634-3.219c3.205-1.21,5.895-2.326,8.069-3.347
			c2.543-1.202,4.253-2.27,5.131-3.199c1.389-1.359,1.672-2.761,0.851-4.203c-0.758-1.328-2.359-2.596-4.803-3.808
			C203.289,44.469,200.812,43.557,198.038,42.884z"/>
		<path fill="#182C3A" d="M245.615,51.334c0.429-0.741,0.744-1.333,0.947-1.782l0.882-1.719c0.385-0.697,0.673-1.309,0.866-1.836
			c0.191-0.525,0.379-1.111,0.564-1.755c0.184-0.643,0.308-1.264,0.37-1.861c0.063-0.596,0.042-1.147-0.059-1.652
			c-0.146-1.212-0.701-1.865-1.665-1.955c-0.922-0.133-2.163,0.171-3.721,0.911c-1.316,0.645-2.647,1.448-3.996,2.41
			c-1.349,0.962-2.367,1.763-3.059,2.403c-5.267,4.867-10.179,10.635-14.739,17.307l2.321,0.726
			c4.234,1.242,7.079,2.169,8.535,2.776c0.372,0.173,0.439,0.463,0.201,0.874c-0.239,0.411-0.543,0.531-0.914,0.359
			c-1.382-0.573-4.17-1.484-8.366-2.729l-2.604-0.823c-3.05,4.554-5.428,8.823-7.133,12.81c-1.877,4.51-2.221,7.413-1.033,8.713
			c0.557,0.631,1.49,0.842,2.798,0.632c1.508-0.263,3.42-1.028,5.736-2.294c2.067-1.132,4.631-2.711,7.689-4.741
			c3.69-2.467,8.151-5.798,13.386-9.99c0.377-0.264,0.676-0.235,0.897,0.085c0.218,0.32,0.157,0.63-0.186,0.93
			c-5.192,4.151-9.693,7.484-13.504,10c-3.185,2.116-5.791,3.738-7.818,4.867c-2.482,1.357-4.555,2.173-6.221,2.447
			c-1.705,0.277-2.979-0.028-3.821-0.916c-1.54-1.669-1.228-5.005,0.936-10.009c1.714-4.065,4.075-8.373,7.087-12.925
			c-1.727-0.627-3.257-1.27-4.591-1.927c-0.369-0.211-0.424-0.512-0.168-0.906c0.255-0.392,0.55-0.501,0.882-0.327
			c1.33,0.696,2.898,1.356,4.704,1.979c4.654-6.836,9.682-12.771,15.084-17.804c0.778-0.725,1.881-1.591,3.313-2.6
			c1.431-1.008,2.823-1.834,4.177-2.481c1.843-0.839,3.343-1.201,4.5-1.084c1.502,0.172,2.377,1.116,2.626,2.835
			c0.088,0.625,0.098,1.275,0.027,1.95c-0.071,0.677-0.212,1.376-0.424,2.102c-0.214,0.726-0.418,1.371-0.613,1.937
			c-0.197,0.566-0.513,1.259-0.95,2.079l-0.883,1.719c-0.198,0.408-0.514,1.003-0.947,1.783c-0.238,0.411-0.543,0.532-0.914,0.36
			C245.443,52.037,245.376,51.746,245.615,51.334z"/>
		<path fill="#182C3A" d="M288.239,35.155c-3.146-1.595-5.596-1.64-7.352-0.137c-1.534,1.251-2.707,3.681-3.515,7.289
			c-0.529,2.444-0.95,5.888-1.26,10.328c-0.316,4.48-0.578,7.163-0.787,8.044c-1.168,5.172-2.981,9.462-5.445,12.869
			c-1.514,2.158-3.312,3.872-5.394,5.141c-2.082,1.271-4.161,1.958-6.238,2.065c-2.119,0.147-3.974-0.374-5.564-1.564
			c-1.595-1.152-2.694-2.929-3.298-5.333c-0.11-0.427,0.047-0.723,0.474-0.892c0.428-0.168,0.679-0.057,0.755,0.332
			c0.55,2.173,1.533,3.77,2.945,4.795c1.411,1.025,3.04,1.474,4.886,1.345c1.802-0.087,3.64-0.697,5.513-1.835
			s3.52-2.703,4.938-4.695c2.289-3.237,4.004-7.322,5.146-12.255c0.201-0.804,0.457-3.426,0.769-7.867
			c0.317-4.52,0.765-8.022,1.338-10.51c0.846-3.965,2.166-6.701,3.962-8.208c2.307-1.936,5.255-1.983,8.843-0.145
			c0.366,0.211,0.423,0.515,0.168,0.906C288.865,35.22,288.572,35.331,288.239,35.155z"/>
		<path fill="#182C3A" d="M326.521,32.479c-3.145-1.595-5.595-1.64-7.351-0.137c-1.535,1.251-2.707,3.681-3.515,7.289
			c-0.53,2.444-0.95,5.887-1.261,10.328c-0.315,4.48-0.577,7.163-0.787,8.044c-1.167,5.172-2.981,9.462-5.445,12.869
			c-1.513,2.158-3.311,3.871-5.393,5.141c-2.083,1.271-4.162,1.958-6.238,2.064c-2.12,0.148-3.976-0.373-5.564-1.563
			c-1.596-1.152-2.693-2.929-3.299-5.333c-0.11-0.427,0.047-0.723,0.474-0.892c0.428-0.168,0.679-0.057,0.755,0.332
			c0.55,2.172,1.533,3.769,2.945,4.795c1.411,1.025,3.04,1.474,4.887,1.345c1.801-0.087,3.64-0.697,5.512-1.835
			c1.874-1.138,3.52-2.703,4.938-4.695c2.289-3.237,4.004-7.323,5.146-12.255c0.201-0.804,0.457-3.426,0.769-7.867
			c0.318-4.519,0.766-8.021,1.339-10.509c0.846-3.965,2.165-6.701,3.961-8.208c2.308-1.936,5.255-1.984,8.844-0.145
			c0.366,0.211,0.423,0.514,0.167,0.906C327.148,32.543,326.854,32.654,326.521,32.479z"/>
		<path fill="#182C3A" d="M359.931,43.34c0.429-0.741,0.745-1.333,0.947-1.782l0.883-1.719c0.386-0.697,0.673-1.309,0.866-1.836
			c0.19-0.525,0.379-1.111,0.564-1.755c0.185-0.643,0.307-1.264,0.37-1.861c0.062-0.596,0.043-1.147-0.06-1.653
			c-0.146-1.212-0.701-1.864-1.665-1.955c-0.922-0.132-2.162,0.172-3.721,0.912c-1.316,0.645-2.647,1.448-3.996,2.41
			s-2.367,1.763-3.059,2.403c-5.267,4.867-10.179,10.635-14.739,17.307l2.321,0.726c4.234,1.242,7.079,2.169,8.536,2.776
			c0.372,0.173,0.438,0.463,0.2,0.874c-0.239,0.412-0.544,0.532-0.914,0.36c-1.383-0.573-4.171-1.484-8.366-2.729l-2.603-0.823
			c-3.051,4.553-5.429,8.823-7.134,12.809c-1.877,4.51-2.221,7.413-1.032,8.714c0.556,0.631,1.489,0.842,2.797,0.632
			c1.509-0.264,3.42-1.029,5.736-2.295c2.068-1.132,4.631-2.711,7.689-4.74c3.689-2.468,8.151-5.798,13.387-9.991
			c0.377-0.263,0.677-0.234,0.897,0.085c0.218,0.32,0.156,0.63-0.187,0.93c-5.192,4.15-9.692,7.483-13.503,9.999
			c-3.186,2.117-5.792,3.739-7.819,4.867c-2.482,1.357-4.555,2.173-6.221,2.447c-1.705,0.277-2.979-0.028-3.821-0.916
			c-1.539-1.668-1.228-5.005,0.936-10.009c1.714-4.064,4.075-8.372,7.088-12.925c-1.728-0.626-3.258-1.27-4.592-1.927
			c-0.368-0.212-0.424-0.512-0.168-0.906c0.255-0.392,0.55-0.501,0.882-0.327c1.33,0.696,2.898,1.356,4.704,1.979
			c4.653-6.836,9.682-12.771,15.084-17.804c0.777-0.725,1.881-1.591,3.312-2.6c1.432-1.007,2.823-1.833,4.178-2.481
			c1.843-0.839,3.342-1.201,4.499-1.084c1.502,0.172,2.377,1.117,2.626,2.835c0.088,0.625,0.099,1.275,0.027,1.95
			c-0.071,0.677-0.213,1.376-0.425,2.102c-0.214,0.725-0.418,1.371-0.612,1.937c-0.197,0.566-0.513,1.259-0.949,2.079l-0.884,1.718
			c-0.198,0.409-0.515,1.003-0.947,1.783c-0.238,0.411-0.543,0.531-0.914,0.359C359.759,44.043,359.692,43.752,359.931,43.34z"/>
	</g>
</g>
</svg>
