<?xml version="1.0" encoding="utf-8"?>
<!-- Generator: Adobe Illustrator 16.0.0, SVG Export Plug-In . SVG Version: 6.00 Build 0)  -->
<!DOCTYPE svg PUBLIC "-//W3C//DTD SVG 1.1//EN" "http://www.w3.org/Graphics/SVG/1.1/DTD/svg11.dtd">
<svg version="1.1" id="Ebene_1" xmlns="http://www.w3.org/2000/svg" xmlns:xlink="http://www.w3.org/1999/xlink" x="0px" y="0px"
	 width="485px" height="122px" viewBox="0 0 485 122" enable-background="new 0 0 485 122" xml:space="preserve">
<g>
	<polygon fill="#FCF3F0" points="23.27,33.776 0,122 459.958,87.84 485,0 	"/>
	<g>
		<defs>
			<rect id="SVGID_1_" width="485" height="122"/>
		</defs>
		<clipPath id="SVGID_2_">
			<use xlink:href="#SVGID_1_"  overflow="visible"/>
		</clipPath>
		<path clip-path="url(#SVGID_2_)" fill="none" stroke="#182C3A" stroke-width="1.552" stroke-miterlimit="7.483" d="
			M141.474,59.417c0.004-0.039,0.053-0.142,0.149-0.306L142.944,56c0.815-2.188,1.125-3.846,0.932-4.978
			c-0.147-0.818-0.536-1.392-1.163-1.723c-0.629-0.331-1.461-0.381-2.498-0.151c-1.317,0.29-2.699,0.83-4.146,1.621
			c-1.448,0.792-2.639,1.556-3.573,2.292c-0.936,0.737-2.046,1.663-3.332,2.778c-5.664,4.934-10.876,10.763-15.636,17.487
			c-2.238-1.697-3.834-3.203-4.787-4.518c-0.307-0.412-0.696-0.425-1.165-0.037c-0.47,0.388-0.551,0.789-0.243,1.201
			c1.058,1.426,2.779,3.041,5.161,4.847c-1.66,2.445-3.273,5.003-4.841,7.677c-1.654,2.761-3.293,6.11-4.914,10.05
			c-1.05,2.56-1.687,4.558-1.917,5.994c-0.134,0.916-0.114,1.645,0.063,2.186c0.313,0.727,0.882,1.062,1.707,1.005
			c0.549-0.038,0.854-0.336,0.912-0.892c0.059-0.558-0.187-0.816-0.737-0.777c-0.157,0.011-0.249-0.042-0.275-0.159
			c-0.124-0.307-0.133-0.78-0.027-1.418c0.212-1.278,0.795-3.114,1.748-5.508c1.567-3.779,3.159-7.066,4.779-9.863
			c1.515-2.552,3.099-5.011,4.75-7.375c2.649,1.867,6.179,4.066,10.59,6.598c0.442,0.246,0.825,0.12,1.151-0.376
			c0.324-0.495,0.266-0.866-0.176-1.111c-4.411-2.533-7.921-4.733-10.531-6.604c4.674-6.639,9.777-12.361,15.31-17.168
			c1.972-1.716,3.755-3.104,5.348-4.162c1.592-1.058,3.205-1.763,4.841-2.114c0.675-0.126,1.162-0.12,1.46,0.016
			c0.257,0.14,0.425,0.405,0.501,0.794c0.144,0.858-0.136,2.219-0.838,4.083c-0.268,0.69-0.601,1.443-0.998,2.259
			c-0.004,0.04-0.084,0.243-0.239,0.609l-0.065,0.064l-0.013,0.119l-0.071,0.123c0.004-0.039,0.027-0.08,0.071-0.123l-0.071,0.123
			l-0.143,0.247l-1.973,3.748l-0.006,0.061c-0.386,0.697-0.623,1.108-0.714,1.232c-0.346,0.696-0.905,1.741-1.674,3.136l-1.734,3.14
			l-11.223,21.677l-2.128,4.114c-0.199,0.408-0.322,0.653-0.369,0.735l-0.065,0.064l-0.013,0.119
			c-0.048,0.082-0.073,0.143-0.078,0.183c-0.028,0.633,0.279,0.869,0.92,0.705c0.2-0.053,0.366-0.143,0.496-0.271
			c0.005-0.04,0.028-0.081,0.072-0.123l0.065-0.064l0.078-0.183l6.787-12.845c0.004-0.038,0.027-0.08,0.071-0.123l5.936-11.424
			l4.97-9.462c0.004-0.039,0.026-0.061,0.065-0.062L141.474,59.417z"/>
		<path clip-path="url(#SVGID_2_)" fill="none" stroke="#182C3A" stroke-width="1.552" stroke-miterlimit="7.483" d="
			M143.288,91.663c0.423,0.05,0.697-0.147,0.822-0.59c0.382-1.407,0.931-2.925,1.648-4.554c0.76-1.671,1.41-3.038,1.951-4.103
			c0.54-1.062,1.377-2.631,2.511-4.702c1.133-2.071,1.874-3.455,2.22-4.15c2.426-4.55,4.118-7.666,5.075-9.351l3.317-5.974
			c0.429-0.74,1.422-2.408,2.981-5.002l1.832-2.969c0.012,0.63-0.201,2.283-0.638,4.957c-1.251,7.821-2.31,15.865-3.179,24.132
			c-0.017,0.16-0.068,0.548-0.152,1.165c-0.085,0.618-0.166,1.205-0.243,1.763c-0.079,0.559-0.161,1.254-0.249,2.089
			c-0.087,1.19-0.072,2.156,0.046,2.897c0.119,1.096,0.462,1.723,1.03,1.881c0.375,0.132,0.796,0.024,1.262-0.325
			c0.295-0.218,0.643-0.558,1.043-1.02c0.58-0.711,1.292-1.728,2.132-3.049c0.421-0.66,0.866-1.383,1.339-2.165l1.155-2.094
			l0.637-1.051l5.059-8.64l5.546-9.383l5.068-8.167l5.791-8.928c0.277-0.413,0.24-0.716-0.109-0.909
			c-0.351-0.192-0.643-0.103-0.876,0.268c-1.843,2.694-3.793,5.671-5.85,8.932l-5.08,8.286l-5.612,9.447l-5.052,8.58
			c-0.048,0.083-0.241,0.431-0.578,1.047c-0.338,0.615-0.741,1.294-1.208,2.037l-1.28,2.161c-0.797,1.278-1.462,2.232-1.996,2.861
			c-0.313,0.377-0.573,0.633-0.782,0.766c-0.004,0.04-0.026,0.061-0.065,0.063c-0.141-0.147-0.242-0.476-0.306-0.984
			c-0.09-0.624-0.095-1.513-0.012-2.662c0.083-0.795,0.163-1.471,0.242-2.03c0.078-0.557,0.159-1.144,0.244-1.763
			c0.084-0.617,0.135-1.005,0.152-1.164c0.793-7.552,1.848-15.556,3.167-24.014c0.478-3.071,0.693-5.118,0.645-6.141l0.013-0.119
			c0.016-0.159,0.009-0.276-0.022-0.354c0.017-0.158-0.008-0.295-0.074-0.409c-0.163-0.304-0.403-0.425-0.721-0.364
			c-0.158,0.011-0.303,0.101-0.438,0.268l-0.13,0.127c-0.088,0.086-0.176,0.19-0.267,0.315c-0.178,0.21-0.41,0.561-0.695,1.054
			l-1.898,3.033c-1.563,2.635-2.559,4.322-2.987,5.062l-3.317,5.973c-0.958,1.686-2.653,4.842-5.088,9.47l-2.239,4.063l-2.492,4.79
			c-0.58,1.067-1.243,2.465-1.99,4.194c-0.747,1.729-1.33,3.299-1.752,4.709C142.714,91.367,142.865,91.613,143.288,91.663z"/>
		<path clip-path="url(#SVGID_2_)" fill="none" stroke="#182C3A" stroke-width="1.552" stroke-miterlimit="7.483" d="
			M202.236,68.129c2.959,1.885,5.049,3.316,6.272,4.296c0.328,0.214,0.637,0.144,0.928-0.213c0.291-0.355,0.294-0.661,0.009-0.918
			c-1.262-0.977-3.369-2.427-6.324-4.351l-1.261-0.801c3.217-5.393,6.904-10.623,11.062-15.688l2.213-2.7
			c0.576-0.671,1.335-1.493,2.276-2.467c0.94-0.973,1.845-1.795,2.715-2.468c0.869-0.672,1.755-1.218,2.656-1.636
			c0.697-0.324,1.192-0.399,1.485-0.222c0.297,0.137,0.495,0.478,0.594,1.023c0.232,1.129,0.038,2.977-0.582,5.545
			c-0.271,1.085-0.611,2.283-1.021,3.593c-0.411,1.312-0.778,2.392-1.101,3.244l-0.995,2.792c-0.336,0.97-0.526,1.477-0.569,1.519
			c-0.125,0.443,0.014,0.7,0.416,0.77c0.402,0.071,0.682-0.097,0.842-0.503c0.004-0.039,0.194-0.546,0.569-1.519l0.995-2.792
			c0.327-0.891,0.697-2.002,1.11-3.333c0.412-1.331,0.756-2.558,1.03-3.682c0.681-2.77,0.877-4.816,0.587-6.137
			c-0.179-0.895-0.566-1.479-1.16-1.754c-0.669-0.308-1.518-0.209-2.545,0.296c-0.985,0.464-1.963,1.055-2.935,1.774
			c-0.972,0.719-1.962,1.608-2.969,2.664c-1.008,1.057-1.778,1.9-2.312,2.529c-0.487,0.547-1.244,1.448-2.272,2.704
			c-4.165,5.144-7.857,10.413-11.074,15.807c-1.567-1.035-2.887-2.008-3.961-2.919c-0.328-0.214-0.638-0.143-0.928,0.213
			c-0.292,0.356-0.295,0.662-0.009,0.918c1.112,0.909,2.507,1.916,4.184,3.021c-4.096,7.073-7.255,14.14-9.478,21.199
			c-0.121,0.402,0.021,0.64,0.423,0.71c0.401,0.07,0.684-0.116,0.848-0.562c2.124-6.856,5.188-13.758,9.192-20.706L202.236,68.129z"
			/>
		<path clip-path="url(#SVGID_2_)" fill="none" stroke="#182C3A" stroke-width="1.552" stroke-miterlimit="7.483" d="
			M265.214,50.764c0.004-0.039,0.053-0.142,0.148-0.306l1.321-3.111c0.815-2.188,1.125-3.846,0.932-4.978
			c-0.146-0.818-0.535-1.392-1.163-1.723c-0.629-0.331-1.461-0.381-2.497-0.151c-1.317,0.29-2.699,0.83-4.146,1.621
			c-1.448,0.792-2.639,1.556-3.573,2.292c-0.936,0.737-2.046,1.663-3.332,2.778c-5.664,4.934-10.876,10.763-15.636,17.487
			c-2.238-1.697-3.834-3.203-4.787-4.518c-0.307-0.412-0.696-0.425-1.165-0.037c-0.47,0.388-0.551,0.789-0.243,1.201
			c1.058,1.427,2.779,3.041,5.161,4.848c-1.66,2.444-3.273,5.003-4.841,7.677c-1.654,2.76-3.293,6.11-4.914,10.05
			c-1.05,2.56-1.687,4.557-1.917,5.994c-0.134,0.916-0.114,1.644,0.063,2.185c0.313,0.728,0.882,1.063,1.707,1.006
			c0.549-0.038,0.854-0.337,0.912-0.893c0.059-0.557-0.187-0.815-0.737-0.777c-0.157,0.012-0.249-0.042-0.275-0.158
			c-0.124-0.308-0.133-0.78-0.027-1.418c0.212-1.278,0.795-3.114,1.748-5.509c1.567-3.778,3.159-7.065,4.779-9.862
			c1.515-2.553,3.099-5.012,4.75-7.375c2.649,1.867,6.179,4.065,10.59,6.598c0.442,0.246,0.825,0.12,1.151-0.376
			c0.324-0.496,0.266-0.867-0.176-1.112c-4.411-2.532-7.921-4.732-10.531-6.603c4.674-6.639,9.777-12.362,15.31-17.168
			c1.973-1.716,3.755-3.104,5.349-4.162c1.592-1.058,3.205-1.763,4.841-2.114c0.675-0.126,1.162-0.12,1.46,0.016
			c0.257,0.14,0.425,0.405,0.501,0.794c0.144,0.858-0.136,2.219-0.838,4.083c-0.269,0.69-0.602,1.443-0.998,2.259
			c-0.004,0.04-0.084,0.243-0.239,0.609l-0.064,0.064l-0.014,0.119l-0.07,0.123c0.004-0.039,0.026-0.08,0.07-0.123l-0.07,0.123
			l-0.144,0.247l-1.973,3.748l-0.006,0.06c-0.387,0.698-0.623,1.109-0.714,1.233c-0.347,0.696-0.905,1.741-1.675,3.136l-1.733,3.139
			l-11.224,21.678l-2.128,4.113c-0.198,0.408-0.321,0.654-0.369,0.736l-0.064,0.064l-0.013,0.118
			c-0.049,0.082-0.073,0.144-0.078,0.184c-0.028,0.633,0.278,0.869,0.92,0.705c0.2-0.054,0.366-0.144,0.496-0.271
			c0.005-0.04,0.027-0.081,0.071-0.123l0.065-0.063l0.078-0.184l6.787-12.844c0.004-0.039,0.026-0.081,0.07-0.123l5.937-11.424
			l4.97-9.462c0.004-0.039,0.026-0.061,0.065-0.063L265.214,50.764z"/>
		<path clip-path="url(#SVGID_2_)" fill="none" stroke="#182C3A" stroke-width="1.552" stroke-miterlimit="7.483" d="
			M304.185,49.874c-0.328-0.214-0.629-0.134-0.902,0.241c-1.097,1.537-2.316,3.496-3.657,5.878l-2.591,4.62
			c-4.545,0.594-8.071,0.959-10.579,1.095c-2.196,0.114-4.088,0.128-5.677,0.042l12.248-20.861c0.238-0.411,0.171-0.702-0.2-0.874
			c-0.371-0.171-0.677-0.051-0.915,0.36c-1.73,3.12-5.864,10.196-12.402,21.227c-1.232-0.151-2.202-0.379-2.91-0.685
			c-0.372-0.171-0.677-0.05-0.915,0.36c-0.239,0.412-0.171,0.703,0.201,0.874c0.703,0.346,1.651,0.595,2.844,0.748
			c-4.646,7.862-8.336,14.413-11.069,19.654c-0.198,0.407-0.109,0.678,0.267,0.81c0.375,0.131,0.663-0.008,0.861-0.416
			c2.777-5.284,6.533-11.918,11.271-19.904c1.702,0.118,3.788,0.11,6.258-0.023c2.508-0.136,5.816-0.465,9.926-0.99l-14.261,24.435
			c-0.239,0.41-0.172,0.701,0.2,0.873c0.371,0.171,0.676,0.052,0.915-0.359l14.267-24.493l3.376-5.977
			c1.434-2.507,2.608-4.423,3.528-5.751C304.541,50.381,304.513,50.087,304.185,49.874z"/>
		<path clip-path="url(#SVGID_2_)" fill="none" stroke="#182C3A" stroke-width="1.552" stroke-miterlimit="7.483" d="
			M329.612,56.026c3.245-1.213,5.977-2.351,8.193-3.414c2.668-1.29,4.525-2.447,5.567-3.467c1.92-1.948,2.319-3.91,1.202-5.884
			c-0.857-1.478-2.599-2.895-5.224-4.251c-2.222-1.107-4.699-2.018-7.429-2.735l1.136-1.915c0.238-0.41,0.171-0.701-0.2-0.873
			c-0.372-0.171-0.677-0.051-0.915,0.36l-1.279,2.161c-1.905-0.419-3.367-0.594-4.389-0.522c-0.432,0.03-0.671,0.264-0.717,0.701
			c-0.046,0.438,0.147,0.641,0.579,0.61c0.863-0.06,2.134,0.088,3.812,0.444c-4.078,6.914-8.039,13.997-11.88,21.249
			c-1.207,0.361-2.332,0.677-3.373,0.947c-0.44,0.11-0.645,0.38-0.611,0.812c0.032,0.432,0.269,0.593,0.71,0.483
			c0.683-0.205,1.507-0.44,2.471-0.706c-3.504,6.637-6.86,13.343-10.066,20.117c-0.198,0.407-0.109,0.679,0.267,0.811
			c0.375,0.13,0.663-0.009,0.861-0.416c4.271-8.741,7.747-15.672,10.43-20.793c0.414,0.88,0.883,1.794,1.407,2.743l1.426,2.563
			l1.714,2.603l1.608,2.492l1.832,2.595l1.688,2.309l1.838,2.534c0.923,1.237,1.485,2.007,1.688,2.309
			c0.24,0.298,0.542,0.308,0.902,0.026c0.361-0.283,0.443-0.594,0.245-0.936c-0.242-0.299-0.824-1.066-1.746-2.304l-1.785-2.479
			l-1.687-2.309l-1.838-2.535l-1.563-2.376c-0.673-1.019-1.225-1.887-1.654-2.606l-1.374-2.508l-1.42-2.624
			C323.384,58.178,326.575,57.107,329.612,56.026z M338.578,40.248c2.445,1.211,4.047,2.479,4.804,3.807
			c0.821,1.442,0.539,2.843-0.852,4.202c-0.878,0.93-2.587,1.997-5.13,3.2c-2.174,1.02-4.863,2.136-8.068,3.346
			c-3.041,1.121-6.252,2.193-9.635,3.218c3.694-6.965,7.512-13.801,11.451-20.509C333.923,38.187,336.399,39.098,338.578,40.248z"/>
		<path clip-path="url(#SVGID_2_)" fill="none" stroke="#182C3A" stroke-width="1.552" stroke-miterlimit="7.483" d="
			M355.771,38.247c0.176,0.363,0.451,0.433,0.826,0.209c1.001-0.622,2.734-1.177,5.203-1.666c2.148-0.426,4.781-0.808,7.896-1.144
			l0.059-0.004c-7.884,13.453-15.229,27.342-22.035,41.667c-0.199,0.408-0.11,0.679,0.266,0.81c0.375,0.132,0.663-0.007,0.862-0.415
			c6.906-14.528,14.367-28.604,22.386-42.225c1.653-0.154,5.778-0.463,12.375-0.924c0.432-0.031,0.67-0.264,0.716-0.702
			c0.047-0.437-0.146-0.64-0.578-0.61c-6.36,0.445-10.271,0.738-11.727,0.879l1.56-2.595c0.237-0.41,0.17-0.702-0.201-0.873
			c-0.372-0.171-0.677-0.051-0.914,0.359l-1.923,3.272l-0.766,0.053c-3.192,0.342-5.864,0.726-8.014,1.152
			c-2.629,0.539-4.505,1.144-5.628,1.814C355.716,37.57,355.595,37.885,355.771,38.247z"/>
	</g>
	<g>
		<path fill="#182C3A" d="M139.353,63.471c-0.04,0.003-0.061,0.024-0.065,0.064l-4.97,9.462l-5.936,11.422
			c-0.044,0.043-0.068,0.086-0.072,0.125l-6.786,12.843l-0.079,0.183l-0.064,0.064c-0.044,0.042-0.068,0.083-0.072,0.124
			c-0.13,0.127-0.295,0.217-0.495,0.271c-0.643,0.163-0.949-0.072-0.92-0.705c0.004-0.04,0.03-0.101,0.077-0.183l0.013-0.119
			l0.065-0.063c0.047-0.083,0.169-0.328,0.369-0.737l2.128-4.113l11.223-21.677l1.733-3.139c0.769-1.396,1.328-2.441,1.674-3.136
			c0.091-0.125,0.329-0.536,0.714-1.233l0.006-0.06l1.973-3.75l0.143-0.247l0.071-0.124c-0.044,0.044-0.067,0.085-0.071,0.124
			l0.071-0.124l0.013-0.118l0.065-0.064c0.156-0.366,0.236-0.567,0.24-0.608c0.397-0.817,0.729-1.57,0.998-2.259
			c0.702-1.863,0.981-3.225,0.838-4.083c-0.077-0.389-0.244-0.653-0.502-0.793c-0.298-0.136-0.784-0.142-1.459-0.016
			c-1.635,0.351-3.249,1.056-4.84,2.113c-1.593,1.059-3.376,2.446-5.35,4.163c-5.532,4.807-10.635,10.528-15.309,17.168
			c2.61,1.87,6.12,4.07,10.531,6.603c0.441,0.246,0.499,0.616,0.175,1.112c-0.325,0.497-0.708,0.622-1.15,0.376
			c-4.41-2.531-7.941-4.73-10.59-6.599c-1.651,2.365-3.236,4.823-4.751,7.376c-1.619,2.797-3.211,6.084-4.777,9.862
			c-0.955,2.396-1.537,4.23-1.748,5.509c-0.106,0.638-0.098,1.11,0.025,1.419c0.026,0.116,0.119,0.168,0.275,0.157
			c0.55-0.039,0.796,0.22,0.737,0.778c-0.059,0.555-0.363,0.853-0.913,0.892c-0.823,0.058-1.394-0.278-1.706-1.006
			c-0.177-0.54-0.197-1.269-0.062-2.186c0.229-1.436,0.866-3.434,1.917-5.992c1.621-3.94,3.259-7.291,4.914-10.051
			c1.567-2.673,3.18-5.231,4.841-7.677c-2.383-1.806-4.104-3.422-5.162-4.848c-0.308-0.412-0.227-0.812,0.244-1.201
			c0.469-0.388,0.857-0.375,1.165,0.038c0.953,1.314,2.549,2.82,4.786,4.518c4.761-6.725,9.973-12.553,15.636-17.487
			c1.286-1.115,2.396-2.041,3.332-2.777c0.934-0.736,2.125-1.501,3.573-2.292c1.446-0.792,2.829-1.331,4.146-1.622
			c1.037-0.23,1.87-0.18,2.498,0.151c0.628,0.331,1.015,0.906,1.163,1.724c0.192,1.131-0.118,2.79-0.932,4.978l-1.322,3.111
			c-0.095,0.165-0.144,0.266-0.148,0.305L139.353,63.471z"/>
		<path fill="#182C3A" d="M142.839,90.925c0.421-1.41,1.004-2.979,1.752-4.708c0.746-1.729,1.41-3.127,1.99-4.193l2.492-4.792
			l2.239-4.062c2.435-4.63,4.13-7.785,5.088-9.471l3.317-5.973c0.429-0.741,1.424-2.427,2.987-5.062l1.898-3.033
			c0.285-0.493,0.518-0.845,0.696-1.055c0.089-0.125,0.179-0.229,0.267-0.314l0.131-0.127c0.134-0.167,0.28-0.256,0.437-0.267
			c0.317-0.061,0.558,0.059,0.722,0.364c0.065,0.113,0.09,0.25,0.073,0.408c0.031,0.079,0.038,0.196,0.021,0.354l-0.013,0.118
			c0.049,1.024-0.167,3.071-0.646,6.143c-1.318,8.457-2.373,16.461-3.167,24.013c-0.017,0.159-0.067,0.548-0.151,1.165
			c-0.085,0.618-0.167,1.205-0.244,1.763c-0.079,0.559-0.16,1.234-0.243,2.029c-0.082,1.15-0.078,2.038,0.013,2.663
			c0.064,0.508,0.165,0.838,0.306,0.984c0.039-0.003,0.061-0.023,0.065-0.064c0.21-0.133,0.469-0.388,0.783-0.765
			c0.533-0.628,1.198-1.582,1.996-2.861l1.28-2.161c0.468-0.743,0.871-1.423,1.208-2.037c0.337-0.616,0.53-0.964,0.578-1.047
			l5.052-8.581l5.612-9.446l5.08-8.286c2.058-3.261,4.008-6.239,5.851-8.933c0.233-0.372,0.525-0.46,0.875-0.268
			c0.35,0.193,0.387,0.496,0.109,0.91l-5.791,8.928l-5.067,8.167l-5.546,9.384l-5.059,8.639l-0.637,1.051l-1.155,2.094
			c-0.472,0.783-0.917,1.506-1.339,2.165c-0.841,1.322-1.551,2.338-2.132,3.05c-0.4,0.462-0.748,0.802-1.044,1.019
			c-0.466,0.349-0.887,0.458-1.261,0.326c-0.568-0.157-0.911-0.785-1.03-1.882c-0.118-0.741-0.134-1.706-0.047-2.896
			c0.088-0.835,0.17-1.53,0.25-2.09c0.077-0.557,0.158-1.144,0.244-1.763c0.084-0.616,0.135-1.005,0.151-1.164
			c0.869-8.268,1.929-16.311,3.18-24.132c0.436-2.674,0.649-4.326,0.638-4.958l-1.833,2.969c-1.559,2.595-2.552,4.263-2.981,5.003
			l-3.317,5.972c-0.958,1.686-2.649,4.803-5.076,9.352c-0.345,0.696-1.085,2.079-2.219,4.15c-1.134,2.072-1.972,3.641-2.512,4.704
			c-0.542,1.064-1.191,2.431-1.95,4.101c-0.718,1.628-1.267,3.147-1.648,4.554c-0.125,0.443-0.399,0.64-0.822,0.591
			C142.865,91.613,142.715,91.367,142.839,90.925z"/>
		<path fill="#182C3A" d="M201.147,67.376c-4.004,6.948-7.069,13.851-9.192,20.706c-0.164,0.445-0.447,0.633-0.848,0.562
			c-0.403-0.07-0.544-0.308-0.423-0.71c2.222-7.06,5.382-14.126,9.477-21.199c-1.677-1.105-3.072-2.114-4.184-3.022
			c-0.285-0.255-0.282-0.562,0.009-0.918c0.291-0.355,0.6-0.427,0.929-0.213c1.073,0.911,2.394,1.884,3.96,2.92
			c3.217-5.394,6.909-10.663,11.075-15.808c1.027-1.255,1.784-2.156,2.271-2.704c0.534-0.629,1.303-1.471,2.312-2.529
			c1.007-1.056,1.996-1.945,2.969-2.664c0.972-0.718,1.949-1.309,2.935-1.773c1.026-0.505,1.875-0.604,2.545-0.296
			c0.593,0.274,0.98,0.858,1.16,1.753c0.29,1.322,0.094,3.368-0.587,6.139c-0.274,1.123-0.618,2.351-1.03,3.681
			c-0.414,1.332-0.783,2.443-1.11,3.334l-0.996,2.792c-0.375,0.974-0.564,1.48-0.568,1.519c-0.159,0.407-0.44,0.574-0.843,0.503
			c-0.402-0.07-0.541-0.327-0.416-0.77c0.043-0.042,0.233-0.549,0.57-1.52l0.994-2.792c0.323-0.852,0.691-1.933,1.101-3.243
			c0.41-1.31,0.751-2.509,1.02-3.593c0.621-2.568,0.815-4.417,0.583-5.545c-0.098-0.545-0.297-0.887-0.593-1.024
			c-0.293-0.176-0.789-0.102-1.485,0.222c-0.902,0.418-1.788,0.965-2.656,1.636c-0.871,0.673-1.775,1.495-2.715,2.468
			c-0.942,0.974-1.7,1.797-2.277,2.468l-2.213,2.699c-4.158,5.065-7.844,10.295-11.062,15.689l1.261,0.799
			c2.954,1.924,5.062,3.375,6.324,4.352c0.285,0.257,0.281,0.562-0.009,0.918s-0.599,0.427-0.929,0.214
			c-1.221-0.98-3.313-2.411-6.271-4.298L201.147,67.376z"/>
	</g>
	<g>
		<path fill="#182C3A" d="M263.095,54.819c-0.04,0.003-0.062,0.024-0.065,0.064l-4.97,9.461l-5.937,11.423
			c-0.044,0.043-0.067,0.085-0.072,0.124l-6.787,12.843l-0.077,0.184l-0.064,0.064c-0.044,0.042-0.068,0.082-0.072,0.123
			c-0.131,0.128-0.296,0.218-0.496,0.271c-0.642,0.163-0.948-0.072-0.919-0.705c0.004-0.04,0.029-0.102,0.076-0.184l0.013-0.119
			l0.065-0.063c0.047-0.083,0.17-0.328,0.37-0.736l2.127-4.113l11.224-21.677l1.732-3.139c0.771-1.396,1.329-2.441,1.676-3.136
			c0.091-0.125,0.327-0.536,0.713-1.233l0.006-0.06l1.974-3.749l0.143-0.246l0.071-0.125c-0.044,0.044-0.067,0.085-0.071,0.125
			l0.071-0.125l0.013-0.118l0.065-0.064c0.155-0.366,0.235-0.567,0.239-0.608c0.397-0.817,0.73-1.57,0.997-2.259
			c0.702-1.863,0.983-3.225,0.839-4.083c-0.076-0.388-0.244-0.653-0.501-0.793c-0.298-0.136-0.784-0.142-1.46-0.017
			c-1.635,0.352-3.249,1.057-4.841,2.114c-1.593,1.059-3.376,2.446-5.349,4.163c-5.533,4.806-10.636,10.529-15.309,17.168
			c2.61,1.869,6.119,4.069,10.53,6.603c0.441,0.245,0.5,0.615,0.176,1.112c-0.326,0.497-0.709,0.621-1.151,0.376
			c-4.41-2.532-7.94-4.73-10.589-6.599c-1.652,2.365-3.236,4.823-4.751,7.376c-1.62,2.796-3.212,6.083-4.778,9.861
			c-0.954,2.396-1.536,4.23-1.748,5.51c-0.107,0.638-0.098,1.109,0.026,1.417c0.026,0.117,0.118,0.169,0.275,0.158
			c0.55-0.038,0.796,0.221,0.737,0.778c-0.059,0.556-0.363,0.854-0.913,0.892c-0.824,0.058-1.394-0.277-1.706-1.005
			c-0.178-0.54-0.198-1.269-0.063-2.186c0.229-1.437,0.867-3.435,1.916-5.993c1.622-3.939,3.261-7.291,4.915-10.05
			c1.567-2.674,3.181-5.232,4.841-7.677c-2.382-1.807-4.104-3.422-5.161-4.848c-0.309-0.413-0.228-0.813,0.243-1.202
			c0.469-0.388,0.857-0.375,1.165,0.038c0.953,1.314,2.549,2.821,4.787,4.519c4.761-6.726,9.972-12.554,15.635-17.488
			c1.287-1.115,2.397-2.041,3.333-2.777c0.934-0.736,2.126-1.501,3.573-2.292c1.446-0.792,2.829-1.331,4.146-1.622
			c1.038-0.229,1.87-0.18,2.499,0.151c0.627,0.331,1.015,0.906,1.162,1.724c0.193,1.131-0.117,2.791-0.933,4.978l-1.32,3.111
			c-0.096,0.165-0.146,0.266-0.149,0.305L263.095,54.819z"/>
	</g>
	<g>
		<path fill="#182C3A" d="M304.271,50.756c-0.92,1.328-2.096,3.245-3.528,5.751l-3.375,5.977L283.1,86.978
			c-0.239,0.411-0.543,0.53-0.915,0.359s-0.438-0.463-0.2-0.873l14.261-24.435c-4.109,0.523-7.417,0.854-9.926,0.99
			c-2.47,0.134-4.556,0.141-6.258,0.022c-4.738,7.987-8.494,14.622-11.271,19.905c-0.199,0.408-0.487,0.546-0.862,0.415
			c-0.377-0.132-0.466-0.401-0.266-0.81c2.732-5.241,6.423-11.792,11.068-19.653c-1.191-0.154-2.14-0.402-2.844-0.749
			c-0.373-0.171-0.439-0.462-0.201-0.873s0.543-0.531,0.915-0.359c0.707,0.305,1.678,0.533,2.909,0.684
			c6.538-11.03,10.673-18.107,12.404-21.228c0.237-0.409,0.543-0.53,0.915-0.36c0.371,0.173,0.438,0.464,0.2,0.874l-12.249,20.861
			c1.59,0.087,3.48,0.073,5.676-0.042c2.509-0.135,6.035-0.5,10.581-1.095l2.589-4.619c1.341-2.381,2.562-4.342,3.659-5.878
			c0.272-0.375,0.573-0.455,0.901-0.241C304.516,50.087,304.543,50.382,304.271,50.756z"/>
		<path fill="#182C3A" d="M319.981,59.246l1.42,2.623l1.374,2.509c0.429,0.72,0.981,1.588,1.655,2.606l1.562,2.376l1.839,2.534
			l1.687,2.309l1.786,2.48c0.922,1.237,1.504,2.005,1.745,2.305c0.197,0.341,0.115,0.651-0.245,0.935
			c-0.36,0.281-0.661,0.271-0.902-0.026c-0.203-0.302-0.765-1.071-1.688-2.309l-1.837-2.535l-1.688-2.309l-1.832-2.594l-1.609-2.492
			l-1.713-2.603l-1.427-2.562c-0.525-0.95-0.993-1.864-1.408-2.743c-2.681,5.121-6.157,12.052-10.428,20.792
			c-0.2,0.409-0.487,0.547-0.862,0.417c-0.376-0.132-0.465-0.403-0.266-0.812c3.207-6.772,6.562-13.479,10.065-20.116
			c-0.963,0.266-1.788,0.501-2.472,0.706c-0.44,0.109-0.676-0.051-0.709-0.483c-0.033-0.431,0.171-0.701,0.611-0.812
			c1.042-0.27,2.167-0.585,3.374-0.945c3.84-7.252,7.8-14.335,11.88-21.25c-1.679-0.355-2.949-0.503-3.812-0.443
			c-0.433,0.03-0.625-0.173-0.579-0.611s0.285-0.67,0.718-0.701c1.021-0.071,2.482,0.103,4.388,0.521l1.279-2.16
			c0.237-0.411,0.544-0.531,0.915-0.361c0.371,0.172,0.438,0.464,0.2,0.874l-1.137,1.915c2.731,0.717,5.208,1.629,7.43,2.735
			c2.626,1.356,4.366,2.773,5.226,4.252c1.115,1.973,0.716,3.936-1.204,5.884c-1.043,1.02-2.898,2.176-5.568,3.467
			c-2.216,1.063-4.947,2.2-8.192,3.414C326.52,57.111,323.328,58.183,319.981,59.246z M331.094,37.517
			c-3.94,6.708-7.758,13.543-11.452,20.508c3.383-1.024,6.593-2.097,9.635-3.217c3.205-1.211,5.895-2.326,8.068-3.347
			c2.543-1.203,4.253-2.269,5.131-3.198c1.39-1.36,1.673-2.761,0.851-4.204c-0.757-1.328-2.358-2.596-4.804-3.806
			C336.344,39.103,333.868,38.19,331.094,37.517z"/>
		<path fill="#182C3A" d="M356.078,37.309c1.122-0.67,2.999-1.275,5.627-1.815c2.15-0.424,4.82-0.81,8.014-1.151l0.766-0.054
			l1.923-3.271c0.237-0.411,0.543-0.531,0.914-0.36c0.371,0.172,0.438,0.463,0.201,0.874l-1.559,2.594
			c1.456-0.141,5.365-0.434,11.726-0.878c0.432-0.03,0.626,0.172,0.58,0.61c-0.047,0.438-0.286,0.67-0.718,0.701
			c-6.596,0.461-10.721,0.77-12.374,0.925c-8.02,13.621-15.48,27.696-22.386,42.224c-0.2,0.408-0.487,0.547-0.862,0.416
			c-0.376-0.132-0.465-0.402-0.266-0.812c6.806-14.324,14.15-28.213,22.035-41.667l-0.06,0.004
			c-3.114,0.337-5.745,0.719-7.895,1.145c-2.469,0.489-4.202,1.044-5.203,1.667c-0.376,0.224-0.65,0.154-0.825-0.209
			C355.539,37.889,355.659,37.574,356.078,37.309z"/>
	</g>
</g>
</svg>
