<?xml version="1.0" encoding="utf-8"?>
<!-- Generator: Adobe Illustrator 16.0.0, SVG Export Plug-In . SVG Version: 6.00 Build 0)  -->
<!DOCTYPE svg PUBLIC "-//W3C//DTD SVG 1.1//EN" "http://www.w3.org/Graphics/SVG/1.1/DTD/svg11.dtd">
<svg version="1.1" id="Ebene_1" xmlns="http://www.w3.org/2000/svg" xmlns:xlink="http://www.w3.org/1999/xlink" x="0px" y="0px"
	 width="485px" height="122px" viewBox="0 0 485 122" enable-background="new 0 0 485 122" xml:space="preserve">
<g>
	<polygon fill="#FDF4F1" points="23.27,34.776 0,123 459.958,88.84 485,1 	"/>
</g>
<g>
	<defs>
		<rect id="SVGID_1_" x="181" y="35.835" width="122.577" height="51.165"/>
	</defs>
	<clipPath id="SVGID_2_">
		<use xlink:href="#SVGID_1_"  overflow="visible"/>
	</clipPath>
	<path clip-path="url(#SVGID_2_)" fill="#1C2F3C" d="M291.437,60.837c0.758,0.757,1.597,1.773,2.515,3.05
		c0.918,1.278,1.562,2.555,1.936,3.83c0.684,2.399,0.264,4.539-1.26,6.421c-1.34,1.632-3.473,3.005-6.396,4.116
		c-2.558,0.969-5.34,1.587-8.351,1.857c-3.01,0.27-5.27,0.161-6.776-0.325c-1.325-0.381-2.19-1.05-2.595-2.009
		c-0.346-0.805-0.356-1.81-0.034-3.017c0.626-2.253,2.028-4.48,4.21-6.686c1.086-1.062,2.352-2.166,3.798-3.313
		c1.444-1.146,2.632-2.049,3.558-2.705l4.164-2.896l1.95-1.32C289.584,59.083,290.678,60.082,291.437,60.837 M285.657,58.253
		l-4.222,2.899c-0.924,0.617-2.129,1.52-3.617,2.709c-1.49,1.189-2.779,2.335-3.869,3.437c-2.395,2.378-3.938,4.833-4.633,7.367
		c-0.391,1.487-0.348,2.747,0.129,3.779c0.498,1.188,1.562,2.002,3.193,2.439c1.615,0.558,4,0.687,7.15,0.388
		c3.066-0.255,5.959-0.891,8.678-1.908c3.166-1.208,5.509-2.733,7.027-4.576c1.836-2.259,2.336-4.799,1.504-7.621
		c-0.369-1.315-1.011-2.632-1.924-3.949c-0.914-1.316-1.777-2.381-2.588-3.192l-3.202-2.913c3.584-2.578,6.447-4.969,8.589-7.17
		c1.793-1.861,3.135-3.69,4.025-5.489c0.636-1.229,0.945-2.316,0.928-3.261c-0.037-1.143-0.57-1.992-1.603-2.552
		c-0.665-0.348-1.603-0.519-2.812-0.514c-0.31-0.017-0.75-0.007-1.318,0.033c-0.569,0.04-0.95,0.047-1.143,0.021l1.268-0.385
		c0.406-0.146,0.578-0.405,0.521-0.776c-0.058-0.37-0.269-0.504-0.63-0.399c-2.984,0.959-5.477,2.04-7.473,3.245
		c-2.25,1.381-4.135,2.992-5.653,4.834c-2.179,2.56-2.847,4.836-2.004,6.828c0.188,0.422,0.465,0.854,0.828,1.304
		c0.362,0.448,0.683,0.81,0.967,1.086c0.282,0.276,0.673,0.633,1.173,1.072c0.5,0.438,0.822,0.712,0.967,0.819l1.446,1.261
		L285.657,58.253z M286.826,54.916l-1.013-0.936l-1.183-0.982c-0.246-0.258-0.523-0.585-0.832-0.979
		c-0.311-0.392-0.543-0.779-0.696-1.163c-0.658-1.532-0.095-3.367,1.688-5.505c1.424-1.677,3.197-3.162,5.321-4.455
		c1.623-0.981,3.306-1.789,5.05-2.425c-0.089,0.085-0.138,0.188-0.15,0.307c-0.082,0.4,0.072,0.606,0.462,0.619
		c0.274-0.02,0.714-0.04,1.321-0.063c0.606-0.022,1.084-0.026,1.434-0.012c1.012,0.009,1.775,0.152,2.293,0.432
		c0.699,0.386,1.07,0.952,1.107,1.698c0.004,0.71-0.246,1.596-0.746,2.656c-0.836,1.637-2.084,3.322-3.748,5.056
		c-2.102,2.199-5.004,4.592-8.705,7.178L286.826,54.916z M256.205,49.777c0.202,0.303,0.473,0.321,0.812,0.062
		c2.318-1.661,4.709-3.644,7.173-5.947c0.821-0.767,1.401-1.28,1.741-1.542l-0.286,0.494c-0.403,0.856-1.002,1.925-1.798,3.203
		l-1.982,3.275c-0.744,1.158-1.218,1.94-1.416,2.348c-0.922,1.722-1.875,3.564-2.861,5.527l-2.397,5.021l-2.657,5.809l-2.229,5.067
		l-2.598,5.805c-1.291,3.011-2.041,4.778-2.252,5.307c-0.195,0.369-0.113,0.609,0.245,0.723c0.358,0.112,0.617-0.034,0.777-0.438
		c0.298-0.613,1.088-2.386,2.371-5.315l2.473-5.737l2.287-5.071c1.076-2.442,1.938-4.357,2.592-5.744l2.517-5.029l2.742-5.519
		c0.147-0.286,0.596-1.027,1.346-2.225l2.039-3.279c0.806-1.358,1.43-2.468,1.871-3.327c0.588-1.146,0.871-1.993,0.852-2.545
		c-0.02-0.195-0.102-0.349-0.244-0.456c-0.186-0.106-0.379-0.112-0.583-0.02c-0.122,0.05-0.229,0.136-0.319,0.26l-0.195,0.191
		l-0.065,0.063c-0.592,0.437-1.493,1.229-2.706,2.379c-2.289,2.134-4.637,4.074-7.041,5.818
		C256.071,49.195,256.004,49.476,256.205,49.777 M230.7,46.589c-4.356,3.619-8.109,7.986-11.257,13.098
		c-3.149,5.113-5.337,10.356-6.564,15.729c-1.074,4.653-0.571,7.656,1.509,9.009c2.149,1.428,5.269,0.481,9.36-2.844
		c4.348-3.539,8.165-7.969,11.453-13.289c3.334-5.401,5.777-10.84,7.327-16.314c0.747-2.656,1.074-4.849,0.983-6.578
		c-0.123-1.807-0.697-3.01-1.725-3.608c-1.024-0.639-2.416-0.562-4.175,0.232c-1.751,0.715-3.764,2.059-6.036,4.032l-0.391,0.382
		C230.991,46.412,230.831,46.462,230.7,46.589 M226.683,52.552l2.762-2.916c1.094-1.141,2.046-2.037,2.855-2.685
		c2.147-1.886,4.017-3.182,5.611-3.884c1.385-0.57,2.445-0.646,3.181-0.224c0.735,0.422,1.143,1.361,1.224,2.815
		c0.111,1.531-0.201,3.585-0.94,6.162c-1.546,5.434-3.917,10.749-7.113,15.943c-3.24,5.238-6.947,9.541-11.12,12.91
		c-3.622,2.938-6.289,3.834-8,2.69c-0.766-0.498-1.253-1.431-1.46-2.798c-0.247-1.363-0.126-3.068,0.362-5.115
		c0.972-4.052,2.461-8.023,4.468-11.912c2.05-3.931,4.534-7.538,7.451-10.819C226.221,52.861,226.46,52.804,226.683,52.552
		 M190.741,54.651c0.384,0.053,0.636-0.123,0.757-0.526c0.313-1.126,1.418-2.368,3.314-3.724c1.723-1.187,3.886-2.304,6.492-3.354
		c2.277-0.908,4.374-1.568,6.288-1.978c0.841-0.218,1.514-0.323,2.021-0.319c0.196-0.014,0.351-0.005,0.465,0.026
		c0.045,0.312-0.125,0.817-0.51,1.516c-0.433,0.78-1.059,1.731-1.879,2.853l-1.424,1.877c-0.538,0.669-1.031,1.265-1.475,1.788
		c-0.445,0.525-0.713,0.85-0.804,0.975c-7.514,9.561-13.476,17.336-17.886,23.326c-1.323,1.83-2.214,3.075-2.673,3.737
		c-0.611,0.99-1.069,1.831-1.376,2.523c-0.159,0.406-0.256,0.768-0.289,1.086c-0.046,0.438,0.036,0.767,0.247,0.989
		c0.385,0.406,1.196,0.666,2.432,0.775c0.93,0.055,2.121,0.03,3.574-0.071c2.081-0.146,4.135-0.407,6.163-0.786
		c1.072-0.193,2.168-0.428,3.289-0.703c1.116-0.236,2.384-0.532,3.806-0.888c1.42-0.356,2.51-0.619,3.269-0.791
		c0.362-0.104,0.533-0.343,0.514-0.717c-0.019-0.374-0.228-0.525-0.624-0.46c-0.719,0.169-1.79,0.432-3.21,0.787
		c-1.422,0.356-2.701,0.662-3.839,0.919c-1.138,0.257-2.204,0.48-3.198,0.668c-1.989,0.376-4.004,0.636-6.045,0.778
		c-1.375,0.096-2.507,0.116-3.397,0.06c-0.965-0.09-1.573-0.245-1.822-0.465l0.019-0.179c0.021-0.198,0.084-0.439,0.193-0.723
		c0.254-0.57,0.685-1.33,1.292-2.281c0.42-0.66,1.267-1.864,2.542-3.61c4.28-5.862,10.242-13.638,17.886-23.326
		c0.091-0.125,0.36-0.459,0.808-1.004l1.477-1.818l1.484-1.88c0.862-1.164,1.513-2.157,1.95-2.978
		c0.588-1.145,0.795-2.009,0.622-2.588c-0.088-0.27-0.284-0.454-0.585-0.551c-0.231-0.023-0.502-0.044-0.812-0.062
		c-0.585,0.002-1.337,0.114-2.257,0.335c-1.993,0.416-4.171,1.121-6.536,2.115c-2.645,1.053-4.891,2.216-6.739,3.489
		c-2.228,1.538-3.534,3.029-3.92,4.476C190.225,54.372,190.356,54.599,190.741,54.651"/>
	<path clip-path="url(#SVGID_2_)" fill="none" stroke="#182C3A" stroke-width="1.5" stroke-miterlimit="7.483" d="M291.437,60.837
		c0.758,0.757,1.597,1.773,2.515,3.05c0.918,1.278,1.562,2.555,1.936,3.83c0.684,2.399,0.264,4.539-1.26,6.421
		c-1.34,1.632-3.473,3.005-6.396,4.116c-2.558,0.969-5.34,1.587-8.351,1.857c-3.01,0.27-5.27,0.161-6.776-0.325
		c-1.325-0.381-2.19-1.05-2.595-2.009c-0.346-0.805-0.356-1.81-0.034-3.017c0.626-2.253,2.028-4.48,4.21-6.686
		c1.086-1.062,2.352-2.166,3.798-3.313c1.444-1.146,2.632-2.049,3.558-2.705l4.164-2.896l1.95-1.32
		C289.584,59.083,290.678,60.082,291.437,60.837z M285.657,58.253l-4.222,2.899c-0.924,0.617-2.129,1.52-3.617,2.709
		c-1.49,1.189-2.779,2.335-3.869,3.437c-2.395,2.378-3.938,4.833-4.633,7.367c-0.391,1.487-0.348,2.747,0.129,3.779
		c0.498,1.188,1.562,2.002,3.193,2.439c1.615,0.558,4,0.687,7.15,0.388c3.066-0.255,5.959-0.891,8.678-1.908
		c3.166-1.208,5.509-2.733,7.027-4.576c1.836-2.259,2.336-4.799,1.504-7.621c-0.369-1.315-1.011-2.632-1.924-3.949
		c-0.914-1.316-1.777-2.381-2.588-3.192l-3.202-2.913c3.584-2.578,6.447-4.969,8.589-7.17c1.793-1.861,3.135-3.69,4.025-5.489
		c0.636-1.229,0.945-2.316,0.928-3.261c-0.037-1.143-0.57-1.992-1.603-2.552c-0.665-0.348-1.603-0.519-2.812-0.514
		c-0.31-0.017-0.75-0.007-1.318,0.033c-0.569,0.04-0.95,0.047-1.143,0.021l1.268-0.385c0.406-0.146,0.578-0.405,0.521-0.776
		c-0.058-0.37-0.269-0.504-0.63-0.399c-2.984,0.959-5.477,2.04-7.473,3.245c-2.25,1.381-4.135,2.992-5.653,4.834
		c-2.179,2.56-2.847,4.836-2.004,6.828c0.188,0.422,0.465,0.854,0.828,1.304c0.362,0.448,0.683,0.81,0.967,1.086
		c0.282,0.276,0.673,0.633,1.173,1.072c0.5,0.438,0.822,0.712,0.967,0.819l1.446,1.261L285.657,58.253z M286.826,54.916
		l-1.013-0.936l-1.183-0.982c-0.246-0.258-0.523-0.585-0.832-0.979c-0.311-0.392-0.543-0.779-0.696-1.163
		c-0.658-1.532-0.095-3.367,1.688-5.505c1.424-1.677,3.197-3.162,5.321-4.455c1.623-0.981,3.306-1.789,5.05-2.425
		c-0.089,0.085-0.138,0.188-0.15,0.307c-0.082,0.4,0.072,0.606,0.462,0.619c0.274-0.02,0.714-0.04,1.321-0.063
		c0.606-0.022,1.084-0.026,1.434-0.012c1.012,0.009,1.775,0.152,2.293,0.432c0.699,0.386,1.07,0.952,1.107,1.698
		c0.004,0.71-0.246,1.596-0.746,2.656c-0.836,1.637-2.084,3.322-3.748,5.056c-2.102,2.199-5.004,4.592-8.705,7.178L286.826,54.916z
		 M256.205,49.777c0.202,0.303,0.473,0.321,0.812,0.062c2.318-1.661,4.709-3.644,7.173-5.947c0.821-0.767,1.401-1.28,1.741-1.542
		l-0.286,0.494c-0.403,0.856-1.002,1.925-1.798,3.203l-1.982,3.275c-0.744,1.158-1.218,1.94-1.416,2.348
		c-0.922,1.722-1.875,3.564-2.861,5.527l-2.397,5.021l-2.657,5.809l-2.229,5.067l-2.598,5.805c-1.291,3.011-2.041,4.778-2.252,5.307
		c-0.195,0.369-0.113,0.609,0.245,0.723c0.358,0.112,0.617-0.034,0.777-0.438c0.298-0.613,1.088-2.386,2.371-5.315l2.473-5.737
		l2.287-5.071c1.076-2.442,1.938-4.357,2.592-5.744l2.517-5.029l2.742-5.519c0.147-0.286,0.596-1.027,1.346-2.225l2.039-3.279
		c0.806-1.358,1.43-2.468,1.871-3.327c0.588-1.146,0.871-1.993,0.852-2.545c-0.02-0.195-0.102-0.349-0.244-0.456
		c-0.186-0.106-0.379-0.112-0.583-0.02c-0.122,0.05-0.229,0.136-0.319,0.26l-0.195,0.191l-0.065,0.063
		c-0.592,0.437-1.493,1.229-2.706,2.379c-2.289,2.134-4.637,4.074-7.041,5.818C256.071,49.195,256.004,49.476,256.205,49.777z
		 M230.7,46.589c-4.356,3.619-8.109,7.986-11.257,13.098c-3.149,5.113-5.337,10.356-6.564,15.729
		c-1.074,4.653-0.571,7.656,1.509,9.009c2.149,1.428,5.269,0.481,9.36-2.844c4.348-3.539,8.165-7.969,11.453-13.289
		c3.334-5.401,5.777-10.84,7.327-16.314c0.747-2.656,1.074-4.849,0.983-6.578c-0.123-1.807-0.697-3.01-1.725-3.608
		c-1.024-0.639-2.416-0.562-4.175,0.232c-1.751,0.715-3.764,2.059-6.036,4.032l-0.391,0.382
		C230.991,46.412,230.831,46.462,230.7,46.589z M226.683,52.552l2.762-2.916c1.094-1.141,2.046-2.037,2.855-2.685
		c2.147-1.886,4.017-3.182,5.611-3.884c1.385-0.57,2.445-0.646,3.181-0.224c0.735,0.422,1.143,1.361,1.224,2.815
		c0.111,1.531-0.201,3.585-0.94,6.162c-1.546,5.434-3.917,10.749-7.113,15.943c-3.24,5.238-6.947,9.541-11.12,12.91
		c-3.622,2.938-6.289,3.834-8,2.69c-0.766-0.498-1.253-1.431-1.46-2.798c-0.247-1.363-0.126-3.068,0.362-5.115
		c0.972-4.052,2.461-8.023,4.468-11.912c2.05-3.931,4.534-7.538,7.451-10.819C226.221,52.861,226.46,52.804,226.683,52.552z
		 M190.741,54.651c0.384,0.053,0.636-0.123,0.757-0.526c0.313-1.126,1.418-2.368,3.314-3.724c1.723-1.187,3.886-2.304,6.492-3.354
		c2.277-0.908,4.374-1.568,6.288-1.978c0.841-0.218,1.514-0.323,2.021-0.319c0.196-0.014,0.351-0.005,0.465,0.026
		c0.045,0.312-0.125,0.817-0.51,1.516c-0.433,0.78-1.059,1.731-1.879,2.853l-1.424,1.877c-0.538,0.669-1.031,1.265-1.475,1.788
		c-0.445,0.525-0.713,0.85-0.804,0.975c-7.514,9.561-13.476,17.336-17.886,23.326c-1.323,1.83-2.214,3.075-2.673,3.737
		c-0.611,0.99-1.069,1.831-1.376,2.523c-0.159,0.406-0.256,0.768-0.289,1.086c-0.046,0.438,0.036,0.767,0.247,0.989
		c0.385,0.406,1.196,0.666,2.432,0.775c0.93,0.055,2.121,0.03,3.574-0.071c2.081-0.146,4.135-0.407,6.163-0.786
		c1.072-0.193,2.168-0.428,3.289-0.703c1.116-0.236,2.384-0.532,3.806-0.888c1.42-0.356,2.51-0.619,3.269-0.791
		c0.362-0.104,0.533-0.343,0.514-0.717c-0.019-0.374-0.228-0.525-0.624-0.46c-0.719,0.169-1.79,0.432-3.21,0.787
		c-1.422,0.356-2.701,0.662-3.839,0.919c-1.138,0.257-2.204,0.48-3.198,0.668c-1.989,0.376-4.004,0.636-6.045,0.778
		c-1.375,0.096-2.507,0.116-3.397,0.06c-0.965-0.09-1.573-0.245-1.822-0.465l0.019-0.179c0.021-0.198,0.084-0.439,0.193-0.723
		c0.254-0.57,0.685-1.33,1.292-2.281c0.42-0.66,1.267-1.864,2.542-3.61c4.28-5.862,10.242-13.638,17.886-23.326
		c0.091-0.125,0.36-0.459,0.808-1.004l1.477-1.818l1.484-1.88c0.862-1.164,1.513-2.157,1.95-2.978
		c0.588-1.145,0.795-2.009,0.622-2.588c-0.088-0.27-0.284-0.454-0.585-0.551c-0.231-0.023-0.502-0.044-0.812-0.062
		c-0.585,0.002-1.337,0.114-2.257,0.335c-1.993,0.416-4.171,1.121-6.536,2.115c-2.645,1.053-4.891,2.216-6.739,3.489
		c-2.228,1.538-3.534,3.029-3.92,4.476C190.225,54.372,190.356,54.599,190.741,54.651z"/>
</g>
</svg>
