<?xml version="1.0" encoding="utf-8"?>
<!-- Generator: Adobe Illustrator 16.0.0, SVG Export Plug-In . SVG Version: 6.00 Build 0)  -->
<!DOCTYPE svg PUBLIC "-//W3C//DTD SVG 1.1//EN" "http://www.w3.org/Graphics/SVG/1.1/DTD/svg11.dtd">
<svg version="1.1" id="Ebene_1" xmlns="http://www.w3.org/2000/svg" xmlns:xlink="http://www.w3.org/1999/xlink" x="0px" y="0px"
	 width="510px" height="123px" viewBox="0 0 510 123" enable-background="new 0 0 510 123" xml:space="preserve">
<g>
	<polygon fill="#FDF4F1" points="30.951,14.309 0,123 487.792,87.681 510,0 	"/>
	<g>
		<defs>
			<rect id="SVGID_1_" width="510" height="123"/>
		</defs>
		<clipPath id="SVGID_2_">
			<use xlink:href="#SVGID_1_"  overflow="visible"/>
		</clipPath>
		<path clip-path="url(#SVGID_2_)" fill="none" stroke="#182C3A" stroke-width="1.552" stroke-miterlimit="7.483" d="M156.485,54.43
			c0.004-0.039,0.053-0.142,0.149-0.306l1.321-3.111c0.815-2.188,1.125-3.846,0.932-4.978c-0.147-0.818-0.536-1.392-1.163-1.723
			c-0.629-0.331-1.461-0.381-2.498-0.151c-1.317,0.29-2.699,0.83-4.146,1.621c-1.448,0.792-2.639,1.556-3.573,2.292
			c-0.936,0.737-2.046,1.663-3.332,2.778c-5.664,4.934-10.876,10.763-15.636,17.487c-2.238-1.697-3.834-3.203-4.787-4.519
			c-0.307-0.412-0.696-0.425-1.165-0.037c-0.47,0.389-0.551,0.789-0.243,1.201c1.058,1.426,2.779,3.041,5.161,4.847
			c-1.66,2.445-3.273,5.005-4.841,7.678c-1.654,2.76-3.293,6.109-4.914,10.05c-1.05,2.559-1.687,4.557-1.917,5.994
			c-0.134,0.916-0.114,1.644,0.063,2.185c0.313,0.728,0.882,1.063,1.707,1.005c0.549-0.038,0.854-0.336,0.912-0.892
			c0.059-0.557-0.187-0.816-0.737-0.777c-0.157,0.012-0.249-0.042-0.275-0.159c-0.124-0.307-0.133-0.779-0.027-1.418
			c0.212-1.277,0.795-3.113,1.749-5.508c1.566-3.778,3.158-7.065,4.778-9.862c1.515-2.553,3.099-5.012,4.75-7.375
			c2.649,1.866,6.179,4.065,10.59,6.598c0.442,0.246,0.825,0.12,1.151-0.376c0.324-0.496,0.266-0.867-0.176-1.112
			c-4.411-2.533-7.921-4.732-10.531-6.603c4.674-6.64,9.777-12.362,15.31-17.168c1.972-1.716,3.755-3.104,5.348-4.162
			c1.592-1.058,3.205-1.763,4.841-2.114c0.675-0.126,1.162-0.12,1.46,0.016c0.257,0.14,0.425,0.405,0.501,0.794
			c0.144,0.858-0.136,2.219-0.838,4.083c-0.268,0.69-0.601,1.443-0.998,2.259c-0.004,0.04-0.084,0.243-0.239,0.609l-0.065,0.064
			l-0.013,0.119l-0.071,0.123c0.004-0.039,0.027-0.08,0.071-0.123l-0.071,0.123l-0.143,0.247l-1.973,3.748l-0.006,0.06
			c-0.386,0.698-0.623,1.109-0.714,1.233c-0.346,0.696-0.905,1.741-1.674,3.136l-1.734,3.139L137.556,87.12l-2.128,4.114
			c-0.199,0.408-0.322,0.654-0.369,0.736l-0.065,0.063l-0.013,0.119c-0.048,0.082-0.073,0.144-0.078,0.184
			c-0.028,0.633,0.279,0.868,0.92,0.704c0.2-0.053,0.366-0.143,0.496-0.271c0.005-0.04,0.028-0.081,0.072-0.123l0.065-0.063
			l0.078-0.184l6.787-12.844c0.004-0.039,0.027-0.081,0.071-0.123l5.936-11.424l4.97-9.462c0.004-0.039,0.026-0.061,0.065-0.063
			L156.485,54.43z"/>
		<path clip-path="url(#SVGID_2_)" fill="none" stroke="#182C3A" stroke-width="1.552" stroke-miterlimit="7.483" d="
			M183.073,62.336c3.245-1.213,5.976-2.352,8.193-3.415c2.668-1.29,4.525-2.447,5.567-3.467c1.92-1.948,2.32-3.91,1.203-5.884
			c-0.858-1.478-2.599-2.895-5.224-4.251c-2.222-1.107-4.699-2.018-7.429-2.735l1.136-1.915c0.238-0.41,0.171-0.701-0.2-0.873
			c-0.372-0.171-0.677-0.051-0.915,0.36l-1.28,2.161c-1.905-0.419-3.367-0.594-4.388-0.522c-0.432,0.03-0.671,0.264-0.717,0.701
			c-0.046,0.438,0.147,0.641,0.579,0.61c0.863-0.06,2.134,0.088,3.812,0.444c-4.079,6.914-8.039,13.997-11.88,21.249
			c-1.207,0.36-2.332,0.677-3.373,0.947c-0.441,0.109-0.645,0.38-0.612,0.812c0.033,0.432,0.269,0.593,0.71,0.483
			c0.683-0.205,1.507-0.44,2.471-0.706c-3.504,6.637-6.86,13.343-10.066,20.116c-0.199,0.407-0.11,0.679,0.266,0.811
			c0.375,0.13,0.663-0.008,0.862-0.416c4.271-8.741,7.747-15.672,10.429-20.793c0.414,0.88,0.883,1.794,1.407,2.743l1.426,2.562
			l1.714,2.604l1.609,2.492l1.832,2.594l1.687,2.309l1.838,2.534c0.923,1.238,1.485,2.007,1.687,2.309
			c0.241,0.299,0.542,0.308,0.903,0.026c0.361-0.283,0.443-0.594,0.245-0.935c-0.242-0.3-0.824-1.067-1.746-2.305l-1.785-2.479
			l-1.687-2.309l-1.838-2.534l-1.563-2.376c-0.673-1.02-1.225-1.888-1.655-2.607l-1.374-2.508l-1.419-2.623
			C176.844,64.487,180.036,63.417,183.073,62.336z M192.039,46.558c2.445,1.211,4.046,2.479,4.803,3.807
			c0.822,1.442,0.539,2.843-0.851,4.202c-0.878,0.93-2.587,1.997-5.13,3.2c-2.174,1.02-4.863,2.136-8.069,3.346
			c-3.041,1.121-6.252,2.193-9.634,3.218c3.694-6.965,7.511-13.801,11.451-20.509C187.383,44.497,189.86,45.408,192.039,46.558z"/>
		<path clip-path="url(#SVGID_2_)" fill="none" stroke="#182C3A" stroke-width="1.552" stroke-miterlimit="7.483" d="
			M209.232,44.556c0.176,0.363,0.451,0.433,0.826,0.209c1.001-0.622,2.734-1.177,5.203-1.666c2.149-0.426,4.781-0.808,7.896-1.144
			l0.058-0.004c-7.884,13.453-15.229,27.342-22.035,41.667c-0.199,0.408-0.11,0.679,0.266,0.811
			c0.375,0.131,0.663-0.008,0.862-0.415c6.906-14.529,14.367-28.604,22.386-42.226c1.653-0.154,5.778-0.463,12.375-0.924
			c0.431-0.031,0.67-0.264,0.716-0.702c0.046-0.437-0.147-0.64-0.579-0.61c-6.36,0.445-10.27,0.738-11.726,0.879l1.559-2.595
			c0.238-0.41,0.17-0.702-0.201-0.873c-0.372-0.171-0.677-0.051-0.914,0.359l-1.923,3.272l-0.765,0.053
			c-3.193,0.342-5.865,0.726-8.014,1.152c-2.629,0.539-4.505,1.144-5.628,1.814C209.176,43.879,209.055,44.194,209.232,44.556z"/>
		<path clip-path="url(#SVGID_2_)" fill="none" stroke="#182C3A" stroke-width="1.552" stroke-miterlimit="7.483" d="M265.062,34.29
			c-0.372-0.171-0.678-0.051-0.915,0.36c-8.887,14.825-17.134,30.257-24.744,46.296c-0.199,0.407-0.111,0.678,0.265,0.81
			c0.376,0.131,0.664-0.008,0.863-0.416c8.498-17.44,16.741-32.834,24.729-46.176C265.5,34.753,265.433,34.462,265.062,34.29z"/>
		<path clip-path="url(#SVGID_2_)" fill="none" stroke="#182C3A" stroke-width="1.552" stroke-miterlimit="7.483" d="
			M303.374,33.831c0.255-0.392,0.198-0.695-0.168-0.906c-3.587-1.84-6.535-1.792-8.844,0.145c-1.795,1.507-3.115,4.243-3.961,8.208
			c-0.573,2.487-1.02,5.99-1.339,10.51c-0.311,4.441-0.566,7.063-0.768,7.866c-1.143,4.933-2.858,9.019-5.147,12.256
			c-1.418,1.993-3.062,3.559-4.937,4.695c-1.873,1.137-3.711,1.749-5.514,1.836c-1.846,0.129-3.474-0.32-4.886-1.345
			c-1.412-1.026-2.394-2.624-2.945-4.795c-0.076-0.39-0.327-0.5-0.755-0.332c-0.427,0.168-0.584,0.465-0.474,0.891
			c0.606,2.404,1.704,4.182,3.299,5.333c1.589,1.19,3.444,1.712,5.565,1.564c2.076-0.107,4.154-0.795,6.237-2.064
			c2.082-1.27,3.881-2.984,5.394-5.142c2.463-3.407,4.278-7.697,5.445-12.868c0.21-0.882,0.471-3.564,0.786-8.045
			c0.312-4.44,0.731-7.883,1.262-10.327c0.808-3.608,1.979-6.037,3.514-7.289c1.756-1.503,4.206-1.457,7.352,0.137
			C302.823,34.333,303.117,34.224,303.374,33.831z"/>
		<path clip-path="url(#SVGID_2_)" fill="none" stroke="#182C3A" stroke-width="1.552" stroke-miterlimit="7.483" d="
			M312.947,37.304c0.176,0.363,0.45,0.433,0.825,0.209c1.001-0.622,2.734-1.177,5.203-1.666c2.149-0.426,4.781-0.808,7.896-1.144
			l0.058-0.004c-7.884,13.453-15.229,27.342-22.035,41.667c-0.198,0.407-0.109,0.679,0.267,0.81
			c0.375,0.131,0.663-0.007,0.861-0.415c6.906-14.529,14.367-28.604,22.387-42.225c1.652-0.154,5.777-0.463,12.375-0.924
			c0.431-0.031,0.67-0.264,0.716-0.702c0.046-0.437-0.147-0.64-0.579-0.61c-6.36,0.445-10.271,0.738-11.726,0.879l1.559-2.595
			c0.238-0.41,0.17-0.701-0.201-0.873c-0.372-0.171-0.677-0.051-0.914,0.359l-1.923,3.272l-0.765,0.053
			c-3.193,0.342-5.865,0.726-8.015,1.152c-2.629,0.539-4.505,1.144-5.628,1.814C312.891,36.627,312.77,36.942,312.947,37.304z"/>
		<path clip-path="url(#SVGID_2_)" fill="none" stroke="#182C3A" stroke-width="1.552" stroke-miterlimit="7.483" d="M379.879,28.48
			c0.256-0.392,0.199-0.695-0.168-0.906c-3.587-1.84-6.534-1.792-8.843,0.145c-1.795,1.507-3.116,4.243-3.961,8.208
			c-0.574,2.487-1.02,5.99-1.339,10.51c-0.312,4.441-0.567,7.063-0.768,7.866c-1.143,4.933-2.858,9.018-5.147,12.256
			c-1.418,1.993-3.063,3.558-4.938,4.695c-1.872,1.137-3.711,1.749-5.513,1.836c-1.846,0.129-3.474-0.32-4.886-1.346
			s-2.395-2.623-2.945-4.795c-0.076-0.389-0.328-0.5-0.755-0.332s-0.584,0.466-0.473,0.892c0.604,2.404,1.703,4.182,3.298,5.333
			c1.589,1.189,3.444,1.712,5.564,1.563c2.076-0.106,4.155-0.794,6.238-2.063c2.082-1.271,3.88-2.984,5.394-5.143
			c2.463-3.406,4.277-7.697,5.444-12.868c0.21-0.882,0.472-3.564,0.787-8.045c0.312-4.44,0.731-7.883,1.261-10.327
			c0.809-3.608,1.979-6.037,3.515-7.289c1.756-1.503,4.206-1.457,7.352,0.137C379.329,28.983,379.623,28.874,379.879,28.48z"/>
	</g>
	<g>
		<path fill="#182C3A" d="M154.363,58.485c-0.04,0.003-0.061,0.025-0.065,0.064l-4.97,9.462l-5.936,11.423
			c-0.044,0.043-0.068,0.085-0.072,0.123l-6.787,12.844l-0.078,0.183l-0.065,0.065c-0.044,0.04-0.068,0.082-0.072,0.123
			c-0.129,0.126-0.295,0.218-0.495,0.271c-0.643,0.164-0.949-0.072-0.92-0.705c0.004-0.04,0.03-0.101,0.077-0.183l0.013-0.119
			l0.066-0.063c0.046-0.083,0.169-0.328,0.369-0.736l2.128-4.114l11.223-21.678l1.733-3.138c0.769-1.396,1.328-2.441,1.674-3.136
			c0.091-0.125,0.329-0.536,0.714-1.234l0.006-0.059l1.973-3.749l0.143-0.247l0.071-0.124c-0.044,0.043-0.067,0.085-0.071,0.124
			l0.071-0.124l0.012-0.118l0.065-0.065c0.156-0.366,0.236-0.568,0.24-0.608c0.397-0.817,0.729-1.57,0.998-2.26
			c0.702-1.864,0.982-3.225,0.838-4.083c-0.077-0.388-0.244-0.653-0.502-0.793c-0.298-0.136-0.784-0.142-1.459-0.017
			c-1.635,0.352-3.249,1.057-4.84,2.115c-1.593,1.058-3.376,2.446-5.349,4.162c-5.533,4.807-10.636,10.528-15.309,17.168
			c2.61,1.87,6.121,4.07,10.532,6.604c0.441,0.245,0.499,0.615,0.175,1.111c-0.326,0.496-0.708,0.622-1.15,0.376
			c-4.411-2.531-7.941-4.731-10.59-6.598c-1.651,2.364-3.236,4.822-4.75,7.375c-1.619,2.797-3.211,6.084-4.778,9.862
			c-0.954,2.396-1.537,4.23-1.748,5.509c-0.106,0.638-0.098,1.11,0.025,1.418c0.027,0.117,0.119,0.169,0.275,0.158
			c0.55-0.039,0.796,0.221,0.737,0.778c-0.058,0.555-0.363,0.853-0.913,0.892c-0.823,0.058-1.394-0.277-1.707-1.005
			c-0.177-0.542-0.197-1.27-0.062-2.186c0.229-1.437,0.866-3.435,1.917-5.993c1.621-3.939,3.259-7.291,4.915-10.051
			c1.567-2.673,3.18-5.231,4.84-7.676c-2.383-1.807-4.104-3.422-5.161-4.849c-0.308-0.412-0.227-0.812,0.243-1.201
			c0.469-0.388,0.858-0.375,1.166,0.038c0.952,1.314,2.548,2.82,4.786,4.518c4.761-6.725,9.973-12.554,15.636-17.487
			c1.286-1.115,2.396-2.041,3.332-2.777c0.934-0.737,2.125-1.5,3.574-2.292c1.446-0.792,2.829-1.331,4.146-1.622
			c1.037-0.229,1.869-0.18,2.498,0.151c0.628,0.332,1.015,0.905,1.164,1.724c0.192,1.132-0.118,2.791-0.933,4.979l-1.321,3.111
			c-0.095,0.165-0.145,0.266-0.148,0.305L154.363,58.485z"/>
		<path fill="#182C3A" d="M173.498,65.552l1.42,2.622l1.374,2.51c0.429,0.719,0.982,1.588,1.655,2.606l1.562,2.376l1.839,2.534
			l1.687,2.309l1.786,2.479c0.922,1.238,1.503,2.005,1.745,2.306c0.198,0.341,0.116,0.651-0.245,0.934
			c-0.361,0.282-0.662,0.272-0.904-0.025c-0.202-0.302-0.764-1.071-1.686-2.309l-1.837-2.535l-1.688-2.309l-1.831-2.594l-1.61-2.492
			l-1.714-2.603l-1.425-2.563c-0.525-0.949-0.994-1.864-1.408-2.742c-2.682,5.121-6.158,12.052-10.428,20.792
			c-0.2,0.408-0.487,0.547-0.863,0.417c-0.376-0.133-0.465-0.403-0.265-0.812c3.205-6.773,6.562-13.479,10.065-20.116
			c-0.963,0.266-1.788,0.5-2.472,0.706c-0.441,0.109-0.677-0.052-0.709-0.483c-0.033-0.431,0.169-0.702,0.611-0.812
			c1.042-0.27,2.167-0.586,3.374-0.945c3.84-7.252,7.8-14.336,11.879-21.25c-1.678-0.355-2.949-0.503-3.812-0.443
			c-0.432,0.03-0.625-0.173-0.578-0.611c0.046-0.438,0.285-0.671,0.716-0.702c1.021-0.071,2.483,0.104,4.389,0.522l1.28-2.161
			c0.237-0.41,0.542-0.53,0.914-0.359c0.371,0.171,0.438,0.462,0.201,0.874l-1.137,1.915c2.731,0.717,5.208,1.628,7.43,2.735
			c2.625,1.355,4.366,2.773,5.224,4.252c1.117,1.973,0.716,3.935-1.203,5.884c-1.042,1.02-2.898,2.176-5.568,3.467
			c-2.216,1.062-4.947,2.2-8.192,3.413C180.036,63.417,176.844,64.489,173.498,65.552z M184.609,43.824
			c-3.94,6.707-7.757,13.543-11.452,20.508c3.382-1.025,6.593-2.098,9.634-3.218c3.205-1.21,5.894-2.326,8.068-3.346
			c2.543-1.203,4.253-2.27,5.131-3.199c1.39-1.359,1.673-2.761,0.851-4.203c-0.758-1.328-2.358-2.596-4.804-3.807
			C189.86,45.409,187.384,44.498,184.609,43.824z"/>
		<path fill="#182C3A" d="M209.594,43.615c1.122-0.67,2.999-1.275,5.627-1.815c2.15-0.424,4.82-0.81,8.014-1.151L224,40.595
			l1.922-3.271c0.238-0.41,0.543-0.53,0.915-0.359c0.371,0.172,0.438,0.463,0.2,0.874l-1.558,2.594
			c1.456-0.141,5.366-0.434,11.726-0.879c0.432-0.03,0.625,0.173,0.58,0.611c-0.046,0.438-0.286,0.67-0.718,0.701
			c-6.596,0.461-10.721,0.77-12.374,0.925c-8.019,13.62-15.48,27.695-22.386,42.224c-0.199,0.407-0.486,0.547-0.862,0.416
			c-0.377-0.133-0.465-0.402-0.266-0.812c6.806-14.324,14.151-28.213,22.036-41.667l-0.06,0.004
			c-3.114,0.337-5.747,0.718-7.895,1.145c-2.469,0.489-4.202,1.044-5.204,1.667c-0.375,0.223-0.649,0.154-0.825-0.209
			C209.055,44.196,209.175,43.881,209.594,43.615z"/>
		<path fill="#182C3A" d="M265.262,35.166c-7.99,13.342-16.232,28.734-24.73,46.176c-0.2,0.407-0.487,0.547-0.863,0.416
			c-0.376-0.133-0.465-0.402-0.265-0.812c7.61-16.038,15.857-31.47,24.744-46.295c0.236-0.41,0.543-0.53,0.915-0.359
			C265.433,34.463,265.499,34.754,265.262,35.166z"/>
		<path fill="#182C3A" d="M302.49,34.16c-3.145-1.595-5.596-1.64-7.351-0.136c-1.535,1.251-2.707,3.681-3.515,7.288
			c-0.53,2.444-0.95,5.888-1.261,10.328c-0.315,4.48-0.577,7.163-0.787,8.044c-1.167,5.171-2.981,9.462-5.445,12.87
			c-1.513,2.157-3.311,3.871-5.393,5.141c-2.082,1.271-4.161,1.958-6.238,2.064c-2.12,0.148-3.976-0.373-5.565-1.564
			c-1.594-1.151-2.693-2.928-3.298-5.332c-0.11-0.427,0.047-0.723,0.474-0.893c0.428-0.167,0.679-0.056,0.755,0.332
			c0.55,2.173,1.533,3.77,2.945,4.795c1.411,1.026,3.04,1.475,4.887,1.346c1.801-0.087,3.64-0.697,5.512-1.835
			c1.874-1.138,3.519-2.703,4.938-4.695c2.288-3.237,4.004-7.323,5.146-12.256c0.202-0.804,0.457-3.426,0.77-7.867
			c0.318-4.52,0.766-8.023,1.339-10.51c0.845-3.965,2.165-6.701,3.961-8.208c2.308-1.936,5.255-1.983,8.844-0.145
			c0.366,0.211,0.423,0.515,0.167,0.906C303.117,34.225,302.823,34.335,302.49,34.16z"/>
		<path fill="#182C3A" d="M313.309,36.363c1.123-0.67,2.999-1.275,5.628-1.815c2.149-0.425,4.821-0.81,8.015-1.151l0.766-0.054
			l1.922-3.271c0.236-0.41,0.543-0.53,0.915-0.359c0.37,0.172,0.438,0.463,0.199,0.874l-1.559,2.594
			c1.457-0.141,5.366-0.434,11.727-0.879c0.432-0.03,0.625,0.173,0.579,0.611s-0.285,0.67-0.717,0.701
			c-6.597,0.461-10.721,0.77-12.374,0.925c-8.02,13.62-15.48,27.695-22.387,42.225c-0.198,0.407-0.486,0.547-0.862,0.416
			c-0.376-0.133-0.465-0.403-0.265-0.812c6.806-14.324,14.15-28.214,22.035-41.667l-0.06,0.004
			c-3.115,0.337-5.746,0.718-7.896,1.145c-2.469,0.489-4.201,1.044-5.203,1.667c-0.374,0.223-0.649,0.154-0.825-0.209
			C312.771,36.943,312.891,36.628,313.309,36.363z"/>
		<path fill="#182C3A" d="M378.938,28.814c-3.146-1.595-5.596-1.64-7.351-0.136c-1.535,1.251-2.707,3.681-3.515,7.288
			c-0.53,2.444-0.951,5.888-1.261,10.328c-0.315,4.48-0.577,7.163-0.787,8.044c-1.168,5.172-2.981,9.462-5.445,12.87
			c-1.514,2.157-3.311,3.871-5.394,5.141c-2.082,1.271-4.162,1.958-6.237,2.064c-2.12,0.148-3.976-0.373-5.565-1.564
			c-1.595-1.151-2.693-2.928-3.298-5.332c-0.11-0.427,0.047-0.723,0.474-0.893c0.428-0.167,0.679-0.056,0.755,0.332
			c0.55,2.173,1.533,3.77,2.945,4.795c1.411,1.026,3.04,1.475,4.886,1.346c1.802-0.087,3.64-0.697,5.513-1.835
			c1.874-1.138,3.519-2.703,4.938-4.695c2.288-3.237,4.004-7.323,5.146-12.256c0.202-0.804,0.457-3.426,0.77-7.867
			c0.318-4.52,0.765-8.023,1.339-10.51c0.845-3.965,2.165-6.701,3.961-8.208c2.308-1.936,5.255-1.983,8.844-0.145
			c0.366,0.211,0.422,0.515,0.167,0.906C379.564,28.879,379.271,28.989,378.938,28.814z"/>
	</g>
</g>
</svg>
