<?xml version="1.0" encoding="utf-8"?>
<!-- Generator: Adobe Illustrator 16.0.0, SVG Export Plug-In . SVG Version: 6.00 Build 0)  -->
<!DOCTYPE svg PUBLIC "-//W3C//DTD SVG 1.1//EN" "http://www.w3.org/Graphics/SVG/1.1/DTD/svg11.dtd">
<svg version="1.1" id="Ebene_1" xmlns="http://www.w3.org/2000/svg" xmlns:xlink="http://www.w3.org/1999/xlink" x="0px" y="0px"
	 width="485px" height="122px" viewBox="0 0 485 122" enable-background="new 0 0 485 122" xml:space="preserve">
<g>
	<polygon fill="#FDF4F1" points="23.27,34.776 0,123 459.958,88.84 485,1 	"/>
	<g>
		<defs>
			<rect id="SVGID_1_" y="1" width="485" height="122"/>
		</defs>
		<clipPath id="SVGID_2_">
			<use xlink:href="#SVGID_1_"  overflow="visible"/>
		</clipPath>
		<path clip-path="url(#SVGID_2_)" fill="none" stroke="#182C3A" stroke-width="1.552" stroke-miterlimit="7.483" d="M193.88,55.746
			c0.384,0.053,0.636-0.123,0.757-0.526c0.312-1.126,1.418-2.368,3.313-3.724c1.724-1.186,3.887-2.303,6.492-3.354
			c2.277-0.908,4.374-1.568,6.288-1.978c0.841-0.216,1.514-0.323,2.021-0.319c0.195-0.014,0.351-0.005,0.465,0.026
			c0.045,0.313-0.125,0.818-0.51,1.516c-0.434,0.78-1.06,1.731-1.88,2.853l-1.424,1.876c-0.538,0.669-1.03,1.265-1.475,1.789
			c-0.445,0.525-0.713,0.849-0.804,0.974c-7.515,9.561-13.477,17.336-17.887,23.326c-1.322,1.83-2.214,3.076-2.673,3.738
			c-0.61,0.989-1.069,1.83-1.376,2.522c-0.159,0.406-0.256,0.768-0.289,1.086c-0.046,0.438,0.036,0.767,0.247,0.989
			c0.385,0.407,1.196,0.666,2.433,0.775c0.93,0.055,2.12,0.03,3.573-0.071c2.081-0.146,4.136-0.407,6.163-0.786
			c1.072-0.193,2.169-0.427,3.289-0.703c1.116-0.236,2.384-0.532,3.806-0.888c1.421-0.356,2.511-0.619,3.27-0.791
			c0.362-0.104,0.533-0.343,0.514-0.717c-0.019-0.374-0.228-0.525-0.624-0.46c-0.719,0.169-1.79,0.432-3.21,0.787
			c-1.422,0.356-2.701,0.662-3.839,0.919c-1.138,0.258-2.204,0.48-3.198,0.668c-1.988,0.376-4.004,0.636-6.045,0.778
			c-1.375,0.096-2.507,0.116-3.396,0.061c-0.965-0.091-1.573-0.246-1.822-0.466l0.019-0.179c0.021-0.198,0.084-0.438,0.193-0.723
			c0.254-0.57,0.686-1.33,1.292-2.281c0.42-0.66,1.268-1.864,2.543-3.609c4.279-5.863,10.241-13.639,17.886-23.327
			c0.091-0.125,0.359-0.459,0.808-1.004l1.477-1.819l1.484-1.88c0.862-1.164,1.513-2.157,1.95-2.977
			c0.588-1.145,0.795-2.009,0.622-2.588c-0.089-0.27-0.283-0.454-0.585-0.551c-0.231-0.023-0.503-0.044-0.812-0.062
			c-0.585,0.002-1.337,0.114-2.257,0.335c-1.993,0.416-4.171,1.121-6.536,2.115c-2.645,1.053-4.891,2.216-6.739,3.489
			c-2.228,1.538-3.534,3.029-3.92,4.476C193.362,55.467,193.494,55.694,193.88,55.746z"/>
		<path clip-path="url(#SVGID_2_)" fill="none" stroke="#182C3A" stroke-width="1.552" stroke-miterlimit="7.483" d="
			M233.839,47.684c-4.355,3.619-8.108,7.986-11.257,13.098c-3.149,5.113-5.337,10.356-6.564,15.728
			c-1.073,4.652-0.57,7.656,1.509,9.009c2.148,1.429,5.27,0.481,9.36-2.844c4.348-3.539,8.165-7.97,11.452-13.289
			c3.335-5.401,5.777-10.84,7.328-16.314c0.746-2.657,1.074-4.849,0.983-6.579c-0.122-1.806-0.697-3.009-1.726-3.608
			c-1.024-0.639-2.417-0.561-4.175,0.232c-1.752,0.715-3.764,2.059-6.037,4.033l-0.391,0.382
			C234.129,47.507,233.969,47.557,233.839,47.684z M229.821,53.647l2.762-2.916c1.094-1.141,2.046-2.037,2.854-2.685
			c2.146-1.886,4.018-3.181,5.611-3.884c1.385-0.571,2.445-0.645,3.18-0.223c0.735,0.422,1.145,1.361,1.226,2.815
			c0.111,1.531-0.202,3.585-0.94,6.161c-1.546,5.435-3.917,10.75-7.112,15.944c-3.24,5.238-6.947,9.541-11.121,12.91
			c-3.621,2.938-6.288,3.834-7.999,2.69c-0.767-0.498-1.253-1.43-1.46-2.798c-0.247-1.363-0.126-3.068,0.361-5.115
			c0.972-4.053,2.46-8.023,4.469-11.912c2.05-3.931,4.532-7.538,7.45-10.819C229.359,53.956,229.599,53.899,229.821,53.647z"/>
		<path clip-path="url(#SVGID_2_)" fill="none" stroke="#182C3A" stroke-width="1.552" stroke-miterlimit="7.483" d="
			M259.344,50.872c0.202,0.302,0.472,0.322,0.812,0.062c2.318-1.662,4.709-3.644,7.174-5.947c0.82-0.768,1.4-1.282,1.739-1.542
			l-0.285,0.493c-0.402,0.857-1.002,1.925-1.798,3.204l-1.981,3.275c-0.745,1.157-1.218,1.94-1.416,2.348
			c-0.922,1.722-1.875,3.564-2.861,5.527l-2.397,5.021l-2.657,5.809l-2.229,5.068l-2.598,5.804
			c-1.291,3.011-2.042,4.779-2.253,5.307c-0.195,0.368-0.113,0.609,0.246,0.723c0.357,0.112,0.617-0.034,0.776-0.439
			c0.299-0.613,1.089-2.384,2.371-5.315l2.474-5.735l2.287-5.072c1.074-2.442,1.938-4.356,2.592-5.745l2.516-5.029l2.743-5.518
			c0.147-0.286,0.595-1.028,1.345-2.225l2.04-3.279c0.806-1.359,1.43-2.467,1.87-3.327c0.588-1.145,0.872-1.994,0.853-2.545
			c-0.02-0.196-0.102-0.348-0.245-0.457c-0.185-0.105-0.378-0.111-0.582-0.018c-0.122,0.048-0.229,0.134-0.32,0.259l-0.195,0.191
			l-0.064,0.064c-0.593,0.436-1.494,1.229-2.706,2.379c-2.29,2.134-4.637,4.073-7.042,5.819
			C259.21,50.29,259.142,50.571,259.344,50.872z"/>
		<path clip-path="url(#SVGID_2_)" fill="none" stroke="#182C3A" stroke-width="1.552" stroke-miterlimit="7.483" d="M302.223,38.67
			c0.177-0.387,0.095-0.628-0.246-0.723c-0.826-0.297-1.853-0.166-3.081,0.393c-0.94,0.421-2.025,1.089-3.251,2.003
			c-1.526,1.172-3.228,2.712-5.104,4.618c-1.876,1.907-3.999,4.482-6.366,7.725c-2.355,3.124-4.433,6.387-6.231,9.787
			c-2.138,4.017-3.479,7.522-4.028,10.521c-0.656,3.637-0.133,6.441,1.57,8.412c1.075,1.266,2.491,1.7,4.248,1.301
			c1.518-0.342,3.193-1.268,5.027-2.777c3.417-2.844,6.491-6.688,9.222-11.535c1.246-2.217,2.16-4.234,2.741-6.05
			c0.601-2.015,0.705-3.561,0.312-4.639c-0.485-1.307-1.602-1.82-3.346-1.541c-1.74,0.24-4.073,1.291-6.996,3.152
			c-1.171,0.754-3.938,2.801-8.304,6.145c-0.34,0.261-0.408,0.541-0.206,0.843s0.472,0.321,0.812,0.062
			c4.323-3.3,7.048-5.306,8.175-6.017c2.797-1.773,4.969-2.774,6.513-3c1.19-0.202,1.938,0.101,2.243,0.908
			c0.296,0.888,0.178,2.198-0.355,3.931c-0.528,1.695-1.393,3.609-2.591,5.745c-2.637,4.683-5.578,8.38-8.825,11.093
			c-1.665,1.379-3.155,2.213-4.472,2.502c-1.317,0.29-2.412-0.048-3.285-1.013c-1.496-1.71-1.934-4.224-1.312-7.543
			c0.537-2.878,1.825-6.243,3.867-10.095c1.743-3.238,3.784-6.439,6.124-9.603c2.341-3.162,4.406-5.673,6.2-7.536
			c1.833-1.863,3.49-3.36,4.975-4.49c1.104-0.866,2.085-1.487,2.942-1.863c0.938-0.381,1.669-0.491,2.198-0.331
			C301.769,39.186,302.045,39.059,302.223,38.67z"/>
	</g>
	<g>
		<path fill="#182C3A" d="M193.484,55.064c0.386-1.447,1.69-2.938,3.919-4.476c1.849-1.274,4.094-2.437,6.739-3.49
			c2.364-0.994,4.543-1.698,6.536-2.115c0.92-0.221,1.673-0.333,2.258-0.335c0.31,0.019,0.58,0.039,0.812,0.062
			c0.301,0.098,0.495,0.281,0.584,0.551c0.173,0.58-0.034,1.444-0.623,2.589c-0.437,0.82-1.087,1.812-1.95,2.978l-1.483,1.879
			l-1.478,1.82c-0.447,0.544-0.716,0.878-0.807,1.002c-7.645,9.688-13.606,17.464-17.886,23.327
			c-1.275,1.746-2.122,2.95-2.544,3.611c-0.605,0.949-1.036,1.71-1.291,2.279c-0.108,0.284-0.173,0.525-0.193,0.724l-0.019,0.179
			c0.25,0.22,0.857,0.375,1.823,0.465c0.889,0.057,2.021,0.036,3.396-0.06c2.042-0.144,4.057-0.403,6.046-0.778
			c0.994-0.188,2.061-0.41,3.197-0.668c1.138-0.257,2.417-0.562,3.84-0.919c1.419-0.356,2.491-0.618,3.209-0.787
			c0.396-0.066,0.605,0.086,0.624,0.46c0.02,0.373-0.15,0.612-0.514,0.716c-0.759,0.173-1.849,0.436-3.27,0.791
			c-1.421,0.357-2.689,0.652-3.805,0.889c-1.121,0.276-2.218,0.51-3.29,0.703c-2.027,0.378-4.082,0.641-6.163,0.786
			c-1.452,0.102-2.644,0.125-3.574,0.072c-1.235-0.11-2.046-0.37-2.431-0.777c-0.211-0.222-0.294-0.551-0.248-0.989
			c0.033-0.317,0.13-0.679,0.289-1.085c0.307-0.691,0.766-1.533,1.377-2.523c0.458-0.663,1.349-1.908,2.673-3.737
			c4.41-5.991,10.371-13.766,17.887-23.326c0.09-0.126,0.358-0.449,0.804-0.974c0.443-0.524,0.936-1.121,1.475-1.791l1.424-1.875
			c0.82-1.123,1.445-2.073,1.878-2.854c0.386-0.697,0.555-1.202,0.512-1.515c-0.114-0.032-0.271-0.04-0.466-0.026
			c-0.507-0.003-1.18,0.102-2.021,0.32c-1.915,0.409-4.011,1.069-6.289,1.978c-2.605,1.05-4.769,2.167-6.491,3.353
			c-1.896,1.356-3.002,2.598-3.314,3.725c-0.121,0.402-0.373,0.578-0.756,0.526C193.495,55.694,193.363,55.468,193.484,55.064z"/>
		<path fill="#182C3A" d="M234.265,47.536l0.391-0.382c2.272-1.973,4.284-3.317,6.035-4.032c1.76-0.793,3.151-0.871,4.177-0.232
			c1.027,0.599,1.602,1.802,1.725,3.607c0.091,1.732-0.236,3.923-0.983,6.579c-1.55,5.475-3.993,10.914-7.327,16.315
			c-3.288,5.32-7.104,9.75-11.451,13.289c-4.093,3.324-7.213,4.271-9.362,2.844c-2.079-1.353-2.582-4.355-1.508-9.009
			c1.227-5.372,3.414-10.616,6.563-15.728c3.148-5.112,6.9-9.479,11.257-13.098C233.911,47.561,234.072,47.512,234.265,47.536z
			 M229.044,53.82c-2.918,3.282-5.401,6.888-7.452,10.818c-2.006,3.89-3.495,7.86-4.467,11.913
			c-0.489,2.047-0.609,3.751-0.362,5.114c0.207,1.368,0.693,2.3,1.46,2.799c1.711,1.144,4.378,0.247,7.999-2.69
			c4.175-3.368,7.88-7.672,11.121-12.91c3.196-5.194,5.566-10.509,7.112-15.943c0.739-2.577,1.053-4.631,0.94-6.163
			c-0.081-1.453-0.489-2.393-1.225-2.814c-0.735-0.422-1.796-0.348-3.18,0.222c-1.594,0.704-3.466,1.999-5.612,3.884
			c-0.809,0.649-1.761,1.544-2.854,2.686l-2.762,2.915C229.54,53.904,229.302,53.96,229.044,53.82z"/>
		<path fill="#182C3A" d="M259.49,50.033c2.406-1.745,4.753-3.685,7.044-5.819c1.212-1.149,2.113-1.941,2.705-2.378l0.064-0.063
			l0.196-0.192c0.091-0.124,0.196-0.21,0.319-0.258c0.204-0.094,0.397-0.088,0.583,0.018c0.143,0.109,0.225,0.262,0.244,0.457
			c0.02,0.551-0.265,1.4-0.854,2.545c-0.439,0.86-1.063,1.969-1.869,3.327l-2.039,3.278c-0.75,1.198-1.198,1.94-1.346,2.225
			l-2.742,5.52l-2.517,5.028c-0.652,1.388-1.516,3.303-2.592,5.745l-2.287,5.071l-2.474,5.736c-1.283,2.932-2.072,4.703-2.37,5.315
			c-0.16,0.406-0.42,0.552-0.778,0.439c-0.358-0.113-0.439-0.354-0.245-0.723c0.211-0.528,0.962-2.296,2.254-5.307l2.598-5.805
			l2.229-5.068l2.655-5.809l2.399-5.02c0.985-1.962,1.939-3.805,2.86-5.527c0.199-0.407,0.671-1.189,1.416-2.347l1.981-3.276
			c0.797-1.278,1.396-2.347,1.799-3.204l0.285-0.494c-0.341,0.261-0.92,0.775-1.74,1.542c-2.464,2.303-4.855,4.285-7.173,5.947
			c-0.34,0.26-0.61,0.241-0.812-0.062C259.084,50.576,259.151,50.295,259.49,50.033z"/>
		<path fill="#182C3A" d="M301.275,39.062c-0.529-0.16-1.262-0.048-2.198,0.333c-0.857,0.376-1.84,0.996-2.943,1.863
			c-1.483,1.129-3.142,2.625-4.974,4.49c-1.794,1.862-3.86,4.375-6.2,7.537c-2.34,3.162-4.382,6.362-6.125,9.601
			c-2.041,3.851-3.331,7.217-3.867,10.096c-0.621,3.317-0.185,5.833,1.312,7.542c0.872,0.965,1.967,1.303,3.284,1.013
			c1.316-0.289,2.807-1.122,4.472-2.502c3.248-2.713,6.188-6.41,8.825-11.093c1.198-2.135,2.062-4.051,2.592-5.744
			c0.532-1.734,0.65-3.044,0.354-3.932c-0.306-0.807-1.053-1.109-2.243-0.908c-1.544,0.226-3.716,1.228-6.512,3.001
			c-1.128,0.709-3.852,2.716-8.174,6.017c-0.34,0.26-0.611,0.24-0.812-0.062c-0.203-0.301-0.135-0.582,0.205-0.843
			c4.365-3.343,7.134-5.391,8.305-6.144c2.923-1.862,5.256-2.913,6.995-3.152c1.744-0.279,2.859,0.233,3.347,1.541
			c0.393,1.078,0.288,2.625-0.312,4.638c-0.581,1.815-1.494,3.833-2.741,6.051c-2.73,4.848-5.804,8.692-9.221,11.535
			c-1.835,1.51-3.511,2.436-5.027,2.778c-1.758,0.398-3.174-0.035-4.248-1.301c-1.704-1.972-2.228-4.775-1.571-8.413
			c0.548-2.997,1.891-6.504,4.028-10.521c1.8-3.4,3.877-6.662,6.232-9.787c2.366-3.242,4.489-5.817,6.365-7.725
			c1.876-1.906,3.577-3.446,5.104-4.618c1.227-0.914,2.309-1.582,3.25-2.002c1.229-0.559,2.256-0.691,3.082-0.394
			c0.341,0.094,0.422,0.336,0.245,0.724C301.928,39.067,301.651,39.194,301.275,39.062z"/>
	</g>
</g>
</svg>
