<?xml version="1.0" encoding="utf-8"?>
<!-- Generator: Adobe Illustrator 16.0.0, SVG Export Plug-In . SVG Version: 6.00 Build 0)  -->
<!DOCTYPE svg PUBLIC "-//W3C//DTD SVG 1.1//EN" "http://www.w3.org/Graphics/SVG/1.1/DTD/svg11.dtd">
<svg version="1.1" id="Ebene_1" xmlns="http://www.w3.org/2000/svg" xmlns:xlink="http://www.w3.org/1999/xlink" x="0px" y="0px"
	 width="485px" height="122px" viewBox="0 0 485 122" enable-background="new 0 0 485 122" xml:space="preserve">
<g>
	<polygon fill="#182C3A" points="23.27,33.776 0,122 459.958,87.84 485,0 	"/>
	<g>
		<defs>
			<rect id="SVGID_1_" width="485" height="122"/>
		</defs>
		<clipPath id="SVGID_2_">
			<use xlink:href="#SVGID_1_"  overflow="visible"/>
		</clipPath>
		<path clip-path="url(#SVGID_2_)" fill="none" stroke="#FCF3F0" stroke-width="1.552" stroke-miterlimit="7.483" d="
			M125.936,60.414c-0.402-0.07-0.685,0.117-0.848,0.562c-0.573,1.737-0.998,4.115-1.276,7.133c-0.392,4.091-0.636,6.416-0.733,6.975
			c-0.494,2.837-0.942,5.985-1.344,9.445c-0.445,3.859-0.342,6.594,0.307,8.206c0.304,0.807,0.776,1.326,1.415,1.558
			c0.594,0.274,1.299,0.244,2.114-0.089c1.302-0.526,2.856-1.778,4.663-3.759c1.549-1.765,3.18-3.93,4.892-6.497
			c1.85-2.772,6.318-9.871,13.405-21.297l2.338-3.892l2.547-4.202c0.653-1.032,1.484-2.264,2.493-3.696
			c1.007-1.432,1.978-2.693,2.911-3.784c0.308-0.337,0.32-0.634,0.035-0.891c-0.285-0.255-0.582-0.215-0.889,0.122
			c-1.017,1.136-2.039,2.431-3.069,3.884c-1.029,1.453-1.852,2.695-2.466,3.723l-2.677,4.33l-2.338,3.894
			c-7.043,11.382-11.468,18.438-13.275,21.169c-1.664,2.483-3.269,4.589-4.815,6.313c-1.593,1.809-2.938,2.928-4.036,3.36
			c-0.488,0.19-0.881,0.219-1.178,0.082c-0.336-0.134-0.633-0.47-0.888-1.003c-0.553-1.421-0.617-3.961-0.193-7.621
			c0.398-3.421,0.841-6.53,1.331-9.326c0.101-0.599,0.35-2.963,0.746-7.095c0.269-2.938,0.686-5.236,1.25-6.895
			C126.478,60.722,126.338,60.485,125.936,60.414z"/>
		<path clip-path="url(#SVGID_2_)" fill="none" stroke="#FCF3F0" stroke-width="1.552" stroke-miterlimit="7.483" d="
			M176.559,49.624c2.351-1.979,4.471-3.331,6.36-4.055c1.888-0.724,3.451-0.852,4.688-0.387c1.499,0.567,2.476,2.037,2.928,4.412
			c0.412,2.378,0.111,5.615-0.904,9.71c-1.237,5.098-3.509,10.208-6.815,15.332c-3.306,5.124-7.062,9.155-11.268,12.092
			c-4.537,3.118-7.816,3.723-9.837,1.812c-0.881-0.885-1.442-2.226-1.681-4.025c-0.241-1.798-0.1-3.879,0.422-6.243
			c1.128-5.17,3.095-10.356,5.904-15.564c2.768-5.204,6.068-9.341,9.898-12.41C176.471,50.084,176.572,49.86,176.559,49.624z
			 M164.001,64.529c-2.243,4.654-3.855,9.227-4.832,13.714c-0.538,2.522-0.678,4.782-0.42,6.775
			c0.258,1.994,0.917,3.508,1.978,4.537c1.088,1.147,2.631,1.571,4.631,1.274c1.999-0.298,4.261-1.324,6.784-3.078
			c4.371-3.028,8.279-7.208,11.724-12.539c3.405-5.327,5.75-10.581,7.036-15.761c1.036-4.294,1.323-7.776,0.864-10.447
			c-0.46-2.67-1.628-4.355-3.503-5.052c-1.876-0.698-4.191-0.368-6.944,0.988c-2.755,1.357-5.743,3.648-8.966,6.871
			c-0.178,0.211-0.26,0.433-0.245,0.668C168.946,55.859,166.244,59.874,164.001,64.529z"/>
		<path clip-path="url(#SVGID_2_)" fill="none" stroke="#FCF3F0" stroke-width="1.552" stroke-miterlimit="7.483" d="
			M216.563,63.931c3.245-1.213,5.976-2.351,8.193-3.414c2.668-1.29,4.525-2.447,5.567-3.467c1.92-1.948,2.32-3.91,1.203-5.884
			c-0.858-1.478-2.599-2.895-5.224-4.251c-2.222-1.107-4.699-2.018-7.429-2.735l1.136-1.915c0.238-0.41,0.171-0.701-0.2-0.873
			c-0.372-0.171-0.677-0.051-0.915,0.36l-1.28,2.161c-1.905-0.419-3.367-0.594-4.388-0.522c-0.432,0.03-0.671,0.264-0.717,0.701
			c-0.046,0.438,0.147,0.641,0.579,0.61c0.863-0.06,2.134,0.088,3.812,0.444c-4.079,6.914-8.039,13.997-11.88,21.249
			c-1.207,0.361-2.332,0.678-3.373,0.947c-0.441,0.11-0.645,0.38-0.612,0.812c0.033,0.432,0.269,0.593,0.71,0.482
			c0.683-0.205,1.507-0.439,2.471-0.706c-3.504,6.638-6.86,13.344-10.066,20.117c-0.199,0.407-0.11,0.678,0.266,0.811
			c0.376,0.13,0.663-0.009,0.862-0.416c4.271-8.741,7.747-15.673,10.429-20.793c0.414,0.88,0.883,1.794,1.407,2.742l1.426,2.563
			l1.714,2.603l1.609,2.492l1.832,2.594l1.687,2.31l1.838,2.534c0.923,1.237,1.485,2.007,1.687,2.309
			c0.241,0.298,0.542,0.307,0.903,0.026c0.361-0.283,0.443-0.595,0.245-0.936c-0.242-0.299-0.824-1.066-1.746-2.304l-1.785-2.48
			l-1.687-2.308l-1.838-2.535l-1.563-2.376c-0.673-1.019-1.225-1.887-1.655-2.606l-1.374-2.509l-1.419-2.622
			C210.334,66.083,213.526,65.012,216.563,63.931z M225.529,48.153c2.445,1.211,4.046,2.479,4.803,3.807
			c0.822,1.442,0.539,2.843-0.851,4.202c-0.878,0.93-2.587,1.997-5.13,3.2c-2.174,1.02-4.863,2.136-8.069,3.346
			c-3.041,1.121-6.252,2.193-9.634,3.218c3.694-6.965,7.511-13.801,11.451-20.509C220.873,46.092,223.35,47.003,225.529,48.153z"/>
		<path clip-path="url(#SVGID_2_)" fill="none" stroke="#FCF3F0" stroke-width="1.552" stroke-miterlimit="7.483" d="
			M271.497,42.985c2.351-1.979,4.471-3.331,6.36-4.055c1.888-0.724,3.45-0.852,4.688-0.387c1.499,0.567,2.477,2.037,2.928,4.412
			c0.412,2.378,0.111,5.615-0.903,9.71c-1.237,5.098-3.51,10.208-6.815,15.332c-3.306,5.124-7.062,9.155-11.268,12.092
			c-4.537,3.118-7.816,3.723-9.837,1.812c-0.882-0.885-1.442-2.226-1.682-4.025c-0.241-1.798-0.1-3.879,0.422-6.244
			c1.128-5.169,3.096-10.355,5.904-15.563c2.768-5.204,6.068-9.341,9.898-12.41C271.409,43.445,271.51,43.221,271.497,42.985z
			 M258.939,57.89c-2.243,4.655-3.855,9.227-4.832,13.714c-0.538,2.522-0.679,4.782-0.421,6.775
			c0.259,1.994,0.917,3.508,1.979,4.537c1.088,1.147,2.631,1.571,4.631,1.274c1.999-0.298,4.261-1.324,6.784-3.078
			c4.371-3.028,8.279-7.208,11.724-12.539c3.405-5.327,5.75-10.581,7.036-15.761c1.036-4.294,1.323-7.776,0.864-10.447
			c-0.46-2.67-1.628-4.355-3.503-5.052c-1.876-0.698-4.191-0.368-6.944,0.988c-2.755,1.357-5.743,3.648-8.966,6.871
			c-0.178,0.211-0.26,0.433-0.245,0.668C263.884,49.22,261.182,53.235,258.939,57.89z"/>
		<path clip-path="url(#SVGID_2_)" fill="none" stroke="#FCF3F0" stroke-width="1.552" stroke-miterlimit="7.483" d="
			M311.501,57.292c3.245-1.213,5.977-2.351,8.193-3.414c2.668-1.29,4.525-2.447,5.567-3.467c1.92-1.948,2.319-3.91,1.203-5.884
			c-0.858-1.478-2.6-2.895-5.225-4.251c-2.222-1.107-4.699-2.018-7.429-2.735l1.136-1.915c0.238-0.41,0.171-0.701-0.2-0.873
			c-0.372-0.171-0.677-0.051-0.915,0.36l-1.279,2.161c-1.905-0.419-3.367-0.594-4.389-0.522c-0.432,0.03-0.671,0.264-0.717,0.701
			c-0.046,0.438,0.147,0.641,0.579,0.61c0.863-0.06,2.134,0.088,3.812,0.444c-4.078,6.914-8.038,13.997-11.88,21.249
			c-1.207,0.361-2.332,0.677-3.373,0.947c-0.44,0.11-0.645,0.38-0.611,0.812c0.033,0.432,0.269,0.593,0.71,0.482
			c0.683-0.205,1.507-0.439,2.471-0.706c-3.504,6.638-6.86,13.344-10.066,20.117c-0.198,0.407-0.109,0.678,0.267,0.811
			c0.375,0.13,0.663-0.009,0.862-0.416c4.271-8.741,7.746-15.673,10.429-20.793c0.414,0.88,0.883,1.794,1.407,2.742l1.426,2.563
			l1.714,2.603l1.609,2.492l1.832,2.594l1.687,2.31l1.838,2.534c0.923,1.237,1.485,2.007,1.688,2.309
			c0.24,0.298,0.542,0.307,0.902,0.026c0.361-0.283,0.443-0.595,0.245-0.936c-0.242-0.299-0.824-1.066-1.746-2.304l-1.784-2.48
			l-1.688-2.308l-1.838-2.535l-1.563-2.376c-0.673-1.019-1.225-1.887-1.654-2.606l-1.374-2.509l-1.419-2.623
			C305.272,59.444,308.465,58.374,311.501,57.292z M320.468,41.514c2.444,1.211,4.046,2.479,4.803,3.807
			c0.822,1.442,0.539,2.843-0.852,4.202c-0.878,0.93-2.587,1.997-5.13,3.2c-2.174,1.02-4.862,2.136-8.068,3.346
			c-3.041,1.121-6.252,2.193-9.635,3.218c3.694-6.965,7.512-13.801,11.451-20.509C315.812,39.453,318.288,40.364,320.468,41.514z"/>
		<path clip-path="url(#SVGID_2_)" fill="none" stroke="#FCF3F0" stroke-width="1.552" stroke-miterlimit="7.483" d="M337.66,39.513
			c0.177,0.363,0.451,0.433,0.826,0.209c1.001-0.622,2.734-1.177,5.203-1.666c2.149-0.426,4.781-0.808,7.896-1.144l0.058-0.004
			c-7.884,13.453-15.229,27.342-22.035,41.667c-0.199,0.408-0.11,0.679,0.266,0.81c0.375,0.131,0.663-0.007,0.862-0.415
			c6.906-14.528,14.367-28.604,22.386-42.225c1.653-0.154,5.778-0.463,12.375-0.924c0.432-0.031,0.671-0.264,0.717-0.702
			c0.046-0.437-0.147-0.64-0.579-0.61c-6.36,0.445-10.271,0.738-11.727,0.879l1.56-2.595c0.237-0.41,0.17-0.701-0.201-0.873
			c-0.372-0.171-0.677-0.051-0.914,0.359l-1.923,3.272l-0.766,0.053c-3.192,0.342-5.864,0.726-8.014,1.152
			c-2.629,0.539-4.505,1.144-5.628,1.814C337.604,38.836,337.483,39.151,337.66,39.513z"/>
	</g>
	<g>
		<path fill="#FCF3F0" d="M126.358,61.125c-0.564,1.657-0.981,3.955-1.25,6.895c-0.396,4.131-0.644,6.495-0.746,7.095
			c-0.49,2.796-0.934,5.904-1.331,9.325c-0.424,3.661-0.36,6.2,0.192,7.622c0.255,0.534,0.551,0.868,0.889,1.003
			c0.297,0.136,0.689,0.108,1.178-0.082c1.097-0.432,2.443-1.552,4.036-3.36c1.545-1.726,3.15-3.83,4.815-6.315
			c1.807-2.729,6.232-9.786,13.274-21.169l2.339-3.892l2.677-4.33c0.613-1.028,1.437-2.27,2.466-3.723
			c1.03-1.453,2.052-2.748,3.069-3.884c0.307-0.336,0.604-0.377,0.89-0.123c0.285,0.257,0.273,0.554-0.036,0.891
			c-0.933,1.092-1.904,2.353-2.911,3.784c-1.008,1.432-1.839,2.665-2.494,3.696l-2.546,4.202l-2.338,3.893
			c-7.087,11.426-11.556,18.524-13.406,21.297c-1.711,2.566-3.343,4.732-4.892,6.497c-1.807,1.981-3.36,3.232-4.662,3.759
			c-0.815,0.332-1.521,0.362-2.114,0.089c-0.639-0.231-1.11-0.751-1.415-1.559c-0.649-1.611-0.751-4.347-0.307-8.205
			c0.402-3.461,0.85-6.608,1.344-9.445c0.097-0.559,0.342-2.884,0.733-6.975c0.277-3.018,0.704-5.396,1.276-7.133
			c0.163-0.446,0.447-0.632,0.849-0.562C126.338,60.486,126.478,60.723,126.358,61.125z"/>
		<path fill="#FCF3F0" d="M172.107,52.481c-0.015-0.235,0.066-0.458,0.246-0.667c3.223-3.224,6.211-5.514,8.965-6.872
			c2.754-1.355,5.069-1.685,6.945-0.988c1.875,0.698,3.042,2.383,3.502,5.053c0.459,2.67,0.172,6.153-0.864,10.446
			c-1.285,5.18-3.629,10.434-7.035,15.762c-3.445,5.332-7.353,9.51-11.724,12.539c-2.524,1.754-4.786,2.78-6.785,3.078
			c-1.999,0.297-3.543-0.128-4.631-1.274c-1.061-1.03-1.721-2.543-1.979-4.537c-0.257-1.994-0.117-4.253,0.42-6.775
			c0.978-4.488,2.588-9.061,4.833-13.714C166.244,59.875,168.946,55.859,172.107,52.481z M176.254,50.297
			c-3.831,3.07-7.13,7.208-9.899,12.411c-2.808,5.208-4.776,10.396-5.903,15.563c-0.522,2.365-0.664,4.446-0.424,6.244
			c0.24,1.799,0.8,3.14,1.683,4.026c2.02,1.909,5.299,1.306,9.837-1.813c4.206-2.937,7.962-6.968,11.268-12.092
			s5.578-10.234,6.814-15.331c1.016-4.097,1.316-7.333,0.904-9.712c-0.452-2.373-1.429-3.844-2.927-4.41
			c-1.236-0.466-2.8-0.337-4.689,0.386c-1.888,0.725-4.008,2.077-6.359,4.056C176.572,49.861,176.47,50.085,176.254,50.297z"/>
		<path fill="#FCF3F0" d="M206.988,67.146l1.419,2.623l1.374,2.509c0.43,0.72,0.981,1.588,1.655,2.606l1.563,2.376l1.839,2.534
			l1.687,2.309l1.785,2.48c0.923,1.236,1.504,2.005,1.745,2.305c0.199,0.341,0.116,0.651-0.244,0.934
			c-0.361,0.281-0.663,0.272-0.904-0.025c-0.202-0.302-0.765-1.071-1.687-2.309l-1.838-2.535l-1.688-2.309l-1.832-2.594
			l-1.609-2.492l-1.714-2.603l-1.426-2.563c-0.524-0.949-0.994-1.863-1.407-2.742c-2.683,5.12-6.158,12.052-10.429,20.792
			c-0.199,0.409-0.486,0.547-0.862,0.416s-0.465-0.402-0.266-0.811c3.206-6.772,6.561-13.479,10.065-20.116
			c-0.962,0.267-1.787,0.501-2.471,0.706c-0.44,0.109-0.676-0.052-0.709-0.483c-0.032-0.431,0.171-0.701,0.612-0.812
			c1.042-0.27,2.167-0.585,3.374-0.945c3.84-7.252,7.8-14.335,11.879-21.25c-1.677-0.356-2.948-0.503-3.812-0.443
			c-0.433,0.03-0.625-0.174-0.579-0.611s0.284-0.67,0.716-0.7c1.021-0.072,2.483,0.103,4.389,0.521l1.279-2.16
			c0.238-0.411,0.543-0.532,0.915-0.361c0.371,0.172,0.438,0.464,0.2,0.874l-1.136,1.915c2.731,0.717,5.207,1.629,7.429,2.735
			c2.625,1.355,4.366,2.773,5.225,4.251c1.117,1.974,0.715,3.937-1.203,5.884c-1.042,1.02-2.899,2.176-5.568,3.467
			c-2.216,1.063-4.948,2.2-8.194,3.414C213.526,65.013,210.334,66.084,206.988,67.146z M218.1,45.418
			c-3.94,6.708-7.757,13.542-11.451,20.508c3.382-1.024,6.593-2.098,9.634-3.218c3.206-1.211,5.895-2.325,8.069-3.347
			c2.543-1.203,4.253-2.27,5.131-3.198c1.39-1.36,1.672-2.761,0.851-4.204c-0.758-1.328-2.359-2.596-4.804-3.806
			C223.351,47.003,220.874,46.092,218.1,45.418z"/>
		<path fill="#FCF3F0" d="M267.047,45.842c-0.015-0.236,0.066-0.458,0.245-0.667c3.222-3.224,6.211-5.514,8.965-6.872
			c2.754-1.355,5.068-1.685,6.945-0.989c1.875,0.699,3.042,2.383,3.502,5.053c0.46,2.67,0.172,6.153-0.864,10.446
			c-1.284,5.18-3.63,10.434-7.035,15.762c-3.444,5.332-7.354,9.51-11.724,12.538c-2.524,1.755-4.785,2.781-6.784,3.079
			c-1.999,0.296-3.543-0.128-4.631-1.274c-1.061-1.03-1.721-2.543-1.979-4.537c-0.259-1.994-0.118-4.253,0.421-6.776
			c0.977-4.487,2.588-9.06,4.831-13.713C261.184,53.237,263.885,49.221,267.047,45.842z M271.192,43.658
			c-3.83,3.07-7.13,7.208-9.897,12.411c-2.81,5.208-4.776,10.396-5.903,15.563c-0.523,2.365-0.664,4.446-0.424,6.244
			c0.239,1.799,0.801,3.14,1.683,4.026c2.02,1.909,5.299,1.306,9.836-1.813c4.206-2.937,7.962-6.968,11.268-12.092
			c3.307-5.124,5.579-10.234,6.815-15.332c1.017-4.097,1.316-7.332,0.903-9.711c-0.451-2.374-1.428-3.845-2.926-4.411
			c-1.238-0.466-2.801-0.336-4.689,0.386c-1.889,0.724-4.01,2.077-6.359,4.056C271.511,43.222,271.41,43.446,271.192,43.658z"/>
		<path fill="#FCF3F0" d="M301.926,60.508l1.42,2.623l1.374,2.509c0.43,0.72,0.981,1.588,1.655,2.606l1.562,2.376l1.839,2.534
			l1.687,2.309l1.786,2.48c0.922,1.236,1.504,2.005,1.745,2.305c0.198,0.341,0.116,0.651-0.245,0.934
			c-0.36,0.281-0.661,0.272-0.902-0.025c-0.203-0.302-0.765-1.071-1.687-2.309l-1.838-2.535l-1.688-2.309l-1.832-2.594l-1.608-2.492
			l-1.714-2.603l-1.427-2.563c-0.524-0.95-0.993-1.863-1.408-2.742c-2.681,5.12-6.157,12.052-10.428,20.792
			c-0.2,0.409-0.486,0.547-0.863,0.416c-0.375-0.131-0.464-0.402-0.265-0.811c3.206-6.772,6.562-13.479,10.065-20.116
			c-0.963,0.267-1.788,0.501-2.472,0.706c-0.44,0.109-0.676-0.052-0.709-0.483c-0.033-0.431,0.171-0.701,0.612-0.812
			c1.041-0.27,2.166-0.585,3.373-0.945c3.841-7.252,7.801-14.335,11.879-21.25c-1.678-0.356-2.948-0.503-3.812-0.443
			c-0.433,0.03-0.625-0.173-0.579-0.611s0.285-0.67,0.718-0.701c1.021-0.071,2.483,0.103,4.389,0.521l1.278-2.16
			c0.237-0.411,0.544-0.532,0.915-0.361c0.371,0.172,0.438,0.464,0.2,0.874l-1.137,1.915c2.731,0.717,5.208,1.629,7.43,2.735
			c2.626,1.355,4.366,2.773,5.226,4.251c1.115,1.973,0.716,3.936-1.204,5.884c-1.043,1.02-2.898,2.176-5.568,3.467
			c-2.215,1.063-4.947,2.2-8.192,3.414C308.464,58.374,305.272,59.445,301.926,60.508z M313.038,38.78
			c-3.94,6.708-7.758,13.542-11.452,20.508c3.383-1.024,6.594-2.098,9.635-3.217c3.205-1.211,5.895-2.326,8.069-3.348
			c2.542-1.202,4.251-2.269,5.13-3.198c1.389-1.36,1.673-2.761,0.851-4.204c-0.757-1.328-2.358-2.596-4.803-3.807
			C318.288,40.365,315.812,39.453,313.038,38.78z"/>
		<path fill="#FCF3F0" d="M338.023,38.571c1.122-0.67,2.999-1.275,5.627-1.814c2.15-0.425,4.82-0.81,8.015-1.152l0.766-0.054
			l1.922-3.27c0.237-0.411,0.543-0.532,0.914-0.361c0.371,0.172,0.438,0.464,0.201,0.874l-1.559,2.595
			c1.456-0.141,5.366-0.434,11.727-0.878c0.432-0.03,0.625,0.172,0.579,0.61c-0.047,0.438-0.285,0.67-0.717,0.701
			c-6.597,0.461-10.722,0.77-12.375,0.925c-8.02,13.622-15.48,27.696-22.386,42.225c-0.2,0.408-0.487,0.547-0.862,0.416
			c-0.376-0.132-0.465-0.402-0.266-0.812c6.806-14.324,14.151-28.213,22.035-41.667l-0.06,0.004
			c-3.114,0.337-5.745,0.719-7.895,1.145c-2.469,0.488-4.202,1.044-5.203,1.667c-0.375,0.224-0.65,0.154-0.825-0.21
			C337.484,39.151,337.604,38.837,338.023,38.571z"/>
	</g>
</g>
</svg>
