<?xml version="1.0" encoding="utf-8"?>
<!-- Generator: Adobe Illustrator 16.0.0, SVG Export Plug-In . SVG Version: 6.00 Build 0)  -->
<!DOCTYPE svg PUBLIC "-//W3C//DTD SVG 1.1//EN" "http://www.w3.org/Graphics/SVG/1.1/DTD/svg11.dtd">
<svg version="1.1" id="Ebene_1" xmlns="http://www.w3.org/2000/svg" xmlns:xlink="http://www.w3.org/1999/xlink" x="0px" y="0px"
	 width="485px" height="122px" viewBox="0 0 485 122" enable-background="new 0 0 485 122" xml:space="preserve">
<g>
	<polygon fill="#182C3A" points="23.27,33.776 0,122 459.958,87.84 485,0 	"/>
	<g>
		<defs>
			<rect id="SVGID_1_" width="485" height="122"/>
		</defs>
		<clipPath id="SVGID_2_">
			<use xlink:href="#SVGID_1_"  overflow="visible"/>
		</clipPath>
		<path clip-path="url(#SVGID_2_)" fill="none" stroke="#FCF3F0" stroke-width="1.552" stroke-miterlimit="7.483" d="
			M33.145,101.674c0.436-0.07,0.657-0.322,0.664-0.758c0.074-3.674,2.724-9.975,7.95-18.902c4.178-7.117,8.226-13.182,12.143-18.19
			c0.177-0.209,0.627-0.772,1.347-1.691l1.627-2.126l1.465-1.7c0.581-0.711,1.132-1.312,1.651-1.803
			c0.519-0.489,1.008-0.888,1.47-1.197c1.218-0.834,2.154-1.018,2.806-0.552c0.985,0.642,1.639,2.392,1.962,5.249
			c0.553,4.381-0.081,9.673-1.902,15.876c-1.822,6.203-4.234,11.167-7.236,14.888c-1.076,1.338-2.488,2.532-4.235,3.581
			c-1.747,1.049-3.519,1.774-5.315,2.176c-1.918,0.451-3.603,0.44-5.054-0.031c-1.451-0.47-2.49-1.433-3.116-2.889
			c-0.155-0.383-0.439-0.462-0.852-0.237c-0.414,0.228-0.544,0.532-0.389,0.915c0.75,1.764,1.984,2.91,3.702,3.441
			c1.717,0.531,3.633,0.563,5.748,0.101c1.996-0.456,3.941-1.252,5.834-2.391c1.893-1.138,3.443-2.44,4.65-3.906
			c3.136-3.888,5.635-9.035,7.498-15.438c1.861-6.404,2.524-11.875,1.988-16.416c-0.404-3.207-1.205-5.222-2.405-6.046
			c-1.125-0.789-2.549-0.591-4.271,0.594c-0.509,0.391-1.044,0.843-1.604,1.355c-0.561,0.513-1.174,1.158-1.841,1.934
			c-0.666,0.777-1.179,1.395-1.539,1.854l-1.627,2.126c-0.76,0.921-1.208,1.485-1.347,1.692
			c-3.961,5.051-8.052,11.157-12.273,18.316c-5.33,9.173-8.043,15.715-8.143,19.628C32.495,101.561,32.709,101.742,33.145,101.674z"
			/>
		<path clip-path="url(#SVGID_2_)" fill="none" stroke="#FCF3F0" stroke-width="1.552" stroke-miterlimit="7.483" d="
			M107.728,61.776c0.004-0.039,0.053-0.143,0.149-0.307l1.321-3.11c0.815-2.188,1.125-3.846,0.932-4.978
			c-0.147-0.818-0.536-1.392-1.163-1.723c-0.629-0.331-1.461-0.381-2.498-0.151c-1.317,0.29-2.699,0.83-4.146,1.621
			c-1.448,0.792-2.639,1.556-3.573,2.292c-0.936,0.737-2.046,1.663-3.332,2.778c-5.664,4.934-10.876,10.763-15.636,17.487
			c-2.238-1.697-3.834-3.203-4.787-4.519c-0.307-0.412-0.696-0.425-1.165-0.037c-0.47,0.389-0.551,0.789-0.243,1.201
			c1.058,1.426,2.779,3.041,5.161,4.847c-1.66,2.445-3.273,5.004-4.841,7.678c-1.654,2.76-3.293,6.109-4.914,10.05
			c-1.05,2.559-1.687,4.557-1.917,5.994c-0.134,0.916-0.114,1.644,0.063,2.185c0.313,0.728,0.882,1.063,1.707,1.005
			c0.549-0.038,0.854-0.336,0.912-0.892c0.059-0.557-0.187-0.816-0.737-0.777c-0.157,0.012-0.249-0.042-0.275-0.159
			c-0.124-0.307-0.133-0.779-0.027-1.418c0.212-1.277,0.795-3.113,1.748-5.508c1.567-3.778,3.159-7.065,4.779-9.862
			c1.515-2.553,3.099-5.012,4.75-7.375c2.649,1.866,6.179,4.065,10.59,6.598c0.442,0.246,0.825,0.12,1.151-0.376
			c0.324-0.496,0.266-0.867-0.176-1.112c-4.411-2.533-7.921-4.732-10.531-6.603c4.674-6.64,9.777-12.362,15.31-17.168
			c1.972-1.716,3.755-3.104,5.348-4.162c1.592-1.058,3.205-1.763,4.841-2.114c0.675-0.126,1.162-0.12,1.46,0.016
			c0.257,0.14,0.425,0.405,0.501,0.794c0.144,0.858-0.136,2.219-0.838,4.083c-0.268,0.69-0.601,1.443-0.998,2.259
			c-0.004,0.04-0.084,0.243-0.239,0.609l-0.065,0.064l-0.013,0.119l-0.071,0.123c0.004-0.039,0.027-0.08,0.071-0.123l-0.071,0.123
			l-0.143,0.247l-1.973,3.748l-0.006,0.06c-0.386,0.698-0.623,1.109-0.714,1.233c-0.346,0.695-0.905,1.74-1.674,3.136l-1.734,3.139
			L88.799,94.467l-2.128,4.114c-0.199,0.408-0.322,0.654-0.369,0.736l-0.065,0.063L86.224,99.5
			c-0.048,0.082-0.073,0.144-0.078,0.184c-0.028,0.633,0.279,0.868,0.92,0.705c0.2-0.054,0.366-0.144,0.496-0.271
			c0.005-0.04,0.028-0.081,0.072-0.123l0.065-0.063l0.078-0.184l6.787-12.844c0.004-0.039,0.027-0.081,0.071-0.124l5.936-11.423
			l4.97-9.462c0.004-0.039,0.026-0.062,0.065-0.063L107.728,61.776z"/>
		<path clip-path="url(#SVGID_2_)" fill="none" stroke="#FCF3F0" stroke-width="1.552" stroke-miterlimit="7.483" d="
			M148.664,48.586c0.255-0.392,0.199-0.695-0.168-0.906c-3.587-1.84-6.535-1.792-8.843,0.145c-1.795,1.507-3.116,4.243-3.961,8.208
			c-0.574,2.487-1.02,5.99-1.339,10.51c-0.311,4.441-0.567,7.063-0.768,7.866c-1.142,4.933-2.858,9.018-5.147,12.256
			c-1.418,1.993-3.063,3.558-4.937,4.695c-1.873,1.137-3.711,1.749-5.513,1.836c-1.846,0.129-3.474-0.32-4.886-1.346
			s-2.394-2.624-2.945-4.795c-0.077-0.389-0.328-0.5-0.755-0.332c-0.427,0.168-0.584,0.466-0.473,0.892
			c0.605,2.403,1.703,4.182,3.298,5.333c1.589,1.189,3.444,1.712,5.565,1.563c2.076-0.106,4.155-0.794,6.238-2.063
			c2.082-1.271,3.88-2.984,5.393-5.143c2.463-3.406,4.278-7.696,5.445-12.867c0.21-0.883,0.471-3.564,0.787-8.046
			c0.311-4.439,0.731-7.883,1.261-10.327c0.808-3.608,1.979-6.037,3.514-7.289c1.756-1.503,4.206-1.457,7.352,0.137
			C148.114,49.089,148.408,48.979,148.664,48.586z"/>
		<path clip-path="url(#SVGID_2_)" fill="none" stroke="#FCF3F0" stroke-width="1.552" stroke-miterlimit="7.483" d="
			M180.327,69.661c2.959,1.885,5.049,3.315,6.272,4.296c0.328,0.214,0.637,0.143,0.928-0.213s0.294-0.661,0.009-0.918
			c-1.262-0.978-3.37-2.428-6.324-4.352l-1.261-0.8c3.217-5.393,6.904-10.623,11.062-15.688l2.213-2.7
			c0.576-0.671,1.335-1.493,2.276-2.467c0.94-0.973,1.845-1.795,2.715-2.468c0.869-0.672,1.755-1.218,2.656-1.636
			c0.697-0.324,1.191-0.399,1.485-0.222c0.297,0.137,0.495,0.478,0.594,1.023c0.232,1.129,0.038,2.977-0.582,5.545
			c-0.271,1.085-0.611,2.283-1.021,3.593c-0.411,1.312-0.778,2.392-1.101,3.244l-0.995,2.792c-0.336,0.97-0.526,1.477-0.569,1.519
			c-0.125,0.443,0.014,0.7,0.416,0.77c0.402,0.071,0.682-0.097,0.842-0.503c0.004-0.039,0.194-0.546,0.569-1.519l0.995-2.792
			c0.327-0.891,0.697-2.002,1.11-3.333c0.412-1.331,0.756-2.558,1.03-3.682c0.681-2.77,0.877-4.816,0.587-6.137
			c-0.179-0.895-0.566-1.479-1.16-1.754c-0.67-0.308-1.518-0.209-2.545,0.296c-0.985,0.464-1.963,1.055-2.935,1.774
			c-0.972,0.719-1.962,1.607-2.969,2.664c-1.008,1.057-1.778,1.9-2.312,2.529c-0.487,0.547-1.244,1.448-2.272,2.704
			c-4.165,5.144-7.857,10.413-11.074,15.807c-1.567-1.035-2.887-2.008-3.961-2.919c-0.328-0.214-0.638-0.143-0.928,0.213
			c-0.292,0.355-0.295,0.662-0.009,0.918c1.112,0.909,2.507,1.916,4.184,3.021c-4.096,7.073-7.255,14.141-9.478,21.2
			c-0.121,0.402,0.021,0.639,0.423,0.71c0.401,0.07,0.684-0.117,0.848-0.562c2.124-6.856,5.188-13.759,9.192-20.706L180.327,69.661z
			"/>
		<path clip-path="url(#SVGID_2_)" fill="none" stroke="#FCF3F0" stroke-width="1.552" stroke-miterlimit="7.483" d="
			M236.988,56.762c0.371,0.172,0.676,0.052,0.915-0.36c0.432-0.779,0.748-1.374,0.947-1.782l0.882-1.719
			c0.437-0.82,0.753-1.512,0.95-2.079c0.195-0.566,0.399-1.212,0.612-1.937s0.355-1.425,0.426-2.101
			c0.071-0.675,0.061-1.326-0.029-1.951c-0.249-1.718-1.123-2.663-2.625-2.835c-1.157-0.116-2.657,0.245-4.499,1.084
			c-1.354,0.648-2.747,1.475-4.178,2.482c-1.431,1.008-2.535,1.874-3.313,2.599c-5.402,5.034-10.429,10.968-15.084,17.804
			c-1.805-0.623-3.373-1.282-4.703-1.979c-0.332-0.175-0.627-0.065-0.882,0.327c-0.256,0.394-0.2,0.694,0.168,0.905
			c1.334,0.657,2.864,1.3,4.591,1.928c-3.012,4.553-5.374,8.86-7.088,12.926c-2.163,5.004-2.474,8.34-0.935,10.008
			c0.843,0.888,2.116,1.193,3.821,0.916c1.666-0.274,3.739-1.09,6.221-2.447c2.027-1.128,4.634-2.75,7.819-4.867
			c3.811-2.515,8.312-5.849,13.504-9.999c0.343-0.3,0.405-0.609,0.185-0.931c-0.22-0.319-0.519-0.348-0.897-0.085
			c-5.235,4.194-9.697,7.524-13.386,9.991c-3.059,2.028-5.622,3.608-7.689,4.74c-2.316,1.266-4.228,2.03-5.737,2.295
			c-1.308,0.21-2.241-0.001-2.798-0.634c-1.188-1.298-0.844-4.201,1.033-8.713c1.705-3.985,4.083-8.255,7.134-12.809l2.603,0.824
			c4.195,1.245,6.983,2.154,8.365,2.729c0.371,0.172,0.676,0.052,0.915-0.36c0.238-0.409,0.171-0.7-0.2-0.872
			c-1.456-0.609-4.302-1.534-8.536-2.777l-2.321-0.726c4.56-6.67,9.472-12.439,14.739-17.307c0.69-0.64,1.71-1.441,3.059-2.403
			c1.348-0.962,2.679-1.765,3.995-2.41c1.558-0.74,2.799-1.044,3.72-0.912c0.965,0.091,1.52,0.743,1.666,1.955
			c0.102,0.506,0.123,1.057,0.06,1.653c-0.063,0.597-0.186,1.217-0.371,1.861s-0.373,1.23-0.565,1.756
			c-0.192,0.526-0.48,1.138-0.865,1.836l-0.882,1.719c-0.203,0.449-0.519,1.042-0.947,1.782
			C236.549,56.3,236.616,56.591,236.988,56.762z"/>
		<path clip-path="url(#SVGID_2_)" fill="none" stroke="#FCF3F0" stroke-width="1.552" stroke-miterlimit="7.483" d="
			M280.354,39.377c0.255-0.392,0.199-0.695-0.168-0.906c-3.587-1.84-6.535-1.792-8.843,0.145c-1.795,1.507-3.116,4.243-3.961,8.208
			c-0.574,2.487-1.021,5.99-1.339,10.51c-0.312,4.441-0.567,7.063-0.769,7.866c-1.142,4.934-2.858,9.019-5.146,12.256
			c-1.419,1.993-3.063,3.559-4.938,4.695c-1.873,1.137-3.711,1.749-5.513,1.836c-1.847,0.129-3.475-0.32-4.887-1.345
			c-1.411-1.026-2.394-2.624-2.944-4.795c-0.077-0.39-0.328-0.5-0.755-0.332c-0.427,0.168-0.584,0.465-0.473,0.891
			c0.605,2.404,1.703,4.183,3.297,5.333c1.59,1.19,3.444,1.712,5.565,1.564c2.076-0.107,4.155-0.794,6.238-2.064
			c2.082-1.27,3.88-2.983,5.393-5.142c2.463-3.407,4.278-7.697,5.445-12.868c0.21-0.882,0.471-3.564,0.787-8.045
			c0.311-4.44,0.73-7.883,1.261-10.327c0.808-3.608,1.979-6.037,3.514-7.289c1.756-1.503,4.206-1.457,7.353,0.137
			C279.804,39.88,280.098,39.771,280.354,39.377z"/>
		<path clip-path="url(#SVGID_2_)" fill="none" stroke="#FCF3F0" stroke-width="1.552" stroke-miterlimit="7.483" d="
			M289.927,42.851c0.176,0.363,0.451,0.433,0.826,0.209c1.001-0.622,2.733-1.177,5.203-1.666c2.148-0.426,4.78-0.808,7.896-1.144
			l0.059-0.004c-7.885,13.453-15.229,27.342-22.035,41.667c-0.199,0.408-0.11,0.679,0.266,0.81c0.375,0.131,0.663-0.007,0.862-0.415
			c6.905-14.528,14.367-28.604,22.386-42.225c1.653-0.154,5.778-0.463,12.375-0.924c0.431-0.031,0.67-0.264,0.716-0.702
			c0.046-0.437-0.146-0.64-0.579-0.61c-6.359,0.445-10.27,0.738-11.726,0.879l1.559-2.595c0.237-0.41,0.17-0.702-0.201-0.873
			s-0.677-0.051-0.915,0.359l-1.922,3.272l-0.765,0.053c-3.193,0.342-5.865,0.726-8.014,1.152c-2.629,0.539-4.505,1.144-5.628,1.814
			C289.871,42.174,289.75,42.489,289.927,42.851z"/>
		<path clip-path="url(#SVGID_2_)" fill="none" stroke="#FCF3F0" stroke-width="1.552" stroke-miterlimit="7.483" d="
			M345.757,32.584c-0.372-0.171-0.678-0.051-0.915,0.36c-8.887,14.825-17.133,30.256-24.743,46.295
			c-0.199,0.408-0.111,0.679,0.265,0.811c0.376,0.131,0.664-0.008,0.863-0.416c8.498-17.441,16.741-32.834,24.73-46.176
			C346.194,33.048,346.128,32.757,345.757,32.584z"/>
		<path clip-path="url(#SVGID_2_)" fill="none" stroke="#FCF3F0" stroke-width="1.552" stroke-miterlimit="7.483" d="
			M351.181,44.664c-0.402-0.07-0.686,0.117-0.849,0.562c-0.572,1.737-0.998,4.115-1.275,7.133c-0.393,4.091-0.637,6.416-0.733,6.975
			c-0.494,2.837-0.942,5.985-1.344,9.445c-0.445,3.859-0.342,6.595,0.307,8.206c0.304,0.808,0.776,1.326,1.415,1.559
			c0.594,0.273,1.299,0.243,2.114-0.09c1.302-0.525,2.855-1.777,4.663-3.759c1.549-1.765,3.18-3.93,4.892-6.497
			c1.851-2.771,6.318-9.871,13.405-21.297l2.338-3.892l2.547-4.202c0.653-1.032,1.484-2.264,2.493-3.696
			c1.007-1.432,1.978-2.693,2.911-3.784c0.308-0.337,0.32-0.634,0.035-0.891c-0.285-0.255-0.582-0.215-0.89,0.122
			c-1.017,1.136-2.039,2.431-3.068,3.884c-1.029,1.453-1.853,2.695-2.466,3.723l-2.678,4.33l-2.338,3.893
			c-7.043,11.382-11.468,18.438-13.274,21.169c-1.664,2.484-3.27,4.589-4.815,6.313c-1.593,1.809-2.938,2.929-4.036,3.36
			c-0.488,0.191-0.881,0.219-1.178,0.082c-0.336-0.134-0.633-0.469-0.888-1.003c-0.553-1.421-0.617-3.961-0.193-7.621
			c0.397-3.421,0.841-6.53,1.331-9.326c0.101-0.599,0.35-2.963,0.746-7.095c0.269-2.938,0.686-5.236,1.25-6.894
			C351.723,44.972,351.582,44.734,351.181,44.664z"/>
		<path clip-path="url(#SVGID_2_)" fill="none" stroke="#FCF3F0" stroke-width="1.552" stroke-miterlimit="7.483" d="
			M423.112,39.722c0.004-0.039,0.053-0.142,0.148-0.306l1.321-3.111c0.814-2.188,1.125-3.846,0.932-4.978
			c-0.147-0.818-0.536-1.392-1.163-1.723c-0.629-0.331-1.461-0.381-2.498-0.151c-1.316,0.29-2.698,0.83-4.146,1.621
			c-1.448,0.792-2.639,1.556-3.573,2.292c-0.936,0.737-2.046,1.663-3.332,2.778c-5.664,4.934-10.876,10.763-15.636,17.487
			c-2.238-1.697-3.834-3.203-4.787-4.518c-0.307-0.412-0.696-0.425-1.165-0.037c-0.47,0.388-0.551,0.789-0.243,1.201
			c1.059,1.426,2.779,3.041,5.161,4.847c-1.66,2.445-3.272,5.003-4.841,7.677c-1.654,2.76-3.293,6.109-4.914,10.05
			c-1.049,2.559-1.687,4.557-1.917,5.994c-0.134,0.916-0.114,1.644,0.063,2.185c0.312,0.728,0.882,1.063,1.707,1.005
			c0.549-0.038,0.854-0.336,0.911-0.892c0.06-0.558-0.187-0.816-0.736-0.777c-0.157,0.011-0.249-0.042-0.275-0.159
			c-0.124-0.307-0.133-0.779-0.027-1.418c0.213-1.277,0.796-3.113,1.749-5.508c1.566-3.779,3.158-7.065,4.778-9.863
			c1.515-2.552,3.099-5.011,4.75-7.375c2.649,1.867,6.179,4.066,10.59,6.598c0.442,0.246,0.825,0.12,1.151-0.376
			c0.324-0.496,0.266-0.867-0.176-1.112c-4.411-2.533-7.921-4.733-10.531-6.603c4.674-6.639,9.777-12.362,15.31-17.168
			c1.973-1.716,3.755-3.104,5.349-4.162c1.592-1.058,3.205-1.763,4.841-2.114c0.675-0.126,1.162-0.12,1.46,0.016
			c0.257,0.14,0.425,0.405,0.501,0.794c0.144,0.858-0.136,2.219-0.838,4.083c-0.269,0.69-0.602,1.443-0.998,2.259
			c-0.004,0.04-0.084,0.243-0.239,0.609l-0.064,0.064l-0.014,0.119l-0.07,0.123c0.004-0.039,0.026-0.08,0.07-0.123l-0.07,0.123
			l-0.144,0.247l-1.973,3.748l-0.006,0.06c-0.387,0.698-0.623,1.109-0.714,1.233c-0.347,0.696-0.905,1.741-1.675,3.136l-1.733,3.139
			l-11.224,21.677l-2.128,4.114c-0.198,0.408-0.321,0.654-0.369,0.736l-0.064,0.063l-0.013,0.119
			c-0.049,0.082-0.073,0.144-0.078,0.184c-0.028,0.633,0.278,0.868,0.92,0.704c0.2-0.053,0.366-0.143,0.496-0.271
			c0.005-0.04,0.027-0.081,0.071-0.123l0.065-0.064l0.078-0.183l6.787-12.844c0.004-0.039,0.026-0.081,0.07-0.124l5.937-11.423
			l4.97-9.462c0.004-0.039,0.026-0.061,0.065-0.063L423.112,39.722z"/>
		<path clip-path="url(#SVGID_2_)" fill="none" stroke="#FCF3F0" stroke-width="1.552" stroke-miterlimit="7.483" d="
			M452.945,25.089c-0.372-0.171-0.677-0.051-0.915,0.36l-5.362,9.312l-6.361,11.571l-5.141,9.415
			c-1.878,3.407-3.037,5.539-3.479,6.398c-0.697,1.431-1.216,2.67-1.561,3.72c-0.448,1.294-0.609,2.271-0.483,2.933
			c0.3,1.599,1.124,2.468,2.474,2.609c1.034,0.164,2.414-0.169,4.139-1c1.188-0.556,2.825-1.479,4.91-2.769
			c3.124-1.915,4.791-2.94,5-3.073c0.413-0.226,0.543-0.53,0.389-0.914c-0.156-0.384-0.44-0.463-0.853-0.237
			c-0.622,0.36-2.311,1.405-5.065,3.136c-2.041,1.248-3.616,2.147-4.726,2.698c-1.517,0.698-2.658,0.995-3.428,0.892
			c-0.807-0.102-1.31-0.698-1.507-1.789c-0.106-0.467,0.012-1.224,0.356-2.274c0.336-0.97,0.847-2.13,1.535-3.481
			c0.255-0.569,1.393-2.681,3.413-6.333l5.146-9.475l6.296-11.507l5.423-9.316C453.384,25.552,453.316,25.261,452.945,25.089z"/>
	</g>
	<g>
		<path fill="#FCF3F0" d="M32.502,101.126c0.1-3.912,2.813-10.455,8.143-19.626c4.221-7.161,8.312-13.266,12.273-18.317
			c0.138-0.207,0.587-0.771,1.347-1.692l1.626-2.126c0.36-0.458,0.874-1.076,1.541-1.854c0.665-0.776,1.279-1.421,1.841-1.934
			c0.56-0.513,1.094-0.963,1.603-1.355c1.722-1.186,3.146-1.384,4.272-0.595c1.199,0.824,2.001,2.84,2.405,6.046
			c0.535,4.54-0.126,10.011-1.988,16.414c-1.862,6.405-4.363,11.551-7.499,15.439c-1.207,1.467-2.756,2.768-4.648,3.906
			c-1.895,1.139-3.839,1.935-5.835,2.39c-2.116,0.463-4.031,0.431-5.748-0.101c-1.719-0.53-2.953-1.678-3.702-3.44
			c-0.156-0.383-0.026-0.688,0.388-0.914s0.697-0.146,0.853,0.236c0.626,1.455,1.665,2.419,3.116,2.89
			c1.45,0.47,3.136,0.481,5.054,0.031c1.796-0.401,3.567-1.128,5.315-2.178c1.747-1.049,3.158-2.243,4.234-3.581
			c3.001-3.721,5.416-8.684,7.236-14.888c1.821-6.203,2.455-11.494,1.902-15.875c-0.324-2.857-0.978-4.608-1.963-5.25
			c-0.653-0.466-1.588-0.282-2.806,0.552c-0.462,0.309-0.95,0.708-1.469,1.197c-0.52,0.49-1.071,1.091-1.651,1.802l-1.465,1.7
			l-1.627,2.127c-0.72,0.918-1.169,1.482-1.347,1.691c-3.916,5.009-7.965,11.072-12.143,18.189
			c-5.226,8.929-7.875,15.229-7.949,18.903c-0.008,0.436-0.229,0.688-0.665,0.758C32.709,101.742,32.495,101.561,32.502,101.126z"/>
		<path fill="#FCF3F0" d="M105.606,65.83c-0.04,0.003-0.06,0.025-0.064,0.064l-4.97,9.462l-5.937,11.423
			c-0.043,0.043-0.067,0.085-0.071,0.124l-6.787,12.843l-0.079,0.184l-0.063,0.064c-0.044,0.042-0.068,0.082-0.072,0.123
			c-0.131,0.127-0.296,0.218-0.496,0.271c-0.643,0.163-0.949-0.072-0.92-0.706c0.004-0.04,0.03-0.101,0.077-0.183l0.013-0.119
			l0.065-0.063c0.047-0.083,0.17-0.328,0.369-0.736l2.128-4.113l11.224-21.678l1.732-3.139c0.769-1.396,1.328-2.44,1.675-3.136
			c0.09-0.124,0.328-0.535,0.713-1.233l0.006-0.06l1.973-3.749l0.143-0.246l0.072-0.125c-0.044,0.044-0.068,0.086-0.072,0.125
			l0.072-0.125l0.013-0.118l0.065-0.065c0.155-0.365,0.235-0.567,0.239-0.608c0.397-0.817,0.73-1.57,0.998-2.259
			c0.702-1.863,0.982-3.225,0.838-4.084c-0.076-0.388-0.244-0.652-0.501-0.792c-0.299-0.136-0.784-0.142-1.46-0.016
			c-1.635,0.351-3.249,1.056-4.84,2.113c-1.592,1.059-3.375,2.446-5.35,4.163c-5.532,4.806-10.635,10.529-15.309,17.167
			c2.61,1.87,6.12,4.07,10.531,6.604c0.441,0.245,0.5,0.615,0.175,1.112c-0.325,0.496-0.708,0.621-1.15,0.376
			c-4.41-2.532-7.941-4.73-10.589-6.599c-1.652,2.365-3.237,4.823-4.751,7.375c-1.62,2.797-3.212,6.084-4.778,9.862
			c-0.954,2.396-1.536,4.23-1.748,5.51c-0.106,0.638-0.098,1.109,0.026,1.418c0.025,0.116,0.118,0.168,0.275,0.157
			c0.549-0.038,0.796,0.221,0.737,0.778c-0.059,0.556-0.364,0.854-0.913,0.892c-0.824,0.058-1.395-0.277-1.707-1.005
			c-0.177-0.54-0.197-1.269-0.062-2.186c0.229-1.437,0.867-3.435,1.917-5.993c1.622-3.939,3.26-7.291,4.914-10.05
			c1.567-2.674,3.181-5.232,4.841-7.677c-2.383-1.807-4.104-3.422-5.162-4.848c-0.308-0.413-0.227-0.813,0.244-1.202
			c0.469-0.388,0.857-0.375,1.165,0.038c0.953,1.314,2.549,2.821,4.787,4.518c4.761-6.725,9.972-12.553,15.635-17.487
			c1.286-1.114,2.397-2.04,3.332-2.776c0.934-0.736,2.125-1.501,3.573-2.292c1.447-0.792,2.829-1.331,4.146-1.622
			c1.037-0.229,1.87-0.18,2.499,0.151c0.627,0.331,1.015,0.906,1.162,1.724c0.192,1.131-0.117,2.79-0.932,4.978l-1.321,3.111
			c-0.096,0.164-0.145,0.266-0.149,0.305L105.606,65.83z"/>
		<path fill="#FCF3F0" d="M147.782,48.913c-3.146-1.594-5.596-1.639-7.352-0.136c-1.534,1.251-2.707,3.681-3.514,7.289
			c-0.529,2.444-0.95,5.888-1.26,10.327c-0.317,4.48-0.579,7.163-0.789,8.044c-1.167,5.172-2.981,9.463-5.444,12.87
			c-1.513,2.157-3.311,3.871-5.393,5.141c-2.082,1.271-4.162,1.958-6.239,2.064c-2.12,0.148-3.975-0.374-5.563-1.564
			c-1.595-1.151-2.695-2.928-3.3-5.332c-0.109-0.427,0.047-0.723,0.474-0.892c0.428-0.168,0.68-0.057,0.755,0.331
			c0.55,2.173,1.533,3.77,2.946,4.795c1.411,1.027,3.041,1.475,4.886,1.346c1.8-0.088,3.64-0.698,5.513-1.835
			c1.873-1.139,3.518-2.702,4.936-4.696c2.289-3.236,4.004-7.322,5.147-12.255c0.201-0.804,0.456-3.426,0.769-7.867
			c0.318-4.519,0.765-8.021,1.338-10.508c0.845-3.966,2.165-6.702,3.961-8.208c2.308-1.937,5.256-1.984,8.843-0.146
			c0.367,0.212,0.423,0.514,0.167,0.906C148.408,48.979,148.115,49.089,147.782,48.913z"/>
		<path fill="#FCF3F0" d="M179.238,68.908c-4.005,6.948-7.069,13.85-9.192,20.706c-0.164,0.445-0.447,0.633-0.848,0.562
			c-0.403-0.07-0.544-0.308-0.423-0.711c2.222-7.059,5.382-14.126,9.477-21.198c-1.677-1.105-3.072-2.114-4.184-3.022
			c-0.285-0.255-0.282-0.562,0.009-0.918c0.291-0.355,0.6-0.427,0.929-0.213c1.073,0.911,2.393,1.884,3.96,2.919
			c3.217-5.394,6.909-10.662,11.075-15.807c1.027-1.255,1.784-2.156,2.271-2.704c0.533-0.63,1.303-1.472,2.311-2.529
			c1.008-1.056,1.997-1.946,2.97-2.664c0.971-0.718,1.949-1.31,2.935-1.774c1.026-0.505,1.875-0.604,2.544-0.296
			c0.594,0.274,0.981,0.858,1.161,1.753c0.29,1.322,0.094,3.368-0.587,6.138c-0.274,1.124-0.618,2.352-1.031,3.681
			c-0.413,1.332-0.782,2.443-1.11,3.334l-0.995,2.792c-0.375,0.973-0.564,1.48-0.568,1.519c-0.16,0.407-0.44,0.573-0.843,0.503
			c-0.402-0.07-0.541-0.327-0.417-0.77c0.043-0.042,0.234-0.549,0.57-1.521l0.995-2.792c0.323-0.851,0.69-1.933,1.101-3.243
			c0.41-1.311,0.75-2.509,1.02-3.593c0.621-2.568,0.815-4.417,0.583-5.545c-0.099-0.546-0.297-0.887-0.593-1.024
			c-0.293-0.176-0.789-0.102-1.485,0.222c-0.902,0.418-1.788,0.964-2.656,1.636c-0.871,0.674-1.775,1.495-2.715,2.468
			c-0.942,0.974-1.7,1.797-2.277,2.468l-2.213,2.7c-4.158,5.065-7.844,10.294-11.062,15.688l1.261,0.799
			c2.954,1.925,5.062,3.376,6.324,4.353c0.284,0.257,0.281,0.562-0.009,0.918s-0.6,0.427-0.929,0.213
			c-1.221-0.979-3.313-2.41-6.271-4.297L179.238,68.908z"/>
		<path fill="#FCF3F0" d="M236.789,55.888c0.429-0.741,0.744-1.333,0.947-1.782l0.883-1.719c0.384-0.697,0.672-1.308,0.865-1.836
			c0.192-0.525,0.38-1.11,0.564-1.755c0.185-0.643,0.308-1.264,0.371-1.86c0.062-0.597,0.042-1.148-0.06-1.654
			c-0.146-1.212-0.701-1.864-1.666-1.955c-0.921-0.132-2.162,0.172-3.72,0.912c-1.316,0.645-2.647,1.448-3.995,2.41
			c-1.349,0.962-2.368,1.763-3.059,2.404c-5.266,4.866-10.179,10.634-14.74,17.306l2.321,0.726c4.235,1.242,7.081,2.168,8.537,2.776
			c0.372,0.173,0.439,0.463,0.2,0.874c-0.238,0.412-0.543,0.531-0.914,0.359c-1.382-0.573-4.17-1.484-8.366-2.729l-2.603-0.823
			c-3.051,4.554-5.429,8.823-7.134,12.81c-1.877,4.51-2.222,7.414-1.033,8.713c0.556,0.631,1.489,0.842,2.798,0.632
			c1.508-0.263,3.419-1.028,5.737-2.294c2.067-1.133,4.63-2.711,7.689-4.74c3.689-2.468,8.151-5.799,13.387-9.992
			c0.377-0.263,0.676-0.234,0.896,0.086c0.22,0.32,0.158,0.631-0.185,0.93c-5.192,4.151-9.693,7.484-13.504,10.001
			c-3.186,2.115-5.792,3.738-7.82,4.866c-2.482,1.357-4.555,2.173-6.221,2.448c-1.704,0.276-2.978-0.029-3.821-0.917
			c-1.539-1.669-1.227-5.005,0.937-10.009c1.712-4.065,4.074-8.373,7.086-12.925c-1.727-0.627-3.256-1.271-4.591-1.928
			c-0.368-0.21-0.424-0.512-0.167-0.906c0.254-0.391,0.55-0.5,0.882-0.327c1.33,0.696,2.897,1.356,4.703,1.979
			c4.654-6.836,9.682-12.77,15.084-17.804c0.778-0.725,1.882-1.591,3.313-2.6c1.431-1.006,2.824-1.833,4.178-2.481
			c1.842-0.839,3.341-1.201,4.499-1.084c1.503,0.172,2.377,1.116,2.625,2.835c0.089,0.626,0.1,1.275,0.029,1.95
			c-0.071,0.677-0.213,1.376-0.426,2.102c-0.214,0.726-0.417,1.372-0.612,1.937c-0.197,0.566-0.513,1.26-0.95,2.079l-0.882,1.72
			c-0.199,0.407-0.515,1.002-0.947,1.782c-0.239,0.412-0.543,0.531-0.914,0.36C236.617,56.591,236.55,56.3,236.789,55.888z"/>
		<path fill="#FCF3F0" d="M279.412,39.709c-3.145-1.594-5.596-1.64-7.351-0.137c-1.534,1.251-2.707,3.681-3.515,7.289
			c-0.529,2.444-0.95,5.888-1.261,10.328c-0.316,4.48-0.577,7.162-0.787,8.044c-1.167,5.172-2.982,9.462-5.444,12.869
			c-1.514,2.158-3.312,3.872-5.394,5.141c-2.082,1.271-4.162,1.959-6.239,2.064c-2.119,0.148-3.975-0.373-5.564-1.563
			c-1.594-1.151-2.693-2.929-3.298-5.333c-0.11-0.427,0.047-0.723,0.474-0.891c0.428-0.169,0.679-0.058,0.755,0.331
			c0.55,2.173,1.533,3.77,2.945,4.795c1.412,1.026,3.04,1.474,4.887,1.345c1.801-0.087,3.64-0.697,5.512-1.834
			c1.874-1.139,3.519-2.703,4.938-4.696c2.288-3.237,4.004-7.322,5.146-12.255c0.202-0.805,0.457-3.426,0.77-7.867
			c0.318-4.52,0.766-8.022,1.339-10.509c0.845-3.966,2.165-6.702,3.961-8.208c2.308-1.937,5.256-1.984,8.843-0.146
			c0.367,0.212,0.424,0.515,0.168,0.906C280.039,39.774,279.746,39.884,279.412,39.709z"/>
		<path fill="#FCF3F0" d="M290.231,41.912c1.122-0.67,2.998-1.275,5.627-1.815c2.15-0.424,4.821-0.81,8.014-1.152l0.766-0.053
			l1.922-3.271c0.238-0.411,0.544-0.531,0.916-0.36c0.37,0.171,0.438,0.463,0.199,0.874l-1.559,2.595
			c1.457-0.141,5.366-0.434,11.727-0.878c0.432-0.03,0.626,0.172,0.58,0.61s-0.286,0.67-0.718,0.701
			c-6.596,0.461-10.721,0.77-12.374,0.925c-8.019,13.621-15.48,27.696-22.387,42.224c-0.199,0.408-0.486,0.547-0.862,0.416
			c-0.376-0.132-0.464-0.402-0.266-0.812c6.807-14.324,14.151-28.213,22.036-41.667l-0.06,0.004
			c-3.114,0.337-5.746,0.719-7.896,1.145c-2.468,0.489-4.201,1.044-5.203,1.667c-0.375,0.224-0.649,0.154-0.825-0.209
			C289.692,42.492,289.813,42.178,290.231,41.912z"/>
		<path fill="#FCF3F0" d="M345.898,33.462c-7.99,13.343-16.232,28.734-24.73,46.176c-0.2,0.408-0.486,0.547-0.862,0.416
			c-0.376-0.132-0.465-0.402-0.265-0.812c7.609-16.037,15.855-31.47,24.742-46.294c0.237-0.411,0.543-0.531,0.915-0.36
			C346.068,32.76,346.136,33.052,345.898,33.462z"/>
		<path fill="#FCF3F0" d="M351.545,45.377c-0.564,1.658-0.981,3.955-1.25,6.895c-0.396,4.131-0.646,6.496-0.746,7.095
			c-0.49,2.796-0.934,5.904-1.332,9.326c-0.423,3.661-0.359,6.2,0.193,7.621c0.255,0.535,0.552,0.869,0.889,1.003
			c0.298,0.137,0.69,0.109,1.179-0.082c1.097-0.432,2.442-1.551,4.035-3.36c1.546-1.726,3.15-3.83,4.815-6.314
			c1.807-2.73,6.231-9.787,13.273-21.169l2.339-3.892l2.677-4.331c0.613-1.028,1.437-2.27,2.467-3.723
			c1.029-1.453,2.052-2.748,3.068-3.884c0.308-0.336,0.604-0.377,0.89-0.123c0.285,0.257,0.273,0.554-0.035,0.891
			c-0.934,1.092-1.904,2.353-2.911,3.785c-1.008,1.431-1.841,2.665-2.494,3.696l-2.546,4.202l-2.338,3.893
			c-7.087,11.425-11.556,18.525-13.406,21.296c-1.711,2.566-3.342,4.732-4.892,6.498c-1.807,1.98-3.36,3.232-4.663,3.759
			c-0.815,0.332-1.52,0.362-2.113,0.088c-0.64-0.231-1.11-0.751-1.415-1.559c-0.648-1.611-0.751-4.347-0.307-8.204
			c0.402-3.461,0.85-6.609,1.344-9.446c0.098-0.559,0.342-2.884,0.733-6.975c0.277-3.018,0.702-5.396,1.274-7.133
			c0.164-0.446,0.447-0.632,0.85-0.562C351.523,44.738,351.664,44.976,351.545,45.377z"/>
		<path fill="#FCF3F0" d="M420.933,43.781c-0.04,0.003-0.062,0.024-0.065,0.064l-4.97,9.462l-5.937,11.422
			c-0.044,0.043-0.067,0.085-0.071,0.124l-6.786,12.844l-0.079,0.183l-0.064,0.064c-0.044,0.042-0.068,0.082-0.072,0.123
			c-0.13,0.128-0.295,0.218-0.496,0.271c-0.642,0.163-0.948-0.072-0.919-0.705c0.004-0.04,0.029-0.102,0.077-0.184l0.013-0.119
			l0.065-0.063c0.047-0.083,0.169-0.328,0.369-0.736l2.128-4.113l11.223-21.677l1.734-3.139c0.769-1.396,1.327-2.441,1.674-3.136
			c0.091-0.125,0.328-0.536,0.714-1.234l0.007-0.06l1.973-3.749l0.142-0.246l0.072-0.125c-0.045,0.044-0.068,0.085-0.072,0.125
			l0.072-0.125l0.012-0.118l0.065-0.064c0.155-0.366,0.236-0.567,0.24-0.608c0.397-0.817,0.729-1.57,0.997-2.26
			c0.702-1.863,0.982-3.225,0.839-4.083c-0.076-0.388-0.244-0.653-0.502-0.793c-0.298-0.136-0.784-0.142-1.459-0.016
			c-1.636,0.351-3.249,1.056-4.841,2.113c-1.594,1.059-3.377,2.446-5.35,4.163c-5.532,4.806-10.636,10.529-15.309,17.168
			c2.609,1.87,6.119,4.07,10.531,6.603c0.44,0.245,0.499,0.615,0.175,1.112c-0.325,0.497-0.708,0.621-1.15,0.376
			c-4.41-2.532-7.941-4.731-10.59-6.599c-1.651,2.365-3.236,4.823-4.751,7.376c-1.619,2.796-3.211,6.083-4.777,9.862
			c-0.954,2.395-1.537,4.229-1.748,5.509c-0.106,0.638-0.1,1.11,0.025,1.418c0.026,0.116,0.119,0.168,0.275,0.157
			c0.55-0.038,0.796,0.221,0.737,0.778c-0.059,0.556-0.363,0.854-0.913,0.892c-0.824,0.058-1.394-0.277-1.706-1.005
			c-0.177-0.54-0.197-1.269-0.062-2.186c0.229-1.437,0.865-3.435,1.915-5.993c1.622-3.939,3.261-7.291,4.915-10.05
			c1.566-2.674,3.18-5.232,4.841-7.677c-2.383-1.806-4.104-3.422-5.161-4.848c-0.308-0.413-0.228-0.813,0.243-1.202
			c0.469-0.388,0.856-0.375,1.165,0.038c0.952,1.315,2.548,2.821,4.786,4.518c4.761-6.725,9.973-12.553,15.637-17.487
			c1.286-1.115,2.396-2.041,3.331-2.777s2.126-1.501,3.574-2.292c1.446-0.791,2.829-1.331,4.146-1.622
			c1.037-0.229,1.869-0.18,2.498,0.151c0.628,0.332,1.015,0.906,1.163,1.724c0.192,1.131-0.118,2.791-0.933,4.978l-1.321,3.111
			c-0.095,0.165-0.145,0.266-0.148,0.305L420.933,43.781z"/>
		<path fill="#FCF3F0" d="M453.088,25.967l-5.422,9.317l-6.296,11.507l-5.147,9.474c-2.021,3.654-3.158,5.765-3.413,6.335
			c-0.688,1.35-1.199,2.51-1.535,3.48c-0.344,1.051-0.463,1.808-0.355,2.274c0.196,1.091,0.699,1.688,1.507,1.788
			c0.769,0.104,1.91-0.192,3.427-0.891c1.109-0.551,2.686-1.451,4.727-2.697c2.754-1.732,4.442-2.776,5.064-3.137
			c0.412-0.225,0.698-0.146,0.853,0.237s0.024,0.688-0.389,0.915c-0.21,0.132-1.875,1.156-4.999,3.071
			c-2.085,1.291-3.722,2.213-4.911,2.77c-1.723,0.831-3.104,1.165-4.139,0.999c-1.35-0.141-2.174-1.01-2.474-2.607
			c-0.125-0.662,0.036-1.639,0.483-2.934c0.345-1.05,0.863-2.29,1.561-3.72c0.441-0.859,1.601-2.991,3.479-6.398l5.142-9.414
			l6.36-11.572l5.363-9.312c0.237-0.411,0.543-0.532,0.915-0.361C453.258,25.265,453.325,25.557,453.088,25.967z"/>
	</g>
</g>
</svg>
