<?xml version="1.0" encoding="utf-8"?>
<!-- Generator: Adobe Illustrator 16.0.0, SVG Export Plug-In . SVG Version: 6.00 Build 0)  -->
<!DOCTYPE svg PUBLIC "-//W3C//DTD SVG 1.1//EN" "http://www.w3.org/Graphics/SVG/1.1/DTD/svg11.dtd">
<svg version="1.1" id="Ebene_1" xmlns="http://www.w3.org/2000/svg" xmlns:xlink="http://www.w3.org/1999/xlink" x="0px" y="0px"
	 width="485px" height="122px" viewBox="0 0 485 122" enable-background="new 0 0 485 122" xml:space="preserve">
<g>
	<polygon fill="#182C3A" points="23.27,34.776 0,123 459.958,88.84 485,1 	"/>
	<g>
		<defs>
			<rect id="SVGID_1_" y="1" width="485" height="122"/>
		</defs>
		<clipPath id="SVGID_2_">
			<use xlink:href="#SVGID_1_"  overflow="visible"/>
		</clipPath>
		<path clip-path="url(#SVGID_2_)" fill="none" stroke="#FDF4F1" stroke-width="1.552" stroke-miterlimit="7.483" d="
			M189.698,56.038c0.384,0.053,0.636-0.123,0.757-0.526c0.312-1.126,1.418-2.368,3.313-3.724c1.724-1.186,3.887-2.303,6.492-3.354
			c2.277-0.908,4.374-1.568,6.288-1.978c0.841-0.216,1.514-0.323,2.021-0.319c0.195-0.014,0.351-0.005,0.465,0.026
			c0.045,0.313-0.125,0.818-0.51,1.516c-0.434,0.78-1.06,1.731-1.879,2.853l-1.425,1.876c-0.538,0.669-1.03,1.265-1.475,1.789
			c-0.445,0.525-0.713,0.849-0.804,0.974c-7.515,9.561-13.477,17.336-17.887,23.326c-1.322,1.83-2.214,3.076-2.673,3.738
			c-0.61,0.99-1.068,1.831-1.376,2.522c-0.159,0.406-0.256,0.769-0.289,1.086c-0.046,0.438,0.036,0.768,0.247,0.989
			c0.385,0.407,1.196,0.666,2.433,0.776c0.93,0.054,2.12,0.03,3.573-0.072c2.081-0.145,4.136-0.407,6.163-0.786
			c1.072-0.192,2.169-0.427,3.289-0.703c1.116-0.235,2.384-0.531,3.807-0.888c1.42-0.355,2.51-0.619,3.269-0.791
			c0.362-0.104,0.533-0.342,0.514-0.716c-0.019-0.374-0.228-0.526-0.624-0.46c-0.719,0.169-1.79,0.431-3.21,0.787
			c-1.422,0.355-2.701,0.662-3.839,0.919s-2.204,0.479-3.198,0.668c-1.988,0.376-4.004,0.635-6.045,0.777
			c-1.375,0.097-2.507,0.116-3.396,0.061c-0.965-0.09-1.573-0.246-1.822-0.465l0.02-0.18c0.021-0.197,0.084-0.438,0.192-0.723
			c0.254-0.57,0.686-1.33,1.292-2.28c0.42-0.66,1.268-1.865,2.543-3.611c4.279-5.862,10.241-13.637,17.886-23.325
			c0.091-0.125,0.359-0.459,0.808-1.004l1.477-1.819l1.484-1.88c0.862-1.164,1.513-2.157,1.95-2.977
			c0.588-1.145,0.795-2.009,0.622-2.588c-0.089-0.27-0.283-0.454-0.585-0.551c-0.231-0.023-0.502-0.044-0.812-0.062
			c-0.585,0.002-1.337,0.114-2.257,0.335c-1.993,0.416-4.171,1.121-6.536,2.115c-2.645,1.053-4.891,2.216-6.739,3.489
			c-2.228,1.538-3.534,3.029-3.92,4.476C189.181,55.759,189.312,55.986,189.698,56.038z"/>
		<path clip-path="url(#SVGID_2_)" fill="none" stroke="#FDF4F1" stroke-width="1.552" stroke-miterlimit="7.483" d="
			M229.657,47.976c-4.355,3.619-8.108,7.986-11.257,13.098c-3.149,5.113-5.337,10.355-6.564,15.729
			c-1.073,4.652-0.57,7.655,1.509,9.009c2.148,1.428,5.27,0.48,9.36-2.845c4.348-3.539,8.165-7.969,11.452-13.289
			c3.335-5.4,5.777-10.839,7.328-16.313c0.746-2.657,1.074-4.849,0.983-6.579c-0.122-1.806-0.697-3.009-1.726-3.608
			c-1.024-0.639-2.417-0.561-4.175,0.232c-1.752,0.715-3.764,2.059-6.037,4.033l-0.391,0.382
			C229.947,47.799,229.787,47.849,229.657,47.976z M225.64,53.939l2.762-2.916c1.094-1.141,2.046-2.037,2.855-2.685
			c2.146-1.886,4.017-3.181,5.61-3.884c1.385-0.571,2.445-0.645,3.181-0.223c0.734,0.422,1.144,1.361,1.225,2.815
			c0.111,1.531-0.202,3.585-0.94,6.161c-1.546,5.435-3.917,10.75-7.112,15.945c-3.24,5.238-6.947,9.541-11.121,12.91
			c-3.621,2.937-6.288,3.834-7.999,2.689c-0.767-0.498-1.253-1.43-1.46-2.798c-0.247-1.362-0.126-3.067,0.361-5.114
			c0.972-4.053,2.46-8.023,4.469-11.912c2.05-3.932,4.532-7.539,7.45-10.819C225.178,54.248,225.417,54.191,225.64,53.939z"/>
		<path clip-path="url(#SVGID_2_)" fill="none" stroke="#FDF4F1" stroke-width="1.552" stroke-miterlimit="7.483" d="
			M255.162,51.165c0.202,0.302,0.472,0.322,0.812,0.062c2.318-1.662,4.709-3.644,7.174-5.947c0.82-0.768,1.4-1.282,1.739-1.542
			l-0.284,0.493c-0.403,0.857-1.003,1.925-1.799,3.204l-1.981,3.275c-0.745,1.157-1.218,1.94-1.416,2.348
			c-0.922,1.722-1.875,3.564-2.861,5.527l-2.397,5.02l-2.657,5.81l-2.229,5.067l-2.598,5.804c-1.291,3.012-2.042,4.779-2.253,5.308
			c-0.195,0.368-0.113,0.608,0.246,0.722c0.357,0.113,0.617-0.034,0.776-0.438c0.299-0.613,1.089-2.385,2.371-5.315l2.474-5.736
			l2.287-5.072c1.074-2.442,1.938-4.356,2.592-5.744l2.516-5.029l2.743-5.518c0.147-0.286,0.595-1.028,1.345-2.225l2.04-3.279
			c0.806-1.359,1.43-2.467,1.87-3.327c0.588-1.145,0.872-1.994,0.853-2.545c-0.02-0.196-0.102-0.348-0.245-0.457
			c-0.185-0.105-0.378-0.111-0.582-0.018c-0.122,0.048-0.229,0.134-0.32,0.259l-0.195,0.191l-0.064,0.064
			c-0.593,0.436-1.494,1.229-2.706,2.379c-2.29,2.134-4.637,4.073-7.042,5.819C255.028,50.583,254.96,50.864,255.162,51.165z"/>
		<path clip-path="url(#SVGID_2_)" fill="none" stroke="#FDF4F1" stroke-width="1.552" stroke-miterlimit="7.483" d="
			M267.674,79.526c-0.27,0.335-0.26,0.61,0.03,0.826c1.52,1.118,3.24,1.796,5.165,2.036c1.923,0.24,3.847,0.105,5.771-0.402
			c1.924-0.51,3.822-1.324,5.693-2.441c2.828-1.696,5.258-3.859,7.288-6.487c2.029-2.627,3.293-5.379,3.791-8.254
			c0.62-3.673-0.188-6.379-2.421-8.117c-2.055-1.592-4.869-2.066-8.444-1.422c-0.917,0.183-2.364,0.6-4.341,1.251
			c0.126-0.088,0.231-0.174,0.318-0.259l3.153-3.298l3.712-4.166l3.041-3.35c8.314-0.856,13.256-1.341,14.827-1.451
			c0.392-0.027,0.61-0.239,0.652-0.637c0.041-0.397-0.136-0.582-0.527-0.555c-2.042,0.143-6.629,0.582-13.76,1.317l0.658-0.697
			c0.308-0.337,0.328-0.624,0.061-0.862c-0.267-0.238-0.533-0.209-0.798,0.085l-1.518,1.645c-2.562,0.259-4.804,0.454-6.727,0.589
			c-0.393,0.027-0.61,0.24-0.652,0.637c-0.042,0.398,0.135,0.583,0.527,0.555c1.688-0.118,3.574-0.269,5.66-0.455
			c-4.851,5.351-7.865,8.639-9.047,9.866c-0.087,0.085-0.256,0.215-0.508,0.39c-0.38,0.263-0.591,0.417-0.634,0.459
			c-0.296,0.218-0.515,0.45-0.657,0.697c-0.23,0.332-0.285,0.671-0.165,1.018c0.122,0.307,0.344,0.43,0.661,0.367
			c0.118-0.008,0.24-0.055,0.366-0.143c0.043-0.042,0.087-0.085,0.131-0.128l0.06-0.004l0.058-0.004
			c0.366-0.144,0.944-0.352,1.732-0.624c0.789-0.272,1.465-0.497,2.03-0.675c0.563-0.177,1.121-0.305,1.677-0.384
			c3.257-0.582,5.806-0.169,7.645,1.241c1.945,1.522,2.632,3.881,2.063,7.077c-0.478,2.677-1.662,5.245-3.559,7.706
			c-1.896,2.461-4.176,4.494-6.838,6.1c-2.704,1.61-5.371,2.518-8.003,2.721c-2.634,0.205-5.079-0.444-7.338-1.943
			C268.221,79.134,267.942,79.192,267.674,79.526z"/>
	</g>
	<g>
		<path fill="#FDF4F1" d="M189.302,55.355c0.387-1.447,1.691-2.938,3.92-4.476c1.848-1.274,4.094-2.438,6.739-3.49
			c2.364-0.994,4.543-1.698,6.536-2.115c0.919-0.221,1.673-0.333,2.257-0.335c0.31,0.018,0.581,0.039,0.812,0.062
			c0.301,0.097,0.496,0.282,0.584,0.55c0.174,0.581-0.034,1.444-0.623,2.589c-0.437,0.82-1.086,1.812-1.949,2.978l-1.483,1.879
			l-1.478,1.82c-0.447,0.544-0.717,0.878-0.807,1.003c-7.646,9.688-13.607,17.465-17.886,23.326
			c-1.276,1.747-2.123,2.951-2.544,3.611c-0.606,0.95-1.037,1.71-1.291,2.279c-0.108,0.285-0.173,0.526-0.193,0.725l-0.019,0.179
			c0.249,0.22,0.857,0.375,1.822,0.465c0.89,0.056,2.021,0.035,3.396-0.061c2.042-0.143,4.057-0.403,6.046-0.777
			c0.993-0.188,2.061-0.411,3.197-0.669c1.138-0.257,2.417-0.562,3.839-0.919c1.42-0.355,2.491-0.618,3.21-0.786
			c0.396-0.066,0.605,0.085,0.624,0.459c0.02,0.374-0.151,0.613-0.514,0.717c-0.759,0.172-1.85,0.436-3.27,0.791
			c-1.422,0.357-2.69,0.652-3.806,0.889c-1.121,0.275-2.217,0.51-3.289,0.702c-2.028,0.379-4.083,0.641-6.163,0.786
			c-1.453,0.102-2.645,0.126-3.574,0.072c-1.235-0.11-2.046-0.369-2.432-0.776c-0.21-0.222-0.293-0.551-0.247-0.989
			c0.033-0.317,0.13-0.679,0.289-1.086c0.307-0.691,0.766-1.532,1.377-2.522c0.458-0.663,1.349-1.909,2.673-3.738
			c4.409-5.99,10.37-13.765,17.886-23.326c0.091-0.125,0.358-0.448,0.804-0.973c0.443-0.524,0.936-1.121,1.475-1.791l1.425-1.875
			c0.819-1.123,1.445-2.073,1.878-2.854c0.385-0.697,0.555-1.202,0.511-1.515c-0.114-0.032-0.27-0.04-0.466-0.026
			c-0.507-0.003-1.18,0.102-2.021,0.32c-1.914,0.409-4.011,1.069-6.288,1.978c-2.605,1.05-4.77,2.167-6.491,3.354
			c-1.897,1.355-3.002,2.597-3.315,3.724c-0.12,0.402-0.373,0.578-0.756,0.526C189.312,55.986,189.181,55.759,189.302,55.355z"/>
		<path fill="#FDF4F1" d="M230.083,47.828l0.391-0.382c2.271-1.973,4.284-3.317,6.036-4.032c1.758-0.792,3.15-0.871,4.175-0.231
			c1.027,0.599,1.604,1.801,1.726,3.606c0.09,1.731-0.237,3.923-0.983,6.579c-1.551,5.475-3.993,10.913-7.327,16.315
			c-3.288,5.319-7.105,9.749-11.452,13.288c-4.093,3.324-7.213,4.271-9.361,2.845c-2.08-1.354-2.583-4.356-1.509-9.009
			c1.227-5.373,3.415-10.616,6.564-15.729c3.147-5.112,6.9-9.479,11.257-13.098C229.729,47.852,229.89,47.803,230.083,47.828z
			 M224.861,54.111c-2.917,3.282-5.4,6.888-7.451,10.818c-2.007,3.891-3.495,7.86-4.467,11.913
			c-0.489,2.047-0.609,3.752-0.362,5.115c0.207,1.368,0.692,2.3,1.459,2.798c1.712,1.144,4.378,0.248,8-2.689
			c4.174-3.369,7.88-7.673,11.12-12.911c3.196-5.194,5.567-10.508,7.113-15.943c0.738-2.577,1.052-4.631,0.94-6.164
			c-0.082-1.452-0.489-2.392-1.225-2.813c-0.735-0.422-1.797-0.348-3.18,0.222c-1.595,0.704-3.465,1.999-5.612,3.884
			c-0.81,0.649-1.761,1.544-2.854,2.686l-2.762,2.915C225.358,54.195,225.119,54.251,224.861,54.111z"/>
		<path fill="#FDF4F1" d="M255.309,50.325c2.406-1.745,4.752-3.685,7.043-5.818c1.212-1.15,2.113-1.942,2.705-2.379l0.065-0.063
			l0.195-0.192c0.091-0.124,0.198-0.211,0.32-0.258c0.203-0.094,0.397-0.088,0.583,0.018c0.144,0.109,0.225,0.261,0.243,0.457
			c0.02,0.551-0.264,1.4-0.852,2.545c-0.44,0.86-1.065,1.969-1.87,3.327l-2.04,3.28c-0.749,1.197-1.197,1.939-1.345,2.224
			l-2.743,5.52l-2.517,5.029c-0.651,1.387-1.516,3.302-2.592,5.744l-2.285,5.072l-2.476,5.736c-1.282,2.931-2.072,4.703-2.37,5.315
			c-0.16,0.405-0.419,0.552-0.777,0.438s-0.44-0.354-0.245-0.722c0.21-0.529,0.962-2.296,2.253-5.308l2.598-5.804l2.229-5.069
			l2.657-5.808l2.397-5.021c0.985-1.962,1.939-3.805,2.86-5.527c0.199-0.407,0.671-1.19,1.417-2.347l1.98-3.275
			c0.798-1.278,1.396-2.348,1.8-3.204l0.284-0.494c-0.339,0.261-0.92,0.775-1.74,1.542c-2.463,2.303-4.855,4.285-7.172,5.947
			c-0.341,0.26-0.611,0.24-0.812-0.062C254.901,50.867,254.969,50.586,255.309,50.325z"/>
		<path fill="#FDF4F1" d="M268.394,79.357c2.258,1.5,4.703,2.147,7.337,1.942c2.631-0.203,5.301-1.109,8.002-2.719
			c2.664-1.607,4.944-3.64,6.839-6.101c1.896-2.46,3.081-5.028,3.559-7.706c0.569-3.195-0.118-5.555-2.063-7.076
			c-1.84-1.411-4.389-1.824-7.646-1.241c-0.554,0.079-1.113,0.207-1.677,0.383c-0.564,0.179-1.24,0.405-2.03,0.675
			c-0.788,0.272-1.364,0.48-1.73,0.624l-0.059,0.004l-0.06,0.004c-0.043,0.043-0.088,0.086-0.131,0.128
			c-0.126,0.087-0.248,0.135-0.365,0.143c-0.319,0.063-0.54-0.06-0.663-0.368c-0.12-0.347-0.065-0.686,0.165-1.018
			c0.143-0.246,0.362-0.478,0.658-0.696c0.043-0.043,0.255-0.195,0.634-0.459c0.251-0.175,0.421-0.305,0.508-0.391
			c1.182-1.227,4.196-4.515,9.046-9.865c-2.085,0.185-3.973,0.336-5.659,0.454c-0.393,0.028-0.569-0.157-0.527-0.554
			c0.042-0.396,0.26-0.61,0.652-0.638c1.923-0.134,4.165-0.33,6.727-0.587l1.518-1.646c0.265-0.294,0.531-0.323,0.798-0.085
			c0.268,0.238,0.247,0.526-0.062,0.862l-0.658,0.696c7.132-0.735,11.72-1.174,13.762-1.317c0.392-0.027,0.567,0.158,0.526,0.556
			c-0.042,0.396-0.26,0.609-0.651,0.637c-1.572,0.11-6.515,0.595-14.828,1.451l-3.041,3.35l-3.712,4.166l-3.152,3.298
			c-0.088,0.086-0.194,0.172-0.32,0.259c1.978-0.651,3.426-1.068,4.341-1.25c3.576-0.644,6.391-0.17,8.444,1.422
			c2.234,1.737,3.041,4.443,2.422,8.116c-0.498,2.876-1.761,5.628-3.791,8.256c-2.029,2.628-4.46,4.789-7.288,6.487
			c-1.872,1.117-3.769,1.931-5.694,2.439c-1.925,0.51-3.849,0.645-5.771,0.403c-1.924-0.239-3.646-0.918-5.165-2.035
			c-0.289-0.217-0.298-0.492-0.029-0.827C267.824,79.2,268.103,79.141,268.394,79.357z"/>
	</g>
</g>
</svg>
