<?xml version="1.0" encoding="utf-8"?>
<!-- Generator: Adobe Illustrator 16.0.0, SVG Export Plug-In . SVG Version: 6.00 Build 0)  -->
<!DOCTYPE svg PUBLIC "-//W3C//DTD SVG 1.1//EN" "http://www.w3.org/Graphics/SVG/1.1/DTD/svg11.dtd">
<svg version="1.1" id="Ebene_1" xmlns="http://www.w3.org/2000/svg" xmlns:xlink="http://www.w3.org/1999/xlink" x="0px" y="0px"
	 width="485px" height="122px" viewBox="0 0 485 122" enable-background="new 0 0 485 122" xml:space="preserve">
<polygon fill="#FCF3F0" points="23.27,33.776 0,122 459.958,87.84 485,0 "/>
<g>
	<defs>
		<rect id="SVGID_1_" width="485" height="122"/>
	</defs>
	<clipPath id="SVGID_2_">
		<use xlink:href="#SVGID_1_"  overflow="visible"/>
	</clipPath>
	<path clip-path="url(#SVGID_2_)" fill="none" stroke="#182C3A" stroke-width="1.552" stroke-miterlimit="7.483" d="M33.145,101.674
		c0.436-0.07,0.657-0.322,0.664-0.758c0.074-3.674,2.724-9.975,7.95-18.902c4.178-7.117,8.226-13.182,12.143-18.19
		c0.177-0.209,0.627-0.772,1.347-1.691l1.627-2.126l1.465-1.7c0.581-0.711,1.132-1.312,1.651-1.803
		c0.519-0.489,1.008-0.888,1.47-1.197c1.218-0.834,2.154-1.018,2.806-0.552c0.985,0.642,1.639,2.392,1.962,5.249
		c0.553,4.381-0.081,9.673-1.902,15.876c-1.822,6.203-4.234,11.167-7.236,14.888c-1.076,1.338-2.488,2.532-4.235,3.581
		c-1.747,1.049-3.519,1.774-5.315,2.176c-1.918,0.451-3.603,0.44-5.054-0.031c-1.451-0.47-2.49-1.433-3.116-2.889
		c-0.155-0.383-0.439-0.462-0.852-0.237c-0.414,0.228-0.544,0.532-0.389,0.915c0.75,1.764,1.984,2.91,3.702,3.441
		c1.717,0.531,3.633,0.563,5.748,0.101c1.996-0.456,3.941-1.252,5.834-2.391c1.893-1.138,3.443-2.44,4.65-3.906
		c3.136-3.888,5.635-9.035,7.498-15.438c1.861-6.404,2.524-11.875,1.988-16.416c-0.404-3.207-1.205-5.222-2.405-6.046
		c-1.125-0.789-2.549-0.591-4.271,0.594c-0.509,0.391-1.044,0.843-1.604,1.355c-0.561,0.513-1.174,1.158-1.841,1.934
		c-0.666,0.777-1.179,1.395-1.539,1.854l-1.627,2.126c-0.76,0.921-1.208,1.485-1.347,1.692c-3.961,5.051-8.052,11.157-12.273,18.316
		c-5.33,9.173-8.043,15.715-8.143,19.628C32.495,101.561,32.709,101.742,33.145,101.674z"/>
	<path clip-path="url(#SVGID_2_)" fill="none" stroke="#182C3A" stroke-width="1.552" stroke-miterlimit="7.483" d="M107.728,61.776
		c0.004-0.039,0.053-0.143,0.149-0.307l1.321-3.11c0.815-2.188,1.125-3.846,0.932-4.978c-0.147-0.818-0.536-1.392-1.163-1.723
		c-0.629-0.331-1.461-0.381-2.498-0.151c-1.317,0.29-2.699,0.83-4.146,1.621c-1.448,0.792-2.639,1.556-3.573,2.292
		c-0.936,0.737-2.046,1.663-3.332,2.778c-5.664,4.934-10.876,10.763-15.636,17.487c-2.238-1.697-3.834-3.203-4.787-4.519
		c-0.307-0.412-0.696-0.425-1.165-0.037c-0.47,0.389-0.551,0.789-0.243,1.201c1.058,1.426,2.779,3.041,5.161,4.847
		c-1.66,2.445-3.273,5.004-4.841,7.678c-1.654,2.76-3.293,6.109-4.914,10.05c-1.05,2.559-1.687,4.557-1.917,5.994
		c-0.134,0.916-0.114,1.644,0.063,2.185c0.313,0.728,0.882,1.063,1.707,1.005c0.549-0.038,0.854-0.336,0.912-0.892
		c0.059-0.557-0.187-0.816-0.737-0.777c-0.157,0.012-0.249-0.042-0.275-0.159c-0.124-0.307-0.133-0.779-0.027-1.418
		c0.212-1.277,0.795-3.113,1.748-5.508c1.567-3.778,3.159-7.065,4.779-9.862c1.515-2.553,3.099-5.012,4.75-7.375
		c2.649,1.866,6.179,4.065,10.59,6.598c0.442,0.246,0.825,0.12,1.151-0.376c0.324-0.496,0.266-0.867-0.176-1.112
		c-4.411-2.533-7.921-4.732-10.531-6.603c4.674-6.64,9.777-12.362,15.31-17.168c1.972-1.716,3.755-3.104,5.348-4.162
		c1.592-1.058,3.205-1.763,4.841-2.114c0.675-0.126,1.162-0.12,1.46,0.016c0.257,0.14,0.425,0.405,0.501,0.794
		c0.144,0.858-0.136,2.219-0.838,4.083c-0.268,0.69-0.601,1.443-0.998,2.259c-0.004,0.04-0.084,0.243-0.239,0.609l-0.065,0.064
		l-0.013,0.119l-0.071,0.123c0.004-0.039,0.027-0.08,0.071-0.123l-0.071,0.123l-0.143,0.247l-1.973,3.748l-0.006,0.06
		c-0.386,0.698-0.623,1.109-0.714,1.233c-0.346,0.695-0.905,1.74-1.674,3.136l-1.734,3.139L88.799,94.467l-2.128,4.114
		c-0.199,0.408-0.322,0.654-0.369,0.736l-0.065,0.063L86.224,99.5c-0.048,0.082-0.073,0.144-0.078,0.184
		c-0.028,0.633,0.279,0.868,0.92,0.705c0.2-0.054,0.366-0.144,0.496-0.271c0.005-0.04,0.028-0.081,0.072-0.123l0.065-0.063
		l0.078-0.184l6.787-12.844c0.004-0.039,0.027-0.081,0.071-0.124l5.936-11.423l4.97-9.462c0.004-0.039,0.026-0.062,0.065-0.063
		L107.728,61.776z"/>
	<path clip-path="url(#SVGID_2_)" fill="none" stroke="#182C3A" stroke-width="1.552" stroke-miterlimit="7.483" d="M148.664,48.586
		c0.255-0.392,0.199-0.695-0.168-0.906c-3.587-1.84-6.535-1.792-8.843,0.145c-1.795,1.507-3.116,4.243-3.961,8.208
		c-0.574,2.487-1.02,5.99-1.339,10.51c-0.311,4.441-0.567,7.063-0.768,7.866c-1.142,4.933-2.858,9.018-5.147,12.256
		c-1.418,1.993-3.063,3.558-4.937,4.695c-1.873,1.137-3.711,1.749-5.513,1.836c-1.846,0.129-3.474-0.32-4.886-1.346
		s-2.394-2.624-2.945-4.795c-0.077-0.389-0.328-0.5-0.755-0.332c-0.427,0.168-0.584,0.466-0.473,0.892
		c0.605,2.403,1.703,4.182,3.298,5.333c1.589,1.189,3.444,1.712,5.565,1.563c2.076-0.106,4.155-0.794,6.238-2.063
		c2.082-1.271,3.88-2.984,5.393-5.143c2.463-3.406,4.278-7.696,5.445-12.867c0.21-0.883,0.471-3.564,0.787-8.046
		c0.311-4.439,0.731-7.883,1.261-10.327c0.808-3.608,1.979-6.037,3.514-7.289c1.756-1.503,4.206-1.457,7.352,0.137
		C148.114,49.089,148.408,48.979,148.664,48.586z"/>
	<path clip-path="url(#SVGID_2_)" fill="none" stroke="#182C3A" stroke-width="1.552" stroke-miterlimit="7.483" d="M180.327,69.661
		c2.959,1.885,5.049,3.315,6.272,4.296c0.328,0.214,0.637,0.143,0.928-0.213s0.294-0.661,0.009-0.918
		c-1.262-0.978-3.37-2.428-6.324-4.352l-1.261-0.8c3.217-5.393,6.904-10.623,11.062-15.688l2.213-2.7
		c0.576-0.671,1.335-1.493,2.276-2.467c0.94-0.973,1.845-1.795,2.715-2.468c0.869-0.672,1.755-1.218,2.656-1.636
		c0.697-0.324,1.191-0.399,1.485-0.222c0.297,0.137,0.495,0.478,0.594,1.023c0.232,1.129,0.038,2.977-0.582,5.545
		c-0.271,1.085-0.611,2.283-1.021,3.593c-0.411,1.312-0.778,2.392-1.101,3.244l-0.995,2.792c-0.336,0.97-0.526,1.477-0.569,1.519
		c-0.125,0.443,0.014,0.7,0.416,0.77c0.402,0.071,0.682-0.097,0.842-0.503c0.004-0.039,0.194-0.546,0.569-1.519l0.995-2.792
		c0.327-0.891,0.697-2.002,1.11-3.333c0.412-1.331,0.756-2.558,1.03-3.682c0.681-2.77,0.877-4.816,0.587-6.137
		c-0.179-0.895-0.566-1.479-1.16-1.754c-0.67-0.308-1.518-0.209-2.545,0.296c-0.985,0.464-1.963,1.055-2.935,1.774
		c-0.972,0.719-1.962,1.607-2.969,2.664c-1.008,1.057-1.778,1.9-2.312,2.529c-0.487,0.547-1.244,1.448-2.272,2.704
		c-4.165,5.144-7.857,10.413-11.074,15.807c-1.567-1.035-2.887-2.008-3.961-2.919c-0.328-0.214-0.638-0.143-0.928,0.213
		c-0.292,0.355-0.295,0.662-0.009,0.918c1.112,0.909,2.507,1.916,4.184,3.021c-4.096,7.073-7.255,14.141-9.478,21.2
		c-0.121,0.402,0.021,0.639,0.423,0.71c0.401,0.07,0.684-0.117,0.848-0.562c2.124-6.856,5.188-13.759,9.192-20.706L180.327,69.661z"
		/>
	<path clip-path="url(#SVGID_2_)" fill="none" stroke="#182C3A" stroke-width="1.552" stroke-miterlimit="7.483" d="M236.988,56.762
		c0.371,0.172,0.676,0.052,0.915-0.36c0.432-0.779,0.748-1.374,0.947-1.782l0.882-1.719c0.437-0.82,0.753-1.512,0.95-2.079
		c0.195-0.566,0.399-1.212,0.612-1.937s0.355-1.425,0.426-2.101c0.071-0.675,0.061-1.326-0.029-1.951
		c-0.249-1.718-1.123-2.663-2.625-2.835c-1.157-0.116-2.657,0.245-4.499,1.084c-1.354,0.648-2.747,1.475-4.178,2.482
		c-1.431,1.008-2.535,1.874-3.313,2.599c-5.402,5.034-10.429,10.968-15.084,17.804c-1.805-0.623-3.373-1.282-4.703-1.979
		c-0.332-0.175-0.627-0.065-0.882,0.327c-0.256,0.394-0.2,0.694,0.168,0.905c1.334,0.657,2.864,1.3,4.591,1.928
		c-3.012,4.553-5.374,8.86-7.088,12.926c-2.163,5.004-2.474,8.34-0.935,10.008c0.843,0.888,2.116,1.193,3.821,0.916
		c1.666-0.274,3.739-1.09,6.221-2.447c2.027-1.128,4.634-2.75,7.819-4.867c3.811-2.515,8.312-5.849,13.504-9.999
		c0.343-0.3,0.405-0.609,0.185-0.931c-0.22-0.319-0.519-0.348-0.897-0.085c-5.235,4.194-9.697,7.524-13.386,9.991
		c-3.059,2.028-5.622,3.608-7.689,4.74c-2.316,1.266-4.228,2.03-5.737,2.295c-1.308,0.21-2.241-0.001-2.798-0.634
		c-1.188-1.298-0.844-4.201,1.033-8.713c1.705-3.985,4.083-8.255,7.134-12.809l2.603,0.824c4.195,1.245,6.983,2.154,8.365,2.729
		c0.371,0.172,0.676,0.052,0.915-0.36c0.238-0.409,0.171-0.7-0.2-0.872c-1.456-0.609-4.302-1.534-8.536-2.777l-2.321-0.726
		c4.56-6.67,9.472-12.439,14.739-17.307c0.69-0.64,1.71-1.441,3.059-2.403c1.348-0.962,2.679-1.765,3.995-2.41
		c1.558-0.74,2.799-1.044,3.72-0.912c0.965,0.091,1.52,0.743,1.666,1.955c0.102,0.506,0.123,1.057,0.06,1.653
		c-0.063,0.597-0.186,1.217-0.371,1.861s-0.373,1.23-0.565,1.756c-0.192,0.526-0.48,1.138-0.865,1.836l-0.882,1.719
		c-0.203,0.449-0.519,1.042-0.947,1.782C236.549,56.3,236.616,56.591,236.988,56.762z"/>
	<path clip-path="url(#SVGID_2_)" fill="none" stroke="#182C3A" stroke-width="1.552" stroke-miterlimit="7.483" d="M280.354,39.377
		c0.255-0.392,0.199-0.695-0.168-0.906c-3.587-1.84-6.535-1.792-8.843,0.145c-1.795,1.507-3.116,4.243-3.961,8.208
		c-0.574,2.487-1.021,5.99-1.339,10.51c-0.312,4.441-0.567,7.063-0.769,7.866c-1.142,4.934-2.858,9.019-5.146,12.256
		c-1.419,1.993-3.063,3.559-4.938,4.695c-1.873,1.137-3.711,1.749-5.513,1.836c-1.847,0.129-3.475-0.32-4.887-1.345
		c-1.411-1.026-2.394-2.624-2.944-4.795c-0.077-0.39-0.328-0.5-0.755-0.332c-0.427,0.168-0.584,0.465-0.473,0.891
		c0.605,2.404,1.703,4.183,3.297,5.333c1.59,1.19,3.444,1.712,5.565,1.564c2.076-0.107,4.155-0.794,6.238-2.064
		c2.082-1.27,3.88-2.983,5.393-5.142c2.463-3.407,4.278-7.697,5.445-12.868c0.21-0.882,0.471-3.564,0.787-8.045
		c0.311-4.44,0.73-7.883,1.261-10.327c0.808-3.608,1.979-6.037,3.514-7.289c1.756-1.503,4.206-1.457,7.353,0.137
		C279.804,39.88,280.098,39.771,280.354,39.377z"/>
	<path clip-path="url(#SVGID_2_)" fill="none" stroke="#182C3A" stroke-width="1.552" stroke-miterlimit="7.483" d="M289.927,42.851
		c0.176,0.363,0.451,0.433,0.826,0.209c1.001-0.622,2.733-1.177,5.203-1.666c2.148-0.426,4.78-0.808,7.896-1.144l0.059-0.004
		c-7.885,13.453-15.229,27.342-22.035,41.667c-0.199,0.408-0.11,0.679,0.266,0.81c0.375,0.131,0.663-0.007,0.862-0.415
		c6.905-14.528,14.367-28.604,22.386-42.225c1.653-0.154,5.778-0.463,12.375-0.924c0.431-0.031,0.67-0.264,0.716-0.702
		c0.046-0.437-0.146-0.64-0.579-0.61c-6.359,0.445-10.27,0.738-11.726,0.879l1.559-2.595c0.237-0.41,0.17-0.702-0.201-0.873
		s-0.677-0.051-0.915,0.359l-1.922,3.272l-0.765,0.053c-3.193,0.342-5.865,0.726-8.014,1.152c-2.629,0.539-4.505,1.144-5.628,1.814
		C289.871,42.174,289.75,42.489,289.927,42.851z"/>
	<path clip-path="url(#SVGID_2_)" fill="none" stroke="#182C3A" stroke-width="1.552" stroke-miterlimit="7.483" d="M345.757,32.584
		c-0.372-0.171-0.678-0.051-0.915,0.36c-8.887,14.825-17.133,30.256-24.743,46.295c-0.199,0.408-0.111,0.679,0.265,0.811
		c0.376,0.131,0.664-0.008,0.863-0.416c8.498-17.441,16.741-32.834,24.73-46.176C346.194,33.048,346.128,32.757,345.757,32.584z"/>
	<path clip-path="url(#SVGID_2_)" fill="none" stroke="#182C3A" stroke-width="1.552" stroke-miterlimit="7.483" d="M351.181,44.664
		c-0.402-0.07-0.686,0.117-0.849,0.562c-0.572,1.737-0.998,4.115-1.275,7.133c-0.393,4.091-0.637,6.416-0.733,6.975
		c-0.494,2.837-0.942,5.985-1.344,9.445c-0.445,3.859-0.342,6.595,0.307,8.206c0.304,0.808,0.776,1.326,1.415,1.559
		c0.594,0.273,1.299,0.243,2.114-0.09c1.302-0.525,2.855-1.777,4.663-3.759c1.549-1.765,3.18-3.93,4.892-6.497
		c1.851-2.771,6.318-9.871,13.405-21.297l2.338-3.892l2.547-4.202c0.653-1.032,1.484-2.264,2.493-3.696
		c1.007-1.432,1.978-2.693,2.911-3.784c0.308-0.337,0.32-0.634,0.035-0.891c-0.285-0.255-0.582-0.215-0.89,0.122
		c-1.017,1.136-2.039,2.431-3.068,3.884c-1.029,1.453-1.853,2.695-2.466,3.723l-2.678,4.33l-2.338,3.893
		c-7.043,11.382-11.468,18.438-13.274,21.169c-1.664,2.484-3.27,4.589-4.815,6.313c-1.593,1.809-2.938,2.929-4.036,3.36
		c-0.488,0.191-0.881,0.219-1.178,0.082c-0.336-0.134-0.633-0.469-0.888-1.003c-0.553-1.421-0.617-3.961-0.193-7.621
		c0.397-3.421,0.841-6.53,1.331-9.326c0.101-0.599,0.35-2.963,0.746-7.095c0.269-2.938,0.686-5.236,1.25-6.894
		C351.723,44.972,351.582,44.734,351.181,44.664z"/>
	<path clip-path="url(#SVGID_2_)" fill="none" stroke="#182C3A" stroke-width="1.552" stroke-miterlimit="7.483" d="M423.112,39.722
		c0.004-0.039,0.053-0.142,0.148-0.306l1.321-3.111c0.814-2.188,1.125-3.846,0.932-4.978c-0.147-0.818-0.536-1.392-1.163-1.723
		c-0.629-0.331-1.461-0.381-2.498-0.151c-1.316,0.29-2.698,0.83-4.146,1.621c-1.448,0.792-2.639,1.556-3.573,2.292
		c-0.936,0.737-2.046,1.663-3.332,2.778c-5.664,4.934-10.876,10.763-15.636,17.487c-2.238-1.697-3.834-3.203-4.787-4.518
		c-0.307-0.412-0.696-0.425-1.165-0.037c-0.47,0.388-0.551,0.789-0.243,1.201c1.059,1.426,2.779,3.041,5.161,4.847
		c-1.66,2.445-3.272,5.003-4.841,7.677c-1.654,2.76-3.293,6.109-4.914,10.05c-1.049,2.559-1.687,4.557-1.917,5.994
		c-0.134,0.916-0.114,1.644,0.063,2.185c0.312,0.728,0.882,1.063,1.707,1.005c0.549-0.038,0.854-0.336,0.911-0.892
		c0.06-0.558-0.187-0.816-0.736-0.777c-0.157,0.011-0.249-0.042-0.275-0.159c-0.124-0.307-0.133-0.779-0.027-1.418
		c0.213-1.277,0.796-3.113,1.749-5.508c1.566-3.779,3.158-7.065,4.778-9.863c1.515-2.552,3.099-5.011,4.75-7.375
		c2.649,1.867,6.179,4.066,10.59,6.598c0.442,0.246,0.825,0.12,1.151-0.376c0.324-0.496,0.266-0.867-0.176-1.112
		c-4.411-2.533-7.921-4.733-10.531-6.603c4.674-6.639,9.777-12.362,15.31-17.168c1.973-1.716,3.755-3.104,5.349-4.162
		c1.592-1.058,3.205-1.763,4.841-2.114c0.675-0.126,1.162-0.12,1.46,0.016c0.257,0.14,0.425,0.405,0.501,0.794
		c0.144,0.858-0.136,2.219-0.838,4.083c-0.269,0.69-0.602,1.443-0.998,2.259c-0.004,0.04-0.084,0.243-0.239,0.609l-0.064,0.064
		l-0.014,0.119l-0.07,0.123c0.004-0.039,0.026-0.08,0.07-0.123l-0.07,0.123l-0.144,0.247l-1.973,3.748l-0.006,0.06
		c-0.387,0.698-0.623,1.109-0.714,1.233c-0.347,0.696-0.905,1.741-1.675,3.136l-1.733,3.139l-11.224,21.677l-2.128,4.114
		c-0.198,0.408-0.321,0.654-0.369,0.736l-0.064,0.063l-0.013,0.119c-0.049,0.082-0.073,0.144-0.078,0.184
		c-0.028,0.633,0.278,0.868,0.92,0.704c0.2-0.053,0.366-0.143,0.496-0.271c0.005-0.04,0.027-0.081,0.071-0.123l0.065-0.064
		l0.078-0.183l6.787-12.844c0.004-0.039,0.026-0.081,0.07-0.124l5.937-11.423l4.97-9.462c0.004-0.039,0.026-0.061,0.065-0.063
		L423.112,39.722z"/>
	<path clip-path="url(#SVGID_2_)" fill="none" stroke="#182C3A" stroke-width="1.552" stroke-miterlimit="7.483" d="M452.945,25.089
		c-0.372-0.171-0.677-0.051-0.915,0.36l-5.362,9.312l-6.361,11.571l-5.141,9.415c-1.878,3.407-3.037,5.539-3.479,6.398
		c-0.697,1.431-1.216,2.67-1.561,3.72c-0.448,1.294-0.609,2.271-0.483,2.933c0.3,1.599,1.124,2.468,2.474,2.609
		c1.034,0.164,2.414-0.169,4.139-1c1.188-0.556,2.825-1.479,4.91-2.769c3.124-1.915,4.791-2.94,5-3.073
		c0.413-0.226,0.543-0.53,0.389-0.914c-0.156-0.384-0.44-0.463-0.853-0.237c-0.622,0.36-2.311,1.405-5.065,3.136
		c-2.041,1.248-3.616,2.147-4.726,2.698c-1.517,0.698-2.658,0.995-3.428,0.892c-0.807-0.102-1.31-0.698-1.507-1.789
		c-0.106-0.467,0.012-1.224,0.356-2.274c0.336-0.97,0.847-2.13,1.535-3.481c0.255-0.569,1.393-2.681,3.413-6.333l5.146-9.475
		l6.296-11.507l5.423-9.316C453.384,25.552,453.316,25.261,452.945,25.089z"/>
</g>
</svg>
