<?xml version="1.0" encoding="utf-8"?>
<!-- Generator: Adobe Illustrator 16.0.0, SVG Export Plug-In . SVG Version: 6.00 Build 0)  -->
<!DOCTYPE svg PUBLIC "-//W3C//DTD SVG 1.1//EN" "http://www.w3.org/Graphics/SVG/1.1/DTD/svg11.dtd">
<svg version="1.1" id="Ebene_1" xmlns="http://www.w3.org/2000/svg" xmlns:xlink="http://www.w3.org/1999/xlink" x="0px" y="0px"
	 width="510px" height="123px" viewBox="0 0 510 123" enable-background="new 0 0 510 123" xml:space="preserve">
<g>
	<polygon fill="#FFFFFF" points="30.951,14.309 0,123 487.792,87.682 510,0 	"/>
	<g>
		<g>
			<defs>
				<rect id="SVGID_1_" width="510" height="123"/>
			</defs>
			<clipPath id="SVGID_2_">
				<use xlink:href="#SVGID_1_"  overflow="visible"/>
			</clipPath>
			<path clip-path="url(#SVGID_2_)" fill="none" stroke="#182C3A" stroke-width="1.552" stroke-miterlimit="7.483" d="
				M211.733,40.239c0.255-0.392,0.198-0.695-0.168-0.906c-3.587-1.84-6.535-1.792-8.844,0.145c-1.795,1.507-3.115,4.243-3.961,8.208
				c-0.573,2.487-1.02,5.99-1.339,10.51c-0.311,4.441-0.566,7.063-0.768,7.867c-1.143,4.933-2.858,9.019-5.147,12.256
				c-1.418,1.992-3.062,3.558-4.937,4.695c-1.873,1.137-3.711,1.748-5.514,1.836c-1.846,0.129-3.474-0.32-4.886-1.346
				s-2.394-2.625-2.944-4.795c-0.077-0.389-0.328-0.5-0.756-0.332c-0.427,0.168-0.584,0.465-0.473,0.891
				c0.605,2.404,1.703,4.183,3.298,5.334c1.589,1.189,3.444,1.711,5.565,1.562c2.076-0.105,4.154-0.793,6.237-2.062
				c2.082-1.271,3.881-2.983,5.394-5.143c2.463-3.407,4.278-7.697,5.445-12.868c0.21-0.882,0.471-3.563,0.786-8.045
				c0.312-4.44,0.731-7.883,1.262-10.327c0.808-3.608,1.979-6.037,3.514-7.289c1.756-1.503,4.206-1.457,7.353,0.137
				C211.183,40.742,211.478,40.632,211.733,40.239z"/>
		</g>
		<g>
			<defs>
				<rect id="SVGID_3_" width="510" height="123"/>
			</defs>
			<clipPath id="SVGID_4_">
				<use xlink:href="#SVGID_3_"  overflow="visible"/>
			</clipPath>
			<path clip-path="url(#SVGID_4_)" fill="none" stroke="#182C3A" stroke-width="1.552" stroke-miterlimit="7.483" d="
				M248.05,49.861c-0.328-0.214-0.629-0.134-0.901,0.241c-1.098,1.537-2.317,3.496-3.658,5.878l-2.59,4.62
				c-4.545,0.594-8.072,0.959-10.58,1.095c-2.196,0.114-4.087,0.128-5.677,0.042l12.248-20.861c0.238-0.411,0.171-0.702-0.199-0.874
				c-0.372-0.171-0.678-0.051-0.915,0.36c-1.731,3.12-5.865,10.196-12.403,21.227c-1.232-0.151-2.202-0.379-2.91-0.685
				c-0.372-0.171-0.677-0.05-0.915,0.36c-0.239,0.412-0.172,0.703,0.201,0.875c0.703,0.346,1.652,0.596,2.844,0.748
				c-4.646,7.861-8.336,14.412-11.068,19.654c-0.199,0.407-0.11,0.678,0.266,0.811c0.375,0.131,0.663-0.01,0.862-0.416
				c2.776-5.285,6.532-11.918,11.271-19.904c1.702,0.117,3.788,0.109,6.258-0.024c2.509-0.135,5.816-0.465,9.927-0.989
				l-14.262,24.436c-0.238,0.41-0.172,0.701,0.2,0.873c0.371,0.172,0.676,0.051,0.915-0.359l14.267-24.494l3.377-5.976
				c1.433-2.507,2.607-4.423,3.527-5.751C248.406,50.37,248.378,50.075,248.05,49.861z"/>
		</g>
		<g>
			<defs>
				<rect id="SVGID_5_" width="510" height="123"/>
			</defs>
			<clipPath id="SVGID_6_">
				<use xlink:href="#SVGID_5_"  overflow="visible"/>
			</clipPath>
			<path clip-path="url(#SVGID_6_)" fill="none" stroke="#182C3A" stroke-width="1.552" stroke-miterlimit="7.483" d="
				M267.279,39.343c2.351-1.979,4.471-3.331,6.359-4.055s3.45-0.852,4.688-0.387c1.499,0.567,2.476,2.037,2.928,4.412
				c0.412,2.378,0.111,5.615-0.903,9.71c-1.236,5.098-3.51,10.209-6.814,15.333c-3.307,5.123-7.062,9.154-11.268,12.093
				c-4.537,3.116-7.816,3.722-9.837,1.812c-0.882-0.885-1.442-2.226-1.682-4.023c-0.241-1.799-0.1-3.879,0.422-6.244
				c1.128-5.17,3.096-10.356,5.904-15.564c2.768-5.204,6.068-9.341,9.898-12.41C267.191,39.803,267.292,39.579,267.279,39.343z
				 M254.722,54.248c-2.243,4.655-3.855,9.227-4.832,13.714c-0.538,2.522-0.679,4.782-0.421,6.776
				c0.259,1.994,0.917,3.507,1.979,4.537c1.088,1.146,2.631,1.57,4.631,1.272c1.999-0.298,4.261-1.323,6.784-3.077
				c4.371-3.027,8.279-7.207,11.724-12.539c3.405-5.328,5.75-10.582,7.036-15.762c1.036-4.294,1.322-7.776,0.863-10.447
				c-0.459-2.67-1.627-4.355-3.502-5.052c-1.877-0.698-4.191-0.368-6.944,0.988c-2.755,1.357-5.743,3.648-8.966,6.871
				c-0.178,0.211-0.26,0.433-0.245,0.668C259.666,45.578,256.964,49.593,254.722,54.248z"/>
		</g>
		<g>
			<defs>
				<rect id="SVGID_7_" width="510" height="123"/>
			</defs>
			<clipPath id="SVGID_8_">
				<use xlink:href="#SVGID_7_"  overflow="visible"/>
			</clipPath>
			<path clip-path="url(#SVGID_8_)" fill="none" stroke="#182C3A" stroke-width="1.552" stroke-miterlimit="7.483" d="
				M295.74,56.114c-1.207,0.361-2.332,0.677-3.373,0.947c-0.44,0.11-0.645,0.38-0.611,0.812s0.27,0.593,0.71,0.483
				c0.683-0.205,1.509-0.44,2.472-0.706c-3.504,6.637-6.86,13.342-10.066,20.118c-0.198,0.406-0.109,0.678,0.268,0.811
				c0.375,0.13,0.662-0.01,0.861-0.416c3.354-7.061,6.855-14.053,10.507-20.976c3.738-1.09,7.331-2.267,10.777-3.535
				c3.245-1.213,5.977-2.351,8.192-3.414c2.668-1.29,4.525-2.447,5.567-3.467c1.92-1.948,2.319-3.91,1.202-5.884
				c-0.857-1.478-2.6-2.895-5.225-4.251c-2.222-1.107-4.699-2.018-7.429-2.735l1.136-1.915c0.238-0.41,0.172-0.701-0.199-0.873
				c-0.373-0.171-0.678-0.051-0.916,0.36l-1.278,2.161c-1.905-0.419-3.367-0.594-4.39-0.522c-0.432,0.03-0.67,0.264-0.717,0.701
				c-0.045,0.438,0.147,0.641,0.58,0.61c0.862-0.06,2.133,0.088,3.812,0.444C303.542,41.779,299.582,48.862,295.74,56.114z
				 M316.25,37.872c2.443,1.211,4.046,2.479,4.803,3.807c0.822,1.442,0.539,2.843-0.852,4.202c-0.878,0.93-2.587,1.997-5.131,3.2
				c-2.174,1.02-4.861,2.136-8.067,3.346c-3.041,1.121-6.252,2.193-9.635,3.218c3.694-6.965,7.512-13.801,11.45-20.509
				C311.594,35.811,314.07,36.722,316.25,37.872z"/>
		</g>
	</g>
	<g>
		<path fill="#1C2F3C" d="M210.851,40.565c-3.145-1.595-5.596-1.64-7.351-0.136c-1.535,1.251-2.707,3.681-3.515,7.288
			c-0.53,2.444-0.951,5.888-1.261,10.328c-0.316,4.48-0.578,7.162-0.787,8.043c-1.167,5.172-2.982,9.462-5.446,12.869
			c-1.513,2.158-3.31,3.872-5.393,5.141c-2.082,1.271-4.162,1.959-6.238,2.065c-2.12,0.147-3.975-0.374-5.564-1.563
			c-1.595-1.151-2.693-2.93-3.299-5.334c-0.11-0.427,0.047-0.723,0.474-0.891c0.428-0.169,0.68-0.059,0.756,0.331
			c0.55,2.173,1.532,3.771,2.945,4.795c1.411,1.026,3.04,1.474,4.886,1.345c1.802-0.087,3.641-0.697,5.513-1.834
			c1.874-1.139,3.519-2.703,4.938-4.695c2.288-3.237,4.004-7.322,5.146-12.256c0.202-0.805,0.457-3.426,0.769-7.867
			c0.319-4.519,0.766-8.021,1.34-10.509c0.845-3.965,2.165-6.701,3.961-8.208c2.308-1.937,5.255-1.985,8.843-0.146
			c0.367,0.212,0.422,0.514,0.168,0.906C211.478,40.631,211.183,40.741,210.851,40.565z"/>
		<path fill="#1C2F3C" d="M248.133,50.743c-0.92,1.328-2.096,3.245-3.528,5.751l-3.375,5.976l-14.269,24.494
			c-0.238,0.411-0.542,0.53-0.914,0.359c-0.373-0.171-0.438-0.464-0.201-0.874l14.262-24.434c-4.109,0.522-7.418,0.854-9.926,0.989
			c-2.469,0.134-4.556,0.142-6.259,0.022c-4.737,7.988-8.493,14.621-11.271,19.906c-0.198,0.406-0.487,0.545-0.862,0.414
			c-0.377-0.132-0.465-0.402-0.266-0.811c2.733-5.24,6.423-11.792,11.069-19.652c-1.191-0.154-2.141-0.402-2.844-0.75
			c-0.373-0.17-0.44-0.461-0.201-0.872c0.237-0.411,0.543-0.532,0.915-0.36c0.707,0.305,1.677,0.533,2.909,0.684
			c6.538-11.03,10.673-18.107,12.403-21.228c0.238-0.409,0.543-0.53,0.915-0.359c0.371,0.173,0.438,0.463,0.2,0.874l-12.248,20.86
			c1.59,0.087,3.48,0.074,5.677-0.042c2.507-0.135,6.033-0.5,10.579-1.095l2.59-4.619c1.341-2.382,2.562-4.343,3.658-5.878
			c0.273-0.375,0.574-0.455,0.902-0.24C248.377,50.074,248.405,50.369,248.133,50.743z"/>
		<path fill="#1C2F3C" d="M262.77,42.203c-0.015-0.235,0.066-0.458,0.246-0.667c3.221-3.224,6.211-5.514,8.965-6.872
			c2.754-1.356,5.067-1.686,6.944-0.989c1.875,0.699,3.042,2.383,3.502,5.053s0.173,6.153-0.864,10.446
			c-1.283,5.18-3.629,10.434-7.035,15.762c-3.443,5.332-7.353,9.51-11.723,12.539c-2.525,1.754-4.785,2.78-6.785,3.077
			c-1.999,0.298-3.542-0.127-4.63-1.272c-1.061-1.03-1.721-2.543-1.979-4.537c-0.259-1.994-0.118-4.253,0.421-6.776
			c0.977-4.487,2.588-9.059,4.831-13.713C256.906,49.597,259.607,45.581,262.77,42.203z M266.915,40.019
			c-3.83,3.07-7.13,7.208-9.897,12.411c-2.81,5.208-4.775,10.395-5.903,15.563c-0.522,2.364-0.663,4.446-0.423,6.243
			c0.239,1.8,0.801,3.141,1.683,4.025c2.02,1.91,5.299,1.307,9.836-1.812c4.205-2.937,7.962-6.968,11.269-12.093
			c3.307-5.124,5.578-10.233,6.814-15.332c1.018-4.096,1.316-7.332,0.902-9.711c-0.45-2.373-1.428-3.844-2.926-4.41
			c-1.236-0.466-2.801-0.336-4.688,0.386c-1.89,0.725-4.011,2.077-6.358,4.056C267.232,39.583,267.133,39.807,266.915,40.019z"/>
		<path fill="#1C2F3C" d="M307.562,34.868c-1.68-0.355-2.949-0.503-3.812-0.443c-0.434,0.03-0.625-0.173-0.579-0.611
			s0.285-0.67,0.718-0.701c1.021-0.072,2.483,0.103,4.389,0.521l1.279-2.16c0.236-0.411,0.543-0.531,0.914-0.361
			c0.371,0.172,0.438,0.463,0.2,0.874l-1.137,1.915c2.731,0.717,5.208,1.628,7.43,2.735c2.626,1.356,4.366,2.773,5.226,4.252
			c1.115,1.973,0.717,3.935-1.203,5.884c-1.043,1.02-2.898,2.176-5.568,3.467c-2.215,1.062-4.947,2.2-8.191,3.414
			c-3.446,1.268-7.039,2.444-10.777,3.535c-3.65,6.922-7.154,13.915-10.508,20.975c-0.199,0.408-0.486,0.547-0.861,0.416
			c-0.376-0.132-0.465-0.402-0.266-0.811c3.207-6.772,6.562-13.479,10.064-20.117c-0.963,0.266-1.788,0.501-2.472,0.706
			c-0.44,0.109-0.677-0.051-0.709-0.483c-0.033-0.431,0.171-0.701,0.612-0.812c1.041-0.27,2.166-0.585,3.373-0.945
			C299.523,48.866,303.482,41.782,307.562,34.868z M308.762,35.14c-3.939,6.708-7.758,13.543-11.451,20.508
			c3.383-1.024,6.592-2.097,9.635-3.217c3.205-1.211,5.896-2.327,8.068-3.347c2.543-1.203,4.252-2.27,5.131-3.198
			c1.39-1.36,1.672-2.761,0.851-4.204c-0.757-1.328-2.358-2.596-4.804-3.806C314.012,36.725,311.536,35.813,308.762,35.14z"/>
	</g>
</g>
</svg>
