<?xml version="1.0" encoding="utf-8"?>
<!-- Generator: Adobe Illustrator 16.0.0, SVG Export Plug-In . SVG Version: 6.00 Build 0)  -->
<!DOCTYPE svg PUBLIC "-//W3C//DTD SVG 1.1//EN" "http://www.w3.org/Graphics/SVG/1.1/DTD/svg11.dtd">
<svg version="1.1" id="Ebene_1" xmlns="http://www.w3.org/2000/svg" xmlns:xlink="http://www.w3.org/1999/xlink" x="0px" y="0px"
	 width="510px" height="123px" viewBox="0 0 510 123" enable-background="new 0 0 510 123" xml:space="preserve">
<g>
	<polygon fill="#FFFFFF" points="30.951,14.309 0,123 487.792,87.682 510,0 	"/>
</g>
<g>
	<g>
		<defs>
			<rect id="SVGID_1_" width="510" height="123"/>
		</defs>
		<clipPath id="SVGID_2_">
			<use xlink:href="#SVGID_1_"  overflow="visible"/>
		</clipPath>
		<path clip-path="url(#SVGID_2_)" fill="none" stroke="#182C3A" stroke-width="1.552" stroke-miterlimit="7.483" d="
			M144.784,86.497c0.238-0.411,0.171-0.702-0.2-0.874c-0.674-0.268-1.395-0.632-2.166-1.092l-1.706-1.006
			c-0.404-0.246-1.095-0.711-2.075-1.393l-1.8-1.236c-0.583-0.393-2.39-1.549-5.423-3.467c-2.084-1.313-3.741-2.422-4.971-3.322
			l3.289-6.267c0.841-0.217,1.8-0.44,2.877-0.676c2.154-0.466,4.665-0.997,7.534-1.592c2.987-0.604,4.659-0.938,5.016-1.003
			c0.44-0.107,0.644-0.379,0.612-0.812c-0.033-0.432-0.27-0.593-0.709-0.483c-0.324,0.104-1.976,0.444-4.961,1.027
			c-2.984,0.586-5.515,1.105-7.589,1.566l-1.982,0.494c4.127-7.746,8.41-15.305,12.849-22.679c0.238-0.41,0.171-0.701-0.201-0.873
			c-0.372-0.171-0.677-0.051-0.914,0.359c-4.586,7.66-9.017,15.507-13.29,23.538c-1.561,0.388-2.864,0.733-3.91,1.043
			c-1.124,0.315-1.993,0.613-2.607,0.894c-0.371,0.184-0.68,0.344-0.928,0.479c-0.335,0.223-0.554,0.453-0.658,0.697
			c-0.147,0.285-0.182,0.625-0.106,1.013c0.093,0.229,0.242,0.478,0.448,0.737c0.308,0.414,0.763,0.896,1.369,1.443
			c0.539,0.437,1.278,0.997,2.22,1.68c-2.499,4.871-4.927,9.795-7.282,14.772c-0.199,0.407-0.11,0.679,0.266,0.81
			c0.375,0.132,0.663-0.006,0.862-0.414l7.133-14.467c0.977,0.722,2.581,1.771,4.812,3.155c2.779,1.738,4.587,2.896,5.424,3.468
			c0.179,0.146,0.759,0.56,1.74,1.239l2.128,1.448c0.402,0.249,0.999,0.593,1.792,1.029c0.791,0.438,1.522,0.812,2.191,1.119
			C144.241,87.027,144.545,86.907,144.784,86.497z M122.117,70.208c0.13-0.127,0.337-0.239,0.62-0.339
			c0.614-0.279,1.444-0.575,2.49-0.885c0.841-0.217,1.824-0.482,2.949-0.799l-2.712,5.222c-0.801-0.536-1.452-1.022-1.951-1.462
			c-0.574-0.473-0.98-0.879-1.217-1.217c-0.136-0.188-0.218-0.34-0.244-0.457l0.006-0.06L122.117,70.208z"/>
	</g>
	<g>
		<defs>
			<rect id="SVGID_3_" width="510" height="123"/>
		</defs>
		<clipPath id="SVGID_4_">
			<use xlink:href="#SVGID_3_"  overflow="visible"/>
		</clipPath>
		<path clip-path="url(#SVGID_4_)" fill="none" stroke="#182C3A" stroke-width="1.552" stroke-miterlimit="7.483" d="
			M166.891,46.363c2.351-1.979,4.471-3.331,6.36-4.055c1.888-0.724,3.451-0.852,4.688-0.387c1.499,0.567,2.476,2.037,2.928,4.412
			c0.412,2.378,0.111,5.615-0.904,9.71c-1.237,5.098-3.509,10.209-6.815,15.332c-3.306,5.124-7.062,9.154-11.268,12.092
			c-4.537,3.118-7.816,3.723-9.837,1.812c-0.881-0.885-1.442-2.227-1.681-4.024c-0.241-1.798-0.1-3.879,0.422-6.244
			c1.128-5.169,3.095-10.356,5.904-15.564c2.768-5.204,6.068-9.341,9.898-12.41C166.803,46.823,166.904,46.599,166.891,46.363z
			 M154.333,61.268c-2.243,4.655-3.855,9.228-4.832,13.714c-0.538,2.522-0.678,4.781-0.42,6.775s0.917,3.508,1.978,4.537
			c1.088,1.146,2.632,1.571,4.631,1.273c1.999-0.299,4.261-1.323,6.784-3.077c4.371-3.028,8.279-7.208,11.724-12.539
			c3.405-5.327,5.75-10.582,7.036-15.761c1.036-4.294,1.323-7.776,0.864-10.447c-0.46-2.67-1.628-4.355-3.503-5.052
			c-1.876-0.698-4.191-0.368-6.944,0.988c-2.755,1.357-5.743,3.648-8.966,6.871c-0.178,0.211-0.26,0.433-0.245,0.668
			C159.278,52.598,156.576,56.613,154.333,61.268z"/>
	</g>
	<g>
		<defs>
			<rect id="SVGID_5_" width="510" height="123"/>
		</defs>
		<clipPath id="SVGID_6_">
			<use xlink:href="#SVGID_5_"  overflow="visible"/>
		</clipPath>
		<path clip-path="url(#SVGID_6_)" fill="none" stroke="#182C3A" stroke-width="1.552" stroke-miterlimit="7.483" d="
			M182.121,85.011c0.423,0.05,0.697-0.147,0.822-0.59c0.382-1.407,0.931-2.926,1.648-4.555c0.76-1.671,1.41-3.038,1.951-4.103
			c0.54-1.062,1.377-2.631,2.511-4.703c1.133-2.07,1.874-3.455,2.22-4.149c2.426-4.55,4.118-7.666,5.075-9.351l3.317-5.973
			c0.429-0.74,1.422-2.408,2.981-5.002l1.832-2.969c0.012,0.63-0.201,2.283-0.637,4.957c-1.252,7.821-2.311,15.864-3.18,24.132
			c-0.017,0.159-0.068,0.548-0.152,1.164c-0.085,0.617-0.166,1.205-0.243,1.764c-0.079,0.559-0.161,1.254-0.249,2.09
			c-0.087,1.189-0.072,2.155,0.046,2.896c0.119,1.097,0.462,1.724,1.03,1.882c0.375,0.132,0.796,0.023,1.262-0.325
			c0.295-0.218,0.643-0.559,1.043-1.021c0.58-0.711,1.292-1.728,2.132-3.049c0.421-0.66,0.866-1.383,1.339-2.166l1.155-2.092
			l0.637-1.052l5.059-8.642l5.546-9.382l5.068-8.167l5.791-8.928c0.277-0.413,0.24-0.716-0.109-0.909
			c-0.351-0.192-0.643-0.103-0.876,0.268c-1.843,2.694-3.793,5.671-5.85,8.932l-5.08,8.286l-5.612,9.446l-5.052,8.579
			c-0.048,0.084-0.241,0.433-0.578,1.049c-0.338,0.613-0.741,1.294-1.208,2.035l-1.28,2.162c-0.797,1.279-1.462,2.232-1.996,2.861
			c-0.313,0.377-0.573,0.633-0.782,0.766c-0.004,0.039-0.026,0.062-0.065,0.063c-0.141-0.147-0.242-0.477-0.306-0.985
			c-0.09-0.623-0.095-1.512-0.012-2.662c0.083-0.795,0.163-1.471,0.242-2.028c0.078-0.558,0.159-1.146,0.244-1.765
			c0.084-0.615,0.135-1.004,0.152-1.164c0.793-7.551,1.848-15.555,3.167-24.013c0.478-3.071,0.693-5.118,0.645-6.141l0.013-0.119
			c0.016-0.159,0.009-0.276-0.022-0.354c0.017-0.158-0.008-0.295-0.074-0.409c-0.163-0.304-0.403-0.425-0.721-0.364
			c-0.158,0.011-0.303,0.101-0.438,0.268l-0.13,0.127c-0.088,0.086-0.176,0.19-0.267,0.315c-0.178,0.21-0.41,0.561-0.695,1.054
			l-1.898,3.033c-1.563,2.635-2.559,4.322-2.987,5.062l-3.317,5.973c-0.957,1.685-2.653,4.842-5.088,9.471l-2.239,4.062
			l-2.492,4.789c-0.58,1.066-1.243,2.466-1.99,4.193c-0.747,1.729-1.33,3.299-1.752,4.709
			C181.548,84.715,181.698,84.961,182.121,85.011z"/>
	</g>
	<g>
		<defs>
			<rect id="SVGID_7_" width="510" height="123"/>
		</defs>
		<clipPath id="SVGID_8_">
			<use xlink:href="#SVGID_7_"  overflow="visible"/>
		</clipPath>
		<path clip-path="url(#SVGID_8_)" fill="none" stroke="#182C3A" stroke-width="1.552" stroke-miterlimit="7.483" d="
			M239.593,42.433c0.176,0.363,0.451,0.433,0.826,0.209c1.001-0.622,2.734-1.177,5.203-1.666c2.149-0.426,4.781-0.808,7.896-1.144
			l0.058-0.004c-7.884,13.453-15.229,27.342-22.035,41.667c-0.199,0.407-0.11,0.679,0.266,0.812
			c0.375,0.131,0.663-0.009,0.862-0.416c6.906-14.529,14.367-28.604,22.386-42.225c1.653-0.154,5.778-0.463,12.375-0.924
			c0.432-0.031,0.67-0.264,0.717-0.702c0.045-0.437-0.146-0.64-0.58-0.61c-6.358,0.445-10.27,0.738-11.726,0.879l1.56-2.595
			c0.238-0.41,0.17-0.702-0.201-0.873c-0.372-0.171-0.678-0.051-0.914,0.359l-1.922,3.272l-0.765,0.053
			c-3.193,0.342-5.865,0.726-8.014,1.152c-2.629,0.539-4.505,1.144-5.628,1.814C239.537,41.756,239.416,42.071,239.593,42.433z"/>
	</g>
	<g>
		<defs>
			<rect id="SVGID_9_" width="510" height="123"/>
		</defs>
		<clipPath id="SVGID_10_">
			<use xlink:href="#SVGID_9_"  overflow="visible"/>
		</clipPath>
		<path clip-path="url(#SVGID_10_)" fill="none" stroke="#182C3A" stroke-width="1.552" stroke-miterlimit="7.483" d="
			M307.287,43.884c0.004-0.039,0.053-0.142,0.148-0.306l1.32-3.111c0.814-2.188,1.125-3.846,0.932-4.978
			c-0.146-0.818-0.535-1.392-1.162-1.723c-0.629-0.331-1.461-0.381-2.498-0.151c-1.316,0.29-2.698,0.83-4.146,1.621
			c-1.447,0.792-2.639,1.556-3.572,2.292c-0.937,0.737-2.047,1.663-3.332,2.778c-5.664,4.934-10.877,10.763-15.637,17.487
			c-2.238-1.697-3.834-3.203-4.787-4.518c-0.307-0.412-0.695-0.425-1.164-0.037c-0.471,0.388-0.552,0.789-0.244,1.201
			c1.06,1.426,2.779,3.041,5.162,4.847c-1.66,2.445-3.273,5.002-4.842,7.677c-1.654,2.76-3.293,6.109-4.914,10.051
			c-1.05,2.559-1.688,4.557-1.916,5.993c-0.135,0.916-0.115,1.644,0.062,2.185c0.313,0.728,0.883,1.063,1.707,1.006
			c0.55-0.038,0.854-0.336,0.911-0.893c0.061-0.558-0.187-0.815-0.735-0.777c-0.157,0.012-0.249-0.041-0.274-0.158
			c-0.125-0.307-0.134-0.779-0.027-1.418c0.212-1.277,0.795-3.114,1.748-5.508c1.566-3.779,3.158-7.066,4.779-9.863
			c1.514-2.553,3.098-5.012,4.75-7.375c2.648,1.867,6.178,4.066,10.59,6.598c0.441,0.246,0.824,0.12,1.15-0.376
			c0.324-0.495,0.266-0.866-0.176-1.112c-4.411-2.532-7.922-4.732-10.531-6.603c4.674-6.639,9.776-12.362,15.311-17.168
			c1.973-1.716,3.754-3.104,5.349-4.162c1.592-1.058,3.205-1.763,4.841-2.114c0.676-0.126,1.162-0.12,1.46,0.016
			c0.257,0.14,0.425,0.405,0.501,0.794c0.145,0.858-0.136,2.219-0.838,4.083c-0.27,0.69-0.602,1.443-0.998,2.259
			c-0.004,0.04-0.084,0.243-0.238,0.609l-0.065,0.064l-0.013,0.119l-0.071,0.123c0.005-0.039,0.026-0.08,0.071-0.123l-0.071,0.123
			l-0.144,0.247l-1.973,3.748l-0.006,0.06c-0.387,0.698-0.624,1.109-0.715,1.233c-0.348,0.696-0.904,1.741-1.674,3.136l-1.733,3.139
			l-11.224,21.677l-2.129,4.114c-0.199,0.408-0.321,0.653-0.369,0.735l-0.063,0.063l-0.014,0.119
			c-0.048,0.082-0.072,0.143-0.077,0.183c-0.028,0.634,0.277,0.869,0.92,0.705c0.199-0.054,0.365-0.144,0.496-0.271
			c0.005-0.041,0.027-0.082,0.07-0.123l0.065-0.064l0.078-0.184l6.787-12.844c0.004-0.039,0.026-0.08,0.069-0.123l5.938-11.424
			l4.971-9.462c0.004-0.039,0.025-0.061,0.064-0.063L307.287,43.884z"/>
	</g>
	<g>
		<defs>
			<rect id="SVGID_11_" width="510" height="123"/>
		</defs>
		<clipPath id="SVGID_12_">
			<use xlink:href="#SVGID_11_"  overflow="visible"/>
		</clipPath>
		<path clip-path="url(#SVGID_12_)" fill="none" stroke="#182C3A" stroke-width="1.552" stroke-miterlimit="7.483" d="
			M338.727,72.936c0.237-0.41,0.17-0.701-0.201-0.873c-0.674-0.269-1.395-0.633-2.164-1.092l-1.707-1.006
			c-0.403-0.247-1.096-0.712-2.074-1.395l-1.801-1.234c-0.582-0.395-2.391-1.55-5.424-3.469c-2.084-1.312-3.739-2.42-4.971-3.321
			l3.289-6.267c0.842-0.216,1.801-0.441,2.877-0.675c2.154-0.466,4.665-0.997,7.534-1.592c2.987-0.603,4.659-0.937,5.017-1.002
			c0.439-0.109,0.645-0.38,0.611-0.812c-0.033-0.431-0.27-0.592-0.709-0.483c-0.324,0.102-1.977,0.444-4.961,1.027
			c-2.984,0.585-5.516,1.106-7.589,1.567l-1.981,0.494c4.127-7.746,8.409-15.305,12.85-22.679c0.236-0.41,0.171-0.701-0.201-0.873
			c-0.372-0.171-0.678-0.051-0.914,0.359c-4.586,7.66-9.018,15.507-13.29,23.538c-1.562,0.386-2.864,0.733-3.91,1.043
			c-1.124,0.315-1.993,0.613-2.606,0.892c-0.371,0.184-0.68,0.344-0.928,0.48c-0.336,0.221-0.555,0.453-0.658,0.697
			c-0.146,0.286-0.183,0.625-0.105,1.013c0.093,0.23,0.242,0.477,0.448,0.738c0.308,0.413,0.763,0.895,1.368,1.443
			c0.539,0.436,1.277,0.997,2.221,1.68c-2.499,4.87-4.928,9.794-7.282,14.771c-0.198,0.408-0.11,0.681,0.267,0.812
			c0.375,0.132,0.662-0.007,0.861-0.415l7.133-14.466c0.979,0.722,2.582,1.772,4.813,3.155c2.778,1.738,4.587,2.896,5.424,3.469
			c0.179,0.145,0.759,0.559,1.74,1.238l2.128,1.449c0.4,0.248,0.999,0.592,1.792,1.028c0.791,0.438,1.521,0.812,2.19,1.119
			C338.184,73.466,338.488,73.346,338.727,72.936z M316.059,56.646c0.131-0.127,0.338-0.24,0.621-0.339
			c0.613-0.28,1.443-0.575,2.489-0.885c0.841-0.216,1.824-0.482,2.949-0.798l-2.712,5.221c-0.803-0.536-1.452-1.022-1.951-1.462
			c-0.574-0.472-0.98-0.878-1.217-1.217c-0.137-0.187-0.219-0.34-0.244-0.456L316,56.65L316.059,56.646z"/>
	</g>
	<g>
		<defs>
			<rect id="SVGID_13_" width="510" height="123"/>
		</defs>
		<clipPath id="SVGID_14_">
			<use xlink:href="#SVGID_13_"  overflow="visible"/>
		</clipPath>
		<path clip-path="url(#SVGID_14_)" fill="none" stroke="#182C3A" stroke-width="1.552" stroke-miterlimit="7.483" d="
			M352.672,34.526c0.176,0.363,0.451,0.433,0.826,0.209c1.001-0.622,2.732-1.177,5.203-1.666c2.148-0.426,4.779-0.808,7.896-1.144
			l0.057-0.004c-7.883,13.453-15.229,27.342-22.033,41.667c-0.199,0.408-0.109,0.68,0.266,0.811s0.663-0.008,0.862-0.414
			c6.905-14.529,14.366-28.604,22.386-42.226c1.653-0.154,5.778-0.463,12.375-0.924c0.432-0.031,0.67-0.264,0.717-0.702
			c0.045-0.437-0.146-0.64-0.578-0.61c-6.36,0.445-10.271,0.738-11.728,0.879l1.56-2.595c0.237-0.41,0.17-0.702-0.201-0.873
			c-0.372-0.171-0.678-0.051-0.914,0.359l-1.924,3.272l-0.765,0.053c-3.192,0.342-5.864,0.726-8.014,1.152
			c-2.63,0.539-4.507,1.144-5.629,1.814C352.615,33.849,352.495,34.164,352.672,34.526z"/>
	</g>
</g>
<g>
	<path fill="#1C2F3C" d="M143.869,86.857c-0.669-0.308-1.4-0.681-2.192-1.118c-0.792-0.438-1.39-0.78-1.791-1.029l-2.128-1.449
		c-0.98-0.68-1.562-1.094-1.741-1.239c-0.836-0.57-2.645-1.729-5.423-3.467c-2.232-1.384-3.837-2.435-4.812-3.156l-7.133,14.468
		c-0.2,0.407-0.487,0.547-0.863,0.416c-0.376-0.134-0.465-0.403-0.265-0.812c2.354-4.978,4.782-9.902,7.282-14.772
		c-0.942-0.683-1.682-1.244-2.221-1.679c-0.605-0.552-1.061-1.03-1.368-1.444c-0.206-0.261-0.356-0.507-0.449-0.737
		c-0.076-0.389-0.04-0.727,0.106-1.014c0.103-0.243,0.322-0.477,0.658-0.697c0.248-0.136,0.558-0.295,0.928-0.479
		c0.614-0.279,1.482-0.578,2.607-0.894c1.045-0.312,2.35-0.657,3.911-1.043c4.272-8.031,8.703-15.878,13.289-23.538
		c0.237-0.41,0.542-0.53,0.914-0.359c0.371,0.172,0.438,0.463,0.201,0.874c-4.439,7.373-8.722,14.932-12.849,22.678l1.982-0.494
		c2.074-0.46,4.605-0.98,7.589-1.566c2.984-0.582,4.637-0.925,4.959-1.026c0.441-0.108,0.676,0.053,0.709,0.483
		c0.033,0.432-0.172,0.702-0.611,0.812c-0.358,0.063-2.029,0.397-5.016,1.001c-2.869,0.597-5.38,1.127-7.535,1.593
		c-1.077,0.231-2.036,0.458-2.876,0.674l-3.29,6.269c1.23,0.9,2.887,2.008,4.971,3.32c3.033,1.92,4.841,3.076,5.424,3.469
		l1.799,1.236c0.981,0.68,1.672,1.146,2.075,1.393l1.706,1.005c0.771,0.46,1.493,0.823,2.166,1.092
		c0.372,0.173,0.439,0.465,0.201,0.874C144.544,86.909,144.24,87.029,143.869,86.857z M122.057,70.215l-0.006,0.061
		c0.027,0.115,0.108,0.269,0.246,0.455c0.236,0.338,0.642,0.744,1.215,1.218c0.5,0.438,1.15,0.926,1.952,1.461l2.711-5.22
		c-1.125,0.314-2.107,0.58-2.949,0.797c-1.046,0.31-1.876,0.604-2.49,0.886c-0.284,0.099-0.489,0.212-0.62,0.339L122.057,70.215z"/>
	<path fill="#1C2F3C" d="M162.439,49.221c-0.015-0.237,0.066-0.458,0.246-0.668c3.222-3.224,6.211-5.514,8.965-6.872
		c2.753-1.356,5.069-1.685,6.945-0.989c1.875,0.698,3.042,2.382,3.502,5.053s0.172,6.153-0.863,10.447
		c-1.285,5.18-3.631,10.433-7.036,15.761c-3.444,5.331-7.353,9.511-11.723,12.539c-2.523,1.755-4.785,2.779-6.785,3.078
		c-1.999,0.297-3.543-0.127-4.63-1.273c-1.061-1.031-1.721-2.544-1.979-4.537c-0.259-1.994-0.117-4.254,0.42-6.775
		c0.978-4.488,2.588-9.061,4.831-13.714C156.576,56.614,159.278,52.599,162.439,49.221z M166.585,47.037
		c-3.83,3.07-7.13,7.208-9.898,12.411c-2.808,5.208-4.776,10.396-5.903,15.562c-0.523,2.366-0.664,4.446-0.423,6.244
		c0.239,1.8,0.8,3.142,1.682,4.024c2.021,1.91,5.299,1.308,9.836-1.812c4.207-2.938,7.962-6.969,11.268-12.093
		c3.306-5.123,5.579-10.234,6.815-15.332c1.016-4.096,1.316-7.331,0.903-9.71c-0.452-2.374-1.428-3.845-2.926-4.412
		c-1.237-0.465-2.8-0.336-4.689,0.387c-1.889,0.724-4.009,2.077-6.36,4.056C166.905,46.6,166.803,46.824,166.585,47.037z"/>
	<path fill="#1C2F3C" d="M181.671,84.273c0.423-1.41,1.005-2.979,1.752-4.709c0.747-1.729,1.41-3.127,1.99-4.193l2.492-4.79
		l2.24-4.062c2.435-4.629,4.13-7.787,5.087-9.471l3.317-5.974c0.429-0.741,1.424-2.428,2.987-5.062l1.898-3.033
		c0.285-0.493,0.517-0.845,0.695-1.055c0.091-0.125,0.18-0.229,0.267-0.314l0.131-0.128c0.135-0.167,0.28-0.255,0.437-0.266
		c0.317-0.061,0.559,0.059,0.722,0.363c0.066,0.114,0.091,0.25,0.074,0.409c0.031,0.079,0.038,0.196,0.021,0.354l-0.012,0.118
		c0.047,1.023-0.168,3.071-0.646,6.143c-1.318,8.457-2.374,16.46-3.167,24.012c-0.017,0.159-0.067,0.548-0.152,1.165
		s-0.166,1.205-0.242,1.763c-0.079,0.56-0.16,1.233-0.244,2.029c-0.082,1.151-0.078,2.038,0.013,2.661
		c0.064,0.511,0.164,0.84,0.305,0.986c0.039-0.003,0.061-0.023,0.065-0.064c0.208-0.133,0.469-0.387,0.782-0.764
		c0.534-0.631,1.198-1.584,1.997-2.861l1.279-2.162c0.468-0.743,0.871-1.422,1.208-2.038c0.337-0.615,0.529-0.963,0.578-1.046
		l5.053-8.58l5.611-9.448l5.081-8.286c2.057-3.26,4.007-6.238,5.85-8.932c0.234-0.372,0.525-0.46,0.875-0.268
		c0.35,0.193,0.387,0.496,0.11,0.91l-5.791,8.927l-5.068,8.167l-5.546,9.384l-5.059,8.639l-0.636,1.052l-1.156,2.092
		c-0.472,0.783-0.917,1.506-1.337,2.166c-0.841,1.322-1.553,2.338-2.133,3.049c-0.399,0.463-0.748,0.803-1.043,1.021
		c-0.466,0.349-0.886,0.457-1.261,0.325c-0.569-0.156-0.912-0.785-1.03-1.881c-0.118-0.741-0.133-1.708-0.046-2.896
		c0.087-0.836,0.17-1.531,0.25-2.09c0.077-0.557,0.158-1.146,0.243-1.763c0.084-0.618,0.135-1.005,0.152-1.165
		c0.869-8.268,1.927-16.312,3.179-24.132c0.438-2.674,0.65-4.326,0.639-4.958l-1.832,2.969c-1.559,2.594-2.553,4.263-2.981,5.003
		l-3.318,5.972c-0.958,1.686-2.648,4.802-5.075,9.352c-0.346,0.694-1.086,2.078-2.22,4.147c-1.133,2.073-1.971,3.643-2.512,4.705
		c-0.541,1.064-1.19,2.43-1.95,4.103c-0.717,1.628-1.266,3.146-1.648,4.554c-0.125,0.442-0.399,0.639-0.822,0.592
		C181.697,84.962,181.548,84.716,181.671,84.273z"/>
	<path fill="#1C2F3C" d="M239.956,41.492c1.122-0.67,2.999-1.275,5.627-1.815c2.15-0.424,4.82-0.81,8.014-1.151l0.766-0.054
		l1.922-3.271c0.236-0.41,0.543-0.53,0.915-0.359c0.37,0.172,0.438,0.462,0.198,0.874l-1.558,2.594
		c1.456-0.141,5.365-0.435,11.726-0.879c0.433-0.03,0.627,0.173,0.58,0.611c-0.045,0.438-0.285,0.67-0.717,0.701
		c-6.597,0.461-10.722,0.77-12.375,0.925c-8.019,13.62-15.48,27.695-22.385,42.225c-0.2,0.406-0.487,0.547-0.863,0.416
		c-0.376-0.134-0.465-0.402-0.266-0.812c6.806-14.324,14.151-28.213,22.036-41.667l-0.06,0.004
		c-3.114,0.337-5.747,0.718-7.895,1.145c-2.469,0.489-4.202,1.044-5.204,1.667c-0.375,0.223-0.649,0.154-0.824-0.209
		C239.417,42.072,239.537,41.758,239.956,41.492z"/>
	<path fill="#1C2F3C" d="M305.105,47.944c-0.039,0.003-0.061,0.025-0.064,0.064l-4.971,9.462l-5.936,11.423
		c-0.045,0.043-0.068,0.086-0.072,0.123l-6.785,12.844l-0.08,0.184l-0.063,0.064c-0.044,0.041-0.067,0.082-0.071,0.123
		c-0.131,0.127-0.295,0.219-0.496,0.271c-0.642,0.163-0.948-0.072-0.92-0.706c0.004-0.04,0.03-0.101,0.078-0.183l0.012-0.119
		l0.065-0.062c0.048-0.084,0.171-0.328,0.369-0.736l2.128-4.113l11.225-21.679l1.732-3.138c0.77-1.396,1.327-2.44,1.674-3.136
		c0.092-0.125,0.329-0.536,0.715-1.234l0.006-0.059l1.974-3.749l0.144-0.247l0.07-0.124c-0.044,0.043-0.066,0.085-0.07,0.124
		l0.07-0.124l0.014-0.118l0.063-0.065c0.155-0.365,0.235-0.568,0.239-0.608c0.397-0.817,0.729-1.57,0.998-2.26
		c0.701-1.864,0.981-3.225,0.838-4.083c-0.075-0.388-0.242-0.653-0.502-0.792c-0.297-0.136-0.783-0.142-1.459-0.017
		c-1.635,0.352-3.248,1.057-4.84,2.114c-1.595,1.059-3.377,2.446-5.351,4.162c-5.532,4.807-10.636,10.529-15.31,17.168
		c2.61,1.87,6.121,4.07,10.531,6.604c0.441,0.244,0.5,0.615,0.176,1.111c-0.325,0.495-0.709,0.621-1.15,0.375
		c-4.41-2.531-7.941-4.73-10.59-6.598c-1.651,2.365-3.235,4.823-4.751,7.375c-1.619,2.797-3.212,6.084-4.777,9.861
		c-0.953,2.396-1.536,4.23-1.748,5.51c-0.106,0.638-0.098,1.109,0.025,1.418c0.026,0.117,0.118,0.169,0.276,0.158
		c0.549-0.038,0.795,0.221,0.735,0.777c-0.06,0.556-0.362,0.854-0.912,0.893c-0.823,0.058-1.396-0.277-1.707-1.006
		c-0.177-0.541-0.196-1.269-0.062-2.186c0.229-1.437,0.865-3.435,1.916-5.992c1.621-3.939,3.26-7.291,4.914-10.051
		c1.566-2.674,3.181-5.232,4.841-7.677c-2.384-1.806-4.104-3.422-5.161-4.849c-0.309-0.412-0.227-0.812,0.243-1.201
		c0.47-0.387,0.856-0.375,1.165,0.038c0.951,1.314,2.549,2.82,4.785,4.518c4.762-6.725,9.975-12.554,15.638-17.488
		c1.286-1.114,2.396-2.041,3.331-2.776c0.936-0.737,2.126-1.501,3.574-2.292c1.445-0.792,2.828-1.331,4.146-1.622
		c1.037-0.229,1.87-0.18,2.498,0.151c0.628,0.332,1.017,0.905,1.163,1.724c0.191,1.131-0.116,2.79-0.932,4.978l-1.322,3.111
		c-0.096,0.165-0.145,0.266-0.148,0.305L305.105,47.944z"/>
	<path fill="#1C2F3C" d="M337.753,73.301c-0.669-0.308-1.399-0.681-2.192-1.119c-0.793-0.438-1.389-0.779-1.791-1.029l-2.129-1.448
		c-0.979-0.681-1.561-1.095-1.74-1.239c-0.836-0.57-2.646-1.729-5.422-3.468c-2.232-1.383-3.838-2.435-4.812-3.156l-7.134,14.468
		c-0.199,0.406-0.486,0.547-0.862,0.416c-0.376-0.134-0.465-0.404-0.266-0.812c2.354-4.977,4.781-9.9,7.281-14.773
		c-0.941-0.682-1.682-1.243-2.221-1.679c-0.605-0.55-1.061-1.03-1.367-1.444c-0.207-0.261-0.355-0.507-0.449-0.737
		c-0.075-0.389-0.041-0.727,0.106-1.014c0.103-0.244,0.322-0.476,0.657-0.697c0.248-0.136,0.559-0.295,0.928-0.479
		c0.614-0.28,1.482-0.578,2.608-0.892c1.045-0.312,2.349-0.659,3.909-1.043c4.272-8.031,8.703-15.878,13.289-23.538
		c0.236-0.41,0.543-0.53,0.916-0.359c0.369,0.172,0.437,0.463,0.199,0.874c-4.438,7.373-8.722,14.932-12.85,22.677l1.98-0.493
		c2.075-0.46,4.605-0.982,7.592-1.567c2.981-0.583,4.636-0.924,4.959-1.027c0.439-0.108,0.677,0.052,0.709,0.483
		c0.033,0.433-0.172,0.703-0.611,0.812c-0.355,0.064-2.027,0.399-5.016,1.001c-2.869,0.596-5.381,1.127-7.534,1.592
		c-1.077,0.233-2.035,0.458-2.877,0.674l-3.289,6.268c1.229,0.9,2.888,2.008,4.971,3.321c3.033,1.919,4.841,3.076,5.423,3.469
		l1.801,1.235c0.98,0.681,1.672,1.146,2.074,1.395l1.706,1.004c0.771,0.459,1.493,0.822,2.166,1.092
		c0.372,0.173,0.438,0.465,0.2,0.873C338.428,73.352,338.124,73.473,337.753,73.301z M315.939,56.657l-0.006,0.06
		c0.026,0.117,0.108,0.269,0.246,0.456c0.235,0.338,0.643,0.744,1.215,1.217c0.5,0.439,1.15,0.926,1.953,1.461l2.711-5.22
		c-1.125,0.316-2.106,0.582-2.949,0.799c-1.045,0.309-1.875,0.604-2.489,0.884c-0.282,0.099-0.489,0.212-0.62,0.339L315.939,56.657z
		"/>
	<path fill="#1C2F3C" d="M352.975,33.589c1.123-0.67,3-1.275,5.629-1.814c2.148-0.425,4.82-0.811,8.015-1.152l0.766-0.054
		l1.923-3.271c0.235-0.41,0.543-0.531,0.914-0.36c0.37,0.172,0.438,0.463,0.199,0.874l-1.559,2.595
		c1.455-0.141,5.365-0.435,11.727-0.879c0.432-0.03,0.625,0.173,0.579,0.611s-0.285,0.67-0.717,0.701
		c-6.597,0.461-10.722,0.77-12.374,0.925c-8.02,13.621-15.48,27.695-22.387,42.224c-0.199,0.407-0.486,0.547-0.862,0.415
		c-0.376-0.131-0.466-0.401-0.265-0.811c6.806-14.325,14.149-28.214,22.033-41.668l-0.059,0.004
		c-3.115,0.337-5.746,0.718-7.896,1.144c-2.469,0.489-4.201,1.044-5.203,1.667c-0.373,0.223-0.649,0.154-0.824-0.21
		C352.436,34.169,352.557,33.854,352.975,33.589z"/>
</g>
</svg>
