<?xml version="1.0" encoding="utf-8"?>
<!-- Generator: Adobe Illustrator 16.0.0, SVG Export Plug-In . SVG Version: 6.00 Build 0)  -->
<!DOCTYPE svg PUBLIC "-//W3C//DTD SVG 1.1//EN" "http://www.w3.org/Graphics/SVG/1.1/DTD/svg11.dtd">
<svg version="1.1" id="Ebene_1" xmlns="http://www.w3.org/2000/svg" xmlns:xlink="http://www.w3.org/1999/xlink" x="0px" y="0px"
	 width="485px" height="122px" viewBox="0 0 485 122" enable-background="new 0 0 485 122" xml:space="preserve">
<g>
	<polygon fill="#1C2F3C" points="23.27,34.776 0,123 459.958,88.84 485,1 	"/>
	<g>
		<g>
			<defs>
				<rect id="SVGID_1_" y="1" width="485" height="122"/>
			</defs>
			<clipPath id="SVGID_2_">
				<use xlink:href="#SVGID_1_"  overflow="visible"/>
			</clipPath>
			<path clip-path="url(#SVGID_2_)" fill="none" stroke="#FDF4F1" stroke-width="1.552" stroke-miterlimit="7.483" d="
				M191.995,55.877c0.384,0.053,0.636-0.123,0.757-0.526c0.313-1.126,1.418-2.368,3.314-3.724c1.723-1.186,3.886-2.303,6.491-3.354
				c2.277-0.908,4.374-1.568,6.288-1.978c0.842-0.216,1.515-0.323,2.021-0.319c0.196-0.014,0.351-0.005,0.465,0.026
				c0.045,0.313-0.125,0.818-0.51,1.516c-0.434,0.78-1.06,1.731-1.879,2.853l-1.424,1.876c-0.538,0.669-1.031,1.265-1.476,1.789
				c-0.445,0.525-0.713,0.849-0.804,0.974c-7.514,9.561-13.477,17.336-17.886,23.325c-1.323,1.83-2.215,3.076-2.674,3.738
				c-0.61,0.989-1.068,1.831-1.376,2.522c-0.158,0.406-0.256,0.769-0.289,1.086c-0.046,0.438,0.036,0.768,0.247,0.989
				c0.386,0.406,1.196,0.666,2.433,0.774c0.93,0.056,2.121,0.031,3.574-0.07c2.08-0.146,4.135-0.407,6.162-0.786
				c1.072-0.192,2.17-0.428,3.289-0.703c1.116-0.235,2.385-0.532,3.807-0.889c1.42-0.354,2.51-0.618,3.269-0.79
				c0.362-0.104,0.533-0.344,0.515-0.717c-0.02-0.374-0.229-0.525-0.624-0.461c-0.72,0.17-1.79,0.433-3.21,0.787
				c-1.423,0.356-2.701,0.662-3.84,0.92c-1.138,0.257-2.204,0.479-3.197,0.668c-1.989,0.375-4.004,0.635-6.045,0.777
				c-1.375,0.096-2.508,0.116-3.397,0.061c-0.965-0.09-1.573-0.246-1.822-0.465l0.02-0.18c0.021-0.197,0.084-0.438,0.192-0.723
				c0.254-0.57,0.686-1.33,1.292-2.281c0.42-0.66,1.268-1.863,2.543-3.609c4.279-5.863,10.241-13.639,17.887-23.326
				c0.09-0.125,0.358-0.459,0.807-1.004l1.478-1.819l1.483-1.88c0.862-1.164,1.513-2.157,1.95-2.977
				c0.588-1.145,0.795-2.009,0.622-2.588c-0.088-0.27-0.284-0.454-0.585-0.551c-0.231-0.023-0.502-0.044-0.812-0.062
				c-0.585,0.002-1.337,0.114-2.257,0.335c-1.993,0.416-4.171,1.121-6.536,2.115c-2.645,1.053-4.891,2.216-6.738,3.489
				c-2.229,1.538-3.534,3.029-3.921,4.476C191.479,55.599,191.61,55.826,191.995,55.877z"/>
		</g>
		<g>
			<defs>
				<rect id="SVGID_3_" y="1" width="485" height="122"/>
			</defs>
			<clipPath id="SVGID_4_">
				<use xlink:href="#SVGID_3_"  overflow="visible"/>
			</clipPath>
			<path clip-path="url(#SVGID_4_)" fill="none" stroke="#FDF4F1" stroke-width="1.552" stroke-miterlimit="7.483" d="
				M231.954,47.815c-4.355,3.619-8.108,7.986-11.257,13.098c-3.148,5.112-5.337,10.356-6.563,15.728
				c-1.074,4.653-0.571,7.656,1.508,9.01c2.148,1.428,5.27,0.48,9.36-2.844c4.348-3.539,8.165-7.97,11.452-13.289
				c3.335-5.4,5.777-10.841,7.328-16.314c0.745-2.657,1.073-4.849,0.983-6.579c-0.123-1.806-0.697-3.009-1.727-3.608
				c-1.024-0.639-2.417-0.561-4.175,0.232c-1.752,0.715-3.764,2.059-6.037,4.033l-0.391,0.382
				C232.244,47.639,232.084,47.688,231.954,47.815z M227.937,53.779l2.762-2.916c1.094-1.141,2.046-2.037,2.855-2.685
				c2.146-1.886,4.017-3.181,5.61-3.884c1.386-0.571,2.445-0.645,3.181-0.223c0.734,0.422,1.144,1.361,1.226,2.815
				c0.111,1.531-0.202,3.585-0.94,6.162c-1.546,5.434-3.917,10.749-7.112,15.944c-3.24,5.236-6.947,9.541-11.121,12.908
				c-3.621,2.938-6.288,3.834-7.999,2.69c-0.768-0.498-1.253-1.431-1.46-2.799c-0.247-1.362-0.126-3.067,0.362-5.114
				c0.971-4.052,2.46-8.021,4.468-11.912c2.05-3.931,4.533-7.538,7.451-10.818C227.475,54.087,227.715,54.031,227.937,53.779z"/>
		</g>
		<g>
			<defs>
				<rect id="SVGID_5_" y="1" width="485" height="122"/>
			</defs>
			<clipPath id="SVGID_6_">
				<use xlink:href="#SVGID_5_"  overflow="visible"/>
			</clipPath>
			<path clip-path="url(#SVGID_6_)" fill="none" stroke="#FDF4F1" stroke-width="1.552" stroke-miterlimit="7.483" d="
				M257.459,51.004c0.202,0.302,0.473,0.322,0.812,0.062c2.316-1.662,4.709-3.644,7.172-5.947c0.82-0.768,1.4-1.282,1.74-1.542
				l-0.285,0.493c-0.402,0.857-1.002,1.925-1.797,3.204l-1.982,3.275c-0.745,1.157-1.219,1.94-1.416,2.348
				c-0.922,1.722-1.875,3.564-2.861,5.527l-2.396,5.02l-2.657,5.811l-2.228,5.066l-2.6,5.806c-1.291,3.011-2.042,4.778-2.253,5.308
				c-0.194,0.367-0.112,0.608,0.246,0.723c0.358,0.111,0.617-0.034,0.776-0.439c0.299-0.613,1.088-2.384,2.371-5.314l2.474-5.735
				l2.287-5.071c1.075-2.443,1.938-4.357,2.592-5.746l2.517-5.029l2.742-5.518c0.146-0.286,0.596-1.028,1.346-2.225l2.039-3.279
				c0.807-1.359,1.431-2.467,1.871-3.327c0.588-1.145,0.87-1.994,0.853-2.545c-0.021-0.196-0.103-0.348-0.245-0.457
				c-0.186-0.104-0.378-0.111-0.582-0.018c-0.122,0.048-0.229,0.134-0.32,0.259l-0.193,0.191l-0.065,0.064
				c-0.593,0.436-1.494,1.229-2.706,2.379c-2.29,2.134-4.637,4.073-7.042,5.819C257.325,50.422,257.257,50.703,257.459,51.004z"/>
		</g>
		<g>
			<defs>
				<rect id="SVGID_7_" y="1" width="485" height="122"/>
			</defs>
			<clipPath id="SVGID_8_">
				<use xlink:href="#SVGID_7_"  overflow="visible"/>
			</clipPath>
			<path clip-path="url(#SVGID_8_)" fill="none" stroke="#FDF4F1" stroke-width="1.552" stroke-miterlimit="7.483" d="
				M279.743,45.628c-0.099,0.382,0.044,0.599,0.429,0.651c0.926,0.093,2.691-0.208,5.299-0.903c1.766-0.479,4.219-1.203,7.36-2.172
				l6.771-2.131c0.965-0.264,1.701-0.434,2.217-0.51c0.277-0.058,0.498-0.094,0.654-0.105l0.178-0.012
				c0.029,0.077,0.062,0.134,0.099,0.17c-0.256,0.571-0.712,1.214-1.372,1.931l-0.979,0.956l-0.989,1.075
				c-3.937,4.813-6.866,8.589-8.79,11.327c-1.598,2.204-4.99,7.235-10.182,15.095c-0.646,0.952-1.564,2.457-2.754,4.512
				c-1.27,2.062-2.412,3.838-3.426,5.33c-1.015,1.492-2.07,2.827-3.169,4.01c-0.269,0.334-0.271,0.621-0.003,0.857
				c0.268,0.238,0.553,0.207,0.857-0.089c1.105-1.261,2.188-2.669,3.25-4.224c1.06-1.554,2.226-3.381,3.5-5.48
				c1.271-2.102,2.187-3.566,2.742-4.395c4.92-7.525,8.274-12.554,10.062-15.085c1.955-2.662,4.882-6.398,8.778-11.208l0.858-0.948
				l0.984-1.016c0.829-0.847,1.399-1.636,1.71-2.368c0.146-0.286,0.141-0.602-0.018-0.946c-0.098-0.19-0.235-0.358-0.414-0.504
				c-0.146-0.108-0.393-0.169-0.741-0.185c-0.196,0.014-0.474,0.054-0.83,0.118c-0.556,0.078-1.353,0.252-2.396,0.522
				c-0.723,0.209-2.979,0.919-6.771,2.131c-3.146,1.01-5.58,1.732-7.302,2.168c-2.406,0.641-4.055,0.934-4.944,0.878
				C280.064,45.064,279.842,45.247,279.743,45.628z"/>
		</g>
	</g>
	<g>
		<path fill="#FFFFFF" d="M191.601,55.196c0.386-1.447,1.69-2.938,3.919-4.476c1.849-1.274,4.094-2.438,6.739-3.49
			c2.364-0.994,4.543-1.698,6.536-2.115c0.92-0.221,1.673-0.333,2.257-0.335c0.311,0.018,0.581,0.039,0.812,0.062
			c0.301,0.097,0.496,0.281,0.585,0.551c0.173,0.58-0.035,1.444-0.623,2.589c-0.438,0.82-1.087,1.812-1.95,2.978l-1.483,1.879
			l-1.478,1.82c-0.447,0.544-0.716,0.878-0.807,1.002c-7.645,9.688-13.606,17.465-17.886,23.325
			c-1.275,1.748-2.123,2.951-2.544,3.611c-0.606,0.95-1.037,1.711-1.291,2.28c-0.108,0.284-0.173,0.524-0.193,0.724l-0.019,0.18
			c0.249,0.22,0.857,0.375,1.822,0.465c0.89,0.056,2.021,0.036,3.396-0.061c2.042-0.144,4.057-0.402,6.046-0.777
			c0.993-0.188,2.061-0.41,3.197-0.668c1.138-0.258,2.417-0.562,3.839-0.92c1.42-0.355,2.491-0.617,3.211-0.786
			c0.396-0.066,0.604,0.086,0.623,0.46c0.02,0.373-0.151,0.611-0.514,0.716c-0.759,0.173-1.849,0.437-3.27,0.791
			c-1.421,0.356-2.689,0.651-3.806,0.89c-1.121,0.275-2.217,0.51-3.289,0.702c-2.027,0.378-4.082,0.642-6.163,0.785
			c-1.452,0.103-2.644,0.126-3.574,0.073c-1.236-0.11-2.046-0.37-2.432-0.777c-0.21-0.222-0.293-0.551-0.247-0.988
			c0.033-0.317,0.13-0.68,0.29-1.086c0.306-0.69,0.765-1.533,1.376-2.522c0.458-0.663,1.349-1.909,2.673-3.737
			c4.41-5.99,10.371-13.766,17.886-23.326c0.091-0.126,0.358-0.449,0.804-0.974c0.443-0.524,0.936-1.121,1.475-1.791l1.425-1.875
			c0.819-1.123,1.445-2.073,1.878-2.854c0.385-0.697,0.555-1.202,0.511-1.515c-0.113-0.032-0.27-0.04-0.466-0.026
			c-0.506-0.003-1.18,0.102-2.021,0.32c-1.914,0.409-4.011,1.069-6.288,1.978c-2.605,1.05-4.77,2.167-6.492,3.353
			c-1.896,1.356-3.001,2.598-3.313,3.725c-0.121,0.402-0.374,0.578-0.757,0.526C191.61,55.826,191.479,55.6,191.601,55.196z"/>
		<path fill="#FFFFFF" d="M232.381,47.668l0.391-0.382c2.272-1.973,4.284-3.317,6.035-4.032c1.76-0.792,3.151-0.871,4.176-0.232
			c1.028,0.599,1.604,1.802,1.726,3.607c0.09,1.731-0.236,3.923-0.982,6.579c-1.552,5.475-3.994,10.914-7.328,16.315
			c-3.288,5.319-7.105,9.75-11.452,13.287c-4.092,3.325-7.213,4.271-9.361,2.846c-2.079-1.354-2.582-4.356-1.509-9.01
			c1.228-5.371,3.414-10.615,6.564-15.729c3.147-5.111,6.9-9.479,11.257-13.097C232.027,47.692,232.188,47.644,232.381,47.668z
			 M227.159,53.952c-2.917,3.281-5.4,6.888-7.451,10.817c-2.007,3.891-3.495,7.86-4.468,11.914c-0.488,2.047-0.608,3.75-0.361,5.113
			c0.207,1.368,0.693,2.301,1.459,2.799c1.712,1.145,4.378,0.247,8-2.689c4.174-3.368,7.88-7.672,11.12-12.91
			c3.197-5.194,5.567-10.509,7.114-15.943c0.739-2.577,1.051-4.631,0.939-6.164c-0.081-1.452-0.489-2.392-1.225-2.813
			c-0.735-0.422-1.797-0.348-3.18,0.222c-1.594,0.704-3.465,1.999-5.612,3.884c-0.809,0.649-1.761,1.544-2.854,2.686l-2.761,2.915
			C227.656,54.035,227.418,54.092,227.159,53.952z"/>
		<path fill="#FFFFFF" d="M257.607,50.165c2.403-1.745,4.752-3.686,7.041-5.819c1.213-1.149,2.115-1.941,2.705-2.378l0.065-0.062
			l0.196-0.192c0.09-0.124,0.195-0.21,0.318-0.258c0.203-0.094,0.397-0.088,0.582,0.018c0.146,0.109,0.227,0.261,0.245,0.457
			c0.019,0.551-0.265,1.399-0.853,2.545c-0.44,0.86-1.065,1.969-1.87,3.327L264,51.079c-0.749,1.198-1.197,1.94-1.346,2.225
			l-2.741,5.52l-2.517,5.027c-0.652,1.389-1.518,3.303-2.592,5.746l-2.287,5.07l-2.475,5.736c-1.283,2.932-2.072,4.703-2.371,5.314
			c-0.158,0.406-0.419,0.553-0.777,0.439c-0.357-0.113-0.439-0.354-0.244-0.723c0.209-0.528,0.961-2.297,2.254-5.308l2.598-5.805
			l2.229-5.068l2.656-5.81l2.397-5.02c0.985-1.962,1.94-3.805,2.86-5.527c0.198-0.407,0.67-1.19,1.416-2.347l1.981-3.275
			c0.797-1.278,1.396-2.348,1.799-3.204l0.284-0.494c-0.339,0.261-0.92,0.775-1.74,1.542c-2.463,2.303-4.855,4.285-7.172,5.947
			c-0.34,0.26-0.611,0.24-0.812-0.062C257.199,50.708,257.268,50.426,257.607,50.165z"/>
		<path fill="#FFFFFF" d="M280.357,45.083c0.889,0.056,2.537-0.237,4.943-0.878c1.721-0.436,4.155-1.158,7.303-2.167
			c3.789-1.212,6.049-1.922,6.771-2.131c1.043-0.27,1.84-0.444,2.394-0.522c0.357-0.062,0.635-0.104,0.832-0.118
			c0.35,0.017,0.596,0.078,0.739,0.186c0.181,0.146,0.318,0.313,0.415,0.503c0.159,0.345,0.164,0.661,0.018,0.947
			c-0.311,0.73-0.881,1.521-1.711,2.369l-0.982,1.015l-0.859,0.948c-3.896,4.81-6.822,8.546-8.777,11.208
			c-1.785,2.532-5.142,7.561-10.062,15.084c-0.555,0.83-1.469,2.293-2.74,4.396c-1.275,2.102-2.44,3.928-3.5,5.482
			c-1.062,1.552-2.145,2.961-3.25,4.221c-0.306,0.298-0.59,0.327-0.859,0.09c-0.266-0.238-0.266-0.523,0.005-0.857
			c1.098-1.183,2.153-2.52,3.169-4.01c1.014-1.492,2.154-3.267,3.424-5.328c1.189-2.058,2.107-3.561,2.755-4.515
			c5.191-7.858,8.585-12.89,10.181-15.094c1.926-2.738,4.855-6.513,8.791-11.327l0.99-1.075l0.979-0.957
			c0.657-0.716,1.116-1.359,1.372-1.93c-0.036-0.036-0.07-0.093-0.1-0.17l-0.179,0.012c-0.156,0.011-0.375,0.045-0.653,0.105
			c-0.516,0.076-1.254,0.246-2.218,0.51l-6.771,2.131c-3.142,0.97-5.596,1.692-7.36,2.171c-2.606,0.695-4.372,0.996-5.298,0.903
			c-0.385-0.051-0.527-0.268-0.43-0.65C279.783,45.251,280.008,45.068,280.357,45.083z"/>
	</g>
</g>
</svg>
