<?xml version="1.0" encoding="utf-8"?>
<!-- Generator: Adobe Illustrator 16.0.0, SVG Export Plug-In . SVG Version: 6.00 Build 0)  -->
<!DOCTYPE svg PUBLIC "-//W3C//DTD SVG 1.1//EN" "http://www.w3.org/Graphics/SVG/1.1/DTD/svg11.dtd">
<svg version="1.1" id="Ebene_1" xmlns="http://www.w3.org/2000/svg" xmlns:xlink="http://www.w3.org/1999/xlink" x="0px" y="0px"
	 width="510px" height="123px" viewBox="0 0 510 123" enable-background="new 0 0 510 123" xml:space="preserve">
<polygon fill="#1C2F3C" points="30.951,14.309 0,123 487.792,87.682 510,0 "/>
<g>
	<g>
		<defs>
			<rect id="SVGID_1_" width="510" height="123"/>
		</defs>
		<clipPath id="SVGID_2_">
			<use xlink:href="#SVGID_1_"  overflow="visible"/>
		</clipPath>
		<path clip-path="url(#SVGID_2_)" fill="none" stroke="#FCF3F0" stroke-width="1.552" stroke-miterlimit="7.483" d="
			M211.733,40.239c0.255-0.392,0.199-0.695-0.168-0.906c-3.587-1.84-6.535-1.791-8.843,0.146c-1.795,1.507-3.116,4.243-3.961,8.208
			c-0.574,2.487-1.02,5.99-1.339,10.51c-0.311,4.441-0.567,7.063-0.768,7.867c-1.142,4.932-2.858,9.018-5.147,12.256
			c-1.418,1.992-3.062,3.559-4.937,4.695c-1.873,1.137-3.711,1.748-5.513,1.836c-1.846,0.129-3.474-0.32-4.886-1.347
			c-1.412-1.024-2.394-2.623-2.945-4.795c-0.077-0.39-0.328-0.5-0.755-0.332c-0.427,0.168-0.584,0.465-0.473,0.892
			c0.605,2.403,1.703,4.182,3.298,5.334c1.589,1.188,3.444,1.711,5.565,1.562c2.076-0.104,4.155-0.793,6.238-2.062
			c2.082-1.271,3.88-2.984,5.393-5.144c2.463-3.405,4.278-7.696,5.445-12.867c0.21-0.883,0.471-3.563,0.787-8.046
			c0.311-4.439,0.731-7.883,1.261-10.326c0.808-3.607,1.979-6.037,3.514-7.289c1.756-1.503,4.206-1.457,7.352,0.137
			C211.183,40.743,211.477,40.632,211.733,40.239z"/>
	</g>
	<g>
		<defs>
			<rect id="SVGID_3_" width="510" height="123"/>
		</defs>
		<clipPath id="SVGID_4_">
			<use xlink:href="#SVGID_3_"  overflow="visible"/>
		</clipPath>
		<path clip-path="url(#SVGID_4_)" fill="none" stroke="#FCF3F0" stroke-width="1.552" stroke-miterlimit="7.483" d="M248.05,49.862
			c-0.327-0.214-0.629-0.134-0.901,0.241c-1.098,1.537-2.317,3.496-3.658,5.878l-2.59,4.62c-4.545,0.594-8.072,0.959-10.58,1.095
			c-2.196,0.114-4.088,0.128-5.676,0.042l12.248-20.86c0.237-0.412,0.17-0.703-0.201-0.875c-0.371-0.17-0.676-0.051-0.914,0.36
			c-1.731,3.12-5.865,10.196-12.403,21.228c-1.231-0.151-2.202-0.379-2.91-0.686c-0.372-0.171-0.677-0.05-0.915,0.359
			c-0.238,0.412-0.172,0.703,0.201,0.875c0.703,0.346,1.652,0.596,2.844,0.748c-4.646,7.861-8.336,14.414-11.069,19.654
			c-0.199,0.408-0.11,0.678,0.266,0.811c0.375,0.131,0.663-0.008,0.862-0.416c2.777-5.285,6.533-11.918,11.271-19.903
			c1.702,0.116,3.788,0.108,6.258-0.023c2.508-0.137,5.816-0.467,9.926-0.989l-14.26,24.434c-0.24,0.41-0.173,0.701,0.199,0.873
			c0.371,0.172,0.676,0.051,0.915-0.359l14.267-24.492l3.377-5.978c1.433-2.507,2.607-4.423,3.527-5.751
			C248.406,50.37,248.378,50.076,248.05,49.862z"/>
	</g>
	<g>
		<defs>
			<rect id="SVGID_5_" width="510" height="123"/>
		</defs>
		<clipPath id="SVGID_6_">
			<use xlink:href="#SVGID_5_"  overflow="visible"/>
		</clipPath>
		<path clip-path="url(#SVGID_6_)" fill="none" stroke="#FCF3F0" stroke-width="1.552" stroke-miterlimit="7.483" d="
			M267.279,39.343c2.351-1.979,4.471-3.331,6.359-4.055s3.45-0.853,4.688-0.388c1.499,0.567,2.476,2.037,2.928,4.412
			c0.412,2.379,0.111,5.615-0.903,9.711c-1.236,5.098-3.51,10.209-6.814,15.333c-3.307,5.123-7.062,9.153-11.268,12.092
			c-4.537,3.119-7.816,3.723-9.837,1.812c-0.881-0.885-1.442-2.227-1.682-4.024c-0.24-1.799-0.1-3.879,0.422-6.244
			c1.129-5.168,3.096-10.356,5.904-15.564c2.768-5.203,6.068-9.341,9.898-12.41C267.191,39.803,267.292,39.58,267.279,39.343z
			 M254.721,54.249c-2.242,4.654-3.854,9.226-4.832,13.714c-0.537,2.523-0.678,4.781-0.42,6.775
			c0.258,1.994,0.918,3.508,1.979,4.537c1.088,1.146,2.631,1.57,4.631,1.272c1.999-0.297,4.261-1.323,6.784-3.077
			c4.371-3.027,8.279-7.207,11.724-12.539c3.405-5.327,5.75-10.581,7.036-15.761c1.036-4.294,1.322-7.776,0.863-10.446
			s-1.627-4.355-3.502-5.053c-1.877-0.698-4.191-0.368-6.944,0.988c-2.755,1.357-5.743,3.648-8.966,6.871
			c-0.178,0.211-0.26,0.433-0.245,0.668C259.666,45.579,256.964,49.593,254.721,54.249z"/>
	</g>
	<g>
		<defs>
			<rect id="SVGID_7_" width="510" height="123"/>
		</defs>
		<clipPath id="SVGID_8_">
			<use xlink:href="#SVGID_7_"  overflow="visible"/>
		</clipPath>
		<path clip-path="url(#SVGID_8_)" fill="none" stroke="#FCF3F0" stroke-width="1.552" stroke-miterlimit="7.483" d="M295.74,56.114
			c-1.207,0.361-2.332,0.678-3.373,0.947c-0.44,0.11-0.645,0.381-0.611,0.812c0.034,0.431,0.27,0.593,0.71,0.482
			c0.683-0.205,1.509-0.439,2.472-0.705c-3.504,6.636-6.86,13.343-10.066,20.118c-0.198,0.405-0.109,0.678,0.268,0.811
			c0.375,0.129,0.662-0.008,0.861-0.416c3.354-7.061,6.855-14.053,10.507-20.976c3.738-1.091,7.331-2.268,10.777-3.535
			c3.245-1.213,5.977-2.352,8.192-3.414c2.668-1.291,4.525-2.447,5.567-3.467c1.92-1.949,2.319-3.91,1.202-5.885
			c-0.857-1.479-2.6-2.895-5.225-4.251c-2.222-1.106-4.699-2.019-7.429-2.735l1.136-1.915c0.238-0.41,0.172-0.701-0.199-0.873
			c-0.373-0.171-0.678-0.051-0.916,0.36l-1.278,2.161c-1.905-0.419-3.367-0.594-4.39-0.522c-0.432,0.03-0.67,0.264-0.717,0.701
			c-0.045,0.438,0.147,0.641,0.58,0.61c0.862-0.06,2.133,0.088,3.812,0.444C303.542,41.78,299.582,48.862,295.74,56.114z
			 M316.25,37.873c2.443,1.211,4.046,2.479,4.803,3.807c0.822,1.442,0.539,2.843-0.852,4.202c-0.878,0.93-2.587,1.997-5.131,3.2
			c-2.174,1.021-4.861,2.136-8.067,3.346c-3.041,1.121-6.252,2.193-9.635,3.218c3.694-6.965,7.512-13.801,11.45-20.509
			C311.594,35.811,314.07,36.722,316.25,37.873z"/>
	</g>
</g>
<g>
	<path fill="#FFFFFF" d="M210.85,40.567c-3.145-1.595-5.596-1.64-7.351-0.137c-1.534,1.251-2.707,3.681-3.514,7.289
		c-0.53,2.444-0.951,5.888-1.261,10.328c-0.316,4.479-0.577,7.162-0.787,8.043c-1.167,5.172-2.982,9.463-5.444,12.87
		c-1.513,2.157-3.312,3.871-5.393,5.142c-2.082,1.271-4.162,1.957-6.239,2.063c-2.12,0.147-3.975-0.374-5.565-1.563
		c-1.594-1.151-2.693-2.929-3.298-5.332c-0.11-0.428,0.047-0.724,0.474-0.894c0.428-0.167,0.679-0.056,0.755,0.332
		c0.55,2.173,1.533,3.771,2.945,4.795c1.412,1.026,3.04,1.476,4.887,1.347c1.801-0.088,3.64-0.699,5.512-1.836
		c1.875-1.139,3.519-2.703,4.938-4.695c2.289-3.236,4.004-7.322,5.146-12.256c0.202-0.804,0.457-3.426,0.77-7.865
		c0.318-4.521,0.765-8.022,1.338-10.51c0.845-3.965,2.165-6.701,3.961-8.208c2.308-1.936,5.255-1.983,8.843-0.145
		c0.367,0.211,0.423,0.514,0.167,0.906C211.477,40.632,211.184,40.743,210.85,40.567z"/>
	<path fill="#FFFFFF" d="M248.132,50.744c-0.92,1.328-2.095,3.246-3.528,5.752l-3.375,5.977l-14.267,24.492
		c-0.239,0.412-0.543,0.531-0.915,0.36c-0.372-0.173-0.439-0.464-0.2-0.874l14.261-24.434c-4.11,0.522-7.417,0.854-9.926,0.989
		c-2.469,0.134-4.556,0.142-6.258,0.022c-4.738,7.986-8.494,14.621-11.271,19.904c-0.199,0.407-0.487,0.547-0.862,0.416
		c-0.377-0.134-0.466-0.401-0.266-0.812c2.733-5.24,6.423-11.791,11.068-19.652c-1.191-0.153-2.141-0.403-2.844-0.749
		c-0.373-0.17-0.439-0.461-0.201-0.873c0.238-0.411,0.543-0.531,0.915-0.36c0.708,0.306,1.677,0.533,2.909,0.684
		c6.539-11.03,10.673-18.107,12.405-21.227c0.237-0.409,0.542-0.53,0.914-0.36c0.372,0.173,0.438,0.464,0.201,0.874l-12.249,20.861
		c1.589,0.086,3.48,0.072,5.676-0.042c2.508-0.135,6.035-0.5,10.58-1.095l2.59-4.62c1.341-2.381,2.562-4.342,3.658-5.878
		c0.274-0.375,0.574-0.454,0.903-0.241C248.377,50.076,248.405,50.37,248.132,50.744z"/>
	<path fill="#FFFFFF" d="M262.77,42.205c-0.016-0.237,0.065-0.458,0.246-0.668c3.223-3.224,6.211-5.514,8.965-6.872
		c2.752-1.356,5.067-1.686,6.943-0.989c1.875,0.698,3.042,2.382,3.503,5.053c0.46,2.671,0.173,6.153-0.864,10.446
		c-1.285,5.18-3.631,10.434-7.035,15.761c-3.444,5.332-7.353,9.512-11.723,12.539c-2.523,1.756-4.787,2.78-6.785,3.078
		c-2,0.297-3.543-0.128-4.63-1.273c-1.061-1.03-1.721-2.543-1.979-4.536c-0.259-1.995-0.117-4.254,0.42-6.776
		c0.978-4.488,2.588-9.059,4.831-13.713C256.904,49.598,259.607,45.583,262.77,42.205z M266.915,40.02
		c-3.83,3.07-7.131,7.208-9.897,12.411c-2.809,5.208-4.776,10.395-5.903,15.563c-0.523,2.365-0.664,4.445-0.423,6.244
		c0.239,1.799,0.8,3.141,1.682,4.025c2.021,1.909,5.299,1.307,9.837-1.812c4.206-2.938,7.961-6.969,11.269-12.092
		c3.306-5.124,5.578-10.233,6.813-15.333c1.017-4.096,1.315-7.332,0.903-9.71c-0.451-2.374-1.428-3.845-2.926-4.412
		c-1.237-0.465-2.801-0.336-4.688,0.387c-1.89,0.724-4.011,2.077-6.36,4.056C267.232,39.584,267.132,39.808,266.915,40.02z"/>
	<path fill="#FFFFFF" d="M307.562,34.87c-1.679-0.355-2.948-0.503-3.812-0.443c-0.434,0.03-0.625-0.173-0.579-0.611
		s0.284-0.671,0.718-0.702c1.021-0.071,2.482,0.104,4.389,0.521l1.279-2.161c0.236-0.41,0.543-0.53,0.914-0.359
		c0.37,0.172,0.438,0.463,0.199,0.874l-1.135,1.914c2.73,0.718,5.207,1.628,7.429,2.735c2.625,1.355,4.365,2.773,5.226,4.252
		c1.117,1.973,0.715,3.935-1.205,5.884c-1.041,1.02-2.897,2.177-5.566,3.467c-2.216,1.062-4.947,2.2-8.191,3.413
		c-3.447,1.269-7.039,2.446-10.778,3.536c-3.65,6.923-7.153,13.915-10.507,20.975c-0.198,0.407-0.486,0.547-0.862,0.416
		c-0.376-0.133-0.464-0.402-0.265-0.812c3.205-6.772,6.561-13.479,10.064-20.114c-0.963,0.265-1.787,0.5-2.472,0.706
		c-0.441,0.109-0.677-0.052-0.709-0.484c-0.033-0.431,0.17-0.702,0.61-0.812c1.041-0.27,2.168-0.585,3.375-0.945
		C299.521,48.868,303.482,41.784,307.562,34.87z M308.761,35.142c-3.94,6.707-7.757,13.543-11.45,20.508
		c3.381-1.025,6.594-2.097,9.633-3.218c3.205-1.21,5.896-2.326,8.07-3.346c2.543-1.203,4.252-2.27,5.131-3.199
		c1.39-1.359,1.672-2.76,0.851-4.203c-0.759-1.327-2.358-2.596-4.804-3.807C314.014,36.727,311.535,35.815,308.761,35.142z"/>
</g>
</svg>
