<?xml version="1.0" encoding="utf-8"?>
<!-- Generator: Adobe Illustrator 16.0.0, SVG Export Plug-In . SVG Version: 6.00 Build 0)  -->
<!DOCTYPE svg PUBLIC "-//W3C//DTD SVG 1.1//EN" "http://www.w3.org/Graphics/SVG/1.1/DTD/svg11.dtd">
<svg version="1.1" id="Ebene_1" xmlns="http://www.w3.org/2000/svg" xmlns:xlink="http://www.w3.org/1999/xlink" x="0px" y="0px"
	 width="510px" height="123px" viewBox="0 0 510 123" enable-background="new 0 0 510 123" xml:space="preserve">
<g>
	<polygon fill="#1C2F3C" points="30.951,14.309 0,123 487.792,87.682 510,0 	"/>
	<g>
		<g>
			<defs>
				<rect id="SVGID_1_" width="510" height="123"/>
			</defs>
			<clipPath id="SVGID_2_">
				<use xlink:href="#SVGID_1_"  overflow="visible"/>
			</clipPath>
			<path clip-path="url(#SVGID_2_)" fill="none" stroke="#FDF4F1" stroke-width="1.552" stroke-miterlimit="7.483" d="
				M111.869,67.314c3.245-1.213,5.976-2.352,8.193-3.414c2.668-1.291,4.525-2.447,5.567-3.467c1.92-1.948,2.32-3.91,1.203-5.884
				c-0.858-1.478-2.599-2.895-5.224-4.251c-2.222-1.107-4.699-2.018-7.429-2.735l1.136-1.915c0.238-0.41,0.171-0.701-0.2-0.873
				c-0.372-0.171-0.677-0.051-0.915,0.36l-1.28,2.161c-1.905-0.419-3.367-0.594-4.388-0.522c-0.432,0.03-0.671,0.264-0.717,0.701
				c-0.046,0.438,0.147,0.641,0.579,0.61c0.863-0.06,2.134,0.088,3.812,0.444c-4.079,6.914-8.039,13.997-11.88,21.249
				c-1.207,0.361-2.332,0.679-3.373,0.947c-0.441,0.11-0.645,0.381-0.612,0.812c0.033,0.434,0.269,0.594,0.71,0.482
				c0.683-0.205,1.507-0.438,2.471-0.705c-3.504,6.637-6.86,13.343-10.066,20.117c-0.199,0.406-0.11,0.678,0.266,0.81
				c0.376,0.131,0.663-0.009,0.862-0.416c4.271-8.74,7.747-15.673,10.429-20.793c0.414,0.88,0.883,1.794,1.407,2.743l1.426,2.562
				l1.714,2.604l1.609,2.492l1.832,2.594l1.687,2.31l1.838,2.533c0.923,1.237,1.485,2.008,1.687,2.31
				c0.241,0.299,0.542,0.307,0.903,0.026c0.361-0.283,0.443-0.595,0.245-0.937c-0.242-0.299-0.824-1.066-1.746-2.304l-1.785-2.479
				l-1.687-2.309l-1.838-2.535l-1.563-2.375c-0.673-1.02-1.225-1.888-1.655-2.607l-1.374-2.508l-1.419-2.623
				C105.64,69.467,108.832,68.396,111.869,67.314z M120.835,51.537c2.445,1.211,4.046,2.479,4.803,3.807
				c0.822,1.442,0.539,2.843-0.851,4.202c-0.878,0.93-2.587,1.997-5.13,3.2c-2.174,1.021-4.863,2.137-8.069,3.347
				c-3.041,1.121-6.252,2.192-9.634,3.218c3.694-6.965,7.511-13.801,11.451-20.509C116.179,49.476,118.656,50.387,120.835,51.537z"
				/>
		</g>
		<g>
			<defs>
				<rect id="SVGID_3_" width="510" height="123"/>
			</defs>
			<clipPath id="SVGID_4_">
				<use xlink:href="#SVGID_3_"  overflow="visible"/>
			</clipPath>
			<path clip-path="url(#SVGID_4_)" fill="none" stroke="#FDF4F1" stroke-width="1.552" stroke-miterlimit="7.483" d="
				M147.301,47.526c-0.307-0.235-0.615-0.184-0.922,0.153c-3.073,3.648-6.071,8.257-8.995,13.827
				c-2.92,5.531-4.986,10.529-6.195,14.993c-0.82,2.978-1.289,5.22-1.408,6.728c-0.281,3.412,0.57,5.324,2.553,5.739
				c2.294,0.431,4.917-0.424,7.87-2.563c1.939-1.396,3.977-3.354,6.113-5.871c2.174-2.521,4.244-5.248,6.21-8.188
				c1.965-2.938,3.814-6.075,5.549-9.413c1.734-3.337,3.21-6.34,4.426-9.01c1.216-2.669,2.601-5.834,4.155-9.493
				c0.198-0.408,0.099-0.668-0.299-0.779c-0.397-0.11-0.678,0.058-0.842,0.503c-1.55,3.621-2.943,6.766-4.178,9.436
				c-1.236,2.671-2.698,5.644-4.386,8.918c-1.689,3.274-3.505,6.362-5.446,9.259c-1.942,2.898-3.976,5.566-6.103,8.002
				c-2.084,2.396-4.035,4.27-5.852,5.618c-2.575,1.876-4.817,2.624-6.725,2.245c-1.416-0.256-1.999-1.754-1.75-4.494
				c0.107-1.388,0.568-3.551,1.384-6.488c1.201-4.383,3.235-9.281,6.104-14.69c2.837-5.485,5.766-9.991,8.787-13.516
				C147.625,48.066,147.607,47.762,147.301,47.526z"/>
		</g>
		<g>
			<defs>
				<rect id="SVGID_5_" width="510" height="123"/>
			</defs>
			<clipPath id="SVGID_6_">
				<use xlink:href="#SVGID_5_"  overflow="visible"/>
			</clipPath>
			<path clip-path="url(#SVGID_6_)" fill="none" stroke="#FDF4F1" stroke-width="1.552" stroke-miterlimit="7.483" d="
				M199.465,55.449c0.371,0.172,0.676,0.052,0.915-0.36c0.432-0.779,0.748-1.374,0.947-1.782l0.882-1.719
				c0.437-0.82,0.753-1.512,0.95-2.079c0.195-0.566,0.399-1.212,0.612-1.937c0.213-0.725,0.355-1.425,0.426-2.101
				c0.071-0.675,0.061-1.326-0.029-1.951c-0.249-1.718-1.123-2.663-2.625-2.835c-1.157-0.116-2.657,0.245-4.499,1.084
				c-1.354,0.648-2.747,1.475-4.178,2.482c-1.431,1.008-2.535,1.874-3.313,2.599c-4.536,4.224-8.945,9.267-13.224,15.129
				c-4.28,5.863-7.539,11.457-9.774,16.782c-2.163,5.005-2.474,8.341-0.935,10.009c0.843,0.888,2.116,1.192,3.821,0.916
				c1.666-0.274,3.739-1.09,6.221-2.447c2.027-1.129,4.634-2.75,7.819-4.867c3.811-2.516,8.312-5.85,13.504-9.998
				c0.343-0.301,0.405-0.609,0.185-0.932c-0.22-0.318-0.519-0.349-0.897-0.086c-5.235,4.194-9.697,7.524-13.386,9.992
				c-3.059,2.028-5.622,3.608-7.689,4.739c-2.316,1.267-4.228,2.03-5.737,2.295c-1.308,0.21-2.241-0.001-2.798-0.633
				c-1.188-1.299-0.844-4.202,1.033-8.714c2.218-5.165,5.424-10.639,9.618-16.416c4.228-5.74,8.588-10.7,13.081-14.881
				c0.69-0.64,1.71-1.441,3.059-2.403c1.348-0.962,2.679-1.765,3.995-2.41c1.558-0.74,2.799-1.044,3.72-0.912
				c0.965,0.091,1.52,0.743,1.666,1.955c0.102,0.506,0.123,1.057,0.06,1.653c-0.063,0.597-0.186,1.217-0.371,1.861
				s-0.373,1.23-0.565,1.756c-0.192,0.526-0.48,1.138-0.865,1.836l-0.882,1.719c-0.203,0.449-0.519,1.042-0.947,1.782
				C199.026,54.987,199.093,55.278,199.465,55.449z"/>
		</g>
		<g>
			<defs>
				<rect id="SVGID_7_" width="510" height="123"/>
			</defs>
			<clipPath id="SVGID_8_">
				<use xlink:href="#SVGID_7_"  overflow="visible"/>
			</clipPath>
			<path clip-path="url(#SVGID_8_)" fill="none" stroke="#FDF4F1" stroke-width="1.552" stroke-miterlimit="7.483" d="
				M233.333,80.307c0.238-0.412,0.171-0.703-0.2-0.875c-0.674-0.269-1.395-0.632-2.166-1.092l-1.706-1.006
				c-0.404-0.246-1.095-0.712-2.075-1.393l-1.8-1.236c-0.583-0.393-2.39-1.549-5.423-3.469c-2.084-1.312-3.741-2.42-4.971-3.32
				l3.289-6.267c0.841-0.216,1.8-0.441,2.877-0.675c2.154-0.466,4.665-0.997,7.534-1.592c2.987-0.603,4.659-0.937,5.016-1.002
				c0.44-0.109,0.644-0.38,0.612-0.812c-0.033-0.431-0.27-0.592-0.709-0.483c-0.324,0.102-1.976,0.444-4.961,1.027
				c-2.984,0.585-5.515,1.106-7.589,1.567l-1.982,0.494c4.127-7.746,8.41-15.305,12.849-22.679c0.238-0.41,0.171-0.701-0.201-0.873
				c-0.372-0.171-0.677-0.051-0.914,0.359c-4.586,7.66-9.017,15.507-13.29,23.538c-1.56,0.386-2.864,0.733-3.91,1.043
				c-1.124,0.315-1.993,0.613-2.607,0.892c-0.371,0.186-0.68,0.345-0.928,0.48c-0.335,0.221-0.554,0.452-0.658,0.696
				c-0.147,0.285-0.182,0.625-0.106,1.013c0.093,0.229,0.242,0.478,0.448,0.738c0.308,0.412,0.763,0.895,1.369,1.442
				c0.539,0.437,1.278,0.997,2.22,1.681c-2.499,4.869-4.927,9.794-7.282,14.771c-0.199,0.408-0.11,0.679,0.266,0.81
				c0.375,0.132,0.663-0.007,0.862-0.414l7.133-14.467c0.977,0.722,2.581,1.772,4.813,3.155c2.779,1.738,4.587,2.896,5.424,3.468
				c0.179,0.146,0.759,0.56,1.74,1.239l2.128,1.449c0.402,0.248,0.999,0.592,1.792,1.027c0.791,0.439,1.522,0.812,2.191,1.119
				C232.79,80.835,233.095,80.716,233.333,80.307z M210.666,64.018c0.13-0.127,0.337-0.24,0.62-0.34
				c0.614-0.279,1.444-0.574,2.49-0.886c0.841-0.216,1.824-0.481,2.949-0.797l-2.712,5.221c-0.801-0.536-1.452-1.022-1.951-1.463
				c-0.574-0.472-0.98-0.878-1.217-1.217c-0.136-0.187-0.218-0.341-0.244-0.456l0.006-0.061L210.666,64.018z"/>
		</g>
		<g>
			<defs>
				<rect id="SVGID_9_" width="510" height="123"/>
			</defs>
			<clipPath id="SVGID_10_">
				<use xlink:href="#SVGID_9_"  overflow="visible"/>
			</clipPath>
			<path clip-path="url(#SVGID_10_)" fill="none" stroke="#FDF4F1" stroke-width="1.552" stroke-miterlimit="7.483" d="
				M237.169,90.246c0.423-0.129,0.615-0.389,0.579-0.78c-0.334-3.134,0.275-6.786,1.824-10.959
				c1.549-4.171,3.768-8.509,6.659-13.012c2.655-4.131,5.588-8.026,8.799-11.683c3.209-3.657,6.193-6.548,8.951-8.675
				c2.805-2.208,5.779-4.014,8.93-5.418c4.25-1.875,7.123-2.135,8.617-0.78c0.531,0.516,0.738,1.33,0.621,2.442
				c-0.301,2.862-2.537,5.958-6.707,9.287c-1.487,1.17-3.34,2.483-5.559,3.94l-4.953,3.187c-1.973,1.322-3.654,2.308-5.047,2.957
				l-0.06,0.004l-0.294,0.021c-0.201,0.054-0.364,0.124-0.49,0.212c-0.252,0.176-0.413,0.404-0.48,0.685l-0.013,0.119
				c-0.053,0.122-0.062,0.221-0.03,0.298c0.049,0.273,0.209,0.42,0.479,0.44l0.294-0.021c0.043-0.042,0.085-0.064,0.124-0.066
				l0.124-0.068c0.418-0.266,1.116-0.61,2.098-1.034c1.872-0.761,3.48-1.229,4.823-1.403c2.369-0.284,4.368-0.028,6,0.765
				c1.93,0.93,2.566,2.464,1.914,4.602c-0.538,1.773-1.938,3.409-4.199,4.909c-2.015,1.364-4.615,2.571-7.806,3.623
				c-2.746,0.902-5.526,1.59-8.343,2.063c-2.861,0.516-5.208,0.776-7.04,0.787c-0.429-0.01-0.685,0.205-0.77,0.646
				s0.086,0.665,0.514,0.674c1.911-0.015,4.336-0.282,7.276-0.805c2.894-0.479,5.756-1.19,8.585-2.14
				c3.354-1.142,6.077-2.396,8.171-3.768c2.601-1.76,4.228-3.708,4.882-5.846c0.838-2.781,0.014-4.774-2.469-5.982
				c-1.816-0.899-4.049-1.176-6.693-0.834c-0.276,0.019-0.572,0.06-0.891,0.121l4.889-3.123c2.215-1.417,4.09-2.751,5.623-4.004
				c4.557-3.671,7.004-7.118,7.342-10.338c0.16-1.51-0.172-2.631-0.99-3.363c-1.846-1.725-5.143-1.514-9.889,0.632
				c-3.231,1.45-6.33,3.304-9.295,5.563c-2.801,2.169-5.84,5.123-9.117,8.864c-3.278,3.741-6.269,7.718-8.971,11.931
				c-2.942,4.625-5.224,9.096-6.847,13.411c-1.623,4.313-2.258,8.137-1.907,11.467C236.5,90.223,236.747,90.374,237.169,90.246z"/>
		</g>
		<g>
			<defs>
				<rect id="SVGID_11_" width="510" height="123"/>
			</defs>
			<clipPath id="SVGID_12_">
				<use xlink:href="#SVGID_11_"  overflow="visible"/>
			</clipPath>
			<path clip-path="url(#SVGID_12_)" fill="none" stroke="#FDF4F1" stroke-width="1.552" stroke-miterlimit="7.483" d="
				M311.178,31.065c-0.371-0.171-0.678-0.051-0.914,0.36l-5.363,9.312l-6.361,11.571l-5.141,9.415
				c-1.879,3.407-3.037,5.541-3.479,6.398c-0.696,1.432-1.216,2.67-1.562,3.72c-0.447,1.295-0.608,2.272-0.482,2.935
				c0.299,1.598,1.123,2.467,2.475,2.607c1.033,0.164,2.414-0.169,4.139-1c1.188-0.556,2.824-1.479,4.91-2.769
				c3.123-1.915,4.791-2.94,5-3.073c0.412-0.225,0.543-0.529,0.388-0.914c-0.155-0.384-0.438-0.463-0.853-0.236
				c-0.621,0.359-2.311,1.404-5.064,3.137c-2.041,1.248-3.616,2.146-4.727,2.697c-1.517,0.697-2.658,0.996-3.428,0.892
				c-0.807-0.101-1.31-0.698-1.507-1.789c-0.106-0.466,0.013-1.224,0.356-2.272c0.336-0.972,0.847-2.132,1.535-3.481
				c0.254-0.57,1.393-2.681,3.414-6.334l5.146-9.475l6.296-11.507l5.422-9.316C311.615,31.528,311.548,31.237,311.178,31.065z"/>
		</g>
		<g>
			<defs>
				<rect id="SVGID_13_" width="510" height="123"/>
			</defs>
			<clipPath id="SVGID_14_">
				<use xlink:href="#SVGID_13_"  overflow="visible"/>
			</clipPath>
			<path clip-path="url(#SVGID_14_)" fill="none" stroke="#FDF4F1" stroke-width="1.552" stroke-miterlimit="7.483" d="
				M338.387,29.163c-0.371-0.171-0.677-0.051-0.914,0.36c-8.887,14.825-17.135,30.257-24.744,46.295
				c-0.199,0.408-0.11,0.68,0.266,0.812c0.376,0.131,0.664-0.008,0.863-0.416c8.498-17.441,16.74-32.834,24.729-46.176
				C338.824,29.625,338.758,29.334,338.387,29.163z"/>
		</g>
		<g>
			<defs>
				<rect id="SVGID_15_" width="510" height="123"/>
			</defs>
			<clipPath id="SVGID_16_">
				<use xlink:href="#SVGID_15_"  overflow="visible"/>
			</clipPath>
			<path clip-path="url(#SVGID_16_)" fill="none" stroke="#FDF4F1" stroke-width="1.552" stroke-miterlimit="7.483" d="
				M371.145,43.443c0.371,0.172,0.676,0.052,0.916-0.36c0.432-0.779,0.748-1.374,0.946-1.782l0.882-1.719
				c0.438-0.82,0.754-1.512,0.949-2.079c0.195-0.566,0.398-1.212,0.612-1.937c0.213-0.725,0.354-1.425,0.426-2.101
				c0.071-0.675,0.062-1.326-0.028-1.951c-0.248-1.718-1.123-2.663-2.625-2.835c-1.156-0.116-2.656,0.245-4.498,1.084
				c-1.354,0.648-2.748,1.475-4.18,2.482c-1.432,1.008-2.534,1.874-3.312,2.599c-4.535,4.224-8.944,9.267-13.224,15.129
				c-4.28,5.863-7.539,11.457-9.774,16.782c-2.162,5.004-2.474,8.34-0.935,10.009c0.843,0.887,2.115,1.192,3.82,0.916
				c1.666-0.275,3.739-1.091,6.222-2.447c2.026-1.129,4.635-2.75,7.818-4.867c3.812-2.516,8.312-5.85,13.504-9.999
				c0.344-0.3,0.404-0.61,0.186-0.931c-0.221-0.319-0.52-0.348-0.896-0.085c-5.234,4.194-9.696,7.524-13.387,9.991
				c-3.059,2.029-5.621,3.608-7.688,4.74c-2.315,1.267-4.228,2.03-5.735,2.295c-1.31,0.21-2.242-0.001-2.799-0.634
				c-1.188-1.299-0.845-4.201,1.032-8.713c2.22-5.165,5.425-10.638,9.618-16.417c4.229-5.74,8.588-10.7,13.081-14.882
				c0.69-0.64,1.71-1.441,3.06-2.403c1.348-0.962,2.68-1.765,3.994-2.41c1.559-0.74,2.801-1.044,3.721-0.912
				c0.965,0.091,1.521,0.743,1.666,1.955c0.103,0.506,0.123,1.057,0.061,1.653c-0.062,0.597-0.186,1.217-0.371,1.861
				s-0.373,1.23-0.564,1.756s-0.479,1.138-0.865,1.836l-0.881,1.719c-0.203,0.449-0.521,1.042-0.949,1.782
				C370.705,42.981,370.771,43.272,371.145,43.443z"/>
		</g>
		<g>
			<defs>
				<rect id="SVGID_17_" width="510" height="123"/>
			</defs>
			<clipPath id="SVGID_18_">
				<use xlink:href="#SVGID_17_"  overflow="visible"/>
			</clipPath>
			<path clip-path="url(#SVGID_18_)" fill="none" stroke="#FDF4F1" stroke-width="1.552" stroke-miterlimit="7.483" d="
				M405.014,68.301c0.236-0.41,0.17-0.701-0.201-0.874c-0.674-0.269-1.395-0.633-2.166-1.093l-1.705-1.005
				c-0.404-0.247-1.096-0.712-2.075-1.394l-1.8-1.235c-0.582-0.394-2.391-1.549-5.424-3.468c-2.084-1.313-3.74-2.421-4.971-3.321
				l3.289-6.267c0.841-0.216,1.8-0.441,2.877-0.675c2.153-0.466,4.665-0.997,7.533-1.592c2.986-0.603,4.658-0.937,5.018-1.002
				c0.438-0.109,0.644-0.38,0.61-0.812c-0.032-0.431-0.271-0.592-0.709-0.483c-0.323,0.102-1.976,0.444-4.961,1.027
				c-2.983,0.585-5.515,1.106-7.589,1.567l-1.981,0.494c4.128-7.746,8.41-15.305,12.849-22.679c0.238-0.41,0.172-0.701-0.2-0.873
				c-0.372-0.171-0.677-0.051-0.914,0.359c-4.586,7.66-9.017,15.507-13.29,23.538c-1.561,0.386-2.863,0.733-3.909,1.043
				c-1.124,0.315-1.993,0.613-2.606,0.892c-0.371,0.184-0.681,0.344-0.929,0.479c-0.335,0.221-0.555,0.453-0.657,0.697
				c-0.147,0.286-0.183,0.625-0.106,1.013c0.094,0.23,0.241,0.477,0.448,0.738c0.308,0.413,0.763,0.894,1.369,1.443
				c0.539,0.436,1.277,0.997,2.22,1.68c-2.499,4.87-4.927,9.793-7.282,14.772c-0.198,0.408-0.109,0.679,0.268,0.81
				c0.375,0.131,0.662-0.007,0.861-0.415L386.01,57.2c0.977,0.721,2.581,1.772,4.812,3.155c2.779,1.739,4.587,2.896,5.424,3.468
				c0.18,0.146,0.76,0.56,1.74,1.239l2.128,1.448c0.401,0.249,0.999,0.593,1.792,1.028c0.791,0.439,1.521,0.812,2.191,1.119
				C404.471,68.83,404.773,68.71,405.014,68.301z M382.346,52.011c0.131-0.127,0.338-0.24,0.62-0.339
				c0.613-0.28,1.443-0.575,2.489-0.885c0.842-0.216,1.824-0.482,2.949-0.798l-2.713,5.221c-0.801-0.536-1.451-1.023-1.95-1.462
				c-0.573-0.472-0.979-0.878-1.218-1.217c-0.135-0.188-0.217-0.34-0.243-0.456l0.006-0.06L382.346,52.011z"/>
		</g>
	</g>
	<g>
		<path fill="#FFFFFF" d="M102.294,70.531l1.42,2.621l1.374,2.51c0.429,0.72,0.982,1.589,1.655,2.605l1.562,2.377l1.839,2.535
			l1.687,2.309l1.786,2.479c0.922,1.237,1.503,2.004,1.745,2.307c0.198,0.341,0.116,0.649-0.245,0.933
			c-0.361,0.282-0.662,0.272-0.904-0.024c-0.202-0.303-0.764-1.07-1.686-2.309l-1.837-2.536l-1.688-2.308l-1.831-2.596l-1.61-2.492
			l-1.713-2.602l-1.426-2.564c-0.525-0.948-0.994-1.862-1.408-2.741c-2.682,5.12-6.158,12.052-10.428,20.793
			c-0.2,0.407-0.487,0.547-0.863,0.416c-0.376-0.134-0.465-0.402-0.265-0.812c3.205-6.773,6.562-13.479,10.065-20.115
			c-0.963,0.265-1.788,0.5-2.472,0.705c-0.441,0.109-0.677-0.051-0.709-0.482c-0.033-0.432,0.169-0.702,0.611-0.812
			c1.042-0.27,2.167-0.586,3.374-0.945c3.84-7.252,7.8-14.335,11.879-21.25c-1.678-0.355-2.949-0.503-3.812-0.443
			c-0.433,0.03-0.625-0.173-0.579-0.611s0.285-0.671,0.717-0.702c1.021-0.071,2.482,0.104,4.388,0.522l1.28-2.161
			c0.237-0.41,0.542-0.53,0.914-0.36c0.371,0.172,0.438,0.463,0.201,0.874l-1.137,1.915c2.731,0.717,5.208,1.628,7.43,2.735
			c2.625,1.355,4.366,2.773,5.224,4.252c1.117,1.973,0.717,3.935-1.203,5.884c-1.042,1.02-2.898,2.177-5.568,3.466
			c-2.216,1.062-4.947,2.201-8.192,3.414C108.833,68.396,105.641,69.469,102.294,70.531z M113.406,48.803
			c-3.94,6.707-7.757,13.543-11.452,20.51c3.382-1.026,6.593-2.099,9.634-3.22c3.205-1.21,5.894-2.325,8.068-3.347
			c2.543-1.202,4.253-2.27,5.131-3.199c1.39-1.359,1.673-2.76,0.851-4.203c-0.758-1.327-2.358-2.596-4.804-3.807
			C118.657,50.388,116.181,49.477,113.406,48.803z"/>
		<path fill="#FFFFFF" d="M147.353,48.441c-3.022,3.525-5.951,8.031-8.787,13.516c-2.869,5.409-4.904,10.307-6.105,14.689
			c-0.815,2.938-1.277,5.103-1.383,6.489c-0.249,2.739,0.334,4.238,1.75,4.494c1.909,0.379,4.15-0.37,6.725-2.246
			c1.817-1.35,3.769-3.223,5.852-5.618c2.127-2.437,4.161-5.104,6.103-8.002c1.942-2.896,3.757-5.981,5.445-9.258
			c1.69-3.274,3.151-6.247,4.388-8.918c1.234-2.671,2.628-5.816,4.178-9.437c0.164-0.445,0.445-0.612,0.842-0.502
			s0.496,0.37,0.298,0.778c-1.554,3.659-2.939,6.824-4.155,9.493c-1.216,2.67-2.692,5.673-4.426,9.012
			c-1.734,3.336-3.583,6.475-5.548,9.412c-1.967,2.939-4.036,5.668-6.21,8.188c-2.135,2.516-4.173,4.474-6.113,5.872
			c-2.954,2.14-5.576,2.994-7.87,2.562c-1.982-0.415-2.834-2.325-2.553-5.739c0.119-1.508,0.589-3.75,1.409-6.728
			c1.208-4.465,3.274-9.462,6.194-14.993c2.924-5.569,5.922-10.179,8.995-13.827c0.308-0.336,0.616-0.387,0.922-0.153
			C147.608,47.763,147.625,48.067,147.353,48.441z"/>
		<path fill="#FFFFFF" d="M199.265,54.576c0.429-0.741,0.744-1.334,0.947-1.782l0.883-1.719c0.384-0.697,0.673-1.309,0.866-1.836
			c0.191-0.525,0.379-1.111,0.564-1.755c0.184-0.643,0.308-1.264,0.37-1.861c0.062-0.596,0.042-1.147-0.059-1.653
			c-0.147-1.212-0.702-1.864-1.666-1.955c-0.921-0.132-2.162,0.171-3.72,0.912c-1.316,0.646-2.647,1.448-3.996,2.41
			c-1.349,0.962-2.368,1.763-3.059,2.403c-4.494,4.181-8.853,9.142-13.082,14.882c-4.193,5.778-7.399,11.251-9.617,16.416
			c-1.878,4.511-2.221,7.414-1.033,8.714c0.557,0.631,1.49,0.842,2.798,0.632c1.508-0.263,3.421-1.028,5.737-2.294
			c2.067-1.133,4.631-2.712,7.689-4.74c3.689-2.468,8.151-5.799,13.387-9.992c0.377-0.262,0.676-0.233,0.897,0.086
			c0.218,0.32,0.157,0.631-0.186,0.931c-5.192,4.149-9.693,7.483-13.504,10c-3.185,2.116-5.792,3.737-7.818,4.867
			c-2.482,1.356-4.555,2.173-6.221,2.446c-1.705,0.277-2.979-0.027-3.821-0.916c-1.54-1.668-1.228-5.004,0.936-10.008
			c2.235-5.326,5.492-10.921,9.773-16.783c4.278-5.861,8.688-10.904,13.224-15.128c0.779-0.726,1.882-1.592,3.314-2.6
			c1.43-1.007,2.823-1.833,4.177-2.481c1.842-0.839,3.343-1.201,4.5-1.084c1.502,0.172,2.377,1.116,2.625,2.835
			c0.089,0.625,0.1,1.275,0.029,1.95c-0.071,0.677-0.212,1.376-0.425,2.102c-0.213,0.725-0.417,1.371-0.613,1.937
			c-0.196,0.566-0.513,1.259-0.949,2.079l-0.883,1.718c-0.199,0.409-0.515,1.003-0.947,1.783c-0.239,0.411-0.543,0.531-0.914,0.359
			C199.093,55.279,199.026,54.988,199.265,54.576z"/>
		<path fill="#FFFFFF" d="M232.361,80.671c-0.67-0.31-1.401-0.681-2.193-1.12c-0.792-0.437-1.389-0.779-1.791-1.029l-2.127-1.447
			c-0.98-0.68-1.562-1.094-1.741-1.239c-0.836-0.571-2.645-1.729-5.424-3.469c-2.232-1.382-3.836-2.435-4.812-3.155l-7.133,14.467
			c-0.199,0.407-0.487,0.547-0.863,0.416c-0.376-0.133-0.464-0.402-0.265-0.812c2.355-4.978,4.783-9.9,7.283-14.772
			c-0.943-0.683-1.683-1.242-2.221-1.679c-0.605-0.55-1.061-1.03-1.368-1.442c-0.207-0.262-0.356-0.509-0.449-0.738
			c-0.077-0.39-0.041-0.728,0.106-1.014c0.103-0.244,0.321-0.477,0.658-0.697c0.248-0.135,0.557-0.295,0.927-0.479
			c0.615-0.279,1.483-0.578,2.608-0.892c1.045-0.311,2.349-0.659,3.91-1.043c4.273-8.032,8.704-15.878,13.289-23.539
			c0.238-0.41,0.543-0.53,0.915-0.359c0.371,0.172,0.438,0.463,0.2,0.874c-4.438,7.373-8.722,14.932-12.848,22.677l1.982-0.493
			c2.074-0.46,4.604-0.982,7.589-1.567c2.984-0.583,4.637-0.924,4.959-1.027c0.441-0.108,0.676,0.052,0.709,0.483
			c0.033,0.433-0.172,0.703-0.612,0.812c-0.357,0.065-2.029,0.399-5.015,1.001c-2.869,0.596-5.38,1.126-7.535,1.592
			c-1.077,0.233-2.036,0.458-2.877,0.674l-3.289,6.267c1.23,0.901,2.887,2.009,4.971,3.322c3.032,1.918,4.84,3.075,5.424,3.468
			l1.799,1.236c0.98,0.681,1.672,1.146,2.074,1.394l1.707,1.005c0.771,0.459,1.493,0.822,2.166,1.09
			c0.372,0.174,0.439,0.465,0.2,0.875C233.037,80.721,232.732,80.842,232.361,80.671z M210.549,64.025l-0.006,0.061
			c0.027,0.116,0.108,0.27,0.245,0.456c0.237,0.338,0.642,0.744,1.216,1.217c0.499,0.439,1.15,0.927,1.952,1.462L216.667,62
			c-1.125,0.316-2.108,0.582-2.95,0.799c-1.045,0.309-1.875,0.604-2.49,0.885c-0.283,0.099-0.488,0.211-0.619,0.34L210.549,64.025z"
			/>
		<path fill="#FFFFFF" d="M236.369,89.8c-0.351-3.329,0.283-7.149,1.907-11.466c1.623-4.316,3.905-8.786,6.847-13.412
			c2.702-4.212,5.692-8.189,8.97-11.931c3.278-3.741,6.316-6.694,9.117-8.864c2.966-2.259,6.063-4.114,9.296-5.563
			c4.747-2.146,8.043-2.357,9.889-0.631c0.819,0.732,1.15,1.854,0.991,3.362c-0.338,3.22-2.786,6.667-7.343,10.338
			c-1.534,1.253-3.41,2.587-5.624,4.004l-4.888,3.123c0.316-0.061,0.613-0.102,0.889-0.121c2.646-0.342,4.878-0.064,6.694,0.833
			c2.483,1.208,3.308,3.202,2.471,5.983c-0.653,2.138-2.282,4.087-4.883,5.846c-2.095,1.37-4.817,2.626-8.172,3.768
			c-2.828,0.947-5.689,1.66-8.585,2.14c-2.94,0.521-5.365,0.789-7.275,0.806c-0.429-0.01-0.599-0.234-0.514-0.675
			c0.085-0.438,0.341-0.655,0.77-0.646c1.832-0.01,4.179-0.271,7.039-0.789c2.817-0.471,5.598-1.16,8.344-2.062
			c3.188-1.052,5.791-2.26,7.807-3.622c2.262-1.5,3.662-3.138,4.199-4.912c0.652-2.136,0.015-3.669-1.914-4.601
			c-1.633-0.793-3.631-1.047-6-0.764c-1.342,0.173-2.951,0.641-4.823,1.402c-0.979,0.424-1.681,0.769-2.097,1.035l-0.125,0.067
			c-0.039,0.003-0.08,0.026-0.123,0.067l-0.295,0.021c-0.271-0.02-0.432-0.167-0.479-0.439c-0.03-0.076-0.021-0.176,0.031-0.299
			l0.013-0.119c0.068-0.28,0.229-0.508,0.48-0.684c0.125-0.088,0.289-0.158,0.49-0.212l0.295-0.021l0.06-0.004
			c1.392-0.65,3.073-1.636,5.046-2.957l4.953-3.188c2.219-1.458,4.072-2.771,5.559-3.94c4.17-3.33,6.405-6.425,6.706-9.288
			c0.117-1.112-0.09-1.925-0.62-2.442c-1.494-1.354-4.367-1.094-8.617,0.78c-3.149,1.404-6.125,3.211-8.93,5.419
			c-2.759,2.127-5.74,5.018-8.951,8.675c-3.211,3.657-6.144,7.553-8.799,11.683c-2.891,4.504-5.11,8.841-6.659,13.013
			c-1.549,4.172-2.158,7.824-1.824,10.961c0.036,0.389-0.157,0.649-0.58,0.777C236.688,90.38,236.441,90.229,236.369,89.8z"/>
		<path fill="#FFFFFF" d="M311.26,31.949l-5.422,9.316l-6.295,11.507l-5.148,9.475c-2.021,3.653-3.158,5.767-3.412,6.336
			c-0.688,1.351-1.198,2.51-1.534,3.479c-0.345,1.052-0.464,1.809-0.356,2.273c0.197,1.092,0.699,1.688,1.508,1.788
			c0.769,0.104,1.909-0.19,3.426-0.89c1.109-0.551,2.687-1.451,4.729-2.699c2.754-1.73,4.441-2.775,5.064-3.135
			c0.412-0.227,0.697-0.147,0.852,0.236c0.154,0.383,0.023,0.688-0.389,0.915c-0.209,0.132-1.874,1.156-4.999,3.071
			c-2.085,1.29-3.722,2.212-4.909,2.77c-1.725,0.83-3.105,1.164-4.141,1c-1.351-0.143-2.174-1.011-2.474-2.608
			c-0.126-0.662,0.035-1.64,0.483-2.933c0.345-1.052,0.863-2.291,1.56-3.722c0.441-0.858,1.601-2.991,3.479-6.397l5.142-9.416
			l6.361-11.571l5.362-9.312c0.236-0.41,0.543-0.53,0.916-0.36C311.432,31.247,311.497,31.538,311.26,31.949z"/>
		<path fill="#FFFFFF" d="M338.471,30.046c-7.99,13.342-16.232,28.735-24.73,46.177c-0.199,0.407-0.486,0.547-0.862,0.416
			c-0.376-0.133-0.465-0.402-0.265-0.812c7.609-16.038,15.855-31.47,24.742-46.295c0.236-0.41,0.543-0.53,0.914-0.359
			S338.707,29.635,338.471,30.046z"/>
		<path fill="#FFFFFF" d="M370.826,42.579c0.429-0.74,0.744-1.333,0.947-1.782l0.883-1.719c0.385-0.697,0.673-1.31,0.865-1.837
			c0.19-0.525,0.379-1.111,0.564-1.755c0.184-0.643,0.307-1.265,0.37-1.861c0.062-0.596,0.042-1.146-0.06-1.652
			c-0.146-1.212-0.701-1.864-1.666-1.955c-0.922-0.132-2.162,0.171-3.721,0.912c-1.316,0.645-2.646,1.448-3.996,2.41
			c-1.349,0.962-2.367,1.763-3.059,2.403c-4.494,4.181-8.854,9.142-13.082,14.882c-4.191,5.778-7.398,11.25-9.617,16.417
			c-1.876,4.51-2.221,7.413-1.033,8.713c0.559,0.631,1.49,0.843,2.799,0.634c1.508-0.265,3.42-1.029,5.736-2.296
			c2.067-1.132,4.631-2.711,7.689-4.739c3.688-2.469,8.15-5.799,13.386-9.993c0.378-0.263,0.677-0.234,0.897,0.086
			c0.219,0.32,0.156,0.629-0.187,0.93c-5.192,4.15-9.692,7.484-13.504,10c-3.185,2.117-5.791,3.738-7.817,4.867
			c-2.482,1.357-4.556,2.173-6.223,2.447c-1.705,0.276-2.979-0.028-3.82-0.916c-1.539-1.668-1.228-5.006,0.937-10.01
			c2.233-5.325,5.491-10.918,9.772-16.782c4.278-5.862,8.688-10.904,13.223-15.128c0.779-0.725,1.884-1.591,3.314-2.6
			c1.432-1.007,2.823-1.834,4.178-2.481c1.842-0.839,3.342-1.201,4.5-1.084c1.502,0.172,2.377,1.116,2.625,2.835
			c0.088,0.625,0.1,1.276,0.027,1.951c-0.07,0.677-0.213,1.376-0.426,2.101c-0.213,0.726-0.417,1.371-0.612,1.937
			c-0.196,0.566-0.513,1.259-0.948,2.079l-0.883,1.718c-0.199,0.408-0.516,1.003-0.947,1.783c-0.239,0.411-0.543,0.531-0.914,0.359
			S370.587,42.992,370.826,42.579z"/>
		<path fill="#FFFFFF" d="M403.923,68.674c-0.671-0.308-1.401-0.681-2.192-1.119c-0.793-0.438-1.39-0.779-1.791-1.029l-2.129-1.448
			c-0.979-0.681-1.562-1.095-1.739-1.239c-0.837-0.57-2.646-1.729-5.425-3.468c-2.231-1.382-3.836-2.433-4.812-3.155L378.7,71.68
			c-0.198,0.408-0.486,0.547-0.862,0.418c-0.376-0.134-0.464-0.404-0.265-0.812c2.354-4.977,4.782-9.901,7.282-14.773
			c-0.943-0.682-1.684-1.243-2.222-1.679c-0.604-0.55-1.061-1.03-1.368-1.444c-0.207-0.261-0.354-0.507-0.449-0.737
			c-0.075-0.389-0.041-0.727,0.106-1.014c0.104-0.244,0.322-0.476,0.658-0.697c0.248-0.136,0.558-0.295,0.927-0.479
			c0.615-0.279,1.483-0.578,2.608-0.892c1.046-0.311,2.349-0.659,3.909-1.043c4.273-8.031,8.703-15.878,13.289-23.538
			c0.237-0.41,0.543-0.53,0.916-0.359c0.369,0.171,0.438,0.462,0.199,0.874c-4.438,7.374-8.722,14.933-12.849,22.678l1.981-0.493
			c2.074-0.46,4.604-0.982,7.59-1.567c2.982-0.583,4.637-0.924,4.959-1.027c0.44-0.108,0.677,0.052,0.709,0.483
			c0.033,0.433-0.172,0.703-0.611,0.812c-0.355,0.064-2.029,0.398-5.016,1.001c-2.868,0.596-5.379,1.126-7.534,1.592
			c-1.076,0.233-2.035,0.458-2.878,0.674l-3.287,6.267c1.229,0.901,2.887,2.008,4.971,3.322c3.032,1.918,4.84,3.076,5.424,3.468
			l1.799,1.236c0.98,0.681,1.672,1.146,2.074,1.394l1.707,1.004c0.771,0.461,1.493,0.823,2.165,1.092
			c0.372,0.174,0.438,0.465,0.2,0.875C404.598,68.725,404.294,68.846,403.923,68.674z M382.109,52.03l-0.006,0.06
			c0.026,0.117,0.108,0.269,0.244,0.456c0.237,0.338,0.644,0.744,1.217,1.217c0.5,0.439,1.15,0.926,1.953,1.461l2.711-5.22
			c-1.125,0.316-2.107,0.582-2.949,0.798c-1.045,0.309-1.875,0.604-2.49,0.885c-0.283,0.099-0.488,0.212-0.619,0.339L382.109,52.03z
			"/>
	</g>
	<g>
		<g>
			<defs>
				<rect id="SVGID_19_" width="510" height="123"/>
			</defs>
			<clipPath id="SVGID_20_">
				<use xlink:href="#SVGID_19_"  overflow="visible"/>
			</clipPath>
			<path clip-path="url(#SVGID_20_)" fill="#FDF4F1" d="M163.456,37.355c-0.004-0.31-0.156-0.548-0.458-0.714
				c-0.221-0.162-0.509-0.231-0.864-0.205c-0.313,0.028-0.562,0.097-0.746,0.207c-0.371,0.181-0.533,0.447-0.484,0.797
				c-0.024,0.388,0.222,0.726,0.739,1.015c0.735,0.414,1.328,0.396,1.781-0.054c0.316-0.299,0.329-0.628,0.04-0.988L163.456,37.355z
				"/>
		</g>
		<g>
			<defs>
				<rect id="SVGID_21_" width="510" height="123"/>
			</defs>
			<clipPath id="SVGID_22_">
				<use xlink:href="#SVGID_21_"  overflow="visible"/>
			</clipPath>
			<path clip-path="url(#SVGID_22_)" fill="#FFFFFF" stroke="#FFFFFF" stroke-width="0.776" stroke-miterlimit="7.483" d="
				M163.456,37.355c-0.004-0.31-0.156-0.548-0.458-0.714c-0.221-0.162-0.509-0.231-0.864-0.205
				c-0.313,0.028-0.562,0.097-0.746,0.207c-0.371,0.181-0.533,0.447-0.484,0.797c-0.024,0.388,0.222,0.726,0.739,1.015
				c0.735,0.414,1.328,0.396,1.781-0.054c0.316-0.299,0.329-0.628,0.04-0.988L163.456,37.355z"/>
		</g>
		<g>
			<defs>
				<rect id="SVGID_23_" width="510" height="123"/>
			</defs>
			<clipPath id="SVGID_24_">
				<use xlink:href="#SVGID_23_"  overflow="visible"/>
			</clipPath>
			<path clip-path="url(#SVGID_24_)" fill="#FDF4F1" d="M154.394,36.325l-0.12-0.004c-0.074,0.036-0.131,0.053-0.171,0.052
				c-0.274,0.03-0.475,0.081-0.605,0.153c-0.128,0.074-0.221,0.187-0.28,0.34c-0.092,0.191-0.085,0.385,0.022,0.582
				c0.119,0.276,0.377,0.557,0.774,0.842c0.534,0.407,0.997,0.442,1.387,0.106c0.287-0.222,0.4-0.547,0.339-0.977
				c-0.082-0.584-0.388-0.924-0.918-1.021c-0.045-0.04-0.088-0.061-0.128-0.063L154.394,36.325z"/>
		</g>
		<g>
			<defs>
				<rect id="SVGID_25_" width="510" height="123"/>
			</defs>
			<clipPath id="SVGID_26_">
				<use xlink:href="#SVGID_25_"  overflow="visible"/>
			</clipPath>
			<path clip-path="url(#SVGID_26_)" fill="none" stroke="#FFFFFF" stroke-width="0.776" stroke-miterlimit="7.483" d="
				M154.394,36.325l-0.12-0.004c-0.074,0.036-0.131,0.053-0.171,0.052c-0.274,0.03-0.475,0.081-0.605,0.153
				c-0.128,0.074-0.221,0.187-0.28,0.34c-0.092,0.191-0.085,0.385,0.022,0.582c0.119,0.276,0.377,0.557,0.774,0.842
				c0.534,0.407,0.997,0.442,1.387,0.106c0.287-0.222,0.4-0.547,0.339-0.977c-0.082-0.584-0.388-0.924-0.918-1.021
				c-0.045-0.04-0.088-0.061-0.128-0.063L154.394,36.325z"/>
		</g>
	</g>
</g>
</svg>
