<?xml version="1.0" encoding="utf-8"?>
<!-- Generator: Adobe Illustrator 16.0.0, SVG Export Plug-In . SVG Version: 6.00 Build 0)  -->
<!DOCTYPE svg PUBLIC "-//W3C//DTD SVG 1.1//EN" "http://www.w3.org/Graphics/SVG/1.1/DTD/svg11.dtd">
<svg version="1.1" id="Ebene_1" xmlns="http://www.w3.org/2000/svg" xmlns:xlink="http://www.w3.org/1999/xlink" x="0px" y="0px"
	 width="485px" height="122px" viewBox="0 0 485 122" enable-background="new 0 0 485 122" xml:space="preserve">
<g>
	<polygon fill="#1C2F3C" points="23.27,34.227 0,122.45 459.958,88.29 485,0.45 	"/>
	<g>
		<g>
			<defs>
				<rect id="SVGID_1_" y="0.45" width="485" height="122"/>
			</defs>
			<clipPath id="SVGID_2_">
				<use xlink:href="#SVGID_1_"  overflow="visible"/>
			</clipPath>
			<path clip-path="url(#SVGID_2_)" fill="none" stroke="#FDF4F1" stroke-width="1.552" stroke-miterlimit="7.483" d="
				M116.889,49.039c-0.372-0.171-0.677-0.052-0.915,0.359l-5.363,9.312l-6.361,11.569l-5.141,9.416
				c-1.878,3.406-3.037,5.539-3.478,6.397c-0.697,1.431-1.216,2.671-1.561,3.72c-0.448,1.295-0.609,2.272-0.483,2.935
				c0.3,1.599,1.123,2.467,2.473,2.608c1.035,0.164,2.415-0.17,4.139-1c1.189-0.557,2.825-1.479,4.91-2.77
				c3.124-1.915,4.791-2.939,5-3.072c0.413-0.226,0.543-0.531,0.388-0.914c-0.155-0.385-0.439-0.463-0.852-0.238
				c-0.622,0.361-2.31,1.406-5.065,3.138c-2.041,1.248-3.616,2.146-4.727,2.696c-1.515,0.699-2.657,0.996-3.426,0.893
				c-0.807-0.102-1.31-0.697-1.507-1.789c-0.107-0.466,0.012-1.223,0.356-2.273c0.336-0.971,0.847-2.131,1.535-3.48
				c0.255-0.57,1.393-2.682,3.414-6.334l5.146-9.477l6.296-11.506l5.422-9.315C117.327,49.502,117.26,49.211,116.889,49.039z"/>
		</g>
		<g>
			<defs>
				<rect id="SVGID_3_" y="0.45" width="485" height="122"/>
			</defs>
			<clipPath id="SVGID_4_">
				<use xlink:href="#SVGID_3_"  overflow="visible"/>
			</clipPath>
			<path clip-path="url(#SVGID_4_)" fill="none" stroke="#FDF4F1" stroke-width="1.552" stroke-miterlimit="7.483" d="
				M134.654,53.005c2.351-1.979,4.471-3.331,6.36-4.056c1.888-0.724,3.451-0.852,4.688-0.387c1.499,0.567,2.476,2.037,2.928,4.412
				c0.412,2.378,0.111,5.615-0.904,9.709c-1.237,5.099-3.509,10.209-6.815,15.332c-3.306,5.125-7.062,9.155-11.268,12.092
				c-4.537,3.119-7.816,3.723-9.837,1.812c-0.881-0.886-1.442-2.227-1.681-4.025c-0.241-1.797-0.1-3.879,0.422-6.244
				c1.128-5.168,3.095-10.354,5.904-15.562c2.768-5.204,6.068-9.342,9.898-12.41C134.566,53.465,134.667,53.24,134.654,53.005z
				 M122.096,67.909c-2.243,4.655-3.855,9.228-4.832,13.714c-0.538,2.523-0.678,4.781-0.42,6.775
				c0.258,1.994,0.917,3.508,1.978,4.537c1.088,1.146,2.631,1.571,4.631,1.274c1.999-0.299,4.261-1.324,6.784-3.078
				c4.371-3.028,8.279-7.208,11.724-12.539c3.405-5.327,5.75-10.581,7.036-15.762c1.036-4.294,1.323-7.775,0.864-10.446
				c-0.46-2.67-1.628-4.355-3.503-5.053c-1.876-0.697-4.191-0.367-6.944,0.988c-2.755,1.357-5.743,3.648-8.966,6.871
				c-0.178,0.211-0.26,0.434-0.245,0.668C127.041,59.239,124.339,63.255,122.096,67.909z"/>
		</g>
		<g>
			<defs>
				<rect id="SVGID_5_" y="0.45" width="485" height="122"/>
			</defs>
			<clipPath id="SVGID_6_">
				<use xlink:href="#SVGID_5_"  overflow="visible"/>
			</clipPath>
			<path clip-path="url(#SVGID_6_)" fill="none" stroke="#FDF4F1" stroke-width="1.552" stroke-miterlimit="7.483" d="
				M183.452,60.956c0.371,0.172,0.676,0.052,0.915-0.36c0.432-0.779,0.748-1.374,0.947-1.782l0.882-1.719
				c0.437-0.82,0.753-1.512,0.95-2.079c0.195-0.566,0.399-1.212,0.612-1.937c0.213-0.726,0.355-1.426,0.426-2.102
				c0.071-0.675,0.061-1.326-0.029-1.951c-0.249-1.718-1.123-2.663-2.625-2.835c-1.157-0.115-2.657,0.245-4.499,1.084
				c-1.354,0.648-2.747,1.476-4.178,2.482c-1.431,1.008-2.535,1.874-3.313,2.599c-4.536,4.225-8.945,9.268-13.224,15.128
				c-4.28,5.863-7.539,11.457-9.774,16.783c-2.162,5.004-2.474,8.34-0.935,10.008c0.843,0.889,2.116,1.192,3.821,0.916
				c1.666-0.273,3.739-1.09,6.221-2.446c2.027-1.129,4.634-2.75,7.819-4.867c3.811-2.517,8.312-5.851,13.504-9.999
				c0.343-0.3,0.405-0.609,0.185-0.932c-0.22-0.318-0.519-0.348-0.897-0.086c-5.235,4.195-9.697,7.524-13.386,9.992
				c-3.059,2.028-5.622,3.608-7.689,4.739c-2.316,1.267-4.228,2.031-5.737,2.296c-1.308,0.209-2.241-0.002-2.798-0.634
				c-1.188-1.298-0.844-4.202,1.033-8.713c2.218-5.165,5.424-10.64,9.618-16.416c4.228-5.74,8.588-10.7,13.081-14.882
				c0.69-0.641,1.71-1.441,3.059-2.403c1.348-0.962,2.679-1.765,3.995-2.41c1.558-0.74,2.799-1.044,3.72-0.912
				c0.965,0.091,1.52,0.743,1.666,1.955c0.102,0.506,0.123,1.057,0.06,1.653c-0.063,0.596-0.186,1.217-0.371,1.86
				c-0.185,0.645-0.373,1.23-0.565,1.757c-0.192,0.525-0.48,1.138-0.865,1.836l-0.882,1.719c-0.203,0.449-0.519,1.042-0.947,1.782
				C183.013,60.494,183.08,60.785,183.452,60.956z"/>
		</g>
		<g>
			<defs>
				<rect id="SVGID_7_" y="0.45" width="485" height="122"/>
			</defs>
			<clipPath id="SVGID_8_">
				<use xlink:href="#SVGID_7_"  overflow="visible"/>
			</clipPath>
			<path clip-path="url(#SVGID_8_)" fill="none" stroke="#FDF4F1" stroke-width="1.552" stroke-miterlimit="7.483" d="
				M227.579,53.846c0.004-0.039,0.053-0.143,0.149-0.306l1.321-3.111c0.815-2.188,1.125-3.846,0.932-4.979
				c-0.147-0.817-0.536-1.392-1.163-1.723c-0.629-0.331-1.461-0.381-2.498-0.151c-1.317,0.29-2.699,0.83-4.146,1.621
				c-1.448,0.792-2.639,1.557-3.573,2.292c-0.936,0.737-2.046,1.663-3.332,2.778c-5.664,4.934-10.876,10.763-15.636,17.487
				c-2.238-1.697-3.834-3.203-4.787-4.52c-0.307-0.411-0.696-0.424-1.165-0.036c-0.47,0.389-0.551,0.788-0.243,1.2
				c1.058,1.427,2.779,3.041,5.161,4.849c-1.66,2.444-3.273,5.003-4.841,7.677c-1.654,2.76-3.293,6.109-4.914,10.051
				c-1.049,2.559-1.687,4.557-1.917,5.993c-0.134,0.916-0.114,1.644,0.063,2.185c0.313,0.729,0.882,1.063,1.707,1.006
				c0.549-0.038,0.854-0.336,0.912-0.893c0.059-0.557-0.187-0.815-0.737-0.776c-0.157,0.012-0.249-0.042-0.275-0.158
				c-0.124-0.308-0.133-0.78-0.027-1.418c0.212-1.278,0.795-3.114,1.749-5.509c1.566-3.778,3.158-7.065,4.778-9.862
				c1.515-2.553,3.099-5.013,4.75-7.375c2.649,1.866,6.179,4.065,10.59,6.599c0.442,0.245,0.825,0.119,1.151-0.377
				c0.324-0.496,0.266-0.867-0.176-1.111c-4.411-2.533-7.921-4.732-10.531-6.604c4.674-6.64,9.777-12.362,15.31-17.168
				c1.972-1.716,3.755-3.104,5.348-4.162c1.592-1.059,3.205-1.763,4.841-2.114c0.675-0.126,1.162-0.12,1.46,0.016
				c0.257,0.141,0.425,0.405,0.501,0.795c0.144,0.857-0.136,2.219-0.838,4.083c-0.268,0.689-0.601,1.442-0.998,2.259
				c-0.004,0.04-0.084,0.243-0.239,0.608l-0.065,0.064l-0.013,0.119l-0.071,0.123c0.004-0.039,0.027-0.08,0.071-0.123l-0.071,0.123
				l-0.143,0.247l-1.973,3.748l-0.006,0.06c-0.386,0.698-0.623,1.109-0.714,1.233c-0.346,0.695-0.905,1.74-1.674,3.136l-1.734,3.139
				L208.65,86.536l-2.128,4.114c-0.199,0.408-0.322,0.654-0.369,0.735l-0.065,0.063l-0.013,0.119
				c-0.048,0.082-0.073,0.144-0.078,0.184c-0.028,0.633,0.279,0.869,0.92,0.705c0.2-0.055,0.366-0.145,0.496-0.271
				c0.005-0.039,0.028-0.08,0.072-0.123L207.55,92l0.078-0.184l6.787-12.844c0.004-0.039,0.027-0.082,0.071-0.125l5.936-11.423
				l4.97-9.462c0.004-0.039,0.026-0.062,0.065-0.063L227.579,53.846z"/>
		</g>
		<g>
			<defs>
				<rect id="SVGID_9_" y="0.45" width="485" height="122"/>
			</defs>
			<clipPath id="SVGID_10_">
				<use xlink:href="#SVGID_9_"  overflow="visible"/>
			</clipPath>
			<path clip-path="url(#SVGID_10_)" fill="none" stroke="#FDF4F1" stroke-width="1.552" stroke-miterlimit="7.483" d="
				M239.806,46.806c0.176,0.363,0.451,0.434,0.826,0.209c1.001-0.622,2.734-1.177,5.203-1.666c2.147-0.426,4.781-0.808,7.896-1.144
				l0.058-0.004c-7.883,13.452-15.229,27.342-22.034,41.667c-0.199,0.407-0.11,0.679,0.266,0.81
				c0.375,0.131,0.663-0.007,0.862-0.414c6.906-14.529,14.367-28.604,22.386-42.226c1.653-0.154,5.778-0.463,12.375-0.924
				c0.432-0.031,0.672-0.265,0.717-0.702c0.047-0.438-0.146-0.641-0.578-0.61c-6.36,0.445-10.271,0.738-11.727,0.879l1.559-2.595
				c0.238-0.41,0.17-0.702-0.201-0.873s-0.676-0.051-0.913,0.359l-1.923,3.271l-0.766,0.053c-3.193,0.343-5.865,0.727-8.015,1.152
				c-2.629,0.539-4.505,1.144-5.628,1.814C239.751,46.129,239.63,46.443,239.806,46.806z"/>
		</g>
		<g>
			<defs>
				<rect id="SVGID_11_" y="0.45" width="485" height="122"/>
			</defs>
			<clipPath id="SVGID_12_">
				<use xlink:href="#SVGID_11_"  overflow="visible"/>
			</clipPath>
			<path clip-path="url(#SVGID_12_)" fill="none" stroke="#FDF4F1" stroke-width="1.552" stroke-miterlimit="7.483" d="
				M286.802,37.157c-0.372-0.171-0.678-0.051-0.915,0.36C277,52.342,268.752,67.773,261.145,83.812
				c-0.199,0.408-0.111,0.679,0.265,0.811c0.376,0.131,0.664-0.008,0.862-0.416c8.498-17.439,16.742-32.834,24.729-46.176
				C287.24,37.62,287.174,37.329,286.802,37.157z"/>
		</g>
		<g>
			<defs>
				<rect id="SVGID_13_" y="0.45" width="485" height="122"/>
			</defs>
			<clipPath id="SVGID_14_">
				<use xlink:href="#SVGID_13_"  overflow="visible"/>
			</clipPath>
			<path clip-path="url(#SVGID_14_)" fill="none" stroke="#FDF4F1" stroke-width="1.552" stroke-miterlimit="7.483" d="
				M304.566,41.123c2.352-1.979,4.472-3.331,6.36-4.055c1.888-0.725,3.45-0.853,4.688-0.388c1.498,0.567,2.477,2.037,2.928,4.412
				c0.412,2.378,0.111,5.615-0.904,9.71c-1.236,5.099-3.509,10.209-6.813,15.332c-3.308,5.124-7.062,9.155-11.269,12.093
				c-4.537,3.117-7.815,3.723-9.838,1.812c-0.882-0.886-1.441-2.226-1.681-4.024c-0.241-1.799-0.101-3.88,0.422-6.244
				c1.128-5.17,3.095-10.355,5.903-15.563c2.769-5.204,6.068-9.341,9.897-12.41C304.479,41.583,304.58,41.359,304.566,41.123z
				 M292.01,56.028c-2.244,4.654-3.855,9.227-4.832,13.714c-0.539,2.521-0.679,4.781-0.421,6.775
				c0.259,1.993,0.917,3.508,1.978,4.537c1.09,1.146,2.633,1.57,4.633,1.273c1.999-0.299,4.261-1.324,6.783-3.078
				c4.371-3.027,8.279-7.208,11.725-12.539c3.404-5.327,5.75-10.581,7.036-15.761c1.036-4.294,1.321-7.776,0.862-10.447
				c-0.459-2.67-1.627-4.354-3.502-5.052c-1.877-0.698-4.19-0.368-6.943,0.988c-2.755,1.356-5.743,3.647-8.967,6.87
				c-0.178,0.212-0.26,0.434-0.244,0.668C296.954,47.358,294.252,51.373,292.01,56.028z"/>
		</g>
		<g>
			<defs>
				<rect id="SVGID_15_" y="0.45" width="485" height="122"/>
			</defs>
			<clipPath id="SVGID_16_">
				<use xlink:href="#SVGID_15_"  overflow="visible"/>
			</clipPath>
			<path clip-path="url(#SVGID_16_)" fill="none" stroke="#FDF4F1" stroke-width="1.552" stroke-miterlimit="7.483" d="
				M319.797,79.771c0.424,0.049,0.697-0.147,0.822-0.59c0.382-1.408,0.931-2.926,1.646-4.555c0.762-1.671,1.41-3.038,1.951-4.104
				c0.54-1.062,1.377-2.631,2.512-4.701c1.133-2.071,1.875-3.455,2.221-4.15c2.426-4.55,4.117-7.666,5.074-9.352l3.316-5.973
				c0.43-0.74,1.422-2.408,2.98-5.002l1.832-2.969c0.013,0.63-0.2,2.283-0.637,4.957c-1.253,7.821-2.312,15.865-3.181,24.132
				c-0.017,0.16-0.067,0.549-0.151,1.165c-0.086,0.618-0.166,1.205-0.244,1.763c-0.078,0.56-0.16,1.254-0.248,2.09
				c-0.088,1.189-0.071,2.156,0.045,2.896c0.119,1.096,0.464,1.723,1.031,1.881c0.375,0.133,0.795,0.024,1.262-0.324
				c0.296-0.219,0.644-0.559,1.043-1.021c0.58-0.711,1.291-1.728,2.133-3.049c0.421-0.66,0.865-1.384,1.339-2.165l1.153-2.094
				l0.639-1.051l5.061-8.641l5.545-9.383l5.067-8.167l5.791-8.929c0.277-0.413,0.24-0.716-0.108-0.908
				c-0.352-0.192-0.644-0.104-0.875,0.268c-1.845,2.694-3.793,5.671-5.852,8.932l-5.08,8.286l-5.611,9.447l-5.053,8.58
				c-0.048,0.083-0.24,0.431-0.578,1.047c-0.338,0.615-0.74,1.294-1.207,2.037l-1.279,2.161c-0.797,1.277-1.463,2.232-1.996,2.861
				c-0.313,0.377-0.573,0.633-0.782,0.766c-0.004,0.04-0.026,0.061-0.065,0.062c-0.141-0.146-0.242-0.476-0.306-0.983
				c-0.09-0.624-0.095-1.513-0.013-2.662c0.084-0.795,0.164-1.472,0.242-2.03c0.078-0.557,0.16-1.144,0.244-1.763
				c0.084-0.617,0.135-1.005,0.151-1.164c0.793-7.552,1.849-15.557,3.167-24.015c0.479-3.07,0.691-5.117,0.646-6.141l0.013-0.119
				c0.016-0.159,0.009-0.275-0.022-0.354c0.019-0.158-0.008-0.295-0.074-0.409c-0.162-0.304-0.401-0.425-0.721-0.364
				c-0.158,0.011-0.303,0.102-0.438,0.269l-0.131,0.127c-0.088,0.086-0.176,0.189-0.268,0.314c-0.178,0.21-0.408,0.562-0.693,1.055
				l-1.898,3.032c-1.562,2.636-2.559,4.322-2.986,5.062l-3.318,5.973c-0.957,1.686-2.651,4.842-5.088,9.47l-2.237,4.063l-2.492,4.79
				c-0.579,1.066-1.243,2.465-1.989,4.193c-0.746,1.729-1.33,3.3-1.753,4.709C319.223,79.475,319.374,79.721,319.797,79.771z"/>
		</g>
		<g>
			<defs>
				<rect id="SVGID_17_" y="0.45" width="485" height="122"/>
			</defs>
			<clipPath id="SVGID_18_">
				<use xlink:href="#SVGID_17_"  overflow="visible"/>
			</clipPath>
			<path clip-path="url(#SVGID_18_)" fill="none" stroke="#FDF4F1" stroke-width="1.552" stroke-miterlimit="7.483" d="
				M397.143,31.661c0.256-0.393,0.198-0.695-0.168-0.906c-3.588-1.84-6.535-1.792-8.844,0.145c-1.795,1.508-3.115,4.243-3.961,8.208
				c-0.574,2.487-1.021,5.99-1.339,10.511c-0.312,4.44-0.567,7.062-0.769,7.866c-1.143,4.933-2.857,9.018-5.146,12.256
				c-1.418,1.991-3.062,3.558-4.938,4.694c-1.873,1.138-3.711,1.748-5.514,1.836c-1.846,0.129-3.475-0.319-4.886-1.346
				c-1.412-1.025-2.394-2.624-2.945-4.795c-0.077-0.389-0.327-0.5-0.755-0.332c-0.427,0.168-0.584,0.465-0.475,0.891
				c0.605,2.404,1.705,4.184,3.3,5.334c1.589,1.189,3.444,1.713,5.565,1.563c2.074-0.106,4.153-0.794,6.236-2.063
				c2.082-1.271,3.88-2.983,5.395-5.143c2.463-3.406,4.276-7.697,5.443-12.868c0.211-0.882,0.473-3.563,0.787-8.045
				c0.312-4.439,0.73-7.883,1.262-10.327c0.809-3.607,1.979-6.037,3.514-7.289c1.757-1.503,4.207-1.457,7.353,0.138
				C396.593,32.164,396.886,32.054,397.143,31.661z"/>
		</g>
	</g>
	<g>
		<path fill="#FFFFFF" d="M117.089,49.915l-5.422,9.315l-6.295,11.506l-5.147,9.476c-2.021,3.654-3.159,5.767-3.413,6.335
			c-0.688,1.35-1.199,2.512-1.535,3.48c-0.345,1.051-0.464,1.808-0.356,2.272c0.196,1.093,0.7,1.688,1.507,1.789
			c0.769,0.104,1.91-0.192,3.425-0.891c1.111-0.552,2.687-1.45,4.728-2.698c2.754-1.73,4.442-2.775,5.065-3.135
			c0.413-0.227,0.697-0.148,0.853,0.234c0.153,0.385,0.024,0.688-0.389,0.916c-0.209,0.133-1.875,1.156-5,3.071
			c-2.085,1.291-3.721,2.213-4.909,2.771c-1.725,0.83-3.104,1.164-4.14,1c-1.349-0.144-2.174-1.012-2.473-2.609
			c-0.125-0.662,0.035-1.639,0.484-2.934c0.344-1.049,0.863-2.289,1.56-3.721c0.441-0.857,1.6-2.99,3.479-6.396l5.141-9.415
			l6.361-11.571l5.363-9.312c0.238-0.411,0.543-0.53,0.915-0.359C117.26,49.212,117.327,49.504,117.089,49.915z"/>
		<path fill="#FFFFFF" d="M130.203,55.863c-0.015-0.237,0.066-0.459,0.245-0.669c3.223-3.224,6.211-5.514,8.965-6.871
			c2.754-1.356,5.069-1.686,6.945-0.988c1.875,0.697,3.042,2.382,3.502,5.052c0.459,2.671,0.172,6.153-0.864,10.446
			c-1.285,5.183-3.629,10.435-7.035,15.763c-3.445,5.331-7.353,9.51-11.724,12.538c-2.524,1.755-4.785,2.78-6.785,3.078
			c-1.999,0.297-3.543-0.128-4.631-1.272c-1.061-1.03-1.721-2.543-1.978-4.537c-0.258-1.995-0.118-4.254,0.419-6.776
			c0.978-4.487,2.588-9.06,4.833-13.714C124.338,63.257,127.041,59.241,130.203,55.863z M134.348,53.678
			c-3.83,3.07-7.13,7.208-9.899,12.412c-2.808,5.207-4.775,10.396-5.903,15.562c-0.522,2.365-0.663,4.447-0.423,6.244
			c0.238,1.799,0.8,3.14,1.682,4.025c2.021,1.909,5.3,1.307,9.837-1.812c4.206-2.938,7.962-6.967,11.268-12.092
			c3.306-5.123,5.578-10.234,6.815-15.332c1.015-4.096,1.315-7.332,0.903-9.71c-0.451-2.374-1.428-3.846-2.926-4.411
			c-1.237-0.466-2.8-0.337-4.69,0.386c-1.888,0.725-4.008,2.077-6.359,4.056C134.667,53.242,134.565,53.466,134.348,53.678z"/>
		<path fill="#FFFFFF" d="M183.252,60.083c0.429-0.74,0.744-1.333,0.947-1.782l0.882-1.719c0.385-0.697,0.673-1.309,0.865-1.836
			c0.192-0.525,0.381-1.111,0.566-1.756c0.184-0.644,0.307-1.264,0.37-1.86c0.063-0.597,0.042-1.147-0.059-1.653
			c-0.147-1.212-0.702-1.864-1.667-1.955c-0.92-0.133-2.161,0.171-3.719,0.911c-1.316,0.645-2.647,1.448-3.996,2.41
			c-1.349,0.962-2.369,1.764-3.059,2.404c-4.494,4.181-8.853,9.142-13.082,14.881c-4.193,5.778-7.399,11.251-9.617,16.417
			c-1.877,4.51-2.221,7.414-1.033,8.713c0.557,0.631,1.49,0.844,2.798,0.633c1.508-0.264,3.42-1.027,5.737-2.295
			c2.067-1.132,4.63-2.71,7.689-4.74c3.689-2.467,8.151-5.797,13.386-9.991c0.378-0.263,0.676-0.234,0.897,0.086
			c0.219,0.321,0.157,0.631-0.186,0.93c-5.192,4.151-9.693,7.485-13.503,10.001c-3.185,2.115-5.792,3.738-7.819,4.866
			c-2.482,1.358-4.555,2.174-6.221,2.448c-1.705,0.275-2.979-0.029-3.821-0.916c-1.54-1.67-1.228-5.006,0.936-10.01
			c2.235-5.326,5.493-10.918,9.773-16.781c4.278-5.862,8.688-10.905,13.224-15.129c0.779-0.726,1.882-1.591,3.314-2.599
			c1.43-1.008,2.823-1.835,4.177-2.482c1.842-0.839,3.343-1.2,4.5-1.084c1.502,0.172,2.377,1.116,2.625,2.835
			c0.089,0.626,0.1,1.275,0.028,1.95c-0.071,0.677-0.212,1.376-0.425,2.102c-0.213,0.726-0.417,1.372-0.613,1.938
			s-0.512,1.26-0.949,2.078l-0.882,1.72c-0.199,0.408-0.515,1.002-0.947,1.782c-0.239,0.412-0.544,0.531-0.915,0.359
			C183.08,60.787,183.012,60.495,183.252,60.083z"/>
		<path fill="#FFFFFF" d="M225.457,57.901c-0.04,0.003-0.061,0.024-0.065,0.064l-4.97,9.462l-5.936,11.423
			c-0.044,0.043-0.068,0.086-0.072,0.125l-6.786,12.842L207.55,92l-0.065,0.064c-0.044,0.041-0.067,0.084-0.071,0.123
			c-0.131,0.127-0.296,0.217-0.496,0.271c-0.642,0.163-0.949-0.072-0.92-0.705c0.004-0.039,0.03-0.102,0.078-0.184l0.012-0.118
			l0.066-0.063c0.047-0.082,0.17-0.328,0.369-0.734l2.128-4.115l11.223-21.678l1.734-3.139c0.769-1.395,1.328-2.439,1.674-3.136
			c0.09-0.125,0.329-0.536,0.714-1.233l0.006-0.06l1.973-3.748l0.142-0.248l0.072-0.123c-0.044,0.043-0.068,0.084-0.072,0.123
			l0.072-0.123l0.012-0.119l0.064-0.063c0.155-0.366,0.236-0.568,0.24-0.609c0.397-0.815,0.73-1.569,0.998-2.26
			c0.702-1.862,0.981-3.225,0.838-4.083c-0.076-0.388-0.243-0.653-0.502-0.793c-0.298-0.136-0.784-0.142-1.459-0.017
			c-1.636,0.352-3.249,1.057-4.84,2.115c-1.593,1.058-3.376,2.445-5.35,4.161c-5.532,4.807-10.636,10.529-15.309,17.169
			c2.61,1.869,6.121,4.069,10.532,6.602c0.441,0.246,0.499,0.617,0.175,1.113c-0.326,0.496-0.708,0.621-1.15,0.375
			c-4.41-2.531-7.941-4.729-10.59-6.598c-1.651,2.365-3.236,4.822-4.751,7.376c-1.619,2.796-3.211,6.083-4.777,9.86
			c-0.954,2.396-1.536,4.23-1.748,5.51c-0.107,0.638-0.098,1.111,0.025,1.419c0.026,0.116,0.119,0.169,0.276,0.158
			c0.549-0.039,0.796,0.22,0.737,0.776s-0.364,0.854-0.913,0.893c-0.824,0.058-1.395-0.278-1.707-1.006
			c-0.177-0.541-0.197-1.27-0.062-2.187c0.229-1.436,0.867-3.434,1.916-5.991c1.622-3.94,3.26-7.291,4.915-10.051
			c1.567-2.674,3.18-5.232,4.841-7.678c-2.383-1.807-4.104-3.422-5.162-4.848c-0.308-0.412-0.227-0.812,0.244-1.2
			c0.469-0.388,0.857-0.376,1.165,0.036c0.952,1.314,2.549,2.82,4.787,4.519c4.76-6.724,9.972-12.553,15.635-17.486
			c1.286-1.116,2.396-2.042,3.332-2.778c0.935-0.735,2.126-1.499,3.574-2.291c1.446-0.792,2.829-1.332,4.146-1.623
			c1.037-0.229,1.87-0.18,2.498,0.151s1.016,0.906,1.164,1.724c0.192,1.133-0.117,2.79-0.932,4.979l-1.321,3.11
			c-0.096,0.165-0.146,0.268-0.149,0.306L225.457,57.901z"/>
		<path fill="#FFFFFF" d="M240.169,45.865c1.123-0.671,2.998-1.275,5.628-1.814c2.148-0.426,4.82-0.812,8.014-1.153l0.767-0.053
			l1.922-3.271c0.237-0.411,0.544-0.53,0.915-0.36c0.371,0.172,0.438,0.463,0.2,0.874l-1.56,2.594
			c1.457-0.14,5.366-0.434,11.728-0.878c0.432-0.03,0.624,0.174,0.577,0.61c-0.045,0.438-0.283,0.67-0.715,0.7
			c-6.598,0.461-10.722,0.77-12.375,0.926c-8.021,13.621-15.48,27.694-22.387,42.224c-0.2,0.409-0.487,0.547-0.863,0.416
			c-0.376-0.132-0.465-0.402-0.265-0.81c6.806-14.326,14.151-28.215,22.035-41.668l-0.06,0.004
			c-3.114,0.336-5.746,0.718-7.896,1.144c-2.47,0.489-4.203,1.044-5.204,1.667c-0.375,0.224-0.65,0.154-0.825-0.21
			C239.63,46.445,239.75,46.13,240.169,45.865z"/>
		<path fill="#FFFFFF" d="M287.002,38.033c-7.988,13.342-16.232,28.734-24.73,46.176c-0.198,0.408-0.485,0.547-0.862,0.416
			c-0.376-0.132-0.464-0.402-0.265-0.811c7.608-16.039,15.856-31.472,24.742-46.296c0.238-0.411,0.545-0.53,0.915-0.359
			C287.173,37.33,287.24,37.622,287.002,38.033z"/>
		<path fill="#FFFFFF" d="M300.116,43.981c-0.017-0.236,0.065-0.458,0.243-0.669c3.224-3.224,6.213-5.514,8.967-6.87
			c2.753-1.357,5.068-1.687,6.943-0.989c1.875,0.698,3.043,2.383,3.502,5.052c0.459,2.671,0.174,6.153-0.862,10.447
			c-1.286,5.181-3.63,10.434-7.035,15.762c-3.444,5.332-7.354,9.511-11.726,12.538c-2.522,1.755-4.783,2.78-6.782,3.078
			c-1.999,0.297-3.544-0.127-4.632-1.273c-1.061-1.029-1.721-2.543-1.979-4.537c-0.259-1.994-0.117-4.252,0.42-6.775
			c0.979-4.487,2.588-9.059,4.832-13.713C294.252,51.375,296.954,47.359,300.116,43.981z M304.261,41.796
			c-3.829,3.07-7.13,7.208-9.897,12.412c-2.809,5.208-4.776,10.396-5.903,15.563c-0.522,2.364-0.663,4.445-0.423,6.242
			c0.238,1.801,0.8,3.141,1.682,4.027c2.021,1.908,5.301,1.305,9.838-1.812c4.204-2.938,7.961-6.969,11.268-12.093
			s5.578-10.234,6.814-15.332c1.016-4.096,1.315-7.332,0.903-9.71c-0.451-2.375-1.429-3.846-2.927-4.412
			c-1.237-0.466-2.801-0.336-4.689,0.387c-1.888,0.724-4.009,2.076-6.359,4.056C304.58,41.361,304.477,41.585,304.261,41.796z"/>
		<path fill="#FFFFFF" d="M319.348,79.035c0.422-1.411,1.004-2.98,1.752-4.71c0.746-1.729,1.41-3.127,1.989-4.193l2.492-4.791
			l2.237-4.062c2.436-4.628,4.132-7.785,5.089-9.47l3.317-5.973c0.428-0.74,1.424-2.428,2.986-5.062l1.896-3.032
			c0.287-0.494,0.519-0.846,0.695-1.056c0.09-0.125,0.18-0.228,0.268-0.314l0.131-0.127c0.134-0.167,0.279-0.257,0.438-0.268
			c0.317-0.061,0.559,0.06,0.723,0.364c0.064,0.113,0.091,0.25,0.074,0.408c0.029,0.078,0.037,0.196,0.021,0.354l-0.013,0.119
			c0.049,1.022-0.168,3.069-0.646,6.142c-1.318,8.458-2.373,16.461-3.167,24.013c-0.017,0.159-0.067,0.548-0.151,1.164
			c-0.084,0.619-0.166,1.207-0.242,1.764c-0.079,0.56-0.16,1.234-0.243,2.029c-0.082,1.15-0.078,2.038,0.014,2.662
			c0.062,0.509,0.164,0.838,0.306,0.984c0.039-0.002,0.061-0.022,0.063-0.063c0.21-0.133,0.47-0.388,0.783-0.765
			c0.532-0.629,1.198-1.582,1.995-2.861l1.279-2.161c0.469-0.743,0.871-1.423,1.209-2.038s0.528-0.964,0.577-1.046l5.054-8.581
			l5.61-9.446l5.079-8.286c2.059-3.26,4.008-6.237,5.852-8.933c0.232-0.371,0.524-0.459,0.875-0.268
			c0.351,0.192,0.388,0.495,0.109,0.909l-5.79,8.928l-5.069,8.167l-5.545,9.384l-5.06,8.639l-0.637,1.051l-1.156,2.095
			c-0.472,0.782-0.917,1.505-1.337,2.165c-0.842,1.32-1.553,2.339-2.135,3.049c-0.398,0.463-0.746,0.803-1.043,1.02
			c-0.465,0.351-0.885,0.457-1.26,0.326c-0.569-0.156-0.912-0.785-1.031-1.882c-0.117-0.741-0.133-1.706-0.047-2.896
			c0.088-0.836,0.172-1.53,0.25-2.09c0.076-0.557,0.158-1.146,0.242-1.764c0.084-0.615,0.135-1.005,0.151-1.164
			c0.869-8.267,1.929-16.311,3.181-24.133c0.437-2.674,0.649-4.326,0.637-4.957l-1.832,2.97c-1.559,2.593-2.551,4.261-2.979,5.002
			l-3.317,5.973c-0.957,1.685-2.646,4.802-5.074,9.352c-0.346,0.695-1.086,2.078-2.219,4.149c-1.136,2.073-1.973,3.64-2.513,4.702
			c-0.542,1.064-1.19,2.433-1.95,4.104c-0.718,1.628-1.268,3.146-1.648,4.553c-0.125,0.443-0.398,0.641-0.821,0.592
			C319.373,79.723,319.223,79.477,319.348,79.035z"/>
		<path fill="#FFFFFF" d="M396.318,31.985c-3.146-1.594-5.596-1.64-7.353-0.136c-1.534,1.252-2.706,3.681-3.514,7.288
			c-0.529,2.444-0.95,5.888-1.261,10.328c-0.316,4.48-0.578,7.162-0.789,8.044c-1.166,5.173-2.98,9.462-5.443,12.87
			c-1.514,2.156-3.311,3.87-5.393,5.141s-4.162,1.957-6.239,2.063c-2.12,0.147-3.976-0.373-5.563-1.563
			c-1.595-1.15-2.693-2.929-3.3-5.332c-0.108-0.428,0.047-0.724,0.474-0.893c0.429-0.167,0.681-0.057,0.756,0.332
			c0.551,2.172,1.533,3.77,2.945,4.794c1.411,1.027,3.041,1.476,4.887,1.347c1.801-0.088,3.64-0.699,5.514-1.836
			c1.873-1.137,3.518-2.701,4.936-4.695c2.289-3.236,4.006-7.321,5.147-12.255c0.2-0.803,0.456-3.425,0.769-7.866
			c0.318-4.521,0.766-8.022,1.338-10.509c0.847-3.966,2.166-6.702,3.961-8.209c2.31-1.937,5.258-1.984,8.845-0.146
			c0.366,0.212,0.423,0.515,0.168,0.906C396.945,32.052,396.65,32.161,396.318,31.985z"/>
	</g>
</g>
</svg>
