<?xml version="1.0" encoding="utf-8"?>
<!-- Generator: Adobe Illustrator 16.0.0, SVG Export Plug-In . SVG Version: 6.00 Build 0)  -->
<!DOCTYPE svg PUBLIC "-//W3C//DTD SVG 1.1//EN" "http://www.w3.org/Graphics/SVG/1.1/DTD/svg11.dtd">
<svg version="1.1" id="Ebene_1" xmlns="http://www.w3.org/2000/svg" xmlns:xlink="http://www.w3.org/1999/xlink" x="0px" y="0px"
	 width="64.137px" height="41.885px" viewBox="0 0 64.137 41.885" enable-background="new 0 0 64.137 41.885" xml:space="preserve">
<g>
	<g>
		<g>
			<defs>
				<rect id="SVGID_1_" x="-24.875" y="-9.551" width="137.341" height="70.221"/>
			</defs>
			<clipPath id="SVGID_2_">
				<use xlink:href="#SVGID_1_"  overflow="visible"/>
			</clipPath>
			<path clip-path="url(#SVGID_2_)" fill="none" stroke="#182C3A" stroke-width="1.552" stroke-miterlimit="7.483" d="M31.37,14.672
				c0.291,0.16,0.545,0.08,0.762-0.24c0.396-0.608,0.686-1.072,0.87-1.392l0.812-1.344c0.4-0.64,0.695-1.184,0.889-1.632
				c0.189-0.448,0.393-0.96,0.605-1.536c0.214-0.576,0.368-1.135,0.465-1.68c0.096-0.544,0.124-1.072,0.087-1.584
				c-0.104-1.408-0.76-2.224-1.968-2.448c-0.933-0.16-2.169,0.048-3.71,0.624c-1.137,0.449-2.312,1.04-3.53,1.776
				c-1.218,0.737-2.161,1.376-2.834,1.92c-1.759,1.44-3.927,3.488-6.507,6.145c-2.512,2.624-4.935,5.393-7.272,8.304
				c-2.673,3.36-4.755,6.369-6.247,9.024c-1.742,3.168-2.597,5.744-2.562,7.729c0.057,1.855,1.511,2.592,4.362,2.208
				c2.303-0.353,4.951-1.313,7.948-2.881c3.066-1.601,5.289-3.231,6.671-4.896c0.81-0.961,1.221-1.841,1.233-2.641
				c0.029-0.896-0.436-1.615-1.396-2.16c-0.85-0.447-2.05-0.721-3.601-0.816l-1.807-0.096c-0.794-0.031-1.378-0.078-1.75-0.145
				c-0.348-0.031-0.573,0.121-0.682,0.457c-0.106,0.336-0.006,0.535,0.304,0.6c0.5,0.064,1.132,0.111,1.894,0.145
				c0.128,0,0.318,0.009,0.572,0.023c0.253,0.016,0.476,0.023,0.668,0.023c0.191,0,0.381,0.018,0.566,0.049
				c1.397,0.062,2.458,0.305,3.186,0.72c0.674,0.354,1.008,0.815,1.003,1.392c-0.027,0.514-0.345,1.137-0.954,1.873
				c-1.296,1.535-3.388,3.056-6.276,4.561c-2.89,1.504-5.415,2.398-7.577,2.688c-2.17,0.319-3.262-0.111-3.276-1.295
				c-0.036-1.793,0.768-4.177,2.413-7.152c1.454-2.623,3.48-5.583,6.078-8.881c2.288-2.815,4.695-5.535,7.223-8.159
				s4.667-4.639,6.418-6.048c0.597-0.48,1.469-1.072,2.617-1.776c1.146-0.703,2.272-1.28,3.376-1.728
				c1.307-0.511,2.329-0.688,3.069-0.528c0.776,0.128,1.19,0.689,1.239,1.68c0.055,0.416,0.04,0.864-0.045,1.344
				s-0.22,0.977-0.406,1.488c-0.187,0.512-0.372,0.976-0.558,1.392c-0.187,0.416-0.454,0.896-0.807,1.44l-0.812,1.344
				c-0.189,0.352-0.479,0.816-0.869,1.392C31.04,14.272,31.078,14.513,31.37,14.672z"/>
		</g>
		<g>
			<defs>
				<rect id="SVGID_3_" x="-24.875" y="-9.551" width="137.341" height="70.221"/>
			</defs>
			<clipPath id="SVGID_4_">
				<use xlink:href="#SVGID_3_"  overflow="visible"/>
			</clipPath>
			<path clip-path="url(#SVGID_4_)" fill="none" stroke="#182C3A" stroke-width="1.552" stroke-miterlimit="7.483" d="M50.61,5.457
				c2.02-1.472,3.815-2.448,5.389-2.928s2.849-0.496,3.824-0.048c1.184,0.544,1.893,1.792,2.123,3.744
				c0.2,1.952-0.229,4.56-1.282,7.824c-1.293,4.064-3.426,8.08-6.396,12.048c-2.974,3.969-6.248,7.023-9.825,9.168
				c-3.856,2.271-6.55,2.575-8.081,0.912c-0.665-0.769-1.043-1.889-1.135-3.359c-0.094-1.473,0.139-3.15,0.695-5.041
				c1.208-4.127,3.099-8.224,5.672-12.287c2.539-4.064,5.45-7.232,8.731-9.504C50.514,5.825,50.608,5.648,50.61,5.457z
				 M39.581,16.833c-2.083,3.648-3.648,7.264-4.697,10.848c-0.578,2.017-0.82,3.84-0.725,5.473c0.096,1.632,0.546,2.896,1.348,3.791
				c0.815,0.992,2.044,1.424,3.684,1.297c1.639-0.129,3.531-0.832,5.678-2.111c3.717-2.208,7.122-5.376,10.219-9.504
				c3.063-4.128,5.265-8.256,6.601-12.384c1.084-3.424,1.514-6.232,1.293-8.424c-0.222-2.192-1.073-3.624-2.555-4.296
				s-3.378-0.536-5.688,0.408c-2.312,0.944-4.863,2.633-7.66,5.064c-0.156,0.16-0.235,0.336-0.237,0.528
				C44.083,10.081,41.664,13.185,39.581,16.833z"/>
		</g>
	</g>
	<g>
		<path fill="#1C2F3C" d="M31.256,13.953c0.392-0.576,0.681-1.04,0.87-1.393l0.813-1.343c0.352-0.543,0.619-1.024,0.805-1.44
			c0.187-0.416,0.372-0.88,0.56-1.393c0.186-0.512,0.32-1.008,0.405-1.488c0.084-0.48,0.1-0.928,0.045-1.343
			c-0.05-0.992-0.464-1.552-1.239-1.68c-0.74-0.16-1.765,0.016-3.069,0.528c-1.104,0.448-2.229,1.024-3.376,1.727
			c-1.148,0.705-2.021,1.296-2.617,1.776c-1.753,1.409-3.893,3.425-6.418,6.048c-2.527,2.624-4.935,5.344-7.223,8.16
			c-2.598,3.296-4.624,6.256-6.077,8.88c-1.646,2.976-2.449,5.36-2.414,7.151c0.015,1.184,1.108,1.614,3.275,1.295
			c2.162-0.287,4.688-1.184,7.578-2.688c2.889-1.503,4.98-3.023,6.275-4.561c0.61-0.734,0.927-1.359,0.954-1.873
			c0.006-0.575-0.328-1.039-1.002-1.391c-0.728-0.416-1.789-0.656-3.186-0.721c-0.187-0.031-0.376-0.049-0.567-0.049
			c-0.192,0-0.415-0.008-0.667-0.023c-0.254-0.016-0.445-0.023-0.572-0.023c-0.763-0.03-1.395-0.079-1.895-0.145
			c-0.31-0.064-0.41-0.264-0.304-0.6c0.107-0.336,0.333-0.487,0.681-0.455c0.374,0.064,0.957,0.111,1.751,0.143l1.807,0.096
			c1.551,0.098,2.75,0.369,3.601,0.816c0.959,0.545,1.426,1.264,1.396,2.16c-0.014,0.801-0.424,1.68-1.233,2.641
			c-1.382,1.664-3.604,3.297-6.672,4.896c-2.996,1.566-5.646,2.527-7.947,2.88c-2.852,0.384-4.306-0.353-4.361-2.208
			c-0.034-1.982,0.819-4.561,2.562-7.729c1.492-2.655,3.574-5.664,6.247-9.023c2.337-2.912,4.761-5.68,7.273-8.305
			c2.58-2.655,4.748-4.704,6.507-6.144c0.672-0.544,1.616-1.184,2.835-1.92c1.217-0.736,2.394-1.327,3.529-1.776
			c1.542-0.575,2.776-0.783,3.709-0.623c1.209,0.224,1.863,1.04,1.969,2.448c0.038,0.512,0.009,1.041-0.087,1.584
			c-0.096,0.544-0.251,1.104-0.464,1.68c-0.215,0.576-0.417,1.088-0.606,1.536c-0.191,0.448-0.488,0.993-0.889,1.632l-0.813,1.345
			c-0.185,0.32-0.474,0.784-0.869,1.392c-0.217,0.32-0.471,0.4-0.762,0.239C31.078,14.513,31.04,14.273,31.256,13.953z"/>
		<path fill="#1C2F3C" d="M46.838,7.521c0.002-0.192,0.081-0.367,0.237-0.528c2.796-2.431,5.351-4.12,7.661-5.064
			c2.31-0.943,4.206-1.08,5.688-0.408c1.482,0.672,2.333,2.104,2.557,4.296c0.221,2.193-0.21,5-1.294,8.424
			c-1.337,4.129-3.536,8.256-6.601,12.384c-3.097,4.128-6.503,7.296-10.221,9.504c-2.146,1.28-4.038,1.983-5.676,2.111
			c-1.64,0.128-2.867-0.304-3.685-1.296c-0.802-0.896-1.251-2.159-1.347-3.791c-0.097-1.633,0.146-3.456,0.725-5.473
			c1.048-3.584,2.613-7.2,4.697-10.849C41.663,13.185,44.083,10.081,46.838,7.521z M50.325,5.985
			c-3.28,2.272-6.191,5.44-8.732,9.504c-2.572,4.063-4.462,8.16-5.671,12.287c-0.557,1.89-0.789,3.567-0.695,5.041
			c0.093,1.472,0.471,2.592,1.136,3.358c1.53,1.664,4.224,1.36,8.08-0.911c3.578-2.145,6.853-5.201,9.825-9.168
			c2.972-3.968,5.104-7.984,6.396-12.048c1.057-3.264,1.482-5.872,1.284-7.825c-0.232-1.951-0.94-3.2-2.124-3.744
			c-0.978-0.447-2.252-0.432-3.825,0.048c-1.572,0.48-3.369,1.457-5.389,2.929C50.607,5.649,50.513,5.826,50.325,5.985z"/>
	</g>
</g>
</svg>
