<?xml version="1.0" encoding="utf-8"?>
<!-- Generator: Adobe Illustrator 16.0.0, SVG Export Plug-In . SVG Version: 6.00 Build 0)  -->
<!DOCTYPE svg PUBLIC "-//W3C//DTD SVG 1.1//EN" "http://www.w3.org/Graphics/SVG/1.1/DTD/svg11.dtd">
<svg version="1.1" id="Ebene_1" xmlns="http://www.w3.org/2000/svg" xmlns:xlink="http://www.w3.org/1999/xlink" x="0px" y="0px"
	 width="81px" height="81px" viewBox="0 0 81 81" enable-background="new 0 0 81 81" xml:space="preserve">
<g>
	<defs>
		<rect id="SVGID_1_" width="81" height="81"/>
	</defs>
	<clipPath id="SVGID_2_">
		<use xlink:href="#SVGID_1_"  overflow="visible"/>
	</clipPath>
	<path clip-path="url(#SVGID_2_)" fill="#182C3A" d="M40.5,81C62.868,81,81,62.868,81,40.5C81,18.133,62.868,0,40.5,0
		S0,18.133,0,40.5C0,62.868,18.132,81,40.5,81"/>
	<path clip-path="url(#SVGID_2_)" fill="#FCF3F0" d="M53.792,15.271c-0.831-0.123-3.692-0.369-7.016-0.369
		c-6.954,0-11.723,4.246-11.723,12.03v6.707h-7.845v9.108h7.845v23.353h9.415V42.746h7.815l1.199-9.108h-9.015v-5.815
		c0-2.615,0.708-4.43,4.492-4.43h4.831V15.271z"/>
</g>
</svg>
