<?xml version="1.0" encoding="UTF-8"?>
<!-- Generator: Adobe Illustrator 16.0.0, SVG Export Plug-In . SVG Version: 6.00 Build 0)  -->
<!DOCTYPE svg PUBLIC "-//W3C//DTD SVG 1.1//EN" "http://www.w3.org/Graphics/SVG/1.1/DTD/svg11.dtd">
<svg version="1.1" id="Ebene_1" xmlns="http://www.w3.org/2000/svg" xmlns:xlink="http://www.w3.org/1999/xlink" x="0px" y="0px" width="81px" height="81px" viewBox="0 0 81 81" enable-background="new 0 0 81 81" xml:space="preserve">
<g>
	<defs>
		<rect id="SVGID_1_" width="81" height="81"/>
	</defs>
	<clipPath id="SVGID_2_">
		<use xlink:href="#SVGID_1_" overflow="visible"/>
	</clipPath>
	<path clip-path="url(#SVGID_2_)" fill="#182C3A" d="M40.5,80.999c22.368,0,40.5-18.132,40.5-40.5C81,18.132,62.868,0,40.5,0   S0,18.132,0,40.5C0,62.867,18.132,80.999,40.5,80.999"/>
	<path clip-path="url(#SVGID_2_)" fill="#FFD0B2" d="M54.479,26.512h-6.075v6.122h6.075V26.512z M40.438,46.9   c3.498,0.033,6.43-2.815,6.461-6.276c0.033-3.598-2.78-6.497-6.335-6.527c-3.563-0.03-6.435,2.814-6.465,6.402   C34.07,43.966,36.941,46.865,40.438,46.9 M31.201,36.793h-5.37v0.66c0,4.612-0.003,9.223,0.001,13.834   c0.002,2.484,1.39,3.875,3.873,3.876c7.198,0.003,14.396,0.003,21.595,0c2.478-0.001,3.863-1.397,3.865-3.887   c0.003-4.61,0.001-9.223,0-13.833c0-0.219-0.02-0.439-0.03-0.673h-5.319c1.527,5.16,0.305,9.38-4.319,12.32   c-3.283,2.087-7.72,1.779-10.895-0.572C30.997,45.85,29.884,42.035,31.201,36.793 M40.482,22.262c3.629,0,7.259-0.01,10.889,0.003   c3.463,0.012,6.226,2.012,7.071,5.153c0.192,0.715,0.279,1.48,0.281,2.223c0.021,7.238,0.019,14.477,0.009,21.714   c-0.005,3.664-2.2,6.481-5.618,7.209c-0.587,0.125-1.201,0.167-1.803,0.168c-7.217,0.012-14.434,0.014-21.652,0.005   c-3.689-0.004-6.51-2.215-7.234-5.668c-0.115-0.547-0.155-1.117-0.155-1.678c-0.01-7.259-0.015-14.518-0.004-21.777   c0.006-3.649,2.228-6.472,5.649-7.184c0.607-0.127,1.243-0.158,1.865-0.161C33.348,22.254,36.915,22.262,40.482,22.262"/>
	<path clip-path="url(#SVGID_2_)" fill="#182C3A" d="M31.201,36.793c-1.317,5.243-0.204,9.057,3.399,11.725   c3.176,2.352,7.613,2.659,10.896,0.572c4.624-2.938,5.847-7.16,4.319-12.321h5.319c0.012,0.235,0.029,0.454,0.029,0.674   c0.002,4.611,0.004,9.222,0.001,13.834c-0.002,2.488-1.388,3.884-3.865,3.886c-7.198,0.003-14.396,0.002-21.595,0   c-2.483-0.001-3.872-1.392-3.874-3.877c-0.003-4.61-0.001-9.222-0.001-13.833v-0.66H31.201z"/>
	<path clip-path="url(#SVGID_2_)" fill="#182C3A" d="M40.438,46.9c-3.496-0.035-6.368-2.935-6.339-6.402   c0.03-3.588,2.902-6.432,6.465-6.402c3.556,0.03,6.369,2.929,6.336,6.527C46.867,44.084,43.935,46.934,40.438,46.9"/>
</g>
<rect x="48.404" y="26.512" fill="#182C3A" width="6.076" height="6.122"/>
</svg>