<?xml version="1.0" encoding="utf-8"?>
<!-- Generator: Adobe Illustrator 16.0.0, SVG Export Plug-In . SVG Version: 6.00 Build 0)  -->
<!DOCTYPE svg PUBLIC "-//W3C//DTD SVG 1.1//EN" "http://www.w3.org/Graphics/SVG/1.1/DTD/svg11.dtd">
<svg version="1.1" id="Ebene_1" xmlns="http://www.w3.org/2000/svg" xmlns:xlink="http://www.w3.org/1999/xlink" x="0px" y="0px"
	 width="81px" height="81px" viewBox="0 0 81 81" enable-background="new 0 0 81 81" xml:space="preserve">
<g>
	<defs>
		<rect id="SVGID_1_" width="81" height="81"/>
	</defs>
	<clipPath id="SVGID_2_">
		<use xlink:href="#SVGID_1_"  overflow="visible"/>
	</clipPath>
	<path clip-path="url(#SVGID_2_)" fill="#FCF3F0" d="M40.401,75.414c18.511,0,33.517-15.006,33.517-33.517
		c0-18.511-15.006-33.519-33.517-33.519c-18.511,0-33.517,15.007-33.517,33.519C6.884,60.408,21.89,75.414,40.401,75.414"/>
	<path clip-path="url(#SVGID_2_)" fill="#182C3A" d="M81,40.5C81,18.141,62.859,0,40.5,0C18.141,0,0,18.141,0,40.5
		C0,62.859,18.141,81,40.5,81C62.859,81,81,62.859,81,40.5 M70.189,32.643c0,2.215-1.793,3.797-3.797,3.797
		c-0.844,0-1.371-0.211-2.109-0.633c-7.331-4.377-18.721-6.803-29.689-6.803c-5.537,0-11.074,0.528-16.189,1.951
		c-0.58,0.159-1.319,0.422-2.11,0.422c-2.162,0-3.797-1.687-3.797-3.849c0-2.215,1.371-3.481,2.848-3.903
		c5.748-1.687,12.182-2.478,19.195-2.478c11.918,0,24.417,2.478,33.54,7.805C69.346,29.689,70.189,30.691,70.189,32.643
		 M64.493,45.721c0,1.74-1.37,3.164-3.163,3.164c-0.844,0-1.424-0.369-2.004-0.686c-6.592-3.902-15.715-6.539-25.734-6.539
		c-5.115,0-9.545,0.738-13.236,1.74c-0.791,0.211-1.213,0.422-1.951,0.422c-1.741,0-3.164-1.424-3.164-3.164
		c0-1.741,0.843-2.901,2.531-3.375c4.535-1.266,9.176-2.215,15.978-2.215c10.6,0,20.831,2.636,28.899,7.436
		C63.967,43.295,64.493,44.297,64.493,45.721 M59.432,57.059c0,1.477-1.16,2.531-2.479,2.531c-0.685,0-1.106-0.211-1.739-0.58
		c-5.854-3.533-13.184-5.432-20.935-5.432c-4.377,0-8.701,0.58-12.815,1.424c-0.633,0.158-1.476,0.422-1.951,0.422
		c-1.582,0-2.584-1.266-2.584-2.584c0-1.688,1.002-2.479,2.215-2.742c5.01-1.107,9.967-1.793,15.135-1.793
		c8.859,0,16.769,2.004,23.572,6.064C58.852,55.002,59.432,55.582,59.432,57.059"/>
</g>
</svg>
