<?xml version="1.0" encoding="utf-8"?>
<!-- Generator: Adobe Illustrator 16.0.0, SVG Export Plug-In . SVG Version: 6.00 Build 0)  -->
<!DOCTYPE svg PUBLIC "-//W3C//DTD SVG 1.1//EN" "http://www.w3.org/Graphics/SVG/1.1/DTD/svg11.dtd">
<svg version="1.1" id="Ebene_1" xmlns="http://www.w3.org/2000/svg" xmlns:xlink="http://www.w3.org/1999/xlink" x="0px" y="0px"
	 width="81px" height="81px" viewBox="0 0 81 81" enable-background="new 0 0 81 81" xml:space="preserve">
<g>
	<defs>
		<rect id="SVGID_1_" width="81" height="81"/>
	</defs>
	<clipPath id="SVGID_2_">
		<use xlink:href="#SVGID_1_"  overflow="visible"/>
	</clipPath>
	<path clip-path="url(#SVGID_2_)" fill="#182C3A" d="M40.5,81C62.868,81,81,62.868,81,40.5C81,18.133,62.868,0,40.5,0
		S0,18.133,0,40.5C0,62.868,18.132,81,40.5,81"/>
	<path clip-path="url(#SVGID_2_)" fill="#FFCFB1" d="M60.167,44.751c0-7.785-4.148-11.421-9.705-11.421
		c-4.559,0-6.556,2.535-7.657,4.276h0.052v-3.687h-8.425c0,0,0.102,2.381,0,25.378h8.425V45.135c0-0.768,0.076-1.511,0.281-2.074
		c0.614-1.511,1.997-3.073,4.327-3.073c3.048,0,4.277,2.331,4.277,5.736v13.573h8.425V44.751z M30.308,26.082
		c-0.026-2.484-1.818-4.379-4.712-4.379c-2.868,0-4.763,1.895-4.763,4.379c0,2.433,1.818,4.379,4.66,4.379h0.052
		C28.49,30.461,30.333,28.515,30.308,26.082 M29.77,33.919h-8.451v25.378h8.451V33.919z"/>
</g>
</svg>
