<?xml version="1.0" encoding="UTF-8" standalone="no"?>
<svg
   xmlns:dc="http://purl.org/dc/elements/1.1/"
   xmlns:cc="http://creativecommons.org/ns#"
   xmlns:rdf="http://www.w3.org/1999/02/22-rdf-syntax-ns#"
   xmlns:svg="http://www.w3.org/2000/svg"
   xmlns="http://www.w3.org/2000/svg"
   viewBox="0 0 537.54999 134.235"
   height="134.235"
   width="537.54999"
   xml:space="preserve"
   version="1.1"
   id="svg2"><metadata
     id="metadata8"><rdf:RDF><cc:Work
         rdf:about=""><dc:format>image/svg+xml</dc:format><dc:type
           rdf:resource="http://purl.org/dc/dcmitype/StillImage" /></cc:Work></rdf:RDF></metadata><defs
     id="defs6"><clipPath
       id="clipPath16"
       clipPathUnits="userSpaceOnUse"><path
         id="path18"
         d="m 0,107.388 430.04,0 L 430.04,0 0,0 0,107.388 Z" /></clipPath></defs><g
     transform="matrix(1.25,0,0,-1.25,0,134.235)"
     id="g10"><g
       id="g12"><g
         clip-path="url(#clipPath16)"
         id="g14"><g
           transform="translate(191.6348,0.8955)"
           id="g20"><path
             id="path22"
             style="fill:#000000;fill-opacity:1;fill-rule:nonzero;stroke:none"
             d="m 0,0 c -2.209,0 -4,0.791 -4,3 l 0,71.003 c -37.926,4.931 -69.59,13.376 -89.809,23.951 -20.234,-10.577 -51.904,-19.02 -89.826,-23.951 l 0,-71.003 c 0,-2.209 -1.791,-3 -4,-3 -2.209,0 -4,0.791 -4,3 l 0,74.529 c 0,2.02 1.506,3.723 3.512,3.971 39.728,4.888 72.541,13.588 92.389,24.498 1.199,0.66 2.656,0.659 3.855,-0.001 C -72.049,95.089 -39.246,86.389 0.488,81.5 2.492,81.252 4,79.549 4,77.529 L 4,3 C 4,0.791 2.209,0 0,0" /></g><g
           transform="translate(20.4141,32.4287)"
           id="g24"><path
             id="path26"
             style="fill:#000000;fill-opacity:1;fill-rule:nonzero;stroke:none"
             d="m 0,0 0,26.846 c 0,2.164 0.219,3.466 0.658,3.904 0.438,0.41 1.768,0.614 3.99,0.614 1.786,0 3.086,-0.029 3.905,-0.087 1.17,-0.117 1.828,-0.804 1.974,-2.062 0.059,-0.556 0.088,-1.491 0.088,-2.808 l 0,-14.87 0,-2.457 c 0.059,-1.492 0.336,-2.486 0.834,-2.982 0.496,-0.498 1.506,-0.776 3.028,-0.834 1.197,-0.059 2.369,0 3.509,0.175 1.344,0.174 2.119,0.95 2.325,2.325 0.117,0.818 0.175,1.871 0.175,3.158 l 0,7.94 0,7.984 c 0.03,2.164 0.248,3.466 0.659,3.904 0.437,0.41 1.767,0.614 3.992,0.614 1.754,0 3.054,-0.029 3.904,-0.087 1.168,-0.088 1.826,-0.775 1.973,-2.062 0.058,-0.497 0.088,-1.316 0.088,-2.456 l 0,-53.388 c 0,-2.31 -0.248,-3.715 -0.747,-4.211 -0.496,-0.469 -1.945,-0.703 -4.341,-0.703 -1.551,0 -2.721,0.045 -3.51,0.133 -1.111,0.088 -1.74,0.672 -1.887,1.754 -0.058,0.672 -0.101,1.623 -0.131,2.851 l 0,15.53 c 0,1.668 -0.132,2.953 -0.394,3.861 -0.381,1.228 -1.127,1.871 -2.238,1.93 -1.989,0.088 -3.627,0.072 -4.913,-0.045 -1.316,-0.086 -2.062,-0.848 -2.238,-2.28 -0.058,-0.586 -0.088,-1.537 -0.088,-2.851 l 0,-8.117 c 0,-3.334 -0.015,-6.039 -0.043,-8.116 0,-2.164 -0.234,-3.464 -0.703,-3.904 -0.467,-0.469 -1.783,-0.717 -3.947,-0.746 -1.522,0 -2.588,0.016 -3.203,0.045 -1.053,0.059 -1.74,0.262 -2.061,0.613 -0.351,0.381 -0.556,1.125 -0.615,2.239 C 0.014,-28.326 0,-27.391 0,-25.84 L 0,0 Z" /></g><g
           transform="translate(77.7051,13.8721)"
           id="g28"><path
             id="path30"
             style="fill:#000000;fill-opacity:1;fill-rule:nonzero;stroke:none"
             d="m 0,0 c 0.381,0.848 0.57,2.002 0.57,3.465 l 0,30.357 C 0.541,34.991 0.396,36.029 0.133,36.937 -0.568,39.101 -2.119,40.08 -4.518,39.875 -6.887,39.7 -8.232,38.456 -8.553,36.146 -8.641,35.648 -8.686,34.713 -8.686,33.34 l 0,-29.262 c 0,-1.812 0.161,-3.099 0.483,-3.859 0.703,-1.842 2.047,-2.78 4.037,-2.809 C -2.178,-2.648 -0.789,-1.785 0,0 m 11.846,33.428 0,-29.744 c 0,-0.907 -0.307,-3.231 -0.922,-6.975 -0.147,-0.701 -0.453,-1.463 -0.92,-2.281 -3.539,-5.703 -8.293,-8.467 -14.258,-8.291 -6.084,0.175 -10.559,2.953 -13.424,8.336 -1.052,1.959 -1.58,4.357 -1.58,7.193 l 0,16.934 0,16.626 c -0.117,5.322 2.399,9.855 7.545,13.598 1.055,0.761 2.121,1.229 3.203,1.405 3.598,0.526 6.77,0.497 9.52,-0.088 2.047,-0.439 4.006,-1.551 5.879,-3.334 1.871,-1.785 3.115,-3.701 3.728,-5.747 0.819,-2.72 1.229,-5.264 1.229,-7.632" /></g><g
           transform="translate(96.9199,32.2529)"
           id="g32"><path
             id="path34"
             style="fill:#000000;fill-opacity:1;fill-rule:nonzero;stroke:none"
             d="m 0,0 0,26.539 c 0,1.345 0.045,2.399 0.133,3.159 0.144,1.169 0.76,1.755 1.842,1.755 3.07,0.058 6.726,0.058 10.966,0 1.053,0 1.696,-0.57 1.932,-1.711 0.408,-1.784 0.848,-3.86 1.315,-6.229 0.41,-2.048 1.185,-5.982 2.326,-11.8 0.965,-4.914 1.738,-8.834 2.324,-11.758 0.088,-0.498 0.322,-1.287 0.703,-2.369 0.174,-0.525 0.51,-0.805 1.008,-0.832 0.527,-0.031 0.951,0.307 1.273,1.008 0.057,0.146 0.116,0.381 0.174,0.703 0.44,2.396 1.156,6.271 2.15,11.625 0.936,5.029 1.667,8.904 2.194,11.624 0.176,0.994 0.424,2.265 0.746,3.816 0.379,2.019 0.613,3.29 0.701,3.817 0.293,1.404 1.111,2.12 2.457,2.149 4.065,0.059 7.473,0.059 10.221,0 1.199,-0.029 1.857,-0.717 1.974,-2.061 0.059,-0.527 0.088,-1.463 0.088,-2.808 l 0,-52.643 c 0,-1.314 -0.043,-2.382 -0.131,-3.201 -0.117,-1.14 -0.703,-1.785 -1.755,-1.929 -2.282,-0.293 -4.635,-0.293 -7.063,0 -0.906,0.115 -1.404,0.685 -1.492,1.71 -0.088,0.76 -0.131,1.696 -0.131,2.807 -0.029,1.492 -0.045,3.436 -0.045,5.834 l 0,5.836 c 0,2.105 -0.291,3.83 -0.877,5.176 -0.088,0.205 -0.277,0.306 -0.57,0.306 -0.234,0.03 -0.424,-0.058 -0.57,-0.263 -0.379,-0.438 -0.702,-1.315 -0.965,-2.631 -0.235,-1.111 -0.555,-2.676 -0.965,-4.695 -0.44,-2.164 -0.762,-3.713 -0.965,-4.649 -0.644,-2.984 -1.156,-5.279 -1.535,-6.889 -0.234,-1.052 -0.557,-1.74 -0.965,-2.06 -0.381,-0.352 -1.098,-0.557 -2.15,-0.615 -1.317,-0.059 -2.618,-0.043 -3.905,0.045 -0.847,0.056 -1.463,0.232 -1.841,0.525 -0.352,0.293 -0.629,0.863 -0.834,1.711 -0.293,1.199 -0.659,2.748 -1.098,4.65 -0.584,2.487 -0.949,4.035 -1.096,4.651 -0.965,4.181 -1.726,7.384 -2.281,9.607 -0.147,0.555 -0.439,1.317 -0.877,2.281 -0.176,0.409 -0.469,0.541 -0.877,0.395 -0.264,-0.088 -0.439,-0.234 -0.527,-0.44 -0.264,-0.525 -0.395,-1.564 -0.395,-3.115 l 0,-7.588 c 0,-3.246 -0.015,-5.791 -0.045,-7.632 0,-1.258 -0.043,-2.311 -0.131,-3.161 -0.146,-1.082 -0.775,-1.681 -1.886,-1.796 -2.194,-0.264 -4.43,-0.28 -6.711,-0.045 -1.053,0.117 -1.639,0.746 -1.756,1.886 C 0.029,-28.662 0,-27.609 0,-26.146 L 0,0 Z" /></g><g
           transform="translate(149.0352,32.3408)"
           id="g36"><path
             id="path38"
             style="fill:#000000;fill-opacity:1;fill-rule:nonzero;stroke:none"
             d="m 0,0 0,26.891 c 0,2.251 0.205,3.582 0.615,3.991 0.408,0.439 1.711,0.658 3.905,0.658 7.046,0.029 13.525,0.029 19.433,0 2.018,0 3.231,-0.205 3.641,-0.614 0.439,-0.409 0.658,-1.594 0.658,-3.553 0.029,-1.551 -0.016,-2.837 -0.131,-3.86 -0.088,-1.083 -0.703,-1.683 -1.844,-1.799 -0.525,-0.06 -1.463,-0.103 -2.806,-0.132 -6.172,-0.029 -9.112,-0.029 -8.819,0 -1.49,-0.059 -2.515,-0.351 -3.07,-0.877 -0.557,-0.557 -0.863,-1.536 -0.922,-2.939 -0.088,-3.041 -0.072,-5.996 0.045,-8.862 0.027,-1.228 0.307,-2.105 0.832,-2.633 0.527,-0.496 1.42,-0.789 2.678,-0.876 0.73,-0.03 1.783,-0.043 3.158,-0.043 1.461,0 2.529,-0.016 3.201,-0.045 1.053,-0.059 1.77,-0.262 2.151,-0.614 0.351,-0.38 0.554,-1.111 0.613,-2.193 0.058,-1.873 0.029,-3.758 -0.088,-5.66 -0.059,-1.258 -0.73,-1.93 -2.018,-2.018 -1.375,-0.058 -3.377,-0.088 -6.009,-0.088 -1.696,0 -2.807,-0.189 -3.334,-0.57 -0.701,-0.525 -1.112,-1.769 -1.229,-3.728 -0.117,-2.165 -0.117,-4.635 0,-7.415 0.059,-1.433 0.365,-2.412 0.922,-2.939 0.555,-0.555 1.564,-0.848 3.027,-0.877 -0.234,0 2.705,-0.016 8.817,-0.043 1.345,-0.029 2.297,-0.074 2.851,-0.133 1.141,-0.117 1.756,-0.701 1.844,-1.754 0.233,-2.31 0.233,-4.548 0,-6.713 -0.117,-1.082 -0.732,-1.695 -1.844,-1.841 -0.701,-0.117 -1.519,-0.176 -2.457,-0.176 l -19.476,0 c -0.645,0 -1.112,0.016 -1.405,0.045 -1.052,0.088 -1.769,0.32 -2.148,0.701 -0.41,0.381 -0.658,1.068 -0.746,2.063 C 0.016,-28.18 0,-27.111 0,-25.445 L 0,0 Z" /></g><g
           transform="translate(70.9844,74.5957)"
           id="g40"><path
             id="path42"
             style="fill:#f9ae39;fill-opacity:1;fill-rule:nonzero;stroke:none"
             d="m 0,0 c 0,-2.701 -2.191,-4.892 -4.893,-4.892 -2.701,0 -4.89,2.191 -4.89,4.892 0,2.701 2.189,4.892 4.89,4.892 C -2.191,4.892 0,2.701 0,0" /></g><g
           transform="translate(86.4434,74.5957)"
           id="g44"><path
             id="path46"
             style="fill:#f9ae39;fill-opacity:1;fill-rule:nonzero;stroke:none"
             d="m 0,0 c 0,-2.701 -2.191,-4.892 -4.893,-4.892 -2.701,0 -4.89,2.191 -4.89,4.892 0,2.701 2.189,4.892 4.89,4.892 C -2.191,4.892 0,2.701 0,0" /></g><g
           transform="translate(205.9941,49.3857)"
           id="g48"><path
             id="path50"
             style="fill:#000000;fill-opacity:1;fill-rule:nonzero;stroke:none"
             d="m 0,0 0,12.436 c 0,0.63 0.021,1.124 0.063,1.48 0.068,0.548 0.355,0.822 0.863,0.822 1.439,0.028 3.152,0.028 5.138,0 0.495,0 0.795,-0.267 0.905,-0.801 C 7.16,13.101 7.365,12.128 7.586,11.018 7.777,10.059 8.141,8.215 8.676,5.488 9.127,3.186 9.49,1.35 9.764,-0.021 c 0.041,-0.233 0.152,-0.603 0.33,-1.11 0.082,-0.246 0.238,-0.377 0.472,-0.39 0.247,-0.014 0.446,0.144 0.596,0.472 0.027,0.07 0.055,0.18 0.082,0.33 0.205,1.123 0.541,2.939 1.008,5.447 0.437,2.356 0.781,4.172 1.027,5.447 0.082,0.466 0.2,1.062 0.35,1.788 0.178,0.946 0.287,1.542 0.328,1.788 0.137,0.658 0.522,0.994 1.152,1.008 1.905,0.027 3.5,0.027 4.789,0 0.561,-0.014 0.87,-0.336 0.924,-0.967 0.028,-0.246 0.041,-0.685 0.041,-1.315 l 0,-24.666 c 0,-0.616 -0.019,-1.118 -0.06,-1.5 -0.055,-0.536 -0.328,-0.836 -0.823,-0.905 -1.068,-0.136 -2.171,-0.136 -3.308,0 -0.426,0.055 -0.658,0.323 -0.699,0.801 -0.041,0.357 -0.063,0.795 -0.063,1.316 -0.014,0.7 -0.019,1.61 -0.019,2.735 l 0,2.732 c 0,0.989 -0.139,1.797 -0.412,2.426 -0.041,0.096 -0.131,0.145 -0.268,0.145 -0.109,0.013 -0.197,-0.028 -0.268,-0.124 -0.177,-0.205 -0.328,-0.617 -0.451,-1.234 -0.109,-0.519 -0.26,-1.254 -0.453,-2.199 -0.205,-1.014 -0.355,-1.74 -0.451,-2.178 -0.303,-1.398 -0.541,-2.474 -0.719,-3.228 -0.111,-0.493 -0.262,-0.815 -0.453,-0.965 -0.178,-0.164 -0.514,-0.262 -1.008,-0.289 -0.615,-0.028 -1.226,-0.02 -1.828,0.021 -0.398,0.028 -0.685,0.11 -0.863,0.246 -0.166,0.137 -0.295,0.405 -0.391,0.803 -0.138,0.561 -0.308,1.287 -0.513,2.178 -0.276,1.166 -0.448,1.89 -0.516,2.179 C 6.846,-7.27 6.488,-5.77 6.229,-4.727 6.16,-4.467 6.023,-4.111 5.818,-3.658 5.736,-3.467 5.598,-3.404 5.406,-3.473 5.283,-3.514 5.201,-3.584 5.16,-3.68 5.037,-3.926 4.975,-4.412 4.975,-5.139 l 0,-3.556 c 0,-1.52 -0.006,-2.713 -0.02,-3.576 0,-0.59 -0.021,-1.083 -0.062,-1.481 -0.069,-0.506 -0.364,-0.787 -0.883,-0.842 -1.03,-0.123 -2.076,-0.131 -3.147,-0.021 -0.492,0.054 -0.767,0.349 -0.822,0.885 C 0.014,-13.43 0,-12.936 0,-12.25 L 0,0 Z" /></g><g
           transform="translate(238.1387,46.0967)"
           id="g52"><path
             id="path54"
             style="fill:#000000;fill-opacity:1;fill-rule:nonzero;stroke:none"
             d="M 0,0 C 0.74,0 1.139,0.15 1.193,0.453 1.221,0.535 1.207,0.775 1.152,1.172 1.098,1.543 1.002,2.098 0.863,2.837 0.713,3.728 0.631,4.207 0.617,4.275 0.59,4.468 0.516,4.673 0.391,4.893 0.24,5.139 0.063,5.234 -0.143,5.18 -0.32,5.139 -0.445,5.043 -0.514,4.893 -0.828,4.084 -1.061,2.796 -1.211,1.029 -1.227,0.795 -1.232,0.609 -1.232,0.473 -1.232,0.145 -0.822,-0.014 0,0 m 0.104,18.15 1.994,0 C 2.549,18.123 2.857,18.041 3.023,17.904 3.188,17.767 3.33,17.465 3.455,17 3.508,16.794 3.564,16.52 3.619,16.177 4.029,13.752 4.734,9.579 5.736,3.659 c 0.891,-5.331 1.59,-9.503 2.096,-12.518 0.219,-1.233 0.172,-1.993 -0.143,-2.282 -0.22,-0.191 -0.863,-0.281 -1.933,-0.267 -1.041,0.013 -1.651,0.027 -1.828,0.041 -0.399,0.027 -0.68,0.125 -0.844,0.289 -0.164,0.15 -0.281,0.424 -0.35,0.822 -0.041,0.328 -0.109,0.822 -0.205,1.479 -0.082,0.658 -0.15,1.152 -0.205,1.48 -0.027,0.205 -0.123,0.692 -0.289,1.459 -0.15,0.672 -0.588,1.022 -1.314,1.049 -0.194,0.014 -0.303,0.021 -0.33,0.021 -1.11,0.014 -1.801,-0.068 -2.077,-0.248 -0.369,-0.246 -0.615,-0.91 -0.738,-1.992 -0.029,-0.316 -0.226,-1.461 -0.597,-3.433 -0.124,-0.59 -0.473,-0.891 -1.047,-0.905 -1.303,-0.041 -2.407,-0.041 -3.311,0 -0.588,0.028 -0.869,0.364 -0.842,1.008 0.014,0.164 0.069,0.547 0.164,1.15 0.918,5.467 1.528,9.073 1.83,10.813 1.629,9.537 2.479,14.498 2.549,14.881 0.11,0.713 0.293,1.172 0.555,1.377 0.246,0.192 0.713,0.288 1.396,0.288 l 1.831,0 0,-0.021 z" /></g><g
           transform="translate(253.291,49.4678)"
           id="g56"><path
             id="path58"
             style="fill:#000000;fill-opacity:1;fill-rule:nonzero;stroke:none"
             d="m 0,0 0,-5.797 c 0,-0.904 0.109,-1.719 0.33,-2.445 0.328,-1.041 0.951,-1.582 1.869,-1.623 0.891,-0.041 1.59,0.404 2.098,1.336 0.068,0.136 0.109,0.238 0.123,0.308 0.314,1.645 0.309,3.233 -0.022,4.768 -0.109,0.508 -0.464,0.803 -1.068,0.885 -0.672,0.082 -1.008,0.505 -1.008,1.273 0,1.493 0.008,2.371 0.022,2.631 0.041,0.644 0.39,0.987 1.049,1.028 0.423,0.028 1.363,0.041 2.816,0.041 1.164,0 1.937,-0.013 2.322,-0.041 C 8.887,2.336 9.141,2.247 9.291,2.097 9.441,1.945 9.537,1.692 9.58,1.336 9.605,1.117 9.621,0.733 9.621,0.186 l 0,-8.284 c -0.016,-2.275 -0.871,-4.111 -2.57,-5.509 -1.686,-1.383 -3.653,-1.864 -5.899,-1.438 -2.548,0.479 -4.373,2 -5.468,4.563 -0.219,0.505 -0.329,1.267 -0.329,2.281 -0.013,1.603 -0.021,4.412 -0.021,8.428 l 0,7.954 c -0.014,1.617 0.445,3.002 1.377,4.152 1.426,1.809 3.117,2.7 5.078,2.673 0.178,-0.014 0.424,-0.014 0.74,0 l 0.741,0 C 5.256,14.978 6.906,14.115 8.223,12.416 9.264,11.059 9.73,9.627 9.621,8.12 9.605,7.818 9.6,7.38 9.6,6.804 9.6,6.188 9.592,5.748 9.58,5.488 9.537,4.803 9.201,4.447 8.572,4.42 7.6,4.378 6.605,4.378 5.592,4.42 5.029,4.447 4.721,4.769 4.666,5.386 4.68,5.234 4.66,5.899 4.605,7.38 4.578,8.106 4.357,8.716 3.947,9.209 3.412,9.839 2.775,10.106 2.035,10.011 1.295,9.901 0.768,9.469 0.453,8.716 0.15,8.003 0,7.14 0,6.126 L 0,0 Z" /></g><g
           transform="translate(273.7793,46.0967)"
           id="g60"><path
             id="path62"
             style="fill:#000000;fill-opacity:1;fill-rule:nonzero;stroke:none"
             d="M 0,0 C 0.74,0 1.137,0.15 1.191,0.453 1.219,0.535 1.205,0.775 1.15,1.172 1.096,1.543 1,2.098 0.863,2.837 0.713,3.728 0.631,4.207 0.617,4.275 0.59,4.468 0.514,4.673 0.391,4.893 0.24,5.139 0.063,5.234 -0.145,5.18 -0.322,5.139 -0.445,5.043 -0.514,4.893 -0.83,4.084 -1.063,2.796 -1.213,1.029 -1.227,0.795 -1.232,0.609 -1.232,0.473 -1.232,0.145 -0.822,-0.014 0,0 m 0.104,18.15 1.992,0 C 2.549,18.123 2.857,18.041 3.021,17.904 3.186,17.767 3.33,17.465 3.453,17 3.508,16.794 3.563,16.52 3.617,16.177 4.029,13.752 4.734,9.579 5.734,3.659 c 0.891,-5.331 1.59,-9.503 2.098,-12.518 0.219,-1.233 0.17,-1.993 -0.144,-2.282 -0.219,-0.191 -0.864,-0.281 -1.932,-0.267 -1.043,0.013 -1.652,0.027 -1.83,0.041 -0.397,0.027 -0.678,0.125 -0.842,0.289 -0.166,0.15 -0.281,0.424 -0.35,0.822 -0.041,0.328 -0.111,0.822 -0.207,1.479 -0.082,0.658 -0.15,1.152 -0.205,1.48 -0.027,0.205 -0.123,0.692 -0.287,1.459 -0.15,0.672 -0.59,1.022 -1.316,1.049 -0.192,0.014 -0.301,0.021 -0.328,0.021 -1.11,0.014 -1.803,-0.068 -2.077,-0.248 -0.369,-0.246 -0.617,-0.91 -0.74,-1.992 -0.027,-0.316 -0.226,-1.461 -0.595,-3.433 -0.124,-0.59 -0.473,-0.891 -1.049,-0.905 -1.301,-0.041 -2.405,-0.041 -3.309,0 -0.59,0.028 -0.871,0.364 -0.844,1.008 0.014,0.164 0.069,0.547 0.164,1.15 0.918,5.467 1.53,9.073 1.83,10.813 1.631,9.537 2.481,14.498 2.549,14.881 0.11,0.713 0.295,1.172 0.555,1.377 0.248,0.192 0.713,0.288 1.398,0.288 l 1.831,0 0,-0.021 z" /></g><g
           transform="translate(291.2773,34.6885)"
           id="g64"><path
             id="path66"
             style="fill:#000000;fill-opacity:1;fill-rule:nonzero;stroke:none"
             d="m 0,0 -4.789,0 c -0.453,0 -0.836,0.021 -1.15,0.063 -0.508,0.054 -0.776,0.287 -0.803,0.699 -0.123,2.343 -0.02,3.926 0.308,4.748 0.946,2.33 2.213,5.502 3.803,9.516 -0.055,-0.151 0.91,2.309 2.899,7.38 0.164,0.424 0.246,0.63 0.246,0.616 0.246,0.795 -0.047,1.261 -0.883,1.398 -0.289,0.055 -0.727,0.082 -1.317,0.082 -0.396,0.014 -0.918,0.021 -1.562,0.021 l -1.582,0 c -0.453,0 -0.781,0.007 -0.986,0.02 -0.618,0.069 -0.94,0.377 -0.967,0.925 -0.041,1.028 -0.035,2.021 0.021,2.981 0.028,0.562 0.342,0.884 0.946,0.966 0.273,0.041 0.656,0.062 1.15,0.062 l 9.271,0 c 0.946,0 1.528,-0.11 1.747,-0.329 C 6.57,28.928 6.701,28.346 6.742,27.4 6.797,25.783 6.516,24.228 5.9,22.734 5.297,21.268 3.221,16.047 -0.328,7.072 -0.494,6.646 -0.604,6.332 -0.658,6.127 -0.877,5.332 -0.568,4.873 0.268,4.748 0.568,4.693 1.117,4.666 1.912,4.666 2.131,4.652 2.74,4.646 3.74,4.646 4.48,4.646 5.084,4.639 5.551,4.625 5.961,4.611 6.248,4.523 6.414,4.359 6.578,4.207 6.674,3.928 6.701,3.516 6.742,2.693 6.734,1.871 6.68,1.049 6.666,0.707 6.578,0.459 6.414,0.309 6.262,0.158 6.002,0.068 5.633,0.041 5.412,0.014 4.967,0 4.297,0 L 0,0 Z" /></g><g
           transform="translate(305.7422,49.4268)"
           id="g68"><path
             id="path70"
             style="fill:#000000;fill-opacity:1;fill-rule:nonzero;stroke:none"
             d="m 0,0 0,-12.58 c 0,-1.041 -0.096,-1.664 -0.287,-1.869 -0.207,-0.194 -0.822,-0.289 -1.85,-0.289 -0.795,0 -1.406,0.021 -1.83,0.062 -0.562,0.055 -0.877,0.377 -0.945,0.967 -0.041,0.301 -0.063,0.746 -0.063,1.336 l 0,25.015 c 0,1.027 0.104,1.637 0.309,1.829 0.191,0.192 0.814,0.288 1.871,0.288 0.822,0 1.424,-0.014 1.809,-0.041 0.576,-0.055 0.89,-0.377 0.945,-0.967 C -0.014,13.464 0,12.971 0,12.271 L 0,0 Z" /></g><g
           transform="translate(308.7637,61.7192)"
           id="g72"><path
             id="path74"
             style="fill:#000000;fill-opacity:1;fill-rule:nonzero;stroke:none"
             d="m 0,0 c 0,0.658 0.02,1.151 0.061,1.48 0.054,0.562 0.33,0.849 0.822,0.863 1.138,0.028 2.461,0.028 3.969,0 0.519,-0.014 0.869,-0.315 1.046,-0.905 0.082,-0.26 0.248,-0.78 0.495,-1.562 0.205,-0.657 0.363,-1.185 0.472,-1.582 0.342,-1.11 0.787,-2.59 1.336,-4.44 0.645,-2.207 1.082,-3.687 1.317,-4.44 0.068,-0.247 0.136,-0.453 0.205,-0.617 0.109,-0.247 0.281,-0.356 0.513,-0.329 0.233,0.028 0.383,0.171 0.453,0.432 0.096,0.397 0.157,0.72 0.184,0.966 0.014,0.206 0.022,0.644 0.022,1.315 l 0,9.086 c 0,1.028 0.101,1.637 0.308,1.829 0.192,0.192 0.809,0.295 1.85,0.309 0.726,0 1.39,-0.028 1.994,-0.082 0.437,-0.042 0.683,-0.295 0.74,-0.761 0.041,-0.384 0.061,-0.822 0.061,-1.315 l 0,-24.954 c 0,-1.111 -0.11,-1.775 -0.328,-1.994 -0.221,-0.22 -0.891,-0.33 -2.016,-0.33 -0.506,0 -1.172,0.008 -1.992,0.022 -0.672,0.013 -1.117,0.355 -1.338,1.027 -0.041,0.137 -0.11,0.342 -0.205,0.617 -0.096,0.287 -0.164,0.5 -0.205,0.637 -0.123,0.371 -0.645,1.967 -1.563,4.789 -0.617,1.945 -1.131,3.543 -1.541,4.789 -0.123,0.399 -0.303,0.863 -0.535,1.399 -0.109,0.246 -0.281,0.349 -0.514,0.308 -0.205,-0.041 -0.355,-0.185 -0.451,-0.432 -0.139,-0.328 -0.207,-0.931 -0.207,-1.808 l 0,-4.543 0,-4.543 c 0,-1.123 -0.101,-1.781 -0.308,-1.973 -0.192,-0.193 -0.87,-0.289 -2.034,-0.289 -0.713,0 -1.207,0.014 -1.48,0.041 -0.645,0.069 -1,0.418 -1.07,1.049 C 0.02,-25.64 0,-25.146 0,-24.46 L 0,-12.231 0,0 Z" /></g><g
           transform="translate(337.9727,61.6777)"
           id="g76"><path
             id="path78"
             style="fill:#000000;fill-opacity:1;fill-rule:nonzero;stroke:none"
             d="m 0,0 c 0,0.699 0.006,1.138 0.02,1.316 0.041,0.452 0.144,0.753 0.308,0.904 0.164,0.165 0.481,0.26 0.945,0.288 0.317,0 1.309,0.007 2.981,0.02 l 6.146,0 c 0.563,0 0.891,-0.007 0.987,-0.02 C 12.045,2.48 12.463,2.377 12.641,2.2 12.805,2.021 12.9,1.596 12.93,0.925 12.943,0.158 12.922,-0.562 12.867,-1.233 12.826,-1.74 12.545,-2.021 12.025,-2.076 11.764,-2.117 11.381,-2.138 10.873,-2.138 l -1.828,0 -1.83,0 C 6.68,-2.138 6.297,-2.158 6.064,-2.199 5.213,-2.309 4.762,-2.775 4.707,-3.597 4.693,-4.008 4.68,-5.166 4.666,-7.071 c 0,-0.589 0.02,-1.028 0.061,-1.316 0.111,-0.795 0.535,-1.226 1.275,-1.295 0.301,-0.027 1.131,-0.047 2.486,-0.061 1.03,-0.014 1.645,-0.116 1.852,-0.309 0.191,-0.191 0.287,-0.808 0.287,-1.849 0,-0.823 -0.014,-1.432 -0.041,-1.828 -0.055,-0.59 -0.371,-0.907 -0.945,-0.948 0.082,0 -0.694,-0.013 -2.323,-0.041 -0.74,-0.013 -1.234,-0.033 -1.48,-0.06 -0.467,-0.041 -0.781,-0.309 -0.945,-0.803 -0.153,-0.424 -0.227,-1.082 -0.227,-1.973 l 0,-7.133 c 0,-1.136 -0.103,-1.808 -0.309,-2.013 -0.205,-0.194 -0.877,-0.289 -2.013,-0.289 -1.153,0 -1.83,0.095 -2.035,0.289 C 0.104,-26.495 0,-25.831 0,-24.706 L 0,0 Z" /></g><g
           transform="translate(368.1504,41.9443)"
           id="g80"><path
             id="path82"
             style="fill:#000000;fill-opacity:1;fill-rule:nonzero;stroke:none"
             d="m 0,0 c 0.055,-2.424 -1.021,-4.508 -3.227,-6.248 -0.248,-0.191 -0.486,-0.328 -0.72,-0.41 -1.741,-0.604 -3.371,-0.748 -4.891,-0.432 -1.699,0.356 -3.103,1.266 -4.215,2.733 -0.355,0.466 -0.609,1 -0.76,1.603 -0.371,1.399 -0.554,2.576 -0.554,3.535 l 0,9.641 0,2.619 c 0.013,1 0.123,1.61 0.328,1.83 0.219,0.205 0.828,0.315 1.83,0.329 0.781,0.013 1.377,0 1.787,-0.041 0.563,-0.055 0.863,-0.37 0.904,-0.946 0.028,-0.316 0.041,-0.863 0.041,-1.645 L -9.455,1.77 c 0,-0.604 0.006,-1.145 0.019,-1.625 0.028,-0.522 0.18,-0.981 0.454,-1.377 0.548,-0.768 1.191,-1.096 1.931,-0.987 0.932,0.151 1.53,0.637 1.789,1.459 0.233,0.768 0.35,1.623 0.35,2.571 l 0,11.292 c 0,1.014 0.096,1.617 0.287,1.809 0.191,0.192 0.809,0.288 1.85,0.288 0.712,0 1.363,-0.021 1.953,-0.062 0.453,-0.041 0.699,-0.295 0.74,-0.761 0.041,-0.398 0.062,-0.884 0.062,-1.459 l 0,-2.948 C -0.02,3.83 -0.014,0.508 0,0" /></g><g
           transform="translate(376.1758,54.874)"
           id="g84"><path
             id="path86"
             style="fill:#000000;fill-opacity:1;fill-rule:nonzero;stroke:none"
             d="m 0,0 c 0,-1.892 0.006,-2.939 0.02,-3.146 0.027,-0.698 0.376,-1.129 1.048,-1.294 0.782,-0.206 1.5,-0.11 2.159,0.288 0.644,0.397 1.054,0.986 1.232,1.767 0.055,0.247 0.082,0.411 0.082,0.493 0.014,2.207 0.014,3.475 0,3.804 C 4.5,2.583 4.322,3.09 4.008,3.433 3.719,3.762 3.232,4.008 2.549,4.173 2.26,4.241 2.041,4.282 1.891,4.296 0.711,4.447 0.082,3.954 0,2.816 -0.016,2.679 -0.021,1.74 -0.021,0 L 0,0 Z m -5.016,-5.406 0,12.6 c 0,1.056 0.096,1.679 0.287,1.871 0.192,0.192 0.801,0.294 1.831,0.308 0.287,0 1.033,-0.007 2.24,-0.02 C 0.26,9.353 1,9.359 1.561,9.373 2.602,9.4 3.809,9.236 5.18,8.88 6.316,8.579 7.256,7.982 7.994,7.092 8.748,6.187 9.152,5.146 9.207,3.967 9.248,2.857 9.256,0.377 9.229,-3.474 9.215,-4.475 8.803,-5.481 7.994,-6.494 7.42,-7.221 7.27,-8.098 7.543,-9.127 c 0.369,-1.355 1.123,-4.24 2.262,-8.652 0.15,-0.576 0.252,-1.063 0.306,-1.461 0.028,-0.219 -0.013,-0.405 -0.123,-0.555 -0.123,-0.164 -0.287,-0.26 -0.492,-0.287 -1.166,-0.137 -2.433,-0.145 -3.803,-0.022 -0.48,0.055 -0.795,0.336 -0.945,0.844 -0.111,0.356 -0.24,0.836 -0.391,1.44 -0.152,0.629 -0.418,1.754 -0.802,3.371 -0.342,1.437 -0.616,2.568 -0.823,3.39 -0.095,0.413 -0.191,0.727 -0.287,0.946 C 2.186,-9.51 1.746,-9.242 1.129,-9.311 0.514,-9.393 0.156,-9.764 0.061,-10.422 0.006,-10.75 -0.029,-11.244 -0.043,-11.9 l 0,-2.981 0,-2.98 c 0,-0.618 -0.014,-1.063 -0.041,-1.336 -0.068,-0.59 -0.391,-0.899 -0.965,-0.926 -1,-0.041 -1.994,-0.041 -2.98,0 -0.576,0.027 -0.891,0.35 -0.946,0.967 -0.027,0.287 -0.041,0.781 -0.041,1.478 l 0,12.272 z" /></g><g
           transform="translate(206.0156,27.8623)"
           id="g88"><path
             id="path90"
             style="fill:#000000;fill-opacity:1;fill-rule:nonzero;stroke:none"
             d="m 0,0 c 0,0.699 0.006,1.139 0.02,1.316 0.041,0.452 0.144,0.754 0.308,0.905 0.164,0.164 0.481,0.259 0.945,0.287 0.317,0 1.309,0.008 2.981,0.021 l 6.146,0 c 0.563,0 0.891,-0.008 0.987,-0.021 C 12.045,2.48 12.463,2.377 12.641,2.199 12.805,2.021 12.9,1.596 12.93,0.926 12.943,0.158 12.922,-0.563 12.867,-1.232 12.826,-1.74 12.545,-2.021 12.025,-2.076 11.764,-2.117 11.381,-2.137 10.873,-2.137 l -1.828,0 -1.83,0 C 6.68,-2.137 6.297,-2.158 6.064,-2.199 5.213,-2.309 4.762,-2.775 4.707,-3.598 4.693,-4.008 4.68,-5.166 4.666,-7.07 c 0,-0.59 0.02,-1.028 0.061,-1.317 0.111,-0.795 0.535,-1.226 1.275,-1.295 0.301,-0.027 1.131,-0.047 2.486,-0.06 1.03,-0.014 1.645,-0.117 1.852,-0.309 0.191,-0.191 0.287,-0.808 0.287,-1.849 0,-0.823 -0.014,-1.434 -0.041,-1.83 -0.055,-0.59 -0.371,-0.905 -0.945,-0.946 0.082,0 -0.694,-0.013 -2.323,-0.041 -0.74,-0.013 -1.234,-0.035 -1.48,-0.062 C 5.371,-14.82 5.057,-15.088 4.893,-15.58 4.74,-16.006 4.666,-16.662 4.666,-17.553 l 0,-7.133 c 0,-1.138 -0.103,-1.81 -0.309,-2.015 -0.205,-0.192 -0.877,-0.287 -2.013,-0.287 -1.153,0 -1.83,0.095 -2.035,0.287 C 0.104,-26.496 0,-25.83 0,-24.707 L 0,0 Z" /></g><g
           transform="translate(221.8047,15.6123)"
           id="g92"><path
             id="path94"
             style="fill:#000000;fill-opacity:1;fill-rule:nonzero;stroke:none"
             d="m 0,0 0,12.6 c 0,1.054 0.096,1.677 0.287,1.871 0.193,0.205 0.803,0.308 1.83,0.308 3.303,0.014 6.338,0.014 9.106,0 0.945,0 1.513,-0.095 1.707,-0.289 0.205,-0.191 0.308,-0.746 0.308,-1.664 C 13.252,12.1 13.23,11.496 13.176,11.018 13.135,10.51 12.848,10.229 12.313,10.174 12.066,10.146 11.627,10.127 10.998,10.113 8.105,10.1 6.729,10.1 6.865,10.113 6.166,10.086 5.688,9.947 5.426,9.701 5.166,9.441 5.021,8.982 4.994,8.324 4.953,6.898 4.961,5.516 5.016,4.172 5.029,3.598 5.16,3.186 5.406,2.939 5.652,2.705 6.07,2.568 6.66,2.527 7.002,2.514 7.496,2.508 8.141,2.508 8.824,2.508 9.324,2.5 9.641,2.486 10.135,2.459 10.469,2.363 10.648,2.199 10.813,2.021 10.908,1.678 10.936,1.172 10.963,0.295 10.949,-0.59 10.895,-1.48 10.867,-2.07 10.551,-2.385 9.949,-2.426 9.305,-2.453 8.365,-2.467 7.133,-2.467 6.338,-2.467 5.816,-2.557 5.57,-2.734 5.242,-2.98 5.049,-3.564 4.994,-4.482 c -0.055,-1.014 -0.055,-2.172 0,-3.473 0.027,-0.672 0.172,-1.131 0.432,-1.377 0.262,-0.262 0.734,-0.398 1.42,-0.412 -0.112,0 1.267,-0.006 4.131,-0.02 0.63,-0.013 1.076,-0.035 1.336,-0.062 0.535,-0.055 0.822,-0.328 0.863,-0.822 0.109,-1.082 0.109,-2.131 0,-3.145 -0.055,-0.508 -0.342,-0.795 -0.863,-0.863 -0.329,-0.055 -0.713,-0.082 -1.151,-0.082 l -9.127,0 c -0.301,0 -0.521,0.006 -0.658,0.019 -0.492,0.041 -0.828,0.153 -1.006,0.33 -0.193,0.178 -0.308,0.5 -0.35,0.965 C 0.008,-13.203 0,-12.703 0,-11.922 L 0,0 Z" /></g><g
           transform="translate(241.0762,1.4287)"
           id="g96"><path
             id="path98"
             style="fill:#000000;fill-opacity:1;fill-rule:nonzero;stroke:none"
             d="m 0,0 c -0.727,0.465 -1.254,0.939 -1.582,1.418 -0.986,1.521 -1.584,2.975 -1.789,4.357 -0.041,0.317 -0.049,0.645 -0.02,0.989 0.028,0.465 0.26,0.724 0.698,0.779 1.371,0.221 2.289,0.336 2.756,0.35 C 0.486,7.92 0.787,7.859 0.967,7.709 1.145,7.557 1.295,7.264 1.418,6.824 1.445,6.729 1.494,6.543 1.563,6.27 1.631,6.037 1.686,5.852 1.727,5.715 1.781,5.51 1.863,5.311 1.973,5.119 2.631,3.953 3.48,3.494 4.521,3.74 5.016,3.865 5.439,4.158 5.797,4.625 6.166,5.104 6.352,5.633 6.352,6.207 6.352,7.428 5.955,8.469 5.16,9.332 4.98,9.523 4.289,10.223 3.084,11.43 c -2.234,2.232 -3.393,3.396 -3.475,3.494 -2.013,2.191 -2.918,4.68 -2.713,7.461 0.124,1.617 0.659,2.994 1.604,4.131 0.891,1.097 2,1.802 3.33,2.117 3.068,0.767 5.543,0.178 7.42,-1.768 1.055,-1.082 1.678,-2.508 1.871,-4.275 0.055,-0.465 -0.123,-0.76 -0.535,-0.883 -1.15,-0.371 -2.221,-0.57 -3.207,-0.598 -0.492,-0.013 -0.836,0.213 -1.027,0.68 -0.041,0.096 -0.11,0.274 -0.206,0.533 -0.082,0.235 -0.15,0.412 -0.205,0.535 C 5.461,23.953 4.748,24.42 3.803,24.256 2.857,24.09 2.303,23.434 2.139,22.281 1.932,20.691 2.439,19.186 3.658,17.76 4.262,17.074 4.893,16.479 5.551,15.971 6.619,15.148 7.688,14.129 8.756,12.908 10.854,10.523 11.682,7.797 11.244,4.729 11.066,3.385 10.51,2.186 9.578,1.131 8.633,0.033 7.557,-0.609 6.352,-0.801 6.27,-0.814 5.51,-0.863 4.07,-0.945 2.508,-1.041 1.15,-0.727 0,0" /></g><g
           transform="translate(259.6172,22.6221)"
           id="g100"><path
             id="path102"
             style="fill:#000000;fill-opacity:1;fill-rule:nonzero;stroke:none"
             d="m 0,0 c 0,0.697 -0.006,1.143 -0.02,1.336 -0.041,0.506 -0.166,0.863 -0.371,1.068 -0.205,0.205 -0.562,0.336 -1.068,0.391 -0.246,0.014 -0.582,0.027 -1.008,0.041 -0.465,0 -0.795,0.006 -0.986,0.019 -0.424,0.028 -0.719,0.118 -0.883,0.268 -0.166,0.164 -0.262,0.44 -0.289,0.822 -0.041,0.932 -0.041,1.871 0,2.817 0.027,0.355 0.117,0.609 0.268,0.759 0.15,0.137 0.418,0.227 0.8,0.268 0.194,0.014 0.522,0.022 0.989,0.022 5.562,0.013 8.941,0.013 10.132,0 0.973,0 1.555,-0.096 1.749,-0.29 C 9.504,7.33 9.605,6.74 9.621,5.754 9.621,4.904 9.605,4.295 9.578,3.926 9.551,3.555 9.469,3.295 9.332,3.145 9.182,2.992 8.928,2.904 8.572,2.877 8.352,2.85 8.045,2.836 7.646,2.836 7.236,2.836 6.934,2.828 6.742,2.814 6.111,2.773 5.674,2.631 5.428,2.383 5.193,2.137 5.051,1.697 4.996,1.068 l 0,-1.5 -0.021,-9.375 0,-9.373 c 0,-0.738 -0.014,-1.295 -0.041,-1.664 C 4.879,-21.393 4.598,-21.68 4.09,-21.707 2.994,-21.762 1.945,-21.77 0.945,-21.729 0.398,-21.701 0.096,-21.371 0.041,-20.74 0.014,-20.494 0,-20.049 0,-19.404 L 0,-9.621 0,0 Z" /></g><g
           transform="translate(277.1035,15.6123)"
           id="g104"><path
             id="path106"
             style="fill:#000000;fill-opacity:1;fill-rule:nonzero;stroke:none"
             d="m 0,0 0,-12.58 c 0,-1.041 -0.098,-1.666 -0.289,-1.871 -0.205,-0.192 -0.822,-0.287 -1.85,-0.287 -0.795,0 -1.404,0.019 -1.83,0.06 -0.56,0.055 -0.877,0.377 -0.945,0.967 -0.041,0.301 -0.061,0.746 -0.061,1.336 l 0,25.016 c 0,1.027 0.102,1.636 0.309,1.83 0.191,0.191 0.814,0.287 1.869,0.287 0.822,0 1.426,-0.014 1.809,-0.041 0.576,-0.055 0.89,-0.377 0.947,-0.967 C -0.016,13.463 0,12.971 0,12.271 L 0,0 Z" /></g><g
           transform="translate(288.3535,0.874)"
           id="g108"><path
             id="path110"
             style="fill:#000000;fill-opacity:1;fill-rule:nonzero;stroke:none"
             d="m 0,0 -2.344,0 c -0.576,0.014 -0.931,0.301 -1.068,0.863 -0.111,0.438 -0.199,0.815 -0.268,1.131 -0.343,1.918 -0.808,4.535 -1.398,7.852 -0.672,3.767 -1.137,6.384 -1.397,7.851 -0.234,1.262 -0.529,2.899 -0.884,4.914 -0.481,2.645 -0.774,4.282 -0.885,4.912 -0.041,0.192 -0.069,0.356 -0.082,0.493 -0.055,0.589 0.008,0.994 0.185,1.213 0.178,0.22 0.555,0.335 1.131,0.349 0.932,0.041 1.815,0.041 2.653,0 0.41,-0.027 0.705,-0.115 0.882,-0.267 0.164,-0.151 0.287,-0.424 0.37,-0.823 0.193,-1.041 0.398,-2.24 0.617,-3.595 0.15,-0.946 0.445,-2.858 0.884,-5.737 0.383,-2.396 0.686,-4.316 0.905,-5.754 0.054,-0.343 0.191,-0.822 0.41,-1.439 0.055,-0.164 0.172,-0.26 0.35,-0.287 0.232,-0.028 0.384,0.101 0.453,0.39 0.177,0.752 0.3,1.356 0.369,1.809 0.26,1.521 0.609,3.65 1.049,6.393 0.478,3 0.822,5.13 1.027,6.392 0.068,0.424 0.191,1.076 0.371,1.953 0.123,0.602 0.459,0.91 1.006,0.924 1.275,0.041 2.385,0.049 3.33,0.022 C 8.297,29.531 8.584,29.195 8.529,28.551 8.475,27.879 8.357,27.057 8.18,26.084 7.07,20.014 5.639,12.168 3.885,2.549 3.803,2.096 3.686,1.555 3.535,0.924 3.398,0.35 3.049,0.047 2.486,0.02 L 0,0.02 0,0 Z" /></g><g
           transform="translate(306.0449,12.2822)"
           id="g112"><path
             id="path114"
             style="fill:#000000;fill-opacity:1;fill-rule:nonzero;stroke:none"
             d="M 0,0 C 0.74,0 1.137,0.15 1.191,0.451 1.219,0.533 1.205,0.773 1.15,1.172 1.096,1.541 1,2.096 0.863,2.836 0.713,3.727 0.631,4.207 0.617,4.275 0.59,4.467 0.514,4.672 0.391,4.893 0.24,5.139 0.063,5.234 -0.145,5.18 -0.322,5.139 -0.445,5.043 -0.514,4.893 -0.83,4.084 -1.063,2.795 -1.213,1.027 -1.227,0.795 -1.232,0.609 -1.232,0.473 -1.232,0.145 -0.822,-0.014 0,0 m 0.104,18.15 1.992,0 C 2.549,18.123 2.857,18.041 3.021,17.902 3.186,17.766 3.33,17.465 3.453,16.998 3.508,16.793 3.563,16.52 3.617,16.176 4.029,13.752 4.734,9.578 5.734,3.658 c 0.891,-5.33 1.59,-9.504 2.098,-12.517 0.219,-1.235 0.17,-1.995 -0.144,-2.282 -0.219,-0.193 -0.864,-0.281 -1.932,-0.267 -1.043,0.013 -1.652,0.027 -1.83,0.041 -0.397,0.027 -0.678,0.123 -0.842,0.287 -0.166,0.15 -0.281,0.426 -0.35,0.822 -0.041,0.33 -0.111,0.822 -0.207,1.481 -0.082,0.658 -0.15,1.15 -0.205,1.48 -0.027,0.205 -0.123,0.692 -0.287,1.459 -0.15,0.672 -0.59,1.022 -1.316,1.049 -0.192,0.014 -0.301,0.019 -0.328,0.019 -1.11,0.014 -1.803,-0.068 -2.077,-0.246 -0.369,-0.246 -0.617,-0.912 -0.74,-1.994 -0.027,-0.314 -0.226,-1.459 -0.595,-3.431 -0.124,-0.59 -0.473,-0.893 -1.049,-0.907 -1.301,-0.041 -2.405,-0.041 -3.309,0 -0.59,0.028 -0.871,0.364 -0.844,1.008 0.014,0.164 0.069,0.549 0.164,1.151 0.918,5.468 1.53,9.072 1.83,10.812 1.631,9.537 2.481,14.498 2.549,14.883 0.11,0.713 0.295,1.172 0.555,1.377 0.248,0.191 0.713,0.287 1.398,0.287 l 1.831,0 0,-0.02 z" /></g><g
           transform="translate(316.7402,28.2529)"
           id="g116"><path
             id="path118"
             style="fill:#000000;fill-opacity:1;fill-rule:nonzero;stroke:none"
             d="m 0,0 c 0,1.041 0.096,1.666 0.287,1.871 0.192,0.192 0.809,0.287 1.85,0.287 0.822,0.014 1.426,0 1.808,-0.041 C 4.549,2.076 4.877,1.768 4.932,1.193 4.959,0.891 4.973,0.336 4.973,-0.473 l 0,-9.373 0,-9.373 c 0,-0.836 0.013,-1.385 0.041,-1.644 0.095,-0.932 0.584,-1.432 1.461,-1.5 0.082,0 1.019,-0.014 2.816,-0.041 1.369,-0.014 2.143,-0.028 2.322,-0.041 0.602,-0.041 0.91,-0.364 0.924,-0.967 0.041,-1 0.041,-1.994 0,-2.981 -0.014,-0.562 -0.328,-0.877 -0.945,-0.945 -0.205,-0.027 -0.533,-0.041 -0.987,-0.041 l -8.632,0 C 1.041,-27.365 0.479,-27.27 0.287,-27.092 0.096,-26.9 0,-26.33 0,-25.385 L 0,-12.621 0,0 Z" /></g><g
           transform="translate(332.2031,15.5498)"
           id="g120"><path
             id="path122"
             style="fill:#000000;fill-opacity:1;fill-rule:nonzero;stroke:none"
             d="m 0,0 0,12.416 c 0,0.629 0.021,1.123 0.063,1.48 0.054,0.534 0.341,0.815 0.863,0.842 0.931,0.041 1.863,0.041 2.795,0 0.506,-0.027 0.795,-0.308 0.863,-0.842 0.041,-0.261 0.062,-0.644 0.062,-1.152 l 0,-1.664 c 0,-0.672 0.006,-1.221 0.02,-1.644 0,-0.44 0.055,-0.872 0.164,-1.295 C 4.871,7.936 4.996,7.805 5.201,7.75 5.406,7.695 5.592,7.736 5.756,7.873 6.002,8.064 6.275,8.469 6.578,9.086 6.824,9.564 7.16,10.23 7.586,11.08 c 0.478,0.945 0.814,1.609 1.006,1.994 0.232,0.451 0.418,0.793 0.554,1.028 0.221,0.382 0.522,0.587 0.905,0.617 1.549,0.123 2.926,0.123 4.133,0 0.15,-0.016 0.259,-0.084 0.328,-0.207 0.068,-0.123 0.068,-0.26 0,-0.41 C 14.375,13.758 14.189,13.354 13.957,12.889 13.779,12.531 12.422,9.826 9.887,4.77 9.477,3.961 9.305,3.611 9.373,3.721 9.031,3.104 9.004,2.475 9.291,1.83 c 0.314,-0.685 0.678,-1.549 1.09,-2.59 1.467,-3.59 3.084,-7.572 4.851,-11.943 0.151,-0.369 0.274,-0.74 0.37,-1.11 0.041,-0.164 0.013,-0.322 -0.082,-0.472 -0.096,-0.151 -0.227,-0.24 -0.391,-0.268 -0.316,-0.054 -0.645,-0.09 -0.986,-0.103 -0.123,0 -0.508,0.008 -1.153,0.021 -0.478,0 -0.869,-0.013 -1.17,-0.041 -1.152,-0.082 -1.933,0.465 -2.343,1.645 -0.041,0.136 -0.358,0.959 -0.946,2.467 -1.002,2.562 -1.584,4.048 -1.748,4.459 -0.232,0.617 -0.472,1.048 -0.719,1.296 -0.109,0.123 -0.253,0.178 -0.431,0.164 -0.18,0 -0.33,-0.068 -0.453,-0.207 -0.328,-0.382 -0.5,-0.945 -0.514,-1.685 0,0.055 -0.006,-1.328 -0.02,-4.151 0,-1.617 -0.007,-2.548 -0.021,-2.796 -0.027,-0.411 -0.117,-0.7 -0.268,-0.864 -0.164,-0.164 -0.445,-0.259 -0.841,-0.287 -0.836,-0.027 -1.666,-0.021 -2.489,0.02 -0.341,0.013 -0.588,0.103 -0.74,0.267 -0.137,0.151 -0.219,0.418 -0.246,0.803 C 0.014,-13.299 0,-12.805 0,-12.066 L 0,0 Z" /></g><g
           transform="translate(364.375,8.1299)"
           id="g124"><path
             id="path126"
             style="fill:#000000;fill-opacity:1;fill-rule:nonzero;stroke:none"
             d="m 0,0 c 0.055,-2.426 -1.021,-4.508 -3.227,-6.248 -0.248,-0.193 -0.486,-0.33 -0.72,-0.412 -1.741,-0.604 -3.371,-0.746 -4.891,-0.432 -1.699,0.356 -3.103,1.268 -4.215,2.735 -0.355,0.464 -0.609,1 -0.76,1.603 -0.371,1.397 -0.554,2.576 -0.554,3.535 l 0,9.641 0,9.619 c 0.013,1 0.123,1.609 0.328,1.83 0.219,0.205 0.828,0.315 1.83,0.328 0.781,0.014 1.377,0 1.787,-0.041 0.563,-0.054 0.863,-0.369 0.904,-0.945 0.028,-0.317 0.041,-0.863 0.041,-1.645 l 0.022,-17.8 c 0,-0.604 0.006,-1.145 0.019,-1.623 0.028,-0.522 0.18,-0.981 0.454,-1.379 0.548,-0.768 1.191,-1.096 1.931,-0.987 0.932,0.151 1.53,0.639 1.789,1.461 0.233,0.766 0.35,1.623 0.35,2.569 l 0,18.295 c 0,1.013 0.096,1.615 0.287,1.808 0.191,0.192 0.809,0.287 1.85,0.287 0.712,0 1.363,-0.019 1.953,-0.06 0.453,-0.041 0.699,-0.295 0.74,-0.762 0.041,-0.397 0.062,-0.883 0.062,-1.459 l 0,-9.949 C -0.02,3.83 -0.014,0.506 0,0" /></g><g
           transform="translate(367.3438,28.2529)"
           id="g128"><path
             id="path130"
             style="fill:#000000;fill-opacity:1;fill-rule:nonzero;stroke:none"
             d="M 0,0 C 0,1.041 0.096,1.666 0.287,1.871 0.48,2.063 1.096,2.158 2.139,2.158 2.961,2.172 3.563,2.158 3.947,2.117 4.549,2.076 4.879,1.768 4.934,1.193 4.961,0.891 4.975,0.336 4.975,-0.473 l 0,-9.373 0,-9.373 c 0,-0.836 0.013,-1.385 0.041,-1.644 0.095,-0.932 0.582,-1.432 1.459,-1.5 0.082,0 1.021,-0.014 2.816,-0.041 1.371,-0.014 2.145,-0.028 2.322,-0.041 0.604,-0.041 0.912,-0.364 0.926,-0.967 0.041,-1 0.041,-1.994 0,-2.981 -0.014,-0.562 -0.33,-0.877 -0.945,-0.945 -0.207,-0.027 -0.535,-0.041 -0.987,-0.041 l -8.634,0 C 1.041,-27.365 0.48,-27.27 0.287,-27.092 0.096,-26.9 0,-26.33 0,-25.385 L 0,-12.621 0,0 Z" /></g><g
           transform="translate(385.0352,22.6221)"
           id="g132"><path
             id="path134"
             style="fill:#000000;fill-opacity:1;fill-rule:nonzero;stroke:none"
             d="m 0,0 c 0,0.697 -0.006,1.143 -0.02,1.336 -0.041,0.506 -0.166,0.863 -0.371,1.068 -0.205,0.205 -0.562,0.336 -1.068,0.391 -0.246,0.014 -0.582,0.027 -1.008,0.041 -0.465,0 -0.795,0.006 -0.986,0.019 -0.424,0.028 -0.719,0.118 -0.883,0.268 -0.166,0.164 -0.262,0.44 -0.289,0.822 -0.041,0.932 -0.041,1.871 0,2.817 0.027,0.355 0.117,0.609 0.268,0.759 0.15,0.137 0.418,0.227 0.8,0.268 0.194,0.014 0.522,0.022 0.989,0.022 5.562,0.013 8.941,0.013 10.132,0 0.973,0 1.555,-0.096 1.749,-0.29 C 9.504,7.33 9.605,6.74 9.621,5.754 9.621,4.904 9.605,4.295 9.578,3.926 9.551,3.555 9.469,3.295 9.332,3.145 9.182,2.992 8.928,2.904 8.572,2.877 8.352,2.85 8.045,2.836 7.646,2.836 7.236,2.836 6.934,2.828 6.742,2.814 6.111,2.773 5.674,2.631 5.428,2.383 5.193,2.137 5.051,1.697 4.996,1.068 l 0,-1.5 -0.021,-9.375 0,-9.373 c 0,-0.738 -0.014,-1.295 -0.041,-1.664 C 4.879,-21.393 4.598,-21.68 4.09,-21.707 2.994,-21.762 1.945,-21.77 0.945,-21.729 0.398,-21.701 0.096,-21.371 0.041,-20.74 0.014,-20.494 0,-20.049 0,-19.404 L 0,-9.621 0,0 Z" /></g><g
           transform="translate(411.8945,8.1299)"
           id="g136"><path
             id="path138"
             style="fill:#000000;fill-opacity:1;fill-rule:nonzero;stroke:none"
             d="m 0,0 c 0.055,-2.426 -1.021,-4.508 -3.227,-6.248 -0.248,-0.193 -0.486,-0.33 -0.72,-0.412 -1.741,-0.604 -3.371,-0.746 -4.891,-0.432 -1.699,0.356 -3.103,1.268 -4.215,2.735 -0.355,0.464 -0.609,1 -0.76,1.603 -0.371,1.397 -0.554,2.576 -0.554,3.535 l 0,9.641 0,9.619 c 0.013,1 0.123,1.609 0.328,1.83 0.219,0.205 0.828,0.315 1.83,0.328 0.781,0.014 1.377,0 1.787,-0.041 0.563,-0.054 0.863,-0.369 0.904,-0.945 0.028,-0.317 0.041,-0.863 0.041,-1.645 l 0.022,-17.8 c 0,-0.604 0.006,-1.145 0.019,-1.623 0.028,-0.522 0.18,-0.981 0.454,-1.379 0.548,-0.768 1.191,-1.096 1.931,-0.987 0.932,0.151 1.53,0.639 1.789,1.461 0.233,0.766 0.35,1.623 0.35,2.569 l 0,18.295 c 0,1.013 0.096,1.615 0.287,1.808 0.191,0.192 0.809,0.287 1.85,0.287 0.712,0 1.363,-0.019 1.953,-0.06 0.453,-0.041 0.699,-0.295 0.74,-0.762 0.041,-0.397 0.062,-0.883 0.062,-1.459 l 0,-9.949 C -0.02,3.83 -0.014,0.506 0,0" /></g><g
           transform="translate(419.9199,21.0596)"
           id="g140"><path
             id="path142"
             style="fill:#000000;fill-opacity:1;fill-rule:nonzero;stroke:none"
             d="m 0,0 c 0,-1.893 0.006,-2.939 0.02,-3.146 0.027,-0.698 0.376,-1.129 1.048,-1.295 0.782,-0.205 1.5,-0.11 2.159,0.289 0.644,0.396 1.054,0.986 1.232,1.767 0.055,0.246 0.082,0.41 0.082,0.492 0.014,2.207 0.014,3.475 0,3.803 C 4.5,2.582 4.322,3.09 4.008,3.432 3.719,3.762 3.232,4.008 2.549,4.172 2.26,4.24 2.041,4.281 1.891,4.295 0.711,4.445 0.082,3.953 0,2.816 -0.016,2.678 -0.021,1.74 -0.021,0 L 0,0 Z m -5.016,-5.406 0,12.599 c 0,1.055 0.096,1.68 0.287,1.871 0.192,0.192 0.801,0.295 1.831,0.309 0.287,0 1.033,-0.008 2.24,-0.021 C 0.26,9.352 1,9.359 1.561,9.373 2.602,9.4 3.809,9.236 5.18,8.879 6.316,8.578 7.256,7.982 7.994,7.092 8.748,6.186 9.152,5.145 9.207,3.967 9.248,2.857 9.256,0.377 9.229,-3.475 9.215,-4.475 8.803,-5.482 7.994,-6.496 7.42,-7.223 7.27,-8.1 7.543,-9.127 c 0.369,-1.357 1.123,-4.242 2.262,-8.654 0.15,-0.574 0.252,-1.063 0.306,-1.459 0.028,-0.219 -0.013,-0.405 -0.123,-0.555 -0.123,-0.164 -0.287,-0.262 -0.492,-0.289 -1.166,-0.137 -2.433,-0.143 -3.803,-0.02 -0.48,0.055 -0.795,0.336 -0.945,0.842 -0.111,0.358 -0.24,0.836 -0.391,1.44 -0.152,0.631 -0.418,1.754 -0.802,3.371 -0.342,1.439 -0.616,2.57 -0.823,3.392 -0.095,0.411 -0.191,0.725 -0.287,0.946 -0.259,0.601 -0.699,0.869 -1.316,0.8 -0.615,-0.082 -0.973,-0.451 -1.068,-1.109 -0.055,-0.328 -0.09,-0.822 -0.104,-1.48 l 0,-2.981 0,-2.98 c 0,-0.617 -0.014,-1.063 -0.041,-1.336 -0.068,-0.59 -0.391,-0.899 -0.965,-0.926 -1,-0.041 -1.994,-0.041 -2.98,0 -0.576,0.027 -0.891,0.35 -0.946,0.967 -0.027,0.287 -0.041,0.781 -0.041,1.48 l 0,12.272 z" /></g><g
           transform="translate(359.5566,61.9673)"
           id="g144"><path
             id="path146"
             style="fill:#000000;fill-opacity:1;fill-rule:nonzero;stroke:none"
             d="m 0,0 c 0,-1.385 -1.121,-2.507 -2.506,-2.507 -1.385,0 -2.508,1.122 -2.508,2.507 0,1.385 1.123,2.507 2.508,2.507 C -1.121,2.507 0,1.385 0,0" /></g><g
           transform="translate(367.4805,61.9673)"
           id="g148"><path
             id="path150"
             style="fill:#000000;fill-opacity:1;fill-rule:nonzero;stroke:none"
             d="m 0,0 c 0,-1.385 -1.123,-2.507 -2.508,-2.507 -1.383,0 -2.506,1.122 -2.506,2.507 0,1.385 1.123,2.507 2.506,2.507 C -1.123,2.507 0,1.385 0,0" /></g></g></g></g></svg>