<?xml version="1.0" encoding="UTF-8" standalone="no"?>
<svg
   xmlns:dc="http://purl.org/dc/elements/1.1/"
   xmlns:cc="http://creativecommons.org/ns#"
   xmlns:rdf="http://www.w3.org/1999/02/22-rdf-syntax-ns#"
   xmlns:svg="http://www.w3.org/2000/svg"
   xmlns="http://www.w3.org/2000/svg"
   viewBox="0 0 108 21.333332"
   height="21.333332"
   width="108"
   xml:space="preserve"
   id="svg2"
   version="1.1"><metadata
     id="metadata8"><rdf:RDF><cc:Work
         rdf:about=""><dc:format>image/svg+xml</dc:format><dc:type
           rdf:resource="http://purl.org/dc/dcmitype/StillImage" /></cc:Work></rdf:RDF></metadata><defs
     id="defs6" /><g
     transform="matrix(1.3333333,0,0,-1.3333333,0,21.333333)"
     id="g10"><g
       transform="scale(0.1)"
       id="g12"><path
         id="path14"
         style="fill:#ffffff;fill-opacity:1;fill-rule:nonzero;stroke:none"
         d="m 480.988,107.254 -3.258,-7.4181 c 0,0 -1.472,-5.8906 2.458,-9.1679 3.925,-3.2735 14.73,-28.1172 11.292,-42.1914 -3.437,-14.0782 -5.89,-11.0938 -10.312,-5.2383 -4.418,5.8555 -3.926,9.457 -3.926,9.457 0,0 -2.418,3.5 -6.222,5.7266 -2.297,1.3476 -2.918,-3.9375 -2.918,-3.9375 0,0 -2.157,-19.9219 5.211,-27.6133 7.367,-7.6953 4.746,-10.1484 2.128,-10.9688 -2.621,-0.8203 -14.503,-1.6953 -18.429,-4.6406 -1.235,-0.9258 -1.75,-1.76561 -1.832,-2.49998 21.34,3.35548 51.226,-0.67188 51.226,-0.67188 0.074,-0.01171 2.606,-0.29687 4.797,0.01563 2.578,0.37109 2.789,1.10547 2.805,1.39844 0.078,1.68359 -0.555,2.30079 -1.137,2.69529 -0.387,0.2617 -0.988,0.5391 -1.812,0.9375 l -2.461,1.4375 c 0,0 -2.184,20.6133 -5.153,38.1602 -2.988,17.6679 -6.703,33.2031 -16.539,50.0426 l 1.504,8.598 c 4.797,3.875 9.254,9.84 9.254,16.484 0,5.973 -2.848,11.364 -7.191,15.196 -5.149,3.183 -15.926,4.445 -21.434,-4.532 -10.625,-17.328 11.414,-28.269 11.414,-28.269 0,0 1.688,-1.711 0.535,-3" /><path
         id="path16"
         style="fill:#231f20;fill-opacity:1;fill-rule:nonzero;stroke:none"
         d="m 39.3359,36.3242 c 1.5664,0 3.5586,1.2813 4.2696,3.418 l 7.4062,21.6484 c 0.5703,1.5625 1.1406,3.2735 1.1406,4.6992 0,0.5704 -0.4296,1.5665 -1.8515,1.5665 -1,0 -2.4219,-0.9961 -2.707,-2.2813 l -2.8477,-11.25 c -1.1406,-4.2695 -2.5625,-5.9805 -5.1289,-5.9805 -2.1328,0 -4.1289,1.9922 -4.8399,5.8399 l -1.5664,8.1172 c -0.8554,4.8437 -1.8515,5.8398 -4.9843,5.8398 -1.9961,0 -3.418,-1.1406 -3.8477,-3.1328 L 21.957,53.9844 c -0.8515,-3.8477 -2.7031,-5.6992 -5.5507,-5.6992 -1.4258,0 -3.5625,1.5703 -4.5586,6.6953 l -1.7071,8.5468 c -0.42966,2.1368 -1.28513,3.9844 -2.99216,3.9844 -2.42188,0 -2.42188,-1.4219 -1.56641,-4.2695 L 12.2734,40.7383 c 1,-3.418 2.5625,-4.4141 4.8438,-4.4141 1.2812,0 3.2773,1.1406 3.7031,2.9922 l 2.5625,9.9649 c 0.8555,3.4179 1.8516,3.5625 2.707,4.4179 0.711,0.4258 1.2813,0.711 1.9922,0.711 3.1328,0 4.418,-2.418 5.8399,-8.6875 1.707,-7.4024 1.9961,-9.3985 5.414,-9.3985" /><path
         id="path18"
         style="fill:#231f20;fill-opacity:1;fill-rule:nonzero;stroke:none"
         d="m 89.3398,36.3242 c 1.5665,0 3.5586,1.2813 4.2696,3.418 l 7.4066,21.6484 c 0.57,1.5625 1.14,3.2735 1.14,4.6992 0,0.5704 -0.426,1.5665 -1.851,1.5665 -0.9964,0 -2.4222,-0.9961 -2.7073,-2.2813 L 94.75,54.125 c -1.1406,-4.2695 -2.5625,-5.9805 -5.1289,-5.9805 -2.1328,0 -4.1289,1.9922 -4.8398,5.8399 l -1.5665,8.1172 c -0.8554,4.8437 -1.8515,5.8398 -4.9843,5.8398 -1.9961,0 -3.418,-1.1406 -3.8477,-3.1328 l -2.418,-10.8242 c -0.8554,-3.8477 -2.707,-5.6992 -5.5546,-5.6992 -1.4258,0 -3.5625,1.5703 -4.5586,6.6953 l -1.711,8.5468 c -0.4258,2.1368 -1.2812,3.9844 -2.9883,3.9844 -2.4218,0 -2.4218,-1.4219 -1.5664,-4.2695 l 6.6914,-22.5039 c 1,-3.418 2.5665,-4.4141 4.8438,-4.4141 1.2812,0 3.2734,1.1406 3.7031,2.9922 l 2.5625,9.9649 c 0.8555,3.4179 1.8516,3.5625 2.7071,4.4179 0.7109,0.4258 1.2812,0.711 1.996,0.711 3.129,0 4.4141,-2.418 5.836,-8.6875 1.7109,-7.4024 1.9961,-9.3985 5.414,-9.3985" /><path
         id="path20"
         style="fill:#231f20;fill-opacity:1;fill-rule:nonzero;stroke:none"
         d="m 139.344,36.3242 c 1.566,0 3.558,1.2813 4.273,3.418 l 7.403,21.6484 c 0.57,1.5625 1.14,3.2735 1.14,4.6992 0,0.5704 -0.426,1.5665 -1.851,1.5665 -0.996,0 -2.422,-0.9961 -2.707,-2.2813 l -2.848,-11.25 c -1.137,-4.2695 -2.563,-5.9805 -5.125,-5.9805 -2.137,0 -4.133,1.9922 -4.844,5.8399 l -1.566,8.1172 c -0.852,4.8437 -1.852,5.8398 -4.985,5.8398 -1.992,0 -3.418,-1.1406 -3.843,-3.1328 l -2.422,-10.8242 c -0.856,-3.8477 -2.707,-5.6992 -5.555,-5.6992 -1.426,0 -3.559,1.5703 -4.559,6.6953 l -1.707,8.5468 c -0.425,2.1368 -1.281,3.9844 -2.992,3.9844 -2.422,0 -2.422,-1.4219 -1.566,-4.2695 l 6.695,-22.5039 c 0.996,-3.418 2.563,-4.4141 4.84,-4.4141 1.281,0 3.277,1.1406 3.703,2.9922 l 2.567,9.9649 c 0.851,3.4179 1.847,3.5625 2.703,4.4179 0.711,0.4258 1.281,0.711 1.992,0.711 3.137,0 4.418,-2.418 5.84,-8.6875 1.711,-7.4024 1.996,-9.3985 5.414,-9.3985" /><path
         id="path22"
         style="fill:#231f20;fill-opacity:1;fill-rule:nonzero;stroke:none"
         d="m 160.723,40.0273 c 0,2.8477 -1.285,3.8438 -3.707,3.8438 -2.278,0 -3.559,-0.8516 -3.559,-3.8438 0,-2.9921 1.426,-3.7031 3.848,-3.7031 2.418,0 3.418,0.8555 3.418,3.7031" /><path
         id="path24"
         style="fill:#231f20;fill-opacity:1;fill-rule:evenodd;stroke:none"
         d="m 205.793,57.4766 c 0,13.1523 -8.531,19.5547 -16.707,19.5547 -4.621,0 -8,-2.1368 -11.199,-2.1368 -1.602,0 -4.09,0.8907 -6.578,0.8907 -1.598,0 -4.086,-0.3555 -4.086,-4.8008 V 26.3711 c 0,-4.6211 1.066,-5.5117 3.554,-5.5117 1.778,0 3.02,1.6015 3.02,3.3789 0,5.1562 0.535,6.5742 1.777,8.5312 1.602,2.1328 3.735,3.1993 6.403,3.1993 1.421,0 6.218,-0.8907 7.64,-0.8907 10.844,0 16.176,8.1758 16.176,22.3985 z m -31.996,-1.7774 c 0,3.0235 0.715,17.7774 13.156,17.7774 7.82,0 12.797,-7.4688 12.797,-16.8907 0,-11.375 -5.156,-18.1289 -13.687,-18.1289 -6.754,0 -12.266,7.6407 -12.266,17.2422" /><path
         id="path26"
         style="fill:#231f20;fill-opacity:1;fill-rule:evenodd;stroke:none"
         d="m 220.469,90.2734 c 0,1.7735 -1.781,2.3086 -3.559,2.3086 -1.953,0 -2.844,-0.8906 -2.844,-2.3086 0,-1.4257 0.891,-2.3125 3.555,-2.3125 1.067,0 2.848,0.8868 2.848,2.3125 z m 0.886,-23.289 c 0,7.6445 0,9.5976 -4.265,9.5976 -3.024,0 -3.91,-2.1289 -3.91,-6.3984 V 44.9453 c 0,-8.1758 0.535,-9.2422 4.441,-9.2422 2.488,0 3.734,2.1328 3.734,6.2188 v 25.0625" /><path
         id="path28"
         style="fill:#231f20;fill-opacity:1;fill-rule:nonzero;stroke:none"
         d="m 253.641,76.3164 c -5.332,0 -8.176,-1.957 -10.485,-1.957 -3.554,0 -6.754,0.7109 -9.597,0.7109 -1.957,0 -3.379,-1.0625 -3.379,-3.375 V 40.4102 c 0,-2.8438 0.711,-3.7305 2.668,-3.7305 2.308,0 3.019,1.7773 3.019,3.1992 v 17.7774 c 0,8.707 4.266,14.75 11.199,14.75 5.332,0 10.84,-2.8438 10.84,-16.1758 l 0.18,-16.3516 c 0,-2.4883 1.066,-3.1992 2.844,-3.1992 1.242,0 2.843,0.3555 2.843,3.9101 v 23.9961 c 0,5.8672 -1.421,11.7305 -10.132,11.7305" /><path
         id="path30"
         style="fill:#231f20;fill-opacity:1;fill-rule:evenodd;stroke:none"
         d="m 291.938,75.0703 c -3.024,0.7149 -4.801,1.2461 -6.758,1.2461 -7.821,0 -14.395,-8.1758 -14.395,-19.5508 0,-12.8008 6.574,-17.4179 14.043,-17.9531 1.422,-0.1797 6.574,0.5352 4.797,0.5352 2.488,0.3515 3.91,0.3515 3.91,0.3515 5.156,0 7.82,-2.664 7.82,-7.8203 0,-5.6875 -5.332,-10.1289 -12.085,-10.1289 -6.219,0 -10.133,6.9297 -13.688,6.9297 -1.422,0 -2.309,-0.5313 -2.309,-2.4883 0,-1.4219 3.375,-5.8633 15.465,-5.8633 14.219,0 19.02,4.4414 19.02,12.7969 v 37.3281 c 0,2.8438 -0.891,4.4414 -4.445,4.4414 -4.622,0 -4.446,-0.7109 -5.868,-0.7109 -1.066,0 -2.843,0.3555 -5.507,0.8867 z m -14.754,-16.707 c 0,9.2461 5.507,14.7539 12.441,14.7539 7.645,0 12.266,-7.8203 12.266,-17.2383 0,-8.1797 -5.332,-14.2226 -12.442,-14.2226 -7.469,0 -12.265,6.3984 -12.265,16.707" /><path
         id="path32"
         style="fill:#231f20;fill-opacity:1;fill-rule:nonzero;stroke:none"
         d="m 343.832,53.7422 c 0,-7.8203 -4.625,-13.8633 -11.379,-13.8633 -10.133,0 -10.844,10.1328 -10.844,12.7969 v 19.375 c 0,2.4883 -1.066,3.7344 -3.199,3.7344 -1.597,0 -2.488,-1.0664 -2.488,-3.5547 V 49.6523 c 0,-10.3046 2.668,-13.3281 10.664,-13.3281 3.379,0 8.18,1.9571 10.844,1.9571 3.023,0 5.156,-0.8907 8.175,-0.8907 2.668,0 3.911,1.2422 3.911,3.9102 v 29.6836 c 0,3.375 -0.711,4.8008 -2.664,4.8008 -1.067,0 -3.02,0 -3.02,-3.7344 V 53.7422" /><path
         id="path34"
         style="fill:#231f20;fill-opacity:1;fill-rule:evenodd;stroke:none"
         d="m 366.219,90.2734 c 0,1.7735 -1.778,2.3086 -3.555,2.3086 -1.957,0 -2.844,-0.8906 -2.844,-2.3086 0,-1.4257 0.887,-2.3125 3.555,-2.3125 1.066,0 2.844,0.8868 2.844,2.3125 z m 0.886,-23.289 c 0,7.6445 0,9.5976 -4.265,9.5976 -3.02,0 -3.91,-2.1289 -3.91,-6.3984 V 44.9453 c 0,-8.1758 0.535,-9.2422 4.445,-9.2422 2.488,0 3.73,2.1328 3.73,6.2188 v 25.0625" /><path
         id="path36"
         style="fill:#231f20;fill-opacity:1;fill-rule:nonzero;stroke:none"
         d="m 399.395,76.3164 c -5.332,0 -8.176,-1.957 -10.489,-1.957 -3.554,0 -6.754,0.7109 -9.597,0.7109 -1.957,0 -3.379,-1.0625 -3.379,-3.375 V 40.4102 c 0,-2.8438 0.711,-3.7305 2.668,-3.7305 2.308,0 3.019,1.7773 3.019,3.1992 v 17.7774 c 0,8.707 4.266,14.75 11.199,14.75 5.332,0 10.844,-2.8438 10.844,-16.1758 l 0.176,-16.3516 c 0,-2.4883 1.07,-3.1992 2.848,-3.1992 1.242,0 2.843,0.3555 2.843,3.9101 v 23.9961 c 0,5.8672 -1.422,11.7305 -10.132,11.7305" /><path
         id="path38"
         style="fill:#231f20;fill-opacity:1;fill-rule:evenodd;stroke:none"
         d="m 562.941,87.4258 c 0,2.8476 -0.531,4.4453 -3.375,4.4453 -5.336,0 -1.777,-5.6875 -4.976,-12.6211 -1.246,-2.3125 -2.848,-3.1992 -5.692,-3.1992 -2.132,0 -6.398,1.0664 -9.242,1.0664 -14.218,0 -16.707,-14.043 -16.707,-20.9727 0,-14.2226 7.11,-20.9765 17.774,-20.9765 0.535,0 1.066,0 1.777,0.1758 1.602,0.1796 1.957,0.3593 1.422,0.3593 0.359,0 5.691,1.4219 5.336,1.4219 2.844,0.3555 1.597,0.3555 3.73,0 3.379,-0.5352 4.266,-0.8906 6.578,-0.8906 1.778,0 3.375,1.2461 3.375,3.9101 z m -32.703,-31.461 c 0,16.5313 9.598,17.418 13.153,17.5977 7.109,0.3555 12.441,-7.1094 12.441,-16.707 0,-15.8203 -9.953,-18.1328 -12.797,-18.1328 -8.176,0 -12.797,7.1093 -12.797,17.2421" /><path
         id="path40"
         style="fill:#231f20;fill-opacity:1;fill-rule:nonzero;stroke:none"
         d="m 584.809,75.6953 c -0.891,0 -6.043,1.4219 -8.536,1.4219 -3.019,0 -4.441,-2.1328 -4.441,-6.2188 V 44.0547 c 0,-7.4649 0.711,-8.5313 5.332,-8.5313 2.313,0 3.555,1.9571 3.555,6.043 v 15.2891 c 0,3.0195 0.89,5.5078 2.488,7.8164 1.602,1.6015 1.246,1.7812 5.867,4.2695 2.844,1.5977 4.09,2.1328 4.09,4.2656 0,2.6641 -1.601,2.8438 -3.023,2.8438 -2.489,0 -2.489,-0.3555 -5.332,-0.3555" /><path
         id="path42"
         style="fill:#231f20;fill-opacity:1;fill-rule:nonzero;stroke:none"
         d="m 627.344,53.7422 c 0,-7.8203 -4.621,-13.8633 -11.379,-13.8633 -10.129,0 -10.84,10.1328 -10.84,12.7969 v 19.375 c 0,2.4883 -1.066,3.7344 -3.199,3.7344 -1.602,0 -2.488,-1.0664 -2.488,-3.5547 V 49.6523 c 0,-10.3046 2.664,-13.3281 10.664,-13.3281 3.378,0 8.175,1.9571 10.843,1.9571 3.02,0 5.153,-0.8907 8.176,-0.8907 2.664,0 3.91,1.2422 3.91,3.9102 v 29.6836 c 0,3.375 -0.711,4.8008 -2.668,4.8008 -1.062,0 -3.019,0 -3.019,-3.7344 V 53.7422" /><path
         id="path44"
         style="fill:#231f20;fill-opacity:1;fill-rule:nonzero;stroke:none"
         d="m 676.484,71.25 c 0,3.5586 -7.289,7.1133 -15.64,7.1133 -13.867,0 -20.977,-10.668 -20.977,-22.3985 0,-14.2226 8.531,-22.039 20.977,-22.039 9.242,0 15.82,5.5078 15.82,7.8164 0,1.6016 -0.891,2.3125 -2.668,2.3125 -3.555,0 -5.156,-3.7305 -11.73,-3.7305 -8.18,0 -12.621,7.4649 -12.621,15.9961 0,9.5977 5.507,15.6445 12.621,15.6445 4.797,0 8.351,-3.5546 10.308,-3.5546 2.489,0 3.91,0.7109 3.91,2.8398" /><path
         id="path46"
         style="fill:#231f20;fill-opacity:1;fill-rule:nonzero;stroke:none"
         d="m 703.93,70.2734 c -3.379,-3.375 -6.223,-4.9765 -8.176,-4.9765 -3.024,0 -6.043,3.5547 -6.043,8.1797 v 13.8593 c 0,2.8438 -1.246,4.2696 -3.734,4.2696 -2.489,0 -3.024,-2.668 -3.024,-4.2696 V 41.6563 c 0,-3.5547 1.246,-5.3321 3.735,-5.3321 1.601,0 3.199,1.5977 3.199,5.6875 0,5.1563 3.734,9.7774 7.82,9.7774 2.844,0 5.332,-1.7774 7.645,-5.1563 l 3.734,-5.5078 c 1.066,-1.6016 1.953,-4.9805 7.109,-4.9805 2.133,0 2.309,1.7774 0.887,4.2657 l -8.887,15.1093 c -0.886,1.4219 -1.246,3.3789 -1.246,5.6914 0,3.375 1.957,5.5079 5.867,10.3047 0.891,1.0664 1.954,1.961 1.954,3.2032 0,1.2421 -1.774,1.0664 -1.954,1.0664 -2.843,0 -3.554,-0.1797 -8.886,-5.5118" /><path
         id="path48"
         style="fill:#231f20;fill-opacity:1;fill-rule:nonzero;stroke:none"
         d="m 727.828,40.0273 c 0,2.8477 -1.281,3.8438 -3.703,3.8438 -2.281,0 -3.562,-0.8516 -3.562,-3.8438 0,-2.9921 1.425,-3.7031 3.847,-3.7031 2.418,0 3.418,0.8555 3.418,3.7031" /><path
         id="path50"
         style="fill:#231f20;fill-opacity:1;fill-rule:evenodd;stroke:none"
         d="m 764.563,77.2695 c 0,2.2774 -0.43,3.5586 -2.708,3.5586 -4.273,0 -1.425,-4.5547 -3.988,-10.1093 -0.996,-1.8516 -2.277,-2.5665 -4.554,-2.5665 -1.711,0 -5.129,0.8555 -7.407,0.8555 -11.394,0 -13.386,-11.25 -13.386,-16.8047 0,-11.3945 5.695,-16.8047 14.238,-16.8047 0.43,0 0.855,0 1.426,0.1407 1.281,0.1445 1.566,0.2851 1.14,0.2851 0.285,0 4.555,1.1406 4.27,1.1406 2.281,0.2852 1.281,0.2852 2.992,0 2.707,-0.4257 3.418,-0.7109 5.269,-0.7109 1.426,0 2.708,0.9961 2.708,3.1328 z m -26.208,-25.207 c 0,13.2422 7.692,13.957 10.54,14.0977 5.699,0.2851 9.968,-5.6954 9.968,-13.3868 0,-12.6757 -7.976,-14.5273 -10.254,-14.5273 -6.55,0 -10.254,5.6992 -10.254,13.8164" /><path
         id="path52"
         style="fill:#231f20;fill-opacity:1;fill-rule:evenodd;stroke:none"
         d="m 800.609,55.3359 c 0,3.7032 -2.707,13.6719 -14.953,13.6719 -10.254,0 -15.668,-6.8359 -15.668,-17.375 0,-9.9687 6.266,-16.3789 15.668,-16.3789 11.106,0 15.239,7.2656 11.395,7.2656 -1.426,0 -1.571,-0.5703 -2.281,-0.9961 l -3.704,-2.4218 c -0.996,-0.711 -2.703,-0.9961 -4.984,-0.9961 -4.844,0 -9.539,4.1289 -9.539,8.4023 0,4.8399 3.129,6.4063 11.961,6.4063 l 8.973,-0.1407 c 2.277,0 3.132,0.8555 3.132,2.5625 z m -23.355,4.2735 c 0,3.7031 3.273,6.5508 8.687,6.5508 5.125,0 7.973,-3.418 7.973,-6.9766 0,-2.8516 -3.273,-5.4141 -6.691,-5.4141 h -2.422 c -4.274,0 -7.547,2.4219 -7.547,5.8399" /><path
         id="path54"
         style="fill:#ffffff;fill-opacity:1;fill-rule:nonzero;stroke:none"
         d="m 481.047,109.707 -3.328,-7.578 c 0,0 -1.504,-6.0157 2.508,-9.3634 4.015,-3.3398 15.05,-28.7187 11.535,-43.0937 -3.508,-14.3789 -6.016,-11.3321 -10.532,-5.3516 -4.511,5.9805 -4.011,9.6602 -4.011,9.6602 0,0 -2.469,3.5781 -6.352,5.8515 -2.347,1.3711 -2.98,-4.0234 -2.98,-4.0234 0,0 -2.203,-20.3477 5.32,-28.207 7.523,-7.8594 4.848,-10.3672 2.172,-11.2032 -2.676,-0.832 -14.813,-1.7304 -18.824,-4.7382 -1.258,-0.9454 -1.785,-1.80473 -1.867,-2.55473 21.796,3.42583 52.32,-0.6875 52.32,-0.6875 0.078,-0.00781 2.66,-0.30469 4.902,0.01953 2.633,0.375 2.848,1.125 2.86,1.42969 0.082,1.71481 -0.563,2.34371 -1.157,2.75001 -0.394,0.2656 -1.008,0.5508 -1.851,0.957 l -2.512,1.4688 c 0,0 -2.23,21.0547 -5.262,38.9726 -3.054,18.0547 -6.851,33.918 -16.898,51.1214 l 1.535,8.781 c 4.902,3.957 9.453,10.047 9.453,16.836 0,6.105 -2.906,11.609 -7.344,15.519 -5.257,3.258 -16.269,4.543 -21.89,-4.625 -10.856,-17.699 11.66,-28.875 11.66,-28.875 0,0 1.723,-1.75 0.543,-3.066" /><path
         id="path56"
         style="fill:#ffffff;fill-opacity:1;fill-rule:nonzero;stroke:none"
         d="m 480.727,138.871 c 0,2.402 1.949,4.352 4.351,4.352 2.402,0 4.348,-1.95 4.348,-4.352 0,-2.402 -1.946,-4.348 -4.348,-4.348 -2.402,0 -4.351,1.946 -4.351,4.348" /><path
         id="path58"
         style="fill:#231f20;fill-opacity:1;fill-rule:nonzero;stroke:none"
         d="m 482.703,137.914 c 0,1.668 1.348,3.016 3.012,3.016 1.66,0 3.012,-1.348 3.012,-3.016 0,-1.66 -1.352,-3.008 -3.012,-3.008 -1.664,0 -3.012,1.348 -3.012,3.008" /><path
         id="path60"
         style="fill:#ffffff;fill-opacity:1;fill-rule:nonzero;stroke:none"
         d="m 485.676,139.219 c 0,0.781 0.633,1.418 1.418,1.418 0.781,0 1.418,-0.637 1.418,-1.418 0,-0.781 -0.637,-1.418 -1.418,-1.418 -0.785,0 -1.418,0.637 -1.418,1.418" /><path
         id="path62"
         style="fill:#231f20;fill-opacity:1;fill-rule:evenodd;stroke:none"
         d="m 480.727,138.871 c 0,2.402 1.949,4.352 4.351,4.352 2.402,0 4.348,-1.95 4.348,-4.352 0,-2.402 -1.946,-4.348 -4.348,-4.348 -2.402,0 -4.351,1.946 -4.351,4.348 z m -1.336,0 c 0,3.141 2.547,5.688 5.687,5.688 3.141,0 5.688,-2.547 5.688,-5.688 0,-3.141 -2.547,-5.687 -5.688,-5.687 -3.14,0 -5.687,2.546 -5.687,5.687" /><path
         id="path64"
         style="fill:#231f20;fill-opacity:1;fill-rule:nonzero;stroke:none"
         d="m 512.316,13.4805 -0.714,0.1445 c -1.039,0.2617 -3.473,0.4961 -7.164,0.5352 -1.852,0.0234 -1.821,2.7968 0.031,2.7773 1.332,-0.0117 8.219,0.5117 9.644,-1.1523 1.207,-1.4063 -0.593,-3.711 -1.797,-2.3047" /><path
         id="path66"
         style="fill:#231f20;fill-opacity:1;fill-rule:nonzero;stroke:none"
         d="M 453.871,4.30078 C 452.613,4.13281 446.273,5.57813 443.5,6.93359 429.77,13.7031 427.465,19.5117 427.465,19.5117 c 0,0 -2.567,1.4453 -7.012,11.8164 -4.441,10.3672 4.742,9.4766 4.742,9.4766 l 6.696,-1.9375 c 1.527,23.918 16.191,69.8438 20.261,81.8558 -1.336,3.062 -2.074,6.441 -2.074,9.992 0,13.816 11.195,25.012 25.012,25.012 13.812,0 25.008,-11.196 25.008,-25.012 0,-7.52 -3.317,-14.262 -8.567,-18.848 l -1,-7.207 c 15.387,-24.7655 22.215,-88.1444 22.215,-88.1444 0,0 5.789,-0.5937 5.492,-6.81638 -0.293,-6.21875 -11.414,-4.73828 -11.414,-4.73828 0,0 -32.777,2.08594 -52.953,-0.66016 z m 27.176,105.40622 -3.328,-7.578 c 0,0 -1.504,-6.0157 2.508,-9.3634 4.015,-3.3398 15.05,-28.7187 11.535,-43.0937 -3.508,-14.3789 -6.016,-11.3321 -10.532,-5.3516 -4.511,5.9805 -4.011,9.6602 -4.011,9.6602 0,0 -2.469,3.5781 -6.352,5.8515 -2.347,1.3711 -2.98,-4.0234 -2.98,-4.0234 0,0 -2.203,-20.3477 5.32,-28.207 7.523,-7.8594 4.848,-10.3672 2.172,-11.2032 -2.676,-0.832 -14.813,-1.7304 -18.824,-4.7382 -1.258,-0.9454 -1.785,-1.80473 -1.867,-2.55473 21.796,3.42583 52.32,-0.6875 52.32,-0.6875 0.078,-0.00781 2.66,-0.30469 4.902,0.01953 2.633,0.375 2.848,1.125 2.86,1.42969 0.082,1.71481 -0.563,2.34371 -1.157,2.75001 -0.394,0.2656 -1.008,0.5508 -1.851,0.957 l -2.512,1.4688 c 0,0 -2.23,21.0547 -5.262,38.9726 -3.054,18.0547 -6.851,33.918 -16.898,51.1214 l 1.535,8.781 c 4.902,3.957 9.453,10.047 9.453,16.836 0,6.105 -2.906,11.609 -7.344,15.519 -5.257,3.258 -16.269,4.543 -21.89,-4.625 -10.856,-17.699 11.66,-28.875 11.66,-28.875 0,0 1.723,-1.75 0.543,-3.066" /><path
         id="path68"
         style="fill:#231f20;fill-opacity:1;fill-rule:nonzero;stroke:none"
         d="m 496.484,140.125 c 7.063,-3.617 21.012,-6.383 23.957,-9.441 1.848,-1.922 -0.796,-3.309 -0.796,-3.309 0,0 -16.711,-4.375 -21.864,-3.145 -0.754,0.184 0.297,0.547 -0.554,0.43 -2.047,1.883 -3.329,4.59 -3.329,7.594 0,3.344 0.122,5.984 2.586,7.871" /></g></g></svg>